/* XPM */
static const char *english_xpm[] = {
/* columns rows colors chars-per-pixel */
"19 15 137 2",
"7. c #E1B2A9",
"Z  c #C2C2E1",
"q. c #E1AFA6",
")  c #E2C5C1",
"g  c #F7F1F0",
"*. c #D6C6CE",
"D  c #6D75C3",
"-  c #FCF5F3",
"]  c #8182C0",
"3. c #D98F80",
"'  c #CAC7E0",
";. c #E0C5C4",
"a  c #E3D2D2",
"G  c #7A81C8",
"+  c #E1E1F1",
"u. c #E19A8A",
",. c #E8D0CC",
">. c #E3C6C1",
"(  c #DEC2C0",
"z  c #6E76C3",
"L  c #DA9385",
"w. c #DDA39A",
"F  c #767EC6",
"m  c #D58678",
"x  c #7B82C8",
"O  c #E2E2F1",
"9. c #F3DFDC",
"9  c #F0CFC8",
"+. c #D2705B",
"`  c #F6ECEB",
"U  c #F3DCD8",
"J  c #BD858D",
"k  c #7E86CA",
"K  c #D69085",
"-. c #D8C5CC",
"|  c #6A6DB8",
":  c #7475BA",
"e  c #9096D0",
",  c #6062B3",
"5  c #D06A57",
"0. c #F4E3E0",
"A  c #868BCB",
"v  c #7C83C9",
"c  c #8187CA",
"V  c #DE9889",
"H  c #8B89C2",
"3  c #6A61A8",
"4. c #D98E7F",
"5. c #D98E80",
";  c #C5C2DD",
"T  c #A7AAD9",
"l  c #848BCC",
"6  c #D36B54",
"M  c #D98877",
"N  c #D98878",
"*  c #F7E4E0",
"^  c #7F81C2",
"i. c #E19989",
"y. c #E1998A",
".. c #6B6EB8",
"h. c #FAEEEB",
"f. c #FAEEEC",
"4  c #BB6764",
".  c #F3F3F8",
"f  c #EBDCDA",
"!  c #878CCB",
":. c #E3C5C1",
"Q  c #6E75C1",
"t  c #6E75C2",
"P  c #DA9284",
"b  c #918EC5",
"r. c #F5DEDA",
"2. c #DD9C8F",
"W  c #858CCB",
"1  c #5A5CB0",
"&. c #D5C6CE",
"j. c #FBF2EF",
"d. c #FBF2F0",
"p. c #E29A8B",
"}  c #6C6FB8",
" . c #6C6FB9",
"t. c #E5A79A",
"E  c #9298D0",
"2  c #5D60B2",
"p  c #C9BECD",
"w  c #7E85C8",
"s  c #E7D6D4",
"j  c #888DCC",
"r  c #8389CB",
"s. c #FEF9F8",
"X. c #766EAD",
"%  c #F6E2DE",
"@. c #D88372",
"a. c #F6DFDA",
"q  c #A4A8D8",
"=  c #F9E9E6",
"u  c #7C82C7",
"e. c #F4E2E0",
"8. c #DCA399",
"0  c #C5C7E5",
"[  c #6D70B9",
"<  c #5E61B2",
"y  c #848ACA",
"S  c #7F86CA",
"7  c #D36A54",
"i  c #7F83C4",
"6. c #F2DFDC",
"B  c #D98776",
"#. c #EFCFC9",
"@  c #E6E3EE",
"&  c #F7E3DF",
"1. c #F2DCD8",
"I  c #DFA196",
"C  c #F2D9D4",
"g. c #FAEDEB",
"/  c #C5AFBD",
"%. c #DCCFD6",
"~  c #7D83C7",
"O. c #CF705E",
"n  c #BC7C81",
"Y  c #C6C8E5",
"{  c #6E71B9",
"_  c #E6CECA",
"h  c #C1C1E0",
"o  c #E2E3F1",
"X  c #E7E7F3",
"#  c #F3E3E3",
"=. c #D5C5CE",
"o. c #BC6D6B",
"<. c #F6EAE9",
"   c #FEFEFE",
">  c #5D5FB2",
"8  c #DA7F6C",
"R  c #7E84C8",
"d  c #E7D5D3",
"$  c #F6E4E0",
"$. c #EFE9EC",
/* pixels */
"                                      ",
". X o O o O O + @ # $ % & * * & * = - ",
"; : > , < 1 2 < 3 4 5 6 7 7 7 7 6 8 9 ",
"0 q w e r t y u i p a s d s s d d f g ",
"h j k l z x c v b n m M M N M B B V C ",
"Z A x S D F x G H J K L L P L L L I U ",
"Y T R E W Q ! ~ ^ / ( ) ) ) ) ) ) _ ` ",
"' ] [ { } |  ...X.o.O.+.+.+.+.+.+.@.#.",
"$.%.&.*.=.&.=.&.-.;.:.>.>.>.>.>.>.,.<.",
"1.2.3.3.3.4.3.3.4.3.3.3.3.3.3.3.5.2.1.",
"6.7.8.8.8.8.8.8.8.8.8.8.8.8.8.8.8.7.9.",
"0.q.w.w.8.8.w.8.w.8.w.8.w.8.8.w.8.q.e.",
"r.t.y.u.i.i.i.y.p.y.p.y.i.i.i.u.y.t.a.",
"s.d.f.g.f.f.f.h.f.f.f.h.f.f.f.g.f.j.s.",
"                                      "
};
