/* XPM */
static const char *french_xpm[] = {
/* columns rows colors chars-per-pixel */
"19 15 30 1",
"  c #F3F3F5",
". c #EEEFF3",
"X c #ECEDF2",
"o c #F2F3F5",
"% c #E0E1ED",
"O c #F6F6F6",
"@ c #F4EDE9",
"+ c #F5F2F1",
"# c #F5EFEC",
"$ c #F6F3F1",
"& c #BCC0E0",
"* c #B1B6DB",
"= c #B1B5DB",
"- c #DEE0ED",
"; c #F3F3F4",
": c #F2F3F4",
"> c #F0DFD8",
", c #EAB59C",
"< c #EAB49B",
"1 c #EDC0AA",
"2 c #F2E1D9",
"3 c #BFC2E1",
"4 c #626ABD",
"5 c #4953B3",
"6 c #B8BCDD",
"7 c #EDEFF1",
"8 c #E6BCA9",
"9 c #D95313",
"0 c #DD6A33",
"q c #EDC2AE",
/* pixels */
" .XXXXoOOOOO+@@@@#$",
"%&*=**-;:::;>,,<,12",
"345555677777899990q",
"345555677777899990q",
"345555677777899990q",
"345555677777899990q",
"345555677777899990q",
"345555677777899990q",
"345555677777899990q",
"345555677777899990q",
"345555677777899990q",
"345555677777899990q",
"345555677777899990q",
"%&*=**-;:::;>,,<,12",
" .XXXXoOOOOO+@@@@#$"
};
