/* XPM */
static const char *japanese_xpm[] = {
/* columns rows colors chars-per-pixel */
"19 15 22 1",
"  c #FEFEFE",
". c #FCFDFD",
"X c #F9FAFB",
"o c #F7F8F9",
"O c #F8F9FA",
"+ c #F8F8F9",
"@ c #F9F9FA",
"# c #F0F1F3",
"$ c #EDEFF1",
"% c #EDEEF0",
"& c #ECEDEF",
"* c #EAE9EA",
"= c #E4D7D7",
"- c #DEC3C1",
"; c #E5D7D6",
": c #D0958B",
"> c #C05E47",
", c #BD523A",
"< c #B94529",
"1 c #B32E0D",
"2 c #B32E0C",
"3 c #EBE9EA",
/* pixels */
"                   ",
".XooooO+ooo+OooooX.",
"@#$$$$$$%&%$$$$$$#@",
"@#$$$$$*=-=*$$$$$#@",
"@#$$$$;:>,>:;$$$$#@",
"@#$$$*:<121<:3$$$#@",
"@#$$%=>12221>=%$$#@",
"@#$$&-,22222,-&$$#@",
"@#$$%=>12221>=%$$#@",
"@#$$$3:<121<:*$$$#@",
"@#$$$$;:>,>:;$$$$#@",
"@#$$$$$*=-=*$$$$$#@",
"@#$$$$$$%&%$$$$$$#@",
".XooooO+ooo+OooooX.",
"                   "
};
