/* XPM */
static const char *WinMerge_xpm[] = {
"16 16 127 2 0 0",
"   c #307DBF",
"!  c #E6F1FB",
"#  c #E9F3FC",
"$  c #EDF6FD",
"%  c #F0F7FD",
"&  c #F3F8FE",
"'  c #F6FAFD",
"(  c #F9FCFD",
")  c #6CB2EE",
"*  c #760508",
"+  c #E0EEFB",
",  c #5E9BCF",
"-  c #7CAED8",
".  c #9DC3E3",
"/  c #BDD6EC",
"0  c #DAE9F5",
"1  c #F4FAFE",
"2  c #5393CA",
"3  c #7B0B09",
"4  c #7B0C08",
"5  c #1D3C57",
"6  c #DAEBFA",
"7  c #DEEDFA",
"8  c #E1EFFB",
"9  c #E5F1FC",
":  c #EDF5FC",
";  c #C6CACF",
"<  c #C8CBCF",
"=  c #82150A",
">  c #D9B9B6",
"?  c #5F676E",
"@  c #4E90C9",
"A  c #68A1D2",
"B  c #86B4DC",
"C  c #A5C8E6",
"D  c #C3DBF0",
"E  c #EBF4FC",
"F  c #EEF6FC",
"G  c #F1F7FD",
"H  c #8B200C",
"I  c #8A1F0B",
"J  c #8B1F0B",
"K  c #CB9D94",
"L  c #CC9C94",
"M  c #63470A",
"N  c #DF9700",
"O  c #932C0D",
"P  c #C68F7B",
"Q  c #C78F7B",
"R  c #C68F7A",
"S  c #C78F7A",
"T  c #942B0D",
"U  c #6A5D14",
"V  c #EFCD19",
"W  c #EFCE19",
"X  c #9E390E",
"Y  c #C36837",
"Z  c #C57346",
"[  c #C97E52",
"]  c #CA8459",
"^  c #CA845A",
"_  c #C87E52",
"`  c #C57546",
"a  c #9D390E",
"b  c #6A5E20",
"c  c #F0D236",
"d  c #A8460F",
"e  c #D46918",
"f  c #D36B17",
"g  c #D36B18",
"h  c #D46B18",
"i  c #D46917",
"j  c #D46B17",
"k  c #A84610",
"l  c #6A602D",
"m  c #F1D657",
"n  c #B35512",
"o  c #E8901D",
"p  c #E8911D",
"q  c #E88F1F",
"r  c #B35412",
"s  c #6A6139",
"t  c #F1DA74",
"u  c #F0DA74",
"v  c #F1DB74",
"w  c #F0DB74",
"x  c #BD6213",
"y  c #F7B824",
"z  c #F6B824",
"{  c #111111",
"|  c #C76F15",
"}  c #FFDF2A",
"~  c #4E5E6B",
" ! c #3882C2",
"!! c #488DC9",
"#! c #5C9BD1",
"$! c #75ABD9",
"%! c #8EBBE3",
"&! c #A6CBEC",
"'! c #C8E2F8",
"(! c #D07B16",
")! c #A4CFF3",
"*! c #A8D1F3",
"+! c #ABD2F4",
",! c #AED4F4",
"-! c #B2D5F4",
".! c #B6D8F5",
"/! c #B9DAF6",
"0! c #BEDCF6",
"1! c #C2DEF6",
"2! c #D98617",
"3! c #A0CDF2",
"4! c #317EC0",
"5! c #3D86C5",
"6! c #4E92CB",
"7! c #62A0D4",
"8! c #79AFDD",
"9! c #91BEE6",
":! c #BBDAF6",
";! c #9DCBF1",
"<! c #9FCCF1",
"=! c #A2CDF2",
">! c #A5CFF2",
"?! c #A8D0F3",
"@! c #B1D6F4",
"A! c #B5D7F5",
"B! c None",
"B!B!B!B!B!                  B!B!",
"B!B!B!B!B!  ! # $ % & ' ( )   B!",
"B!B!B!* B!  + , - . / 0 1 2 2   ",
"B!B!B!3 4 5 6 7 8 9 # : % ; <   ",
"B!B!B!= > = ? @ A B C D E F G   ",
"H I J J K L J M N N N N N N N   ",
"O P Q R S S R T U V W W W V V   ",
"X Y Z [ ] ^ _ ` a b N N N N c   ",
"d e f g h i i j k l N N N N m   ",
"n o p o q p q r s t u v w t t   ",
"x x x x y z x M N N N N N N N   ",
"B!{ { | } | ~    !!!#!$!%!&!'!  ",
"B!B!B!(!(!5 )!*!+!,!-!.!/!0!1!  ",
"B!B!B!2!{   3!  4!5!6!7!8!9!:!  ",
"B!B!B!{ B!  ;!<!=!>!?!+!,!@!A!  ",
"B!B!B!B!B!                      "
};
