<?xml version="1.0" encoding="UTF-8" standalone="no"?>
<!DOCTYPE svg PUBLIC "-//W3C//DTD SVG 1.1//EN" "http://www.w3.org/Graphics/SVG/1.1/DTD/svg11.dtd">
<svg width="30px" height="30px" version="1.1" xmlns="http://www.w3.org/2000/svg" xmlns:xlink="http://www.w3.org/1999/xlink" xml:space="preserve" xmlns:serif="http://www.serif.com/" style="fill-rule:evenodd;clip-rule:evenodd;stroke-linejoin:round;stroke-miterlimit:2;">
    <g id="text">
        <path d="M8.783,10.83L8,10.83L8,9L8.296,9L8.296,10.496L8.783,10.496L8.783,10.83Z" style="fill-rule:nonzero;"/>
        <path d="M9.379,10.862C9.222,10.862 9.099,10.801 9.01,10.679C8.92,10.557 8.875,10.391 8.875,10.182C8.875,9.966 8.922,9.797 9.015,9.674C9.108,9.552 9.233,9.491 9.392,9.491C9.548,9.491 9.67,9.552 9.759,9.674C9.847,9.797 9.892,9.958 9.892,10.159C9.892,10.376 9.846,10.547 9.755,10.673C9.663,10.799 9.538,10.862 9.379,10.862ZM9.386,9.8C9.318,9.8 9.265,9.833 9.227,9.898C9.189,9.964 9.17,10.057 9.17,10.177C9.17,10.428 9.243,10.553 9.388,10.553C9.527,10.553 9.596,10.424 9.596,10.166C9.596,9.922 9.526,9.8 9.386,9.8Z" style="fill-rule:nonzero;"/>
        <path d="M10.692,9.887C10.658,9.861 10.617,9.847 10.57,9.847C10.507,9.847 10.458,9.88 10.423,9.944C10.387,10.008 10.37,10.095 10.37,10.206L10.37,10.83L10.08,10.83L10.08,9.523L10.37,9.523L10.37,9.766L10.373,9.766C10.419,9.589 10.502,9.5 10.621,9.5C10.651,9.5 10.675,9.505 10.692,9.516L10.692,9.887Z" style="fill-rule:nonzero;"/>
        <path d="M11.664,10.292L11.051,10.292C11.061,10.481 11.147,10.576 11.309,10.576C11.412,10.576 11.503,10.542 11.581,10.474L11.581,10.765C11.494,10.83 11.381,10.862 11.243,10.862C11.091,10.862 10.973,10.804 10.89,10.687C10.806,10.57 10.764,10.406 10.764,10.197C10.764,9.98 10.809,9.808 10.9,9.681C10.99,9.555 11.101,9.491 11.234,9.491C11.37,9.491 11.476,9.548 11.551,9.661C11.626,9.774 11.664,9.928 11.664,10.122L11.664,10.292ZM11.395,10.044C11.395,9.857 11.341,9.763 11.232,9.763C11.185,9.763 11.145,9.79 11.111,9.844C11.077,9.897 11.057,9.964 11.049,10.044L11.395,10.044Z" style="fill-rule:nonzero;"/>
        <path d="M13.327,10.83L13.039,10.83L13.039,10.085C13.039,9.895 12.988,9.8 12.888,9.8C12.84,9.8 12.802,9.829 12.772,9.886C12.742,9.943 12.727,10.014 12.727,10.099L12.727,10.83L12.437,10.83L12.437,10.077C12.437,9.892 12.388,9.8 12.289,9.8C12.24,9.8 12.2,9.827 12.17,9.882C12.141,9.936 12.126,10.01 12.126,10.104L12.126,10.83L11.836,10.83L11.836,9.523L12.126,9.523L12.126,9.727L12.13,9.727C12.16,9.658 12.202,9.601 12.256,9.557C12.31,9.513 12.369,9.491 12.433,9.491C12.566,9.491 12.657,9.573 12.706,9.735C12.777,9.573 12.882,9.491 13.021,9.491C13.225,9.491 13.327,9.667 13.327,10.017L13.327,10.83Z" style="fill-rule:nonzero;"/>
        <rect x="14.103" y="9" width="0.296" height="1.83"/>
        <path d="M14.964,10.678L14.96,10.678L14.96,11.431L14.67,11.431L14.67,9.523L14.96,9.523L14.96,9.72L14.964,9.72C15.035,9.567 15.136,9.491 15.265,9.491C15.387,9.491 15.481,9.549 15.547,9.666C15.614,9.782 15.647,9.94 15.647,10.14C15.647,10.357 15.608,10.532 15.531,10.664C15.454,10.796 15.351,10.862 15.222,10.862C15.109,10.862 15.023,10.801 14.964,10.678ZM14.955,10.142L14.955,10.247C14.955,10.337 14.973,10.411 15.007,10.468C15.041,10.525 15.086,10.553 15.142,10.553C15.208,10.553 15.259,10.518 15.295,10.447C15.332,10.376 15.35,10.275 15.35,10.145C15.35,9.915 15.286,9.8 15.157,9.8C15.098,9.8 15.049,9.831 15.012,9.894C14.974,9.957 14.955,10.039 14.955,10.142Z" style="fill-rule:nonzero;"/>
        <path d="M15.774,10.796L15.774,10.469C15.821,10.509 15.869,10.539 15.916,10.558C15.964,10.578 16.008,10.588 16.05,10.588C16.102,10.588 16.142,10.578 16.172,10.558C16.202,10.539 16.216,10.509 16.216,10.469C16.216,10.443 16.21,10.422 16.196,10.405C16.183,10.388 16.166,10.373 16.144,10.36C16.123,10.348 16.1,10.336 16.075,10.326C16.05,10.316 16.026,10.304 16.003,10.292C15.965,10.272 15.933,10.251 15.904,10.228C15.876,10.206 15.852,10.18 15.833,10.15C15.813,10.12 15.799,10.086 15.789,10.046C15.779,10.007 15.774,9.961 15.774,9.907C15.774,9.834 15.785,9.771 15.808,9.719C15.831,9.666 15.861,9.623 15.9,9.589C15.938,9.555 15.982,9.531 16.031,9.515C16.08,9.499 16.131,9.491 16.184,9.491C16.226,9.491 16.268,9.496 16.311,9.505C16.354,9.514 16.396,9.527 16.438,9.544L16.438,9.855C16.401,9.825 16.362,9.803 16.32,9.788C16.278,9.773 16.237,9.766 16.196,9.766C16.177,9.766 16.159,9.768 16.143,9.773C16.126,9.777 16.111,9.784 16.098,9.793C16.085,9.802 16.075,9.814 16.068,9.828C16.061,9.842 16.057,9.858 16.057,9.875C16.057,9.899 16.062,9.92 16.073,9.937C16.084,9.954 16.099,9.968 16.117,9.981C16.134,9.993 16.154,10.004 16.176,10.014C16.197,10.024 16.219,10.034 16.24,10.044C16.279,10.063 16.314,10.083 16.345,10.105C16.376,10.127 16.403,10.153 16.425,10.183C16.447,10.213 16.465,10.248 16.477,10.288C16.488,10.328 16.494,10.375 16.494,10.431C16.494,10.508 16.482,10.574 16.458,10.629C16.434,10.684 16.402,10.729 16.362,10.763C16.322,10.798 16.276,10.823 16.223,10.838C16.171,10.854 16.117,10.862 16.061,10.862C15.957,10.862 15.862,10.84 15.774,10.796Z" style="fill-rule:nonzero;"/>
        <path d="M17.554,10.83L17.265,10.83L17.265,10.631L17.26,10.631C17.189,10.785 17.093,10.862 16.973,10.862C16.755,10.862 16.647,10.679 16.647,10.312L16.647,9.523L16.936,9.523L16.936,10.276C16.936,10.461 16.988,10.553 17.093,10.553C17.145,10.553 17.187,10.528 17.218,10.477C17.249,10.427 17.265,10.358 17.265,10.271L17.265,9.523L17.554,9.523L17.554,10.83Z" style="fill-rule:nonzero;"/>
        <path d="M19.289,10.83L19,10.83L19,10.085C19,9.895 18.95,9.8 18.85,9.8C18.802,9.8 18.763,9.829 18.733,9.886C18.703,9.943 18.688,10.014 18.688,10.099L18.688,10.83L18.398,10.83L18.398,10.077C18.398,9.892 18.349,9.8 18.251,9.8C18.201,9.8 18.162,9.827 18.132,9.882C18.102,9.936 18.088,10.01 18.088,10.104L18.088,10.83L17.798,10.83L17.798,9.523L18.088,9.523L18.088,9.727L18.091,9.727C18.121,9.658 18.163,9.601 18.217,9.557C18.271,9.513 18.331,9.491 18.395,9.491C18.527,9.491 18.618,9.573 18.667,9.735C18.739,9.573 18.844,9.491 18.983,9.491C19.187,9.491 19.289,9.667 19.289,10.017L19.289,10.83Z" style="fill-rule:nonzero;"/>
    </g>
</svg>
