<?xml version="1.0" encoding="UTF-8" standalone="no"?>
<!DOCTYPE svg PUBLIC "-//W3C//DTD SVG 1.1//EN" "http://www.w3.org/Graphics/SVG/1.1/DTD/svg11.dtd">
<svg width="30px" height="30px" version="1.1" xmlns="http://www.w3.org/2000/svg" xmlns:xlink="http://www.w3.org/1999/xlink" xml:space="preserve" xmlns:serif="http://www.serif.com/" style="fill-rule:evenodd;clip-rule:evenodd;">
    <g id="window">
        <path d="M29.976,29.494C29.976,29.752 29.846,29.961 29.686,29.961L0.314,29.961C0.154,29.961 0.024,29.752 0.024,29.494L0.024,0.506C0.024,0.248 0.154,0.039 0.314,0.039L29.686,0.039C29.846,0.039 29.976,0.248 29.976,0.506L29.976,29.494Z" style="fill:url(#_Linear1);fill-rule:nonzero;stroke:rgb(7,0,1);stroke-width:0.06px;"/>
        <rect x="0.411" y="4" width="29.179" height="25.494" style="fill:rgb(244,242,241);stroke:rgb(35,24,21);stroke-width:0.13px;"/>
        <path d="M26.543,3L27.58,1.958L26.666,1.001L27.088,1.001L27.574,1.514C27.675,1.62 27.747,1.702 27.79,1.759C27.85,1.687 27.92,1.611 28.002,1.532L28.541,1.001L28.927,1.001L27.985,1.943L29,3L28.561,3L27.887,2.287C27.849,2.246 27.81,2.202 27.77,2.153C27.71,2.226 27.667,2.276 27.642,2.303L26.969,3L26.543,3Z" style="fill-rule:nonzero;"/>
        <path d="M1,2.626L1,1.279L1.233,1.279L1.233,2.467L2.101,2.467L2.101,2.626L1,2.626Z" style="fill-rule:nonzero;"/>
        <path d="M2.27,2.138C2.27,1.958 2.336,1.824 2.467,1.737C2.577,1.665 2.711,1.628 2.869,1.628C3.044,1.628 3.187,1.672 3.299,1.76C3.41,1.848 3.466,1.97 3.466,2.125C3.466,2.25 3.441,2.349 3.392,2.421C3.343,2.493 3.271,2.549 3.177,2.588C3.083,2.628 2.98,2.648 2.869,2.648C2.69,2.648 2.546,2.604 2.435,2.517C2.325,2.429 2.27,2.303 2.27,2.138ZM2.492,2.138C2.492,2.263 2.528,2.357 2.599,2.419C2.671,2.481 2.76,2.512 2.869,2.512C2.976,2.512 3.065,2.481 3.137,2.418C3.208,2.356 3.243,2.261 3.243,2.133C3.243,2.012 3.208,1.921 3.136,1.859C3.064,1.796 2.975,1.765 2.869,1.765C2.76,1.765 2.671,1.796 2.599,1.858C2.528,1.92 2.492,2.013 2.492,2.138Z" style="fill-rule:nonzero;"/>
        <path d="M3.717,2.626L3.717,1.65L3.912,1.65L3.912,1.798C3.961,1.729 4.007,1.684 4.049,1.662C4.091,1.639 4.137,1.628 4.188,1.628C4.261,1.628 4.335,1.646 4.41,1.682L4.336,1.835C4.283,1.811 4.23,1.799 4.177,1.799C4.13,1.799 4.087,1.81 4.05,1.832C4.012,1.854 3.985,1.884 3.969,1.922C3.945,1.981 3.933,2.046 3.933,2.115L3.933,2.626L3.717,2.626Z" style="fill-rule:nonzero;"/>
        <path d="M5.412,2.312L5.636,2.333C5.601,2.433 5.535,2.51 5.44,2.565C5.345,2.621 5.223,2.648 5.075,2.648C4.888,2.648 4.74,2.604 4.631,2.516C4.521,2.428 4.467,2.305 4.467,2.147C4.467,1.982 4.522,1.855 4.633,1.764C4.743,1.674 4.887,1.628 5.063,1.628C5.233,1.628 5.373,1.673 5.481,1.762C5.589,1.85 5.643,1.975 5.643,2.136C5.643,2.146 5.643,2.161 5.642,2.181L4.69,2.181C4.698,2.288 4.738,2.37 4.809,2.427C4.881,2.484 4.969,2.512 5.076,2.512C5.155,2.512 5.223,2.496 5.279,2.464C5.335,2.433 5.38,2.382 5.412,2.312ZM4.702,2.045L5.415,2.045C5.405,1.963 5.378,1.901 5.333,1.86C5.264,1.796 5.175,1.764 5.065,1.764C4.966,1.764 4.882,1.79 4.815,1.841C4.747,1.891 4.709,1.959 4.702,2.045Z" style="fill-rule:nonzero;"/>
        <path d="M5.908,2.626L5.908,1.65L6.101,1.65L6.101,1.787C6.141,1.74 6.194,1.701 6.261,1.672C6.327,1.643 6.403,1.628 6.488,1.628C6.582,1.628 6.66,1.643 6.72,1.673C6.781,1.703 6.824,1.745 6.848,1.799C6.949,1.685 7.081,1.628 7.243,1.628C7.369,1.628 7.466,1.655 7.535,1.709C7.603,1.762 7.637,1.845 7.637,1.956L7.637,2.626L7.422,2.626L7.422,2.012C7.422,1.945 7.415,1.898 7.401,1.869C7.387,1.84 7.361,1.816 7.324,1.798C7.287,1.781 7.244,1.772 7.194,1.772C7.105,1.772 7.03,1.795 6.971,1.84C6.912,1.886 6.882,1.959 6.882,2.059L6.882,2.626L6.666,2.626L6.666,1.992C6.666,1.919 6.648,1.864 6.613,1.827C6.578,1.79 6.52,1.772 6.44,1.772C6.379,1.772 6.323,1.784 6.271,1.808C6.219,1.833 6.182,1.869 6.159,1.916C6.135,1.963 6.124,2.031 6.124,2.12L6.124,2.626L5.908,2.626Z" style="fill-rule:nonzero;"/>
        <rect x="8.709" y="1.279" width="0.233" height="1.347" style="fill-rule:nonzero;"/>
        <path d="M9.325,3L9.325,1.65L9.522,1.65L9.522,1.777C9.569,1.728 9.621,1.69 9.679,1.666C9.738,1.641 9.809,1.628 9.892,1.628C10.001,1.628 10.097,1.65 10.181,1.693C10.264,1.736 10.327,1.796 10.369,1.874C10.412,1.952 10.433,2.038 10.433,2.131C10.433,2.231 10.409,2.321 10.363,2.401C10.316,2.48 10.248,2.542 10.158,2.584C10.069,2.627 9.975,2.648 9.877,2.648C9.804,2.648 9.74,2.637 9.682,2.613C9.625,2.59 9.578,2.561 9.541,2.525L9.541,3L9.325,3ZM9.521,2.144C9.521,2.269 9.554,2.362 9.621,2.422C9.687,2.482 9.768,2.512 9.862,2.512C9.958,2.512 10.041,2.481 10.109,2.419C10.178,2.357 10.212,2.26 10.212,2.13C10.212,2.006 10.178,1.913 10.111,1.851C10.045,1.789 9.965,1.758 9.872,1.758C9.78,1.758 9.698,1.791 9.627,1.857C9.556,1.923 9.521,2.018 9.521,2.144Z" style="fill-rule:nonzero;"/>
        <path d="M10.607,2.335L10.821,2.309C10.833,2.375 10.866,2.425 10.921,2.46C10.976,2.495 11.053,2.512 11.151,2.512C11.251,2.512 11.325,2.497 11.373,2.466C11.421,2.435 11.445,2.399 11.445,2.357C11.445,2.32 11.423,2.29 11.381,2.269C11.351,2.254 11.278,2.235 11.16,2.213C11.001,2.182 10.891,2.156 10.83,2.133C10.769,2.111 10.722,2.08 10.691,2.04C10.659,2.001 10.643,1.957 10.643,1.91C10.643,1.866 10.656,1.826 10.682,1.789C10.708,1.752 10.744,1.721 10.789,1.696C10.822,1.677 10.868,1.661 10.926,1.648C10.984,1.635 11.047,1.628 11.113,1.628C11.213,1.628 11.301,1.639 11.377,1.662C11.452,1.684 11.508,1.713 11.544,1.751C11.58,1.789 11.605,1.839 11.619,1.902L11.407,1.924C11.398,1.874 11.37,1.835 11.324,1.807C11.278,1.778 11.213,1.764 11.129,1.764C11.029,1.764 10.958,1.777 10.916,1.802C10.873,1.827 10.852,1.857 10.852,1.89C10.852,1.912 10.861,1.931 10.879,1.948C10.896,1.966 10.924,1.981 10.962,1.992C10.983,1.998 11.047,2.012 11.153,2.034C11.306,2.066 11.412,2.091 11.473,2.111C11.533,2.131 11.581,2.16 11.615,2.198C11.65,2.236 11.667,2.283 11.667,2.339C11.667,2.395 11.646,2.447 11.604,2.495C11.562,2.544 11.501,2.582 11.422,2.608C11.343,2.635 11.253,2.648 11.153,2.648C10.987,2.648 10.86,2.622 10.774,2.569C10.687,2.516 10.631,2.438 10.607,2.335Z" style="fill-rule:nonzero;"/>
        <path d="M12.76,2.626L12.76,2.483C12.661,2.593 12.526,2.648 12.356,2.648C12.28,2.648 12.21,2.637 12.145,2.615C12.079,2.593 12.031,2.565 11.999,2.532C11.968,2.499 11.945,2.458 11.933,2.409C11.924,2.377 11.919,2.325 11.919,2.255L11.919,1.65L12.136,1.65L12.136,2.192C12.136,2.278 12.14,2.336 12.149,2.366C12.162,2.41 12.191,2.444 12.235,2.469C12.279,2.493 12.334,2.506 12.399,2.506C12.464,2.506 12.525,2.493 12.581,2.468C12.638,2.442 12.679,2.408 12.702,2.364C12.726,2.32 12.738,2.256 12.738,2.173L12.738,1.65L12.954,1.65L12.954,2.626L12.76,2.626Z" style="fill-rule:nonzero;"/>
        <path d="M13.293,2.626L13.293,1.65L13.486,1.65L13.486,1.787C13.526,1.74 13.58,1.701 13.646,1.672C13.713,1.643 13.788,1.628 13.873,1.628C13.968,1.628 14.045,1.643 14.106,1.673C14.166,1.703 14.209,1.745 14.234,1.799C14.335,1.685 14.466,1.628 14.628,1.628C14.754,1.628 14.852,1.655 14.92,1.709C14.988,1.762 15.022,1.845 15.022,1.956L15.022,2.626L14.807,2.626L14.807,2.012C14.807,1.945 14.8,1.898 14.786,1.869C14.772,1.84 14.746,1.816 14.71,1.798C14.673,1.781 14.629,1.772 14.58,1.772C14.49,1.772 14.416,1.795 14.356,1.84C14.297,1.886 14.267,1.959 14.267,2.059L14.267,2.626L14.051,2.626L14.051,1.992C14.051,1.919 14.033,1.864 13.998,1.827C13.963,1.79 13.905,1.772 13.825,1.772C13.764,1.772 13.708,1.784 13.656,1.808C13.605,1.833 13.567,1.869 13.544,1.916C13.521,1.963 13.509,2.031 13.509,2.12L13.509,2.626L13.293,2.626Z" style="fill-rule:nonzero;"/>
    </g>
    <defs>
        <linearGradient id="_Linear1" x1="0" y1="0" x2="1" y2="0" gradientUnits="userSpaceOnUse" gradientTransform="matrix(1.1359e-15,-29.9221,18.5507,1.8322e-15,15,29.961)"><stop offset="0" style="stop-color:rgb(62,77,151);stop-opacity:1"/><stop offset="0.11" style="stop-color:rgb(39,68,146);stop-opacity:1"/><stop offset="0.2" style="stop-color:rgb(21,64,143);stop-opacity:1"/><stop offset="0.25" style="stop-color:rgb(26,67,145);stop-opacity:1"/><stop offset="0.4" style="stop-color:rgb(35,74,149);stop-opacity:1"/><stop offset="0.71" style="stop-color:rgb(33,81,154);stop-opacity:1"/><stop offset="0.77" style="stop-color:rgb(33,82,155);stop-opacity:1"/><stop offset="0.81" style="stop-color:rgb(35,83,156);stop-opacity:1"/><stop offset="0.85" style="stop-color:rgb(59,96,165);stop-opacity:1"/><stop offset="0.89" style="stop-color:rgb(44,88,159);stop-opacity:1"/><stop offset="0.94" style="stop-color:rgb(77,108,172);stop-opacity:1"/><stop offset="0.98" style="stop-color:rgb(97,125,183);stop-opacity:1"/><stop offset="0.99" style="stop-color:rgb(123,150,199);stop-opacity:1"/><stop offset="1" style="stop-color:rgb(154,178,217);stop-opacity:1"/><stop offset="1" style="stop-color:rgb(155,179,217);stop-opacity:1"/></linearGradient>
    </defs>
</svg>
