<?xml version="1.0" encoding="UTF-8" standalone="no"?>
<!DOCTYPE svg PUBLIC "-//W3C//DTD SVG 1.1//EN" "http://www.w3.org/Graphics/SVG/1.1/DTD/svg11.dtd">
<svg width="30px" height="30px" version="1.1" xmlns="http://www.w3.org/2000/svg" xmlns:xlink="http://www.w3.org/1999/xlink" xml:space="preserve" xmlns:serif="http://www.serif.com/" style="fill-rule:evenodd;clip-rule:evenodd;">
    <path id="arrow" d="M17.155,22.688L19.044,24.576L16.526,23.338L16.494,27.613L13.461,27.593L13.493,23.317L12.224,23.919L10.956,24.522L12.838,22.689L14.455,20.998L15.031,20.313L15.587,20.945L17.155,22.687L17.155,22.688Z" style="fill:rgb(68,170,0);fill-rule:nonzero;"/>
    <rect id="box" x="10.313" y="10.312" width="9.375" height="9.375" style="fill:rgb(0,255,255);stroke:url(#_Radial1);stroke-width:0.85px;"/>
    <path id="arrow1" serif:id="arrow" d="M10.956,5.302L12.859,7.171L14.439,8.898L15,9.525L15.571,8.832L17.175,7.124L19.044,5.269L17.781,5.886L16.518,6.502L16.518,2.223L15.002,2.229L13.484,2.236L13.484,6.514L12.22,5.909L10.956,5.302Z" style="fill:rgb(68,170,0);fill-rule:nonzero;"/>
    <rect id="top" x="-0.017" y="-0.062" width="30" height="1.975"/>
    <rect id="bottom" x="-0" y="27.98" width="30" height="2.02"/>
    <rect id="outer" x="0" y="0" width="30" height="30" style="fill:none;"/>
    <defs>
        <radialGradient id="_Radial1" cx="0" cy="0" r="1" gradientUnits="userSpaceOnUse" gradientTransform="matrix(-9.38325e-07,-14.0625,19.1213,0.000478327,20.6248,20.4694)"><stop offset="0" style="stop-color:black;stop-opacity:1"/><stop offset="1" style="stop-color:black;stop-opacity:0"/></radialGradient>
    </defs>
</svg>
