<?xml version="1.0" encoding="UTF-8" standalone="no"?><!DOCTYPE svg PUBLIC "-//W3C//DTD SVG 1.1//EN" "http://www.w3.org/Graphics/SVG/1.1/DTD/svg11.dtd"><svg width="100%" height="100%" viewBox="0 0 32 32" version="1.1" xmlns="http://www.w3.org/2000/svg" xmlns:xlink="http://www.w3.org/1999/xlink" xml:space="preserve" xmlns:serif="http://www.serif.com/" style="fill-rule:evenodd;clip-rule:evenodd;"><path id="arrow" d="M26.504,11.068l-1.993,2.03l-1.843,1.685l-0.668,0.598l0.739,0.609l1.821,1.711l1.979,1.994l-0.659,-1.347l-0.656,-1.348l4.565,0l-0.007,-1.617l-0.007,-1.619l-4.563,0l0.645,-1.348l0.647,-1.348Z" style="fill:#4a0;fill-rule:nonzero;"/><rect id="box" x="10.872" y="10.798" width="10" height="10" style="fill:#0ff;stroke:url(#_Radial1);stroke-width:0.91px;"/><path id="arrow1" serif:id="arrow" d="M7.467,17.671l-2.015,2.015l1.321,-2.686l-4.56,-0.034l0.021,-3.235l2.28,0.017l2.281,0.017l-0.643,-1.353l-0.642,-1.353l1.955,2.008l1.803,1.724l0.732,0.615l-0.674,0.593l-1.859,1.672Z" style="fill:#4a0;fill-rule:nonzero;"/><path id="outer" d="M-0.333,32l0,-32.333l32.333,0l0,32.333l-32.333,0Zm30.863,-1.47l0,-29.394l-29.394,0l0,29.394l29.394,0Z" style="fill-rule:nonzero;"/><defs><radialGradient id="_Radial1" cx="0" cy="0" r="1" gradientUnits="userSpaceOnUse" gradientTransform="matrix(-1.00088e-06,-15,20.3961,0.000510216,21.8717,21.6317)"><stop offset="0" style="stop-color:#000;stop-opacity:1"/><stop offset="1" style="stop-color:#000;stop-opacity:0"/></radialGradient></defs></svg>