<?xml version="1.0" encoding="UTF-8" standalone="no"?>
<!DOCTYPE svg PUBLIC "-//W3C//DTD SVG 1.1//EN" "http://www.w3.org/Graphics/SVG/1.1/DTD/svg11.dtd">
<svg width="30px" height="30px" version="1.1" xmlns="http://www.w3.org/2000/svg" xmlns:xlink="http://www.w3.org/1999/xlink" xml:space="preserve" xmlns:serif="http://www.serif.com/" style="fill-rule:evenodd;clip-rule:evenodd;">
    <path id="arrow" d="M24.848,10.956L22.979,12.859L21.251,14.439L20.625,15L21.318,15.571L23.025,17.175L24.88,19.044L24.263,17.781L23.648,16.518L27.927,16.518L27.921,15.002L27.914,13.484L23.636,13.484L24.241,12.22L24.848,10.956Z" style="fill:rgb(68,170,0);fill-rule:nonzero;"/>
    <rect id="box" x="10.192" y="10.313" width="9.375" height="9.375" style="fill:rgb(0,255,255);stroke:url(#_Radial1);stroke-width:0.85px;"/>
    <path id="arrow1" serif:id="arrow" d="M7,17.155L5.111,19.044L6.35,16.526L2.075,16.494L2.094,13.461L6.37,13.493L5.768,12.224L5.166,10.956L6.998,12.838L8.689,14.455L9.375,15.031L8.743,15.587L7,17.155Z" style="fill:rgb(68,170,0);fill-rule:nonzero;"/>
    <path id="left_line" d="M-0.032,0L1.196,-0.002L1.205,29.998L-0.022,30L-0.032,0Z" style="fill-rule:nonzero;"/>
    <path id="right_line" d="M28.763,0L29.99,-0.002L30,29.998L28.773,30L28.763,0Z" style="fill-rule:nonzero;"/>
    <rect id="outer" x="0" y="0" width="30" height="30" style="fill:none;"/>
    <defs>
        <radialGradient id="_Radial1" cx="0" cy="0" r="1" gradientUnits="userSpaceOnUse" gradientTransform="matrix(-9.38325e-07,-14.0625,19.1213,0.000478327,20.5047,20.4692)"><stop offset="0" style="stop-color:black;stop-opacity:1"/><stop offset="1" style="stop-color:black;stop-opacity:0"/></radialGradient>
    </defs>
</svg>
