<?xml version="1.0" encoding="UTF-8" standalone="no"?><!DOCTYPE svg PUBLIC "-//W3C//DTD SVG 1.1//EN" "http://www.w3.org/Graphics/SVG/1.1/DTD/svg11.dtd"><svg width="100%" height="100%" viewBox="0 0 32 32" version="1.1" xmlns="http://www.w3.org/2000/svg" xmlns:xlink="http://www.w3.org/1999/xlink" xml:space="preserve" xmlns:serif="http://www.serif.com/" style="fill-rule:evenodd;clip-rule:evenodd;"><path id="arrow" d="M17.671,24.2l2.015,2.014l-2.686,-1.32l-0.034,4.56l-3.235,-0.021l0.017,-2.281l0.017,-2.28l-1.353,0.642l-1.353,0.643l2.008,-1.955l1.724,-1.804l0.615,-0.731l0.593,0.674l1.672,1.859Z" style="fill:#4a0;fill-rule:nonzero;"/><rect id="box" x="10.416" y="10.588" width="10" height="10" style="fill:#0ff;stroke:url(#_Radial1);stroke-width:0.91px;"/><path id="arrow1" serif:id="arrow" d="M11.068,5.163l2.03,1.993l1.685,1.842l0.598,0.669l0.609,-0.739l1.711,-1.822l1.994,-1.979l-1.347,0.659l-1.348,0.657l0,-4.565l-1.617,0.007l-1.619,0.007l0,4.563l-1.348,-0.645l-1.348,-0.647Z" style="fill:#4a0;fill-rule:nonzero;"/><path id="outer" d="M32,32l-32.333,0l0,-32.333l32.333,0l0,32.333Zm-1.47,-30.864l-29.394,0l0,29.394l29.394,-0l0,-29.394Z" style="fill-rule:nonzero;"/><defs><radialGradient id="_Radial1" cx="0" cy="0" r="1" gradientUnits="userSpaceOnUse" gradientTransform="matrix(-1.00088e-06,-15,20.3961,0.000510216,21.4158,21.4218)"><stop offset="0" style="stop-color:#000;stop-opacity:1"/><stop offset="1" style="stop-color:#000;stop-opacity:0"/></radialGradient></defs></svg>