<?xml version="1.0" encoding="UTF-8" standalone="no"?>
<!DOCTYPE svg PUBLIC "-//W3C//DTD SVG 1.1//EN" "http://www.w3.org/Graphics/SVG/1.1/DTD/svg11.dtd">
<svg width="30px" height="30px" version="1.1" xmlns="http://www.w3.org/2000/svg" xmlns:xlink="http://www.w3.org/1999/xlink" xml:space="preserve" xmlns:serif="http://www.serif.com/" style="fill-rule:evenodd;clip-rule:evenodd;stroke-linejoin:round;">
    <g>
        <rect x="1" y="8.437" width="28" height="13.125" style="fill:none;stroke:rgb(136,136,136);stroke-width:1.94px;"/>
        <rect x="1" y="8.437" width="28.359" height="13.125" style="fill:rgb(221,221,221);"/>
        <rect x="2.013" y="9.374" width="26.334" height="11.25" style="fill:white;"/>
    </g>
    <g id="save">
        <path id="path9" d="M24.769,10.786L24.103,10.786L24.103,13.158C24.103,13.296 23.995,13.408 23.858,13.408L18.546,13.408C18.412,13.408 18.301,13.297 18.301,13.158L18.301,10.786L17.898,10.786L17.186,11.515L17.186,18.544C17.186,18.682 17.295,18.795 17.431,18.795L18.303,18.795L18.303,15.191C18.303,15.053 18.412,14.94 18.548,14.94L23.861,14.94C23.996,14.94 24.106,15.051 24.106,15.191L24.106,18.797L24.769,18.797C24.904,18.797 25.014,18.685 25.014,18.546L25.014,11.037C25.014,10.899 24.904,10.786 24.769,10.786Z" style="fill:rgb(86,172,224);fill-rule:nonzero;"/>
        <path id="path13" d="M18.789,15.43L18.789,18.798L23.606,18.798L23.606,15.43L18.789,15.43ZM22.521,17.973L19.87,17.973C19.736,17.973 19.627,17.862 19.627,17.722C19.627,17.583 19.736,17.47 19.87,17.47L22.521,17.47C22.656,17.47 22.766,17.582 22.766,17.722C22.766,17.86 22.656,17.973 22.521,17.973ZM22.521,16.756L19.87,16.756C19.736,16.756 19.627,16.642 19.627,16.505C19.627,16.367 19.736,16.254 19.87,16.254L22.521,16.254C22.656,16.254 22.766,16.365 22.766,16.505C22.766,16.644 22.656,16.756 22.521,16.756Z" style="fill:rgb(255,193,13);fill-rule:nonzero;"/>
        <g id="g23">
            <path id="path15" d="M24.767,10.287L17.798,10.287C17.735,10.287 17.672,10.314 17.625,10.36L16.769,11.234C16.724,11.282 16.698,11.346 16.698,11.412L16.698,18.537C16.698,18.951 17.027,19.287 17.432,19.287L24.767,19.287C25.171,19.287 25.5,18.951 25.5,18.537L25.5,11.037C25.5,10.624 25.171,10.287 24.767,10.287ZM18.791,10.787L23.614,10.787L23.614,12.906L18.791,12.906L18.791,10.787ZM18.791,18.788L18.791,15.435L23.614,15.435L23.614,18.788L18.791,18.788ZM25.012,18.537C25.012,18.675 24.903,18.788 24.767,18.788L24.101,18.788L24.101,15.186C24.101,15.048 23.993,14.935 23.856,14.935L18.546,14.935C18.412,14.935 18.301,15.047 18.301,15.186L18.301,18.788L17.432,18.788C17.297,18.788 17.187,18.676 17.187,18.537L17.187,11.515L17.899,10.787L18.303,10.787L18.303,13.155C18.303,13.293 18.412,13.406 18.548,13.406L23.859,13.406C23.994,13.406 24.104,13.295 24.104,13.155L24.104,10.787L24.767,10.787C24.901,10.787 25.012,10.898 25.012,11.037L25.012,18.537Z" style="fill:rgb(25,79,130);fill-rule:nonzero;"/>
            <path id="path17" d="M22.749,11.007C22.614,11.007 22.504,11.118 22.504,11.257L22.504,12.073C22.504,12.21 22.613,12.323 22.749,12.323C22.884,12.323 22.994,12.212 22.994,12.073L22.994,11.257C22.992,11.119 22.884,11.007 22.749,11.007Z" style="fill:rgb(25,79,130);fill-rule:nonzero;"/>
            <path id="path19" d="M22.521,16.249L19.87,16.249C19.736,16.249 19.626,16.36 19.626,16.499C19.626,16.636 19.734,16.75 19.87,16.75L22.521,16.75C22.656,16.75 22.766,16.638 22.766,16.499C22.766,16.36 22.656,16.249 22.521,16.249Z" style="fill:rgb(25,79,130);fill-rule:nonzero;"/>
            <path id="path21" d="M22.521,17.46L19.87,17.46C19.736,17.46 19.626,17.571 19.626,17.71C19.626,17.848 19.734,17.96 19.87,17.96L22.521,17.96C22.656,17.96 22.766,17.849 22.766,17.71C22.766,17.571 22.656,17.46 22.521,17.46Z" style="fill:rgb(25,79,130);fill-rule:nonzero;"/>
        </g>
    </g>
    <g id="open">
        <path d="M9.742,13.557C9.742,13.743 9.595,13.896 9.414,13.896L4.492,19.33C4.312,19.33 4.164,19.177 4.164,18.991L4.164,11.009C4.164,10.823 4.312,10.67 4.492,10.67L7.445,10.67C7.626,10.67 7.773,10.823 7.773,11.009L9.742,13.557Z" style="fill:rgb(211,172,81);fill-rule:nonzero;"/>
        <path d="M4.558,19.5L4.492,19.5C4.213,19.5 4,19.279 4,18.991L4,11.009C4,10.721 4.213,10.5 4.492,10.5L7.445,10.5C7.691,10.5 7.905,10.687 7.938,10.942L9.906,13.489L9.906,13.557C9.906,13.811 9.726,14.015 9.496,14.066L4.558,19.5ZM4.492,10.84C4.394,10.84 4.328,10.908 4.328,11.009L4.328,18.991C4.328,19.058 4.377,19.126 4.427,19.143L9.332,13.726L9.398,13.726C9.463,13.726 9.529,13.675 9.562,13.608L7.593,11.077L7.593,11.009C7.593,10.908 7.527,10.84 7.429,10.84L4.492,10.84Z" style="fill:rgb(35,28,28);fill-rule:nonzero;"/>
        <path d="M13.352,18.991C13.352,19.177 13.204,19.33 13.023,19.33L4.492,19.33C4.312,19.33 4.164,19.177 4.164,18.991L4.984,12.198C4.984,12.011 5.132,11.858 5.313,11.858L14.008,11.858C14.188,11.858 14.336,12.011 14.336,12.198L13.352,18.991Z" style="fill:rgb(250,197,70);fill-rule:nonzero;"/>
        <path d="M13.023,19.5L4.492,19.5C4.213,19.5 4,19.279 4,18.991L4,18.974L4.82,12.198C4.82,11.926 5.05,11.706 5.313,11.706L14.008,11.706C14.287,11.706 14.5,11.926 14.5,12.215L14.5,12.232L13.516,19.008C13.499,19.279 13.286,19.5 13.023,19.5ZM4.328,19.008C4.328,19.092 4.41,19.16 4.492,19.16L13.023,19.16C13.122,19.16 13.188,19.092 13.188,18.991L13.188,18.974L14.172,12.198C14.172,12.113 14.09,12.045 14.008,12.045L5.313,12.045C5.214,12.045 5.148,12.113 5.148,12.215L5.148,12.232L4.328,19.008Z" style="fill:rgb(35,28,28);fill-rule:nonzero;"/>
    </g>
    <g id="tool">
        <path d="M21.168,4.513C21.1,4.513 21.035,4.515 20.967,4.518C20.959,4.519 20.952,4.518 20.945,4.518C20.905,4.52 20.756,4.528 20.743,4.529C20.732,4.53 20.717,4.528 20.705,4.529C20.693,4.53 20.68,4.533 20.667,4.534C20.556,4.548 20.443,4.567 20.335,4.589C18.983,4.838 17.955,5.745 17.75,6.836C17.741,6.883 17.734,6.931 17.728,6.978C17.725,7.009 17.72,7.039 17.718,7.071C17.717,7.076 17.713,7.087 17.712,7.092C17.712,7.092 17.123,10.699 16.428,11.669C16.411,11.693 16.387,11.727 16.352,11.767C16.101,12.03 15.531,12.581 14.822,13.264C12.056,15.891 6.606,20.886 5.261,22.319C5.245,22.334 5.076,22.494 5.076,22.494L5.146,22.445C5.054,22.547 4.984,22.626 4.956,22.673C4.826,22.886 4.742,23.11 4.7,23.337C4.699,23.341 4.701,23.344 4.7,23.348C4.69,23.401 4.683,23.452 4.678,23.506C4.678,23.511 4.679,23.517 4.678,23.522C4.673,23.575 4.668,23.632 4.667,23.685L4.667,23.691C4.667,23.744 4.669,23.796 4.673,23.849L4.673,23.859C4.677,23.912 4.681,23.965 4.689,24.017C4.69,24.021 4.689,24.025 4.689,24.028C4.697,24.08 4.71,24.129 4.722,24.181C4.731,24.22 4.743,24.256 4.754,24.295C4.759,24.311 4.76,24.328 4.765,24.344C4.767,24.348 4.77,24.351 4.771,24.355C4.774,24.364 4.779,24.373 4.782,24.382C4.812,24.473 4.843,24.567 4.885,24.654C4.887,24.658 4.889,24.661 4.89,24.665C5.241,25.383 5.973,25.904 6.828,25.83C6.874,25.827 6.923,25.82 6.969,25.813C6.971,25.813 6.973,25.814 6.975,25.813C6.987,25.811 7,25.81 7.013,25.808C7.209,25.776 7.412,25.707 7.617,25.606C7.744,25.547 7.87,25.477 7.998,25.389C9.352,24.462 17.533,14.245 18.637,13.53C18.661,13.515 18.695,13.497 18.724,13.481C20.004,12.922 21.232,12.846 22.518,12.404C22.934,12.309 23.214,12.246 23.214,12.246L23.225,12.246C23.226,12.246 23.23,12.241 23.23,12.241C23.231,12.24 23.236,12.236 23.236,12.235L23.236,12.224C23.237,12.224 23.258,12.219 23.258,12.219C23.286,12.225 23.282,12.183 23.252,12.094C23.999,11.706 24.962,10.653 25.326,9.128C25.343,9.054 25.292,8.544 25.271,8.513C25.274,8.502 25.28,8.491 25.282,8.48L22.964,9.574L21.533,8.622C21.378,8.319 21.234,8.043 21.146,7.854C21.146,7.135 21.146,7.074 21.211,6.423C22.095,6.075 23.655,5.476 23.655,5.476C23.653,5.474 23.651,5.472 23.65,5.471C23.652,5.47 23.698,5.454 23.698,5.454C23.095,4.873 22.18,4.509 21.168,4.513ZM6.741,22.423C7.169,22.413 7.583,22.694 7.813,23.103C7.832,23.138 7.851,23.17 7.867,23.206C7.869,23.21 7.871,23.214 7.873,23.217C7.889,23.254 7.903,23.293 7.916,23.332C7.918,23.335 7.92,23.339 7.922,23.342C7.943,23.406 7.959,23.472 7.971,23.538C7.976,23.567 7.978,23.596 7.982,23.625C7.986,23.66 7.991,23.694 7.992,23.729C8.015,24.279 7.516,24.85 6.948,24.975C6.919,24.979 6.889,24.979 6.861,24.981C6.224,25.014 5.578,24.377 5.538,23.713C5.511,23.255 5.758,22.796 6.197,22.559C6.303,22.507 6.424,22.463 6.55,22.439C6.561,22.438 6.572,22.44 6.583,22.439C6.634,22.431 6.687,22.426 6.741,22.423Z" style="stroke:url(#_Radial1);stroke-width:0.27px;stroke-linecap:round;"/>
        <g>
            <path d="M25.287,8.132L22.967,9.225L21.513,8.262C21.349,8.507 21.455,11.854 22.295,11.771C23.835,11.619 24.854,10.063 25.287,8.132Z" style="fill:rgb(136,138,133);stroke:url(#_Radial2);stroke-width:0.28px;stroke-linecap:round;"/>
            <path d="M25.208,8.247L23.007,9.283L22.978,10.846L23.287,11.514C24.236,10.919 24.885,9.688 25.208,8.247Z" style="fill:url(#_Radial3);"/>
            <path d="M21.503,8.295C21.502,8.296 21.498,8.299 21.498,8.3C21.496,8.302 21.494,8.308 21.493,8.311C21.343,8.667 21.46,11.886 22.284,11.805C22.466,11.787 22.644,11.749 22.812,11.693L22.741,9.119L21.503,8.295Z" style="fill:url(#_Radial4);"/>
        </g>
        <path d="M20.579,4.202C19.011,4.395 17.818,5.461 17.721,6.721C17.72,6.727 17.717,6.739 17.716,6.744C17.716,6.744 17.129,10.353 16.434,11.323C15.888,12.085 5.452,21.517 4.961,22.325C3.922,24.03 5.859,26.461 7.913,25.056C9.268,24.129 17.445,13.914 18.55,13.2C19.296,12.717 23.174,11.891 23.174,11.891C23.4,11.941 21.558,8.583 21.063,7.522C21.063,6.8 21.061,6.742 21.128,6.084C22.003,5.739 23.615,5.123 23.615,5.123C22.971,4.503 21.973,4.129 20.88,4.187C20.873,4.187 20.864,4.187 20.857,4.188C20.817,4.19 20.673,4.197 20.66,4.198C20.649,4.199 20.631,4.199 20.62,4.2C20.607,4.202 20.592,4.201 20.579,4.202ZM6.715,22.062C7.351,22.029 7.966,22.647 7.995,23.379C8.02,23.985 7.414,24.617 6.778,24.651C6.142,24.684 5.493,24.045 5.454,23.38C5.415,22.741 5.911,22.104 6.715,22.062Z" style="fill:rgb(136,138,133);"/>
        <path d="M20.669,4.185C19.1,4.378 17.908,5.444 17.81,6.704C17.809,6.709 17.807,6.721 17.806,6.727C17.806,6.727 17.218,10.335 16.523,11.306C15.977,12.067 5.542,21.5 5.05,22.307C4.012,24.012 5.948,26.444 8.003,25.038C9.357,24.111 17.534,13.897 18.639,13.183C19.386,12.7 23.263,11.873 23.263,11.873C23.49,11.924 21.648,8.566 21.152,7.504C21.152,6.783 21.15,6.724 21.217,6.066C22.092,5.721 23.704,5.106 23.704,5.106C23.06,4.485 22.063,4.112 20.97,4.169C20.963,4.17 20.954,4.17 20.947,4.17C20.907,4.173 20.762,4.179 20.75,4.181C20.739,4.182 20.721,4.182 20.709,4.183C20.697,4.184 20.681,4.183 20.669,4.185ZM6.804,22.045C7.44,22.011 8.055,22.629 8.085,23.362C8.109,23.968 7.503,24.6 6.867,24.633C6.231,24.666 5.583,24.027 5.543,23.363C5.505,22.724 6,22.087 6.804,22.045Z" style="fill:url(#_Radial5);"/>
        <path d="M18.074,6.826L19.376,9.655L19.931,9.419L20.851,11.479L20.395,11.695L21.021,12.514C22.057,12.254 23.173,11.811 23.173,11.811L23.184,11.811C23.185,11.81 23.189,11.805 23.19,11.805C23.19,11.804 23.189,11.8 23.189,11.8C23.19,11.798 23.194,11.791 23.194,11.789C23.19,11.479 21.533,8.443 21.069,7.443C21.068,6.722 21.069,6.664 21.135,6.006C22.006,5.662 23.613,5.117 23.613,5.117C22.972,4.496 21.655,4.225 20.674,4.407C19.132,4.694 18.217,5.615 18.074,6.826Z" style="fill:url(#_Radial6);"/>
        <path d="M20.4,4.24C18.922,4.49 17.816,5.525 17.722,6.736C17.721,6.742 17.72,6.752 17.719,6.758C17.719,6.758 17.132,10.366 16.437,11.336C15.891,12.098 5.452,21.529 4.961,22.337C3.922,24.042 5.861,26.474 7.916,25.068C9.27,24.141 17.451,13.927 18.555,13.213C19.302,12.73 23.175,11.901 23.175,11.901C23.176,11.901 23.18,11.905 23.181,11.906C23.182,11.906 23.186,11.905 23.187,11.905C23.187,11.905 23.191,11.899 23.192,11.899C23.192,11.898 23.196,11.894 23.197,11.893C23.197,11.892 23.196,11.889 23.196,11.888C23.196,11.885 23.194,11.876 23.194,11.872C23.162,11.52 21.529,8.526 21.067,7.535C21.067,6.814 21.066,6.755 21.133,6.097C22.008,5.752 23.616,5.134 23.616,5.134C22.972,4.514 21.977,4.144 20.884,4.201C20.877,4.202 20.868,4.198 20.861,4.199C20.821,4.201 20.677,4.211 20.664,4.213C20.653,4.214 20.636,4.211 20.624,4.212C20.613,4.213 20.596,4.216 20.585,4.217C20.524,4.225 20.46,4.23 20.4,4.24ZM20.637,4.422C21.613,4.255 22.891,4.46 23.522,5.072C23.522,5.072 21.926,5.688 21.056,6.033C20.99,6.69 20.989,6.749 20.989,7.47C21.451,8.462 23.081,11.459 23.111,11.808L23.111,11.814C23.111,11.816 23.108,11.823 23.107,11.825C23.107,11.825 23.108,11.829 23.108,11.83C23.107,11.831 23.103,11.836 23.103,11.836L23.098,11.836C23.097,11.837 23.093,11.837 23.092,11.837C23.092,11.837 21.854,12.049 20.819,12.309L20.509,11.858L21.118,11.459L20.004,9.301L19.236,9.567L17.994,6.851C18.136,5.64 19.051,4.719 20.592,4.433C20.608,4.43 20.621,4.425 20.637,4.422ZM6.515,22.097C6.579,22.085 6.648,22.081 6.717,22.077C7.353,22.044 7.97,22.658 8,23.39C8.024,23.996 7.414,24.63 6.778,24.664C6.142,24.697 5.496,24.057 5.456,23.392C5.421,22.809 5.83,22.225 6.515,22.097Z" style="fill:url(#_Radial7);"/>
        <path d="M20.444,4.234C18.966,4.484 17.859,5.52 17.765,6.731C17.764,6.736 17.763,6.747 17.763,6.752C17.763,6.752 17.175,10.361 16.48,11.331C15.934,12.093 5.496,21.524 5.004,22.331C3.966,24.036 5.905,26.469 7.959,25.063C9.313,24.136 17.494,13.922 18.598,13.208C19.345,12.725 23.218,11.896 23.218,11.896C23.219,11.896 23.224,11.9 23.224,11.9L23.23,11.9C23.231,11.899 23.234,11.894 23.235,11.894C23.235,11.893 23.239,11.889 23.24,11.888C23.24,11.887 23.239,11.884 23.239,11.883C23.239,11.879 23.237,11.871 23.237,11.867C23.206,11.515 21.573,8.521 21.11,7.53C21.11,6.808 21.109,6.75 21.176,6.092C22.052,5.747 23.659,5.129 23.659,5.129C23.015,4.508 22.021,4.139 20.928,4.196C20.92,4.196 20.912,4.193 20.904,4.193C20.865,4.196 20.72,4.206 20.707,4.207C20.696,4.208 20.679,4.206 20.667,4.207C20.656,4.208 20.64,4.211 20.628,4.212C20.567,4.219 20.504,4.224 20.444,4.234ZM20.68,4.417C21.656,4.25 22.934,4.455 23.565,5.066C23.565,5.066 21.969,5.683 21.099,6.027C21.033,6.685 21.032,6.744 21.033,7.465C21.494,8.457 23.124,11.454 23.154,11.803C23.154,11.804 23.155,11.807 23.155,11.808C23.154,11.81 23.151,11.817 23.151,11.819L23.151,11.825C23.15,11.826 23.147,11.83 23.146,11.83C23.145,11.83 23.141,11.831 23.141,11.831C23.14,11.831 23.136,11.832 23.135,11.832C23.135,11.832 21.897,12.044 20.862,12.303L20.535,11.733L21.193,11.368L20.171,9.239L19.305,9.436L18.037,6.845C18.18,5.634 19.094,4.714 20.636,4.428C20.651,4.425 20.664,4.42 20.68,4.417ZM6.558,22.091C6.623,22.079 6.691,22.075 6.76,22.072C7.396,22.039 8.013,22.652 8.043,23.385C8.067,23.991 7.457,24.625 6.821,24.658C6.185,24.692 5.539,24.052 5.499,23.387C5.464,22.803 5.873,22.219 6.558,22.091Z" style="fill:url(#_Radial8);"/>
        <g>
            <path d="M17.723,10.404L19.925,9.468L20.942,11.452L18.739,12.388L17.723,10.404Z" style="fill:rgb(46,52,54);stroke:url(#_Radial9);stroke-width:0.28px;stroke-linecap:round;"/>
            <path d="M18.218,10.321L19.511,9.831L20.363,11.506L19.07,11.996L18.218,10.321Z" style="fill:url(#_Radial10);"/>
            <g>
                <path d="M20.056,9.924L20.104,10.126L18.161,10.684L18.113,10.482L20.056,9.924Z" style="fill:url(#_Radial11);stroke:url(#_Linear12);stroke-width:0.07px;stroke-linecap:round;"/>
                <path d="M20.682,11.2L20.725,11.372L18.821,11.879L18.778,11.706L20.682,11.2Z" style="fill:url(#_Radial13);stroke:url(#_Linear14);stroke-width:0.06px;stroke-linecap:round;"/>
                <path d="M20.399,10.599L20.443,10.77L18.411,11.292L18.366,11.12L20.399,10.599Z" style="fill:url(#_Radial15);stroke:url(#_Linear16);stroke-width:0.06px;stroke-linecap:round;"/>
            </g>
        </g>
        <path d="M21.077,6.099L23.559,5.141L23.671,5.435L21.071,6.466L21.077,6.099Z" style="fill:url(#_Linear17);"/>
        <path d="M23.055,11.515C23.78,11.378 24.912,9.865 25.274,8.167C25.29,8.092 25.348,8.7 25.329,8.781C24.955,10.349 23.948,11.419 23.193,11.779C23.148,11.8 23.198,12.079 23.055,11.515Z" style="fill:url(#_Linear18);"/>
        <path d="M18.181,6.649L19.322,9.58L20.023,9.448L20.98,11.463L20.412,11.816L20.826,12.374C21.861,12.115 22.978,11.672 22.978,11.672L22.984,11.672C22.984,11.671 22.989,11.671 22.989,11.671C22.99,11.671 22.994,11.666 22.994,11.666C22.995,11.665 22.994,11.661 22.994,11.66C22.994,11.658 22.999,11.652 22.999,11.649C22.995,11.339 21.338,8.304 20.873,7.304C20.873,6.583 20.874,6.525 20.94,5.867C21.81,5.523 23.236,4.928 23.236,4.928C22.595,4.307 21.494,4.327 20.512,4.509C18.97,4.795 18.324,5.438 18.181,6.649Z" style="fill:url(#_Radial19);"/>
        <path d="M5.078,22.147C5.078,22.147 15.806,12.081 16.501,11.261C17.168,10.473 17.751,6.892 17.751,6.892C17.751,6.892 18.117,6.645 18.047,6.86C17.951,7.154 17.021,10.767 16.792,11.118C16.272,11.917 13.319,14.554 13.319,14.554L6.103,21.409L5.078,22.147Z" style="fill-opacity:0.39;"/>
        <path d="M6.909,24.851C6.909,24.851 6.081,24.864 5.644,24.315C5.207,23.767 5.171,22.929 5.171,22.929L5.267,22.785C5.267,22.785 5.353,23.626 5.746,24.157C6.147,24.698 7.007,24.729 6.993,24.751L6.909,24.851Z" style="fill:url(#_Radial20);"/>
        <path d="M22.784,9.114C22.77,9.161 22.83,10.566 22.839,10.615C22.86,11.387 23.043,11.433 23.063,11.572C23.212,11.515 23.111,11.586 23.245,11.503C23.232,11.435 23.042,10.965 22.964,10.796C22.971,10.413 22.972,9.337 22.973,9.234C22.901,9.186 22.873,9.167 22.784,9.114Z"/>
        <path d="M25.185,8.226L22.985,9.262L22.956,10.825L23.265,11.492C24.214,10.898 24.862,9.667 25.185,8.226Z" style="fill:url(#_Radial21);"/>
        <path d="M20.444,4.234C18.966,4.484 17.859,5.52 17.765,6.731C17.764,6.736 17.763,6.747 17.763,6.752C17.763,6.752 17.175,10.361 16.48,11.331C15.934,12.093 5.496,21.524 5.004,22.331C3.966,24.036 5.905,26.469 7.959,25.063C9.313,24.136 17.494,13.922 18.598,13.208C19.345,12.725 23.218,11.896 23.218,11.896C23.219,11.896 23.224,11.9 23.224,11.9L23.23,11.9C23.231,11.899 23.234,11.894 23.235,11.894C23.235,11.893 23.239,11.889 23.24,11.888C23.24,11.887 23.239,11.884 23.239,11.883C23.239,11.879 23.237,11.871 23.237,11.867C23.206,11.515 21.573,8.521 21.11,7.53C21.11,6.808 21.109,6.75 21.176,6.092C22.052,5.747 23.659,5.129 23.659,5.129C23.015,4.508 22.021,4.139 20.928,4.196C20.92,4.196 20.912,4.193 20.904,4.193C20.865,4.196 20.72,4.206 20.707,4.207C20.696,4.208 20.679,4.206 20.667,4.207C20.656,4.208 20.64,4.211 20.628,4.212C20.567,4.219 20.504,4.224 20.444,4.234ZM20.68,4.417C21.656,4.25 22.934,4.455 23.565,5.066C23.565,5.066 21.969,5.683 21.099,6.027C21.033,6.685 21.032,6.744 21.033,7.465C21.494,8.457 23.124,11.454 23.154,11.803C23.154,11.804 23.155,11.807 23.155,11.808C23.154,11.81 23.151,11.817 23.151,11.819L23.151,11.825C23.15,11.826 23.147,11.83 23.146,11.83C23.145,11.83 23.141,11.831 23.141,11.831C23.14,11.831 23.136,11.832 23.135,11.832C23.135,11.832 21.897,12.044 20.862,12.303L20.535,11.733L21.193,11.368L20.171,9.239L19.305,9.436L18.037,6.845C18.18,5.634 19.094,4.714 20.636,4.428C20.651,4.425 20.664,4.42 20.68,4.417ZM6.558,22.091C6.623,22.079 6.691,22.075 6.76,22.072C7.396,22.039 8.013,22.652 8.043,23.385C8.067,23.991 7.457,24.625 6.821,24.658C6.185,24.692 5.539,24.052 5.499,23.387C5.464,22.803 5.873,22.219 6.558,22.091Z" style="fill:url(#_Radial22);"/>
        <path d="M6.617,21.603C7.582,21.376 8.681,22.458 8.469,23.479C9.191,22.88 17.505,13.608 17.678,13.162C17.942,12.479 17.229,11.861 16.551,12.152C16.078,12.355 6.554,21.618 6.617,21.603Z" style="fill:rgb(136,138,133);"/>
        <path d="M6.617,21.603C7.582,21.376 8.681,22.458 8.469,23.479C9.191,22.88 17.505,13.608 17.678,13.162C17.942,12.479 17.229,11.861 16.551,12.152C16.078,12.355 6.554,21.618 6.617,21.603Z" style="fill-opacity:0.8;"/>
        <path d="M6.617,21.603C7.582,21.376 8.681,22.458 8.469,23.479C9.191,22.88 17.505,13.608 17.678,13.162C17.942,12.479 17.229,11.861 16.551,12.152C16.078,12.355 6.554,21.618 6.617,21.603Z" style="fill:url(#_Radial23);"/>
        <path d="M6.617,21.603C7.582,21.376 8.681,22.458 8.469,23.479C9.191,22.88 17.505,13.608 17.678,13.162C17.942,12.479 17.229,11.861 16.551,12.152C16.078,12.355 6.554,21.618 6.617,21.603Z" style="fill:url(#_Radial24);"/>
        <path d="M16.536,12.173C16.589,12.14 17.036,11.917 17.45,12.281C17.803,12.591 17.755,12.913 17.657,13.202C17.61,13.342 13.793,17.67 13.107,18.458C12.771,18.845 11.618,20.105 10.56,21.269C9.492,22.444 8.49,23.462 8.49,23.462C8.49,23.462 17.534,13.381 17.588,13.106C17.668,12.703 17.503,12.575 17.367,12.446C17.228,12.315 16.984,12.168 16.652,12.235C16.194,12.328 6.812,21.523 6.635,21.59C6.635,21.59 8.888,19.36 11.265,17.066C13.643,14.771 16.145,12.414 16.536,12.173Z" style="fill:rgb(46,52,54);fill-opacity:0.4;"/>
        <path id="O" d="M6.707,21.509C6.707,21.509 7.455,21.33 8.094,21.929C8.793,22.584 8.581,23.364 8.581,23.364L8.468,23.498C8.468,23.498 8.53,23.2 8.457,22.907C8.384,22.614 8.23,22.313 7.967,22.071C7.707,21.832 7.462,21.678 7.195,21.621C6.927,21.564 6.624,21.605 6.63,21.594L6.707,21.509Z" style="fill:url(#_Radial25);"/>
        <path id="O1" serif:id="O" d="M6.707,21.509C6.707,21.509 7.455,21.33 8.094,21.929C8.793,22.584 8.581,23.364 8.581,23.364L8.468,23.498C8.468,23.498 8.53,23.2 8.457,22.907C8.384,22.614 8.23,22.313 7.967,22.071C7.707,21.832 7.462,21.678 7.195,21.621C6.927,21.564 6.624,21.605 6.63,21.594L6.707,21.509Z" style="fill:url(#_Radial26);"/>
        <g>
            <g style="filter:url(#_Effect27);">
                <g>
                    <path d="M22.007,4.394C19.919,4.222 18.395,4.946 18.149,6.531C18.435,5.319 19.707,4.335 22.007,4.394Z" style="fill:white;"/>
                </g>
            </g>
            <g style="filter:url(#_Effect28);">
                <g>
                    <path d="M22.007,4.394C19.893,4.096 18.222,4.856 18.149,6.531C18.551,5.34 19.707,4.383 22.007,4.394Z" style="fill:white;fill-opacity:0.78;"/>
                </g>
            </g>
            <g style="filter:url(#_Effect29);">
                <g>
                    <path d="M21.172,4.388C20.34,4.382 19.616,4.557 19.093,4.91C18.649,5.211 18.347,5.638 18.239,6.183C18.673,5.281 19.592,4.565 21.172,4.388Z" style="fill:white;fill-opacity:0.78;"/>
                </g>
            </g>
        </g>
        <path d="M16.927,12.077C16.804,12.074 16.679,12.099 16.551,12.153C16.078,12.356 6.557,21.616 6.62,21.601C6.685,21.586 6.749,21.578 6.815,21.574C7.831,20.549 16.109,12.518 16.551,12.328C17.094,12.095 17.658,12.444 17.727,12.943C17.772,12.479 17.388,12.091 16.927,12.077ZM8.492,23.288C8.488,23.352 8.483,23.415 8.47,23.479C8.474,23.475 8.487,23.466 8.492,23.462L8.492,23.457C8.494,23.4 8.496,23.344 8.492,23.288Z" style="fill-opacity:0.5;"/>
    </g>
    <rect id="outer" x="0" y="0" width="30" height="30" style="fill:none;"/>
    <defs>
        <radialGradient id="_Radial1" cx="0" cy="0" r="1" gradientUnits="userSpaceOnUse" gradientTransform="matrix(1.95118,-0.12651,0.129305,1.77128,21.383,10.6805)"><stop offset="0" style="stop-color:black;stop-opacity:1"/><stop offset="1" style="stop-color:black;stop-opacity:0"/></radialGradient>
        <radialGradient id="_Radial2" cx="0" cy="0" r="1" gradientUnits="userSpaceOnUse" gradientTransform="matrix(1.95118,-0.12651,0.129304,1.77128,21.3871,10.3322)"><stop offset="0" style="stop-color:black;stop-opacity:1"/><stop offset="1" style="stop-color:black;stop-opacity:0"/></radialGradient>
        <radialGradient id="_Radial3" cx="0" cy="0" r="1" gradientUnits="userSpaceOnUse" gradientTransform="matrix(6.13495,-0.354058,0.352572,5.38366,23.527,10.5189)"><stop offset="0" style="stop-color:white;stop-opacity:0.51"/><stop offset="1" style="stop-color:rgb(62,62,62);stop-opacity:0"/></radialGradient>
        <radialGradient id="_Radial4" cx="0" cy="0" r="1" gradientUnits="userSpaceOnUse" gradientTransform="matrix(6.2608,-0.5095,0.425828,4.70891,21.995,11.0869)"><stop offset="0" style="stop-color:white;stop-opacity:0.51"/><stop offset="1" style="stop-color:rgb(62,62,62);stop-opacity:0"/></radialGradient>
        <radialGradient id="_Radial5" cx="0" cy="0" r="1" gradientUnits="userSpaceOnUse" gradientTransform="matrix(10.5753,-1.30716,1.34676,9.61734,17.0833,12.6961)"><stop offset="0" style="stop-color:white;stop-opacity:1"/><stop offset="1" style="stop-color:rgb(136,138,133);stop-opacity:0"/></radialGradient>
        <radialGradient id="_Radial6" cx="0" cy="0" r="1" gradientUnits="userSpaceOnUse" gradientTransform="matrix(6.78805,-0.877728,2.96929,19.6034,20.0615,12.3873)"><stop offset="0" style="stop-color:white;stop-opacity:1"/><stop offset="1" style="stop-color:rgb(136,138,133);stop-opacity:0"/></radialGradient>
        <radialGradient id="_Radial7" cx="0" cy="0" r="1" gradientUnits="userSpaceOnUse" gradientTransform="matrix(2.93914,-0.997272,3.50146,8.98975,21.6865,10.4717)"><stop offset="0" style="stop-color:black;stop-opacity:1"/><stop offset="1" style="stop-color:black;stop-opacity:0"/></radialGradient>
        <radialGradient id="_Radial8" cx="0" cy="0" r="1" gradientUnits="userSpaceOnUse" gradientTransform="matrix(2.93914,-0.997272,3.50146,8.98975,21.7297,10.4664)"><stop offset="0" style="stop-color:black;stop-opacity:1"/><stop offset="1" style="stop-color:black;stop-opacity:0"/></radialGradient>
        <radialGradient id="_Radial9" cx="0" cy="0" r="1" gradientUnits="userSpaceOnUse" gradientTransform="matrix(-2.14362,-5.30018,5.72563,-4.69613,16.5509,13.4676)"><stop offset="0" style="stop-color:white;stop-opacity:1"/><stop offset="1" style="stop-color:black;stop-opacity:0"/></radialGradient>
        <radialGradient id="_Radial10" cx="0" cy="0" r="1" gradientUnits="userSpaceOnUse" gradientTransform="matrix(0.514967,-0.156163,3.33171,6.34119,19.2905,10.9133)"><stop offset="0" style="stop-color:white;stop-opacity:1"/><stop offset="1" style="stop-color:rgb(85,87,83);stop-opacity:0"/></radialGradient>
        <radialGradient id="_Radial11" cx="0" cy="0" r="1" gradientUnits="userSpaceOnUse" gradientTransform="matrix(0.691317,-0.19135,2.41105,10.6006,19.2826,11.268)"><stop offset="0" style="stop-color:white;stop-opacity:1"/><stop offset="1" style="stop-color:white;stop-opacity:0"/></radialGradient>
        <linearGradient id="_Linear12" x1="0" y1="0" x2="1" y2="0" gradientUnits="userSpaceOnUse" gradientTransform="matrix(1.96512,-0.464472,0.464472,1.96512,18.1371,10.5827)"><stop offset="0" style="stop-color:black;stop-opacity:0.67"/><stop offset="1" style="stop-color:black;stop-opacity:0"/></linearGradient>
        <radialGradient id="_Radial13" cx="0" cy="0" r="1" gradientUnits="userSpaceOnUse" gradientTransform="matrix(0.677221,-0.174176,2.17155,9.04239,19.9045,12.3621)"><stop offset="0" style="stop-color:white;stop-opacity:1"/><stop offset="1" style="stop-color:white;stop-opacity:0"/></radialGradient>
        <linearGradient id="_Linear14" x1="0" y1="0" x2="1" y2="0" gradientUnits="userSpaceOnUse" gradientTransform="matrix(1.91086,-0.478435,0.478435,1.91086,18.7993,11.7923)"><stop offset="0" style="stop-color:black;stop-opacity:0.67"/><stop offset="1" style="stop-color:black;stop-opacity:0"/></linearGradient>
        <radialGradient id="_Radial15" cx="0" cy="0" r="1" gradientUnits="userSpaceOnUse" gradientTransform="matrix(0.723037,-0.17948,2.22545,8.99813,19.56,11.7644)"><stop offset="0" style="stop-color:white;stop-opacity:1"/><stop offset="1" style="stop-color:white;stop-opacity:0"/></radialGradient>
        <linearGradient id="_Linear16" x1="0" y1="0" x2="1" y2="0" gradientUnits="userSpaceOnUse" gradientTransform="matrix(2.0319,-0.524822,0.524822,2.0319,18.3884,11.2058)"><stop offset="0" style="stop-color:black;stop-opacity:0.67"/><stop offset="1" style="stop-color:black;stop-opacity:0"/></linearGradient>
        <linearGradient id="_Linear17" x1="0" y1="0" x2="1" y2="0" gradientUnits="userSpaceOnUse" gradientTransform="matrix(2.69782,-0.333484,0.333484,2.69782,21.0006,5.96576)"><stop offset="0" style="stop-color:black;stop-opacity:1"/><stop offset="1" style="stop-color:black;stop-opacity:0"/></linearGradient>
        <linearGradient id="_Linear18" x1="0" y1="0" x2="1" y2="0" gradientUnits="userSpaceOnUse" gradientTransform="matrix(3.93616,-6.91482,6.91482,3.93616,23.6747,12.3879)"><stop offset="0" style="stop-color:black;stop-opacity:1"/><stop offset="1" style="stop-color:black;stop-opacity:0"/></linearGradient>
        <radialGradient id="_Radial19" cx="0" cy="0" r="1" gradientUnits="userSpaceOnUse" gradientTransform="matrix(6.78805,-0.877728,2.96929,19.6034,19.8564,5.58994)"><stop offset="0" style="stop-color:white;stop-opacity:1"/><stop offset="1" style="stop-color:rgb(136,138,133);stop-opacity:0"/></radialGradient>
        <radialGradient id="_Radial20" cx="0" cy="0" r="1" gradientUnits="userSpaceOnUse" gradientTransform="matrix(-0.82845,0.0633051,-0.0930458,-1.08836,6.08005,23.8186)"><stop offset="0" style="stop-color:white;stop-opacity:0.89"/><stop offset="1" style="stop-color:white;stop-opacity:0"/></radialGradient>
        <radialGradient id="_Radial21" cx="0" cy="0" r="1" gradientUnits="userSpaceOnUse" gradientTransform="matrix(6.13497,-0.354064,0.3526,5.38364,24.0628,9.46879)"><stop offset="0" style="stop-color:white;stop-opacity:0.51"/><stop offset="1" style="stop-color:rgb(62,62,62);stop-opacity:0"/></radialGradient>
        <radialGradient id="_Radial22" cx="0" cy="0" r="1" gradientUnits="userSpaceOnUse" gradientTransform="matrix(2.07812,-0.648451,7.29103,23.3666,12.6045,30.2307)"><stop offset="0" style="stop-color:white;stop-opacity:1"/><stop offset="1" style="stop-color:white;stop-opacity:0"/></radialGradient>
        <radialGradient id="_Radial23" cx="0" cy="0" r="1" gradientUnits="userSpaceOnUse" gradientTransform="matrix(2.74481,5.92488,-1.68463,1.15611,17.1389,15.0034)"><stop offset="0" style="stop-color:white;stop-opacity:0.28"/><stop offset="1" style="stop-color:white;stop-opacity:0"/></radialGradient>
        <radialGradient id="_Radial24" cx="0" cy="0" r="1" gradientUnits="userSpaceOnUse" gradientTransform="matrix(6.0688,-0.750136,0.7133,5.09387,10.083,19.8334)"><stop offset="0" style="stop-color:white;stop-opacity:0.5"/><stop offset="1" style="stop-color:white;stop-opacity:0"/></radialGradient>
        <radialGradient id="_Radial25" cx="0" cy="0" r="1" gradientUnits="userSpaceOnUse" gradientTransform="matrix(0.87886,-0.108632,0.152129,1.08638,7.65004,22.4943)"><stop offset="0" style="stop-color:white;stop-opacity:1"/><stop offset="1" style="stop-color:white;stop-opacity:0"/></radialGradient>
        <radialGradient id="_Radial26" cx="0" cy="0" r="1" gradientUnits="userSpaceOnUse" gradientTransform="matrix(0.87886,-0.108632,0.152129,1.08638,7.65004,22.4943)"><stop offset="0" style="stop-color:white;stop-opacity:1"/><stop offset="1" style="stop-color:white;stop-opacity:0"/></radialGradient>
        <filter id="_Effect27" filterUnits="userSpaceOnUse" x="17.6304" y="3.85065" width="4.8951" height="3.1989">
            <feGaussianBlur in="SourceGraphic" stdDeviation="0.0864251"/>
        </filter>
        <filter id="_Effect28" filterUnits="userSpaceOnUse" x="17.1053" y="3.2869" width="5.94548" height="4.28784">
            <feGaussianBlur in="SourceGraphic" stdDeviation="0.173957"/>
        </filter>
        <filter id="_Effect29" filterUnits="userSpaceOnUse" x="17.1953" y="3.34411" width="5.02048" height="3.88263">
            <feGaussianBlur in="SourceGraphic" stdDeviation="0.173957"/>
        </filter>
    </defs>
</svg>
