<?xml version="1.0" encoding="UTF-8" standalone="no"?>
<!DOCTYPE svg PUBLIC "-//W3C//DTD SVG 1.1//EN" "http://www.w3.org/Graphics/SVG/1.1/DTD/svg11.dtd">
<svg width="30px" height="30px" version="1.1" xmlns="http://www.w3.org/2000/svg" xmlns:xlink="http://www.w3.org/1999/xlink" xml:space="preserve" xmlns:serif="http://www.serif.com/" style="fill-rule:evenodd;clip-rule:evenodd;stroke-linejoin:round;">
    <g>
        <rect x="1" y="9.437" width="28" height="13.125" style="fill:none;stroke:rgb(136,136,136);stroke-width:1.94px;"/>
        <rect x="1" y="9.437" width="28.359" height="13.125" style="fill:rgb(221,221,221);"/>
        <rect x="2.013" y="10.374" width="26.334" height="11.25" style="fill:white;"/>
    </g>
    <g id="save">
        <path id="path9" d="M24.769,11.998L24.103,11.998L24.103,14.37C24.103,14.508 23.995,14.62 23.858,14.62L18.546,14.62C18.412,14.62 18.301,14.509 18.301,14.37L18.301,11.998L17.898,11.998L17.186,12.727L17.186,19.757C17.186,19.894 17.295,20.008 17.431,20.008L18.303,20.008L18.303,16.404C18.303,16.265 18.412,16.152 18.548,16.152L23.861,16.152C23.996,16.152 24.106,16.264 24.106,16.404L24.106,20.01L24.769,20.01C24.904,20.01 25.014,19.897 25.014,19.758L25.014,12.25C25.014,12.111 24.904,11.998 24.769,11.998Z" style="fill:rgb(86,172,224);fill-rule:nonzero;"/>
        <path id="path13" d="M18.789,16.642L18.789,20.01L23.606,20.01L23.606,16.642L18.789,16.642ZM22.521,19.185L19.87,19.185C19.736,19.185 19.627,19.074 19.627,18.935C19.627,18.795 19.736,18.682 19.87,18.682L22.521,18.682C22.656,18.682 22.766,18.795 22.766,18.935C22.766,19.072 22.656,19.185 22.521,19.185ZM22.521,17.969L19.87,17.969C19.736,17.969 19.627,17.854 19.627,17.717C19.627,17.58 19.736,17.467 19.87,17.467L22.521,17.467C22.656,17.467 22.766,17.577 22.766,17.717C22.766,17.856 22.656,17.969 22.521,17.969Z" style="fill:rgb(255,193,13);fill-rule:nonzero;"/>
        <g id="g23">
            <path id="path15" d="M24.767,11.5L17.798,11.5C17.735,11.5 17.672,11.526 17.625,11.572L16.769,12.446C16.724,12.494 16.698,12.558 16.698,12.625L16.698,19.749C16.698,20.164 17.027,20.499 17.432,20.499L24.767,20.499C25.171,20.499 25.5,20.164 25.5,19.749L25.5,12.25C25.5,11.836 25.171,11.5 24.767,11.5ZM18.791,12L23.614,12L23.614,14.118L18.791,14.118L18.791,12ZM18.791,20.001L18.791,16.648L23.614,16.648L23.614,20.001L18.791,20.001ZM25.012,19.749C25.012,19.888 24.903,20.001 24.767,20.001L24.101,20.001L24.101,16.398C24.101,16.261 23.993,16.148 23.856,16.148L18.546,16.148C18.412,16.148 18.301,16.259 18.301,16.398L18.301,20.001L17.432,20.001C17.297,20.001 17.187,19.888 17.187,19.749L17.187,12.727L17.899,12L18.303,12L18.303,14.367C18.303,14.505 18.412,14.618 18.548,14.618L23.859,14.618C23.994,14.618 24.104,14.507 24.104,14.367L24.104,12L24.767,12C24.901,12 25.012,12.11 25.012,12.25L25.012,19.749Z" style="fill:rgb(25,79,130);fill-rule:nonzero;"/>
            <path id="path17" d="M22.749,12.219C22.614,12.219 22.504,12.33 22.504,12.469L22.504,13.285C22.504,13.423 22.613,13.535 22.749,13.535C22.884,13.535 22.994,13.424 22.994,13.285L22.994,12.469C22.992,12.331 22.884,12.219 22.749,12.219Z" style="fill:rgb(25,79,130);fill-rule:nonzero;"/>
            <path id="path19" d="M22.521,17.461L19.87,17.461C19.736,17.461 19.626,17.572 19.626,17.711C19.626,17.848 19.734,17.963 19.87,17.963L22.521,17.963C22.656,17.963 22.766,17.851 22.766,17.711C22.766,17.572 22.656,17.461 22.521,17.461Z" style="fill:rgb(25,79,130);fill-rule:nonzero;"/>
            <path id="path21" d="M22.521,18.673L19.87,18.673C19.736,18.673 19.626,18.784 19.626,18.923C19.626,19.06 19.734,19.173 19.87,19.173L22.521,19.173C22.656,19.173 22.766,19.062 22.766,18.923C22.766,18.784 22.656,18.673 22.521,18.673Z" style="fill:rgb(25,79,130);fill-rule:nonzero;"/>
        </g>
    </g>
    <g id="open">
        <path d="M9.742,14.556C9.742,14.742 9.595,14.895 9.414,14.895L4.492,20.329C4.312,20.329 4.164,20.176 4.164,19.99L4.164,12.008C4.164,11.822 4.312,11.669 4.492,11.669L7.445,11.669C7.626,11.669 7.773,11.822 7.773,12.008L9.742,14.556Z" style="fill:rgb(211,172,81);fill-rule:nonzero;"/>
        <path d="M4.558,20.499L4.492,20.499C4.213,20.499 4,20.278 4,19.99L4,12.008C4,11.72 4.213,11.499 4.492,11.499L7.445,11.499C7.691,11.499 7.905,11.686 7.938,11.941L9.906,14.488L9.906,14.556C9.906,14.81 9.726,15.014 9.496,15.065L4.558,20.499ZM4.492,11.839C4.394,11.839 4.328,11.907 4.328,12.008L4.328,19.99C4.328,20.057 4.377,20.126 4.427,20.142L9.332,14.725L9.398,14.725C9.463,14.725 9.529,14.674 9.562,14.607L7.593,12.076L7.593,12.008C7.593,11.907 7.527,11.839 7.429,11.839L4.492,11.839Z" style="fill:rgb(35,28,28);fill-rule:nonzero;"/>
        <path d="M13.352,19.99C13.352,20.176 13.204,20.329 13.023,20.329L4.492,20.329C4.312,20.329 4.164,20.176 4.164,19.99L4.984,13.197C4.984,13.01 5.132,12.857 5.313,12.857L14.008,12.857C14.188,12.857 14.336,13.01 14.336,13.197L13.352,19.99Z" style="fill:rgb(250,197,70);fill-rule:nonzero;"/>
        <path d="M13.023,20.499L4.492,20.499C4.213,20.499 4,20.278 4,19.99L4,19.973L4.82,13.197C4.82,12.925 5.05,12.705 5.313,12.705L14.008,12.705C14.287,12.705 14.5,12.925 14.5,13.214L14.5,13.231L13.516,20.007C13.499,20.278 13.286,20.499 13.023,20.499ZM4.328,20.007C4.328,20.091 4.41,20.159 4.492,20.159L13.023,20.159C13.122,20.159 13.188,20.091 13.188,19.99L13.188,19.973L14.172,13.197C14.172,13.112 14.09,13.044 14.008,13.044L5.313,13.044C5.214,13.044 5.148,13.112 5.148,13.214L5.148,13.231L4.328,20.007Z" style="fill:rgb(35,28,28);fill-rule:nonzero;"/>
    </g>
    <rect id="outer" x="0" y="0" width="30" height="30" style="fill:none;"/>
    <g>
        <path d="M24.277,11.539C25.133,11.408 26.844,9.789 27.361,7.717C27.384,7.625 27.437,8.154 27.346,8.654C26.823,10.565 25.586,11.829 24.683,12.232L24.277,11.539Z" style="fill:url(#_Linear1);fill-rule:nonzero;"/>
        <path d="M27.361,7.718L24.587,8.94L22.765,7.514C22.56,7.807 22.672,12.094 23.661,12.037C25.47,11.932 26.749,10.071 27.361,7.718L27.361,7.718Z" style="fill:rgb(136,138,133);fill-rule:nonzero;"/>
        <path d="M24.63,9.013L24.511,10.935L24.809,11.704C25.3,11.441 25.735,11.034 26.11,10.519C26.61,9.79 26.998,8.868 27.262,7.854L24.63,9.013L24.63,9.013Z" style="fill:url(#_Linear2);fill-rule:nonzero;"/>
        <path d="M22.923,7.715C22.923,7.716 22.918,7.72 22.918,7.721C22.916,7.724 22.913,7.731 22.911,7.734C22.716,8.165 22.677,12.135 23.646,12.078C23.86,12.066 24.071,12.029 24.27,11.969L24.327,8.796L22.923,7.715Z" style="fill:url(#_Radial3);fill-rule:nonzero;"/>
        <path d="M22.066,2.627C20.221,2.781 18.766,4.029 18.583,5.575C18.582,5.582 17.693,10.015 16.825,11.172C16.145,12.081 3.417,23.136 2.798,24.103C1.489,26.147 3.622,29.245 6.103,27.624C7.739,26.555 17.867,14.416 19.199,13.596C20.099,13.042 24.683,12.231 24.683,12.231L22.45,6.739L22.605,4.973L25.568,3.924C24.215,2.452 22.081,2.626 22.066,2.627L22.066,2.627ZM4.865,23.874C5.611,23.867 6.297,24.661 6.291,25.564C6.287,26.312 5.543,27.058 4.797,27.064C4.05,27.071 3.327,26.249 3.317,25.429C3.307,24.641 3.922,23.883 4.865,23.874L4.865,23.874Z" style="fill:url(#_Linear4);fill-rule:nonzero;"/>
        <path d="M22.221,6.773L22.393,4.814L25.139,3.842C23.874,2.734 22.105,2.845 22.085,2.847C20.421,2.985 19.08,4.066 18.831,5.444C18.821,5.496 18.814,5.548 18.807,5.6L18.807,5.601C18.793,5.678 17.913,10.093 17.007,11.302C16.681,11.737 13.932,14.201 10.748,17.055C7.433,20.026 3.307,23.723 2.989,24.22C2.825,24.476 2.713,24.76 2.659,25.056C2.511,25.877 2.825,26.7 3.32,27.223C3.437,27.087 3.561,26.942 3.693,26.789C3.339,26.44 3.098,25.945 3.091,25.432C3.086,24.961 3.273,24.506 3.609,24.168C3.936,23.841 4.381,23.659 4.863,23.654C5.235,23.651 5.608,23.812 5.912,24.107C5.949,24.144 5.984,24.183 6.019,24.223C9.066,20.974 14.198,15.85 22.736,8.039L22.221,6.773Z" style="fill:url(#_Linear5);fill-rule:nonzero;"/>
        <path d="M22.45,6.739L22.605,4.973L25.568,3.924C25.198,3.513 24.715,3.179 24.158,2.952C23.451,2.825 22.71,2.804 22.165,2.885C20.345,3.155 19.224,4.24 18.991,5.723L20.36,9.276L21.022,9.014L21.986,11.6L21.441,11.842L22.045,12.757L24.682,12.232L22.45,6.739Z" style="fill:url(#_Radial6);fill-rule:nonzero;"/>
        <path d="M18.384,10.111L21.091,8.642L22.538,11.649L19.465,12.607L18.384,10.111Z" style="fill:url(#_Linear7);fill-rule:nonzero;"/>
        <path d="M18.384,10.111L21.013,9.076L22.094,11.572L19.465,12.607L18.384,10.111Z" style="fill:url(#_Radial8);fill-rule:nonzero;"/>
        <path d="M18.968,10.034L20.508,9.5L21.414,11.608L19.875,12.141L18.968,10.034Z" style="fill:url(#_Radial9);fill-rule:nonzero;"/>
        <path d="M18.837,10.226L21.142,9.644L21.186,9.895L18.882,10.478L18.837,10.226Z" style="fill:url(#_Radial10);fill-rule:nonzero;"/>
        <path d="M19.548,11.77L21.804,11.248L21.845,11.462L19.589,11.984L19.548,11.77Z" style="fill:url(#_Radial11);fill-rule:nonzero;"/>
        <path d="M19.098,11.026L21.506,10.493L21.548,10.706L19.141,11.239L19.098,11.026Z" style="fill:url(#_Radial12);fill-rule:nonzero;"/>
        <path d="M24.378,8.792C24.359,8.849 24.353,10.582 24.36,10.644C24.342,11.594 24.554,11.662 24.57,11.833C24.748,11.771 24.625,11.853 24.787,11.758C24.775,11.674 24.579,11.085 24.496,10.873C24.525,10.401 24.586,9.076 24.593,8.951C24.511,8.887 24.479,8.862 24.378,8.792Z" style="fill:url(#_Linear13);fill-rule:nonzero;"/>
        <path d="M4.775,23.304C5.918,23.076 7.144,24.467 6.84,25.712C7.718,25.014 17.955,14.043 18.181,13.503C18.527,12.676 17.726,11.878 16.917,12.2C16.352,12.424 4.701,23.318 4.775,23.304Z" style="fill:url(#_Linear14);fill-rule:nonzero;"/>
        <path d="M17.102,12.606C16.456,13.021 10.22,18.806 5.757,22.993C6.047,23.111 6.325,23.29 6.569,23.536C6.906,23.876 7.127,24.287 7.242,24.714C9.694,22.251 17.311,14.037 17.768,13.321C17.784,13.281 17.797,13.242 17.804,13.202C17.836,13.022 17.782,12.847 17.649,12.717C17.501,12.573 17.298,12.534 17.102,12.606Z" style="fill:url(#_Linear15);fill-rule:nonzero;stroke:black;stroke-width:0.22px;stroke-linejoin:miter;"/>
        <path d="M19.006,5.76C18.864,6.451 18.044,10.291 17.189,11.432C17.158,11.473 17.124,11.512 17.089,11.55C17.206,11.44 17.291,11.355 17.335,11.301C18.142,10.308 19.272,7.598 19.445,6.902L19.006,5.76L19.006,5.76Z" style="fill:url(#_Radial16);fill-rule:nonzero;"/>
        <path d="M6.882,26.945C7.064,26.639 7.172,26.302 7.17,25.962C7.165,25.256 6.841,24.542 6.301,24.05C5.873,23.66 5.35,23.444 4.83,23.443C4.159,23.441 3.542,23.672 3.091,24.092C2.7,24.455 2.456,24.944 2.402,25.468C2.397,27.235 4.14,28.906 6.104,27.624C6.275,27.512 6.542,27.276 6.882,26.945ZM4.797,27.064C4.05,27.071 3.327,26.249 3.317,25.429C3.307,24.641 3.921,23.883 4.865,23.874C5.611,23.867 6.297,24.661 6.291,25.564C6.287,26.312 5.543,27.058 4.797,27.064Z" style="fill:url(#_Linear17);fill-rule:nonzero;"/>
        <path d="M6.517,25.566C6.52,25.024 6.294,24.479 5.912,24.107C5.608,23.811 5.236,23.651 4.863,23.654C4.382,23.659 3.937,23.841 3.609,24.167C3.273,24.506 3.087,24.96 3.092,25.432C3.104,26.392 3.933,27.293 4.799,27.285C5.661,27.277 6.512,26.425 6.517,25.566ZM4.797,27.064C4.05,27.071 3.327,26.249 3.317,25.429C3.307,24.641 3.921,23.883 4.865,23.874C5.611,23.867 6.297,24.661 6.291,25.564C6.287,26.312 5.543,27.058 4.797,27.064Z" style="fill:url(#_Linear18);fill-rule:nonzero;"/>
        <path d="M15.593,12.551C15.67,12.448 15.747,12.316 15.824,12.163C12.672,15.107 3.326,23.278 2.798,24.103C2.698,24.261 2.616,24.428 2.554,24.603C3.996,22.986 14.98,13.373 15.593,12.551L15.593,12.551Z" style="fill:url(#_Linear19);fill-rule:nonzero;"/>
        <clipPath id="_clip20">
            <path d="M16.825,11.172C16.145,12.081 3.417,23.136 2.798,24.104C1.489,26.147 3.623,29.245 6.103,27.624C7.739,26.555 17.867,14.417 19.199,13.596C20.099,13.042 24.683,12.232 24.683,12.232L22.451,6.74C22.451,6.74 17.692,10.015 16.825,11.172Z"/>
        </clipPath>
        <g clip-path="url(#_clip20)">
            <path d="M19.278,13.163C17.946,13.983 7.818,26.122 6.182,27.191C4.131,28.53 2.32,26.647 2.492,24.799C1.958,26.765 3.892,29.069 6.104,27.624C7.739,26.556 17.868,14.417 19.199,13.597C20.099,13.042 24.683,12.232 24.683,12.232L24.524,11.841C23.577,12.015 20.055,12.684 19.278,13.163Z" style="fill:url(#_Linear21);fill-rule:nonzero;"/>
        </g>
        <path d="M22.605,4.973L25.568,3.924L25.617,4.311L22.543,5.431L22.605,4.973Z" style="fill:url(#_Linear22);fill-rule:nonzero;"/>
        <path d="M22.647,4.958L25.568,3.924C25.471,3.819 25.367,3.72 25.257,3.628L22.683,4.54L22.647,4.958Z" style="fill:url(#_Linear23);fill-rule:nonzero;"/>
    </g>
    <g>
        <path d="M1.912,4.627L2.982,6.265C3.841,6.706 4.721,7.22 5.423,7.869L23.739,24.781L25.077,23.414L6.761,6.502C6.058,5.854 5.377,5.032 4.988,4.215L3.25,3.26L1.912,4.627L1.912,4.627Z" style="fill:url(#_Linear24);fill-rule:nonzero;"/>
        <path d="M20.021,20.551L20.182,20.386L5.186,6.538L5.024,6.703L20.021,20.551Z" style="fill:url(#_Linear25);fill-rule:nonzero;"/>
        <path d="M14.402,15.232L14.17,15.469L4.518,6.557L4.75,6.32L14.402,15.232Z" style="fill:url(#_Linear26);fill-rule:nonzero;"/>
        <g>
            <clipPath id="_clip27">
                <path d="M2.982,6.265C3.841,6.706 4.721,7.22 5.423,7.869C8.57,10.775 10.01,9.502 6.761,6.502C6.058,5.853 5.377,5.032 4.988,4.215C3.434,3.316 0.132,2.156 2.982,6.265Z"/>
            </clipPath>
            <g clip-path="url(#_clip27)">
                <path d="M2.728,6.481L2.956,6.248C4.07,6.412 4.846,7.038 5.443,7.909L5.173,8.517L2.728,6.482L2.728,6.481ZM5.182,3.973L4.953,4.207C5.179,5.279 5.862,6 6.787,6.535L7.399,6.243L5.182,3.973L5.182,3.973Z" style="fill:rgb(83,85,87);"/>
                <path d="M5.182,3.973L5.07,4.112C5.196,4.916 5.18,5.023 6.252,5.974L7.399,6.243L5.182,3.973L5.182,3.973Z"/>
            </g>
        </g>
        <path d="M7.91,8.747L8.187,8.464L24.761,23.768L24.484,24.051L7.91,8.747Z" style="fill:url(#_Linear28);fill-rule:nonzero;"/>
        <path d="M1.912,4.627L2.982,6.266C5.817,7.535 5.925,6.343 4.988,4.215L3.25,3.26L1.912,4.627Z" style="fill:url(#_Linear29);fill-rule:nonzero;stroke:url(#_Linear30);stroke-width:0.09px;stroke-linecap:round;"/>
        <path d="M15.235,18.649L16.375,19.702C17.057,19.778 17.695,20.068 18.192,20.528C18.732,21.027 19.059,21.659 19.159,22.273L24.531,27.233C25.778,28.384 28.893,25.218 27.638,24.059L22.265,19.098C21.629,19.033 20.963,18.748 20.422,18.248C19.924,17.79 19.594,17.186 19.481,16.528L18.341,15.475L15.235,18.649Z" style="fill:url(#_Linear31);fill-rule:nonzero;"/>
        <clipPath id="_clip32">
            <path d="M15.235,18.649L16.375,19.702C17.057,19.778 17.695,20.068 18.192,20.528C18.732,21.027 19.059,21.659 19.159,22.273L24.531,27.233C25.778,28.385 28.892,25.218 27.637,24.059L22.265,19.098C21.629,19.033 20.963,18.748 20.422,18.248C19.887,17.754 19.585,17.135 19.481,16.528L18.341,15.475L15.235,18.649Z"/>
        </clipPath>
        <g clip-path="url(#_clip32)">
            <path d="M23.062,27.387C27.008,27.35 27.962,25.113 27.722,22.626L30.206,26.431L23.14,30.48L19.102,28.262L23.062,27.387Z" style="fill:rgb(255,167,0);"/>
        </g>
        <path d="M15.239,18.653L18.345,15.478L18.514,15.635L15.408,18.809L15.239,18.653Z" style="fill:rgb(255,165,0);fill-opacity:0.49;fill-rule:nonzero;"/>
        <path d="M17.168,16.688L17.766,16.077L18.878,17.104C18.851,17.225 18.833,17.348 18.996,17.501L18.485,18.11C18.335,18.019 18.254,17.9 18.295,17.729L17.168,16.688L17.168,16.688Z" style="fill:url(#_Linear33);fill-rule:nonzero;"/>
        <path d="M21.062,19.815L21.382,19.375C21.509,19.502 21.576,19.561 21.845,19.644L21.452,20.046C21.225,19.93 21.146,19.911 21.062,19.815Z" style="fill:url(#_Linear34);fill-rule:nonzero;"/>
        <path d="M20.57,20.856L22.11,19.282L22.17,19.337L20.629,20.911L20.57,20.856Z" style="fill:url(#_Radial35);fill-rule:nonzero;"/>
        <path d="M19.397,16.593L16.356,19.618C19.756,20.672 18.322,17.803 19.397,16.593Z" style="fill:url(#_Linear36);"/>
        <path d="M19.209,22.196L22.25,19.17C18.85,18.117 20.284,20.986 19.209,22.196Z" style="fill:url(#_Linear37);"/>
        <path d="M21.779,22.255L25.339,25.542C25.584,25.769 25.594,26.147 25.36,26.386C25.126,26.625 24.737,26.635 24.491,26.408L20.932,23.122C20.686,22.895 20.676,22.516 20.91,22.277C21.144,22.038 21.534,22.028 21.779,22.255Z" style="fill:url(#_Linear38);"/>
        <path d="M22.142,19.197C22.189,19.24 22.19,19.311 22.146,19.356L20.627,20.909C20.583,20.954 20.509,20.956 20.463,20.913C20.417,20.87 20.415,20.799 20.459,20.754L21.978,19.201C22.022,19.156 22.096,19.154 22.142,19.197Z" style="fill:url(#_Linear39);"/>
        <clipPath id="_clip40">
            <path d="M15.235,18.648L16.375,19.701C17.057,19.777 17.695,20.067 18.191,20.527C18.732,21.026 19.059,21.658 19.159,22.272L24.531,27.232C25.778,28.383 28.892,25.217 27.637,24.058L22.265,19.097C21.629,19.032 20.963,18.747 20.422,18.247C19.924,17.789 19.594,17.184 19.481,16.527L18.341,15.474L15.235,18.648Z"/>
        </clipPath>
        <g clip-path="url(#_clip40)">
            <path d="M15.396,18.44L15.089,18.754L16.231,19.808C16.914,19.885 17.552,20.175 18.05,20.635C18.59,21.134 18.912,21.763 19.012,22.376L24.385,27.338C25.29,28.173 27.176,26.732 27.664,25.437C26.987,26.598 25.394,27.672 24.585,26.925L19.211,21.963C19.112,21.35 18.79,20.722 18.249,20.222C17.752,19.762 17.113,19.472 16.431,19.395L15.396,18.44Z" style="fill:rgb(153,97,0);fill-rule:nonzero;"/>
        </g>
        <path d="M16.745,17.17L18.286,15.595L18.346,15.65L16.805,17.225L16.745,17.17Z" style="fill:url(#_Radial41);fill-rule:nonzero;"/>
        <clipPath id="_clip42">
            <path d="M16.421,17.451L18.351,15.479L18.92,16.004L16.99,17.976L16.421,17.451Z"/>
        </clipPath>
        <g clip-path="url(#_clip42)">
            <path d="M16.462,17.001L18.286,15.137L18.902,15.706L17.078,17.57L16.462,17.001Z" style="fill:url(#_Linear43);fill-rule:nonzero;"/>
        </g>
        <clipPath id="_clip44">
            <path d="M16.4,17.431L18.33,15.459L18.898,15.984L16.968,17.957L16.4,17.431Z"/>
        </clipPath>
        <g clip-path="url(#_clip44)">
            <path d="M17.144,16.406L18.288,15.236L18.547,15.475L17.403,16.645L17.144,16.406Z" style="fill:url(#_Linear45);fill-rule:nonzero;"/>
        </g>
        <path d="M2.155,4.682L3.08,6.098C5.531,7.195 5.624,6.165 4.815,4.326L3.312,3.5L2.155,4.682Z" style="fill:url(#_Linear46);fill-rule:nonzero;"/>
        <path d="M23.627,20.576L27.186,23.863C27.432,24.09 27.442,24.468 27.208,24.707C26.974,24.946 26.584,24.956 26.338,24.729L22.779,21.443C22.533,21.216 22.524,20.837 22.758,20.598C22.992,20.359 23.381,20.349 23.627,20.576Z" style="fill:url(#_Linear47);"/>
        <path d="M20.814,20.635L21.188,20.253L26.991,25.611L26.617,25.993L20.814,20.635Z" style="fill:url(#_Linear48);fill-rule:nonzero;"/>
    </g>
    <defs>
        <linearGradient id="_Linear1" x1="0" y1="0" x2="1" y2="-0.0206255" gradientUnits="userSpaceOnUse" gradientTransform="matrix(5.04857,-8.41019,8.61568,4.93027,24.5241,12.4837)"><stop offset="0" style="stop-color:rgb(85,85,85);stop-opacity:1"/><stop offset="0.69" style="stop-color:rgb(136,136,136);stop-opacity:1"/><stop offset="1" style="stop-color:rgb(136,136,136);stop-opacity:1"/></linearGradient>
        <linearGradient id="_Linear2" x1="0" y1="0" x2="1" y2="0.0214934" gradientUnits="userSpaceOnUse" gradientTransform="matrix(2.46137,1.4623,-1.49741,2.40265,24.7221,8.99886)"><stop offset="0" style="stop-color:white;stop-opacity:1"/><stop offset="0.64" style="stop-color:rgb(136,136,136);stop-opacity:1"/><stop offset="1" style="stop-color:rgb(136,136,136);stop-opacity:1"/></linearGradient>
        <radialGradient id="_Radial3" cx="0" cy="0" r="1" gradientUnits="userSpaceOnUse" gradientTransform="matrix(7.35625,-0.292489,-0.240989,-5.8216,23.3468,11.1787)"><stop offset="0" style="stop-color:white;stop-opacity:0.51"/><stop offset="1" style="stop-color:rgb(62,62,62);stop-opacity:0.51"/></radialGradient>
        <linearGradient id="_Linear4" x1="0" y1="0" x2="1" y2="-0.0239142" gradientUnits="userSpaceOnUse" gradientTransform="matrix(26.1955,-27.3745,28.0452,25.5787,3.62979,27.2889)"><stop offset="0" style="stop-color:rgb(221,221,221);stop-opacity:1"/><stop offset="0.69" style="stop-color:rgb(136,136,136);stop-opacity:1"/><stop offset="0.89" style="stop-color:rgb(221,221,221);stop-opacity:1"/><stop offset="1" style="stop-color:rgb(221,221,221);stop-opacity:1"/></linearGradient>
        <linearGradient id="_Linear5" x1="0" y1="0" x2="1" y2="0.0240188" gradientUnits="userSpaceOnUse" gradientTransform="matrix(2.41719,2.40457,-2.4626,2.35934,12.0128,13.3278)"><stop offset="0" style="stop-color:white;stop-opacity:0"/><stop offset="0.89" style="stop-color:white;stop-opacity:1"/><stop offset="1" style="stop-color:white;stop-opacity:1"/></linearGradient>
        <radialGradient id="_Radial6" cx="0" cy="0" r="1" gradientUnits="userSpaceOnUse" gradientTransform="matrix(5.08254,7.27067,-11.986,7.99372,21.7793,5.48631)"><stop offset="0" style="stop-color:white;stop-opacity:1"/><stop offset="0.5" style="stop-color:rgb(195,196,194);stop-opacity:1"/><stop offset="1" style="stop-color:black;stop-opacity:1"/></radialGradient>
        <linearGradient id="_Linear7" x1="0" y1="0" x2="1" y2="0.00413461" gradientUnits="userSpaceOnUse" gradientTransform="matrix(-0.280565,-3.22449,3.30286,-0.273301,20.589,12.3498)"><stop offset="0" style="stop-color:rgb(221,221,221);stop-opacity:1"/><stop offset="0.72" style="stop-color:rgb(221,221,221);stop-opacity:1"/><stop offset="1" style="stop-color:rgb(238,238,236);stop-opacity:1"/></linearGradient>
        <radialGradient id="_Radial8" cx="0" cy="0" r="1" gradientUnits="userSpaceOnUse" gradientTransform="matrix(3.17962,0.547623,-0.560348,3.10402,20.9414,12.3752)"><stop offset="0" style="stop-color:rgb(46,52,54);stop-opacity:1"/><stop offset="0.72" style="stop-color:black;stop-opacity:1"/><stop offset="1" style="stop-color:rgb(46,52,54);stop-opacity:1"/></radialGradient>
        <radialGradient id="_Radial9" cx="0" cy="0" r="1" gradientUnits="userSpaceOnUse" gradientTransform="matrix(0.611567,-0.164811,-3.5547,-7.99061,20.1922,10.8202)"><stop offset="0" style="stop-color:white;stop-opacity:1"/><stop offset="0.53" style="stop-color:rgb(186,189,182);stop-opacity:1"/><stop offset="1" style="stop-color:rgb(136,138,133);stop-opacity:1"/></radialGradient>
        <radialGradient id="_Radial10" cx="0" cy="0" r="1" gradientUnits="userSpaceOnUse" gradientTransform="matrix(0.81948,-0.198651,-2.24193,-13.1795,20.1635,11.2578)"><stop offset="0" style="stop-color:rgb(136,138,133);stop-opacity:1"/><stop offset="0.62" style="stop-color:white;stop-opacity:1"/><stop offset="1" style="stop-color:rgb(85,87,83);stop-opacity:1"/></radialGradient>
        <radialGradient id="_Radial11" cx="0" cy="0" r="1" gradientUnits="userSpaceOnUse" gradientTransform="matrix(0.802052,-0.178196,-2.04719,-11.25,20.8312,12.641)"><stop offset="0" style="stop-color:rgb(136,138,133);stop-opacity:1"/><stop offset="0.62" style="stop-color:white;stop-opacity:1"/><stop offset="1" style="stop-color:rgb(85,87,83);stop-opacity:1"/></radialGradient>
        <radialGradient id="_Radial12" cx="0" cy="0" r="1" gradientUnits="userSpaceOnUse" gradientTransform="matrix(0.855857,-0.182248,-2.1124,-11.1967,20.4588,11.8809)"><stop offset="0" style="stop-color:rgb(136,138,133);stop-opacity:1"/><stop offset="0.62" style="stop-color:white;stop-opacity:1"/><stop offset="1" style="stop-color:rgb(85,87,83);stop-opacity:1"/></radialGradient>
        <linearGradient id="_Linear13" x1="0" y1="0" x2="1" y2="-0.0078637" gradientUnits="userSpaceOnUse" gradientTransform="matrix(0.526618,-2.91717,2.98822,0.514659,24.309,11.7881)"><stop offset="0" style="stop-color:rgb(85,85,85);stop-opacity:1"/><stop offset="0.4" style="stop-color:rgb(136,136,136);stop-opacity:1"/><stop offset="1" style="stop-color:rgb(85,85,85);stop-opacity:1"/></linearGradient>
        <linearGradient id="_Linear14" x1="0" y1="0" x2="1" y2="0.00822803" gradientUnits="userSpaceOnUse" gradientTransform="matrix(11.3116,1.94819,-1.99346,11.0427,5.76352,17.8268)"><stop offset="0" style="stop-color:rgb(136,136,136);stop-opacity:1"/><stop offset="0.89" style="stop-color:rgb(221,221,221);stop-opacity:1"/><stop offset="1" style="stop-color:rgb(221,221,221);stop-opacity:1"/></linearGradient>
        <linearGradient id="_Linear15" x1="0" y1="0" x2="1" y2="0.023995" gradientUnits="userSpaceOnUse" gradientTransform="matrix(1.51621,1.54135,-1.57855,1.47992,11.2936,17.5444)"><stop offset="0" style="stop-color:rgb(85,87,83);stop-opacity:1"/><stop offset="0.21" style="stop-color:rgb(85,87,83);stop-opacity:1"/><stop offset="1" style="stop-color:black;stop-opacity:1"/></linearGradient>
        <radialGradient id="_Radial16" cx="0" cy="0" r="1" gradientUnits="userSpaceOnUse" gradientTransform="matrix(4.35599,0.750229,-0.767661,4.25242,19.0015,5.63422)"><stop offset="0" style="stop-color:white;stop-opacity:1"/><stop offset="1" style="stop-color:rgb(136,138,133);stop-opacity:1"/></radialGradient>
        <linearGradient id="_Linear17" x1="0" y1="0" x2="1" y2="-0.0078637" gradientUnits="userSpaceOnUse" gradientTransform="matrix(0.586683,-3.2499,3.32905,0.57336,4.29337,28.5032)"><stop offset="0" style="stop-color:black;stop-opacity:0.5"/><stop offset="1" style="stop-color:black;stop-opacity:0"/></linearGradient>
        <linearGradient id="_Linear18" x1="0" y1="0" x2="1" y2="-0.0115197" gradientUnits="userSpaceOnUse" gradientTransform="matrix(0.930477,-3.42067,3.50404,0.909023,4.26101,27.0744)"><stop offset="0" style="stop-color:rgb(238,238,238);stop-opacity:1"/><stop offset="1" style="stop-color:rgb(83,83,83);stop-opacity:1"/></linearGradient>
        <linearGradient id="_Linear19" x1="0" y1="0" x2="1" y2="0.0239758" gradientUnits="userSpaceOnUse" gradientTransform="matrix(0.163716,0.168555,-0.172624,0.159798,9.0575,18.2482)"><stop offset="0" style="stop-color:black;stop-opacity:0.4"/><stop offset="1" style="stop-color:black;stop-opacity:0"/></linearGradient>
        <linearGradient id="_Linear21" x1="0" y1="0" x2="1" y2="-0.0215133" gradientUnits="userSpaceOnUse" gradientTransform="matrix(22.1413,-12.9492,13.2682,21.618,3.18294,25.9563)"><stop offset="0" style="stop-color:rgb(201,201,201);stop-opacity:1"/><stop offset="0.05" style="stop-color:rgb(159,159,159);stop-opacity:1"/><stop offset="0.08" style="stop-color:rgb(146,146,146);stop-opacity:1"/><stop offset="0.12" style="stop-color:rgb(138,138,138);stop-opacity:1"/><stop offset="0.2" style="stop-color:rgb(136,136,136);stop-opacity:1"/><stop offset="1" style="stop-color:rgb(104,104,104);stop-opacity:1"/></linearGradient>
        <linearGradient id="_Linear22" x1="0" y1="0" x2="1" y2="-0.00438861" gradientUnits="userSpaceOnUse" gradientTransform="matrix(3.14963,-0.264057,0.271068,3.07489,22.4878,4.80895)"><stop offset="0" style="stop-color:rgb(136,136,136);stop-opacity:1"/><stop offset="1" style="stop-color:rgb(85,85,85);stop-opacity:1"/></linearGradient>
        <linearGradient id="_Linear23" x1="0" y1="0" x2="1" y2="-0.0163142" gradientUnits="userSpaceOnUse" gradientTransform="matrix(3.81926,-1.4078,1.44276,3.72884,21.7487,5.70082)"><stop offset="0" style="stop-color:white;stop-opacity:0"/><stop offset="0.89" style="stop-color:white;stop-opacity:1"/><stop offset="1" style="stop-color:white;stop-opacity:1"/></linearGradient>
        <linearGradient id="_Linear24" x1="0" y1="0" x2="1" y2="-0.0289823" gradientUnits="userSpaceOnUse" gradientTransform="matrix(0.637499,-0.651486,0.669355,0.618058,12.4025,14.3158)"><stop offset="0" style="stop-color:rgb(83,85,87);stop-opacity:1"/><stop offset="0.14" style="stop-color:rgb(137,138,140);stop-opacity:1"/><stop offset="0.2" style="stop-color:rgb(236,236,236);stop-opacity:1"/><stop offset="0.34" style="stop-color:rgb(250,250,250);stop-opacity:1"/><stop offset="0.4" style="stop-color:white;stop-opacity:1"/><stop offset="0.53" style="stop-color:rgb(250,250,250);stop-opacity:1"/><stop offset="0.85" style="stop-color:rgb(235,236,236);stop-opacity:1"/><stop offset="1" style="stop-color:rgb(225,226,227);stop-opacity:1"/></linearGradient>
        <linearGradient id="_Linear25" x1="0" y1="0" x2="1" y2="-0.0289542" gradientUnits="userSpaceOnUse" gradientTransform="matrix(15.5344,14.3439,14.7951,-15.1197,4.48746,6.20786)"><stop offset="0" style="stop-color:white;stop-opacity:1"/><stop offset="1" style="stop-color:white;stop-opacity:0"/></linearGradient>
        <linearGradient id="_Linear26" x1="0" y1="0" x2="1" y2="0.0283977" gradientUnits="userSpaceOnUse" gradientTransform="matrix(6.31394,6.82012,-7.03254,6.14732,5.41821,7.10193)"><stop offset="0" style="stop-color:rgb(20,21,21);stop-opacity:0.39"/><stop offset="1" style="stop-color:rgb(83,85,87);stop-opacity:0"/></linearGradient>
        <linearGradient id="_Linear28" x1="0" y1="0" x2="1" y2="0.0289834" gradientUnits="userSpaceOnUse" gradientTransform="matrix(-15.6655,-13.6948,14.1272,-15.2458,23.5747,22.4413)"><stop offset="0" style="stop-color:rgb(20,21,21);stop-opacity:1"/><stop offset="1" style="stop-color:rgb(83,85,87);stop-opacity:0"/></linearGradient>
        <linearGradient id="_Linear29" x1="0" y1="0" x2="1" y2="0.0289542" gradientUnits="userSpaceOnUse" gradientTransform="matrix(-3.31245,-3.05859,3.1548,-3.22402,5.23427,6.99051)"><stop offset="0" style="stop-color:rgb(211,214,214);stop-opacity:1"/><stop offset="1" style="stop-color:rgb(247,247,247);stop-opacity:1"/></linearGradient>
        <linearGradient id="_Linear30" x1="0" y1="0" x2="1" y2="0.0289542" gradientUnits="userSpaceOnUse" gradientTransform="matrix(-2.57935,-2.38168,2.45659,-2.51049,5.78374,6.22649)"><stop offset="0" style="stop-color:white;stop-opacity:1"/><stop offset="1" style="stop-color:rgb(57,57,57);stop-opacity:1"/></linearGradient>
        <linearGradient id="_Linear31" x1="0" y1="0" x2="1" y2="-0.0289823" gradientUnits="userSpaceOnUse" gradientTransform="matrix(-1.55303,1.5871,-1.63063,-1.50567,21.3153,21.2427)"><stop offset="0" style="stop-color:rgb(255,234,0);stop-opacity:1"/><stop offset="1" style="stop-color:rgb(205,128,0);stop-opacity:1"/></linearGradient>
        <linearGradient id="_Linear33" x1="0" y1="0" x2="1" y2="0.0289396" gradientUnits="userSpaceOnUse" gradientTransform="matrix(1.77013,1.6508,-1.70269,1.7229,17.4717,16.0777)"><stop offset="0" style="stop-color:white;stop-opacity:0.84"/><stop offset="1" style="stop-color:white;stop-opacity:0"/></linearGradient>
        <linearGradient id="_Linear34" x1="0" y1="0" x2="1" y2="0.0284603" gradientUnits="userSpaceOnUse" gradientTransform="matrix(-0.505827,-0.367382,0.379148,-0.492129,21.4423,20.0088)"><stop offset="0" style="stop-color:white;stop-opacity:0.75"/><stop offset="1" style="stop-color:white;stop-opacity:0"/></linearGradient>
        <radialGradient id="_Radial35" cx="0" cy="0" r="1" gradientUnits="userSpaceOnUse" gradientTransform="matrix(0.770365,-0.787268,0.318675,0.294253,21.3697,20.0966)"><stop offset="0" style="stop-color:white;stop-opacity:1"/><stop offset="1" style="stop-color:white;stop-opacity:0"/></radialGradient>
        <linearGradient id="_Linear36" x1="0" y1="0" x2="1" y2="0.0137163" gradientUnits="userSpaceOnUse" gradientTransform="matrix(0.552593,1.82338,-1.87795,0.540406,18.6444,17.6583)"><stop offset="0" style="stop-color:rgb(255,163,0);stop-opacity:1"/><stop offset="1" style="stop-color:rgb(255,163,0);stop-opacity:0"/></linearGradient>
        <linearGradient id="_Linear37" x1="0" y1="0" x2="1" y2="-0.0208635" gradientUnits="userSpaceOnUse" gradientTransform="matrix(-2.87965,1.26889,-1.30049,-2.79511,21.6652,19.573)"><stop offset="0" style="stop-color:rgb(255,233,0);stop-opacity:1"/><stop offset="1" style="stop-color:rgb(255,233,0);stop-opacity:0"/></linearGradient>
        <linearGradient id="_Linear38" x1="0" y1="0" x2="1" y2="-0.0289823" gradientUnits="userSpaceOnUse" gradientTransform="matrix(0.847662,-0.866261,0.890021,0.821813,22.7109,24.7648)"><stop offset="0" style="stop-color:rgb(255,234,0);stop-opacity:0.84"/><stop offset="1" style="stop-color:rgb(205,128,0);stop-opacity:0.84"/></linearGradient>
        <linearGradient id="_Linear39" x1="0" y1="0" x2="1" y2="-0.0273553" gradientUnits="userSpaceOnUse" gradientTransform="matrix(-2.59812,1.86898,-1.91873,-2.52043,22.2446,19.6025)"><stop offset="0" style="stop-color:white;stop-opacity:0.84"/><stop offset="1" style="stop-color:white;stop-opacity:0"/></linearGradient>
        <radialGradient id="_Radial41" cx="0" cy="0" r="1" gradientUnits="userSpaceOnUse" gradientTransform="matrix(0.770365,-0.787268,0.318675,0.294253,17.5454,16.41)"><stop offset="0" style="stop-color:white;stop-opacity:0.58"/><stop offset="1" style="stop-color:white;stop-opacity:0"/></radialGradient>
        <linearGradient id="_Linear43" x1="0" y1="0" x2="1" y2="-0.0273553" gradientUnits="userSpaceOnUse" gradientTransform="matrix(-2.59812,1.86898,-1.91873,-2.52043,18.5374,15.962)"><stop offset="0" style="stop-color:white;stop-opacity:0.58"/><stop offset="1" style="stop-color:white;stop-opacity:0"/></linearGradient>
        <linearGradient id="_Linear45" x1="0" y1="0" x2="1" y2="-0.0273553" gradientUnits="userSpaceOnUse" gradientTransform="matrix(-2.59812,1.86898,-1.91873,-2.52043,18.5161,15.9423)"><stop offset="0" style="stop-color:white;stop-opacity:0.58"/><stop offset="1" style="stop-color:white;stop-opacity:0"/></linearGradient>
        <linearGradient id="_Linear46" x1="0" y1="0" x2="1" y2="0.0289542" gradientUnits="userSpaceOnUse" gradientTransform="matrix(1.71951,1.58773,-1.63767,1.6736,3.22497,4.66002)"><stop offset="0" style="stop-color:white;stop-opacity:0.74"/><stop offset="0.25" style="stop-color:white;stop-opacity:0"/><stop offset="0.5" style="stop-color:rgb(204,204,204);stop-opacity:0"/><stop offset="1" style="stop-color:rgb(154,154,154);stop-opacity:1"/></linearGradient>
        <linearGradient id="_Linear47" x1="0" y1="0" x2="1" y2="-0.0289823" gradientUnits="userSpaceOnUse" gradientTransform="matrix(0.847662,-0.866261,0.890021,0.821813,24.5583,23.0857)"><stop offset="0" style="stop-color:rgb(255,215,0);stop-opacity:0.84"/><stop offset="0.25" style="stop-color:rgb(255,234,0);stop-opacity:0.84"/><stop offset="1" style="stop-color:rgb(176,109,0);stop-opacity:0.84"/></linearGradient>
        <linearGradient id="_Linear48" x1="0" y1="0" x2="1" y2="0.0289542" gradientUnits="userSpaceOnUse" gradientTransform="matrix(8.61174,7.95177,-8.20189,8.38185,18.6191,18.1527)"><stop offset="0" style="stop-color:white;stop-opacity:0.95"/><stop offset="1" style="stop-color:white;stop-opacity:0"/></linearGradient>
    </defs>
</svg>
