<?xml version="1.0" encoding="UTF-8" standalone="no"?><!DOCTYPE svg PUBLIC "-//W3C//DTD SVG 1.1//EN" "http://www.w3.org/Graphics/SVG/1.1/DTD/svg11.dtd"><svg width="100%" height="100%" viewBox="0 0 52 52" version="1.1" xmlns="http://www.w3.org/2000/svg" xmlns:xlink="http://www.w3.org/1999/xlink" xml:space="preserve" xmlns:serif="http://www.serif.com/" style="fill-rule:evenodd;clip-rule:evenodd;"><g transform="matrix(1.10283,0,0,1.16159,-2.70337,-3.45691)"><g id="path12127" transform="matrix(1,0,0,1,0.188562,0.942811)"><ellipse cx="25.833" cy="44.412" rx="23.57" ry="4.337" style="fill:url(#_Radial1);"/></g><path id="path16181" d="M48.367,42.546c-0,2.068 -1.68,3.747 -3.748,3.747l-37.859,0c-2.068,0 -3.748,-1.679 -3.748,-3.747l0,-34.996c0,-2.068 1.68,-3.748 3.748,-3.748l37.859,0c2.068,0 3.748,1.68 3.748,3.748l-0,34.996Z" style="fill:url(#_Linear2);fill-rule:nonzero;stroke:#646464;stroke-width:1.07px;"/><g transform="matrix(1.10724,0,0,1.13804,-3.30636,-3.1639)"><rect id="path16188" x="8.408" y="13.296" width="34.705" height="23.737" style="fill:url(#_Linear3);fill-rule:nonzero;stroke:#646464;stroke-width:1.07px;"/><rect id="path16203" x="8.939" y="13.786" width="33.644" height="14.284" style="fill:url(#_Linear4);fill-rule:nonzero;"/><path id="path16209" d="M21.556,20.095c-0,2.624 -2.133,4.89 -4.857,4.89c-2.606,0 -4.857,-2.147 -4.857,-4.89c0,-2.625 2.133,-4.891 4.857,-4.891c2.606,-0 4.857,2.147 4.857,4.891Z" style="fill:#e8f52f;fill-opacity:0.05;fill-rule:nonzero;"/><path id="path16211" d="M21.082,20.095c-0,2.385 -1.896,4.413 -4.383,4.413c-2.369,0 -4.383,-1.908 -4.383,-4.413c0,-2.386 1.895,-4.414 4.383,-4.414c2.369,0 4.383,1.909 4.383,4.414Z" style="fill:#ecf751;fill-opacity:0.21;fill-rule:nonzero;"/><path id="path16213" d="M20.608,20.095c-0,2.147 -1.777,3.936 -3.909,3.936c-2.132,-0 -3.909,-1.789 -3.909,-3.936c0,-2.148 1.777,-3.937 3.909,-3.937c2.132,0 3.909,1.789 3.909,3.937Z" style="fill:#f0f972;fill-opacity:0.37;fill-rule:nonzero;"/><path id="path16215" d="M20.134,20.095c0,1.908 -1.54,3.459 -3.435,3.459c-1.895,-0 -3.435,-1.551 -3.435,-3.459c-0,-1.909 1.54,-3.46 3.435,-3.46c1.895,0 3.435,1.551 3.435,3.46Z" style="fill:#f4fa95;fill-opacity:0.52;fill-rule:nonzero;"/><path id="path16217" d="M19.66,20.095c0,1.67 -1.303,2.982 -2.961,2.982c-1.658,-0 -2.961,-1.312 -2.961,-2.982c-0,-1.67 1.303,-2.982 2.961,-2.982c1.658,-0 2.961,1.312 2.961,2.982Z" style="fill:#f7fcb7;fill-opacity:0.68;fill-rule:nonzero;"/><path id="path16219" d="M19.186,20.095c0,1.431 -1.184,2.505 -2.487,2.505c-1.303,-0 -2.488,-1.193 -2.488,-2.505c0,-1.313 1.185,-2.505 2.488,-2.505c1.303,-0 2.487,1.192 2.487,2.505Z" style="fill:#fbfddb;fill-opacity:0.84;fill-rule:nonzero;"/><path id="path16221" d="M18.713,20.095c-0,1.192 -0.948,2.147 -2.132,2.147c-1.185,-0 -2.133,-0.955 -2.133,-2.147c0,-1.193 0.948,-2.148 2.133,-2.148c1.184,0 2.132,0.955 2.132,2.148Z" style="fill:#fff;fill-rule:nonzero;"/><g id="path12125" transform="matrix(0.943043,0,0,0.943043,2.4556,2.10925)"><rect x="7.172" y="12.275" width="37.176" height="25.603" style="fill:none;fill-rule:nonzero;stroke:#fff;stroke-opacity:0.62;stroke-width:1.07px;"/></g><g id="path2099" transform="matrix(0.943043,0,0,0.943043,2.4556,2.10925)"><path d="M8.862,28.101l33.659,0l-0,-3.96l-3.3,-2.262l-2.734,1.414l-4.526,-4.243l-7.825,7.448l-6.694,-0.471l-5.657,1.603l-1.697,-0.943l-1.226,1.414Z" style="fill:url(#_Linear5);"/></g><g id="path2388" transform="matrix(0.943043,0,0,0.943043,2.4556,2.10925)"><path d="M31.987,19.05l-1.534,1.534l0.869,-0.409l0,0.716l1.125,-0.818l0.307,0.307l-0,-0.358l0.716,0.46l-1.483,-1.432Z" style="fill:#fff;"/></g></g><path id="path11975" d="M47.445,41.932c0,1.984 -1.045,3.218 -3.029,3.218l-37.359,0c-1.983,0 -3.123,-1.14 -3.123,-3.123l-0,-33.942c-0,-1.983 1.611,-3.406 3.595,-3.406l36.416,0c1.983,0 3.5,1.423 3.5,3.406l0,33.847Z" style="fill:none;fill-rule:nonzero;stroke:#fff;stroke-opacity:0.86;stroke-width:1.07px;"/></g><defs><radialGradient id="_Radial1" cx="0" cy="0" r="1" gradientUnits="userSpaceOnUse" gradientTransform="matrix(23.5702,0,0,4.33692,25.833,44.4118)"><stop offset="0" style="stop-color:#000;stop-opacity:0.53"/><stop offset="1" style="stop-color:#000;stop-opacity:0"/></radialGradient><linearGradient id="_Linear2" x1="0" y1="0" x2="1" y2="-0.0460448" gradientUnits="userSpaceOnUse" gradientTransform="matrix(24.0261,41.7373,-41.7373,24.0261,13.9792,5.00662)"><stop offset="0" style="stop-color:#d2d2d2;stop-opacity:1"/><stop offset="1" style="stop-color:#ededed;stop-opacity:1"/></linearGradient><linearGradient id="_Linear3" x1="0" y1="0" x2="1" y2="0.000875337" gradientUnits="userSpaceOnUse" gradientTransform="matrix(0.0471413,-9.26133,9.26133,0.0471413,25.6741,37.9166)"><stop offset="0" style="stop-color:#5e4f07;stop-opacity:1"/><stop offset="1" style="stop-color:#348a31;stop-opacity:1"/></linearGradient><linearGradient id="_Linear4" x1="0" y1="0" x2="1" y2="0" gradientUnits="userSpaceOnUse" gradientTransform="matrix(1.26628e-15,-20.6799,20.6799,1.26628e-15,25.7402,31.1714)"><stop offset="0" style="stop-color:#d0d6e5;stop-opacity:1"/><stop offset="1" style="stop-color:#093a80;stop-opacity:1"/></linearGradient><linearGradient id="_Linear5" x1="0" y1="0" x2="1" y2="0.0016981" gradientUnits="userSpaceOnUse" gradientTransform="matrix(-0.0750528,7.6,-7.6,-0.0750528,29.1291,21.5757)"><stop offset="0" style="stop-color:#715b26;stop-opacity:1"/><stop offset="1" style="stop-color:#312710;stop-opacity:1"/></linearGradient></defs></svg>