<?xml version="1.0" encoding="UTF-8" standalone="no"?>
<!DOCTYPE svg PUBLIC "-//W3C//DTD SVG 1.1//EN" "http://www.w3.org/Graphics/SVG/1.1/DTD/svg11.dtd">
<svg width="30px" height="30px" version="1.1" xmlns="http://www.w3.org/2000/svg" xmlns:xlink="http://www.w3.org/1999/xlink" xml:space="preserve" xmlns:serif="http://www.serif.com/" style="fill-rule:evenodd;clip-rule:evenodd;stroke-linejoin:round;stroke-miterlimit:2;">
    <g id="Layer1">
        <rect id="red" x="4.5" y="27.412" width="21" height="2.587" style="fill:rgb(255,0,0);"/>
        <path id="dots" d="M30,30L26.999,30L26.999,26.999L30,26.999L30,30ZM30,25.5L26.999,25.5L26.999,22.499L30,22.499L30,25.5ZM30,20.999L26.999,20.999L26.999,18L30,18L30,20.999ZM30,16.499L26.999,16.499L26.999,13.5L30,13.5L30,16.499ZM30,12L26.999,12L26.999,8.999L30,8.999L30,12ZM30,7.5L26.999,7.5L26.999,4.499L30,4.499L30,7.5ZM30,2.999L26.999,2.999L26.999,0L30,0L30,2.999ZM25.5,2.999L22.499,2.999L22.499,0L25.5,0L25.5,2.999ZM20.999,2.999L18,2.999L18,0L20.999,0L20.999,2.999ZM16.499,2.999L13.5,2.999L13.5,0L16.499,0L16.499,2.999ZM12,2.999L8.999,2.999L8.999,0L12,0L12,2.999ZM7.5,2.999L4.499,2.999L4.499,0L7.5,0L7.5,2.999ZM2.999,30L0,30L0,26.999L2.999,26.999L2.999,30ZM2.999,25.5L0,25.5L0,22.499L2.999,22.499L2.999,25.5ZM2.999,20.999L0,20.999L0,18L2.999,18L2.999,20.999ZM2.999,16.499L0,16.499L0,13.5L2.999,13.5L2.999,16.499ZM2.999,12L0,12L0,8.999L2.999,8.999L2.999,12ZM2.999,7.5L0,7.5L0,4.499L2.999,4.499L2.999,7.5ZM2.999,2.999L0,2.999L0,0L2.999,0L2.999,2.999Z" style="fill:rgb(0,0,255);fill-rule:nonzero;"/>
    </g>
</svg>
