<?xml version="1.0" encoding="UTF-8" standalone="no"?><!DOCTYPE svg PUBLIC "-//W3C//DTD SVG 1.1//EN" "http://www.w3.org/Graphics/SVG/1.1/DTD/svg11.dtd"><svg width="100%" height="100%" viewBox="0 0 32 32" version="1.1" xmlns="http://www.w3.org/2000/svg" xmlns:xlink="http://www.w3.org/1999/xlink" xml:space="preserve" xmlns:serif="http://www.serif.com/" style="fill-rule:evenodd;clip-rule:evenodd;stroke-linejoin:round;stroke-miterlimit:2;"><path id="dots" d="M31,31l-3,0l0,-3l3,0l0,3Zm0,-4.5l-3,0l0,-3l3,0l0,3Zm0,-4.5l-3,0l0,-3l3,0l0,3Zm0,-4.5l-3,0l0,-3l3,0l0,3Zm0,-4.5l-3,0l0,-3l3,0l0,3Zm0,-4.5l-3,0l0,-3l3,0l0,3Zm0,-4.5l-3,0l0,-3l3,0l0,3Zm-4.5,0l-3,0l0,-3l3,0l0,3Zm-4.5,0l-3,0l0,-3l3,0l0,3Zm-4.5,0l-3,0l0,-3l3,0l0,3Zm-4.5,0l-3,0l0,-3l3,0l0,3Zm-4.5,0l-3,0l0,-3l3,0l0,3Zm-4.5,27l-3,0l0,-3l3,0l0,3Zm0,-4.5l-3,0l0,-3l3,0l0,3Zm0,-4.5l-3,0l0,-3l3,0l0,3Zm0,-4.5l-3,0l0,-3l3,0l0,3Zm0,-4.5l-3,0l0,-3l3,0l0,3Zm0,-4.5l-3,0l0,-3l3,0l0,3Zm0,-4.5l-3,0l0,-3l3,0l0,3Z" style="fill:#00f;fill-rule:nonzero;"/><rect id="red" x="4.11" y="28.413" width="23.597" height="2.587" style="fill:#f00;fill-rule:nonzero;"/></svg>