<?xml version="1.0" encoding="UTF-8" standalone="no"?>
<!DOCTYPE svg PUBLIC "-//W3C//DTD SVG 1.1//EN" "http://www.w3.org/Graphics/SVG/1.1/DTD/svg11.dtd">
<svg width="30px" height="30px" version="1.1" xmlns="http://www.w3.org/2000/svg" xmlns:xlink="http://www.w3.org/1999/xlink" xml:space="preserve" xmlns:serif="http://www.serif.com/" style="fill-rule:evenodd;clip-rule:evenodd;">
    <g>
        <g opacity="0.89">
            <g>
                <path d="M16.594,9.094C16.414,9.096 16.242,9.169 16.114,9.298L13.182,12.291C12.913,12.566 12.913,13.013 13.182,13.288L17.576,17.78L13.182,22.272C12.913,22.547 12.913,22.994 13.182,23.269L16.114,26.262C16.383,26.537 16.821,26.537 17.091,26.262L21.49,21.776L25.889,26.262C26.159,26.537 26.597,26.537 26.867,26.262L29.798,23.269C30.067,22.994 30.067,22.547 29.798,22.272L25.404,17.78L29.798,13.288C30.067,13.013 30.067,12.566 29.798,12.291L26.867,9.298C26.597,9.023 26.159,9.023 25.889,9.298L21.49,13.784L17.091,9.298C16.959,9.165 16.78,9.091 16.594,9.094ZM21.981,20.277C21.851,20.143 21.675,20.067 21.49,20.067C21.305,20.067 21.129,20.143 20.999,20.277L21.981,20.277Z" style="fill:url(#_Linear1);fill-rule:nonzero;"/>
                <g>
                    <path d="M16.937,26.031L21.456,21.293L25.914,25.969L21.456,18.861L16.937,26.031Z" style="stroke:black;stroke-width:0.09px;"/>
                    <path d="M14.681,22.799L13.697,23.655C13.202,23.342 13.029,22.483 13.605,21.887L14.59,22.724L14.681,22.799Z" style="fill:url(#_Linear2);"/>
                </g>
                <path d="M26.376,10.438L21.49,15.426L16.604,10.438L14.299,12.792L19.184,17.78L14.299,22.768L16.604,25.122L21.49,20.134L26.376,25.122L28.681,22.768L23.796,17.78L28.681,12.792L26.376,10.438Z" style="fill:url(#_Linear3);fill-rule:nonzero;"/>
                <clipPath id="_clip4">
                    <path d="M16.603,26.383C16.423,26.381 16.251,26.308 16.123,26.179L13.192,23.186C12.922,22.911 12.922,22.464 13.192,22.189L17.586,17.697L13.192,13.205C12.922,12.93 12.922,12.483 13.192,12.208L16.123,9.215C16.393,8.94 16.83,8.94 17.1,9.215L21.499,13.701L25.899,9.215C26.169,8.94 26.606,8.94 26.876,9.215L29.807,12.208C30.077,12.483 30.077,12.93 29.807,13.205L25.413,17.697L29.807,22.189C30.077,22.464 30.077,22.911 29.807,23.186L26.876,26.179C26.606,26.454 26.169,26.454 25.899,26.179L21.499,21.693L17.1,26.179C16.968,26.312 16.789,26.386 16.603,26.383ZM21.991,15.2C21.861,15.334 21.684,15.41 21.499,15.41C21.315,15.41 21.138,15.334 21.008,15.2L21.991,15.2Z"/>
                </clipPath>
                <g clip-path="url(#_clip4)">
                    <path d="M16.937,9.446L21.456,14.184L25.914,9.508L21.456,16.616L16.937,9.446Z" style="fill:url(#_Radial5);"/>
                </g>
                <path d="M26.376,10.438L21.49,15.426L16.604,10.438L14.299,12.792L19.184,17.78L14.299,22.768L16.604,25.122L21.49,20.134L26.376,25.122L28.681,22.768L23.796,17.78L28.681,12.792L26.376,10.438Z" style="fill:none;fill-rule:nonzero;stroke:url(#_Linear6);stroke-width:0.27px;stroke-linecap:round;stroke-linejoin:round;"/>
                <path d="M16.602,10.427L14.296,12.78L16.558,10.647L21.49,15.427L26.329,10.647L28.267,12.626C28.25,12.715 28.227,12.802 28.202,12.89L26.102,15.387C24.208,16.351 21.568,17.302 18.728,17.305L18.777,17.355C18.858,17.356 18.938,17.36 19.02,17.36C21.868,17.36 23.826,16.761 25.725,15.795L28.516,12.945C28.527,12.905 28.538,12.865 28.548,12.824C28.56,12.777 28.571,12.729 28.58,12.681L26.372,10.427L26.243,10.559L21.49,15.427L16.602,10.427Z" style="fill:url(#_Linear7);fill-rule:nonzero;"/>
                <path d="M16.605,10.439L14.299,12.792L18.78,17.367C18.862,17.368 18.941,17.372 19.023,17.372C21.871,17.372 23.829,16.774 25.728,15.807L28.519,12.958C28.544,12.869 28.566,12.783 28.583,12.693L26.375,10.439L21.49,15.426L16.605,10.439Z" style="fill:url(#_Linear8);fill-rule:nonzero;"/>
                <path d="M16.602,10.427L14.296,12.78L16.558,10.647L21.491,15.759L21.49,15.427L21.492,15.757L26.329,10.647L28.267,12.626C28.25,12.715 28.227,12.802 28.202,12.89L26.102,15.387C24.208,16.351 21.568,17.302 18.728,17.305L18.777,17.355C18.858,17.356 18.938,17.36 19.02,17.36C21.868,17.36 23.826,16.761 25.725,15.795L28.516,12.945C28.527,12.905 28.538,12.865 28.548,12.824C28.56,12.777 28.571,12.729 28.58,12.681L26.372,10.427L26.243,10.559L21.49,15.427L16.602,10.427Z" style="fill:url(#_Linear9);fill-rule:nonzero;"/>
            </g>
        </g>
        <path d="M17.044,0.056C17.934,-0.153 18.502,0.249 19.01,0.764L14.77,13.034L12.804,12.326L17.044,0.056Z" style="fill:url(#_Linear10);fill-rule:nonzero;stroke:black;stroke-opacity:0.45;stroke-width:0.09px;stroke-linecap:round;stroke-linejoin:round;"/>
        <path d="M17.044,0.056C17.934,-0.153 18.502,0.249 19.01,0.764L14.77,13.034L12.804,12.326L17.044,0.056Z" style="fill:url(#_Linear11);fill-rule:nonzero;"/>
        <path d="M17.044,0.056C17.934,-0.153 18.502,0.249 19.01,0.764L14.77,13.034L12.804,12.326L17.044,0.056Z" style="fill:url(#_Linear12);fill-rule:nonzero;"/>
        <path d="M12.921,11.947C12.067,11.74 12.516,12.971 12.219,13.402C11.936,13.811 10.956,13.823 10.511,14.178C9.754,14.782 9.143,15.526 8.612,16.28C8.012,17.133 7.682,18.126 7.117,19.001C6.366,20.164 5.54,21.292 4.667,22.392L2.223,25.471L3.649,24.085L2.427,25.624L3.614,24.574L2.505,26.079L3.139,26.319L3.63,26.411L3.737,26.69L3.09,27.075L4.336,27.418C4.336,27.418 4.938,27.118 5.133,26.868C5.328,26.618 7,24.585 7,24.585L4.766,27.504L5.641,27.409L5.792,27.602L6.503,27.939L8.01,25.979L6.978,27.939L7.529,28.037L7.673,28.185L8.133,28.094L8.565,28.538L8.49,28.8L9.535,27.96L9.304,28.699L9.725,28.381L9.947,28.984L10.293,28.927L10.529,29.263L10.868,29.161L10.846,29.383L11.403,29.168L11.872,27.736L11.925,29.441L12.62,29.687L13.19,27.459L12.943,29.494L14.407,19.966C14.571,18.898 15.004,17.89 15.056,16.806C15.086,16.167 14.737,15.459 14.654,14.798C14.627,14.583 14.698,14.384 14.726,14.179C14.778,13.81 15.097,13.337 14.895,13.076C14.729,12.863 14.047,12.221 12.921,11.947Z" style="fill:url(#_Radial13);stroke:black;stroke-width:0.01px;"/>
        <g>
            <g>
                <path d="M12.679,12.033C12.48,12.327 12.221,12.602 12.071,12.929C11.987,13.112 11.979,13.327 11.956,13.526C11.932,13.725 11.893,13.907 11.766,14.028C11.591,14.192 11.292,14.286 10.979,14.381C10.667,14.476 10.341,14.57 10.128,14.755C9.475,15.324 9.074,16.084 8.615,16.772C7.869,17.891 7.364,19.129 6.512,20.174C4.927,22.118 3.029,23.894 1.285,25.756L1.415,25.835C3.156,23.975 5.054,22.199 6.643,20.25C7.505,19.193 8.013,17.951 8.753,16.84C9.215,16.148 9.614,15.396 10.252,14.841C10.442,14.675 10.747,14.581 11.06,14.486C11.374,14.391 11.694,14.296 11.891,14.11C12.043,13.967 12.082,13.768 12.106,13.565C12.13,13.362 12.14,13.153 12.215,12.989C12.359,12.676 12.611,12.402 12.814,12.101L12.679,12.033Z" style="fill:rgb(146,107,63);"/>
                <path d="M12.649,12.068C12.451,12.353 12.217,12.617 12.08,12.915C12.005,13.079 11.995,13.288 11.971,13.491C11.947,13.694 11.908,13.893 11.756,14.036C11.559,14.222 11.239,14.317 10.926,14.412C10.613,14.507 10.307,14.602 10.117,14.767C9.479,15.322 9.08,16.074 8.618,16.766C7.878,17.877 7.371,19.119 6.509,20.176C4.919,22.125 3.022,23.901 1.28,25.761L1.291,25.823C3.032,23.963 4.929,22.187 6.519,20.238C7.381,19.181 7.888,17.939 8.629,16.828C9.091,16.136 9.49,15.384 10.128,14.829C10.318,14.664 10.623,14.569 10.936,14.474C11.249,14.379 11.569,14.284 11.767,14.098C11.918,13.955 11.958,13.756 11.982,13.553C12.006,13.35 12.015,13.141 12.091,12.977C12.234,12.664 12.487,12.39 12.69,12.089L12.649,12.068Z" style="fill:url(#_Linear14);"/>
                <path d="M12.85,12.049C12.651,12.343 12.392,12.618 12.242,12.946C12.158,13.128 12.15,13.343 12.127,13.542C12.103,13.741 12.064,13.924 11.937,14.044C11.762,14.208 11.463,14.303 11.15,14.397C10.838,14.492 10.512,14.586 10.299,14.771C9.646,15.34 9.245,16.1 8.786,16.788C8.04,17.907 7.535,19.146 6.683,20.191C5.098,22.134 3.2,23.91 1.456,25.773L1.539,25.78C3.282,23.918 5.18,22.142 6.765,20.199C7.617,19.154 8.122,17.915 8.868,16.796C9.327,16.108 9.728,15.348 10.382,14.779C10.594,14.594 10.92,14.5 11.233,14.405C11.545,14.31 11.844,14.216 12.019,14.052C12.147,13.932 12.185,13.749 12.209,13.55C12.232,13.351 12.24,13.136 12.324,12.953C12.47,12.636 12.717,12.367 12.914,12.082L12.85,12.049Z" style="fill:rgb(74,52,27);"/>
            </g>
            <g>
                <path d="M14.133,12.759C13.7,13.208 13.368,13.724 12.859,14.086C12.307,14.479 11.307,14.596 10.836,15.105C10.227,15.763 10.082,16.7 9.72,17.48C9.41,18.148 9.159,18.839 8.802,19.477C8.157,20.632 7.301,21.701 6.695,22.885C6.223,23.807 6.023,24.838 5.587,25.756C5.351,26.255 4.973,26.699 4.66,27.18L4.851,27.276C5.159,26.803 5.542,26.355 5.786,25.84C6.229,24.906 6.428,23.878 6.892,22.972C7.492,21.8 8.346,20.731 8.997,19.566C9.359,18.919 9.608,18.226 9.916,17.563C10.287,16.765 10.437,15.839 11.017,15.213C11.437,14.758 12.419,14.637 13.019,14.21C13.554,13.83 13.888,13.31 14.311,12.871L14.133,12.759Z" style="fill:url(#_Linear15);"/>
                <path d="M14.122,12.723C13.702,13.16 13.367,13.675 12.835,14.053C12.235,14.48 11.254,14.601 10.833,15.056C10.254,15.682 10.103,16.608 9.733,17.406C9.425,18.069 9.176,18.761 8.813,19.409C8.162,20.573 7.308,21.643 6.708,22.815C6.245,23.72 6.045,24.749 5.602,25.682C5.358,26.198 4.975,26.646 4.667,27.119L4.59,27.081C4.586,27.087 4.582,27.093 4.578,27.099L4.769,27.195C5.077,26.722 5.459,26.274 5.704,25.759C6.146,24.825 6.346,23.797 6.809,22.891C7.409,21.719 8.263,20.65 8.915,19.485C9.277,18.837 9.526,18.145 9.834,17.482C10.205,16.684 10.355,15.758 10.934,15.132C11.355,14.677 12.337,14.556 12.937,14.129C13.472,13.749 13.806,13.229 14.229,12.79L14.122,12.723Z" style="fill:rgb(234,215,189);"/>
            </g>
            <g>
                <path d="M14.286,12.737C14.242,13.187 14.303,13.67 14.16,14.058C14.118,14.173 13.988,14.265 13.856,14.363C13.723,14.461 13.588,14.565 13.558,14.723C13.4,15.578 13.807,16.616 13.54,17.401C13.159,18.52 12.217,19.46 11.582,20.518C11.01,21.472 10.565,22.485 9.939,23.403C9.368,24.24 8.54,24.957 7.975,25.813C7.494,26.541 7.204,27.357 6.822,28.123L6.97,28.187C7.354,27.415 7.644,26.601 8.118,25.884C8.675,25.041 9.504,24.327 10.083,23.477C10.714,22.552 11.162,21.538 11.731,20.589C12.359,19.543 13.304,18.6 13.694,17.457C13.975,16.632 13.561,15.588 13.713,14.768C13.735,14.649 13.85,14.555 13.981,14.458C14.112,14.362 14.257,14.262 14.311,14.115C14.463,13.701 14.402,13.212 14.444,12.775L14.286,12.737Z" style="fill:rgb(151,114,72);"/>
                <path d="M14.211,12.675C14.167,13.125 14.228,13.608 14.085,13.996C14.043,14.111 13.913,14.203 13.781,14.301C13.648,14.399 13.512,14.503 13.483,14.661C13.325,15.516 13.732,16.554 13.465,17.339C13.083,18.458 12.142,19.398 11.507,20.456C10.935,21.41 10.489,22.423 9.864,23.341C9.293,24.178 8.465,24.895 7.9,25.751C7.419,26.478 7.129,27.295 6.747,28.061L6.894,28.125C7.279,27.353 7.569,26.539 8.043,25.822C8.6,24.979 9.429,24.265 10.008,23.415C10.639,22.49 11.087,21.476 11.656,20.527C12.284,19.481 13.229,18.538 13.618,17.395C13.899,16.57 13.486,15.526 13.637,14.706C13.659,14.587 13.775,14.493 13.906,14.396C14.036,14.3 14.182,14.2 14.236,14.053C14.388,13.639 14.327,13.15 14.369,12.713L14.211,12.675Z" style="fill:url(#_Linear16);"/>
            </g>
            <g>
                <path d="M14.828,13.107C14.825,13.441 14.889,13.787 14.817,14.081C14.781,14.228 14.678,14.361 14.578,14.5C14.478,14.639 14.382,14.786 14.374,14.965C14.333,15.887 14.696,16.901 14.649,17.81C14.58,19.155 14.216,20.444 14.021,21.774C13.845,22.98 13.747,24.206 13.54,25.398C13.273,26.931 12.912,28.439 12.597,29.961L12.743,30.004C13.058,28.483 13.421,26.975 13.688,25.439C13.897,24.242 13.994,23.015 14.169,21.813C14.363,20.489 14.729,19.2 14.799,17.843C14.847,16.911 14.48,15.895 14.521,14.996C14.528,14.844 14.615,14.71 14.714,14.572C14.813,14.435 14.926,14.295 14.967,14.128C15.044,13.811 14.974,13.459 14.977,13.137L14.828,13.107Z" style="fill:rgb(97,63,35);"/>
                <path d="M14.72,13.042C14.716,13.376 14.781,13.722 14.709,14.016C14.673,14.163 14.57,14.296 14.47,14.435C14.369,14.574 14.274,14.721 14.266,14.899C14.224,15.822 14.588,16.836 14.541,17.744C14.472,19.09 14.108,20.379 13.913,21.709C13.737,22.914 13.639,24.14 13.432,25.333C13.165,26.866 12.804,28.374 12.489,29.896L12.635,29.938C12.95,28.418 13.313,26.91 13.58,25.374C13.789,24.177 13.885,22.95 14.061,21.748C14.255,20.424 14.621,19.135 14.691,17.778C14.739,16.846 14.372,15.83 14.413,14.931C14.42,14.779 14.507,14.645 14.606,14.507C14.705,14.37 14.818,14.23 14.859,14.063C14.936,13.746 14.866,13.394 14.869,13.071L14.72,13.042Z" style="fill:rgb(206,181,142);"/>
            </g>
            <g>
                <path d="M14.364,12.754C14.256,12.92 14.13,13.082 14.034,13.264C13.938,13.446 13.947,13.668 13.837,13.767C13.812,13.789 13.724,13.801 13.617,13.808C13.51,13.816 13.375,13.82 13.315,13.905C13.126,14.175 13.084,14.553 13.055,14.888C13.023,15.268 13.189,15.676 13.13,16.009C13.013,16.674 12.706,17.298 12.513,17.96C12.055,19.523 11.537,21.071 11.178,22.67C10.703,24.787 10.404,26.955 10.017,29.095L10.205,29.148C10.593,27.005 10.893,24.838 11.367,22.726C11.724,21.134 12.242,19.589 12.7,18.023C12.891,17.372 13.199,16.746 13.319,16.064C13.385,15.69 13.215,15.277 13.245,14.933C13.273,14.601 13.321,14.234 13.489,13.994C13.506,13.971 13.577,13.959 13.682,13.952C13.786,13.945 13.915,13.944 13.994,13.873C14.158,13.726 14.137,13.491 14.215,13.344C14.305,13.173 14.429,13.013 14.541,12.842L14.364,12.754Z" style="fill:rgb(131,101,61);"/>
                <path d="M14.261,12.622C14.153,12.789 14.026,12.951 13.931,13.132C13.835,13.314 13.844,13.536 13.734,13.635C13.709,13.657 13.62,13.669 13.513,13.677C13.406,13.684 13.271,13.688 13.211,13.773C13.022,14.043 12.981,14.422 12.952,14.756C12.919,15.136 13.086,15.544 13.027,15.878C12.91,16.542 12.603,17.167 12.409,17.828C11.951,19.391 11.433,20.939 11.075,22.538C10.6,24.655 10.3,26.824 9.914,28.964L10.102,29.016C10.489,26.873 10.79,24.706 11.264,22.594C11.621,21.002 12.138,19.457 12.597,17.892C12.788,17.24 13.095,16.614 13.216,15.932C13.282,15.558 13.112,15.145 13.142,14.801C13.17,14.469 13.218,14.102 13.386,13.863C13.402,13.839 13.474,13.827 13.578,13.82C13.682,13.813 13.812,13.812 13.891,13.741C14.054,13.594 14.034,13.359 14.111,13.212C14.201,13.041 14.326,12.881 14.438,12.71L14.261,12.622Z" style="fill:rgb(171,108,64);"/>
            </g>
            <path d="M3.674,26.547C3.99,26.197 3.278,26.588 3.546,26.234C5.032,24.266 6.64,21.583 7.877,19.592C6.402,21.941 5.866,24.437 3.674,26.547Z" style="fill:rgb(43,32,20);"/>
            <path d="M10.838,29.416C11.155,29.066 10.605,29.525 10.711,29.102C11.32,26.671 11.856,22.873 13.093,20.882C11.618,23.231 11.744,26.898 10.838,29.416Z" style="fill:rgb(43,32,20);"/>
            <path d="M8.241,28.218C8.558,27.868 7.974,28.316 8.113,27.905C8.878,25.647 11.257,20.094 12.167,17.913C11.242,20.283 9.146,25.7 8.241,28.218Z" style="fill:rgb(43,32,20);"/>
            <path d="M11.899,14.311C10.306,14.368 9.838,16.128 8.956,17.252C9.853,16.116 10.495,14.506 11.899,14.311Z" style="fill:url(#_Linear17);"/>
        </g>
        <path d="M10.654,17.459L9.788,19.346L8.26,21.527" style="fill:none;fill-rule:nonzero;stroke:url(#_Linear18);stroke-width:0.07px;"/>
        <path d="M12.319,15.381C12.557,16.967 12.038,17.127 11.863,17.933C12.032,17.081 12.858,16.192 12.319,15.381Z" style="fill:rgb(244,240,219);"/>
        <path d="M2.65,26.205L5.131,22.595L3.022,26.142L2.65,26.205Z" style="fill:none;fill-rule:nonzero;"/>
        <path d="M11.849,13.322C11.805,13.334 11.771,13.37 11.761,13.415C11.752,13.46 11.768,13.507 11.804,13.536C12.771,14.372 13.745,14.61 14.686,14.908C14.75,14.929 14.818,14.893 14.839,14.828C14.859,14.763 14.824,14.693 14.76,14.672C13.809,14.371 12.885,14.152 11.961,13.353C11.931,13.324 11.889,13.312 11.849,13.322Z" style="fill:rgb(140,140,140);"/>
        <path d="M11.884,13.688C12.829,14.506 13.775,14.736 14.721,15.036" style="fill:none;fill-rule:nonzero;stroke:black;stroke-opacity:0.49;stroke-width:0.24px;stroke-linecap:round;"/>
        <path d="M9.08,16.815C8.264,17.8 7.287,19.656 6.142,21.313C7.287,19.893 8.265,18.081 9.08,16.815Z"/>
        <path d="M6.014,27.532C6.191,27.315 6.025,28.255 6.328,27.606C7.529,25.029 9.058,22.379 10.157,20.13L6.014,27.532Z" style="fill:rgb(134,62,62);"/>
        <path d="M3.983,27.086C4.16,26.868 3.994,27.808 4.297,27.159C5.498,24.582 6.152,24.709 7.251,22.459L3.983,27.086Z" style="fill:rgb(134,62,62);"/>
        <path d="M11.889,28.968C12.066,28.75 11.925,29.903 12.078,29.201C12.467,27.422 12.558,27.548 12.626,26.192C12.338,27.214 12.176,28.254 11.889,28.968Z" style="fill:rgb(134,62,62);"/>
        <path d="M7.737,17.685C7.681,17.699 7.643,17.753 7.649,17.812C7.659,17.979 7.775,18.119 7.934,18.275C8.094,18.431 8.312,18.596 8.564,18.769C9.069,19.115 9.716,19.479 10.322,19.771C10.947,20.072 11.841,20.385 12.637,20.586C13.034,20.687 13.411,20.758 13.713,20.788C13.864,20.803 13.995,20.805 14.109,20.795C14.223,20.785 14.322,20.766 14.402,20.706C14.444,20.684 14.47,20.639 14.467,20.591C14.464,20.543 14.433,20.501 14.388,20.485C14.344,20.469 14.294,20.482 14.263,20.519C14.246,20.531 14.179,20.548 14.087,20.556C13.994,20.564 13.877,20.563 13.735,20.549C13.451,20.521 13.086,20.453 12.695,20.354C11.915,20.157 11.028,19.845 10.425,19.554C9.828,19.266 9.187,18.911 8.696,18.574C8.451,18.406 8.239,18.244 8.096,18.103C7.952,17.963 7.886,17.835 7.883,17.797C7.882,17.76 7.865,17.726 7.836,17.705C7.808,17.683 7.771,17.675 7.737,17.685Z" style="fill:rgb(128,128,128);"/>
        <path d="M7.767,18.043C7.794,18.454 9.169,19.323 10.372,19.903C11.6,20.495 13.946,21.142 14.33,20.851" style="fill:none;fill-rule:nonzero;stroke:black;stroke-opacity:0.45;stroke-width:0.24px;"/>
        <path d="M7.759,17.761C7.728,17.763 7.699,17.775 7.678,17.798C7.679,17.8 7.677,17.804 7.678,17.806C7.724,17.919 7.817,18.02 7.934,18.135C8.094,18.291 8.312,18.463 8.564,18.636C9.069,18.982 9.716,19.345 10.322,19.638C10.947,19.939 11.841,20.252 12.637,20.453C13.034,20.553 13.411,20.625 13.713,20.655C13.864,20.67 13.995,20.672 14.109,20.662C14.214,20.653 14.304,20.63 14.38,20.58C14.343,20.564 14.297,20.569 14.263,20.595C14.246,20.608 14.179,20.632 14.087,20.64C13.994,20.648 13.877,20.646 13.735,20.632C13.451,20.604 13.086,20.529 12.695,20.43C11.915,20.233 11.028,19.929 10.425,19.638C9.828,19.35 9.187,18.987 8.696,18.651C8.451,18.483 8.239,18.32 8.096,18.18C7.952,18.039 7.886,17.918 7.883,17.88C7.883,17.847 7.87,17.813 7.847,17.791C7.823,17.768 7.791,17.759 7.759,17.761Z" style="fill:url(#_Linear19);"/>
        <path d="M13.767,18.633C13.578,19.633 13.123,21.848 12.267,25.908C13.212,23.369 13.47,21.006 13.767,18.633Z" style="fill:rgb(43,32,20);"/>
        <path d="M12.424,14.645C11.608,15.63 11.194,16.402 10.517,18.123C11.287,16.415 11.609,15.911 12.424,14.645Z"/>
        <path d="M9.299,20.707C8.483,21.692 7.006,24.92 6.08,26.673C7.006,24.934 8.484,21.973 9.299,20.707Z"/>
        <path d="M12.424,20.962C11.827,22.139 10.194,26.356 9.267,28.109C10.193,26.37 11.797,22.324 12.424,20.962Z" style="fill:rgb(221,210,152);"/>
        <path d="M14.299,15.538C14.202,16.364 14.287,17.901 13.236,19.75C14.006,17.755 14.297,16.549 14.299,15.538Z" style="fill:rgb(187,124,62);"/>
        <path d="M11.846,13.355C11.813,13.364 11.795,13.385 11.78,13.415C11.787,13.426 11.791,13.436 11.802,13.445C12.769,14.281 13.746,14.523 14.687,14.821C14.743,14.839 14.799,14.811 14.827,14.761C14.812,14.737 14.789,14.71 14.761,14.701C13.81,14.4 12.887,14.184 11.963,13.385C11.933,13.356 11.886,13.345 11.846,13.355Z" style="fill:url(#_Linear20);"/>
        <path d="M12.483,11.878C12.444,11.888 12.415,11.92 12.406,11.96C12.398,12 12.412,12.041 12.444,12.067C13.3,12.807 14.162,13.018 14.995,13.282C15.052,13.3 15.113,13.268 15.131,13.211C15.149,13.153 15.118,13.091 15.061,13.072C14.22,12.806 13.401,12.612 12.582,11.905C12.556,11.879 12.519,11.869 12.483,11.878Z" style="fill:rgb(140,140,140);"/>
        <path d="M12.514,12.202C13.352,12.926 14.189,13.13 15.027,13.395" style="fill:none;fill-rule:nonzero;stroke:black;stroke-opacity:0.49;stroke-width:0.21px;stroke-linecap:round;"/>
        <path d="M12.481,11.907C12.452,11.914 12.436,11.933 12.422,11.959C12.428,11.969 12.433,11.979 12.442,11.986C13.298,12.727 14.164,12.941 14.997,13.204C15.046,13.221 15.096,13.196 15.12,13.151C15.107,13.13 15.087,13.107 15.062,13.098C14.22,12.832 13.403,12.641 12.584,11.933C12.558,11.907 12.516,11.897 12.481,11.907Z" style="fill:url(#_Linear21);"/>
    </g>
    <defs>
        <linearGradient id="_Linear1" x1="0" y1="0" x2="1" y2="0" gradientUnits="userSpaceOnUse" gradientTransform="matrix(9.95315e-16,-16.5956,16.2547,1.01619e-15,21.273,21.0271)"><stop offset="0" style="stop-color:rgb(129,0,0);stop-opacity:1"/><stop offset="1" style="stop-color:rgb(197,0,0);stop-opacity:1"/></linearGradient>
        <linearGradient id="_Linear2" x1="0" y1="0" x2="1" y2="-0.00128623" gradientUnits="userSpaceOnUse" gradientTransform="matrix(-0.360846,12.1275,11.8784,0.368413,122.537,104.134)"><stop offset="0" style="stop-color:rgb(118,92,68);stop-opacity:0.5"/><stop offset="1" style="stop-color:rgb(118,92,68);stop-opacity:0"/></linearGradient>
        <linearGradient id="_Linear3" x1="0" y1="0" x2="1" y2="0" gradientUnits="userSpaceOnUse" gradientTransform="matrix(5.47955e-16,-9.13644,8.94878,5.59446e-16,20.6276,22.7995)"><stop offset="0" style="stop-color:rgb(255,0,0);stop-opacity:0.92"/><stop offset="1" style="stop-color:rgb(127,0,0);stop-opacity:0.92"/></linearGradient>
        <radialGradient id="_Radial5" cx="0" cy="0" r="1" gradientUnits="userSpaceOnUse" gradientTransform="matrix(2.05411,0,0,-3.58531,21.4257,12.532)"><stop offset="0" style="stop-color:black;stop-opacity:1"/><stop offset="1" style="stop-color:black;stop-opacity:0"/></radialGradient>
        <linearGradient id="_Linear6" x1="0" y1="0" x2="1" y2="-0.00285573" gradientUnits="userSpaceOnUse" gradientTransform="matrix(-0.443171,-6.68299,6.54572,-0.452465,21.49,23.5953)"><stop offset="0" style="stop-color:rgb(255,245,228);stop-opacity:0.92"/><stop offset="0.25" style="stop-color:rgb(255,236,208);stop-opacity:0.92"/><stop offset="0.5" style="stop-color:rgb(255,211,144);stop-opacity:0.92"/><stop offset="1" style="stop-color:rgb(255,196,106);stop-opacity:0.92"/></linearGradient>
        <linearGradient id="_Linear7" x1="0" y1="0" x2="1" y2="-0.0154314" gradientUnits="userSpaceOnUse" gradientTransform="matrix(-4.10629,-9.60707,9.40975,-4.1924,27.8546,20.8798)"><stop offset="0" style="stop-color:rgb(244,245,248);stop-opacity:1"/><stop offset="1" style="stop-color:rgb(253,253,254);stop-opacity:1"/></linearGradient>
        <linearGradient id="_Linear8" x1="0" y1="0" x2="1" y2="0" gradientUnits="userSpaceOnUse" gradientTransform="matrix(5.14251e-16,8.57448,-8.39836,5.25036e-16,19.2901,11.0322)"><stop offset="0" style="stop-color:rgb(255,135,135);stop-opacity:1"/><stop offset="1" style="stop-color:rgb(255,135,135);stop-opacity:0"/></linearGradient>
        <linearGradient id="_Linear9" x1="0" y1="0" x2="1" y2="-0.000727107" gradientUnits="userSpaceOnUse" gradientTransform="matrix(-0.152559,-9.07597,8.88955,-0.155759,21.087,20.086)"><stop offset="0" style="stop-color:white;stop-opacity:0"/><stop offset="1" style="stop-color:white;stop-opacity:1"/></linearGradient>
        <linearGradient id="_Linear10" x1="0" y1="0" x2="1" y2="-0.0128146" gradientUnits="userSpaceOnUse" gradientTransform="matrix(1.96568,0.708071,-0.693527,2.0069,14.4949,7.43415)"><stop offset="0" style="stop-color:rgb(240,224,199);stop-opacity:1"/><stop offset="0.25" style="stop-color:rgb(197,180,150);stop-opacity:1"/><stop offset="0.5" style="stop-color:rgb(155,126,86);stop-opacity:1"/><stop offset="0.75" style="stop-color:rgb(201,173,134);stop-opacity:1"/><stop offset="1" style="stop-color:rgb(228,204,171);stop-opacity:1"/></linearGradient>
        <linearGradient id="_Linear11" x1="0" y1="0" x2="1" y2="-0.00448306" gradientUnits="userSpaceOnUse" gradientTransform="matrix(-0.918445,-8.76008,8.58015,-0.937705,17.7153,17.1861)"><stop offset="0" style="stop-color:black;stop-opacity:1"/><stop offset="1" style="stop-color:rgb(244,240,219);stop-opacity:0"/></linearGradient>
        <linearGradient id="_Linear12" x1="0" y1="0" x2="1" y2="-0.00415686" gradientUnits="userSpaceOnUse" gradientTransform="matrix(1.15383,11.8889,-11.6447,1.17803,16.6948,-6.60249)"><stop offset="0" style="stop-color:rgb(244,240,219);stop-opacity:1"/><stop offset="1" style="stop-color:rgb(244,240,219);stop-opacity:0"/></linearGradient>
        <radialGradient id="_Radial13" cx="0" cy="0" r="1" gradientUnits="userSpaceOnUse" gradientTransform="matrix(-5.14599,11.01,-8.4244,-3.32822,11.0343,15.6831)"><stop offset="0" style="stop-color:rgb(190,165,127);stop-opacity:1"/><stop offset="0.5" style="stop-color:rgb(166,134,92);stop-opacity:1"/><stop offset="1" style="stop-color:rgb(216,172,110);stop-opacity:1"/></radialGradient>
        <linearGradient id="_Linear14" x1="0" y1="0" x2="1" y2="-0.342992" gradientUnits="userSpaceOnUse" gradientTransform="matrix(14.0862,1.34645,1.80998,10.6178,-0.113233,18.2688)"><stop offset="0" style="stop-color:rgb(220,192,161);stop-opacity:1"/><stop offset="1" style="stop-color:rgb(220,192,161);stop-opacity:0"/></linearGradient>
        <linearGradient id="_Linear15" x1="0" y1="0" x2="1" y2="-0.0274141" gradientUnits="userSpaceOnUse" gradientTransform="matrix(-8.39947,18.0846,-26.9721,-11.2332,14.1937,10.307)"><stop offset="0" style="stop-color:rgb(216,183,137);stop-opacity:1"/><stop offset="1" style="stop-color:rgb(177,127,58);stop-opacity:1"/></linearGradient>
        <linearGradient id="_Linear16" x1="0" y1="0" x2="1" y2="0.198727" gradientUnits="userSpaceOnUse" gradientTransform="matrix(0.930712,5.45982,-7.2433,-0.692358,14.8337,15.4384)"><stop offset="0" style="stop-color:rgb(194,162,126);stop-opacity:1"/><stop offset="1" style="stop-color:rgb(194,162,126);stop-opacity:0"/></linearGradient>
        <linearGradient id="_Linear17" x1="0" y1="0" x2="1" y2="-0.0206541" gradientUnits="userSpaceOnUse" gradientTransform="matrix(1.27793,1.47063,-1.44042,1.30472,10.656,14.3111)"><stop offset="0" style="stop-color:rgb(244,240,219);stop-opacity:1"/><stop offset="1" style="stop-color:rgb(244,240,219);stop-opacity:0"/></linearGradient>
        <linearGradient id="_Linear18" x1="0" y1="0" x2="1" y2="-0.00377477" gradientUnits="userSpaceOnUse" gradientTransform="matrix(3.22096,0.307879,-0.301555,3.2885,7.84666,19.3394)"><stop offset="0" style="stop-color:white;stop-opacity:1"/><stop offset="1" style="stop-color:white;stop-opacity:0"/></linearGradient>
        <linearGradient id="_Linear19" x1="0" y1="0" x2="1" y2="0" gradientUnits="userSpaceOnUse" gradientTransform="matrix(6.70189,0,0,6.84244,7.67791,19.2143)"><stop offset="0" style="stop-color:white;stop-opacity:1"/><stop offset="1" style="stop-color:white;stop-opacity:0"/></linearGradient>
        <linearGradient id="_Linear20" x1="0" y1="0" x2="1" y2="0" gradientUnits="userSpaceOnUse" gradientTransform="matrix(3.04688,0,0,3.11077,11.7797,14.0887)"><stop offset="0" style="stop-color:rgb(252,252,252);stop-opacity:1"/><stop offset="1" style="stop-color:rgb(252,252,252);stop-opacity:0"/></linearGradient>
        <linearGradient id="_Linear21" x1="0" y1="0" x2="1" y2="0" gradientUnits="userSpaceOnUse" gradientTransform="matrix(2.69788,0,0,2.75445,12.4223,12.5563)"><stop offset="0" style="stop-color:rgb(252,252,252);stop-opacity:1"/><stop offset="1" style="stop-color:rgb(252,252,252);stop-opacity:0"/></linearGradient>
    </defs>
</svg>
