<?xml version="1.0" encoding="UTF-8" standalone="no"?><!DOCTYPE svg PUBLIC "-//W3C//DTD SVG 1.1//EN" "http://www.w3.org/Graphics/SVG/1.1/DTD/svg11.dtd"><svg width="100%" height="100%" viewBox="0 0 306 345" version="1.1" xmlns="http://www.w3.org/2000/svg" xmlns:xlink="http://www.w3.org/1999/xlink" xml:space="preserve" xmlns:serif="http://www.serif.com/" style="fill-rule:evenodd;clip-rule:evenodd;stroke-linejoin:round;stroke-miterlimit:2;"><path d="M302.107,258.262c2.401,-4.159 3.893,-8.845 3.893,-13.053l0,-146.069c0,-4.208 -1.49,-8.893 -3.892,-13.052l-149.108,86.087l149.107,86.087Z" style="fill:#00599c;fill-rule:nonzero;"/><path d="M166.25,341.193l126.5,-73.034c3.644,-2.104 6.956,-5.737 9.357,-9.897l-149.107,-86.087l-149.107,86.088c2.401,4.159 5.714,7.793 9.357,9.896l126.5,73.034c7.287,4.208 19.213,4.208 26.5,-0Z" style="fill:#004482;fill-rule:nonzero;"/><path d="M302.108,86.087c-2.402,-4.16 -5.715,-7.793 -9.358,-9.897l-126.5,-73.034c-7.287,-4.208 -19.213,-4.208 -26.5,0l-126.5,73.034c-7.288,4.207 -13.25,14.535 -13.25,22.95l0,146.069c0,4.208 1.491,8.894 3.893,13.053l149.107,-86.087l149.108,-86.088Z" style="fill:#659ad2;fill-rule:nonzero;"/><g><path d="M153,274.175c-56.243,0 -102,-45.757 -102,-102c0,-56.243 45.757,-102 102,-102c36.292,0 70.139,19.53 88.331,50.968l-44.143,25.544c-9.105,-15.736 -26.038,-25.512 -44.188,-25.512c-28.122,0 -51,22.878 -51,51c0,28.121 22.878,51 51,51c18.152,0 35.085,-9.776 44.191,-25.515l44.143,25.543c-18.192,31.441 -52.04,50.972 -88.334,50.972Z" style="fill:#fff;fill-rule:nonzero;"/></g><g><path d="M255,166.508l-11.334,0l0,-11.333l-11.332,0l0,11.333l-11.334,0l0,11.333l11.334,0l0,11.334l11.332,0l0,-11.334l11.334,0l0,-11.333Z" style="fill:#fff;fill-rule:nonzero;"/></g><g><path d="M297.5,166.508l-11.334,0l0,-11.333l-11.332,0l0,11.333l-11.334,0l0,11.333l11.334,0l0,11.334l11.332,0l0,-11.334l11.334,0l0,-11.333Z" style="fill:#fff;fill-rule:nonzero;"/></g></svg>