<?xml version="1.0" encoding="UTF-8" standalone="no"?>
<!DOCTYPE svg PUBLIC "-//W3C//DTD SVG 1.1//EN" "http://www.w3.org/Graphics/SVG/1.1/DTD/svg11.dtd">
<svg width="30px" height="30px" version="1.1" xmlns="http://www.w3.org/2000/svg" xmlns:xlink="http://www.w3.org/1999/xlink" xml:space="preserve" xmlns:serif="http://www.serif.com/" style="fill-rule:evenodd;clip-rule:evenodd;stroke-linejoin:round;stroke-miterlimit:2;">
    <g id="Layer1">
        <path d="M29.618,7.5C29.383,7.138 29.058,6.821 28.701,6.638L16.299,0.275C15.585,-0.092 14.415,-0.092 13.701,0.275L1.299,6.638C0.585,7.004 0,7.904 0,8.637L0,21.363C0,21.729 0.146,22.138 0.382,22.5L15,15L29.618,7.5Z" style="fill:rgb(101,154,210);fill-rule:nonzero;"/>
        <path d="M16.299,29.725L28.701,23.362C29.058,23.179 29.383,22.862 29.618,22.5L15,15L0.382,22.5C0.617,22.862 0.942,23.179 1.299,23.362L13.701,29.725C14.415,30.092 15.585,30.092 16.299,29.725Z" style="fill:rgb(0,68,130);fill-rule:nonzero;"/>
        <path d="M29.618,22.5C29.854,22.138 30,21.729 30,21.363L30,8.637C30,8.271 29.854,7.862 29.618,7.5L15,15L29.618,22.5Z" style="fill:rgb(0,89,156);fill-rule:nonzero;"/>
    </g>
    <g>
        <path d="M15,23.886C9.486,23.886 5,19.9 5,15C5,10.1 9.486,6.114 15,6.114C18.558,6.114 21.876,7.815 23.66,10.554L19.332,12.78C18.44,11.409 16.779,10.557 15,10.557C12.243,10.557 10,12.55 10,15C10,17.45 12.243,19.443 15,19.443C16.78,19.443 18.44,18.592 19.332,17.22L23.66,19.446C21.877,22.185 18.558,23.886 15,23.886Z" style="fill:white;fill-rule:nonzero;"/>
    </g>
    <g>
        <path d="M25,14.506L23.889,14.506L23.889,13.519L22.778,13.519L22.778,14.506L21.667,14.506L21.667,15.494L22.778,15.494L22.778,16.481L23.889,16.481L23.889,15.494L25,15.494L25,14.506Z" style="fill:white;fill-rule:nonzero;"/>
        <path d="M29.167,14.506L28.055,14.506L28.055,13.519L26.945,13.519L26.945,14.506L25.833,14.506L25.833,15.494L26.945,15.494L26.945,16.481L28.055,16.481L28.055,15.494L29.167,15.494L29.167,14.506Z" style="fill:white;fill-rule:nonzero;"/>
    </g>
</svg>
