<?xml version="1.0" encoding="UTF-8" standalone="no"?>
<!DOCTYPE svg PUBLIC "-//W3C//DTD SVG 1.1//EN" "http://www.w3.org/Graphics/SVG/1.1/DTD/svg11.dtd">
<svg width="30px" height="30px" version="1.1" xmlns="http://www.w3.org/2000/svg" xmlns:xlink="http://www.w3.org/1999/xlink" xml:space="preserve" xmlns:serif="http://www.serif.com/" style="fill-rule:evenodd;clip-rule:evenodd;">
    <g id="Layer-1" serif:id="Layer 1">
        <path id="path3591" d="M7.48,14.084C6.639,14.084 6.191,14.518 5.956,15.197L4.784,18.947L4.179,24.084L4.784,24.084L4.784,28.205C4.784,29.041 5.467,29.709 6.308,29.709L23.281,29.709C24.121,29.709 24.804,29.041 24.804,28.205L24.804,24.084L25.429,24.084L24.804,18.947L23.593,15.275C23.298,14.381 22.715,14.084 21.874,14.084L7.48,14.084Z" style="fill:url(#_Linear1);fill-rule:nonzero;stroke:rgb(160,103,12);stroke-width:0.63px;"/>
        <path id="path6391" d="M24.179,19.025L23.007,15.47C22.892,15.12 22.751,14.964 22.597,14.865C22.443,14.765 22.221,14.709 21.874,14.709L7.48,14.709C7.167,14.709 7.002,14.784 6.874,14.884C6.747,14.985 6.633,15.13 6.542,15.392L5.39,19.103L5.39,19.142" style="fill:none;fill-rule:nonzero;stroke:url(#_Linear2);stroke-width:0.63px;"/>
        <path id="path3692" d="M7.48,15.021C7.221,15.021 7.138,15.065 7.07,15.119C7.001,15.172 6.913,15.286 6.835,15.509L5.82,18.771L23.749,18.771L22.714,15.626C22.584,15.302 22.49,15.198 22.402,15.138C22.313,15.079 22.177,15.021 21.874,15.021L7.48,15.021Z" style="fill:url(#_Linear3);fill-rule:nonzero;"/>
        <path id="path3696" d="M22.082,15.021C22.341,15.021 22.424,15.065 22.492,15.119C22.56,15.172 22.649,15.286 22.727,15.509L23.742,18.771L20.695,18.771L20.695,15.021L22.082,15.021Z" style="fill:url(#_Linear4);fill-rule:nonzero;"/>
        <g id="g6432">
            <path id="path7233" d="M20.674,11.436C19.611,11.146 18.953,10.14 19.212,9.165L20.478,4.387C20.737,3.412 21.803,2.875 22.866,3.164L23.243,3.267C24.305,3.556 24.977,4.565 24.718,5.541L23.452,10.32C23.193,11.296 22.113,11.828 21.05,11.538L20.674,11.436Z" style="fill:url(#_Linear5);fill-rule:nonzero;stroke:rgb(32,74,135);stroke-width:0.62px;stroke-linecap:round;stroke-linejoin:round;"/>
            <path id="path7239" d="M20.824,10.858C20.063,10.65 19.58,9.964 19.751,9.321L21.027,4.5C21.198,3.857 21.954,3.51 22.715,3.718L23.091,3.821C23.853,4.029 24.335,4.714 24.165,5.358L22.888,10.178C22.717,10.822 21.962,11.169 21.2,10.961L20.824,10.858Z" style="fill:none;fill-rule:nonzero;stroke:url(#_Linear6);stroke-width:0.62px;stroke-linecap:round;stroke-linejoin:round;"/>
            <path id="path7207" d="M17.394,22.022C17.396,22.018 17.397,22.013 17.398,22.008L20.44,10.653C20.648,10.029 21.831,10.301 21.725,10.997L18.7,22.342C18.698,22.347 18.696,22.351 18.696,22.356L17.394,22.022Z" style="fill:url(#_Linear7);fill-rule:nonzero;stroke:rgb(136,138,133);stroke-width:0.63px;stroke-linecap:round;stroke-linejoin:round;"/>
            <path id="rect2804" d="M20.539,9.124L21.789,4.377L21.155,4.204L19.905,8.952L20.539,9.124Z" style="fill:url(#_Linear8);"/>
            <path id="rect5290" d="M21.868,9.525L23.15,4.668L22.278,4.429L20.995,9.286L21.868,9.525Z" style="fill:url(#_Linear9);"/>
            <path id="rect5398" d="M22.954,9.772L24.205,5.024L23.571,4.852L22.321,9.599L22.954,9.772Z" style="fill:url(#_Linear10);"/>
        </g>
        <g id="g6718">
            <g id="g6720">
                <path id="path6722" d="M8.791,2.992C10.111,3.194 11.257,4.153 11.624,5.525C11.968,6.808 11.539,8.117 10.63,8.964L13.678,20.795C13.91,21.661 13.399,22.545 12.533,22.778C11.667,23.01 10.782,22.499 10.55,21.633L7.503,9.802C6.292,9.522 5.266,8.603 4.922,7.321C4.555,5.949 5.068,4.545 6.11,3.71L6.821,6.363L7.828,7.051L8.973,6.744L9.502,5.645L8.791,2.992Z" style="fill:url(#_Linear11);fill-rule:nonzero;stroke:url(#_Linear12);stroke-width:0.63px;stroke-linecap:round;stroke-linejoin:round;"/>
                <path id="path6724" d="M9.771,4.08C10.344,4.442 10.793,4.992 10.983,5.7C11.263,6.745 10.926,7.799 10.188,8.487C10.004,8.651 9.926,8.901 9.989,9.139L13.035,20.963C13.177,21.494 12.891,21.989 12.36,22.132C11.829,22.274 11.334,21.988 11.192,21.457L8.146,9.633C8.081,9.395 7.889,9.217 7.647,9.168C6.664,8.941 5.846,8.197 5.566,7.152C5.376,6.444 5.49,5.743 5.805,5.142L6.179,6.539C6.221,6.688 6.313,6.816 6.442,6.902L7.449,7.59C7.607,7.704 7.812,7.746 8.001,7.697L9.146,7.39C9.334,7.338 9.491,7.2 9.571,7.021L10.1,5.922C10.168,5.783 10.183,5.627 10.145,5.476L9.771,4.08Z" style="fill:none;fill-rule:nonzero;stroke:url(#_Linear13);stroke-width:0.63px;stroke-linecap:round;"/>
                <path id="path6728" d="M9.542,10.668C9.828,10.591 10.105,10.757 10.183,11.05L12.624,20.17C12.702,20.463 12.545,20.745 12.259,20.822L12.022,20.885C11.736,20.962 11.444,20.794 11.367,20.507L8.927,11.387C8.85,11.1 9.02,10.808 9.305,10.732L9.542,10.668Z" style="fill:url(#_Linear14);fill-rule:nonzero;"/>
            </g>
            <path id="path6730" d="M5.836,5.043L6.228,6.589C6.261,6.705 6.334,6.806 6.434,6.874L7.525,7.618C7.648,7.707 7.804,7.737 7.951,7.699L9.19,7.366C9.337,7.326 9.458,7.222 9.52,7.084L10.092,5.894C10.145,5.785 10.158,5.661 10.128,5.544L9.736,3.998" style="fill:none;fill-rule:nonzero;stroke:url(#_Linear15);stroke-width:0.62px;stroke-linecap:round;"/>
            <path id="path6732" d="M5.739,4.98C5.778,4.912 5.835,4.858 5.879,4.794L6.334,6.492C6.36,6.591 6.413,6.709 6.518,6.781L7.519,7.476C7.647,7.566 7.801,7.592 7.961,7.548L8.527,7.407C8.446,7.727 8.369,8.059 8.264,8.324C8.119,8.69 7.897,8.998 7.502,9.269C6.528,8.997 5.7,8.231 5.419,7.182C5.21,6.404 5.361,5.63 5.739,4.98ZM9.538,3.835C9.913,4.015 10.24,4.262 10.51,4.579C10.268,4.731 10.044,4.88 9.86,5.039L9.538,3.835Z" style="fill:url(#_Linear16);fill-rule:nonzero;"/>
        </g>
        <g id="g6367">
            <path id="path2978" d="M12.616,11.402C12.311,11.414 12.009,11.46 11.718,11.519L11.699,11.519C11.48,11.564 11.262,11.626 11.054,11.695C10.753,11.795 10.471,11.918 10.195,12.066L10.605,14.019C10.307,14.24 10.027,14.497 9.804,14.8L7.87,14.41C7.71,14.712 7.564,15.015 7.46,15.347C7.317,15.809 7.226,16.308 7.206,16.812L9.12,17.457C9.164,17.827 9.247,18.194 9.394,18.531L8.066,20.015C8.239,20.291 8.434,20.556 8.652,20.796L9.042,21.167C9.285,21.39 9.545,21.596 9.824,21.773L11.308,20.445C11.486,20.524 11.66,20.588 11.855,20.64C12.039,20.69 12.237,20.737 12.421,20.757L13.046,22.652C13.351,22.64 13.654,22.593 13.945,22.535L13.964,22.535C14.183,22.49 14.4,22.428 14.609,22.359C14.91,22.259 15.192,22.135 15.468,21.988L15.058,20.035C15.356,19.814 15.635,19.556 15.859,19.253L17.792,19.644C17.953,19.341 18.099,19.039 18.202,18.707C18.346,18.245 18.437,17.746 18.456,17.242L16.542,16.597C16.499,16.227 16.416,15.859 16.269,15.523L17.597,14.039C17.423,13.763 17.228,13.498 17.011,13.257L16.62,12.886C16.378,12.664 16.118,12.458 15.839,12.281L14.355,13.609C14.176,13.529 14.003,13.466 13.808,13.414C13.624,13.364 13.425,13.317 13.241,13.296L12.616,11.402ZM12.695,15.777C12.766,15.769 12.837,15.773 12.909,15.777C12.992,15.782 13.08,15.794 13.163,15.816C13.83,15.995 14.221,16.692 14.042,17.359C13.864,18.025 13.166,18.416 12.499,18.238C11.833,18.059 11.442,17.361 11.62,16.695C11.757,16.185 12.198,15.832 12.695,15.777Z" style="fill:url(#_Linear17);fill-rule:nonzero;stroke:rgb(46,52,54);stroke-width:0.63px;stroke-linecap:round;"/>
            <path id="path2995" d="M12.187,12.007L10.878,12.378L11.406,14.898C11.441,15.093 11.378,15.293 11.238,15.433C11.098,15.573 10.898,15.636 10.702,15.601L8.163,15.074L7.792,16.382L10.273,17.203C10.465,17.269 10.611,17.426 10.662,17.623C10.713,17.819 10.662,18.028 10.527,18.179L8.827,20.093L9.745,21.031L11.679,19.312C11.83,19.177 12.039,19.126 12.235,19.177C12.432,19.228 12.589,19.374 12.656,19.566L13.476,22.046L14.784,21.675L14.257,19.156C14.222,18.961 14.285,18.761 14.425,18.62C14.565,18.48 14.765,18.418 14.96,18.453L17.499,18.98L17.87,17.671L15.39,16.851C15.198,16.785 15.052,16.627 15.001,16.431C14.95,16.235 15.001,16.026 15.136,15.875L16.835,13.96L15.917,13.023L13.984,14.742C13.833,14.877 13.624,14.928 13.427,14.877C13.231,14.826 13.073,14.68 13.007,14.488L12.187,12.007Z" style="fill:none;fill-rule:nonzero;stroke:url(#_Linear18);stroke-width:0.63px;stroke-linecap:round;"/>
            <path id="path2999" d="M12.382,11.617L10.507,12.164L11.093,14.957C11.11,15.051 11.083,15.142 11.015,15.21C10.947,15.279 10.856,15.306 10.761,15.289L7.949,14.703L7.402,16.578L10.175,17.496C10.268,17.528 10.326,17.615 10.351,17.71C10.376,17.806 10.358,17.891 10.292,17.964L8.398,20.113L9.726,21.46L11.894,19.546C11.967,19.481 12.052,19.463 12.148,19.488C12.243,19.513 12.33,19.57 12.363,19.664L13.281,22.437L15.156,21.89L14.57,19.097C14.553,19.002 14.58,18.911 14.648,18.843C14.716,18.775 14.807,18.748 14.902,18.765L17.714,19.351L18.261,17.476L15.488,16.558C15.394,16.526 15.337,16.439 15.312,16.343C15.287,16.248 15.305,16.163 15.37,16.089L17.265,13.941L15.937,12.593L13.769,14.507C13.695,14.573 13.61,14.591 13.515,14.566C13.42,14.541 13.332,14.483 13.3,14.39L12.382,11.617ZM12.831,15.152C13.866,15.152 14.706,15.992 14.706,17.027C14.706,18.062 13.866,18.902 12.831,18.902C11.796,18.902 10.956,18.062 10.956,17.027C10.956,15.992 11.796,15.152 12.831,15.152Z" style="fill:url(#_Radial19);fill-rule:nonzero;"/>
            <path id="path3002" d="M12.831,13.589C10.934,13.589 9.394,15.129 9.394,17.027C9.394,18.924 10.934,20.464 12.831,20.464C14.729,20.464 16.269,18.924 16.269,17.027C16.269,15.129 14.729,13.589 12.831,13.589ZM12.831,15.464C13.694,15.464 14.394,16.164 14.394,17.027C14.394,17.889 13.694,18.589 12.831,18.589C11.969,18.589 11.269,17.889 11.269,17.027C11.269,16.164 11.969,15.464 12.831,15.464Z" style="fill:url(#_Linear20);fill-rule:nonzero;"/>
            <path id="path3033" d="M14.706,17.027C14.706,18.055 13.86,18.902 12.831,18.902C11.803,18.902 10.956,18.055 10.956,17.027C10.956,15.998 11.803,15.152 12.831,15.152C13.86,15.152 14.706,15.998 14.706,17.027Z" style="fill:none;fill-rule:nonzero;stroke:url(#_Linear21);stroke-width:0.63px;stroke-linecap:round;"/>
            <path id="path3037" d="M15.956,17.027C15.956,15.313 14.546,13.902 12.831,13.902C11.117,13.902 9.706,15.313 9.706,17.027C9.706,18.741 11.117,20.152 12.831,20.152C14.546,20.152 15.956,18.741 15.956,17.027Z" style="fill:none;fill-rule:nonzero;stroke:url(#_Linear22);stroke-width:0.63px;stroke-linecap:round;"/>
        </g>
        <path id="path3694" d="M7.48,15.021C7.221,15.021 7.138,15.065 7.07,15.119C7.001,15.172 6.913,15.286 6.835,15.509L5.82,18.771L8.866,18.771L8.866,15.021L7.48,15.021Z" style="fill:url(#_Linear23);fill-rule:nonzero;"/>
        <g id="g6679">
            <path id="path6638" d="M2.67,7.214L3.66,9.246L3.667,9.259L3.649,10.154C3.651,10.158 3.653,10.163 3.656,10.166L9.534,20.347C9.829,20.935 8.8,21.579 8.383,21.012L2.499,10.851C2.498,10.846 2.496,10.842 2.492,10.838L1.795,10.556L1.788,10.544L0.429,8.508C0.477,8.48 2.621,7.242 2.67,7.214Z" style="fill:url(#_Linear24);fill-rule:nonzero;stroke:rgb(136,138,133);stroke-width:0.63px;stroke-linecap:round;stroke-linejoin:round;"/>
            <path id="path6646" d="M2.583,7.498L3.455,9.297L3.448,10.153C3.449,10.193 3.46,10.233 3.481,10.267L2.675,10.75C2.651,10.704 2.612,10.667 2.565,10.646L1.92,10.368L0.718,8.575C1.032,8.393 2.269,7.679 2.583,7.498Z" style="fill:url(#_Linear25);fill-rule:nonzero;"/>
        </g>
        <g id="g6739">
            <g id="g6553">
                <path id="path6491" d="M29.437,11.868C29.923,13.112 29.665,14.585 28.661,15.589C27.722,16.528 26.373,16.811 25.185,16.447L19.527,22.106C18.893,22.74 17.872,22.74 17.237,22.106C16.603,21.472 16.603,20.451 17.237,19.816L22.896,14.158C22.532,12.97 22.815,11.622 23.754,10.683C24.759,9.679 26.231,9.421 27.475,9.906L25.533,11.848L25.441,13.064L26.279,13.902L27.495,13.81L29.437,11.868Z" style="fill:url(#_Linear26);fill-rule:nonzero;stroke:url(#_Linear27);stroke-width:0.63px;stroke-linecap:round;stroke-linejoin:round;"/>
                <path id="path7219" d="M28.985,13.261C28.958,13.939 28.706,14.603 28.188,15.121C27.423,15.886 26.342,16.122 25.377,15.826C25.143,15.748 24.888,15.806 24.713,15.98L19.059,21.633C18.67,22.022 18.099,22.022 17.71,21.633C17.321,21.244 17.321,20.673 17.71,20.284L23.363,14.631C23.537,14.456 23.595,14.2 23.517,13.966C23.222,13.002 23.457,11.92 24.222,11.155C24.74,10.637 25.405,10.385 26.082,10.358L25.06,11.38C24.952,11.491 24.887,11.634 24.876,11.789L24.784,13.005C24.764,13.2 24.831,13.398 24.968,13.537L25.806,14.375C25.945,14.512 26.144,14.579 26.338,14.559L27.554,14.467C27.709,14.456 27.852,14.392 27.963,14.283L28.985,13.261Z" style="fill:none;fill-rule:nonzero;stroke:url(#_Linear28);stroke-width:0.63px;stroke-linecap:round;"/>
                <path id="path7213" d="M23.165,16.357C23.375,16.566 23.37,16.889 23.155,17.103L18.352,21.902C18.138,22.116 17.815,22.121 17.606,21.912L17.432,21.738C17.223,21.529 17.222,21.192 17.432,20.982L22.235,16.184C22.445,15.974 22.782,15.975 22.992,16.184L23.165,16.357Z" style="fill:url(#_Linear29);fill-rule:nonzero;"/>
            </g>
            <path id="path6573" d="M26.184,10.335L25.041,11.448C24.956,11.534 24.905,11.648 24.897,11.769L24.798,13.085C24.782,13.236 24.835,13.386 24.941,13.495L25.849,14.402C25.957,14.509 26.107,14.561 26.258,14.546L27.575,14.446C27.695,14.438 27.809,14.387 27.896,14.302L29.038,13.19" style="fill:none;fill-rule:nonzero;stroke:url(#_Linear30);stroke-width:0.62px;stroke-linecap:round;"/>
            <path id="path7227" d="M26.19,10.219C26.268,10.219 26.343,10.242 26.421,10.248L25.178,11.491C25.105,11.563 25.029,11.667 25.019,11.795L24.918,13.009C24.904,13.165 24.958,13.311 25.077,13.428L25.482,13.847C25.164,13.937 24.838,14.037 24.557,14.078C24.167,14.135 23.789,14.097 23.357,13.891C23.106,12.912 23.355,11.811 24.123,11.043C24.692,10.473 25.437,10.217 26.19,10.219ZM29.081,12.937C29.112,13.352 29.062,13.758 28.922,14.151C28.67,14.018 28.429,13.898 28.199,13.818L29.081,12.937Z" style="fill:url(#_Linear31);fill-rule:nonzero;"/>
        </g>
        <path id="path3651" d="M5.038,19.085L4.511,23.771L25.097,23.771L24.55,19.085L5.038,19.085Z" style="fill:url(#_Linear32);fill-rule:nonzero;"/>
        <path id="path3606" d="M5.39,19.103L5.39,19.142L4.882,23.478C5.181,23.525 5.404,23.781 5.409,24.084L5.409,28.205C5.409,28.701 5.798,29.084 6.308,29.084L23.281,29.084C23.791,29.084 24.179,28.701 24.179,28.205L24.179,24.084C24.177,23.767 24.412,23.498 24.726,23.459L24.179,19.025" style="fill:none;fill-rule:nonzero;stroke:url(#_Linear33);stroke-width:0.63px;"/>
        <rect id="rect3610" x="4.491" y="23.146" width="20.625" height="0.625" style="fill:white;fill-opacity:0.69;"/>
        <path id="path3678" d="M5.097,23.771L5.097,28.205C5.097,28.871 5.632,29.396 6.308,29.396L23.281,29.396C23.956,29.396 24.491,28.871 24.491,28.205L24.491,23.771L5.097,23.771Z" style="fill:url(#_Linear34);fill-rule:nonzero;"/>
        <rect id="rect3600" x="4.491" y="23.771" width="20.664" height="0.625" style="fill:rgb(160,103,12);"/>
        <rect id="rect3728" x="5.116" y="18.771" width="19.375" height="0.68" style="fill:rgb(252,243,230);"/>
        <path id="path6754" d="M7.48,15.021C7.221,15.021 7.138,15.065 7.07,15.119C7.001,15.172 6.913,15.286 6.835,15.509L5.82,18.771L23.749,18.771L22.714,15.626C22.584,15.302 22.49,15.198 22.402,15.138C22.313,15.079 22.177,15.021 21.874,15.021L7.48,15.021Z" style="fill:url(#_Linear35);fill-rule:nonzero;"/>
        <rect id="outer" x="0" y="0" width="30" height="30" style="fill:none;"/>
        <path d="M11.5,21.726C11.5,22.35 10.998,23.009 9.996,23.702C9.088,24.303 8.61,25.18 8.562,26.331L8.174,26.331C8.1,25.115 8.491,24.109 9.346,23.314C9.996,22.685 10.315,22.156 10.304,21.726C10.304,21.171 10.059,20.737 9.568,20.422C9.225,20.205 8.832,20.096 8.388,20.096C7.792,20.152 7.359,20.311 7.09,20.575C6.773,20.866 6.696,21.104 6.86,21.289C7.045,21.446 7.137,21.61 7.137,21.781C7.126,22.013 7.034,22.198 6.86,22.336C6.649,22.47 6.446,22.537 6.25,22.537C5.865,22.537 5.593,22.341 5.435,21.948C5.382,21.814 5.355,21.698 5.355,21.601C5.355,21.083 5.635,20.642 6.195,20.277C6.781,19.897 7.512,19.708 8.388,19.708C9.37,19.708 10.162,19.937 10.764,20.394C11.254,20.774 11.5,21.217 11.5,21.726M9.33,28.058C9.309,28.455 9.122,28.716 8.768,28.841C8.641,28.887 8.504,28.91 8.356,28.91C7.902,28.91 7.602,28.737 7.454,28.39C7.406,28.284 7.382,28.171 7.383,28.058C7.383,27.701 7.533,27.456 7.834,27.322C7.982,27.258 8.156,27.225 8.356,27.225C8.916,27.225 9.235,27.454 9.315,27.912C9.32,27.958 9.325,28.007 9.33,28.058" style="fill:rgb(0,8,153);fill-opacity:0.86;fill-rule:nonzero;"/>
        <path d="M18,21.726C18,22.35 17.498,23.009 16.496,23.702C15.588,24.303 15.11,25.18 15.062,26.331L14.674,26.331C14.6,25.115 14.991,24.109 15.846,23.314C16.496,22.685 16.815,22.156 16.804,21.726C16.804,21.171 16.559,20.737 16.068,20.422C15.725,20.205 15.332,20.096 14.888,20.096C14.292,20.152 13.859,20.311 13.59,20.575C13.273,20.866 13.196,21.104 13.36,21.289C13.545,21.446 13.637,21.61 13.637,21.781C13.626,22.013 13.534,22.198 13.36,22.336C13.149,22.47 12.946,22.537 12.75,22.537C12.365,22.537 12.093,22.341 11.935,21.948C11.882,21.814 11.855,21.698 11.855,21.601C11.855,21.083 12.135,20.642 12.695,20.277C13.281,19.897 14.012,19.708 14.888,19.708C15.87,19.708 16.662,19.937 17.264,20.394C17.754,20.774 18,21.217 18,21.726M15.83,28.058C15.809,28.455 15.622,28.716 15.268,28.841C15.141,28.887 15.004,28.91 14.856,28.91C14.402,28.91 14.102,28.737 13.954,28.39C13.906,28.284 13.882,28.171 13.883,28.058C13.883,27.701 14.033,27.456 14.334,27.322C14.482,27.258 14.656,27.225 14.856,27.225C15.416,27.225 15.735,27.454 15.815,27.912C15.82,27.958 15.825,28.007 15.83,28.058" style="fill:rgb(0,8,153);fill-opacity:0.86;fill-rule:nonzero;"/>
        <path d="M24.645,21.726C24.645,22.35 24.143,23.009 23.14,23.702C22.232,24.303 21.754,25.18 21.707,26.331L21.319,26.331C21.245,25.115 21.636,24.109 22.491,23.314C23.14,22.685 23.459,22.156 23.449,21.726C23.449,21.171 23.203,20.737 22.712,20.422C22.369,20.205 21.976,20.096 21.533,20.096C20.936,20.152 20.503,20.311 20.234,20.575C19.917,20.866 19.841,21.104 20.004,21.289C20.189,21.446 20.282,21.61 20.282,21.781C20.271,22.013 20.179,22.198 20.004,22.336C19.793,22.47 19.59,22.537 19.395,22.537C19.009,22.537 18.738,22.341 18.579,21.948C18.526,21.814 18.5,21.698 18.5,21.601C18.5,21.083 18.78,20.642 19.339,20.277C19.925,19.897 20.656,19.708 21.533,19.708C22.515,19.708 23.306,19.937 23.908,20.394C24.399,20.774 24.644,21.217 24.644,21.726M22.475,28.058C22.454,28.455 22.266,28.716 21.913,28.841C21.786,28.887 21.649,28.91 21.501,28.91C21.047,28.91 20.746,28.737 20.598,28.39C20.551,28.284 20.527,28.171 20.527,28.058C20.527,27.701 20.678,27.456 20.978,27.322C21.126,27.258 21.3,27.225 21.501,27.225C22.061,27.225 22.38,27.454 22.459,27.912C22.464,27.958 22.47,28.007 22.475,28.058" style="fill:rgb(0,8,153);fill-opacity:0.86;fill-rule:nonzero;"/>
    </g>
    <defs>
        <linearGradient id="_Linear1" x1="0" y1="0" x2="1" y2="0" gradientUnits="userSpaceOnUse" gradientTransform="matrix(8.9061e-16,-14.5448,14.5448,8.9061e-16,10.9902,21.9174)"><stop offset="0" style="stop-color:rgb(234,186,111);stop-opacity:1"/><stop offset="1" style="stop-color:rgb(185,122,27);stop-opacity:1"/></linearGradient>
        <linearGradient id="_Linear2" x1="0" y1="0" x2="1" y2="0" gradientUnits="userSpaceOnUse" gradientTransform="matrix(1.40625,8.98438,-8.98438,1.40625,5.27273,24.2398)"><stop offset="0" style="stop-color:white;stop-opacity:0.69"/><stop offset="1" style="stop-color:white;stop-opacity:0"/></linearGradient>
        <linearGradient id="_Linear3" x1="0" y1="0" x2="1" y2="0" gradientUnits="userSpaceOnUse" gradientTransform="matrix(1.56134e-16,2.54986,-2.54986,1.56134e-16,13.9837,15.646)"><stop offset="0" style="stop-color:rgb(233,185,110);stop-opacity:0.6"/><stop offset="1" style="stop-color:rgb(233,185,110);stop-opacity:0"/></linearGradient>
        <linearGradient id="_Linear4" x1="0" y1="0" x2="1" y2="0" gradientUnits="userSpaceOnUse" gradientTransform="matrix(-1.27746,1.56444e-16,-1.56444e-16,-1.27746,22.4927,19.6694)"><stop offset="0" style="stop-color:rgb(233,185,110);stop-opacity:0.67"/><stop offset="1" style="stop-color:rgb(233,185,110);stop-opacity:0"/></linearGradient>
        <linearGradient id="_Linear5" x1="0" y1="0" x2="1" y2="0.00679003" gradientUnits="userSpaceOnUse" gradientTransform="matrix(3.53966,0.94845,0.924444,-3.54622,20.9256,7.29959)"><stop offset="0" style="stop-color:rgb(114,159,207);stop-opacity:1"/><stop offset="1" style="stop-color:rgb(41,94,173);stop-opacity:1"/></linearGradient>
        <linearGradient id="_Linear6" x1="0" y1="0" x2="1" y2="0.00186773" gradientUnits="userSpaceOnUse" gradientTransform="matrix(3.77905,5.08323,5.03714,-3.7593,22.2296,4.66488)"><stop offset="0" style="stop-color:white;stop-opacity:0.5"/><stop offset="1" style="stop-color:white;stop-opacity:0"/></linearGradient>
        <linearGradient id="_Linear7" x1="0" y1="0" x2="1" y2="0" gradientUnits="userSpaceOnUse" gradientTransform="matrix(0.88573,0.237331,0.237331,-0.88573,19.7615,14.3233)"><stop offset="0" style="stop-color:rgb(238,238,236);stop-opacity:1"/><stop offset="1" style="stop-color:rgb(162,162,152);stop-opacity:1"/></linearGradient>
        <linearGradient id="_Linear8" x1="0" y1="0" x2="1" y2="0.00837369" gradientUnits="userSpaceOnUse" gradientTransform="matrix(-0.781839,-0.12252,-0.116175,0.784317,21.0994,7.60896)"><stop offset="0" style="stop-color:white;stop-opacity:0.3"/><stop offset="1" style="stop-color:white;stop-opacity:0.09"/></linearGradient>
        <linearGradient id="_Linear9" x1="0" y1="0" x2="1" y2="0.00872955" gradientUnits="userSpaceOnUse" gradientTransform="matrix(0.422543,0.115541,0.111848,-0.423536,21.8985,6.80712)"><stop offset="0" style="stop-color:rgb(12,29,53);stop-opacity:0.3"/><stop offset="1" style="stop-color:white;stop-opacity:0.09"/></linearGradient>
        <linearGradient id="_Linear10" x1="0" y1="0" x2="1" y2="0.00859788" gradientUnits="userSpaceOnUse" gradientTransform="matrix(0.893941,0.239531,0.231853,-0.896034,23.0356,7.27792)"><stop offset="0" style="stop-color:black;stop-opacity:0.25"/><stop offset="1" style="stop-color:black;stop-opacity:0"/></linearGradient>
        <linearGradient id="_Linear11" x1="0" y1="0" x2="1" y2="0" gradientUnits="userSpaceOnUse" gradientTransform="matrix(8.34769,0.99561,0.99561,-8.34769,5.8555,11.2495)"><stop offset="0" style="stop-color:rgb(211,215,207);stop-opacity:1"/><stop offset="1" style="stop-color:rgb(238,238,236);stop-opacity:1"/></linearGradient>
        <linearGradient id="_Linear12" x1="0" y1="0" x2="1" y2="0" gradientUnits="userSpaceOnUse" gradientTransform="matrix(9.90119,5.76424,5.76424,-9.90119,6.64249,14.207)"><stop offset="0" style="stop-color:rgb(136,138,133);stop-opacity:1"/><stop offset="1" style="stop-color:rgb(85,87,83);stop-opacity:1"/></linearGradient>
        <linearGradient id="_Linear13" x1="0" y1="0" x2="1" y2="0" gradientUnits="userSpaceOnUse" gradientTransform="matrix(14.426,1.73531,1.73531,-14.426,6.8554,7.1465)"><stop offset="0" style="stop-color:white;stop-opacity:1"/><stop offset="1" style="stop-color:white;stop-opacity:0"/></linearGradient>
        <linearGradient id="_Linear14" x1="0" y1="0" x2="1" y2="-0.000262511" gradientUnits="userSpaceOnUse" gradientTransform="matrix(3.67039,1.33729,1.33922,-3.67269,9.71101,15.7823)"><stop offset="0" style="stop-color:rgb(46,52,54);stop-opacity:0.23"/><stop offset="1" style="stop-color:rgb(114,159,207);stop-opacity:0.23"/></linearGradient>
        <linearGradient id="_Linear15" x1="0" y1="0" x2="1" y2="0" gradientUnits="userSpaceOnUse" gradientTransform="matrix(-2.35501,-3.71051,-3.71051,2.35501,8.73328,7.53217)"><stop offset="0" style="stop-color:white;stop-opacity:1"/><stop offset="1" style="stop-color:white;stop-opacity:0"/></linearGradient>
        <linearGradient id="_Linear16" x1="0" y1="0" x2="1" y2="0" gradientUnits="userSpaceOnUse" gradientTransform="matrix(-3.98253,-2.29931,-2.29931,3.98253,8.60739,8.6554)"><stop offset="0" style="stop-color:white;stop-opacity:0.59"/><stop offset="1" style="stop-color:white;stop-opacity:0"/></linearGradient>
        <linearGradient id="_Linear17" x1="0" y1="0" x2="1" y2="0" gradientUnits="userSpaceOnUse" gradientTransform="matrix(7.65112,7.92733,-7.92733,7.65112,9.70362,14.1396)"><stop offset="0" style="stop-color:rgb(211,215,207);stop-opacity:1"/><stop offset="1" style="stop-color:rgb(136,138,133);stop-opacity:1"/></linearGradient>
        <linearGradient id="_Linear18" x1="0" y1="0" x2="1" y2="0" gradientUnits="userSpaceOnUse" gradientTransform="matrix(10.0391,8.125,-8.125,10.0391,9.62819,14.8784)"><stop offset="0" style="stop-color:white;stop-opacity:1"/><stop offset="1" style="stop-color:white;stop-opacity:0"/></linearGradient>
        <radialGradient id="_Radial19" cx="0" cy="0" r="1" gradientUnits="userSpaceOnUse" gradientTransform="matrix(5.42969,0,0,5.41016,12.8313,17.0269)"><stop offset="0" style="stop-color:black;stop-opacity:0.94"/><stop offset="1" style="stop-color:black;stop-opacity:0"/></radialGradient>
        <linearGradient id="_Linear20" x1="0" y1="0" x2="1" y2="0" gradientUnits="userSpaceOnUse" gradientTransform="matrix(3.28694,4.03272,-4.03272,3.28694,11.1399,14.6368)"><stop offset="0" style="stop-color:rgb(136,138,133);stop-opacity:1"/><stop offset="1" style="stop-color:rgb(211,215,207);stop-opacity:1"/></linearGradient>
        <linearGradient id="_Linear21" x1="0" y1="0" x2="1" y2="0" gradientUnits="userSpaceOnUse" gradientTransform="matrix(-1.99219,-3.51562,3.51561,-1.99219,13.5735,18.355)"><stop offset="0" style="stop-color:rgb(238,238,236);stop-opacity:1"/><stop offset="1" style="stop-color:rgb(238,238,236);stop-opacity:0"/></linearGradient>
        <linearGradient id="_Linear22" x1="0" y1="0" x2="1" y2="3.15783e-06" gradientUnits="userSpaceOnUse" gradientTransform="matrix(5.31249,5.50782,5.5078,-5.31251,10.9563,14.9566)"><stop offset="0" style="stop-color:rgb(238,238,236);stop-opacity:1"/><stop offset="1" style="stop-color:rgb(238,238,236);stop-opacity:0"/></linearGradient>
        <linearGradient id="_Linear23" x1="0" y1="0" x2="1" y2="0" gradientUnits="userSpaceOnUse" gradientTransform="matrix(0.850232,0,0,0.850232,6.8347,19.7085)"><stop offset="0" style="stop-color:rgb(143,89,2);stop-opacity:0.6"/><stop offset="1" style="stop-color:rgb(143,89,2);stop-opacity:0"/></linearGradient>
        <linearGradient id="_Linear24" x1="0" y1="0" x2="1" y2="0" gradientUnits="userSpaceOnUse" gradientTransform="matrix(-0.794123,0.458487,-0.458487,-0.794123,7.41903,17.2719)"><stop offset="0" style="stop-color:rgb(238,238,236);stop-opacity:1"/><stop offset="1" style="stop-color:rgb(186,189,182);stop-opacity:1"/></linearGradient>
        <linearGradient id="_Linear25" x1="0" y1="0" x2="1" y2="0" gradientUnits="userSpaceOnUse" gradientTransform="matrix(1.26257,2.18684,-2.18684,1.26257,2.0644,8.18922)"><stop offset="0" style="stop-color:rgb(238,238,236);stop-opacity:1"/><stop offset="1" style="stop-color:rgb(238,238,236);stop-opacity:0"/></linearGradient>
        <linearGradient id="_Linear26" x1="0" y1="0" x2="1" y2="0" gradientUnits="userSpaceOnUse" gradientTransform="matrix(3.31162,7.72712,7.72712,-3.31162,20.8184,13.4552)"><stop offset="0" style="stop-color:rgb(211,215,207);stop-opacity:1"/><stop offset="1" style="stop-color:rgb(238,238,236);stop-opacity:1"/></linearGradient>
        <linearGradient id="_Linear27" x1="0" y1="0" x2="1" y2="0" gradientUnits="userSpaceOnUse" gradientTransform="matrix(-0.041382,11.4568,11.4568,0.041382,18.6506,15.6155)"><stop offset="0" style="stop-color:rgb(136,138,133);stop-opacity:1"/><stop offset="1" style="stop-color:rgb(85,87,83);stop-opacity:1"/></linearGradient>
        <linearGradient id="_Linear28" x1="0" y1="0" x2="1" y2="0" gradientUnits="userSpaceOnUse" gradientTransform="matrix(5.71019,13.361,13.361,-5.71019,24.8716,12.2697)"><stop offset="0" style="stop-color:white;stop-opacity:1"/><stop offset="1" style="stop-color:white;stop-opacity:0"/></linearGradient>
        <linearGradient id="_Linear29" x1="0" y1="0" x2="1" y2="-0.000262511" gradientUnits="userSpaceOnUse" gradientTransform="matrix(0.67707,3.84729,3.85026,-0.676549,18.8206,19.0606)"><stop offset="0" style="stop-color:rgb(46,52,54);stop-opacity:0.23"/><stop offset="1" style="stop-color:rgb(114,159,207);stop-opacity:0.23"/></linearGradient>
        <linearGradient id="_Linear30" x1="0" y1="0" x2="1" y2="0" gradientUnits="userSpaceOnUse" gradientTransform="matrix(2.03589,-3.89475,-3.89475,-2.03589,25.4766,14.0888)"><stop offset="0" style="stop-color:white;stop-opacity:1"/><stop offset="1" style="stop-color:white;stop-opacity:0"/></linearGradient>
        <linearGradient id="_Linear31" x1="0" y1="0" x2="1" y2="0" gradientUnits="userSpaceOnUse" gradientTransform="matrix(-2.81585e-16,-4.59863,-4.59863,2.81585e-16,24.4409,14.5414)"><stop offset="0" style="stop-color:white;stop-opacity:0.59"/><stop offset="1" style="stop-color:white;stop-opacity:0"/></linearGradient>
        <linearGradient id="_Linear32" x1="0" y1="0" x2="1" y2="0" gradientUnits="userSpaceOnUse" gradientTransform="matrix(2.95142,13.3313,-13.3313,2.95142,16.8916,14.8181)"><stop offset="0" style="stop-color:rgb(238,238,236);stop-opacity:1"/><stop offset="1" style="stop-color:rgb(233,185,110);stop-opacity:1"/></linearGradient>
        <linearGradient id="_Linear33" x1="0" y1="0" x2="1" y2="0" gradientUnits="userSpaceOnUse" gradientTransform="matrix(1.40625,8.98438,-8.98438,1.40625,5.27273,24.2398)"><stop offset="0" style="stop-color:white;stop-opacity:0.69"/><stop offset="1" style="stop-color:white;stop-opacity:0"/></linearGradient>
        <linearGradient id="_Linear34" x1="0" y1="0" x2="1" y2="0" gradientUnits="userSpaceOnUse" gradientTransform="matrix(8.03306e-17,1.3119,-1.3119,8.03306e-17,11.9524,24.3645)"><stop offset="0" style="stop-color:black;stop-opacity:0.35"/><stop offset="1" style="stop-color:black;stop-opacity:0"/></linearGradient>
        <linearGradient id="_Linear35" x1="0" y1="0" x2="1" y2="0" gradientUnits="userSpaceOnUse" gradientTransform="matrix(7.43576e-17,-1.21435,1.21435,7.43576e-17,12.8899,18.7716)"><stop offset="0" style="stop-color:black;stop-opacity:0.4"/><stop offset="1" style="stop-color:black;stop-opacity:0"/></linearGradient>
    </defs>
</svg>
