<?xml version="1.0" encoding="UTF-8" standalone="no"?>
<!DOCTYPE svg PUBLIC "-//W3C//DTD SVG 1.1//EN" "http://www.w3.org/Graphics/SVG/1.1/DTD/svg11.dtd">
<svg width="30px" height="30px" version="1.1" xmlns="http://www.w3.org/2000/svg" xmlns:xlink="http://www.w3.org/1999/xlink" xml:space="preserve" xmlns:serif="http://www.serif.com/" style="fill-rule:evenodd;clip-rule:evenodd;stroke-linecap:round;stroke-linejoin:round;">
    <g id="scissors">
        <path d="M21.653,0.312C21.791,0.357 21.926,0.407 22.061,0.455C22.488,1.894 24.466,3.349 23.714,4.782C21.208,8.96 18.72,13.194 16.234,17.406C15.745,17.502 15.253,17.554 14.759,17.566C13.72,17.592 12.653,17.439 11.667,17.085C14.975,11.485 18.284,5.872 21.653,0.312Z" style="fill:url(#_Linear1);fill-rule:nonzero;stroke:rgb(136,138,133);stroke-width:0.65px;"/>
        <path d="M21.728,2.032C21.576,2.233 21.433,2.602 21.278,2.789C18.628,7.211 15.933,11.626 13.273,16.03C13.233,16.196 12.74,16.693 13.265,16.648C13.993,16.777 14.753,16.877 15.479,16.685C17.94,12.613 20.355,8.51 22.811,4.437C23.035,4.184 23.079,3.831 22.843,3.578C22.496,3.043 22.145,2.481 21.789,1.97L21.728,2.032Z" style="fill:url(#_Linear2);fill-rule:nonzero;"/>
        <path d="M15.317,16.72L13.78,19.186L10.764,22.218L9.809,19.841L12.227,15.948L15.317,16.72Z" style="fill:url(#_Linear3);fill-rule:nonzero;stroke:rgb(154,12,0);stroke-width:0.65px;"/>
        <path d="M12.636,16.91C11.835,17.229 11.841,18.243 11.375,18.851C11.151,19.32 10.757,19.733 10.589,20.226C10.583,20.563 10.883,21.117 11.265,20.819C12.172,20.068 12.944,19.157 13.52,18.116C13.673,17.796 14.041,17.531 14.089,17.197C13.736,16.823 13.098,16.848 12.636,16.91Z" style="fill:url(#_Linear4);fill-rule:nonzero;"/>
        <path d="M7.759,0.312C7.623,0.357 7.491,0.407 7.358,0.455C6.939,1.894 4.997,3.349 5.735,4.782C8.196,8.96 10.639,13.194 13.081,17.406C13.56,17.502 14.044,17.554 14.529,17.566C15.549,17.592 16.597,17.439 17.565,17.085C14.317,11.485 11.067,5.872 7.759,0.312Z" style="fill:url(#_Linear5);fill-rule:nonzero;stroke:rgb(136,138,133);stroke-width:0.65px;"/>
        <path d="M7.602,2.032C7.351,2.769 6.653,3.313 6.479,4.099C8.908,8.286 11.372,12.461 13.799,16.644C14.584,16.813 15.389,16.705 16.165,16.542C16.041,16.057 15.682,15.67 15.491,15.213C12.94,10.91 10.367,6.611 7.843,2.298C7.833,2.198 7.701,1.981 7.602,2.032Z" style="fill:url(#_Linear6);fill-rule:nonzero;"/>
        <path d="M14.999,14.977L14.999,14.978C14.999,15.331 14.715,15.621 14.369,15.621C14.023,15.621 13.738,15.331 13.738,14.978L13.738,14.977C13.738,14.624 14.023,14.334 14.369,14.334C14.715,14.334 14.999,14.624 14.999,14.977Z" style="fill:url(#_Linear7);fill-rule:nonzero;"/>
        <path d="M10.864,19.083C12.982,20.214 13.153,23.414 11.242,26.231C9.331,29.05 6.066,30.419 3.946,29.294C1.826,28.163 1.657,24.964 3.568,22.147C5.478,19.33 8.744,17.961 10.864,19.083ZM9.649,20.879C8.708,20.379 6.697,21.233 5.414,23.128C4.129,25.023 4.22,27.001 5.16,27.5C6.1,28.003 8.113,27.146 9.396,25.251C10.682,23.356 10.59,21.379 9.649,20.879Z" style="fill:url(#_Linear8);fill-rule:nonzero;stroke:rgb(164,0,0);stroke-width:0.65px;stroke-linecap:butt;stroke-linejoin:miter;"/>
        <path d="M8.654,19.277C7.393,19.531 6.273,20.23 5.348,20.902C4.856,21.357 4.534,21.852 4.094,22.379C2.975,23.919 2.506,25.944 3.391,27.664C3.797,28.615 5.122,29.004 6.252,28.763C7.203,28.6 8.008,28.003 8.749,27.585C9.352,27.067 9.766,26.52 10.277,25.888C11.461,24.268 12.105,22.123 11.127,20.313C10.653,19.565 9.663,19.169 8.654,19.277ZM8.963,19.907C10.283,20.071 11.161,21.238 11.008,22.345C11.021,23.842 10.257,25.255 9.224,26.427C8.296,27.345 7.031,28.214 5.515,28.154C4.625,28.152 3.922,27.556 3.671,26.87C3.267,25.212 3.798,23.422 4.958,22.064C5.848,21.067 7.051,20.173 8.539,19.941C8.68,19.931 8.821,19.913 8.963,19.907Z" style="fill:url(#_Linear9);fill-rule:nonzero;"/>
        <path d="M19.136,19.083C17.018,20.214 16.847,23.414 18.758,26.231C20.669,29.05 23.934,30.419 26.054,29.294C28.174,28.163 28.343,24.964 26.432,22.147C24.522,19.33 21.256,17.961 19.136,19.083ZM20.351,20.879C21.292,20.379 23.303,21.233 24.586,23.128C25.871,25.023 25.78,27.001 24.84,27.5C23.9,28.003 21.887,27.146 20.604,25.251C19.318,23.356 19.41,21.379 20.351,20.879Z" style="fill:url(#_Radial10);fill-rule:nonzero;stroke:rgb(164,0,0);stroke-width:0.65px;stroke-linecap:butt;stroke-linejoin:miter;"/>
        <path d="M14.413,17.411L15.942,19.987L18.949,23.153L19.901,20.67L17.494,16.604L14.413,17.411Z" style="fill:url(#_Linear11);fill-rule:nonzero;stroke:url(#_Linear12);stroke-width:0.66px;"/>
        <path d="M16.402,17.545C16.122,17.675 15.736,17.677 15.522,17.872C16.144,18.79 16.759,19.781 17.389,20.631C17.826,21.125 18.277,21.613 18.776,22.047C19.257,21.136 18.864,20.042 18.244,19.305C17.849,18.716 17.7,17.921 17.036,17.606C16.837,17.529 16.61,17.49 16.402,17.545Z" style="fill:url(#_Linear13);fill-rule:nonzero;"/>
        <path d="M20.412,19.19C19.416,19.34 18.516,19.901 18.29,20.753C17.549,22.322 18.149,24.102 19.128,25.486C19.85,26.367 20.399,27.405 21.512,27.958C22.475,28.563 23.7,29.196 24.929,28.81C25.92,28.526 26.481,27.709 26.684,26.864C27.08,25.351 26.49,23.801 25.566,22.517C25.135,21.919 24.693,21.284 24.182,20.753C23.4,20.161 22.454,19.671 21.504,19.291C21.154,19.218 20.774,19.138 20.412,19.19ZM20.697,19.982C21.848,19.938 22.816,20.466 23.564,21.14C24.24,21.775 24.888,22.322 25.307,23.104C26.013,24.296 26.216,25.711 25.857,27.01C25.511,27.877 24.4,28.301 23.375,28.068C22.077,27.918 21.268,26.974 20.41,26.229C19.424,25.292 18.812,23.951 18.766,22.639C18.775,21.972 18.749,21.212 19.223,20.652C19.493,20.296 20.127,19.962 20.697,19.982Z" style="fill:url(#_Linear14);fill-rule:nonzero;"/>
    </g>
    <rect id="outer" x="0" y="0" width="30" height="30" style="fill:none;"/>
    <defs>
        <linearGradient id="_Linear1" x1="0" y1="0" x2="1" y2="0" gradientUnits="userSpaceOnUse" gradientTransform="matrix(-10.7266,16.1244,-16.1244,-10.7266,22.2896,4.34414)"><stop offset="0" style="stop-color:rgb(238,238,236);stop-opacity:1"/><stop offset="1" style="stop-color:white;stop-opacity:1"/></linearGradient>
        <linearGradient id="_Linear2" x1="0" y1="0" x2="1" y2="0" gradientUnits="userSpaceOnUse" gradientTransform="matrix(2.6445,11.4497,-11.4497,2.6445,12.5585,3.47896)"><stop offset="0" style="stop-color:rgb(226,226,226);stop-opacity:1"/><stop offset="1" style="stop-color:rgb(216,216,216);stop-opacity:1"/></linearGradient>
        <linearGradient id="_Linear3" x1="0" y1="0" x2="1" y2="0.0361242" gradientUnits="userSpaceOnUse" gradientTransform="matrix(6.17061,2.61823,-2.74461,5.88647,9.48248,16.4657)"><stop offset="0" style="stop-color:rgb(239,53,53);stop-opacity:1"/><stop offset="0" style="stop-color:rgb(201,26,26);stop-opacity:1"/><stop offset="1" style="stop-color:rgb(255,76,76);stop-opacity:1"/></linearGradient>
        <linearGradient id="_Linear4" x1="0" y1="0" x2="1" y2="0" gradientUnits="userSpaceOnUse" gradientTransform="matrix(0.102446,-12.7957,12.7957,0.102446,13.9877,24.009)"><stop offset="0" style="stop-color:rgb(239,53,53);stop-opacity:1"/><stop offset="0" style="stop-color:rgb(201,26,26);stop-opacity:1"/><stop offset="1" style="stop-color:rgb(255,76,76);stop-opacity:1"/></linearGradient>
        <linearGradient id="_Linear5" x1="0" y1="0" x2="1" y2="0" gradientUnits="userSpaceOnUse" gradientTransform="matrix(10.5335,16.1244,-16.1244,10.5335,7.13487,4.34414)"><stop offset="0" style="stop-color:rgb(238,238,236);stop-opacity:1"/><stop offset="1" style="stop-color:white;stop-opacity:1"/></linearGradient>
        <linearGradient id="_Linear6" x1="0" y1="0" x2="1" y2="0" gradientUnits="userSpaceOnUse" gradientTransform="matrix(2.6445,11.4497,-11.4497,2.6445,12.5585,3.47896)"><stop offset="0" style="stop-color:rgb(226,226,226);stop-opacity:1"/><stop offset="1" style="stop-color:rgb(216,216,216);stop-opacity:1"/></linearGradient>
        <linearGradient id="_Linear7" x1="0" y1="0" x2="1" y2="0.0160411" gradientUnits="userSpaceOnUse" gradientTransform="matrix(1.26102,-0.643116,0.630189,1.28689,13.7381,14.9771)"><stop offset="0" style="stop-color:rgb(186,189,182);stop-opacity:1"/><stop offset="1" style="stop-color:rgb(238,238,236);stop-opacity:1"/></linearGradient>
        <linearGradient id="_Linear8" x1="0" y1="0" x2="1" y2="0" gradientUnits="userSpaceOnUse" gradientTransform="matrix(13.6715,12.8166,-12.8166,13.6715,3.14756,19.6093)"><stop offset="0" style="stop-color:rgb(239,53,53);stop-opacity:1"/><stop offset="0" style="stop-color:rgb(201,26,26);stop-opacity:1"/><stop offset="1" style="stop-color:rgb(255,76,76);stop-opacity:1"/></linearGradient>
        <linearGradient id="_Linear9" x1="0" y1="0" x2="1" y2="0" gradientUnits="userSpaceOnUse" gradientTransform="matrix(-4.68346,-24.5327,24.5327,-4.68346,8.04486,25.3347)"><stop offset="0" style="stop-color:rgb(239,53,53);stop-opacity:1"/><stop offset="0" style="stop-color:rgb(201,26,26);stop-opacity:1"/><stop offset="1" style="stop-color:rgb(255,76,76);stop-opacity:1"/></linearGradient>
        <radialGradient id="_Radial10" cx="0" cy="0" r="1" gradientUnits="userSpaceOnUse" gradientTransform="matrix(5.49399,0,0,5.82572,21.7848,23.7838)"><stop offset="0" style="stop-color:rgb(239,53,53);stop-opacity:1"/><stop offset="0" style="stop-color:rgb(201,26,26);stop-opacity:1"/><stop offset="1" style="stop-color:rgb(255,76,76);stop-opacity:1"/></radialGradient>
        <linearGradient id="_Linear11" x1="0" y1="0" x2="1" y2="0" gradientUnits="userSpaceOnUse" gradientTransform="matrix(0.925728,0.481853,-0.481853,0.925728,18.0284,20.4969)"><stop offset="0" style="stop-color:rgb(223,42,42);stop-opacity:1"/><stop offset="1" style="stop-color:rgb(223,42,42);stop-opacity:0"/></linearGradient>
        <linearGradient id="_Linear12" x1="0" y1="0" x2="1" y2="0" gradientUnits="userSpaceOnUse" gradientTransform="matrix(0.925728,0.481853,-0.481853,0.925728,18.0284,20.4969)"><stop offset="0" style="stop-color:rgb(154,12,0);stop-opacity:1"/><stop offset="1" style="stop-color:rgb(154,12,0);stop-opacity:0"/></linearGradient>
        <linearGradient id="_Linear13" x1="0" y1="0" x2="1" y2="0" gradientUnits="userSpaceOnUse" gradientTransform="matrix(2.45911,-2.52795,2.52795,2.45911,13.9528,16.7275)"><stop offset="0" style="stop-color:rgb(239,53,53);stop-opacity:1"/><stop offset="0" style="stop-color:rgb(201,26,26);stop-opacity:1"/><stop offset="1" style="stop-color:rgb(255,76,76);stop-opacity:1"/></linearGradient>
        <linearGradient id="_Linear14" x1="0" y1="0" x2="1" y2="0" gradientUnits="userSpaceOnUse" gradientTransform="matrix(-32.836,-36.6791,36.6791,-32.836,26.0716,28.2415)"><stop offset="0" style="stop-color:rgb(239,53,53);stop-opacity:1"/><stop offset="1" style="stop-color:rgb(164,0,0);stop-opacity:0"/></linearGradient>
    </defs>
</svg>
