<?xml version="1.0" encoding="UTF-8" standalone="no"?>
<!DOCTYPE svg PUBLIC "-//W3C//DTD SVG 1.1//EN" "http://www.w3.org/Graphics/SVG/1.1/DTD/svg11.dtd">
<svg width="30px" height="30px" version="1.1" xmlns="http://www.w3.org/2000/svg" xmlns:xlink="http://www.w3.org/1999/xlink" xml:space="preserve" xmlns:serif="http://www.serif.com/" style="fill-rule:evenodd;clip-rule:evenodd;stroke-linejoin:round;stroke-miterlimit:2;">
    <g id="pages">
        <path d="M29.305,26.603L24.555,26.603L24.555,19.999L28.477,19.999L29.305,20.735L29.305,26.603Z" style="fill:white;"/>
        <path d="M17.362,26.603L12.613,26.603L12.613,19.999L16.535,19.999L17.362,20.735L17.362,26.603Z" style="fill:white;"/>
        <path d="M5.445,26.591L0.695,26.591L0.695,19.988L4.618,19.988L5.445,20.723L5.445,26.591Z" style="fill:white;"/>
    </g>
    <g id="Borders">
        <path d="M4.98,19.381C4.917,19.324 4.835,19.293 4.749,19.293L0.348,19.293C0.156,19.293 -0,19.448 -0,19.641L-0,26.939C-0,27.131 0.155,27.287 0.348,27.287L5.792,27.287C5.984,27.287 6.14,27.131 6.14,26.939L6.14,20.567C6.14,20.468 6.097,20.374 6.023,20.307L4.98,19.381ZM5.445,26.591L0.695,26.591L0.695,19.988L4.618,19.988L5.445,20.723L5.445,26.591Z" style="fill-rule:nonzero;"/>
        <path d="M16.898,19.392C16.835,19.336 16.752,19.305 16.667,19.305L12.266,19.305C12.074,19.305 11.918,19.46 11.918,19.652L11.918,26.951C11.918,27.142 12.073,27.298 12.266,27.298L17.71,27.298C17.902,27.298 18.057,27.143 18.057,26.951L18.057,20.579C18.057,20.48 18.015,20.386 17.941,20.319L16.898,19.392ZM17.362,26.603L12.613,26.603L12.613,19.999L16.535,19.999L17.362,20.735L17.362,26.603Z" style="fill-rule:nonzero;"/>
        <path d="M29.883,20.319L28.84,19.392C28.777,19.335 28.695,19.305 28.609,19.305L24.208,19.305C24.016,19.305 23.86,19.46 23.86,19.652L23.86,26.95C23.86,27.142 24.015,27.298 24.208,27.298L29.652,27.298C29.844,27.298 30,27.143 30,26.95L30,20.579C30,20.479 29.957,20.385 29.883,20.319ZM29.305,26.603L24.555,26.603L24.555,19.999L28.477,19.999L29.305,20.735L29.305,26.603Z" style="fill-rule:nonzero;"/>
        <path d="M2.37,14.66L14.952,14.66L14.952,17.37L15.572,17.37L15.572,14.66L27.63,14.66L27.63,17.37L28.25,17.37L28.25,14.033L15.582,14.033L15.582,12.629L14.962,12.629L14.962,14.033L1.75,14.033L1.75,17.37L2.37,17.37L2.37,14.66Z" style="fill-rule:nonzero;"/>
    </g>
    <g id="folder">
        <path d="M16.137,2.829L20.247,2.829C20.802,2.829 21.259,3.286 21.259,3.842C21.259,3.843 21.259,3.845 21.259,3.846L21.259,10.79C21.259,11.345 20.802,11.802 20.247,11.802L9.719,11.802C9.167,11.797 8.716,11.342 8.716,10.79L8.716,2.278C8.721,1.726 9.176,1.275 9.728,1.275L12.3,1.275C13.155,1.275 13.247,1.53 13.809,2.272C14.273,2.885 15.402,2.829 16.137,2.829Z" style="fill:rgb(0,52,98);fill-rule:nonzero;"/>
        <path d="M20.247,3.425L10.786,3.425C10.23,3.425 9.773,3.882 9.773,4.438L9.773,5.074L10.774,3.622L20.26,3.622L21.259,5.076L21.259,4.438C21.259,3.882 20.802,3.425 20.247,3.425Z" style="fill:rgb(135,200,242);fill-rule:nonzero;"/>
        <path d="M9.74,11.793L20.247,11.793C20.799,11.793 21.254,11.342 21.259,10.79L21.259,4.626C21.254,4.074 20.799,3.622 20.247,3.622L10.788,3.622C10.232,3.622 9.775,4.079 9.775,4.635L9.775,10.79C9.775,10.844 9.771,10.898 9.762,10.951C9.721,11.203 9.502,11.39 9.247,11.39C8.992,11.39 8.772,11.203 8.732,10.951C8.813,11.44 9.244,11.8 9.74,11.793Z" style="fill:rgb(0,161,224);fill-rule:nonzero;"/>
    </g>
    <rect id="outer" x="0" y="0" width="30" height="30" style="fill:none;"/>
</svg>
