<?xml version="1.0" encoding="UTF-8" standalone="no"?>
<!DOCTYPE svg PUBLIC "-//W3C//DTD SVG 1.1//EN" "http://www.w3.org/Graphics/SVG/1.1/DTD/svg11.dtd">
<svg width="30px" height="30px" version="1.1" xmlns="http://www.w3.org/2000/svg" xmlns:xlink="http://www.w3.org/1999/xlink" xml:space="preserve" xmlns:serif="http://www.serif.com/" style="fill-rule:evenodd;clip-rule:evenodd;stroke-linejoin:round;stroke-miterlimit:2;">
    <rect id="outer" x="0" y="0" width="30" height="30" style="fill:white;stroke:rgb(126,126,126);stroke-width:0.54px;"/>
    <rect x="0.255" y="0.255" width="29.473" height="6.245" style="fill:none;stroke:rgb(128,128,128);stroke-width:0.5px;stroke-linecap:round;stroke-miterlimit:1.5;"/>
    <g id="open-title" serif:id="open title">
        <path d="M2.375,8L3.907,11.976L5.44,8" style="fill:none;stroke:black;stroke-width:0.45px;stroke-linecap:round;stroke-miterlimit:1.5;"/>
        <path d="M8.391,11.283L7.49,11.283L7.49,8.115L7.693,8.115L7.693,10.947L8.391,10.947L8.391,11.283Z" style="fill-rule:nonzero;"/>
        <path d="M9.149,11.336C8.966,11.336 8.819,11.23 8.71,11.019C8.601,10.808 8.546,10.528 8.546,10.179C8.546,9.799 8.603,9.502 8.717,9.288C8.83,9.075 8.984,8.968 9.178,8.968C9.363,8.968 9.507,9.072 9.611,9.28C9.715,9.487 9.767,9.775 9.767,10.143C9.767,10.504 9.711,10.793 9.599,11.01C9.487,11.227 9.337,11.336 9.149,11.336ZM9.164,9.273C9.036,9.273 8.935,9.352 8.861,9.51C8.786,9.669 8.749,9.887 8.749,10.165C8.749,10.433 8.787,10.645 8.862,10.799C8.937,10.954 9.038,11.031 9.164,11.031C9.292,11.031 9.391,10.955 9.46,10.804C9.529,10.652 9.563,10.436 9.563,10.156C9.563,9.874 9.529,9.656 9.46,9.503C9.391,9.349 9.292,9.273 9.164,9.273Z" style="fill-rule:nonzero;"/>
        <path d="M10.731,9.388C10.696,9.339 10.646,9.315 10.581,9.315C10.496,9.315 10.425,9.388 10.368,9.534C10.311,9.679 10.283,9.878 10.283,10.13L10.283,11.283L10.084,11.283L10.084,9.021L10.283,9.021L10.283,9.487L10.288,9.487C10.316,9.328 10.359,9.204 10.417,9.115C10.475,9.026 10.54,8.981 10.612,8.981C10.664,8.981 10.703,8.992 10.731,9.012L10.731,9.388Z" style="fill-rule:nonzero;"/>
        <path d="M11.943,10.243L11.067,10.243C11.071,10.494 11.108,10.689 11.179,10.826C11.25,10.963 11.348,11.031 11.472,11.031C11.612,11.031 11.74,10.947 11.857,10.779L11.857,11.12C11.748,11.264 11.604,11.336 11.425,11.336C11.25,11.336 11.112,11.233 11.012,11.028C10.912,10.822 10.862,10.533 10.862,10.161C10.862,9.809 10.916,9.522 11.026,9.301C11.135,9.079 11.271,8.968 11.433,8.968C11.596,8.968 11.721,9.064 11.81,9.255C11.899,9.447 11.943,9.712 11.943,10.053L11.943,10.243ZM11.74,9.936C11.739,9.726 11.711,9.564 11.657,9.447C11.602,9.331 11.527,9.273 11.43,9.273C11.336,9.273 11.256,9.334 11.191,9.456C11.126,9.578 11.085,9.738 11.07,9.936L11.74,9.936Z" style="fill-rule:nonzero;"/>
        <path d="M14.005,11.283L13.806,11.283L13.806,9.984C13.806,9.734 13.785,9.553 13.742,9.441C13.7,9.329 13.629,9.273 13.529,9.273C13.444,9.273 13.372,9.344 13.312,9.485C13.253,9.626 13.223,9.796 13.223,9.993L13.223,11.283L13.025,11.283L13.025,9.94C13.025,9.495 12.931,9.273 12.743,9.273C12.655,9.273 12.583,9.34 12.527,9.473C12.47,9.606 12.442,9.779 12.442,9.993L12.442,11.283L12.244,11.283L12.244,9.021L12.442,9.021L12.442,9.379L12.447,9.379C12.535,9.105 12.663,8.968 12.832,8.968C12.917,8.968 12.991,9.011 13.054,9.097C13.117,9.183 13.16,9.296 13.183,9.436C13.275,9.124 13.413,8.968 13.595,8.968C13.868,8.968 14.005,9.275 14.005,9.889L14.005,11.283Z" style="fill-rule:nonzero;"/>
        <rect x="15.086" y="8.115" width="0.203" height="3.168"/>
        <path d="M15.923,10.956L15.918,10.956L15.918,12.323L15.72,12.323L15.72,9.021L15.918,9.021L15.918,9.419L15.923,9.419C16.021,9.118 16.164,8.968 16.352,8.968C16.512,8.968 16.636,9.069 16.726,9.272C16.816,9.474 16.861,9.746 16.861,10.086C16.861,10.464 16.81,10.767 16.709,10.995C16.608,11.222 16.47,11.336 16.295,11.336C16.134,11.336 16.01,11.209 15.923,10.956ZM15.918,10.044L15.918,10.36C15.918,10.547 15.952,10.705 16.018,10.836C16.085,10.966 16.169,11.031 16.272,11.031C16.392,11.031 16.486,10.947 16.555,10.779C16.623,10.612 16.657,10.378 16.657,10.079C16.657,9.827 16.625,9.63 16.561,9.487C16.498,9.344 16.411,9.273 16.302,9.273C16.187,9.273 16.094,9.346 16.024,9.493C15.953,9.639 15.918,9.823 15.918,10.044Z" style="fill-rule:nonzero;"/>
        <path d="M17.103,11.201L17.103,10.813C17.211,10.958 17.33,11.031 17.46,11.031C17.634,11.031 17.722,10.925 17.722,10.713C17.722,10.653 17.714,10.602 17.699,10.56C17.684,10.518 17.664,10.48 17.639,10.448C17.613,10.416 17.583,10.387 17.549,10.361C17.515,10.335 17.478,10.308 17.438,10.28C17.383,10.24 17.335,10.2 17.294,10.16C17.252,10.119 17.217,10.074 17.189,10.023C17.162,9.972 17.141,9.914 17.126,9.849C17.112,9.785 17.105,9.709 17.105,9.622C17.105,9.516 17.119,9.422 17.145,9.34C17.172,9.259 17.207,9.19 17.252,9.135C17.296,9.08 17.347,9.038 17.404,9.01C17.461,8.982 17.519,8.968 17.58,8.968C17.687,8.968 17.783,9.002 17.868,9.07L17.868,9.436C17.777,9.327 17.672,9.273 17.553,9.273C17.516,9.273 17.483,9.281 17.453,9.296C17.423,9.312 17.397,9.333 17.376,9.361C17.354,9.389 17.338,9.423 17.326,9.462C17.315,9.501 17.309,9.544 17.309,9.591C17.309,9.65 17.315,9.699 17.326,9.739C17.338,9.779 17.355,9.814 17.378,9.845C17.4,9.876 17.428,9.904 17.46,9.929C17.492,9.954 17.529,9.981 17.57,10.011C17.625,10.049 17.674,10.088 17.718,10.129C17.762,10.169 17.799,10.215 17.829,10.266C17.86,10.317 17.884,10.375 17.9,10.441C17.917,10.508 17.925,10.587 17.925,10.678C17.925,10.79 17.912,10.887 17.885,10.969C17.858,11.052 17.821,11.12 17.776,11.175C17.731,11.229 17.679,11.27 17.62,11.296C17.561,11.323 17.499,11.336 17.435,11.336C17.307,11.336 17.196,11.291 17.103,11.201Z" style="fill-rule:nonzero;"/>
        <path d="M19.233,11.283L19.035,11.283L19.035,10.925L19.03,10.925C18.947,11.199 18.82,11.336 18.647,11.336C18.351,11.336 18.204,11.015 18.204,10.373L18.204,9.021L18.401,9.021L18.401,10.316C18.401,10.793 18.501,11.031 18.702,11.031C18.798,11.031 18.878,10.966 18.941,10.836C19.003,10.705 19.035,10.535 19.035,10.324L19.035,9.021L19.233,9.021L19.233,11.283Z" style="fill-rule:nonzero;"/>
        <path d="M21.395,11.283L21.197,11.283L21.197,9.984C21.197,9.734 21.175,9.553 21.133,9.441C21.091,9.329 21.019,9.273 20.919,9.273C20.834,9.273 20.762,9.344 20.703,9.485C20.644,9.626 20.614,9.796 20.614,9.993L20.614,11.283L20.415,11.283L20.415,9.94C20.415,9.495 20.321,9.273 20.133,9.273C20.046,9.273 19.974,9.34 19.918,9.473C19.861,9.606 19.833,9.779 19.833,9.993L19.833,11.283L19.634,11.283L19.634,9.021L19.833,9.021L19.833,9.379L19.838,9.379C19.926,9.105 20.054,8.968 20.223,8.968C20.308,8.968 20.381,9.011 20.444,9.097C20.507,9.183 20.551,9.296 20.574,9.436C20.666,9.124 20.803,8.968 20.986,8.968C21.259,8.968 21.395,9.275 21.395,9.889L21.395,11.283Z" style="fill-rule:nonzero;"/>
        <path d="M22.746,9.021L22.251,11.283L22.056,11.283L21.587,9.021L21.805,9.021L22.119,10.665C22.143,10.785 22.157,10.891 22.163,10.98L22.168,10.98C22.176,10.867 22.189,10.765 22.207,10.673L22.536,9.021L22.746,9.021Z" style="fill-rule:nonzero;"/>
    </g>
    <g id="closed-title" serif:id="closed title">
        <path d="M7.261,23.398L11.237,21.865L7.261,20.332" style="fill:none;stroke:black;stroke-width:0.45px;stroke-linecap:round;stroke-miterlimit:1.5;"/>
        <path d="M13.645,23.5L12.744,23.5L12.744,20.332L12.948,20.332L12.948,23.164L13.645,23.164L13.645,23.5Z" style="fill-rule:nonzero;"/>
        <path d="M14.403,23.553C14.22,23.553 14.074,23.447 13.964,23.236C13.855,23.025 13.8,22.745 13.8,22.396C13.8,22.016 13.857,21.719 13.971,21.505C14.085,21.292 14.239,21.185 14.432,21.185C14.617,21.185 14.762,21.289 14.865,21.496C14.969,21.704 15.021,21.992 15.021,22.36C15.021,22.721 14.965,23.01 14.853,23.227C14.742,23.444 14.592,23.553 14.403,23.553ZM14.418,21.49C14.29,21.49 14.189,21.569 14.115,21.727C14.041,21.886 14.004,22.104 14.004,22.382C14.004,22.65 14.041,22.862 14.116,23.016C14.191,23.171 14.292,23.248 14.418,23.248C14.546,23.248 14.645,23.172 14.714,23.021C14.783,22.869 14.818,22.653 14.818,22.373C14.818,22.091 14.783,21.873 14.714,21.72C14.645,21.566 14.546,21.49 14.418,21.49Z" style="fill-rule:nonzero;"/>
        <path d="M15.985,21.605C15.95,21.556 15.9,21.532 15.835,21.532C15.75,21.532 15.679,21.605 15.622,21.75C15.566,21.896 15.537,22.095 15.537,22.347L15.537,23.5L15.338,23.5L15.338,21.238L15.537,21.238L15.537,21.704L15.542,21.704C15.57,21.545 15.613,21.421 15.671,21.332C15.73,21.243 15.795,21.198 15.866,21.198C15.918,21.198 15.958,21.209 15.985,21.229L15.985,21.605Z" style="fill-rule:nonzero;"/>
        <path d="M17.198,22.46L16.322,22.46C16.325,22.711 16.362,22.906 16.433,23.043C16.504,23.18 16.602,23.248 16.726,23.248C16.866,23.248 16.994,23.164 17.112,22.996L17.112,23.337C17.003,23.481 16.858,23.553 16.679,23.553C16.504,23.553 16.366,23.45 16.266,23.245C16.166,23.039 16.116,22.75 16.116,22.378C16.116,22.026 16.171,21.739 16.28,21.517C16.39,21.296 16.525,21.185 16.688,21.185C16.85,21.185 16.976,21.281 17.064,21.472C17.153,21.664 17.198,21.929 17.198,22.27L17.198,22.46ZM16.994,22.153C16.993,21.943 16.966,21.781 16.911,21.664C16.857,21.548 16.781,21.49 16.684,21.49C16.59,21.49 16.511,21.551 16.445,21.673C16.38,21.795 16.34,21.955 16.324,22.153L16.994,22.153Z" style="fill-rule:nonzero;"/>
        <path d="M19.259,23.5L19.06,23.5L19.06,22.201C19.06,21.951 19.039,21.77 18.997,21.658C18.954,21.546 18.883,21.49 18.783,21.49C18.698,21.49 18.626,21.561 18.567,21.702C18.507,21.843 18.478,22.013 18.478,22.21L18.478,23.5L18.279,23.5L18.279,22.157C18.279,21.712 18.185,21.49 17.997,21.49C17.91,21.49 17.838,21.556 17.781,21.69C17.725,21.823 17.697,21.996 17.697,22.21L17.697,23.5L17.498,23.5L17.498,21.238L17.697,21.238L17.697,21.596L17.701,21.596C17.789,21.322 17.918,21.185 18.087,21.185C18.171,21.185 18.245,21.228 18.308,21.314C18.371,21.4 18.414,21.513 18.438,21.653C18.53,21.341 18.667,21.185 18.85,21.185C19.123,21.185 19.259,21.492 19.259,22.106L19.259,23.5Z" style="fill-rule:nonzero;"/>
        <rect x="20.341" y="20.332" width="0.203" height="3.168"/>
        <path d="M21.177,23.173L21.173,23.173L21.173,24.54L20.974,24.54L20.974,21.238L21.173,21.238L21.173,21.636L21.177,21.636C21.275,21.335 21.418,21.185 21.606,21.185C21.766,21.185 21.891,21.286 21.98,21.489C22.07,21.691 22.115,21.963 22.115,22.303C22.115,22.681 22.064,22.984 21.964,23.212C21.863,23.439 21.725,23.553 21.549,23.553C21.389,23.553 21.265,23.426 21.177,23.173ZM21.173,22.261L21.173,22.577C21.173,22.764 21.206,22.922 21.273,23.053C21.339,23.183 21.424,23.248 21.526,23.248C21.647,23.248 21.741,23.164 21.809,22.996C21.877,22.828 21.911,22.595 21.911,22.296C21.911,22.044 21.88,21.847 21.816,21.704C21.752,21.561 21.666,21.49 21.557,21.49C21.441,21.49 21.348,21.563 21.278,21.71C21.208,21.856 21.173,22.04 21.173,22.261Z" style="fill-rule:nonzero;"/>
        <path d="M22.357,23.418L22.357,23.029C22.465,23.175 22.584,23.248 22.714,23.248C22.889,23.248 22.976,23.142 22.976,22.93C22.976,22.87 22.969,22.819 22.954,22.777C22.939,22.735 22.919,22.697 22.893,22.665C22.868,22.633 22.838,22.604 22.803,22.578C22.769,22.552 22.732,22.525 22.693,22.497C22.638,22.457 22.589,22.417 22.548,22.377C22.506,22.336 22.472,22.291 22.444,22.24C22.416,22.189 22.395,22.131 22.381,22.066C22.367,22.002 22.36,21.926 22.36,21.839C22.36,21.733 22.373,21.639 22.4,21.557C22.426,21.475 22.462,21.407 22.506,21.352C22.551,21.297 22.601,21.255 22.658,21.227C22.715,21.199 22.774,21.185 22.834,21.185C22.942,21.185 23.038,21.219 23.123,21.287L23.123,21.653C23.031,21.544 22.926,21.49 22.808,21.49C22.771,21.49 22.737,21.498 22.707,21.513C22.677,21.528 22.652,21.55 22.63,21.578C22.609,21.606 22.592,21.64 22.581,21.679C22.569,21.718 22.563,21.761 22.563,21.808C22.563,21.867 22.569,21.916 22.581,21.956C22.592,21.996 22.609,22.031 22.632,22.062C22.655,22.093 22.682,22.121 22.714,22.146C22.747,22.171 22.783,22.198 22.825,22.228C22.88,22.266 22.929,22.305 22.972,22.346C23.016,22.386 23.053,22.432 23.084,22.483C23.115,22.534 23.138,22.592 23.155,22.658C23.171,22.725 23.18,22.803 23.18,22.895C23.18,23.007 23.166,23.104 23.139,23.186C23.112,23.269 23.076,23.337 23.031,23.392C22.985,23.446 22.933,23.487 22.874,23.513C22.815,23.54 22.754,23.553 22.689,23.553C22.561,23.553 22.451,23.508 22.357,23.418Z" style="fill-rule:nonzero;"/>
        <path d="M24.488,23.5L24.289,23.5L24.289,23.142L24.284,23.142C24.202,23.416 24.074,23.553 23.901,23.553C23.606,23.553 23.458,23.232 23.458,22.59L23.458,21.238L23.656,21.238L23.656,22.532C23.656,23.01 23.756,23.248 23.956,23.248C24.053,23.248 24.133,23.183 24.195,23.053C24.258,22.922 24.289,22.752 24.289,22.541L24.289,21.238L24.488,21.238L24.488,23.5Z" style="fill-rule:nonzero;"/>
        <path d="M26.65,23.5L26.451,23.5L26.451,22.201C26.451,21.951 26.43,21.77 26.387,21.658C26.345,21.546 26.274,21.49 26.174,21.49C26.089,21.49 26.017,21.561 25.957,21.702C25.898,21.843 25.868,22.013 25.868,22.21L25.868,23.5L25.67,23.5L25.67,22.157C25.67,21.712 25.576,21.49 25.388,21.49C25.3,21.49 25.228,21.556 25.172,21.69C25.115,21.823 25.087,21.996 25.087,22.21L25.087,23.5L24.889,23.5L24.889,21.238L25.087,21.238L25.087,21.596L25.092,21.596C25.18,21.322 25.308,21.185 25.477,21.185C25.562,21.185 25.636,21.228 25.699,21.314C25.762,21.4 25.805,21.513 25.828,21.653C25.92,21.341 26.058,21.185 26.24,21.185C26.513,21.185 26.65,21.492 26.65,22.106L26.65,23.5Z" style="fill-rule:nonzero;"/>
        <path d="M28,21.238L27.506,23.5L27.311,23.5L26.841,21.238L27.059,21.238L27.374,22.881C27.397,23.002 27.412,23.108 27.417,23.197L27.422,23.197C27.43,23.084 27.443,22.982 27.461,22.89L27.79,21.238L28,21.238Z" style="fill-rule:nonzero;"/>
    </g>
    <path d="M3.617,1.774L2.643,1.774L2.643,5.476L2.248,5.476L2.248,1.774L1.276,1.774L1.276,1.335L3.617,1.335L3.617,1.774Z" style="fill-rule:nonzero;"/>
    <path d="M4.292,1.769C4.223,1.769 4.164,1.74 4.116,1.682C4.067,1.624 4.043,1.551 4.043,1.462C4.043,1.374 4.067,1.3 4.116,1.242C4.164,1.183 4.223,1.153 4.292,1.153C4.363,1.153 4.423,1.183 4.472,1.242C4.522,1.3 4.546,1.374 4.546,1.462C4.546,1.547 4.522,1.619 4.472,1.679C4.423,1.739 4.363,1.769 4.292,1.769ZM4.481,5.476L4.095,5.476L4.095,2.519L4.481,2.519L4.481,5.476Z" style="fill-rule:nonzero;"/>
    <path d="M6.379,5.447C6.288,5.509 6.168,5.539 6.019,5.539C5.597,5.539 5.386,5.251 5.386,4.673L5.386,2.923L4.972,2.923L4.972,2.519L5.386,2.519L5.386,1.797L5.772,1.644L5.772,2.519L6.379,2.519L6.379,2.923L5.772,2.923L5.772,4.59C5.772,4.788 5.799,4.929 5.854,5.014C5.909,5.099 6,5.141 6.127,5.141C6.224,5.141 6.308,5.108 6.379,5.043L6.379,5.447Z" style="fill-rule:nonzero;"/>
    <rect x="6.894" y="1.099" width="0.386" height="4.377" style="fill-rule:nonzero;"/>
    <path d="M9.997,4.116L8.296,4.116C8.302,4.445 8.375,4.699 8.513,4.878C8.651,5.057 8.84,5.147 9.082,5.147C9.353,5.147 9.603,5.037 9.83,4.818L9.83,5.262C9.618,5.451 9.338,5.545 8.99,5.545C8.65,5.545 8.382,5.411 8.188,5.142C7.994,4.874 7.896,4.496 7.896,4.009C7.896,3.549 8.003,3.174 8.215,2.884C8.428,2.595 8.691,2.45 9.007,2.45C9.322,2.45 9.566,2.575 9.738,2.825C9.911,3.076 9.997,3.423 9.997,3.868L9.997,4.116ZM9.602,3.715C9.6,3.441 9.547,3.229 9.441,3.077C9.335,2.924 9.188,2.848 9,2.848C8.818,2.848 8.663,2.928 8.536,3.088C8.409,3.248 8.331,3.457 8.301,3.715L9.602,3.715Z" style="fill-rule:nonzero;"/>
    <path d="M19.987,5.476L19.549,5.476L19.192,4.315L17.761,4.315L17.425,5.476L16.985,5.476L18.279,1.335L18.688,1.335L19.987,5.476ZM19.062,3.879L18.533,2.115C18.516,2.057 18.498,1.965 18.481,1.838L18.472,1.838C18.456,1.955 18.438,2.048 18.418,2.115L17.893,3.879L19.062,3.879Z" style="fill-rule:nonzero;"/>
    <path d="M21.688,2.999C21.62,2.935 21.523,2.903 21.396,2.903C21.231,2.903 21.094,2.999 20.983,3.189C20.872,3.38 20.817,3.64 20.817,3.969L20.817,5.476L20.431,5.476L20.431,2.519L20.817,2.519L20.817,3.128L20.827,3.128C20.881,2.921 20.965,2.758 21.078,2.642C21.191,2.525 21.317,2.467 21.457,2.467C21.557,2.467 21.634,2.481 21.688,2.508L21.688,2.999Z" style="fill-rule:nonzero;"/>
    <path d="M23.224,5.447C23.133,5.509 23.013,5.539 22.864,5.539C22.442,5.539 22.231,5.251 22.231,4.673L22.231,2.923L21.817,2.923L21.817,2.519L22.231,2.519L22.231,1.797L22.617,1.644L22.617,2.519L23.224,2.519L23.224,2.923L22.617,2.923L22.617,4.59C22.617,4.788 22.644,4.929 22.699,5.014C22.754,5.099 22.845,5.141 22.972,5.141C23.069,5.141 23.153,5.108 23.224,5.043L23.224,5.447Z" style="fill-rule:nonzero;"/>
    <path d="M23.937,1.769C23.868,1.769 23.809,1.74 23.76,1.682C23.711,1.624 23.687,1.551 23.687,1.462C23.687,1.374 23.711,1.3 23.76,1.242C23.809,1.183 23.868,1.153 23.937,1.153C24.007,1.153 24.067,1.183 24.116,1.242C24.166,1.3 24.191,1.374 24.191,1.462C24.191,1.547 24.166,1.619 24.116,1.679C24.067,1.739 24.007,1.769 23.937,1.769ZM24.125,5.476L23.739,5.476L23.739,2.519L24.125,2.519L24.125,5.476Z" style="fill-rule:nonzero;"/>
    <path d="M24.76,5.369L24.76,4.861C24.97,5.051 25.201,5.147 25.454,5.147C25.793,5.147 25.962,5.008 25.962,4.731C25.962,4.652 25.947,4.585 25.918,4.53C25.889,4.475 25.85,4.427 25.801,4.385C25.751,4.342 25.693,4.304 25.627,4.27C25.56,4.237 25.488,4.202 25.412,4.165C25.305,4.113 25.211,4.061 25.13,4.008C25.05,3.955 24.982,3.895 24.928,3.829C24.874,3.762 24.833,3.687 24.806,3.602C24.778,3.517 24.765,3.418 24.765,3.305C24.765,3.166 24.79,3.043 24.842,2.936C24.894,2.83 24.963,2.74 25.049,2.668C25.135,2.596 25.234,2.541 25.344,2.505C25.455,2.468 25.569,2.45 25.687,2.45C25.895,2.45 26.082,2.494 26.247,2.583L26.247,3.062C26.069,2.92 25.866,2.848 25.635,2.848C25.563,2.848 25.498,2.859 25.44,2.879C25.382,2.899 25.332,2.927 25.29,2.964C25.249,3 25.217,3.044 25.194,3.095C25.171,3.146 25.16,3.203 25.16,3.264C25.16,3.341 25.171,3.406 25.194,3.458C25.217,3.51 25.25,3.556 25.294,3.596C25.338,3.637 25.391,3.673 25.454,3.706C25.517,3.739 25.588,3.774 25.668,3.813C25.775,3.863 25.87,3.914 25.955,3.967C26.04,4.02 26.112,4.08 26.171,4.146C26.231,4.213 26.277,4.289 26.309,4.376C26.341,4.462 26.357,4.565 26.357,4.685C26.357,4.831 26.331,4.958 26.278,5.066C26.226,5.174 26.156,5.263 26.068,5.334C25.98,5.406 25.879,5.459 25.764,5.493C25.65,5.528 25.53,5.545 25.404,5.545C25.157,5.545 24.942,5.487 24.76,5.369Z" style="fill-rule:nonzero;"/>
    <path d="M28.067,5.447C27.976,5.509 27.857,5.539 27.708,5.539C27.286,5.539 27.075,5.251 27.075,4.673L27.075,2.923L26.661,2.923L26.661,2.519L27.075,2.519L27.075,1.797L27.461,1.644L27.461,2.519L28.067,2.519L28.067,2.923L27.461,2.923L27.461,4.59C27.461,4.788 27.488,4.929 27.543,5.014C27.598,5.099 27.689,5.141 27.816,5.141C27.913,5.141 27.997,5.108 28.067,5.043L28.067,5.447Z" style="fill-rule:nonzero;"/>
    <path d="M14,0.255L14,6.5" style="fill:none;stroke:rgb(128,128,128);stroke-width:0.5px;stroke-linecap:round;stroke-miterlimit:1.5;"/>
    <path d="M8.453,14.848L8.249,14.848L8.005,14.345C7.982,14.298 7.96,14.259 7.939,14.226C7.918,14.193 7.897,14.166 7.875,14.145C7.853,14.124 7.829,14.109 7.803,14.099C7.778,14.09 7.749,14.085 7.717,14.085L7.576,14.085L7.576,14.848L7.405,14.848L7.405,13.054L7.841,13.054C7.905,13.054 7.964,13.064 8.018,13.083C8.072,13.103 8.119,13.133 8.159,13.173C8.199,13.213 8.23,13.263 8.252,13.322C8.275,13.382 8.286,13.452 8.286,13.532C8.286,13.595 8.278,13.652 8.263,13.704C8.248,13.756 8.226,13.803 8.198,13.843C8.17,13.884 8.136,13.919 8.096,13.948C8.056,13.977 8.011,13.999 7.962,14.015L7.962,14.02C7.986,14.033 8.007,14.048 8.025,14.066C8.043,14.083 8.061,14.103 8.077,14.126C8.093,14.15 8.109,14.176 8.125,14.206C8.141,14.235 8.159,14.27 8.179,14.309L8.453,14.848ZM7.576,13.244L7.576,13.895L7.809,13.895C7.852,13.895 7.891,13.887 7.928,13.871C7.964,13.855 7.995,13.832 8.022,13.803C8.048,13.773 8.069,13.737 8.084,13.694C8.099,13.651 8.106,13.603 8.106,13.549C8.106,13.454 8.081,13.379 8.031,13.325C7.98,13.271 7.907,13.244 7.811,13.244L7.576,13.244Z" style="fill-rule:nonzero;"/>
    <path d="M9.409,14.259L8.672,14.259C8.675,14.401 8.706,14.512 8.766,14.589C8.826,14.667 8.908,14.705 9.013,14.705C9.13,14.705 9.238,14.658 9.337,14.563L9.337,14.755C9.245,14.837 9.124,14.878 8.973,14.878C8.825,14.878 8.71,14.82 8.625,14.704C8.541,14.587 8.499,14.424 8.499,14.213C8.499,14.013 8.545,13.851 8.637,13.725C8.729,13.6 8.843,13.537 8.98,13.537C9.117,13.537 9.222,13.591 9.297,13.7C9.372,13.808 9.409,13.959 9.409,14.151L9.409,14.259ZM9.238,14.085C9.237,13.966 9.214,13.874 9.168,13.808C9.122,13.743 9.058,13.71 8.977,13.71C8.898,13.71 8.831,13.744 8.776,13.813C8.721,13.883 8.687,13.973 8.674,14.085L9.238,14.085Z" style="fill-rule:nonzero;"/>
    <path d="M10.553,15.437L10.386,15.437L10.386,14.628L10.381,14.628C10.309,14.795 10.19,14.878 10.025,14.878C9.894,14.878 9.788,14.821 9.709,14.706C9.63,14.591 9.591,14.435 9.591,14.238C9.591,14.025 9.634,13.855 9.721,13.728C9.808,13.601 9.925,13.537 10.072,13.537C10.214,13.537 10.318,13.606 10.381,13.745L10.386,13.745L10.386,13.567L10.553,13.567L10.553,15.437ZM10.386,14.271L10.386,14.085C10.386,13.98 10.357,13.891 10.301,13.818C10.245,13.746 10.174,13.71 10.088,13.71C9.987,13.71 9.908,13.755 9.849,13.847C9.791,13.938 9.762,14.067 9.762,14.233C9.762,14.38 9.79,14.496 9.846,14.58C9.903,14.664 9.975,14.705 10.064,14.705C10.162,14.705 10.24,14.664 10.298,14.582C10.356,14.5 10.386,14.396 10.386,14.271Z" style="fill-rule:nonzero;"/>
    <path d="M11.735,14.848L11.568,14.848L11.568,14.645L11.564,14.645C11.494,14.8 11.387,14.878 11.242,14.878C10.993,14.878 10.869,14.696 10.869,14.333L10.869,13.567L11.035,13.567L11.035,14.3C11.035,14.57 11.119,14.705 11.288,14.705C11.369,14.705 11.436,14.669 11.489,14.595C11.541,14.521 11.568,14.424 11.568,14.305L11.568,13.567L11.735,13.567L11.735,14.848Z" style="fill-rule:nonzero;"/>
    <path d="M12.158,13.242C12.128,13.242 12.103,13.229 12.082,13.204C12.06,13.179 12.05,13.147 12.05,13.109C12.05,13.071 12.06,13.039 12.082,13.013C12.103,12.988 12.128,12.975 12.158,12.975C12.189,12.975 12.215,12.988 12.236,13.013C12.257,13.039 12.268,13.071 12.268,13.109C12.268,13.146 12.257,13.177 12.236,13.203C12.215,13.229 12.189,13.242 12.158,13.242ZM12.24,14.848L12.072,14.848L12.072,13.567L12.24,13.567L12.24,14.848Z" style="fill-rule:nonzero;"/>
    <path d="M13.417,14.259L12.68,14.259C12.683,14.401 12.714,14.512 12.774,14.589C12.833,14.667 12.916,14.705 13.02,14.705C13.138,14.705 13.246,14.658 13.344,14.563L13.344,14.755C13.253,14.837 13.131,14.878 12.98,14.878C12.833,14.878 12.717,14.82 12.633,14.704C12.549,14.587 12.507,14.424 12.507,14.213C12.507,14.013 12.553,13.851 12.645,13.725C12.737,13.6 12.851,13.537 12.988,13.537C13.124,13.537 13.23,13.591 13.305,13.7C13.379,13.808 13.417,13.959 13.417,14.151L13.417,14.259ZM13.245,14.085C13.245,13.966 13.222,13.874 13.176,13.808C13.13,13.743 13.066,13.71 12.985,13.71C12.906,13.71 12.839,13.744 12.784,13.813C12.729,13.883 12.695,13.973 12.682,14.085L13.245,14.085Z" style="fill-rule:nonzero;"/>
    <path d="M15.151,14.848L14.984,14.848L14.984,14.112C14.984,13.971 14.966,13.868 14.931,13.805C14.895,13.741 14.835,13.71 14.751,13.71C14.68,13.71 14.619,13.75 14.569,13.83C14.519,13.91 14.494,14.006 14.494,14.117L14.494,14.848L14.327,14.848L14.327,14.087C14.327,13.836 14.248,13.71 14.089,13.71C14.016,13.71 13.956,13.747 13.908,13.823C13.86,13.898 13.837,13.997 13.837,14.117L13.837,14.848L13.669,14.848L13.669,13.567L13.837,13.567L13.837,13.77L13.841,13.77C13.915,13.615 14.023,13.537 14.165,13.537C14.236,13.537 14.298,13.561 14.351,13.61C14.404,13.659 14.441,13.723 14.46,13.802C14.538,13.625 14.653,13.537 14.807,13.537C15.037,13.537 15.151,13.711 15.151,14.059L15.151,14.848Z" style="fill-rule:nonzero;"/>
    <path d="M8.4,17.679C8.292,17.75 8.157,17.785 7.996,17.785C7.788,17.785 7.622,17.702 7.497,17.538C7.372,17.374 7.309,17.158 7.309,16.891C7.309,16.604 7.38,16.373 7.52,16.196C7.661,16.019 7.839,15.931 8.056,15.931C8.194,15.931 8.309,15.955 8.4,16.004L8.4,16.228C8.295,16.157 8.18,16.121 8.053,16.121C7.886,16.121 7.75,16.19 7.645,16.327C7.541,16.465 7.489,16.649 7.489,16.879C7.489,17.097 7.538,17.271 7.635,17.401C7.733,17.531 7.861,17.596 8.019,17.596C8.166,17.596 8.293,17.556 8.4,17.476L8.4,17.679Z" style="fill-rule:nonzero;"/>
    <path d="M9.111,17.785C8.957,17.785 8.834,17.725 8.742,17.605C8.65,17.485 8.604,17.327 8.604,17.129C8.604,16.914 8.652,16.746 8.748,16.625C8.843,16.504 8.973,16.443 9.136,16.443C9.292,16.443 9.413,16.502 9.5,16.62C9.588,16.737 9.631,16.901 9.631,17.109C9.631,17.313 9.584,17.477 9.49,17.6C9.396,17.723 9.27,17.785 9.111,17.785ZM9.124,16.616C9.016,16.616 8.931,16.661 8.869,16.751C8.806,16.84 8.775,16.964 8.775,17.122C8.775,17.273 8.807,17.393 8.87,17.481C8.933,17.568 9.018,17.612 9.124,17.612C9.232,17.612 9.315,17.569 9.373,17.483C9.431,17.397 9.46,17.275 9.46,17.117C9.46,16.956 9.431,16.833 9.373,16.746C9.315,16.66 9.232,16.616 9.124,16.616Z" style="fill-rule:nonzero;"/>
    <path d="M10.765,17.755L10.598,17.755L10.598,17.024C10.598,16.752 10.517,16.616 10.355,16.616C10.271,16.616 10.202,16.655 10.148,16.732C10.093,16.809 10.065,16.906 10.065,17.024L10.065,17.755L9.898,17.755L9.898,16.474L10.065,16.474L10.065,16.686L10.07,16.686C10.148,16.524 10.263,16.443 10.412,16.443C10.526,16.443 10.613,16.489 10.674,16.579C10.734,16.67 10.765,16.8 10.765,16.971L10.765,17.755Z" style="fill-rule:nonzero;"/>
    <path d="M11.791,17.696C11.711,17.755 11.616,17.785 11.506,17.785C11.357,17.785 11.237,17.725 11.145,17.606C11.054,17.487 11.008,17.333 11.008,17.144C11.008,16.933 11.058,16.764 11.156,16.636C11.255,16.508 11.386,16.443 11.55,16.443C11.642,16.443 11.723,16.464 11.793,16.506L11.793,16.716C11.716,16.649 11.633,16.616 11.544,16.616C11.438,16.616 11.35,16.663 11.282,16.757C11.214,16.851 11.179,16.974 11.179,17.127C11.179,17.277 11.212,17.395 11.276,17.482C11.34,17.569 11.426,17.612 11.534,17.612C11.625,17.612 11.711,17.575 11.791,17.501L11.791,17.696Z" style="fill-rule:nonzero;"/>
    <path d="M12.883,17.165L12.146,17.165C12.148,17.308 12.18,17.418 12.24,17.496C12.299,17.573 12.382,17.612 12.486,17.612C12.604,17.612 12.712,17.564 12.81,17.469L12.81,17.662C12.719,17.744 12.597,17.785 12.446,17.785C12.299,17.785 12.183,17.726 12.099,17.61C12.015,17.494 11.972,17.33 11.972,17.119C11.972,16.92 12.018,16.757 12.111,16.632C12.203,16.506 12.317,16.443 12.454,16.443C12.59,16.443 12.696,16.498 12.771,16.606C12.845,16.715 12.883,16.865 12.883,17.058L12.883,17.165ZM12.711,16.991C12.711,16.873 12.687,16.781 12.642,16.715C12.596,16.649 12.532,16.616 12.45,16.616C12.372,16.616 12.305,16.651 12.25,16.72C12.195,16.789 12.161,16.88 12.148,16.991L12.711,16.991Z" style="fill-rule:nonzero;"/>
    <path d="M13.68,16.681C13.65,16.654 13.608,16.64 13.553,16.64C13.482,16.64 13.422,16.681 13.374,16.764C13.327,16.846 13.303,16.959 13.303,17.102L13.303,17.755L13.135,17.755L13.135,16.474L13.303,16.474L13.303,16.737L13.307,16.737C13.33,16.647 13.367,16.577 13.416,16.527C13.465,16.476 13.519,16.451 13.58,16.451C13.623,16.451 13.657,16.457 13.68,16.469L13.68,16.681Z" style="fill-rule:nonzero;"/>
    <path d="M14.345,17.742C14.306,17.769 14.254,17.782 14.189,17.782C14.007,17.782 13.915,17.657 13.915,17.407L13.915,16.649L13.736,16.649L13.736,16.474L13.915,16.474L13.915,16.161L14.082,16.094L14.082,16.474L14.345,16.474L14.345,16.649L14.082,16.649L14.082,17.37C14.082,17.456 14.094,17.518 14.118,17.554C14.142,17.591 14.181,17.609 14.236,17.609C14.278,17.609 14.315,17.595 14.345,17.567L14.345,17.742Z" style="fill-rule:nonzero;"/>
    <path d="M15.005,17.785C14.85,17.785 14.727,17.725 14.635,17.605C14.543,17.485 14.497,17.327 14.497,17.129C14.497,16.914 14.545,16.746 14.641,16.625C14.737,16.504 14.866,16.443 15.029,16.443C15.185,16.443 15.306,16.502 15.394,16.62C15.481,16.737 15.525,16.901 15.525,17.109C15.525,17.313 15.477,17.477 15.383,17.6C15.289,17.723 15.163,17.785 15.005,17.785ZM15.017,16.616C14.91,16.616 14.825,16.661 14.762,16.751C14.7,16.84 14.668,16.964 14.668,17.122C14.668,17.273 14.7,17.393 14.763,17.481C14.826,17.568 14.911,17.612 15.017,17.612C15.125,17.612 15.208,17.569 15.266,17.483C15.324,17.397 15.353,17.275 15.353,17.117C15.353,16.956 15.324,16.833 15.266,16.746C15.208,16.66 15.125,16.616 15.017,16.616Z" style="fill-rule:nonzero;"/>
    <path d="M18,14.911L18,13.117L18.416,13.117C18.542,13.117 18.642,13.155 18.717,13.231C18.791,13.307 18.828,13.405 18.828,13.527C18.828,13.629 18.805,13.717 18.76,13.792C18.716,13.867 18.654,13.921 18.575,13.953L18.575,13.958C18.673,13.972 18.752,14.017 18.811,14.094C18.87,14.172 18.9,14.272 18.9,14.395C18.9,14.549 18.855,14.673 18.765,14.768C18.676,14.863 18.563,14.911 18.426,14.911L18,14.911ZM18.171,13.307L18.171,13.886L18.347,13.886C18.44,13.886 18.514,13.858 18.568,13.803C18.621,13.748 18.648,13.669 18.648,13.568C18.648,13.394 18.555,13.307 18.368,13.307L18.171,13.307ZM18.171,14.075L18.171,14.721L18.404,14.721C18.504,14.721 18.582,14.691 18.638,14.633C18.693,14.575 18.721,14.495 18.721,14.393C18.721,14.181 18.603,14.075 18.368,14.075L18.171,14.075Z" style="fill-rule:nonzero;"/>
    <path d="M19.718,13.837C19.689,13.81 19.647,13.796 19.592,13.796C19.521,13.796 19.461,13.837 19.413,13.92C19.365,14.003 19.341,14.115 19.341,14.258L19.341,14.911L19.174,14.911L19.174,13.63L19.341,13.63L19.341,13.894L19.345,13.894C19.369,13.804 19.406,13.733 19.454,13.683C19.503,13.632 19.558,13.607 19.619,13.607C19.662,13.607 19.695,13.613 19.718,13.625L19.718,13.837Z" style="fill-rule:nonzero;"/>
    <path d="M20.647,14.911L20.48,14.911L20.48,14.711L20.476,14.711C20.403,14.864 20.296,14.941 20.155,14.941C20.051,14.941 19.969,14.907 19.911,14.839C19.852,14.772 19.822,14.682 19.822,14.571C19.822,14.331 19.937,14.192 20.167,14.153L20.48,14.099C20.48,13.881 20.408,13.772 20.265,13.772C20.139,13.772 20.026,13.825 19.924,13.93L19.924,13.72C20.027,13.64 20.145,13.6 20.279,13.6C20.524,13.6 20.647,13.759 20.647,14.078L20.647,14.911ZM20.48,14.263L20.228,14.305C20.151,14.319 20.092,14.342 20.053,14.376C20.013,14.41 19.994,14.47 19.994,14.555C19.994,14.618 20.012,14.669 20.048,14.709C20.085,14.748 20.133,14.768 20.193,14.768C20.276,14.768 20.345,14.733 20.399,14.661C20.453,14.59 20.48,14.5 20.48,14.39L20.48,14.263Z" style="fill-rule:nonzero;"/>
    <path d="M21.828,14.911L21.661,14.911L21.661,14.173C21.661,13.906 21.58,13.772 21.419,13.772C21.337,13.772 21.268,13.811 21.213,13.888C21.157,13.965 21.129,14.064 21.129,14.185L21.129,14.911L20.962,14.911L20.962,13.014L21.129,13.014L21.129,13.842L21.133,13.842C21.213,13.681 21.327,13.6 21.476,13.6C21.711,13.6 21.828,13.774 21.828,14.121L21.828,14.911Z" style="fill-rule:nonzero;"/>
    <path d="M23.625,14.911L23.458,14.911L23.458,14.175C23.458,14.033 23.44,13.931 23.405,13.867C23.369,13.804 23.309,13.772 23.225,13.772C23.153,13.772 23.093,13.812 23.043,13.892C22.993,13.973 22.968,14.068 22.968,14.18L22.968,14.911L22.801,14.911L22.801,14.15C22.801,13.898 22.721,13.772 22.563,13.772C22.49,13.772 22.429,13.81 22.382,13.886C22.334,13.961 22.31,14.059 22.31,14.18L22.31,14.911L22.143,14.911L22.143,13.63L22.31,13.63L22.31,13.832L22.314,13.832C22.388,13.677 22.497,13.6 22.639,13.6C22.71,13.6 22.772,13.624 22.825,13.673C22.878,13.722 22.914,13.786 22.934,13.865C23.012,13.688 23.127,13.6 23.281,13.6C23.51,13.6 23.625,13.774 23.625,14.121L23.625,14.911Z" style="fill-rule:nonzero;"/>
    <path d="M23.878,14.864L23.878,14.644C23.969,14.727 24.069,14.768 24.179,14.768C24.325,14.768 24.399,14.708 24.399,14.588C24.399,14.554 24.392,14.525 24.38,14.501C24.367,14.477 24.35,14.456 24.329,14.438C24.308,14.42 24.282,14.403 24.254,14.388C24.225,14.374 24.194,14.359 24.16,14.343C24.114,14.32 24.073,14.298 24.038,14.275C24.003,14.252 23.974,14.226 23.951,14.197C23.927,14.168 23.91,14.136 23.898,14.099C23.886,14.062 23.88,14.019 23.88,13.97C23.88,13.91 23.891,13.857 23.914,13.811C23.936,13.764 23.966,13.725 24.003,13.694C24.041,13.663 24.083,13.639 24.131,13.623C24.179,13.608 24.229,13.6 24.28,13.6C24.37,13.6 24.451,13.619 24.522,13.657L24.522,13.865C24.445,13.803 24.357,13.772 24.257,13.772C24.226,13.772 24.198,13.777 24.173,13.785C24.147,13.794 24.126,13.807 24.108,13.822C24.09,13.838 24.076,13.857 24.066,13.879C24.056,13.901 24.051,13.926 24.051,13.953C24.051,13.986 24.056,14.014 24.066,14.036C24.076,14.059 24.09,14.079 24.109,14.096C24.128,14.114 24.151,14.13 24.179,14.144C24.206,14.158 24.237,14.174 24.271,14.19C24.318,14.212 24.359,14.234 24.396,14.257C24.432,14.28 24.464,14.306 24.489,14.335C24.515,14.363 24.535,14.397 24.549,14.434C24.563,14.472 24.57,14.516 24.57,14.568C24.57,14.631 24.559,14.686 24.536,14.733C24.513,14.78 24.483,14.819 24.445,14.849C24.407,14.88 24.363,14.903 24.313,14.918C24.264,14.933 24.212,14.941 24.157,14.941C24.05,14.941 23.957,14.915 23.878,14.864Z" style="fill-rule:nonzero;"/>
    <path d="M18,17.911L18,16.117L18.416,16.117C18.542,16.117 18.642,16.155 18.717,16.231C18.791,16.307 18.828,16.405 18.828,16.527C18.828,16.629 18.805,16.717 18.76,16.792C18.716,16.867 18.654,16.921 18.575,16.953L18.575,16.958C18.673,16.972 18.752,17.017 18.811,17.094C18.87,17.172 18.9,17.272 18.9,17.395C18.9,17.549 18.855,17.673 18.765,17.768C18.676,17.863 18.563,17.911 18.426,17.911L18,17.911ZM18.171,16.307L18.171,16.886L18.347,16.886C18.44,16.886 18.514,16.858 18.568,16.803C18.621,16.748 18.648,16.669 18.648,16.568C18.648,16.394 18.555,16.307 18.368,16.307L18.171,16.307ZM18.171,17.075L18.171,17.721L18.404,17.721C18.504,17.721 18.582,17.691 18.638,17.633C18.693,17.575 18.721,17.495 18.721,17.393C18.721,17.181 18.603,17.075 18.368,17.075L18.171,17.075Z" style="fill-rule:nonzero;"/>
    <path d="M20.013,17.322L19.276,17.322C19.279,17.464 19.31,17.574 19.37,17.652C19.43,17.729 19.512,17.768 19.617,17.768C19.734,17.768 19.842,17.721 19.941,17.626L19.941,17.818C19.849,17.9 19.728,17.941 19.577,17.941C19.429,17.941 19.313,17.883 19.229,17.766C19.145,17.65 19.103,17.486 19.103,17.275C19.103,17.076 19.149,16.914 19.241,16.788C19.333,16.662 19.447,16.6 19.584,16.6C19.72,16.6 19.826,16.654 19.901,16.762C19.976,16.871 20.013,17.021 20.013,17.214L20.013,17.322ZM19.842,17.148C19.841,17.029 19.818,16.937 19.772,16.871C19.726,16.805 19.662,16.772 19.581,16.772C19.502,16.772 19.435,16.807 19.38,16.876C19.325,16.945 19.291,17.036 19.278,17.148L19.842,17.148Z" style="fill-rule:nonzero;"/>
    <path d="M21.105,17.322L20.368,17.322C20.37,17.464 20.402,17.574 20.461,17.652C20.521,17.729 20.603,17.768 20.708,17.768C20.826,17.768 20.934,17.721 21.032,17.626L21.032,17.818C20.941,17.9 20.819,17.941 20.668,17.941C20.521,17.941 20.405,17.883 20.321,17.766C20.237,17.65 20.194,17.486 20.194,17.275C20.194,17.076 20.24,16.914 20.333,16.788C20.425,16.662 20.539,16.6 20.675,16.6C20.812,16.6 20.918,16.654 20.992,16.762C21.067,16.871 21.105,17.021 21.105,17.214L21.105,17.322ZM20.933,17.148C20.933,17.029 20.909,16.937 20.864,16.871C20.818,16.805 20.754,16.772 20.672,16.772C20.594,16.772 20.527,16.807 20.472,16.876C20.417,16.945 20.383,17.036 20.37,17.148L20.933,17.148Z" style="fill-rule:nonzero;"/>
    <path d="M21.842,17.898C21.802,17.925 21.75,17.938 21.686,17.938C21.503,17.938 21.411,17.813 21.411,17.563L21.411,16.805L21.232,16.805L21.232,16.63L21.411,16.63L21.411,16.317L21.579,16.251L21.579,16.63L21.842,16.63L21.842,16.805L21.579,16.805L21.579,17.527C21.579,17.613 21.59,17.674 21.614,17.711C21.638,17.747 21.677,17.766 21.732,17.766C21.775,17.766 21.811,17.751 21.842,17.723L21.842,17.898Z" style="fill-rule:nonzero;"/>
    <path d="M22.931,17.911L22.764,17.911L22.764,17.173C22.764,16.906 22.683,16.772 22.521,16.772C22.44,16.772 22.371,16.811 22.315,16.888C22.26,16.965 22.232,17.064 22.232,17.185L22.232,17.911L22.065,17.911L22.065,16.014L22.232,16.014L22.232,16.842L22.236,16.842C22.316,16.681 22.43,16.6 22.578,16.6C22.814,16.6 22.931,16.774 22.931,17.121L22.931,17.911Z" style="fill-rule:nonzero;"/>
    <path d="M23.682,17.941C23.528,17.941 23.405,17.881 23.313,17.761C23.221,17.642 23.175,17.483 23.175,17.285C23.175,17.07 23.223,16.902 23.318,16.781C23.414,16.66 23.544,16.6 23.707,16.6C23.862,16.6 23.984,16.659 24.071,16.776C24.158,16.894 24.202,17.057 24.202,17.265C24.202,17.47 24.155,17.633 24.061,17.756C23.967,17.879 23.841,17.941 23.682,17.941ZM23.694,16.772C23.587,16.772 23.502,16.817 23.44,16.907C23.377,16.996 23.346,17.12 23.346,17.278C23.346,17.43 23.377,17.549 23.441,17.637C23.504,17.724 23.588,17.768 23.694,17.768C23.803,17.768 23.886,17.725 23.944,17.639C24.002,17.553 24.031,17.431 24.031,17.273C24.031,17.113 24.002,16.989 23.944,16.902C23.886,16.816 23.803,16.772 23.694,16.772Z" style="fill-rule:nonzero;"/>
    <path d="M25.29,16.63L24.874,17.911L24.71,17.911L24.314,16.63L24.498,16.63L24.763,17.56C24.782,17.629 24.795,17.689 24.799,17.739L24.803,17.739C24.81,17.675 24.821,17.617 24.836,17.565L25.113,16.63L25.29,16.63Z" style="fill-rule:nonzero;"/>
    <path d="M26.308,17.322L25.571,17.322C25.574,17.464 25.605,17.574 25.665,17.652C25.724,17.729 25.807,17.768 25.911,17.768C26.029,17.768 26.137,17.721 26.235,17.626L26.235,17.818C26.144,17.9 26.022,17.941 25.872,17.941C25.724,17.941 25.608,17.883 25.524,17.766C25.44,17.65 25.398,17.486 25.398,17.275C25.398,17.076 25.444,16.914 25.536,16.788C25.628,16.662 25.742,16.6 25.879,16.6C26.015,16.6 26.121,16.654 26.196,16.762C26.27,16.871 26.308,17.021 26.308,17.214L26.308,17.322ZM26.137,17.148C26.136,17.029 26.113,16.937 26.067,16.871C26.021,16.805 25.957,16.772 25.876,16.772C25.797,16.772 25.73,16.807 25.675,16.876C25.62,16.945 25.586,17.036 25.573,17.148L26.137,17.148Z" style="fill-rule:nonzero;"/>
    <path d="M27.427,17.911L27.26,17.911L27.26,17.18C27.26,16.908 27.179,16.772 27.017,16.772C26.934,16.772 26.864,16.811 26.81,16.888C26.755,16.965 26.728,17.063 26.728,17.18L26.728,17.911L26.561,17.911L26.561,16.63L26.728,16.63L26.728,16.842L26.732,16.842C26.811,16.681 26.925,16.6 27.074,16.6C27.188,16.6 27.276,16.645 27.336,16.735C27.397,16.826 27.427,16.957 27.427,17.128L27.427,17.911Z" style="fill-rule:nonzero;"/>
</svg>
