<?xml version="1.0" encoding="UTF-8" standalone="no"?>
<!DOCTYPE svg PUBLIC "-//W3C//DTD SVG 1.1//EN" "http://www.w3.org/Graphics/SVG/1.1/DTD/svg11.dtd">
<svg width="30px" height="30px" version="1.1" xmlns="http://www.w3.org/2000/svg" xmlns:xlink="http://www.w3.org/1999/xlink" xml:space="preserve" xmlns:serif="http://www.serif.com/" style="fill-rule:evenodd;clip-rule:evenodd;stroke-linejoin:round;stroke-miterlimit:2;">
    <rect id="outer" x="0" y="0.459" width="30" height="30" style="fill:white;stroke:rgb(126,126,126);stroke-width:0.54px;"/>
    <g id="title">
        <rect x="0.255" y="0.255" width="29.473" height="6.245" style="fill:none;stroke:rgb(128,128,128);stroke-width:0.5px;stroke-linecap:round;stroke-miterlimit:1.5;"/>
        <path d="M3.617,1.774L2.643,1.774L2.643,5.476L2.248,5.476L2.248,1.774L1.276,1.774L1.276,1.335L3.617,1.335L3.617,1.774Z" style="fill-rule:nonzero;"/>
        <path d="M4.292,1.769C4.223,1.769 4.164,1.74 4.116,1.682C4.067,1.624 4.043,1.551 4.043,1.462C4.043,1.374 4.067,1.3 4.116,1.242C4.164,1.183 4.223,1.153 4.292,1.153C4.363,1.153 4.423,1.183 4.472,1.242C4.522,1.3 4.546,1.374 4.546,1.462C4.546,1.547 4.522,1.619 4.472,1.679C4.423,1.739 4.363,1.769 4.292,1.769ZM4.481,5.476L4.095,5.476L4.095,2.519L4.481,2.519L4.481,5.476Z" style="fill-rule:nonzero;"/>
        <path d="M6.379,5.447C6.288,5.509 6.168,5.539 6.019,5.539C5.597,5.539 5.386,5.251 5.386,4.673L5.386,2.923L4.972,2.923L4.972,2.519L5.386,2.519L5.386,1.797L5.772,1.644L5.772,2.519L6.379,2.519L6.379,2.923L5.772,2.923L5.772,4.59C5.772,4.788 5.799,4.929 5.854,5.014C5.909,5.099 6,5.141 6.127,5.141C6.224,5.141 6.308,5.108 6.379,5.043L6.379,5.447Z" style="fill-rule:nonzero;"/>
        <rect x="6.894" y="1.099" width="0.386" height="4.377"/>
        <path d="M9.997,4.116L8.296,4.116C8.302,4.445 8.375,4.699 8.513,4.878C8.651,5.057 8.84,5.147 9.082,5.147C9.353,5.147 9.603,5.037 9.83,4.818L9.83,5.262C9.618,5.451 9.338,5.545 8.99,5.545C8.65,5.545 8.382,5.411 8.188,5.142C7.994,4.874 7.896,4.496 7.896,4.009C7.896,3.549 8.003,3.174 8.215,2.884C8.428,2.595 8.691,2.45 9.007,2.45C9.322,2.45 9.566,2.575 9.738,2.825C9.911,3.076 9.997,3.423 9.997,3.868L9.997,4.116ZM9.602,3.715C9.6,3.441 9.547,3.229 9.441,3.077C9.335,2.924 9.188,2.848 9,2.848C8.818,2.848 8.663,2.928 8.536,3.088C8.409,3.248 8.331,3.457 8.301,3.715L9.602,3.715Z" style="fill-rule:nonzero;"/>
        <path d="M19.987,5.476L19.549,5.476L19.192,4.315L17.761,4.315L17.425,5.476L16.985,5.476L18.279,1.335L18.688,1.335L19.987,5.476ZM19.062,3.879L18.533,2.115C18.516,2.057 18.498,1.965 18.481,1.838L18.472,1.838C18.456,1.955 18.438,2.048 18.418,2.115L17.893,3.879L19.062,3.879Z" style="fill-rule:nonzero;"/>
        <path d="M21.688,2.999C21.62,2.935 21.523,2.903 21.396,2.903C21.231,2.903 21.094,2.999 20.983,3.189C20.872,3.38 20.817,3.64 20.817,3.969L20.817,5.476L20.431,5.476L20.431,2.519L20.817,2.519L20.817,3.128L20.827,3.128C20.881,2.921 20.965,2.758 21.078,2.642C21.191,2.525 21.317,2.467 21.457,2.467C21.557,2.467 21.634,2.481 21.688,2.508L21.688,2.999Z" style="fill-rule:nonzero;"/>
        <path d="M23.224,5.447C23.133,5.509 23.013,5.539 22.864,5.539C22.442,5.539 22.231,5.251 22.231,4.673L22.231,2.923L21.817,2.923L21.817,2.519L22.231,2.519L22.231,1.797L22.617,1.644L22.617,2.519L23.224,2.519L23.224,2.923L22.617,2.923L22.617,4.59C22.617,4.788 22.644,4.929 22.699,5.014C22.754,5.099 22.845,5.141 22.972,5.141C23.069,5.141 23.153,5.108 23.224,5.043L23.224,5.447Z" style="fill-rule:nonzero;"/>
        <path d="M23.937,1.769C23.868,1.769 23.809,1.74 23.76,1.682C23.711,1.624 23.687,1.551 23.687,1.462C23.687,1.374 23.711,1.3 23.76,1.242C23.809,1.183 23.868,1.153 23.937,1.153C24.007,1.153 24.067,1.183 24.116,1.242C24.166,1.3 24.191,1.374 24.191,1.462C24.191,1.547 24.166,1.619 24.116,1.679C24.067,1.739 24.007,1.769 23.937,1.769ZM24.125,5.476L23.739,5.476L23.739,2.519L24.125,2.519L24.125,5.476Z" style="fill-rule:nonzero;"/>
        <path d="M24.76,5.369L24.76,4.861C24.97,5.051 25.201,5.147 25.454,5.147C25.793,5.147 25.962,5.008 25.962,4.731C25.962,4.652 25.947,4.585 25.918,4.53C25.889,4.475 25.85,4.427 25.801,4.385C25.751,4.342 25.693,4.304 25.627,4.27C25.56,4.237 25.488,4.202 25.412,4.165C25.305,4.113 25.211,4.061 25.13,4.008C25.05,3.955 24.982,3.895 24.928,3.829C24.874,3.762 24.833,3.687 24.806,3.602C24.778,3.517 24.765,3.418 24.765,3.305C24.765,3.166 24.79,3.043 24.842,2.936C24.894,2.83 24.963,2.74 25.049,2.668C25.135,2.596 25.234,2.541 25.344,2.505C25.455,2.468 25.569,2.45 25.687,2.45C25.895,2.45 26.082,2.494 26.247,2.583L26.247,3.062C26.069,2.92 25.866,2.848 25.635,2.848C25.563,2.848 25.498,2.859 25.44,2.879C25.382,2.899 25.332,2.927 25.29,2.964C25.249,3 25.217,3.044 25.194,3.095C25.171,3.146 25.16,3.203 25.16,3.264C25.16,3.341 25.171,3.406 25.194,3.458C25.217,3.51 25.25,3.556 25.294,3.596C25.338,3.637 25.391,3.673 25.454,3.706C25.517,3.739 25.588,3.774 25.668,3.813C25.775,3.863 25.87,3.914 25.955,3.967C26.04,4.02 26.112,4.08 26.171,4.146C26.231,4.213 26.277,4.289 26.309,4.376C26.341,4.462 26.357,4.565 26.357,4.685C26.357,4.831 26.331,4.958 26.278,5.066C26.226,5.174 26.156,5.263 26.068,5.334C25.98,5.406 25.879,5.459 25.764,5.493C25.65,5.528 25.53,5.545 25.404,5.545C25.157,5.545 24.942,5.487 24.76,5.369Z" style="fill-rule:nonzero;"/>
        <path d="M28.067,5.447C27.976,5.509 27.857,5.539 27.708,5.539C27.286,5.539 27.075,5.251 27.075,4.673L27.075,2.923L26.661,2.923L26.661,2.519L27.075,2.519L27.075,1.797L27.461,1.644L27.461,2.519L28.067,2.519L28.067,2.923L27.461,2.923L27.461,4.59C27.461,4.788 27.488,4.929 27.543,5.014C27.598,5.099 27.689,5.141 27.816,5.141C27.913,5.141 27.997,5.108 28.067,5.043L28.067,5.447Z" style="fill-rule:nonzero;"/>
        <path d="M14,0.255L14,6.5" style="fill:none;stroke:rgb(128,128,128);stroke-width:0.5px;stroke-linecap:round;stroke-miterlimit:1.5;"/>
    </g>
    <rect x="6.593" y="7.234" width="7.079" height="20.921" style="fill:rgb(88,115,242);"/>
    <rect x="6.593" y="7.234" width="16.244" height="4.94" style="fill:none;stroke:rgb(129,129,129);stroke-width:0.35px;stroke-linecap:round;stroke-miterlimit:1.5;"/>
    <path d="M7.401,16.236L6.5,16.236L6.5,12.472L6.703,12.472L6.703,15.837L7.401,15.837L7.401,16.236Z" style="fill-rule:nonzero;"/>
    <path d="M8.159,16.299C7.976,16.299 7.829,16.173 7.72,15.922C7.611,15.672 7.556,15.339 7.556,14.924C7.556,14.473 7.613,14.12 7.727,13.866C7.84,13.612 7.994,13.485 8.188,13.485C8.373,13.485 8.517,13.609 8.621,13.856C8.725,14.102 8.777,14.444 8.777,14.881C8.777,15.31 8.721,15.654 8.609,15.912C8.497,16.17 8.347,16.299 8.159,16.299ZM8.174,13.848C8.046,13.848 7.945,13.942 7.871,14.129C7.796,14.318 7.759,14.577 7.759,14.908C7.759,15.226 7.797,15.478 7.872,15.661C7.947,15.845 8.048,15.937 8.174,15.937C8.302,15.937 8.401,15.846 8.47,15.667C8.539,15.486 8.573,15.23 8.573,14.897C8.573,14.562 8.539,14.303 8.47,14.121C8.401,13.938 8.302,13.848 8.174,13.848Z" style="fill-rule:nonzero;"/>
    <path d="M9.741,13.984C9.706,13.926 9.656,13.898 9.591,13.898C9.506,13.898 9.435,13.984 9.378,14.158C9.321,14.33 9.293,14.567 9.293,14.866L9.293,16.236L9.094,16.236L9.094,13.548L9.293,13.548L9.293,14.102L9.298,14.102C9.326,13.913 9.369,13.766 9.427,13.66C9.485,13.554 9.55,13.501 9.622,13.501C9.674,13.501 9.713,13.514 9.741,13.538L9.741,13.984Z" style="fill-rule:nonzero;"/>
    <path d="M10.953,15L10.077,15C10.081,15.299 10.118,15.53 10.189,15.693C10.26,15.856 10.358,15.937 10.482,15.937C10.622,15.937 10.75,15.837 10.867,15.637L10.867,16.042C10.758,16.213 10.614,16.299 10.435,16.299C10.26,16.299 10.122,16.177 10.022,15.933C9.922,15.688 9.872,15.345 9.872,14.903C9.872,14.485 9.926,14.144 10.036,13.881C10.145,13.617 10.281,13.485 10.443,13.485C10.606,13.485 10.731,13.599 10.82,13.826C10.909,14.054 10.953,14.369 10.953,14.775L10.953,15ZM10.75,14.635C10.749,14.386 10.721,14.193 10.667,14.054C10.612,13.917 10.537,13.848 10.44,13.848C10.346,13.848 10.266,13.92 10.201,14.065C10.136,14.21 10.095,14.4 10.08,14.635L10.75,14.635Z" style="fill-rule:nonzero;"/>
    <path d="M13.015,16.236L12.816,16.236L12.816,14.693C12.816,14.395 12.795,14.18 12.752,14.047C12.71,13.914 12.639,13.848 12.539,13.848C12.454,13.848 12.382,13.932 12.322,14.1C12.263,14.267 12.233,14.469 12.233,14.703L12.233,16.236L12.035,16.236L12.035,14.64C12.035,14.111 11.941,13.848 11.753,13.848C11.665,13.848 11.593,13.927 11.537,14.085C11.48,14.243 11.452,14.449 11.452,14.703L11.452,16.236L11.254,16.236L11.254,13.548L11.452,13.548L11.452,13.974L11.457,13.974C11.545,13.648 11.673,13.485 11.842,13.485C11.927,13.485 12.001,13.536 12.064,13.639C12.127,13.741 12.17,13.875 12.193,14.041C12.285,13.671 12.423,13.485 12.605,13.485C12.878,13.485 13.015,13.85 13.015,14.58L13.015,16.236Z" style="fill-rule:nonzero;"/>
    <path d="M8.278,11.581L7.51,11.581L7.51,7.816L7.683,7.816L7.683,11.181L8.278,11.181L8.278,11.581Z" style="fill-rule:nonzero;"/>
    <path d="M8.924,11.643C8.768,11.643 8.643,11.518 8.55,11.267C8.456,11.016 8.41,10.683 8.41,10.269C8.41,9.817 8.458,9.464 8.555,9.21C8.652,8.957 8.783,8.83 8.949,8.83C9.106,8.83 9.229,8.953 9.317,9.199C9.406,9.446 9.45,9.789 9.45,10.226C9.45,10.655 9.403,10.998 9.307,11.256C9.212,11.514 9.084,11.643 8.924,11.643ZM8.936,9.192C8.828,9.192 8.742,9.286 8.678,9.474C8.615,9.663 8.584,9.922 8.584,10.252C8.584,10.571 8.615,10.822 8.679,11.005C8.744,11.19 8.829,11.281 8.936,11.281C9.046,11.281 9.13,11.191 9.189,11.011C9.247,10.831 9.277,10.574 9.277,10.241C9.277,9.906 9.247,9.647 9.189,9.465C9.13,9.282 9.046,9.192 8.936,9.192Z" style="fill-rule:nonzero;"/>
    <path d="M10.271,9.329C10.242,9.271 10.199,9.242 10.144,9.242C10.072,9.242 10.011,9.329 9.962,9.502C9.914,9.675 9.89,9.911 9.89,10.21L9.89,11.581L9.721,11.581L9.721,8.893L9.89,8.893L9.89,9.446L9.894,9.446C9.918,9.257 9.955,9.11 10.004,9.004C10.054,8.899 10.109,8.845 10.17,8.845C10.215,8.845 10.248,8.858 10.271,8.882L10.271,9.329Z" style="fill-rule:nonzero;"/>
    <path d="M11.304,10.345L10.559,10.345C10.561,10.643 10.593,10.875 10.654,11.037C10.714,11.2 10.798,11.281 10.904,11.281C11.022,11.281 11.132,11.181 11.231,10.982L11.231,11.387C11.139,11.558 11.016,11.643 10.863,11.643C10.714,11.643 10.596,11.521 10.511,11.278C10.426,11.033 10.383,10.689 10.383,10.247C10.383,9.829 10.43,9.488 10.523,9.224C10.616,8.962 10.732,8.83 10.87,8.83C11.008,8.83 11.116,8.944 11.191,9.171C11.267,9.399 11.304,9.714 11.304,10.119L11.304,10.345ZM11.132,9.98C11.13,9.73 11.107,9.538 11.06,9.399C11.014,9.261 10.95,9.192 10.867,9.192C10.787,9.192 10.72,9.265 10.664,9.41C10.608,9.555 10.574,9.745 10.56,9.98L11.132,9.98Z" style="fill-rule:nonzero;"/>
    <path d="M13.061,11.581L12.892,11.581L12.892,10.037C12.892,9.74 12.874,9.525 12.838,9.392C12.801,9.259 12.741,9.192 12.656,9.192C12.584,9.192 12.522,9.277 12.471,9.444C12.421,9.612 12.395,9.814 12.395,10.048L12.395,11.581L12.226,11.581L12.226,9.985C12.226,9.456 12.146,9.192 11.986,9.192C11.912,9.192 11.851,9.272 11.802,9.43C11.754,9.588 11.73,9.793 11.73,10.048L11.73,11.581L11.561,11.581L11.561,8.893L11.73,8.893L11.73,9.318L11.734,9.318C11.809,8.993 11.919,8.83 12.062,8.83C12.135,8.83 12.198,8.881 12.251,8.983C12.305,9.085 12.341,9.219 12.361,9.386C12.44,9.015 12.557,8.83 12.712,8.83C12.945,8.83 13.061,9.195 13.061,9.924L13.061,11.581Z" style="fill-rule:nonzero;"/>
    <rect x="6.593" y="12.436" width="16.244" height="5.238" style="fill:white;stroke:rgb(129,129,129);stroke-width:0.37px;stroke-linecap:round;stroke-miterlimit:1.5;"/>
    <rect x="6.734" y="12.598" width="6.938" height="5.076" style="fill:rgb(88,115,242);"/>
    <path d="M7.859,16.495L7.135,16.495L7.135,13.574L7.299,13.574L7.299,16.185L7.859,16.185L7.859,16.495Z" style="fill-rule:nonzero;"/>
    <path d="M8.469,16.544C8.322,16.544 8.203,16.446 8.116,16.252C8.028,16.057 7.984,15.798 7.984,15.477C7.984,15.125 8.03,14.853 8.121,14.656C8.213,14.458 8.336,14.36 8.492,14.36C8.641,14.36 8.757,14.456 8.84,14.647C8.924,14.839 8.966,15.105 8.966,15.444C8.966,15.776 8.92,16.042 8.83,16.243C8.741,16.443 8.62,16.544 8.469,16.544ZM8.48,14.641C8.378,14.641 8.297,14.714 8.237,14.86C8.177,15.006 8.147,15.208 8.147,15.464C8.147,15.711 8.178,15.906 8.238,16.048C8.299,16.191 8.379,16.262 8.48,16.262C8.583,16.262 8.663,16.192 8.719,16.052C8.774,15.913 8.802,15.714 8.802,15.457C8.802,15.195 8.774,14.994 8.719,14.853C8.663,14.712 8.583,14.641 8.48,14.641Z" style="fill-rule:nonzero;"/>
    <rect x="9.199" y="15.201" width="0.532" height="0.263"/>
    <path d="M10.538,14.747C10.51,14.702 10.47,14.681 10.417,14.681C10.349,14.681 10.292,14.747 10.246,14.881C10.201,15.016 10.177,15.199 10.177,15.432L10.177,16.495L10.018,16.495L10.018,14.409L10.177,14.409L10.177,14.839L10.181,14.839C10.205,14.691 10.239,14.578 10.285,14.496C10.333,14.414 10.385,14.373 10.442,14.373C10.484,14.373 10.516,14.382 10.538,14.4L10.538,14.747Z" style="fill-rule:nonzero;"/>
    <path d="M11.512,15.535L10.809,15.535C10.811,15.768 10.841,15.947 10.898,16.073C10.956,16.199 11.034,16.262 11.134,16.262C11.246,16.262 11.349,16.185 11.444,16.03L11.444,16.344C11.356,16.477 11.24,16.544 11.096,16.544C10.955,16.544 10.845,16.449 10.764,16.26C10.684,16.071 10.643,15.804 10.643,15.46C10.643,15.136 10.687,14.872 10.775,14.668C10.863,14.463 10.972,14.36 11.103,14.36C11.233,14.36 11.334,14.448 11.405,14.625C11.477,14.802 11.512,15.047 11.512,15.36L11.512,15.535ZM11.349,15.252C11.348,15.06 11.326,14.91 11.282,14.802C11.239,14.695 11.178,14.641 11.1,14.641C11.024,14.641 10.961,14.697 10.908,14.81C10.856,14.923 10.823,15.07 10.811,15.252L11.349,15.252Z" style="fill-rule:nonzero;"/>
    <path d="M13.17,16.495L13.011,16.495L13.011,15.297C13.011,15.067 12.993,14.899 12.959,14.796C12.925,14.693 12.868,14.641 12.787,14.641C12.719,14.641 12.661,14.707 12.614,14.837C12.566,14.967 12.542,15.124 12.542,15.306L12.542,16.495L12.382,16.495L12.382,15.257C12.382,14.847 12.307,14.641 12.155,14.641C12.085,14.641 12.028,14.702 11.982,14.826C11.936,14.949 11.914,15.108 11.914,15.306L11.914,16.495L11.754,16.495L11.754,14.409L11.914,14.409L11.914,14.739L11.918,14.739C11.988,14.487 12.091,14.36 12.227,14.36C12.295,14.36 12.355,14.399 12.406,14.48C12.456,14.559 12.491,14.663 12.51,14.792C12.583,14.504 12.694,14.36 12.841,14.36C13.06,14.36 13.17,14.643 13.17,15.209L13.17,16.495Z" style="fill-rule:nonzero;"/>
    <g>
        <path d="M16.33,16.253L15.5,16.253L15.5,13.527L15.687,13.527L15.687,15.963L16.33,15.963L16.33,16.253Z" style="fill-rule:nonzero;"/>
        <path d="M17.027,16.299C16.859,16.299 16.724,16.208 16.623,16.026C16.523,15.844 16.472,15.603 16.472,15.302C16.472,14.975 16.525,14.72 16.63,14.536C16.735,14.352 16.876,14.26 17.055,14.26C17.225,14.26 17.358,14.35 17.454,14.529C17.55,14.707 17.597,14.955 17.597,15.271C17.597,15.583 17.545,15.831 17.442,16.017C17.339,16.205 17.201,16.299 17.027,16.299ZM17.042,14.523C16.924,14.523 16.832,14.59 16.762,14.727C16.694,14.862 16.659,15.051 16.659,15.291C16.659,15.521 16.694,15.704 16.764,15.837C16.833,15.969 16.925,16.036 17.042,16.036C17.159,16.036 17.25,15.971 17.315,15.84C17.377,15.71 17.41,15.524 17.41,15.283C17.41,15.039 17.377,14.852 17.315,14.721C17.25,14.589 17.159,14.523 17.042,14.523Z" style="fill-rule:nonzero;"/>
        <path d="M18.485,14.621C18.453,14.58 18.407,14.559 18.346,14.559C18.268,14.559 18.203,14.621 18.151,14.747C18.098,14.872 18.073,15.043 18.073,15.261L18.073,16.253L17.889,16.253L17.889,14.306L18.073,14.306L18.073,14.707L18.077,14.707C18.103,14.57 18.142,14.463 18.196,14.387C18.25,14.31 18.309,14.272 18.375,14.272C18.423,14.272 18.46,14.281 18.485,14.298L18.485,14.621Z" style="fill-rule:nonzero;"/>
        <path d="M19.601,15.358L18.796,15.358C18.798,15.573 18.833,15.741 18.897,15.859C18.963,15.977 19.053,16.036 19.168,16.036C19.297,16.036 19.414,15.963 19.522,15.819L19.522,16.112C19.422,16.236 19.289,16.299 19.124,16.299C18.963,16.299 18.836,16.21 18.743,16.033C18.652,15.856 18.605,15.607 18.605,15.287C18.605,14.984 18.656,14.736 18.757,14.546C18.858,14.355 18.983,14.26 19.131,14.26C19.281,14.26 19.397,14.343 19.479,14.507C19.56,14.672 19.601,14.9 19.601,15.194L19.601,15.358ZM19.414,15.093C19.414,14.914 19.388,14.773 19.337,14.672C19.288,14.573 19.217,14.523 19.129,14.523C19.042,14.523 18.968,14.575 18.909,14.681C18.848,14.785 18.811,14.923 18.797,15.093L19.414,15.093Z" style="fill-rule:nonzero;"/>
        <path d="M21.5,16.253L21.317,16.253L21.317,15.135C21.317,14.919 21.297,14.764 21.258,14.668C21.219,14.57 21.154,14.523 21.061,14.523C20.985,14.523 20.917,14.584 20.862,14.706C20.808,14.827 20.781,14.973 20.781,15.143L20.781,16.253L20.597,16.253L20.597,15.097C20.597,14.714 20.511,14.523 20.338,14.523C20.257,14.523 20.191,14.58 20.139,14.695C20.088,14.809 20.06,14.959 20.06,15.143L20.06,16.253L19.878,16.253L19.878,14.306L20.06,14.306L20.06,14.613L20.065,14.613C20.147,14.379 20.265,14.26 20.42,14.26C20.498,14.26 20.566,14.297 20.625,14.372C20.682,14.445 20.722,14.543 20.744,14.663C20.829,14.394 20.956,14.26 21.124,14.26C21.374,14.26 21.5,14.525 21.5,15.053L21.5,16.253Z" style="fill-rule:nonzero;"/>
    </g>
    <path d="M14.018,13L14.087,17.19" style="fill:none;stroke:rgb(128,128,128);stroke-width:1.14px;stroke-linecap:square;stroke-miterlimit:1.5;"/>
    <path d="M13.947,7.717L14.01,11.581" style="fill:none;stroke:rgb(128,128,128);stroke-width:1.15px;stroke-linecap:square;stroke-miterlimit:1.5;"/>
    <path d="M17.044,8.283L16.344,8.283L16.344,11.441L16.061,11.441L16.061,8.283L15.363,8.283L15.363,7.909L17.044,7.909L17.044,8.283Z" style="fill-rule:nonzero;"/>
    <path d="M18.439,10.282L17.218,10.282C17.222,10.562 17.274,10.778 17.373,10.932C17.472,11.084 17.608,11.161 17.782,11.161C17.976,11.161 18.156,11.067 18.319,10.879L18.319,11.26C18.167,11.42 17.966,11.501 17.716,11.501C17.471,11.501 17.279,11.386 17.14,11.158C17,10.928 16.93,10.605 16.93,10.19C16.93,9.797 17.007,9.477 17.159,9.23C17.312,8.983 17.501,8.859 17.728,8.859C17.954,8.859 18.129,8.966 18.253,9.18C18.377,9.394 18.439,9.69 18.439,10.069L18.439,10.282ZM18.155,9.938C18.154,9.705 18.115,9.524 18.039,9.394C17.963,9.265 17.858,9.199 17.723,9.199C17.592,9.199 17.481,9.268 17.39,9.404C17.299,9.54 17.242,9.719 17.221,9.938L18.155,9.938Z" style="fill-rule:nonzero;"/>
    <path d="M20.121,8.919L19.54,10.195L20.111,11.441L19.788,11.441L19.449,10.624C19.427,10.573 19.402,10.509 19.373,10.431L19.366,10.431C19.36,10.446 19.334,10.51 19.287,10.624L18.94,11.441L18.621,11.441L19.211,10.205L18.646,8.919L18.969,8.919L19.304,9.782C19.328,9.846 19.352,9.911 19.376,9.979L19.383,9.979L19.815,8.919L20.121,8.919Z" style="fill-rule:nonzero;"/>
    <path d="M21.248,11.417C21.182,11.469 21.096,11.496 20.989,11.496C20.686,11.496 20.535,11.249 20.535,10.757L20.535,9.263L20.238,9.263L20.238,8.919L20.535,8.919L20.535,8.303L20.812,8.173L20.812,8.919L21.248,8.919L21.248,9.263L20.812,9.263L20.812,10.686C20.812,10.854 20.832,10.975 20.871,11.047C20.91,11.119 20.976,11.155 21.067,11.155C21.137,11.155 21.197,11.128 21.248,11.072L21.248,11.417Z" style="fill-rule:nonzero;"/>
    <rect x="6.593" y="17.978" width="16.244" height="4.94" style="fill:none;stroke:rgb(129,129,129);stroke-width:0.35px;stroke-linecap:round;stroke-miterlimit:1.5;"/>
    <path d="M8.278,22.325L7.51,22.325L7.51,18.56L7.683,18.56L7.683,21.925L8.278,21.925L8.278,22.325Z" style="fill-rule:nonzero;"/>
    <path d="M8.924,22.388C8.768,22.388 8.643,22.262 8.55,22.011C8.456,21.76 8.41,21.428 8.41,21.013C8.41,20.561 8.458,20.208 8.555,19.954C8.652,19.701 8.783,19.574 8.949,19.574C9.106,19.574 9.229,19.697 9.317,19.943C9.406,20.191 9.45,20.533 9.45,20.97C9.45,21.399 9.403,21.742 9.307,22C9.212,22.258 9.084,22.388 8.924,22.388ZM8.936,19.936C8.828,19.936 8.742,20.03 8.678,20.218C8.615,20.407 8.584,20.666 8.584,20.996C8.584,21.315 8.615,21.567 8.679,21.75C8.744,21.934 8.829,22.025 8.936,22.025C9.046,22.025 9.13,21.935 9.189,21.755C9.247,21.575 9.277,21.318 9.277,20.985C9.277,20.65 9.247,20.391 9.189,20.21C9.13,20.027 9.046,19.936 8.936,19.936Z" style="fill-rule:nonzero;"/>
    <path d="M10.271,20.073C10.242,20.015 10.199,19.986 10.144,19.986C10.072,19.986 10.011,20.073 9.962,20.246C9.914,20.419 9.89,20.655 9.89,20.955L9.89,22.325L9.721,22.325L9.721,19.637L9.89,19.637L9.89,20.191L9.894,20.191C9.918,20.002 9.955,19.854 10.004,19.749C10.054,19.643 10.109,19.589 10.17,19.589C10.215,19.589 10.248,19.602 10.271,19.626L10.271,20.073Z" style="fill-rule:nonzero;"/>
    <path d="M11.304,21.089L10.559,21.089C10.561,21.387 10.593,21.619 10.654,21.782C10.714,21.944 10.798,22.025 10.904,22.025C11.022,22.025 11.132,21.925 11.231,21.726L11.231,22.131C11.139,22.302 11.016,22.388 10.863,22.388C10.714,22.388 10.596,22.265 10.511,22.022C10.426,21.777 10.383,21.433 10.383,20.991C10.383,20.573 10.43,20.232 10.523,19.968C10.616,19.706 10.732,19.574 10.87,19.574C11.008,19.574 11.116,19.688 11.191,19.915C11.267,20.143 11.304,20.458 11.304,20.863L11.304,21.089ZM11.132,20.724C11.13,20.475 11.107,20.282 11.06,20.143C11.014,20.005 10.95,19.936 10.867,19.936C10.787,19.936 10.72,20.009 10.664,20.154C10.608,20.299 10.574,20.489 10.56,20.724L11.132,20.724Z" style="fill-rule:nonzero;"/>
    <path d="M13.061,22.325L12.892,22.325L12.892,20.781C12.892,20.484 12.874,20.269 12.838,20.136C12.801,20.003 12.741,19.936 12.656,19.936C12.584,19.936 12.522,20.021 12.471,20.188C12.421,20.356 12.395,20.558 12.395,20.792L12.395,22.325L12.226,22.325L12.226,20.729C12.226,20.2 12.146,19.936 11.986,19.936C11.912,19.936 11.851,20.016 11.802,20.174C11.754,20.332 11.73,20.538 11.73,20.792L11.73,22.325L11.561,22.325L11.561,19.637L11.73,19.637L11.73,20.062L11.734,20.062C11.809,19.737 11.919,19.574 12.062,19.574C12.135,19.574 12.198,19.625 12.251,19.727C12.305,19.829 12.341,19.964 12.361,20.13C12.44,19.759 12.557,19.574 12.712,19.574C12.945,19.574 13.061,19.939 13.061,20.668L13.061,22.325Z" style="fill-rule:nonzero;"/>
    <path d="M13.943,18.247L14.01,22.325" style="fill:none;stroke:rgb(128,128,128);stroke-width:1.19px;stroke-linecap:square;stroke-miterlimit:1.5;"/>
    <path d="M17.044,19.027L16.344,19.027L16.344,22.186L16.061,22.186L16.061,19.027L15.363,19.027L15.363,18.653L17.044,18.653L17.044,19.027Z" style="fill-rule:nonzero;"/>
    <path d="M18.439,21.026L17.218,21.026C17.222,21.306 17.274,21.523 17.373,21.676C17.472,21.829 17.608,21.905 17.782,21.905C17.976,21.905 18.156,21.811 18.319,21.624L18.319,22.004C18.167,22.164 17.966,22.245 17.716,22.245C17.471,22.245 17.279,22.13 17.14,21.902C17,21.672 16.93,21.35 16.93,20.934C16.93,20.542 17.007,20.223 17.159,19.974C17.312,19.727 17.501,19.604 17.728,19.604C17.954,19.604 18.129,19.71 18.253,19.924C18.377,20.138 18.439,20.434 18.439,20.813L18.439,21.026ZM18.155,20.684C18.154,20.45 18.115,20.269 18.039,20.138C17.963,20.009 17.858,19.945 17.723,19.945C17.592,19.945 17.481,20.012 17.39,20.149C17.299,20.284 17.242,20.463 17.221,20.684L18.155,20.684Z" style="fill-rule:nonzero;"/>
    <path d="M20.121,19.663L19.54,20.939L20.111,22.186L19.788,22.186L19.449,21.368C19.427,21.317 19.402,21.253 19.373,21.176L19.366,21.176C19.36,21.191 19.334,21.254 19.287,21.368L18.94,22.186L18.621,22.186L19.211,20.949L18.646,19.663L18.969,19.663L19.304,20.526C19.328,20.59 19.352,20.655 19.376,20.723L19.383,20.723L19.815,19.663L20.121,19.663Z" style="fill-rule:nonzero;"/>
    <path d="M21.248,22.161C21.182,22.214 21.096,22.24 20.989,22.24C20.686,22.24 20.535,21.993 20.535,21.501L20.535,20.008L20.238,20.008L20.238,19.663L20.535,19.663L20.535,19.047L20.812,18.917L20.812,19.663L21.248,19.663L21.248,20.008L20.812,20.008L20.812,21.43C20.812,21.599 20.832,21.72 20.871,21.791C20.91,21.864 20.976,21.9 21.067,21.9C21.137,21.9 21.197,21.872 21.248,21.816L21.248,22.161Z" style="fill-rule:nonzero;"/>
    <rect x="6.593" y="23.216" width="16.244" height="4.94" style="fill:none;stroke:rgb(129,129,129);stroke-width:0.35px;stroke-linecap:round;stroke-miterlimit:1.5;"/>
    <path d="M8.278,27.562L7.51,27.562L7.51,23.798L7.683,23.798L7.683,27.163L8.278,27.163L8.278,27.562Z" style="fill-rule:nonzero;"/>
    <path d="M8.924,27.625C8.768,27.625 8.643,27.499 8.55,27.249C8.456,26.998 8.41,26.665 8.41,26.251C8.41,25.799 8.458,25.446 8.555,25.192C8.652,24.939 8.783,24.812 8.949,24.812C9.106,24.812 9.229,24.935 9.317,25.181C9.406,25.428 9.45,25.771 9.45,26.208C9.45,26.637 9.403,26.98 9.307,27.238C9.212,27.496 9.084,27.625 8.924,27.625ZM8.936,25.174C8.828,25.174 8.742,25.268 8.678,25.456C8.615,25.645 8.584,25.904 8.584,26.234C8.584,26.552 8.615,26.804 8.679,26.987C8.744,27.171 8.829,27.263 8.936,27.263C9.046,27.263 9.13,27.173 9.189,26.993C9.247,26.813 9.277,26.556 9.277,26.223C9.277,25.888 9.247,25.629 9.189,25.447C9.13,25.264 9.046,25.174 8.936,25.174Z" style="fill-rule:nonzero;"/>
    <path d="M10.271,25.311C10.242,25.252 10.199,25.224 10.144,25.224C10.072,25.224 10.011,25.311 9.962,25.484C9.914,25.656 9.89,25.893 9.89,26.192L9.89,27.562L9.721,27.562L9.721,24.875L9.89,24.875L9.89,25.428L9.894,25.428C9.918,25.239 9.955,25.092 10.004,24.986C10.054,24.881 10.109,24.827 10.17,24.827C10.215,24.827 10.248,24.84 10.271,24.864L10.271,25.311Z" style="fill-rule:nonzero;"/>
    <path d="M11.304,26.327L10.559,26.327C10.561,26.625 10.593,26.857 10.654,27.019C10.714,27.182 10.798,27.263 10.904,27.263C11.022,27.263 11.132,27.163 11.231,26.964L11.231,27.369C11.139,27.54 11.016,27.625 10.863,27.625C10.714,27.625 10.596,27.503 10.511,27.259C10.426,27.015 10.383,26.671 10.383,26.229C10.383,25.811 10.43,25.47 10.523,25.206C10.616,24.944 10.732,24.812 10.87,24.812C11.008,24.812 11.116,24.926 11.191,25.153C11.267,25.381 11.304,25.696 11.304,26.101L11.304,26.327ZM11.132,25.962C11.13,25.712 11.107,25.52 11.06,25.381C11.014,25.243 10.95,25.174 10.867,25.174C10.787,25.174 10.72,25.247 10.664,25.391C10.608,25.536 10.574,25.727 10.56,25.962L11.132,25.962Z" style="fill-rule:nonzero;"/>
    <path d="M13.061,27.562L12.892,27.562L12.892,26.019C12.892,25.722 12.874,25.507 12.838,25.374C12.801,25.241 12.741,25.174 12.656,25.174C12.584,25.174 12.522,25.258 12.471,25.426C12.421,25.594 12.395,25.796 12.395,26.03L12.395,27.562L12.226,27.562L12.226,25.967C12.226,25.438 12.146,25.174 11.986,25.174C11.912,25.174 11.851,25.254 11.802,25.412C11.754,25.57 11.73,25.775 11.73,26.03L11.73,27.562L11.561,27.562L11.561,24.875L11.73,24.875L11.73,25.3L11.734,25.3C11.809,24.974 11.919,24.812 12.062,24.812C12.135,24.812 12.198,24.863 12.251,24.965C12.305,25.067 12.341,25.201 12.361,25.368C12.44,24.997 12.557,24.812 12.712,24.812C12.945,24.812 13.061,25.176 13.061,25.906L13.061,27.562Z" style="fill-rule:nonzero;"/>
    <path d="M13.947,23.699L14.01,27.562" style="fill:none;stroke:rgb(128,128,128);stroke-width:1.15px;stroke-linecap:square;stroke-miterlimit:1.5;"/>
    <path d="M17.044,24.265L16.344,24.265L16.344,27.423L16.061,27.423L16.061,24.265L15.363,24.265L15.363,23.891L17.044,23.891L17.044,24.265Z" style="fill-rule:nonzero;"/>
    <path d="M18.439,26.264L17.218,26.264C17.222,26.544 17.274,26.76 17.373,26.914C17.472,27.066 17.608,27.143 17.782,27.143C17.976,27.143 18.156,27.049 18.319,26.861L18.319,27.242C18.167,27.402 17.966,27.483 17.716,27.483C17.471,27.483 17.279,27.368 17.14,27.139C17,26.91 16.93,26.588 16.93,26.172C16.93,25.78 17.007,25.459 17.159,25.212C17.312,24.965 17.501,24.841 17.728,24.841C17.954,24.841 18.129,24.948 18.253,25.162C18.377,25.376 18.439,25.672 18.439,26.051L18.439,26.264ZM18.155,25.92C18.154,25.687 18.115,25.506 18.039,25.376C17.963,25.247 17.858,25.182 17.723,25.182C17.592,25.182 17.481,25.25 17.39,25.387C17.299,25.522 17.242,25.7 17.221,25.92L18.155,25.92Z" style="fill-rule:nonzero;"/>
    <path d="M20.121,24.901L19.54,26.177L20.111,27.423L19.788,27.423L19.449,26.606C19.427,26.555 19.402,26.491 19.373,26.413L19.366,26.413C19.36,26.428 19.334,26.492 19.287,26.606L18.94,27.423L18.621,27.423L19.211,26.186L18.646,24.901L18.969,24.901L19.304,25.763C19.328,25.828 19.352,25.893 19.376,25.961L19.383,25.961L19.815,24.901L20.121,24.901Z" style="fill-rule:nonzero;"/>
    <path d="M21.248,27.398C21.182,27.452 21.096,27.478 20.989,27.478C20.686,27.478 20.535,27.231 20.535,26.739L20.535,25.245L20.238,25.245L20.238,24.901L20.535,24.901L20.535,24.285L20.812,24.155L20.812,24.901L21.248,24.901L21.248,25.245L20.812,25.245L20.812,26.668C20.812,26.836 20.832,26.958 20.871,27.029C20.91,27.101 20.976,27.138 21.067,27.138C21.137,27.138 21.197,27.11 21.248,27.054L21.248,27.398Z" style="fill-rule:nonzero;"/>
</svg>
