<?xml version="1.0" encoding="UTF-8" standalone="no"?><!DOCTYPE svg PUBLIC "-//W3C//DTD SVG 1.1//EN" "http://www.w3.org/Graphics/SVG/1.1/DTD/svg11.dtd"><svg width="100%" height="100%" viewBox="0 0 800 800" version="1.1" xmlns="http://www.w3.org/2000/svg" xmlns:xlink="http://www.w3.org/1999/xlink" xml:space="preserve" xmlns:serif="http://www.serif.com/" style="fill-rule:evenodd;clip-rule:evenodd;stroke-linejoin:round;stroke-miterlimit:2;"><path d="M781.463,709.406l-126.661,-0l0,-176.09l104.598,-0l22.063,19.611l0,156.479Z" style="fill:#fff;"/><path d="M462.992,709.406l-126.644,-0l0,-176.09l104.581,-0l22.063,19.611l0,156.479Z" style="fill:#fff;"/><path d="M145.198,709.101l-126.661,0l0,-176.097l104.598,0l22.063,19.602l0,156.495Z" style="fill:#fff;"/><g><g><path d="M132.809,516.818c-1.7,-1.505 -3.881,-2.334 -6.165,-2.334l-117.376,0c-5.116,0 -9.268,4.135 -9.268,9.268l0,194.626c0,5.108 4.144,9.268 9.268,9.268l145.198,0c5.116,0 9.268,-4.143 9.268,-9.268l0,-169.916c0,-2.647 -1.141,-5.167 -3.12,-6.934l-27.805,-24.71Zm12.389,192.283l-126.661,0l0,-176.097l104.598,0l22.063,19.602l0,156.495Z" style="fill-rule:nonzero;"/><path d="M450.62,517.131c-1.699,-1.514 -3.898,-2.334 -6.164,-2.334l-117.376,0c-5.116,0 -9.269,4.135 -9.269,9.268l0,194.626c0,5.108 4.144,9.268 9.269,9.268l145.181,0c5.116,0 9.268,-4.143 9.268,-9.268l0,-169.916c0,-2.639 -1.142,-5.159 -3.104,-6.926l-27.805,-24.718Zm12.372,192.275l-126.644,-0l-0,-176.09l104.581,-0l22.063,19.611l-0,156.479Z" style="fill-rule:nonzero;"/><path d="M796.871,541.841l-27.796,-24.727c-1.7,-1.505 -3.882,-2.326 -6.165,-2.326l-117.376,0c-5.116,0 -9.268,4.144 -9.268,9.269l0,194.617c0,5.116 4.143,9.277 9.268,9.277l145.198,0c5.116,0 9.268,-4.144 9.268,-9.277l0,-169.899c0,-2.655 -1.142,-5.184 -3.129,-6.934Zm-15.408,167.565l-126.661,0l0,-176.09l104.598,0l22.063,19.611l0,156.479Z" style="fill-rule:nonzero;"/><path d="M63.204,390.935l335.519,0l0,72.269l16.532,0l0,-72.269l321.541,0l0,72.269l16.533,0l0,-88.996l-337.82,0l0,-37.437l-16.532,0l0,37.437l-352.306,0l0,88.996l16.533,0l0,-72.269Z" style="fill-rule:nonzero;"/></g><g transform="matrix(0.477839,0,0,0.477839,208.534,-16.8899)"><path d="M464.125,193.25c0,0 229.375,-0 229.376,-0c30.995,-0 56.5,25.505 56.5,56.5c-0,0.083 -0.001,0.167 -0.001,0.25l0,387.5c0,30.995 -25.505,56.5 -56.5,56.5l-587.5,0c-30.806,-0.273 -56.001,-25.693 -56,-56.5l0,-475c0.273,-30.806 25.693,-56.001 56.5,-56l143.5,0c47.75,0 52.875,14.25 84.25,55.625c25.875,34.25 88.875,31.125 129.875,31.125Z" style="fill:#003462;fill-rule:nonzero;"/><path d="M693.5,226.5l-528,0c-30.995,0 -56.5,25.505 -56.5,56.5l0,35.5l55.875,-81l529.375,0l55.75,81.125l0,-35.625c0,-30.995 -25.505,-56.5 -56.5,-56.5Z" style="fill:#87c8f2;fill-rule:nonzero;"/><path d="M107.125,693.5l586.375,0c30.807,0.001 56.227,-25.194 56.5,-56l0,-344c-0.273,-30.806 -25.693,-56.001 -56.5,-56l-527.875,0c-30.995,-0 -56.5,25.505 -56.5,56.5l0,343.5c-0.016,3.015 -0.267,6.024 -0.75,9c-2.276,14.043 -14.524,24.466 -28.75,24.466c-14.226,0 -26.474,-10.423 -28.75,-24.466c4.547,27.29 28.586,47.376 56.25,47Z" style="fill:#00a1e0;fill-rule:nonzero;"/></g></g></svg>