<?xml version="1.0" encoding="UTF-8" standalone="no"?>
<!DOCTYPE svg PUBLIC "-//W3C//DTD SVG 1.1//EN" "http://www.w3.org/Graphics/SVG/1.1/DTD/svg11.dtd">
<svg width="30px" height="30px" version="1.1" xmlns="http://www.w3.org/2000/svg" xmlns:xlink="http://www.w3.org/1999/xlink" xml:space="preserve" xmlns:serif="http://www.serif.com/" style="fill-rule:evenodd;clip-rule:evenodd;stroke-linecap:round;stroke-linejoin:round;stroke-miterlimit:1.5;">
    <g id="title">
        <rect x="0.255" y="0.255" width="29.473" height="6.245" style="fill:none;stroke:rgb(128,128,128);stroke-width:0.5px;"/>
        <path d="M3.617,1.774L2.643,1.774L2.643,5.476L2.248,5.476L2.248,1.774L1.276,1.774L1.276,1.335L3.617,1.335L3.617,1.774Z" style="fill-rule:nonzero;"/>
        <path d="M4.292,1.769C4.223,1.769 4.164,1.74 4.116,1.682C4.067,1.624 4.043,1.551 4.043,1.462C4.043,1.374 4.067,1.3 4.116,1.242C4.164,1.183 4.223,1.153 4.292,1.153C4.363,1.153 4.423,1.183 4.472,1.242C4.522,1.3 4.546,1.374 4.546,1.462C4.546,1.547 4.522,1.619 4.472,1.679C4.423,1.739 4.363,1.769 4.292,1.769ZM4.481,5.476L4.095,5.476L4.095,2.519L4.481,2.519L4.481,5.476Z" style="fill-rule:nonzero;"/>
        <path d="M6.379,5.447C6.288,5.509 6.168,5.539 6.019,5.539C5.597,5.539 5.386,5.251 5.386,4.673L5.386,2.923L4.972,2.923L4.972,2.519L5.386,2.519L5.386,1.797L5.772,1.644L5.772,2.519L6.379,2.519L6.379,2.923L5.772,2.923L5.772,4.59C5.772,4.788 5.799,4.929 5.854,5.014C5.909,5.099 6,5.141 6.127,5.141C6.224,5.141 6.308,5.108 6.379,5.043L6.379,5.447Z" style="fill-rule:nonzero;"/>
        <rect x="6.894" y="1.099" width="0.386" height="4.377"/>
        <path d="M9.997,4.116L8.296,4.116C8.302,4.445 8.375,4.699 8.513,4.878C8.651,5.057 8.84,5.147 9.082,5.147C9.353,5.147 9.603,5.037 9.83,4.818L9.83,5.262C9.618,5.451 9.338,5.545 8.99,5.545C8.65,5.545 8.382,5.411 8.188,5.142C7.994,4.874 7.896,4.496 7.896,4.009C7.896,3.549 8.003,3.174 8.215,2.884C8.428,2.595 8.691,2.45 9.007,2.45C9.322,2.45 9.566,2.575 9.738,2.825C9.911,3.076 9.997,3.423 9.997,3.868L9.997,4.116ZM9.602,3.715C9.6,3.441 9.547,3.229 9.441,3.077C9.335,2.924 9.188,2.848 9,2.848C8.818,2.848 8.663,2.928 8.536,3.088C8.409,3.248 8.331,3.457 8.301,3.715L9.602,3.715Z" style="fill-rule:nonzero;"/>
        <path d="M19.987,5.476L19.549,5.476L19.192,4.315L17.761,4.315L17.425,5.476L16.985,5.476L18.279,1.335L18.688,1.335L19.987,5.476ZM19.062,3.879L18.533,2.115C18.516,2.057 18.498,1.965 18.481,1.838L18.472,1.838C18.456,1.955 18.438,2.048 18.418,2.115L17.893,3.879L19.062,3.879Z" style="fill-rule:nonzero;"/>
        <path d="M21.688,2.999C21.62,2.935 21.523,2.903 21.396,2.903C21.231,2.903 21.094,2.999 20.983,3.189C20.872,3.38 20.817,3.64 20.817,3.969L20.817,5.476L20.431,5.476L20.431,2.519L20.817,2.519L20.817,3.128L20.827,3.128C20.881,2.921 20.965,2.758 21.078,2.642C21.191,2.525 21.317,2.467 21.457,2.467C21.557,2.467 21.634,2.481 21.688,2.508L21.688,2.999Z" style="fill-rule:nonzero;"/>
        <path d="M23.224,5.447C23.133,5.509 23.013,5.539 22.864,5.539C22.442,5.539 22.231,5.251 22.231,4.673L22.231,2.923L21.817,2.923L21.817,2.519L22.231,2.519L22.231,1.797L22.617,1.644L22.617,2.519L23.224,2.519L23.224,2.923L22.617,2.923L22.617,4.59C22.617,4.788 22.644,4.929 22.699,5.014C22.754,5.099 22.845,5.141 22.972,5.141C23.069,5.141 23.153,5.108 23.224,5.043L23.224,5.447Z" style="fill-rule:nonzero;"/>
        <path d="M23.937,1.769C23.868,1.769 23.809,1.74 23.76,1.682C23.711,1.624 23.687,1.551 23.687,1.462C23.687,1.374 23.711,1.3 23.76,1.242C23.809,1.183 23.868,1.153 23.937,1.153C24.007,1.153 24.067,1.183 24.116,1.242C24.166,1.3 24.191,1.374 24.191,1.462C24.191,1.547 24.166,1.619 24.116,1.679C24.067,1.739 24.007,1.769 23.937,1.769ZM24.125,5.476L23.739,5.476L23.739,2.519L24.125,2.519L24.125,5.476Z" style="fill-rule:nonzero;"/>
        <path d="M24.76,5.369L24.76,4.861C24.97,5.051 25.201,5.147 25.454,5.147C25.793,5.147 25.962,5.008 25.962,4.731C25.962,4.652 25.947,4.585 25.918,4.53C25.889,4.475 25.85,4.427 25.801,4.385C25.751,4.342 25.693,4.304 25.627,4.27C25.56,4.237 25.488,4.202 25.412,4.165C25.305,4.113 25.211,4.061 25.13,4.008C25.05,3.955 24.982,3.895 24.928,3.829C24.874,3.762 24.833,3.687 24.806,3.602C24.778,3.517 24.765,3.418 24.765,3.305C24.765,3.166 24.79,3.043 24.842,2.936C24.894,2.83 24.963,2.74 25.049,2.668C25.135,2.596 25.234,2.541 25.344,2.505C25.455,2.468 25.569,2.45 25.687,2.45C25.895,2.45 26.082,2.494 26.247,2.583L26.247,3.062C26.069,2.92 25.866,2.848 25.635,2.848C25.563,2.848 25.498,2.859 25.44,2.879C25.382,2.899 25.332,2.927 25.29,2.964C25.249,3 25.217,3.044 25.194,3.095C25.171,3.146 25.16,3.203 25.16,3.264C25.16,3.341 25.171,3.406 25.194,3.458C25.217,3.51 25.25,3.556 25.294,3.596C25.338,3.637 25.391,3.673 25.454,3.706C25.517,3.739 25.588,3.774 25.668,3.813C25.775,3.863 25.87,3.914 25.955,3.967C26.04,4.02 26.112,4.08 26.171,4.146C26.231,4.213 26.277,4.289 26.309,4.376C26.341,4.462 26.357,4.565 26.357,4.685C26.357,4.831 26.331,4.958 26.278,5.066C26.226,5.174 26.156,5.263 26.068,5.334C25.98,5.406 25.879,5.459 25.764,5.493C25.65,5.528 25.53,5.545 25.404,5.545C25.157,5.545 24.942,5.487 24.76,5.369Z" style="fill-rule:nonzero;"/>
        <path d="M28.067,5.447C27.976,5.509 27.857,5.539 27.708,5.539C27.286,5.539 27.075,5.251 27.075,4.673L27.075,2.923L26.661,2.923L26.661,2.519L27.075,2.519L27.075,1.797L27.461,1.644L27.461,2.519L28.067,2.519L28.067,2.923L27.461,2.923L27.461,4.59C27.461,4.788 27.488,4.929 27.543,5.014C27.598,5.099 27.689,5.141 27.816,5.141C27.913,5.141 27.997,5.108 28.067,5.043L28.067,5.447Z" style="fill-rule:nonzero;"/>
        <path d="M14,0.255L14,6.5" style="fill:none;stroke:rgb(128,128,128);stroke-width:0.5px;"/>
    </g>
    <rect x="15.593" y="7.079" width="7.079" height="20.921" style="fill:rgb(88,115,242);"/>
    <rect x="15.593" y="7.079" width="7.079" height="4.94" style="fill:none;stroke:rgb(129,129,129);stroke-width:0.29px;"/>
    <path d="M16.401,16.081L15.5,16.081L15.5,12.316L15.703,12.316L15.703,15.681L16.401,15.681L16.401,16.081Z" style="fill-rule:nonzero;"/>
    <path d="M17.159,16.144C16.976,16.144 16.829,16.018 16.72,15.767C16.611,15.516 16.556,15.184 16.556,14.769C16.556,14.317 16.613,13.964 16.727,13.71C16.84,13.457 16.994,13.33 17.188,13.33C17.373,13.33 17.517,13.453 17.621,13.701C17.725,13.947 17.777,14.289 17.777,14.726C17.777,15.155 17.721,15.498 17.609,15.756C17.497,16.014 17.347,16.144 17.159,16.144ZM17.174,13.692C17.046,13.692 16.945,13.786 16.871,13.974C16.796,14.163 16.759,14.422 16.759,14.752C16.759,15.071 16.797,15.323 16.872,15.506C16.947,15.69 17.048,15.781 17.174,15.781C17.302,15.781 17.401,15.691 17.47,15.512C17.539,15.331 17.573,15.074 17.573,14.742C17.573,14.406 17.539,14.147 17.47,13.966C17.401,13.783 17.302,13.692 17.174,13.692Z" style="fill-rule:nonzero;"/>
    <path d="M18.741,13.829C18.706,13.771 18.656,13.742 18.591,13.742C18.506,13.742 18.435,13.829 18.378,14.002C18.321,14.175 18.293,14.411 18.293,14.711L18.293,16.081L18.094,16.081L18.094,13.393L18.293,13.393L18.293,13.947L18.298,13.947C18.326,13.758 18.369,13.61 18.427,13.505C18.485,13.399 18.55,13.345 18.622,13.345C18.674,13.345 18.713,13.358 18.741,13.382L18.741,13.829Z" style="fill-rule:nonzero;"/>
    <path d="M19.953,14.845L19.077,14.845C19.081,15.143 19.118,15.375 19.189,15.538C19.26,15.7 19.358,15.781 19.482,15.781C19.622,15.781 19.75,15.681 19.867,15.482L19.867,15.887C19.758,16.058 19.614,16.144 19.435,16.144C19.26,16.144 19.122,16.021 19.022,15.778C18.922,15.533 18.872,15.19 18.872,14.747C18.872,14.329 18.926,13.988 19.036,13.726C19.145,13.462 19.281,13.33 19.443,13.33C19.606,13.33 19.731,13.444 19.82,13.671C19.909,13.899 19.953,14.214 19.953,14.619L19.953,14.845ZM19.75,14.48C19.749,14.231 19.721,14.038 19.667,13.899C19.612,13.761 19.537,13.692 19.44,13.692C19.346,13.692 19.266,13.765 19.201,13.91C19.136,14.055 19.095,14.245 19.08,14.48L19.75,14.48Z" style="fill-rule:nonzero;"/>
    <path d="M22.015,16.081L21.816,16.081L21.816,14.537C21.816,14.24 21.795,14.025 21.752,13.892C21.71,13.759 21.639,13.692 21.539,13.692C21.454,13.692 21.382,13.777 21.322,13.944C21.263,14.112 21.233,14.314 21.233,14.548L21.233,16.081L21.035,16.081L21.035,14.485C21.035,13.956 20.941,13.692 20.753,13.692C20.665,13.692 20.593,13.772 20.537,13.93C20.48,14.088 20.452,14.294 20.452,14.548L20.452,16.081L20.254,16.081L20.254,13.393L20.452,13.393L20.452,13.818L20.457,13.818C20.545,13.493 20.673,13.33 20.842,13.33C20.927,13.33 21.001,13.381 21.064,13.483C21.127,13.585 21.17,13.72 21.193,13.886C21.285,13.515 21.423,13.33 21.605,13.33C21.878,13.33 22.015,13.695 22.015,14.424L22.015,16.081Z" style="fill-rule:nonzero;"/>
    <path d="M17.278,11.425L16.51,11.425L16.51,7.661L16.683,7.661L16.683,11.026L17.278,11.026L17.278,11.425Z" style="fill-rule:nonzero;"/>
    <path d="M17.924,11.488C17.768,11.488 17.643,11.362 17.55,11.111C17.456,10.861 17.41,10.528 17.41,10.113C17.41,9.662 17.458,9.309 17.555,9.055C17.652,8.802 17.783,8.674 17.949,8.674C18.106,8.674 18.229,8.798 18.317,9.044C18.406,9.291 18.45,9.633 18.45,10.071C18.45,10.5 18.403,10.843 18.307,11.101C18.212,11.359 18.084,11.488 17.924,11.488ZM17.936,9.037C17.828,9.037 17.742,9.131 17.678,9.318C17.615,9.507 17.584,9.766 17.584,10.097C17.584,10.415 17.615,10.667 17.679,10.85C17.744,11.034 17.829,11.126 17.936,11.126C18.046,11.126 18.13,11.035 18.189,10.856C18.247,10.675 18.277,10.419 18.277,10.086C18.277,9.751 18.247,9.492 18.189,9.31C18.13,9.127 18.046,9.037 17.936,9.037Z" style="fill-rule:nonzero;"/>
    <path d="M19.271,9.173C19.242,9.115 19.199,9.087 19.144,9.087C19.072,9.087 19.011,9.173 18.962,9.347C18.914,9.519 18.89,9.756 18.89,10.055L18.89,11.425L18.721,11.425L18.721,8.737L18.89,8.737L18.89,9.291L18.894,9.291C18.918,9.102 18.955,8.955 19.004,8.849C19.054,8.743 19.109,8.69 19.17,8.69C19.215,8.69 19.248,8.703 19.271,8.727L19.271,9.173Z" style="fill-rule:nonzero;"/>
    <path d="M20.304,10.189L19.559,10.189C19.561,10.488 19.593,10.719 19.654,10.882C19.714,11.045 19.798,11.126 19.904,11.126C20.022,11.126 20.132,11.026 20.231,10.826L20.231,11.231C20.139,11.403 20.016,11.488 19.863,11.488C19.714,11.488 19.596,11.366 19.511,11.122C19.426,10.877 19.383,10.534 19.383,10.092C19.383,9.674 19.43,9.333 19.523,9.069C19.616,8.806 19.732,8.674 19.87,8.674C20.008,8.674 20.116,8.788 20.191,9.015C20.267,9.244 20.304,9.558 20.304,9.964L20.304,10.189ZM20.132,9.825C20.13,9.575 20.107,9.383 20.06,9.244C20.014,9.106 19.95,9.037 19.867,9.037C19.787,9.037 19.72,9.109 19.664,9.254C19.608,9.399 19.574,9.589 19.56,9.825L20.132,9.825Z" style="fill-rule:nonzero;"/>
    <path d="M22.061,11.425L21.892,11.425L21.892,9.882C21.892,9.585 21.874,9.369 21.838,9.236C21.801,9.103 21.741,9.037 21.656,9.037C21.584,9.037 21.522,9.121 21.471,9.289C21.421,9.456 21.395,9.658 21.395,9.892L21.395,11.425L21.226,11.425L21.226,9.829C21.226,9.301 21.146,9.037 20.986,9.037C20.912,9.037 20.851,9.116 20.802,9.274C20.754,9.432 20.73,9.638 20.73,9.892L20.73,11.425L20.561,11.425L20.561,8.737L20.73,8.737L20.73,9.163L20.734,9.163C20.809,8.837 20.919,8.674 21.062,8.674C21.135,8.674 21.198,8.725 21.251,8.828C21.305,8.93 21.341,9.064 21.361,9.23C21.44,8.86 21.557,8.674 21.712,8.674C21.945,8.674 22.061,9.039 22.061,9.769L22.061,11.425Z" style="fill-rule:nonzero;"/>
    <rect x="15.593" y="12.281" width="7.079" height="5.238" style="fill:white;stroke:rgb(129,129,129);stroke-width:0.3px;"/>
    <rect x="15.734" y="12.426" width="6.808" height="5.093" style="fill:rgb(88,115,242);"/>
    <path d="M16.859,16.34L16.135,16.34L16.135,13.419L16.299,13.419L16.299,16.03L16.859,16.03L16.859,16.34Z" style="fill-rule:nonzero;"/>
    <path d="M17.469,16.388C17.322,16.388 17.203,16.291 17.116,16.096C17.028,15.901 16.984,15.642 16.984,15.321C16.984,14.97 17.03,14.698 17.121,14.5C17.213,14.303 17.336,14.204 17.492,14.204C17.641,14.204 17.757,14.301 17.84,14.492C17.924,14.683 17.966,14.949 17.966,15.288C17.966,15.621 17.92,15.887 17.83,16.088C17.741,16.287 17.62,16.388 17.469,16.388ZM17.48,14.486C17.378,14.486 17.297,14.559 17.237,14.705C17.177,14.851 17.147,15.053 17.147,15.308C17.147,15.555 17.178,15.75 17.238,15.893C17.299,16.036 17.379,16.107 17.48,16.107C17.583,16.107 17.663,16.037 17.719,15.897C17.774,15.758 17.802,15.559 17.802,15.301C17.802,15.04 17.774,14.839 17.719,14.698C17.663,14.556 17.583,14.486 17.48,14.486Z" style="fill-rule:nonzero;"/>
    <rect x="18.199" y="15.046" width="0.532" height="0.263"/>
    <path d="M19.538,14.592C19.51,14.547 19.47,14.525 19.417,14.525C19.349,14.525 19.292,14.592 19.246,14.726C19.201,14.86 19.177,15.043 19.177,15.276L19.177,16.34L19.018,16.34L19.018,14.253L19.177,14.253L19.177,14.683L19.181,14.683C19.205,14.536 19.239,14.423 19.285,14.341C19.333,14.259 19.385,14.218 19.442,14.218C19.484,14.218 19.516,14.227 19.538,14.245L19.538,14.592Z" style="fill-rule:nonzero;"/>
    <path d="M20.512,15.38L19.809,15.38C19.811,15.613 19.841,15.792 19.898,15.918C19.956,16.044 20.034,16.107 20.134,16.107C20.246,16.107 20.349,16.03 20.444,15.875L20.444,16.189C20.356,16.322 20.24,16.388 20.096,16.388C19.955,16.388 19.845,16.293 19.764,16.104C19.684,15.916 19.643,15.648 19.643,15.305C19.643,14.98 19.687,14.717 19.775,14.512C19.863,14.308 19.972,14.204 20.103,14.204C20.233,14.204 20.334,14.292 20.405,14.469C20.477,14.646 20.512,14.891 20.512,15.205L20.512,15.38ZM20.349,15.097C20.348,14.904 20.326,14.755 20.282,14.646C20.239,14.54 20.178,14.486 20.1,14.486C20.024,14.486 19.961,14.542 19.908,14.655C19.856,14.768 19.823,14.915 19.811,15.097L20.349,15.097Z" style="fill-rule:nonzero;"/>
    <path d="M22.17,16.34L22.011,16.34L22.011,15.142C22.011,14.911 21.993,14.744 21.959,14.641C21.925,14.537 21.868,14.486 21.787,14.486C21.719,14.486 21.661,14.551 21.614,14.682C21.566,14.812 21.542,14.969 21.542,15.15L21.542,16.34L21.382,16.34L21.382,15.102C21.382,14.692 21.307,14.486 21.155,14.486C21.085,14.486 21.028,14.547 20.982,14.67C20.936,14.794 20.914,14.953 20.914,15.15L20.914,16.34L20.754,16.34L20.754,14.253L20.914,14.253L20.914,14.584L20.918,14.584C20.988,14.332 21.091,14.204 21.227,14.204C21.295,14.204 21.355,14.244 21.406,14.324C21.456,14.404 21.491,14.507 21.51,14.637C21.583,14.348 21.694,14.204 21.841,14.204C22.06,14.204 22.17,14.487 22.17,15.054L22.17,16.34Z" style="fill-rule:nonzero;"/>
    <rect x="15.593" y="17.823" width="7.079" height="4.94" style="fill:none;stroke:rgb(129,129,129);stroke-width:0.29px;"/>
    <path d="M17.278,22.169L16.51,22.169L16.51,18.405L16.683,18.405L16.683,21.77L17.278,21.77L17.278,22.169Z" style="fill-rule:nonzero;"/>
    <path d="M17.924,22.232C17.768,22.232 17.643,22.106 17.55,21.856C17.456,21.605 17.41,21.272 17.41,20.857C17.41,20.406 17.458,20.053 17.555,19.799C17.652,19.546 17.783,19.418 17.949,19.418C18.106,19.418 18.229,19.542 18.317,19.788C18.406,20.035 18.45,20.377 18.45,20.815C18.45,21.244 18.403,21.587 18.307,21.845C18.212,22.103 18.084,22.232 17.924,22.232ZM17.936,19.781C17.828,19.781 17.742,19.875 17.678,20.063C17.615,20.251 17.584,20.51 17.584,20.841C17.584,21.159 17.615,21.411 17.679,21.594C17.744,21.778 17.829,21.87 17.936,21.87C18.046,21.87 18.13,21.78 18.189,21.6C18.247,21.419 18.277,21.163 18.277,20.83C18.277,20.495 18.247,20.236 18.189,20.054C18.13,19.871 18.046,19.781 17.936,19.781Z" style="fill-rule:nonzero;"/>
    <path d="M19.271,19.918C19.242,19.859 19.199,19.831 19.144,19.831C19.072,19.831 19.011,19.918 18.962,20.091C18.914,20.263 18.89,20.5 18.89,20.799L18.89,22.169L18.721,22.169L18.721,19.481L18.89,19.481L18.89,20.035L18.894,20.035C18.918,19.846 18.955,19.699 19.004,19.593C19.054,19.487 19.109,19.434 19.17,19.434C19.215,19.434 19.248,19.447 19.271,19.471L19.271,19.918Z" style="fill-rule:nonzero;"/>
    <path d="M20.304,20.934L19.559,20.934C19.561,21.232 19.593,21.463 19.654,21.626C19.714,21.789 19.798,21.87 19.904,21.87C20.022,21.87 20.132,21.77 20.231,21.57L20.231,21.976C20.139,22.147 20.016,22.232 19.863,22.232C19.714,22.232 19.596,22.11 19.511,21.866C19.426,21.621 19.383,21.278 19.383,20.836C19.383,20.418 19.43,20.077 19.523,19.813C19.616,19.55 19.732,19.418 19.87,19.418C20.008,19.418 20.116,19.533 20.191,19.76C20.267,19.988 20.304,20.303 20.304,20.708L20.304,20.934ZM20.132,20.569C20.13,20.319 20.107,20.127 20.06,19.988C20.014,19.85 19.95,19.781 19.867,19.781C19.787,19.781 19.72,19.853 19.664,19.998C19.608,20.143 19.574,20.333 19.56,20.569L20.132,20.569Z" style="fill-rule:nonzero;"/>
    <path d="M22.061,22.169L21.892,22.169L21.892,20.626C21.892,20.329 21.874,20.114 21.838,19.981C21.801,19.847 21.741,19.781 21.656,19.781C21.584,19.781 21.522,19.865 21.471,20.033C21.421,20.2 21.395,20.402 21.395,20.636L21.395,22.169L21.226,22.169L21.226,20.573C21.226,20.045 21.146,19.781 20.986,19.781C20.912,19.781 20.851,19.861 20.802,20.019C20.754,20.177 20.73,20.382 20.73,20.636L20.73,22.169L20.561,22.169L20.561,19.481L20.73,19.481L20.73,19.907L20.734,19.907C20.809,19.581 20.919,19.418 21.062,19.418C21.135,19.418 21.198,19.47 21.251,19.572C21.305,19.674 21.341,19.808 21.361,19.975C21.44,19.604 21.557,19.418 21.712,19.418C21.945,19.418 22.061,19.783 22.061,20.513L22.061,22.169Z" style="fill-rule:nonzero;"/>
    <rect x="15.593" y="23.06" width="7.079" height="4.94" style="fill:none;stroke:rgb(129,129,129);stroke-width:0.29px;"/>
    <path d="M17.278,27.407L16.51,27.407L16.51,23.643L16.683,23.643L16.683,27.008L17.278,27.008L17.278,27.407Z" style="fill-rule:nonzero;"/>
    <path d="M17.924,27.47C17.768,27.47 17.643,27.344 17.55,27.093C17.456,26.843 17.41,26.51 17.41,26.095C17.41,25.644 17.458,25.291 17.555,25.037C17.652,24.783 17.783,24.656 17.949,24.656C18.106,24.656 18.229,24.78 18.317,25.026C18.406,25.273 18.45,25.615 18.45,26.052C18.45,26.481 18.403,26.825 18.307,27.083C18.212,27.341 18.084,27.47 17.924,27.47ZM17.936,25.019C17.828,25.019 17.742,25.113 17.678,25.3C17.615,25.489 17.584,25.748 17.584,26.079C17.584,26.397 17.615,26.649 17.679,26.832C17.744,27.016 17.829,27.108 17.936,27.108C18.046,27.108 18.13,27.017 18.189,26.838C18.247,26.657 18.277,26.401 18.277,26.068C18.277,25.733 18.247,25.474 18.189,25.292C18.13,25.109 18.046,25.019 17.936,25.019Z" style="fill-rule:nonzero;"/>
    <path d="M19.271,25.155C19.242,25.097 19.199,25.069 19.144,25.069C19.072,25.069 19.011,25.155 18.962,25.329C18.914,25.501 18.89,25.738 18.89,26.037L18.89,27.407L18.721,27.407L18.721,24.719L18.89,24.719L18.89,25.273L18.894,25.273C18.918,25.084 18.955,24.937 19.004,24.831C19.054,24.725 19.109,24.672 19.17,24.672C19.215,24.672 19.248,24.685 19.271,24.709L19.271,25.155Z" style="fill-rule:nonzero;"/>
    <path d="M20.304,26.171L19.559,26.171C19.561,26.47 19.593,26.701 19.654,26.864C19.714,27.027 19.798,27.108 19.904,27.108C20.022,27.108 20.132,27.008 20.231,26.808L20.231,27.213C20.139,27.384 20.016,27.47 19.863,27.47C19.714,27.47 19.596,27.348 19.511,27.104C19.426,26.859 19.383,26.516 19.383,26.074C19.383,25.656 19.43,25.315 19.523,25.051C19.616,24.788 19.732,24.656 19.87,24.656C20.008,24.656 20.116,24.77 20.191,24.997C20.267,25.225 20.304,25.54 20.304,25.946L20.304,26.171ZM20.132,25.806C20.13,25.557 20.107,25.364 20.06,25.225C20.014,25.088 19.95,25.019 19.867,25.019C19.787,25.019 19.72,25.091 19.664,25.236C19.608,25.381 19.574,25.571 19.56,25.806L20.132,25.806Z" style="fill-rule:nonzero;"/>
    <path d="M22.061,27.407L21.892,27.407L21.892,25.864C21.892,25.566 21.874,25.351 21.838,25.218C21.801,25.085 21.741,25.019 21.656,25.019C21.584,25.019 21.522,25.103 21.471,25.271C21.421,25.438 21.395,25.64 21.395,25.874L21.395,27.407L21.226,27.407L21.226,25.811C21.226,25.282 21.146,25.019 20.986,25.019C20.912,25.019 20.851,25.098 20.802,25.256C20.754,25.414 20.73,25.62 20.73,25.874L20.73,27.407L20.561,27.407L20.561,24.719L20.73,24.719L20.73,25.145L20.734,25.145C20.809,24.819 20.919,24.656 21.062,24.656C21.135,24.656 21.198,24.707 21.251,24.81C21.305,24.912 21.341,25.046 21.361,25.212C21.44,24.842 21.557,24.656 21.712,24.656C21.945,24.656 22.061,25.021 22.061,25.751L22.061,27.407Z" style="fill-rule:nonzero;"/>
</svg>
