<?xml version="1.0" encoding="UTF-8" standalone="no"?>
<!DOCTYPE svg PUBLIC "-//W3C//DTD SVG 1.1//EN" "http://www.w3.org/Graphics/SVG/1.1/DTD/svg11.dtd">
<svg width="30px" height="30px" version="1.1" xmlns="http://www.w3.org/2000/svg" xmlns:xlink="http://www.w3.org/1999/xlink" xml:space="preserve" xmlns:serif="http://www.serif.com/" style="fill-rule:evenodd;clip-rule:evenodd;stroke-linecap:round;stroke-linejoin:round;stroke-miterlimit:1.5;">
    <g id="title">
        <rect x="0.255" y="0.255" width="29.473" height="6.245" style="fill:white;stroke:rgb(128,128,128);stroke-width:0.5px;"/>
        <path d="M3.617,1.774L2.643,1.774L2.643,5.476L2.248,5.476L2.248,1.774L1.276,1.774L1.276,1.335L3.617,1.335L3.617,1.774Z" style="fill-rule:nonzero;"/>
        <path d="M4.292,1.769C4.223,1.769 4.164,1.74 4.116,1.682C4.067,1.624 4.043,1.551 4.043,1.462C4.043,1.374 4.067,1.3 4.116,1.242C4.164,1.183 4.223,1.153 4.292,1.153C4.363,1.153 4.423,1.183 4.472,1.242C4.522,1.3 4.546,1.374 4.546,1.462C4.546,1.547 4.522,1.619 4.472,1.679C4.423,1.739 4.363,1.769 4.292,1.769ZM4.481,5.476L4.095,5.476L4.095,2.519L4.481,2.519L4.481,5.476Z" style="fill-rule:nonzero;"/>
        <path d="M6.379,5.447C6.288,5.509 6.168,5.539 6.019,5.539C5.597,5.539 5.386,5.251 5.386,4.673L5.386,2.923L4.972,2.923L4.972,2.519L5.386,2.519L5.386,1.797L5.772,1.644L5.772,2.519L6.379,2.519L6.379,2.923L5.772,2.923L5.772,4.59C5.772,4.788 5.799,4.929 5.854,5.014C5.909,5.099 6,5.141 6.127,5.141C6.224,5.141 6.308,5.108 6.379,5.043L6.379,5.447Z" style="fill-rule:nonzero;"/>
        <rect x="6.894" y="1.099" width="0.386" height="4.377"/>
        <path d="M9.997,4.116L8.296,4.116C8.302,4.445 8.375,4.699 8.513,4.878C8.651,5.057 8.84,5.147 9.082,5.147C9.353,5.147 9.603,5.037 9.83,4.818L9.83,5.262C9.618,5.451 9.338,5.545 8.99,5.545C8.65,5.545 8.382,5.411 8.188,5.142C7.994,4.874 7.896,4.496 7.896,4.009C7.896,3.549 8.003,3.174 8.215,2.884C8.428,2.595 8.691,2.45 9.007,2.45C9.322,2.45 9.566,2.575 9.738,2.825C9.911,3.076 9.997,3.423 9.997,3.868L9.997,4.116ZM9.602,3.715C9.6,3.441 9.547,3.229 9.441,3.077C9.335,2.924 9.188,2.848 9,2.848C8.818,2.848 8.663,2.928 8.536,3.088C8.409,3.248 8.331,3.457 8.301,3.715L9.602,3.715Z" style="fill-rule:nonzero;"/>
        <path d="M19.987,5.476L19.549,5.476L19.192,4.315L17.761,4.315L17.425,5.476L16.985,5.476L18.279,1.335L18.688,1.335L19.987,5.476ZM19.062,3.879L18.533,2.115C18.516,2.057 18.498,1.965 18.481,1.838L18.472,1.838C18.456,1.955 18.438,2.048 18.418,2.115L17.893,3.879L19.062,3.879Z" style="fill-rule:nonzero;"/>
        <path d="M21.688,2.999C21.62,2.935 21.523,2.903 21.396,2.903C21.231,2.903 21.094,2.999 20.983,3.189C20.872,3.38 20.817,3.64 20.817,3.969L20.817,5.476L20.431,5.476L20.431,2.519L20.817,2.519L20.817,3.128L20.827,3.128C20.881,2.921 20.965,2.758 21.078,2.642C21.191,2.525 21.317,2.467 21.457,2.467C21.557,2.467 21.634,2.481 21.688,2.508L21.688,2.999Z" style="fill-rule:nonzero;"/>
        <path d="M23.224,5.447C23.133,5.509 23.013,5.539 22.864,5.539C22.442,5.539 22.231,5.251 22.231,4.673L22.231,2.923L21.817,2.923L21.817,2.519L22.231,2.519L22.231,1.797L22.617,1.644L22.617,2.519L23.224,2.519L23.224,2.923L22.617,2.923L22.617,4.59C22.617,4.788 22.644,4.929 22.699,5.014C22.754,5.099 22.845,5.141 22.972,5.141C23.069,5.141 23.153,5.108 23.224,5.043L23.224,5.447Z" style="fill-rule:nonzero;"/>
        <path d="M23.937,1.769C23.868,1.769 23.809,1.74 23.76,1.682C23.711,1.624 23.687,1.551 23.687,1.462C23.687,1.374 23.711,1.3 23.76,1.242C23.809,1.183 23.868,1.153 23.937,1.153C24.007,1.153 24.067,1.183 24.116,1.242C24.166,1.3 24.191,1.374 24.191,1.462C24.191,1.547 24.166,1.619 24.116,1.679C24.067,1.739 24.007,1.769 23.937,1.769ZM24.125,5.476L23.739,5.476L23.739,2.519L24.125,2.519L24.125,5.476Z" style="fill-rule:nonzero;"/>
        <path d="M24.76,5.369L24.76,4.861C24.97,5.051 25.201,5.147 25.454,5.147C25.793,5.147 25.962,5.008 25.962,4.731C25.962,4.652 25.947,4.585 25.918,4.53C25.889,4.475 25.85,4.427 25.801,4.385C25.751,4.342 25.693,4.304 25.627,4.27C25.56,4.237 25.488,4.202 25.412,4.165C25.305,4.113 25.211,4.061 25.13,4.008C25.05,3.955 24.982,3.895 24.928,3.829C24.874,3.762 24.833,3.687 24.806,3.602C24.778,3.517 24.765,3.418 24.765,3.305C24.765,3.166 24.79,3.043 24.842,2.936C24.894,2.83 24.963,2.74 25.049,2.668C25.135,2.596 25.234,2.541 25.344,2.505C25.455,2.468 25.569,2.45 25.687,2.45C25.895,2.45 26.082,2.494 26.247,2.583L26.247,3.062C26.069,2.92 25.866,2.848 25.635,2.848C25.563,2.848 25.498,2.859 25.44,2.879C25.382,2.899 25.332,2.927 25.29,2.964C25.249,3 25.217,3.044 25.194,3.095C25.171,3.146 25.16,3.203 25.16,3.264C25.16,3.341 25.171,3.406 25.194,3.458C25.217,3.51 25.25,3.556 25.294,3.596C25.338,3.637 25.391,3.673 25.454,3.706C25.517,3.739 25.588,3.774 25.668,3.813C25.775,3.863 25.87,3.914 25.955,3.967C26.04,4.02 26.112,4.08 26.171,4.146C26.231,4.213 26.277,4.289 26.309,4.376C26.341,4.462 26.357,4.565 26.357,4.685C26.357,4.831 26.331,4.958 26.278,5.066C26.226,5.174 26.156,5.263 26.068,5.334C25.98,5.406 25.879,5.459 25.764,5.493C25.65,5.528 25.53,5.545 25.404,5.545C25.157,5.545 24.942,5.487 24.76,5.369Z" style="fill-rule:nonzero;"/>
        <path d="M28.067,5.447C27.976,5.509 27.857,5.539 27.708,5.539C27.286,5.539 27.075,5.251 27.075,4.673L27.075,2.923L26.661,2.923L26.661,2.519L27.075,2.519L27.075,1.797L27.461,1.644L27.461,2.519L28.067,2.519L28.067,2.923L27.461,2.923L27.461,4.59C27.461,4.788 27.488,4.929 27.543,5.014C27.598,5.099 27.689,5.141 27.816,5.141C27.913,5.141 27.997,5.108 28.067,5.043L28.067,5.447Z" style="fill-rule:nonzero;"/>
        <path d="M14,0.255L14,6.5" style="fill:none;stroke:rgb(128,128,128);stroke-width:0.5px;"/>
    </g>
    <g id="grid">
        <rect x="0.159" y="6.5" width="29.681" height="3.995" style="fill:white;stroke:rgb(129,129,129);stroke-width:0.45px;"/>
        <rect x="0.159" y="10.495" width="29.681" height="3.995" style="fill:white;stroke:rgb(129,129,129);stroke-width:0.45px;"/>
        <rect x="0.159" y="14.258" width="29.681" height="3.995" style="fill:white;stroke:rgb(129,129,129);stroke-width:0.45px;"/>
        <rect x="0.159" y="18.253" width="29.681" height="3.995" style="fill:white;stroke:rgb(129,129,129);stroke-width:0.45px;"/>
        <rect x="0.159" y="22.047" width="29.681" height="3.995" style="fill:white;stroke:rgb(129,129,129);stroke-width:0.45px;"/>
        <rect x="0.159" y="25.788" width="29.681" height="3.995" style="fill:white;stroke:rgb(129,129,129);stroke-width:0.45px;"/>
        <path d="M10.053,6.58L10.053,29.447" style="fill:none;stroke:rgb(129,129,129);stroke-width:0.45px;"/>
    </g>
    <g id="text">
        <path d="M2.045,9.612L1.149,9.612L1.149,7.249L1.352,7.249L1.352,9.361L2.045,9.361L2.045,9.612Z" style="fill-rule:nonzero;"/>
        <path d="M2.799,9.651C2.617,9.651 2.471,9.572 2.363,9.414C2.254,9.257 2.199,9.048 2.199,8.788C2.199,8.504 2.256,8.283 2.369,8.124C2.482,7.964 2.635,7.885 2.828,7.885C3.012,7.885 3.155,7.963 3.258,8.117C3.362,8.272 3.413,8.487 3.413,8.761C3.413,9.03 3.357,9.246 3.246,9.408C3.135,9.57 2.986,9.651 2.799,9.651ZM2.813,8.113C2.686,8.113 2.586,8.171 2.512,8.289C2.438,8.407 2.401,8.57 2.401,8.778C2.401,8.978 2.439,9.135 2.513,9.25C2.588,9.366 2.688,9.423 2.813,9.423C2.94,9.423 3.039,9.367 3.108,9.254C3.176,9.141 3.211,8.98 3.211,8.771C3.211,8.561 3.176,8.398 3.108,8.284C3.039,8.169 2.94,8.113 2.813,8.113Z" style="fill-rule:nonzero;"/>
        <path d="M4.372,8.198C4.337,8.162 4.287,8.144 4.223,8.144C4.139,8.144 4.067,8.198 4.011,8.306C3.955,8.415 3.926,8.563 3.926,8.751L3.926,9.612L3.729,9.612L3.729,7.924L3.926,7.924L3.926,8.272L3.931,8.272C3.96,8.154 4.002,8.06 4.059,7.995C4.118,7.928 4.182,7.895 4.253,7.895C4.305,7.895 4.344,7.902 4.372,7.918L4.372,8.198Z" style="fill-rule:nonzero;"/>
        <path d="M5.577,8.835L4.707,8.835C4.709,9.024 4.747,9.168 4.817,9.271C4.889,9.373 4.986,9.423 5.109,9.423C5.248,9.423 5.375,9.361 5.492,9.236L5.492,9.489C5.383,9.597 5.24,9.651 5.062,9.651C4.888,9.651 4.751,9.574 4.651,9.421C4.552,9.268 4.502,9.052 4.502,8.775C4.502,8.512 4.556,8.298 4.665,8.133C4.774,7.967 4.909,7.885 5.071,7.885C5.232,7.885 5.357,7.956 5.445,8.099C5.534,8.242 5.577,8.44 5.577,8.693L5.577,8.835ZM5.375,8.606C5.374,8.45 5.347,8.329 5.292,8.242C5.239,8.156 5.164,8.113 5.067,8.113C4.974,8.113 4.895,8.157 4.829,8.249C4.765,8.34 4.724,8.459 4.709,8.606L5.375,8.606Z" style="fill-rule:nonzero;"/>
        <path d="M7.627,9.612L7.43,9.612L7.43,8.643C7.43,8.456 7.409,8.321 7.367,8.237C7.324,8.154 7.253,8.113 7.154,8.113C7.07,8.113 6.998,8.165 6.94,8.271C6.88,8.376 6.851,8.502 6.851,8.649L6.851,9.612L6.653,9.612L6.653,8.61C6.653,8.278 6.56,8.113 6.373,8.113C6.286,8.113 6.214,8.162 6.158,8.262C6.102,8.36 6.074,8.49 6.074,8.649L6.074,9.612L5.876,9.612L5.876,7.924L6.074,7.924L6.074,8.191L6.079,8.191C6.166,7.987 6.293,7.885 6.462,7.885C6.546,7.885 6.619,7.917 6.682,7.981C6.745,8.046 6.787,8.13 6.811,8.234C6.902,8.001 7.038,7.885 7.221,7.885C7.492,7.885 7.627,8.113 7.627,8.572L7.627,9.612Z" style="fill-rule:nonzero;"/>
        <path d="M2.045,13.516L1.149,13.516L1.149,11.154L1.352,11.154L1.352,13.266L2.045,13.266L2.045,13.516Z" style="fill-rule:nonzero;"/>
        <path d="M2.799,13.556C2.617,13.556 2.471,13.477 2.363,13.32C2.254,13.162 2.199,12.953 2.199,12.692C2.199,12.41 2.256,12.188 2.369,12.028C2.482,11.869 2.635,11.79 2.828,11.79C3.012,11.79 3.155,11.867 3.258,12.022C3.362,12.177 3.413,12.391 3.413,12.667C3.413,12.936 3.357,13.151 3.246,13.313C3.135,13.475 2.986,13.556 2.799,13.556ZM2.813,12.017C2.686,12.017 2.586,12.076 2.512,12.194C2.438,12.313 2.401,12.476 2.401,12.683C2.401,12.883 2.439,13.04 2.513,13.155C2.588,13.271 2.688,13.329 2.813,13.329C2.94,13.329 3.039,13.272 3.108,13.159C3.176,13.045 3.211,12.884 3.211,12.676C3.211,12.465 3.176,12.303 3.108,12.188C3.039,12.074 2.94,12.017 2.813,12.017Z" style="fill-rule:nonzero;"/>
        <path d="M4.372,12.103C4.337,12.067 4.287,12.048 4.223,12.048C4.139,12.048 4.067,12.103 4.011,12.211C3.955,12.32 3.926,12.468 3.926,12.657L3.926,13.516L3.729,13.516L3.729,11.83L3.926,11.83L3.926,12.177L3.931,12.177C3.96,12.058 4.002,11.966 4.059,11.899C4.118,11.832 4.182,11.8 4.253,11.8C4.305,11.8 4.344,11.807 4.372,11.822L4.372,12.103Z" style="fill-rule:nonzero;"/>
        <path d="M5.577,12.741L4.707,12.741C4.709,12.928 4.747,13.073 4.817,13.175C4.889,13.278 4.986,13.329 5.109,13.329C5.248,13.329 5.375,13.266 5.492,13.14L5.492,13.395C5.383,13.502 5.24,13.556 5.062,13.556C4.888,13.556 4.751,13.479 4.651,13.326C4.552,13.172 4.502,12.958 4.502,12.679C4.502,12.417 4.556,12.203 4.665,12.037C4.774,11.873 4.909,11.79 5.071,11.79C5.232,11.79 5.357,11.861 5.445,12.004C5.534,12.147 5.577,12.345 5.577,12.599L5.577,12.741ZM5.375,12.511C5.374,12.356 5.347,12.234 5.292,12.147C5.239,12.06 5.164,12.017 5.067,12.017C4.974,12.017 4.895,12.063 4.829,12.154C4.765,12.245 4.724,12.364 4.709,12.511L5.375,12.511Z" style="fill-rule:nonzero;"/>
        <path d="M6.759,13.516L6.562,13.516L6.562,13.253L6.557,13.253C6.471,13.455 6.344,13.556 6.178,13.556C6.054,13.556 5.958,13.512 5.889,13.422C5.82,13.333 5.785,13.215 5.785,13.068C5.785,12.753 5.92,12.57 6.192,12.518L6.562,12.447C6.562,12.161 6.477,12.017 6.307,12.017C6.159,12.017 6.024,12.086 5.905,12.225L5.905,11.948C6.026,11.843 6.166,11.79 6.324,11.79C6.614,11.79 6.759,12 6.759,12.419L6.759,13.516ZM6.562,12.663L6.264,12.719C6.173,12.736 6.104,12.767 6.057,12.812C6.011,12.857 5.987,12.936 5.987,13.048C5.987,13.13 6.009,13.198 6.051,13.25C6.095,13.302 6.152,13.329 6.223,13.329C6.321,13.329 6.402,13.281 6.466,13.188C6.53,13.094 6.562,12.975 6.562,12.831L6.562,12.663Z" style="fill-rule:nonzero;"/>
        <path d="M8.883,13.516L8.685,13.516L8.685,12.548C8.685,12.361 8.664,12.226 8.621,12.143C8.58,12.058 8.509,12.017 8.409,12.017C8.325,12.017 8.253,12.069 8.194,12.175C8.135,12.281 8.106,12.407 8.106,12.554L8.106,13.516L7.908,13.516L7.908,12.515C7.908,12.183 7.814,12.017 7.627,12.017C7.541,12.017 7.469,12.067 7.413,12.166C7.357,12.266 7.328,12.395 7.328,12.554L7.328,13.516L7.131,13.516L7.131,11.83L7.328,11.83L7.328,12.096L7.333,12.096C7.421,11.892 7.549,11.79 7.716,11.79C7.801,11.79 7.875,11.822 7.937,11.886C7.999,11.95 8.043,12.035 8.065,12.139C8.157,11.907 8.294,11.79 8.475,11.79C8.747,11.79 8.883,12.019 8.883,12.476L8.883,13.516Z" style="fill-rule:nonzero;"/>
        <path d="M2.045,17.421L1.149,17.421L1.149,15.059L1.352,15.059L1.352,17.17L2.045,17.17L2.045,17.421Z" style="fill-rule:nonzero;"/>
        <path d="M2.799,17.46C2.617,17.46 2.471,17.382 2.363,17.224C2.254,17.067 2.199,16.858 2.199,16.598C2.199,16.314 2.256,16.093 2.369,15.934C2.482,15.775 2.635,15.695 2.828,15.695C3.012,15.695 3.155,15.772 3.258,15.927C3.362,16.082 3.413,16.297 3.413,16.571C3.413,16.84 3.357,17.056 3.246,17.218C3.135,17.38 2.986,17.46 2.799,17.46ZM2.813,15.922C2.686,15.922 2.586,15.981 2.512,16.099C2.438,16.217 2.401,16.38 2.401,16.588C2.401,16.787 2.439,16.945 2.513,17.061C2.588,17.176 2.688,17.234 2.813,17.234C2.94,17.234 3.039,17.177 3.108,17.063C3.176,16.951 3.211,16.79 3.211,16.581C3.211,16.37 3.176,16.207 3.108,16.093C3.039,15.98 2.94,15.922 2.813,15.922Z" style="fill-rule:nonzero;"/>
        <path d="M4.372,16.008C4.337,15.971 4.287,15.953 4.223,15.953C4.139,15.953 4.067,16.008 4.011,16.117C3.955,16.226 3.926,16.374 3.926,16.561L3.926,17.421L3.729,17.421L3.729,15.734L3.926,15.734L3.926,16.082L3.931,16.082C3.96,15.963 4.002,15.871 4.059,15.804C4.118,15.738 4.182,15.704 4.253,15.704C4.305,15.704 4.344,15.713 4.372,15.728L4.372,16.008Z" style="fill-rule:nonzero;"/>
        <path d="M6.337,17.421L6.14,17.421L6.14,16.452C6.14,16.266 6.119,16.131 6.077,16.047C6.034,15.964 5.964,15.922 5.864,15.922C5.78,15.922 5.708,15.975 5.649,16.08C5.59,16.185 5.56,16.312 5.56,16.459L5.56,17.421L5.363,17.421L5.363,16.42C5.363,16.088 5.269,15.922 5.082,15.922C4.995,15.922 4.924,15.971 4.868,16.071C4.811,16.171 4.784,16.3 4.784,16.459L4.784,17.421L4.586,17.421L4.586,15.734L4.784,15.734L4.784,16.002L4.789,16.002C4.876,15.797 5.003,15.695 5.172,15.695C5.256,15.695 5.33,15.727 5.392,15.791C5.454,15.855 5.498,15.939 5.521,16.044C5.613,15.811 5.749,15.695 5.93,15.695C6.201,15.695 6.337,15.924 6.337,16.382L6.337,17.421Z" style="fill-rule:nonzero;"/>
        <path d="M2.045,21.458L1.149,21.458L1.149,19.096L1.352,19.096L1.352,21.208L2.045,21.208L2.045,21.458Z" style="fill-rule:nonzero;"/>
        <path d="M2.799,21.498C2.617,21.498 2.471,21.419 2.363,21.261C2.254,21.104 2.199,20.895 2.199,20.634C2.199,20.351 2.256,20.129 2.369,19.97C2.482,19.811 2.635,19.732 2.828,19.732C3.012,19.732 3.155,19.809 3.258,19.964C3.362,20.118 3.413,20.333 3.413,20.608C3.413,20.877 3.357,21.093 3.246,21.254C3.135,21.416 2.986,21.498 2.799,21.498ZM2.813,19.958C2.686,19.958 2.586,20.018 2.512,20.136C2.438,20.254 2.401,20.417 2.401,20.624C2.401,20.825 2.439,20.982 2.513,21.097C2.588,21.212 2.688,21.27 2.813,21.27C2.94,21.27 3.039,21.213 3.108,21.101C3.176,20.987 3.211,20.826 3.211,20.618C3.211,20.407 3.176,20.245 3.108,20.13C3.039,20.016 2.94,19.958 2.813,19.958Z" style="fill-rule:nonzero;"/>
        <rect x="3.702" y="20.412" width="0.658" height="0.212"/>
        <path d="M5.359,20.044C5.324,20.008 5.274,19.99 5.209,19.99C5.125,19.99 5.054,20.044 4.997,20.153C4.941,20.262 4.912,20.41 4.912,20.598L4.912,21.458L4.715,21.458L4.715,19.771L4.912,19.771L4.912,20.118L4.917,20.118C4.946,20 4.988,19.907 5.046,19.841C5.104,19.775 5.169,19.742 5.24,19.742C5.291,19.742 5.331,19.749 5.359,19.764L5.359,20.044Z" style="fill-rule:nonzero;"/>
        <path d="M6.564,20.682L5.693,20.682C5.696,20.87 5.733,21.015 5.804,21.117C5.875,21.219 5.972,21.27 6.096,21.27C6.234,21.27 6.362,21.208 6.478,21.083L6.478,21.336C6.37,21.444 6.226,21.498 6.048,21.498C5.874,21.498 5.737,21.421 5.638,21.268C5.539,21.115 5.488,20.899 5.488,20.622C5.488,20.359 5.543,20.145 5.651,19.979C5.76,19.814 5.896,19.732 6.057,19.732C6.218,19.732 6.343,19.803 6.431,19.946C6.52,20.088 6.564,20.287 6.564,20.54L6.564,20.682ZM6.362,20.453C6.361,20.297 6.333,20.176 6.279,20.089C6.225,20.002 6.15,19.958 6.053,19.958C5.96,19.958 5.881,20.004 5.816,20.096C5.751,20.187 5.711,20.306 5.696,20.453L6.362,20.453Z" style="fill-rule:nonzero;"/>
        <path d="M8.614,21.458L8.417,21.458L8.417,20.489C8.417,20.302 8.395,20.168 8.353,20.084C8.311,20 8.241,19.958 8.141,19.958C8.057,19.958 7.984,20.011 7.926,20.117C7.867,20.223 7.837,20.349 7.837,20.496L7.837,21.458L7.639,21.458L7.639,20.456C7.639,20.125 7.546,19.958 7.359,19.958C7.272,19.958 7.201,20.009 7.144,20.107C7.088,20.207 7.06,20.337 7.06,20.496L7.06,21.458L6.862,21.458L6.862,19.771L7.06,19.771L7.06,20.038L7.065,20.038C7.152,19.834 7.28,19.732 7.448,19.732C7.532,19.732 7.605,19.764 7.669,19.828C7.731,19.892 7.774,19.977 7.797,20.081C7.888,19.848 8.025,19.732 8.207,19.732C8.478,19.732 8.614,19.96 8.614,20.418L8.614,21.458Z" style="fill-rule:nonzero;"/>
        <path d="M2.045,25.205L1.149,25.205L1.149,22.842L1.352,22.842L1.352,24.954L2.045,24.954L2.045,25.205Z" style="fill-rule:nonzero;"/>
        <path d="M2.799,25.244C2.617,25.244 2.471,25.166 2.363,25.008C2.254,24.85 2.199,24.641 2.199,24.381C2.199,24.097 2.256,23.876 2.369,23.717C2.482,23.558 2.635,23.478 2.828,23.478C3.012,23.478 3.155,23.556 3.258,23.71C3.362,23.865 3.413,24.08 3.413,24.354C3.413,24.624 3.357,24.839 3.246,25.001C3.135,25.164 2.986,25.244 2.799,25.244ZM2.813,23.706C2.686,23.706 2.586,23.764 2.512,23.882C2.438,24 2.401,24.163 2.401,24.371C2.401,24.571 2.439,24.728 2.513,24.844C2.588,24.959 2.688,25.017 2.813,25.017C2.94,25.017 3.039,24.961 3.108,24.847C3.176,24.734 3.211,24.573 3.211,24.364C3.211,24.154 3.176,23.991 3.108,23.877C3.039,23.762 2.94,23.706 2.813,23.706Z" style="fill-rule:nonzero;"/>
        <path d="M4.301,25.188C4.254,25.223 4.193,25.241 4.117,25.241C3.9,25.241 3.792,25.076 3.792,24.747L3.792,23.749L3.581,23.749L3.581,23.517L3.792,23.517L3.792,23.106L3.99,23.019L3.99,23.517L4.301,23.517L4.301,23.749L3.99,23.749L3.99,24.699C3.99,24.813 4.004,24.893 4.032,24.941C4.06,24.99 4.107,25.014 4.172,25.014C4.222,25.014 4.264,24.995 4.301,24.958L4.301,25.188Z" style="fill-rule:nonzero;"/>
        <path d="M5.137,25.188C5.09,25.223 5.029,25.241 4.952,25.241C4.736,25.241 4.628,25.076 4.628,24.747L4.628,23.749L4.417,23.749L4.417,23.517L4.628,23.517L4.628,23.106L4.826,23.019L4.826,23.517L5.137,23.517L5.137,23.749L4.826,23.749L4.826,24.699C4.826,24.813 4.84,24.893 4.868,24.941C4.896,24.99 4.943,25.014 5.007,25.014C5.058,25.014 5.1,24.995 5.137,24.958L5.137,25.188Z" style="fill-rule:nonzero;"/>
        <path d="M6.391,24.428L5.521,24.428C5.524,24.617 5.561,24.761 5.632,24.864C5.703,24.966 5.8,25.017 5.923,25.017C6.062,25.017 6.19,24.954 6.306,24.829L6.306,25.083C6.198,25.19 6.054,25.244 5.876,25.244C5.702,25.244 5.565,25.167 5.465,25.015C5.365,24.861 5.316,24.646 5.316,24.368C5.316,24.105 5.37,23.891 5.479,23.726C5.588,23.561 5.724,23.478 5.885,23.478C6.046,23.478 6.171,23.549 6.259,23.692C6.348,23.835 6.391,24.033 6.391,24.287L6.391,24.428ZM6.19,24.2C6.189,24.044 6.161,23.923 6.106,23.836C6.053,23.749 5.977,23.706 5.881,23.706C5.788,23.706 5.709,23.752 5.643,23.842C5.579,23.934 5.539,24.052 5.524,24.2L6.19,24.2Z" style="fill-rule:nonzero;"/>
        <path d="M8.441,25.205L8.245,25.205L8.245,24.236C8.245,24.05 8.223,23.914 8.181,23.831C8.139,23.747 8.067,23.706 7.969,23.706C7.884,23.706 7.812,23.758 7.754,23.864C7.694,23.969 7.665,24.095 7.665,24.243L7.665,25.205L7.467,25.205L7.467,24.203C7.467,23.871 7.374,23.706 7.187,23.706C7.1,23.706 7.029,23.755 6.972,23.855C6.916,23.954 6.888,24.084 6.888,24.243L6.888,25.205L6.69,25.205L6.69,23.517L6.888,23.517L6.888,23.784L6.893,23.784C6.98,23.58 7.108,23.478 7.276,23.478C7.36,23.478 7.433,23.51 7.497,23.575C7.559,23.639 7.601,23.723 7.625,23.827C7.716,23.594 7.853,23.478 8.035,23.478C8.306,23.478 8.441,23.708 8.441,24.165L8.441,25.205Z" style="fill-rule:nonzero;"/>
        <path d="M1.997,29.066L1.101,29.066L1.101,26.703L1.303,26.703L1.303,28.815L1.997,28.815L1.997,29.066Z" style="fill-rule:nonzero;"/>
        <path d="M2.752,29.105C2.568,29.105 2.423,29.026 2.314,28.869C2.205,28.711 2.151,28.502 2.151,28.242C2.151,27.959 2.207,27.738 2.321,27.578C2.434,27.418 2.587,27.339 2.78,27.339C2.964,27.339 3.108,27.417 3.211,27.571C3.313,27.727 3.365,27.941 3.365,28.216C3.365,28.485 3.31,28.7 3.199,28.863C3.087,29.025 2.939,29.105 2.752,29.105ZM2.765,27.567C2.639,27.567 2.538,27.625 2.465,27.743C2.39,27.862 2.354,28.025 2.354,28.232C2.354,28.432 2.391,28.589 2.466,28.704C2.54,28.821 2.641,28.878 2.765,28.878C2.893,28.878 2.991,28.821 3.06,28.708C3.128,28.595 3.163,28.434 3.163,28.225C3.163,28.015 3.128,27.852 3.06,27.738C2.991,27.623 2.893,27.567 2.765,27.567Z" style="fill-rule:nonzero;"/>
        <path d="M4.324,27.653C4.29,27.616 4.24,27.598 4.174,27.598C4.09,27.598 4.02,27.653 3.964,27.76C3.907,27.869 3.878,28.018 3.878,28.206L3.878,29.066L3.681,29.066L3.681,27.379L3.878,27.379L3.878,27.727L3.883,27.727C3.911,27.608 3.955,27.515 4.012,27.449C4.07,27.382 4.135,27.349 4.206,27.349C4.257,27.349 4.297,27.356 4.324,27.372L4.324,27.653Z" style="fill-rule:nonzero;"/>
        <path d="M5.536,29.066L5.338,29.066L5.338,28.799L5.334,28.799C5.252,29.004 5.125,29.105 4.953,29.105C4.659,29.105 4.512,28.865 4.512,28.387L4.512,27.379L4.709,27.379L4.709,28.344C4.709,28.7 4.807,28.878 5.007,28.878C5.103,28.878 5.182,28.829 5.245,28.732C5.307,28.635 5.338,28.508 5.338,28.35L5.338,27.379L5.536,27.379L5.536,29.066Z" style="fill-rule:nonzero;"/>
        <path d="M6.035,26.95C6.001,26.95 5.97,26.934 5.945,26.901C5.92,26.868 5.908,26.826 5.908,26.775C5.908,26.725 5.92,26.683 5.945,26.649C5.97,26.616 6.001,26.6 6.035,26.6C6.072,26.6 6.103,26.616 6.127,26.649C6.153,26.683 6.166,26.725 6.166,26.775C6.166,26.824 6.153,26.865 6.127,26.899C6.103,26.934 6.072,26.95 6.035,26.95ZM6.132,29.066L5.934,29.066L5.934,27.379L6.132,27.379L6.132,29.066Z" style="fill-rule:nonzero;"/>
        <path d="M8.283,29.066L8.085,29.066L8.085,28.097C8.085,27.91 8.064,27.775 8.022,27.692C7.98,27.608 7.909,27.567 7.81,27.567C7.725,27.567 7.654,27.619 7.595,27.725C7.536,27.83 7.506,27.956 7.506,28.103L7.506,29.066L7.309,29.066L7.309,28.064C7.309,27.732 7.216,27.567 7.028,27.567C6.942,27.567 6.87,27.616 6.814,27.716C6.758,27.815 6.73,27.944 6.73,28.103L6.73,29.066L6.532,29.066L6.532,27.379L6.73,27.379L6.73,27.645L6.734,27.645C6.822,27.441 6.949,27.339 7.118,27.339C7.202,27.339 7.275,27.371 7.337,27.436C7.401,27.5 7.443,27.584 7.467,27.688C7.558,27.456 7.694,27.339 7.875,27.339C8.148,27.339 8.283,27.568 8.283,28.026L8.283,29.066Z" style="fill-rule:nonzero;"/>
        <path d="M11.933,9.7L11.076,9.7L11.076,7.495L11.27,7.495L11.27,9.466L11.933,9.466L11.933,9.7Z" style="fill-rule:nonzero;"/>
        <path d="M12.653,9.737C12.479,9.737 12.34,9.664 12.236,9.517C12.132,9.369 12.08,9.174 12.08,8.931C12.08,8.667 12.134,8.46 12.243,8.312C12.35,8.163 12.497,8.089 12.681,8.089C12.857,8.089 12.994,8.161 13.092,8.306C13.191,8.45 13.24,8.65 13.24,8.906C13.24,9.158 13.187,9.359 13.081,9.51C12.975,9.662 12.832,9.737 12.653,9.737ZM12.667,8.301C12.546,8.301 12.45,8.356 12.379,8.467C12.309,8.576 12.273,8.728 12.273,8.922C12.273,9.109 12.309,9.256 12.38,9.364C12.452,9.471 12.547,9.525 12.667,9.525C12.789,9.525 12.883,9.473 12.949,9.367C13.014,9.261 13.047,9.11 13.047,8.917C13.047,8.719 13.014,8.567 12.949,8.461C12.883,8.354 12.789,8.301 12.667,8.301Z" style="fill-rule:nonzero;"/>
        <path d="M14.157,8.381C14.123,8.347 14.076,8.33 14.014,8.33C13.933,8.33 13.866,8.381 13.812,8.482C13.757,8.584 13.731,8.723 13.731,8.897L13.731,9.7L13.542,9.7L13.542,8.125L13.731,8.125L13.731,8.45L13.736,8.45C13.762,8.339 13.803,8.253 13.858,8.191C13.914,8.129 13.975,8.098 14.043,8.098C14.093,8.098 14.13,8.105 14.157,8.12L14.157,8.381Z" style="fill-rule:nonzero;"/>
        <path d="M15.309,8.976L14.477,8.976C14.48,9.152 14.515,9.287 14.582,9.382C14.65,9.477 14.743,9.525 14.861,9.525C14.994,9.525 15.116,9.466 15.227,9.35L15.227,9.587C15.124,9.687 14.986,9.737 14.816,9.737C14.65,9.737 14.519,9.666 14.423,9.523C14.328,9.379 14.281,9.178 14.281,8.919C14.281,8.674 14.333,8.475 14.437,8.32C14.541,8.166 14.67,8.089 14.824,8.089C14.978,8.089 15.098,8.156 15.182,8.289C15.266,8.422 15.309,8.607 15.309,8.843L15.309,8.976ZM15.116,8.762C15.115,8.617 15.088,8.503 15.037,8.423C14.985,8.341 14.913,8.301 14.821,8.301C14.732,8.301 14.656,8.344 14.594,8.429C14.532,8.514 14.493,8.625 14.479,8.762L15.116,8.762Z" style="fill-rule:nonzero;"/>
        <path d="M17.268,9.7L17.079,9.7L17.079,8.796C17.079,8.622 17.059,8.496 17.018,8.418C16.979,8.34 16.91,8.301 16.816,8.301C16.735,8.301 16.666,8.35 16.61,8.448C16.553,8.547 16.526,8.665 16.526,8.802L16.526,9.7L16.337,9.7L16.337,8.766C16.337,8.456 16.248,8.301 16.069,8.301C15.985,8.301 15.917,8.348 15.864,8.44C15.81,8.533 15.783,8.654 15.783,8.802L15.783,9.7L15.595,9.7L15.595,8.125L15.783,8.125L15.783,8.375L15.788,8.375C15.872,8.184 15.993,8.089 16.154,8.089C16.234,8.089 16.304,8.119 16.364,8.178C16.424,8.239 16.465,8.317 16.487,8.414C16.575,8.198 16.706,8.089 16.879,8.089C17.138,8.089 17.268,8.303 17.268,8.73L17.268,9.7Z" style="fill-rule:nonzero;"/>
        <rect x="18.296" y="7.495" width="0.193" height="2.205"/>
        <path d="M19.741,9.7L19.553,9.7L19.553,9.454L19.548,9.454C19.466,9.643 19.345,9.737 19.185,9.737C19.068,9.737 18.976,9.696 18.91,9.613C18.844,9.529 18.81,9.42 18.81,9.282C18.81,8.988 18.94,8.817 19.199,8.768L19.553,8.703C19.553,8.435 19.472,8.301 19.31,8.301C19.168,8.301 19.04,8.366 18.925,8.495L18.925,8.236C19.042,8.138 19.175,8.089 19.326,8.089C19.603,8.089 19.741,8.285 19.741,8.676L19.741,9.7ZM19.553,8.904L19.268,8.956C19.181,8.972 19.115,9.002 19.07,9.043C19.026,9.085 19.004,9.158 19.004,9.263C19.004,9.341 19.024,9.403 19.065,9.452C19.106,9.501 19.161,9.525 19.23,9.525C19.323,9.525 19.4,9.481 19.461,9.394C19.522,9.306 19.553,9.195 19.553,9.061L19.553,8.904Z" style="fill-rule:nonzero;"/>
        <path d="M20.026,9.644L20.026,9.373C20.129,9.474 20.242,9.525 20.365,9.525C20.531,9.525 20.614,9.452 20.614,9.303C20.614,9.261 20.607,9.226 20.593,9.196C20.578,9.167 20.559,9.142 20.536,9.119C20.511,9.097 20.482,9.077 20.449,9.058C20.417,9.04 20.382,9.022 20.345,9.003C20.292,8.974 20.247,8.947 20.207,8.918C20.168,8.89 20.135,8.858 20.108,8.823C20.081,8.788 20.062,8.747 20.048,8.703C20.035,8.657 20.028,8.605 20.028,8.544C20.028,8.47 20.041,8.404 20.066,8.348C20.091,8.291 20.125,8.243 20.168,8.205C20.209,8.167 20.258,8.137 20.312,8.118C20.365,8.099 20.422,8.089 20.479,8.089C20.581,8.089 20.673,8.113 20.753,8.159L20.753,8.414C20.666,8.338 20.567,8.301 20.453,8.301C20.419,8.301 20.387,8.306 20.358,8.317C20.33,8.328 20.306,8.343 20.285,8.362C20.264,8.382 20.25,8.405 20.238,8.433C20.227,8.459 20.221,8.489 20.221,8.522C20.221,8.563 20.227,8.597 20.238,8.626C20.25,8.653 20.265,8.678 20.287,8.699C20.309,8.721 20.335,8.74 20.365,8.757C20.396,8.775 20.431,8.794 20.47,8.815C20.523,8.842 20.569,8.869 20.611,8.896C20.652,8.925 20.687,8.957 20.717,8.992C20.745,9.027 20.768,9.068 20.784,9.114C20.8,9.161 20.808,9.216 20.808,9.279C20.808,9.357 20.795,9.424 20.769,9.482C20.743,9.539 20.709,9.587 20.666,9.625C20.623,9.663 20.573,9.691 20.517,9.71C20.461,9.728 20.403,9.737 20.341,9.737C20.22,9.737 20.115,9.706 20.026,9.644Z" style="fill-rule:nonzero;"/>
        <path d="M22.05,9.7L21.861,9.7L21.861,9.452L21.857,9.452C21.779,9.642 21.658,9.737 21.493,9.737C21.212,9.737 21.072,9.514 21.072,9.067L21.072,8.125L21.26,8.125L21.26,9.027C21.26,9.359 21.355,9.525 21.545,9.525C21.637,9.525 21.713,9.48 21.772,9.389C21.832,9.298 21.861,9.18 21.861,9.033L21.861,8.125L22.05,8.125L22.05,9.7Z" style="fill-rule:nonzero;"/>
        <path d="M24.105,9.7L23.916,9.7L23.916,8.796C23.916,8.622 23.896,8.496 23.856,8.418C23.815,8.34 23.748,8.301 23.653,8.301C23.572,8.301 23.504,8.35 23.447,8.448C23.391,8.547 23.362,8.665 23.362,8.802L23.362,9.7L23.174,9.7L23.174,8.766C23.174,8.456 23.084,8.301 22.906,8.301C22.823,8.301 22.755,8.348 22.7,8.44C22.647,8.533 22.62,8.654 22.62,8.802L22.62,9.7L22.431,9.7L22.431,8.125L22.62,8.125L22.62,8.375L22.625,8.375C22.708,8.184 22.831,8.089 22.991,8.089C23.071,8.089 23.142,8.119 23.202,8.178C23.261,8.239 23.303,8.317 23.325,8.414C23.412,8.198 23.542,8.089 23.716,8.089C23.976,8.089 24.105,8.303 24.105,8.73L24.105,9.7Z" style="fill-rule:nonzero;"/>
        <path d="M25.388,8.125L24.919,9.7L24.733,9.7L24.287,8.125L24.494,8.125L24.794,9.27C24.816,9.354 24.829,9.427 24.834,9.49L24.839,9.49C24.847,9.41 24.859,9.339 24.876,9.276L25.19,8.125L25.388,8.125Z" style="fill-rule:nonzero;"/>
        <path d="M12.14,13.44L11.076,13.44L11.076,11.235L11.317,11.235L11.317,13.206L12.14,13.206L12.14,13.44Z" style="fill-rule:nonzero;"/>
        <path d="M13.035,13.477C12.818,13.477 12.645,13.404 12.517,13.257C12.387,13.109 12.323,12.915 12.323,12.671C12.323,12.407 12.39,12.2 12.525,12.052C12.659,11.903 12.84,11.829 13.069,11.829C13.287,11.829 13.458,11.901 13.58,12.046C13.703,12.19 13.764,12.39 13.764,12.647C13.764,12.898 13.698,13.099 13.566,13.25C13.434,13.402 13.257,13.477 13.035,13.477ZM13.052,12.041C12.902,12.041 12.782,12.096 12.695,12.207C12.607,12.316 12.563,12.468 12.563,12.662C12.563,12.849 12.608,12.996 12.696,13.104C12.785,13.211 12.904,13.265 13.052,13.265C13.203,13.265 13.32,13.213 13.401,13.107C13.483,13.001 13.524,12.851 13.524,12.657C13.524,12.459 13.483,12.307 13.401,12.201C13.32,12.094 13.203,12.041 13.052,12.041Z" style="fill-rule:nonzero;"/>
        <path d="M14.902,12.121C14.86,12.087 14.802,12.07 14.725,12.07C14.624,12.07 14.541,12.121 14.474,12.222C14.406,12.324 14.373,12.463 14.373,12.637L14.373,13.44L14.138,13.44L14.138,11.865L14.373,11.865L14.373,12.19L14.379,12.19C14.412,12.079 14.463,11.993 14.532,11.931C14.6,11.869 14.676,11.838 14.762,11.838C14.823,11.838 14.869,11.845 14.902,11.86L14.902,12.121Z" style="fill-rule:nonzero;"/>
        <path d="M16.333,12.716L15.299,12.716C15.303,12.892 15.347,13.027 15.43,13.122C15.514,13.217 15.63,13.265 15.777,13.265C15.942,13.265 16.093,13.206 16.232,13.09L16.232,13.327C16.102,13.427 15.933,13.477 15.721,13.477C15.514,13.477 15.351,13.406 15.233,13.263C15.116,13.119 15.056,12.918 15.056,12.659C15.056,12.414 15.121,12.215 15.25,12.06C15.379,11.906 15.539,11.829 15.731,11.829C15.922,11.829 16.071,11.896 16.175,12.029C16.28,12.162 16.333,12.347 16.333,12.584L16.333,12.716ZM16.092,12.502C16.091,12.357 16.059,12.243 15.994,12.163C15.93,12.081 15.841,12.041 15.726,12.041C15.616,12.041 15.522,12.084 15.445,12.169C15.368,12.254 15.321,12.365 15.302,12.502L16.092,12.502Z" style="fill-rule:nonzero;"/>
        <path d="M18.766,13.44L18.531,13.44L18.531,12.536C18.531,12.362 18.506,12.236 18.456,12.158C18.406,12.08 18.322,12.041 18.204,12.041C18.104,12.041 18.019,12.09 17.949,12.188C17.879,12.287 17.843,12.405 17.843,12.542L17.843,13.44L17.609,13.44L17.609,12.506C17.609,12.196 17.498,12.041 17.277,12.041C17.174,12.041 17.089,12.088 17.022,12.18C16.955,12.273 16.921,12.394 16.921,12.542L16.921,13.44L16.687,13.44L16.687,11.865L16.921,11.865L16.921,12.115L16.927,12.115C17.031,11.924 17.183,11.829 17.382,11.829C17.482,11.829 17.569,11.859 17.644,11.918C17.718,11.979 17.769,12.058 17.797,12.154C17.905,11.938 18.067,11.829 18.283,11.829C18.605,11.829 18.766,12.043 18.766,12.47L18.766,13.44Z" style="fill-rule:nonzero;"/>
        <rect x="20.043" y="11.235" width="0.24" height="2.205"/>
        <path d="M21.838,13.44L21.603,13.44L21.603,13.194L21.598,13.194C21.496,13.383 21.346,13.477 21.147,13.477C21.002,13.477 20.888,13.436 20.805,13.353C20.723,13.269 20.681,13.16 20.681,13.022C20.681,12.728 20.842,12.557 21.165,12.508L21.603,12.443C21.603,12.175 21.503,12.041 21.302,12.041C21.125,12.041 20.966,12.106 20.824,12.235L20.824,11.976C20.968,11.878 21.134,11.829 21.322,11.829C21.666,11.829 21.838,12.025 21.838,12.416L21.838,13.44ZM21.603,12.644L21.251,12.696C21.142,12.712 21.06,12.742 21.005,12.783C20.949,12.825 20.921,12.898 20.921,13.004C20.921,13.081 20.947,13.143 20.998,13.192C21.049,13.241 21.117,13.265 21.201,13.265C21.318,13.265 21.414,13.221 21.49,13.134C21.566,13.046 21.603,12.935 21.603,12.801L21.603,12.644Z" style="fill-rule:nonzero;"/>
        <path d="M22.191,13.384L22.191,13.113C22.318,13.215 22.459,13.265 22.613,13.265C22.819,13.265 22.922,13.192 22.922,13.044C22.922,13.001 22.913,12.966 22.895,12.937C22.877,12.907 22.854,12.882 22.824,12.859C22.793,12.837 22.759,12.817 22.718,12.798C22.678,12.78 22.634,12.762 22.587,12.743C22.522,12.714 22.465,12.687 22.416,12.658C22.367,12.63 22.326,12.598 22.294,12.563C22.26,12.528 22.235,12.487 22.218,12.443C22.203,12.398 22.194,12.345 22.194,12.284C22.194,12.21 22.21,12.145 22.241,12.088C22.273,12.031 22.314,11.983 22.367,11.945C22.419,11.907 22.479,11.877 22.546,11.858C22.613,11.839 22.683,11.829 22.755,11.829C22.881,11.829 22.994,11.853 23.094,11.899L23.094,12.154C22.987,12.079 22.863,12.041 22.723,12.041C22.679,12.041 22.639,12.047 22.604,12.058C22.569,12.068 22.539,12.083 22.513,12.102C22.489,12.122 22.469,12.145 22.455,12.173C22.441,12.199 22.434,12.229 22.434,12.262C22.434,12.304 22.441,12.338 22.455,12.366C22.469,12.393 22.489,12.418 22.515,12.439C22.542,12.461 22.575,12.48 22.613,12.497C22.651,12.515 22.694,12.534 22.743,12.555C22.807,12.582 22.866,12.609 22.917,12.637C22.968,12.665 23.013,12.697 23.049,12.733C23.085,12.767 23.113,12.808 23.133,12.854C23.151,12.901 23.161,12.956 23.161,13.019C23.161,13.097 23.146,13.164 23.114,13.222C23.082,13.28 23.04,13.327 22.986,13.365C22.933,13.403 22.871,13.431 22.801,13.45C22.732,13.468 22.659,13.477 22.583,13.477C22.432,13.477 22.302,13.446 22.191,13.384Z" style="fill-rule:nonzero;"/>
        <path d="M24.706,13.44L24.471,13.44L24.471,13.192L24.465,13.192C24.368,13.382 24.218,13.477 24.013,13.477C23.665,13.477 23.491,13.254 23.491,12.807L23.491,11.865L23.723,11.865L23.723,12.767C23.723,13.099 23.842,13.265 24.079,13.265C24.192,13.265 24.286,13.22 24.36,13.129C24.435,13.038 24.471,12.92 24.471,12.773L24.471,11.865L24.706,11.865L24.706,13.44Z" style="fill-rule:nonzero;"/>
        <path d="M27.257,13.44L27.023,13.44L27.023,12.536C27.023,12.362 26.998,12.236 26.948,12.158C26.898,12.08 26.814,12.041 26.695,12.041C26.595,12.041 26.51,12.09 26.44,12.188C26.37,12.287 26.335,12.405 26.335,12.542L26.335,13.44L26.101,13.44L26.101,12.506C26.101,12.196 25.99,12.041 25.767,12.041C25.664,12.041 25.58,12.088 25.513,12.18C25.447,12.273 25.413,12.394 25.413,12.542L25.413,13.44L25.179,13.44L25.179,11.865L25.413,11.865L25.413,12.115L25.419,12.115C25.523,11.924 25.674,11.829 25.873,11.829C25.973,11.829 26.061,11.859 26.135,11.918C26.21,11.979 26.26,12.058 26.288,12.154C26.397,11.938 26.559,11.829 26.775,11.829C27.096,11.829 27.257,12.043 27.257,12.47L27.257,13.44Z" style="fill-rule:nonzero;"/>
        <path d="M28.851,11.865L28.268,13.44L28.038,13.44L27.483,11.865L27.74,11.865L28.112,13.01C28.14,13.094 28.157,13.167 28.164,13.23L28.17,13.23C28.178,13.151 28.194,13.079 28.215,13.016L28.604,11.865L28.851,11.865Z" style="fill-rule:nonzero;"/>
        <path d="M11.705,17.421L11.076,17.421L11.076,15.216L11.219,15.216L11.219,17.188L11.705,17.188L11.705,17.421Z" style="fill-rule:nonzero;"/>
        <path d="M12.235,17.459C12.107,17.459 12.004,17.385 11.928,17.237C11.852,17.09 11.813,16.895 11.813,16.653C11.813,16.388 11.853,16.182 11.933,16.033C12.012,15.884 12.12,15.809 12.254,15.809C12.384,15.809 12.485,15.882 12.557,16.026C12.629,16.171 12.666,16.371 12.666,16.628C12.666,16.879 12.626,17.08 12.548,17.232C12.47,17.383 12.366,17.459 12.235,17.459ZM12.245,16.022C12.156,16.022 12.085,16.077 12.033,16.187C11.981,16.297 11.956,16.45 11.956,16.644C11.956,16.829 11.981,16.977 12.034,17.085C12.086,17.192 12.157,17.246 12.245,17.246C12.335,17.246 12.403,17.193 12.451,17.087C12.5,16.982 12.524,16.832 12.524,16.637C12.524,16.441 12.5,16.289 12.451,16.182C12.403,16.076 12.335,16.022 12.245,16.022Z" style="fill-rule:nonzero;"/>
        <path d="M13.339,16.102C13.314,16.068 13.279,16.051 13.234,16.051C13.175,16.051 13.125,16.102 13.086,16.204C13.046,16.305 13.026,16.443 13.026,16.619L13.026,17.421L12.888,17.421L12.888,15.847L13.026,15.847L13.026,16.171L13.029,16.171C13.049,16.06 13.079,15.974 13.119,15.912C13.16,15.85 13.205,15.819 13.256,15.819C13.292,15.819 13.319,15.826 13.339,15.841L13.339,16.102Z" style="fill-rule:nonzero;"/>
        <path d="M14.185,16.697L13.573,16.697C13.576,16.872 13.602,17.008 13.651,17.103C13.701,17.198 13.769,17.246 13.856,17.246C13.953,17.246 14.043,17.188 14.124,17.071L14.124,17.308C14.049,17.408 13.948,17.459 13.823,17.459C13.701,17.459 13.605,17.386 13.535,17.244C13.464,17.101 13.43,16.9 13.43,16.64C13.43,16.395 13.468,16.195 13.545,16.041C13.621,15.887 13.716,15.809 13.829,15.809C13.942,15.809 14.029,15.876 14.092,16.01C14.154,16.143 14.185,16.328 14.185,16.565L14.185,16.697ZM14.043,16.484C14.042,16.337 14.022,16.225 13.985,16.143C13.947,16.063 13.894,16.022 13.827,16.022C13.761,16.022 13.706,16.065 13.659,16.15C13.614,16.235 13.586,16.345 13.575,16.484L14.043,16.484Z" style="fill-rule:nonzero;"/>
        <path d="M15.623,17.421L15.485,17.421L15.485,16.517C15.485,16.343 15.47,16.216 15.44,16.139C15.412,16.061 15.361,16.022 15.292,16.022C15.233,16.022 15.182,16.071 15.14,16.17C15.099,16.268 15.078,16.386 15.078,16.523L15.078,17.421L14.94,17.421L14.94,16.486C14.94,16.177 14.874,16.022 14.743,16.022C14.682,16.022 14.632,16.068 14.592,16.161C14.553,16.254 14.533,16.375 14.533,16.523L14.533,17.421L14.395,17.421L14.395,15.847L14.533,15.847L14.533,16.096L14.537,16.096C14.598,15.905 14.687,15.809 14.805,15.809C14.864,15.809 14.916,15.84 14.96,15.9C15.004,15.959 15.035,16.038 15.05,16.136C15.115,15.918 15.211,15.809 15.338,15.809C15.528,15.809 15.623,16.023 15.623,16.451L15.623,17.421Z" style="fill-rule:nonzero;"/>
        <rect x="16.378" y="15.216" width="0.142" height="2.205"/>
        <path d="M17.441,17.421L17.302,17.421L17.302,17.175L17.298,17.175C17.238,17.363 17.149,17.459 17.032,17.459C16.946,17.459 16.879,17.417 16.829,17.333C16.781,17.251 16.756,17.14 16.756,17.003C16.756,16.709 16.852,16.538 17.042,16.489L17.302,16.423C17.302,16.156 17.242,16.022 17.123,16.022C17.019,16.022 16.925,16.087 16.841,16.216L16.841,15.958C16.926,15.859 17.024,15.809 17.135,15.809C17.339,15.809 17.441,16.005 17.441,16.397L17.441,17.421ZM17.302,16.624L17.093,16.677C17.029,16.693 16.981,16.722 16.947,16.763C16.914,16.806 16.899,16.879 16.899,16.985C16.899,17.062 16.913,17.124 16.944,17.173C16.974,17.222 17.014,17.246 17.064,17.246C17.133,17.246 17.189,17.203 17.235,17.115C17.28,17.027 17.302,16.916 17.302,16.782L17.302,16.624Z" style="fill-rule:nonzero;"/>
        <path d="M17.65,17.364L17.65,17.094C17.725,17.195 17.808,17.246 17.899,17.246C18.021,17.246 18.081,17.172 18.081,17.024C18.081,16.983 18.076,16.947 18.066,16.918C18.055,16.889 18.041,16.862 18.024,16.84C18.006,16.817 17.985,16.797 17.961,16.779C17.936,16.762 17.911,16.742 17.883,16.723C17.845,16.696 17.812,16.667 17.782,16.639C17.753,16.611 17.729,16.58 17.71,16.544C17.69,16.508 17.675,16.468 17.665,16.423C17.655,16.378 17.651,16.325 17.651,16.265C17.651,16.191 17.66,16.126 17.679,16.069C17.697,16.012 17.722,15.964 17.753,15.926C17.784,15.887 17.82,15.858 17.859,15.839C17.899,15.82 17.94,15.809 17.982,15.809C18.057,15.809 18.124,15.833 18.184,15.881L18.184,16.136C18.12,16.06 18.046,16.022 17.964,16.022C17.937,16.022 17.915,16.027 17.894,16.038C17.873,16.049 17.854,16.064 17.84,16.084C17.825,16.103 17.814,16.126 17.805,16.153C17.797,16.181 17.793,16.211 17.793,16.243C17.793,16.284 17.797,16.319 17.805,16.346C17.814,16.374 17.826,16.399 17.841,16.42C17.857,16.441 17.876,16.462 17.899,16.479C17.922,16.496 17.946,16.515 17.976,16.536C18.014,16.562 18.048,16.59 18.079,16.618C18.11,16.646 18.135,16.677 18.156,16.713C18.178,16.749 18.195,16.789 18.206,16.836C18.217,16.881 18.223,16.936 18.223,17C18.223,17.078 18.213,17.146 18.195,17.203C18.176,17.26 18.151,17.308 18.12,17.346C18.088,17.384 18.051,17.412 18.011,17.43C17.969,17.449 17.926,17.459 17.881,17.459C17.792,17.459 17.715,17.427 17.65,17.364Z" style="fill-rule:nonzero;"/>
        <path d="M19.137,17.421L18.998,17.421L18.998,17.172L18.994,17.172C18.937,17.363 18.848,17.459 18.727,17.459C18.521,17.459 18.417,17.235 18.417,16.788L18.417,15.847L18.556,15.847L18.556,16.748C18.556,17.08 18.625,17.246 18.766,17.246C18.833,17.246 18.888,17.201 18.932,17.11C18.975,17.02 18.998,16.901 18.998,16.754L18.998,15.847L19.137,15.847L19.137,17.421Z" style="fill-rule:nonzero;"/>
        <path d="M20.645,17.421L20.507,17.421L20.507,16.517C20.507,16.343 20.492,16.216 20.462,16.139C20.433,16.061 20.383,16.022 20.313,16.022C20.254,16.022 20.203,16.071 20.163,16.17C20.121,16.268 20.1,16.386 20.1,16.523L20.1,17.421L19.962,17.421L19.962,16.486C19.962,16.177 19.895,16.022 19.765,16.022C19.703,16.022 19.653,16.068 19.613,16.161C19.575,16.254 19.555,16.375 19.555,16.523L19.555,17.421L19.417,17.421L19.417,15.847L19.555,15.847L19.555,16.096L19.558,16.096C19.619,15.905 19.709,15.809 19.827,15.809C19.887,15.809 19.938,15.84 19.982,15.9C20.026,15.959 20.056,16.038 20.073,16.136C20.137,15.918 20.232,15.809 20.359,15.809C20.55,15.809 20.645,16.023 20.645,16.451L20.645,17.421Z" style="fill-rule:nonzero;"/>
        <path d="M21.588,15.847L21.243,17.421L21.106,17.421L20.779,15.847L20.931,15.847L21.151,16.99C21.167,17.074 21.178,17.149 21.182,17.211L21.185,17.211C21.191,17.132 21.199,17.061 21.211,16.997L21.442,15.847L21.588,15.847Z" style="fill-rule:nonzero;"/>
        <path d="M11.933,21.215L11.076,21.215L11.076,19.01L11.27,19.01L11.27,20.981L11.933,20.981L11.933,21.215Z" style="fill-rule:nonzero;"/>
        <path d="M12.653,21.252C12.479,21.252 12.34,21.179 12.236,21.031C12.132,20.884 12.08,20.689 12.08,20.446C12.08,20.182 12.134,19.975 12.243,19.827C12.35,19.678 12.497,19.603 12.681,19.603C12.857,19.603 12.994,19.676 13.092,19.82C13.191,19.965 13.24,20.165 13.24,20.421C13.24,20.673 13.187,20.874 13.081,21.025C12.975,21.177 12.832,21.252 12.653,21.252ZM12.667,19.816C12.546,19.816 12.45,19.871 12.379,19.981C12.309,20.091 12.273,20.243 12.273,20.437C12.273,20.623 12.309,20.771 12.38,20.879C12.452,20.986 12.547,21.04 12.667,21.04C12.789,21.04 12.883,20.987 12.949,20.881C13.014,20.776 13.047,20.626 13.047,20.431C13.047,20.234 13.014,20.082 12.949,19.976C12.883,19.869 12.789,19.816 12.667,19.816Z" style="fill-rule:nonzero;"/>
        <path d="M14.157,19.895C14.123,19.861 14.076,19.845 14.014,19.845C13.933,19.845 13.866,19.895 13.812,19.997C13.757,20.098 13.731,20.237 13.731,20.412L13.731,21.215L13.542,21.215L13.542,19.64L13.731,19.64L13.731,19.965L13.736,19.965C13.762,19.854 13.803,19.768 13.858,19.706C13.914,19.644 13.975,19.613 14.043,19.613C14.093,19.613 14.13,19.62 14.157,19.635L14.157,19.895Z" style="fill-rule:nonzero;"/>
        <path d="M15.309,20.491L14.477,20.491C14.48,20.666 14.515,20.802 14.582,20.897C14.65,20.992 14.743,21.04 14.861,21.04C14.994,21.04 15.116,20.981 15.227,20.865L15.227,21.102C15.124,21.201 14.986,21.252 14.816,21.252C14.65,21.252 14.519,21.18 14.423,21.038C14.328,20.894 14.281,20.693 14.281,20.434C14.281,20.189 14.333,19.989 14.437,19.835C14.541,19.68 14.67,19.603 14.824,19.603C14.978,19.603 15.098,19.67 15.182,19.804C15.266,19.936 15.309,20.122 15.309,20.359L15.309,20.491ZM15.116,20.277C15.115,20.131 15.088,20.018 15.037,19.937C14.985,19.856 14.913,19.816 14.821,19.816C14.732,19.816 14.656,19.859 14.594,19.944C14.532,20.029 14.493,20.139 14.479,20.277L15.116,20.277Z" style="fill-rule:nonzero;"/>
        <path d="M17.268,21.215L17.079,21.215L17.079,20.311C17.079,20.137 17.059,20.011 17.018,19.933C16.979,19.855 16.91,19.816 16.816,19.816C16.735,19.816 16.666,19.865 16.61,19.963C16.553,20.062 16.526,20.18 16.526,20.317L16.526,21.215L16.337,21.215L16.337,20.28C16.337,19.97 16.248,19.816 16.069,19.816C15.985,19.816 15.917,19.862 15.864,19.955C15.81,20.048 15.783,20.169 15.783,20.317L15.783,21.215L15.595,21.215L15.595,19.64L15.783,19.64L15.783,19.89L15.788,19.89C15.872,19.699 15.993,19.603 16.154,19.603C16.234,19.603 16.304,19.634 16.364,19.693C16.424,19.754 16.465,19.832 16.487,19.929C16.575,19.712 16.706,19.603 16.879,19.603C17.138,19.603 17.268,19.818 17.268,20.245L17.268,21.215Z" style="fill-rule:nonzero;"/>
        <path d="M11.933,24.955L11.076,24.955L11.076,22.75L11.27,22.75L11.27,24.721L11.933,24.721L11.933,24.955Z" style="fill-rule:nonzero;"/>
        <path d="M12.653,24.992C12.479,24.992 12.34,24.919 12.236,24.771C12.132,24.624 12.08,24.429 12.08,24.186C12.08,23.922 12.134,23.715 12.243,23.567C12.35,23.418 12.497,23.344 12.681,23.344C12.857,23.344 12.994,23.416 13.092,23.56C13.191,23.705 13.24,23.905 13.24,24.162C13.24,24.413 13.187,24.614 13.081,24.765C12.975,24.917 12.832,24.992 12.653,24.992ZM12.667,23.556C12.546,23.556 12.45,23.611 12.379,23.721C12.309,23.831 12.273,23.983 12.273,24.177C12.273,24.363 12.309,24.511 12.38,24.619C12.452,24.727 12.547,24.78 12.667,24.78C12.789,24.78 12.883,24.727 12.949,24.621C13.014,24.516 13.047,24.366 13.047,24.171C13.047,23.974 13.014,23.822 12.949,23.716C12.883,23.609 12.789,23.556 12.667,23.556Z" style="fill-rule:nonzero;"/>
        <path d="M14.157,23.636C14.123,23.602 14.076,23.585 14.014,23.585C13.933,23.585 13.866,23.636 13.812,23.737C13.757,23.838 13.731,23.977 13.731,24.152L13.731,24.955L13.542,24.955L13.542,23.38L13.731,23.38L13.731,23.705L13.736,23.705C13.762,23.594 13.803,23.508 13.858,23.446C13.914,23.384 13.975,23.353 14.043,23.353C14.093,23.353 14.13,23.36 14.157,23.375L14.157,23.636Z" style="fill-rule:nonzero;"/>
        <path d="M15.309,24.231L14.477,24.231C14.48,24.406 14.515,24.542 14.582,24.637C14.65,24.732 14.743,24.78 14.861,24.78C14.994,24.78 15.116,24.721 15.227,24.605L15.227,24.842C15.124,24.941 14.986,24.992 14.816,24.992C14.65,24.992 14.519,24.92 14.423,24.778C14.328,24.634 14.281,24.434 14.281,24.174C14.281,23.929 14.333,23.73 14.437,23.575C14.541,23.42 14.67,23.344 14.824,23.344C14.978,23.344 15.098,23.41 15.182,23.544C15.266,23.677 15.309,23.862 15.309,24.099L15.309,24.231ZM15.116,24.017C15.115,23.871 15.088,23.758 15.037,23.677C14.985,23.596 14.913,23.556 14.821,23.556C14.732,23.556 14.656,23.599 14.594,23.684C14.532,23.769 14.493,23.88 14.479,24.017L15.116,24.017Z" style="fill-rule:nonzero;"/>
        <path d="M17.268,24.955L17.079,24.955L17.079,24.051C17.079,23.877 17.059,23.751 17.018,23.673C16.979,23.595 16.91,23.556 16.816,23.556C16.735,23.556 16.666,23.605 16.61,23.703C16.553,23.802 16.526,23.92 16.526,24.057L16.526,24.955L16.337,24.955L16.337,24.02C16.337,23.71 16.248,23.556 16.069,23.556C15.985,23.556 15.917,23.602 15.864,23.695C15.81,23.788 15.783,23.909 15.783,24.057L15.783,24.955L15.595,24.955L15.595,23.38L15.783,23.38L15.783,23.63L15.788,23.63C15.872,23.439 15.993,23.344 16.154,23.344C16.234,23.344 16.304,23.374 16.364,23.433C16.424,23.494 16.465,23.572 16.487,23.669C16.575,23.452 16.706,23.344 16.879,23.344C17.138,23.344 17.268,23.558 17.268,23.985L17.268,24.955Z" style="fill-rule:nonzero;"/>
        <rect x="18.296" y="22.75" width="0.193" height="2.205"/>
        <path d="M19.741,24.955L19.553,24.955L19.553,24.709L19.548,24.709C19.466,24.898 19.345,24.992 19.185,24.992C19.068,24.992 18.976,24.951 18.91,24.867C18.844,24.784 18.81,24.674 18.81,24.537C18.81,24.243 18.94,24.072 19.199,24.023L19.553,23.957C19.553,23.689 19.472,23.556 19.31,23.556C19.168,23.556 19.04,23.621 18.925,23.75L18.925,23.491C19.042,23.393 19.175,23.344 19.326,23.344C19.603,23.344 19.741,23.539 19.741,23.931L19.741,24.955ZM19.553,24.159L19.268,24.211C19.181,24.227 19.115,24.256 19.07,24.298C19.026,24.34 19.004,24.413 19.004,24.519C19.004,24.596 19.024,24.658 19.065,24.707C19.106,24.756 19.161,24.78 19.23,24.78C19.323,24.78 19.4,24.736 19.461,24.649C19.522,24.561 19.553,24.449 19.553,24.316L19.553,24.159Z" style="fill-rule:nonzero;"/>
        <path d="M20.026,24.898L20.026,24.628C20.129,24.729 20.242,24.78 20.365,24.78C20.531,24.78 20.614,24.706 20.614,24.558C20.614,24.516 20.607,24.48 20.593,24.451C20.578,24.422 20.559,24.396 20.536,24.374C20.511,24.352 20.482,24.331 20.449,24.313C20.417,24.295 20.382,24.277 20.345,24.257C20.292,24.229 20.247,24.202 20.207,24.173C20.168,24.145 20.135,24.114 20.108,24.078C20.081,24.042 20.062,24.002 20.048,23.957C20.035,23.912 20.028,23.859 20.028,23.799C20.028,23.725 20.041,23.66 20.066,23.602C20.091,23.546 20.125,23.498 20.168,23.46C20.209,23.421 20.258,23.392 20.312,23.373C20.365,23.354 20.422,23.344 20.479,23.344C20.581,23.344 20.673,23.367 20.753,23.414L20.753,23.669C20.666,23.594 20.567,23.556 20.453,23.556C20.419,23.556 20.387,23.561 20.358,23.572C20.33,23.582 20.306,23.598 20.285,23.617C20.264,23.637 20.25,23.66 20.238,23.687C20.227,23.715 20.221,23.744 20.221,23.777C20.221,23.818 20.227,23.853 20.238,23.88C20.25,23.908 20.265,23.933 20.287,23.955C20.309,23.976 20.335,23.995 20.365,24.012C20.396,24.03 20.431,24.049 20.47,24.07C20.523,24.096 20.569,24.124 20.611,24.152C20.652,24.18 20.687,24.212 20.717,24.247C20.745,24.282 20.768,24.323 20.784,24.369C20.8,24.416 20.808,24.47 20.808,24.534C20.808,24.612 20.795,24.68 20.769,24.737C20.743,24.794 20.709,24.842 20.666,24.88C20.623,24.918 20.573,24.946 20.517,24.964C20.461,24.983 20.403,24.992 20.341,24.992C20.22,24.992 20.115,24.961 20.026,24.898Z" style="fill-rule:nonzero;"/>
        <path d="M22.05,24.955L21.861,24.955L21.861,24.706L21.857,24.706C21.779,24.897 21.658,24.992 21.493,24.992C21.212,24.992 21.072,24.769 21.072,24.321L21.072,23.38L21.26,23.38L21.26,24.282C21.26,24.614 21.355,24.78 21.545,24.78C21.637,24.78 21.713,24.735 21.772,24.644C21.832,24.553 21.861,24.435 21.861,24.287L21.861,23.38L22.05,23.38L22.05,24.955Z" style="fill-rule:nonzero;"/>
        <path d="M24.105,24.955L23.916,24.955L23.916,24.051C23.916,23.877 23.896,23.751 23.856,23.673C23.815,23.595 23.748,23.556 23.653,23.556C23.572,23.556 23.504,23.605 23.447,23.703C23.391,23.802 23.362,23.92 23.362,24.057L23.362,24.955L23.174,24.955L23.174,24.02C23.174,23.71 23.084,23.556 22.906,23.556C22.823,23.556 22.755,23.602 22.7,23.695C22.647,23.788 22.62,23.909 22.62,24.057L22.62,24.955L22.431,24.955L22.431,23.38L22.62,23.38L22.62,23.63L22.625,23.63C22.708,23.439 22.831,23.344 22.991,23.344C23.071,23.344 23.142,23.374 23.202,23.433C23.261,23.494 23.303,23.572 23.325,23.669C23.412,23.452 23.542,23.344 23.716,23.344C23.976,23.344 24.105,23.558 24.105,23.985L24.105,24.955Z" style="fill-rule:nonzero;"/>
        <path d="M25.388,23.38L24.919,24.955L24.733,24.955L24.287,23.38L24.494,23.38L24.794,24.524C24.816,24.609 24.829,24.682 24.834,24.745L24.839,24.745C24.847,24.665 24.859,24.595 24.876,24.531L25.19,23.38L25.388,23.38Z" style="fill-rule:nonzero;"/>
        <path d="M27.024,22.75L27.024,24.206L27.236,24.206L27.236,24.437L27.024,24.437L27.024,24.955L26.838,24.955L26.838,24.437L26.062,24.437L26.062,24.219C26.133,24.11 26.207,23.994 26.281,23.87C26.354,23.747 26.424,23.622 26.492,23.494C26.559,23.367 26.621,23.24 26.679,23.114C26.735,22.987 26.783,22.866 26.823,22.75L27.024,22.75ZM26.275,24.206L26.838,24.206L26.838,23.127C26.781,23.261 26.725,23.381 26.675,23.486C26.623,23.592 26.574,23.688 26.527,23.774C26.481,23.86 26.436,23.938 26.395,24.008C26.352,24.078 26.313,24.144 26.275,24.206Z" style="fill-rule:nonzero;"/>
        <path d="M28.295,22.75L28.295,24.206L28.507,24.206L28.507,24.437L28.295,24.437L28.295,24.955L28.108,24.955L28.108,24.437L27.333,24.437L27.333,24.219C27.405,24.11 27.478,23.994 27.551,23.87C27.624,23.747 27.696,23.622 27.763,23.494C27.829,23.367 27.892,23.24 27.949,23.114C28.006,22.987 28.054,22.866 28.093,22.75L28.295,22.75ZM27.545,24.206L28.108,24.206L28.108,23.127C28.051,23.261 27.996,23.381 27.945,23.486C27.894,23.592 27.845,23.688 27.799,23.774C27.752,23.86 27.708,23.938 27.665,24.008C27.623,24.078 27.583,24.144 27.545,24.206Z" style="fill-rule:nonzero;"/>
        <path d="M11.933,28.953L11.076,28.953L11.076,26.748L11.27,26.748L11.27,28.719L11.933,28.719L11.933,28.953Z" style="fill-rule:nonzero;"/>
        <path d="M12.653,28.99C12.479,28.99 12.34,28.917 12.236,28.769C12.132,28.622 12.08,28.427 12.08,28.184C12.08,27.92 12.134,27.713 12.243,27.564C12.35,27.416 12.497,27.342 12.681,27.342C12.857,27.342 12.994,27.414 13.092,27.558C13.191,27.703 13.24,27.903 13.24,28.159C13.24,28.411 13.187,28.612 13.081,28.763C12.975,28.914 12.832,28.99 12.653,28.99ZM12.667,27.554C12.546,27.554 12.45,27.609 12.379,27.718C12.309,27.829 12.273,27.981 12.273,28.175C12.273,28.361 12.309,28.509 12.38,28.616C12.452,28.724 12.547,28.778 12.667,28.778C12.789,28.778 12.883,28.725 12.949,28.619C13.014,28.513 13.047,28.363 13.047,28.168C13.047,27.972 13.014,27.82 12.949,27.714C12.883,27.607 12.789,27.554 12.667,27.554Z" style="fill-rule:nonzero;"/>
        <path d="M14.157,27.633C14.123,27.6 14.076,27.583 14.014,27.583C13.933,27.583 13.866,27.633 13.812,27.735C13.757,27.836 13.731,27.975 13.731,28.15L13.731,28.953L13.542,28.953L13.542,27.378L13.731,27.378L13.731,27.703L13.736,27.703C13.762,27.592 13.803,27.505 13.858,27.443C13.914,27.382 13.975,27.351 14.043,27.351C14.093,27.351 14.13,27.358 14.157,27.372L14.157,27.633Z" style="fill-rule:nonzero;"/>
        <path d="M15.309,28.229L14.477,28.229C14.48,28.403 14.515,28.539 14.582,28.635C14.65,28.73 14.743,28.778 14.861,28.778C14.994,28.778 15.116,28.719 15.227,28.602L15.227,28.839C15.124,28.939 14.986,28.99 14.816,28.99C14.65,28.99 14.519,28.918 14.423,28.775C14.328,28.632 14.281,28.431 14.281,28.172C14.281,27.927 14.333,27.727 14.437,27.573C14.541,27.418 14.67,27.342 14.824,27.342C14.978,27.342 15.098,27.408 15.182,27.541C15.266,27.675 15.309,27.859 15.309,28.096L15.309,28.229ZM15.116,28.015C15.115,27.869 15.088,27.756 15.037,27.675C14.985,27.594 14.913,27.554 14.821,27.554C14.732,27.554 14.656,27.596 14.594,27.681C14.532,27.766 14.493,27.878 14.479,28.015L15.116,28.015Z" style="fill-rule:nonzero;"/>
        <path d="M17.268,28.953L17.079,28.953L17.079,28.049C17.079,27.875 17.059,27.749 17.018,27.67C16.979,27.592 16.91,27.554 16.816,27.554C16.735,27.554 16.666,27.602 16.61,27.701C16.553,27.8 16.526,27.918 16.526,28.055L16.526,28.953L16.337,28.953L16.337,28.018C16.337,27.708 16.248,27.554 16.069,27.554C15.985,27.554 15.917,27.6 15.864,27.693C15.81,27.785 15.783,27.906 15.783,28.055L15.783,28.953L15.595,28.953L15.595,27.378L15.783,27.378L15.783,27.627L15.788,27.627C15.872,27.437 15.993,27.342 16.154,27.342C16.234,27.342 16.304,27.371 16.364,27.431C16.424,27.492 16.465,27.57 16.487,27.667C16.575,27.449 16.706,27.342 16.879,27.342C17.138,27.342 17.268,27.555 17.268,27.983L17.268,28.953Z" style="fill-rule:nonzero;"/>
        <rect x="18.296" y="26.748" width="0.193" height="2.205"/>
        <path d="M19.741,28.953L19.553,28.953L19.553,28.707L19.548,28.707C19.466,28.896 19.345,28.99 19.185,28.99C19.068,28.99 18.976,28.949 18.91,28.865C18.844,28.782 18.81,28.672 18.81,28.534C18.81,28.241 18.94,28.069 19.199,28.021L19.553,27.954C19.553,27.687 19.472,27.554 19.31,27.554C19.168,27.554 19.04,27.618 18.925,27.748L18.925,27.489C19.042,27.39 19.175,27.342 19.326,27.342C19.603,27.342 19.741,27.537 19.741,27.929L19.741,28.953ZM19.553,28.157L19.268,28.209C19.181,28.225 19.115,28.254 19.07,28.296C19.026,28.337 19.004,28.411 19.004,28.516C19.004,28.593 19.024,28.656 19.065,28.704C19.106,28.753 19.161,28.778 19.23,28.778C19.323,28.778 19.4,28.734 19.461,28.646C19.522,28.558 19.553,28.447 19.553,28.313L19.553,28.157Z" style="fill-rule:nonzero;"/>
        <path d="M20.026,28.896L20.026,28.626C20.129,28.727 20.242,28.778 20.365,28.778C20.531,28.778 20.614,28.704 20.614,28.556C20.614,28.514 20.607,28.478 20.593,28.449C20.578,28.42 20.559,28.394 20.536,28.371C20.511,28.349 20.482,28.328 20.449,28.311C20.417,28.293 20.382,28.275 20.345,28.254C20.292,28.227 20.247,28.2 20.207,28.171C20.168,28.143 20.135,28.111 20.108,28.075C20.081,28.04 20.062,28 20.048,27.954C20.035,27.91 20.028,27.857 20.028,27.796C20.028,27.723 20.041,27.657 20.066,27.6C20.091,27.544 20.125,27.496 20.168,27.458C20.209,27.419 20.258,27.39 20.312,27.371C20.365,27.351 20.422,27.342 20.479,27.342C20.581,27.342 20.673,27.364 20.753,27.412L20.753,27.667C20.666,27.591 20.567,27.554 20.453,27.554C20.419,27.554 20.387,27.559 20.358,27.569C20.33,27.58 20.306,27.596 20.285,27.615C20.264,27.634 20.25,27.658 20.238,27.685C20.227,27.712 20.221,27.742 20.221,27.775C20.221,27.816 20.227,27.85 20.238,27.878C20.25,27.906 20.265,27.931 20.287,27.952C20.309,27.974 20.335,27.993 20.365,28.01C20.396,28.028 20.431,28.047 20.47,28.067C20.523,28.093 20.569,28.121 20.611,28.149C20.652,28.178 20.687,28.21 20.717,28.244C20.745,28.28 20.768,28.321 20.784,28.367C20.8,28.414 20.808,28.468 20.808,28.532C20.808,28.609 20.795,28.677 20.769,28.735C20.743,28.792 20.709,28.84 20.666,28.877C20.623,28.916 20.573,28.944 20.517,28.962C20.461,28.981 20.403,28.99 20.341,28.99C20.22,28.99 20.115,28.959 20.026,28.896Z" style="fill-rule:nonzero;"/>
    </g>
</svg>
