<?xml version="1.0" encoding="UTF-8" standalone="no"?>
<!DOCTYPE svg PUBLIC "-//W3C//DTD SVG 1.1//EN" "http://www.w3.org/Graphics/SVG/1.1/DTD/svg11.dtd">
<svg width="30px" height="30px" version="1.1" xmlns="http://www.w3.org/2000/svg" xmlns:xlink="http://www.w3.org/1999/xlink" xml:space="preserve" xmlns:serif="http://www.serif.com/" style="fill-rule:evenodd;clip-rule:evenodd;stroke-linejoin:round;stroke-miterlimit:2;">
    <rect id="outer" x="0" y="0" width="30" height="30" style="fill:white;stroke:rgb(126,126,126);stroke-width:0.54px;"/>
    <rect x="0.255" y="0.255" width="29.473" height="6.245" style="fill:rgb(88,115,242);"/>
    <path d="M1.729,1.216L3.762,5.192L5.795,1.216" style="fill:none;stroke:black;stroke-width:0.45px;stroke-linecap:round;stroke-miterlimit:1.5;"/>
    <path d="M12.411,4.499L11.386,4.499L11.386,1.331L11.616,1.331L11.616,4.163L12.411,4.163L12.411,4.499Z" style="fill-rule:nonzero;"/>
    <path d="M13.273,4.552C13.065,4.552 12.898,4.446 12.774,4.235C12.649,4.024 12.587,3.743 12.587,3.394C12.587,3.014 12.652,2.718 12.782,2.504C12.911,2.291 13.086,2.184 13.307,2.184C13.517,2.184 13.681,2.288 13.799,2.495C13.918,2.703 13.976,2.991 13.976,3.359C13.976,3.72 13.912,4.009 13.785,4.226C13.658,4.443 13.488,4.552 13.273,4.552ZM13.29,2.489C13.144,2.489 13.03,2.568 12.945,2.726C12.86,2.884 12.818,3.103 12.818,3.381C12.818,3.649 12.861,3.86 12.947,4.015C13.032,4.17 13.146,4.247 13.29,4.247C13.436,4.247 13.549,4.171 13.627,4.019C13.706,3.868 13.745,3.652 13.745,3.372C13.745,3.089 13.706,2.872 13.627,2.718C13.549,2.565 13.436,2.489 13.29,2.489Z" style="fill-rule:nonzero;"/>
    <path d="M15.073,2.604C15.034,2.555 14.977,2.531 14.903,2.531C14.806,2.531 14.725,2.604 14.661,2.749C14.595,2.895 14.564,3.094 14.564,3.346L14.564,4.499L14.337,4.499L14.337,2.237L14.564,2.237L14.564,2.703L14.569,2.703C14.601,2.544 14.65,2.42 14.716,2.331C14.782,2.242 14.856,2.197 14.939,2.197C14.997,2.197 15.042,2.207 15.073,2.228L15.073,2.604Z" style="fill-rule:nonzero;"/>
    <path d="M16.453,3.458L15.457,3.458C15.46,3.71 15.502,3.905 15.583,4.042C15.665,4.179 15.775,4.247 15.917,4.247C16.076,4.247 16.222,4.163 16.355,3.995L16.355,4.335C16.231,4.48 16.067,4.552 15.863,4.552C15.664,4.552 15.507,4.449 15.393,4.244C15.279,4.038 15.223,3.749 15.223,3.377C15.223,3.025 15.284,2.738 15.409,2.516C15.533,2.295 15.688,2.184 15.873,2.184C16.057,2.184 16.2,2.28 16.301,2.471C16.402,2.662 16.453,2.928 16.453,3.268L16.453,3.458ZM16.221,3.151C16.221,2.942 16.189,2.779 16.127,2.663C16.065,2.547 15.979,2.489 15.869,2.489C15.762,2.489 15.671,2.55 15.597,2.672C15.523,2.794 15.477,2.954 15.459,3.151L16.221,3.151Z" style="fill-rule:nonzero;"/>
    <path d="M18.799,4.499L18.572,4.499L18.572,3.2C18.572,2.95 18.548,2.768 18.5,2.657C18.452,2.545 18.371,2.489 18.257,2.489C18.161,2.489 18.079,2.559 18.011,2.701C17.943,2.842 17.91,3.011 17.91,3.209L17.91,4.499L17.683,4.499L17.683,3.156C17.683,2.711 17.577,2.489 17.363,2.489C17.263,2.489 17.181,2.555 17.117,2.689C17.053,2.822 17.021,2.995 17.021,3.209L17.021,4.499L16.795,4.499L16.795,2.237L17.021,2.237L17.021,2.595L17.026,2.595C17.127,2.321 17.272,2.184 17.465,2.184C17.561,2.184 17.645,2.227 17.717,2.313C17.788,2.399 17.838,2.512 17.864,2.652C17.969,2.34 18.125,2.184 18.333,2.184C18.644,2.184 18.799,2.491 18.799,3.105L18.799,4.499Z" style="fill-rule:nonzero;"/>
    <rect x="20.029" y="1.331" width="0.232" height="3.168"/>
    <path d="M20.982,4.172L20.977,4.172L20.977,5.539L20.75,5.539L20.75,2.237L20.977,2.237L20.977,2.634L20.982,2.634C21.093,2.334 21.255,2.184 21.47,2.184C21.652,2.184 21.793,2.285 21.896,2.488C21.998,2.69 22.049,2.961 22.049,3.302C22.049,3.68 21.992,3.983 21.877,4.211C21.762,4.438 21.605,4.552 21.405,4.552C21.222,4.552 21.081,4.425 20.982,4.172ZM20.977,3.26L20.977,3.575C20.977,3.762 21.014,3.921 21.09,4.051C21.166,4.182 21.262,4.247 21.379,4.247C21.515,4.247 21.623,4.163 21.701,3.995C21.778,3.827 21.817,3.594 21.817,3.295C21.817,3.043 21.781,2.846 21.708,2.703C21.636,2.56 21.538,2.489 21.413,2.489C21.282,2.489 21.176,2.562 21.097,2.708C21.016,2.855 20.977,3.039 20.977,3.26Z" style="fill-rule:nonzero;"/>
    <path d="M22.325,4.417L22.325,4.028C22.447,4.174 22.583,4.247 22.731,4.247C22.929,4.247 23.029,4.141 23.029,3.929C23.029,3.869 23.02,3.817 23.003,3.775C22.986,3.733 22.963,3.696 22.935,3.664C22.905,3.631 22.871,3.602 22.832,3.577C22.793,3.551 22.751,3.524 22.706,3.496C22.644,3.456 22.589,3.416 22.542,3.376C22.494,3.335 22.455,3.289 22.423,3.239C22.391,3.188 22.367,3.13 22.351,3.065C22.335,3 22.327,2.925 22.327,2.838C22.327,2.732 22.343,2.638 22.373,2.556C22.403,2.474 22.444,2.406 22.494,2.351C22.544,2.295 22.603,2.254 22.667,2.226C22.731,2.198 22.798,2.184 22.868,2.184C22.989,2.184 23.099,2.218 23.195,2.285L23.195,2.652C23.092,2.543 22.972,2.489 22.837,2.489C22.795,2.489 22.757,2.496 22.723,2.512C22.688,2.527 22.659,2.549 22.635,2.577C22.611,2.605 22.592,2.638 22.578,2.678C22.566,2.717 22.559,2.76 22.559,2.807C22.559,2.866 22.566,2.915 22.578,2.955C22.592,2.994 22.611,3.03 22.637,3.061C22.663,3.092 22.694,3.12 22.731,3.145C22.768,3.17 22.809,3.197 22.856,3.226C22.919,3.265 22.975,3.304 23.025,3.345C23.074,3.385 23.116,3.431 23.152,3.482C23.186,3.532 23.213,3.591 23.232,3.657C23.251,3.723 23.261,3.802 23.261,3.894C23.261,4.005 23.245,4.103 23.214,4.185C23.183,4.268 23.142,4.336 23.091,4.391C23.039,4.445 22.98,4.486 22.913,4.512C22.846,4.539 22.776,4.552 22.702,4.552C22.557,4.552 22.431,4.507 22.325,4.417Z" style="fill-rule:nonzero;"/>
    <path d="M24.748,4.499L24.523,4.499L24.523,4.141L24.517,4.141C24.423,4.415 24.278,4.552 24.082,4.552C23.745,4.552 23.577,4.231 23.577,3.589L23.577,2.237L23.802,2.237L23.802,3.531C23.802,4.008 23.916,4.247 24.144,4.247C24.254,4.247 24.344,4.182 24.416,4.051C24.487,3.921 24.523,3.751 24.523,3.54L24.523,2.237L24.748,2.237L24.748,4.499Z" style="fill-rule:nonzero;"/>
    <path d="M27.209,4.499L26.983,4.499L26.983,3.2C26.983,2.95 26.959,2.768 26.911,2.657C26.863,2.545 26.781,2.489 26.667,2.489C26.571,2.489 26.489,2.559 26.422,2.701C26.354,2.842 26.32,3.011 26.32,3.209L26.32,4.499L26.094,4.499L26.094,3.156C26.094,2.711 25.987,2.489 25.773,2.489C25.673,2.489 25.592,2.555 25.528,2.689C25.463,2.822 25.431,2.995 25.431,3.209L25.431,4.499L25.205,4.499L25.205,2.237L25.431,2.237L25.431,2.595L25.437,2.595C25.537,2.321 25.683,2.184 25.875,2.184C25.971,2.184 26.055,2.227 26.127,2.313C26.199,2.399 26.247,2.512 26.275,2.652C26.38,2.34 26.536,2.184 26.743,2.184C27.054,2.184 27.209,2.491 27.209,3.105L27.209,4.499Z" style="fill-rule:nonzero;"/>
    <path d="M28.746,2.237L28.183,4.499L27.962,4.499L27.426,2.237L27.675,2.237L28.033,3.88C28.06,4.001 28.076,4.106 28.083,4.196L28.088,4.196C28.097,4.083 28.112,3.98 28.133,3.889L28.507,2.237L28.746,2.237Z" style="fill-rule:nonzero;"/>
    <path d="M3.375,11L4.907,14.976L6.44,11" style="fill:none;stroke:black;stroke-width:0.45px;stroke-linecap:round;stroke-miterlimit:1.5;"/>
    <path d="M14.391,14.283L13.49,14.283L13.49,11.115L13.693,11.115L13.693,13.947L14.391,13.947L14.391,14.283Z" style="fill-rule:nonzero;"/>
    <path d="M15.149,14.336C14.966,14.336 14.819,14.23 14.71,14.019C14.601,13.808 14.546,13.528 14.546,13.179C14.546,12.799 14.603,12.502 14.717,12.288C14.83,12.075 14.984,11.968 15.178,11.968C15.363,11.968 15.507,12.072 15.611,12.28C15.715,12.487 15.767,12.775 15.767,13.143C15.767,13.504 15.711,13.793 15.599,14.01C15.487,14.227 15.337,14.336 15.149,14.336ZM15.164,12.273C15.036,12.273 14.935,12.352 14.861,12.51C14.786,12.669 14.749,12.887 14.749,13.165C14.749,13.433 14.787,13.645 14.862,13.799C14.937,13.954 15.038,14.031 15.164,14.031C15.292,14.031 15.391,13.955 15.46,13.804C15.529,13.652 15.563,13.436 15.563,13.156C15.563,12.874 15.529,12.656 15.46,12.503C15.391,12.349 15.292,12.273 15.164,12.273Z" style="fill-rule:nonzero;"/>
    <path d="M16.731,12.388C16.696,12.339 16.646,12.315 16.581,12.315C16.496,12.315 16.425,12.388 16.368,12.534C16.311,12.679 16.283,12.878 16.283,13.13L16.283,14.283L16.084,14.283L16.084,12.021L16.283,12.021L16.283,12.487L16.288,12.487C16.316,12.328 16.359,12.204 16.417,12.115C16.475,12.026 16.54,11.981 16.612,11.981C16.664,11.981 16.703,11.992 16.731,12.012L16.731,12.388Z" style="fill-rule:nonzero;"/>
    <path d="M17.943,13.243L17.067,13.243C17.071,13.494 17.108,13.689 17.179,13.826C17.25,13.963 17.348,14.031 17.472,14.031C17.612,14.031 17.74,13.947 17.857,13.779L17.857,14.12C17.748,14.264 17.604,14.336 17.425,14.336C17.25,14.336 17.112,14.233 17.012,14.028C16.912,13.822 16.862,13.533 16.862,13.161C16.862,12.809 16.916,12.522 17.026,12.301C17.135,12.079 17.271,11.968 17.433,11.968C17.596,11.968 17.721,12.064 17.81,12.255C17.899,12.447 17.943,12.712 17.943,13.053L17.943,13.243ZM17.74,12.936C17.739,12.726 17.711,12.564 17.657,12.447C17.602,12.331 17.527,12.273 17.43,12.273C17.336,12.273 17.256,12.334 17.191,12.456C17.126,12.578 17.085,12.738 17.07,12.936L17.74,12.936Z" style="fill-rule:nonzero;"/>
    <path d="M20.005,14.283L19.806,14.283L19.806,12.984C19.806,12.734 19.785,12.553 19.742,12.441C19.7,12.329 19.629,12.273 19.529,12.273C19.444,12.273 19.372,12.344 19.312,12.485C19.253,12.626 19.223,12.796 19.223,12.993L19.223,14.283L19.025,14.283L19.025,12.94C19.025,12.495 18.931,12.273 18.743,12.273C18.655,12.273 18.583,12.34 18.527,12.473C18.47,12.606 18.442,12.779 18.442,12.993L18.442,14.283L18.244,14.283L18.244,12.021L18.442,12.021L18.442,12.379L18.447,12.379C18.535,12.105 18.663,11.968 18.832,11.968C18.917,11.968 18.991,12.011 19.054,12.097C19.117,12.183 19.16,12.296 19.183,12.436C19.275,12.124 19.413,11.968 19.595,11.968C19.868,11.968 20.005,12.275 20.005,12.889L20.005,14.283Z" style="fill-rule:nonzero;"/>
    <rect x="21.086" y="11.115" width="0.203" height="3.168"/>
    <path d="M21.923,13.956L21.918,13.956L21.918,15.323L21.72,15.323L21.72,12.021L21.918,12.021L21.918,12.419L21.923,12.419C22.021,12.118 22.164,11.968 22.352,11.968C22.512,11.968 22.636,12.069 22.726,12.272C22.816,12.474 22.861,12.746 22.861,13.086C22.861,13.464 22.81,13.767 22.709,13.995C22.608,14.222 22.47,14.336 22.295,14.336C22.134,14.336 22.01,14.209 21.923,13.956ZM21.918,13.044L21.918,13.36C21.918,13.547 21.952,13.705 22.018,13.836C22.085,13.966 22.169,14.031 22.272,14.031C22.392,14.031 22.486,13.947 22.555,13.779C22.623,13.612 22.657,13.378 22.657,13.079C22.657,12.827 22.625,12.63 22.561,12.487C22.498,12.344 22.411,12.273 22.302,12.273C22.187,12.273 22.094,12.346 22.024,12.493C21.953,12.639 21.918,12.823 21.918,13.044Z" style="fill-rule:nonzero;"/>
    <path d="M23.103,14.201L23.103,13.813C23.211,13.958 23.33,14.031 23.46,14.031C23.634,14.031 23.722,13.925 23.722,13.713C23.722,13.653 23.714,13.602 23.699,13.56C23.684,13.518 23.664,13.48 23.639,13.448C23.613,13.416 23.583,13.387 23.549,13.361C23.515,13.335 23.478,13.308 23.438,13.28C23.383,13.24 23.335,13.2 23.294,13.16C23.252,13.119 23.217,13.074 23.189,13.023C23.162,12.972 23.141,12.914 23.126,12.849C23.112,12.785 23.105,12.709 23.105,12.622C23.105,12.516 23.119,12.422 23.145,12.34C23.172,12.259 23.207,12.19 23.252,12.135C23.296,12.08 23.347,12.038 23.404,12.01C23.461,11.982 23.519,11.968 23.58,11.968C23.687,11.968 23.783,12.002 23.868,12.07L23.868,12.436C23.777,12.327 23.672,12.273 23.553,12.273C23.516,12.273 23.483,12.281 23.453,12.296C23.423,12.312 23.397,12.333 23.376,12.361C23.354,12.389 23.338,12.423 23.326,12.462C23.315,12.501 23.309,12.544 23.309,12.591C23.309,12.65 23.315,12.699 23.326,12.739C23.338,12.779 23.355,12.814 23.378,12.845C23.4,12.876 23.428,12.904 23.46,12.929C23.492,12.954 23.529,12.981 23.57,13.011C23.625,13.049 23.674,13.088 23.718,13.129C23.762,13.169 23.799,13.215 23.829,13.266C23.86,13.317 23.884,13.375 23.9,13.441C23.917,13.508 23.925,13.587 23.925,13.678C23.925,13.79 23.912,13.887 23.885,13.969C23.858,14.052 23.821,14.12 23.776,14.175C23.731,14.229 23.679,14.27 23.62,14.296C23.561,14.323 23.499,14.336 23.435,14.336C23.307,14.336 23.196,14.291 23.103,14.201Z" style="fill-rule:nonzero;"/>
    <path d="M25.233,14.283L25.035,14.283L25.035,13.925L25.03,13.925C24.947,14.199 24.82,14.336 24.647,14.336C24.351,14.336 24.204,14.015 24.204,13.373L24.204,12.021L24.401,12.021L24.401,13.316C24.401,13.793 24.501,14.031 24.702,14.031C24.798,14.031 24.878,13.966 24.941,13.836C25.003,13.705 25.035,13.535 25.035,13.324L25.035,12.021L25.233,12.021L25.233,14.283Z" style="fill-rule:nonzero;"/>
    <path d="M27.395,14.283L27.197,14.283L27.197,12.984C27.197,12.734 27.175,12.553 27.133,12.441C27.091,12.329 27.019,12.273 26.919,12.273C26.834,12.273 26.762,12.344 26.703,12.485C26.644,12.626 26.614,12.796 26.614,12.993L26.614,14.283L26.415,14.283L26.415,12.94C26.415,12.495 26.321,12.273 26.133,12.273C26.046,12.273 25.974,12.34 25.918,12.473C25.861,12.606 25.833,12.779 25.833,12.993L25.833,14.283L25.634,14.283L25.634,12.021L25.833,12.021L25.833,12.379L25.838,12.379C25.926,12.105 26.054,11.968 26.223,11.968C26.308,11.968 26.381,12.011 26.444,12.097C26.507,12.183 26.551,12.296 26.574,12.436C26.666,12.124 26.803,11.968 26.986,11.968C27.259,11.968 27.395,12.275 27.395,12.889L27.395,14.283Z" style="fill-rule:nonzero;"/>
    <path d="M28.746,12.021L28.251,14.283L28.056,14.283L27.587,12.021L27.805,12.021L28.119,13.665C28.143,13.785 28.157,13.891 28.163,13.98L28.168,13.98C28.176,13.867 28.189,13.765 28.207,13.673L28.536,12.021L28.746,12.021Z" style="fill-rule:nonzero;"/>
    <path d="M3.261,23.398L7.237,21.865L3.261,20.332" style="fill:none;stroke:black;stroke-width:0.45px;stroke-linecap:round;stroke-miterlimit:1.5;"/>
    <path d="M14.645,23.5L13.744,23.5L13.744,20.332L13.948,20.332L13.948,23.164L14.645,23.164L14.645,23.5Z" style="fill-rule:nonzero;"/>
    <path d="M15.403,23.553C15.22,23.553 15.074,23.447 14.964,23.236C14.855,23.025 14.8,22.745 14.8,22.396C14.8,22.016 14.857,21.719 14.971,21.505C15.085,21.292 15.239,21.185 15.432,21.185C15.617,21.185 15.762,21.289 15.865,21.496C15.969,21.704 16.021,21.992 16.021,22.36C16.021,22.721 15.965,23.01 15.853,23.227C15.742,23.444 15.592,23.553 15.403,23.553ZM15.418,21.49C15.29,21.49 15.189,21.569 15.115,21.727C15.041,21.886 15.004,22.104 15.004,22.382C15.004,22.65 15.041,22.862 15.116,23.016C15.191,23.171 15.292,23.248 15.418,23.248C15.546,23.248 15.645,23.172 15.714,23.021C15.783,22.869 15.818,22.653 15.818,22.373C15.818,22.091 15.783,21.873 15.714,21.72C15.645,21.566 15.546,21.49 15.418,21.49Z" style="fill-rule:nonzero;"/>
    <path d="M16.985,21.605C16.95,21.556 16.9,21.532 16.835,21.532C16.75,21.532 16.679,21.605 16.622,21.75C16.566,21.896 16.537,22.095 16.537,22.347L16.537,23.5L16.338,23.5L16.338,21.238L16.537,21.238L16.537,21.704L16.542,21.704C16.57,21.545 16.613,21.421 16.671,21.332C16.73,21.243 16.795,21.198 16.866,21.198C16.918,21.198 16.958,21.209 16.985,21.229L16.985,21.605Z" style="fill-rule:nonzero;"/>
    <path d="M18.198,22.46L17.322,22.46C17.325,22.711 17.362,22.906 17.433,23.043C17.504,23.18 17.602,23.248 17.726,23.248C17.866,23.248 17.994,23.164 18.112,22.996L18.112,23.337C18.003,23.481 17.858,23.553 17.679,23.553C17.504,23.553 17.366,23.45 17.266,23.245C17.166,23.039 17.116,22.75 17.116,22.378C17.116,22.026 17.171,21.739 17.28,21.517C17.39,21.296 17.525,21.185 17.688,21.185C17.85,21.185 17.976,21.281 18.064,21.472C18.153,21.664 18.198,21.929 18.198,22.27L18.198,22.46ZM17.994,22.153C17.993,21.943 17.966,21.781 17.911,21.664C17.857,21.548 17.781,21.49 17.684,21.49C17.59,21.49 17.511,21.551 17.445,21.673C17.38,21.795 17.34,21.955 17.324,22.153L17.994,22.153Z" style="fill-rule:nonzero;"/>
    <path d="M20.259,23.5L20.06,23.5L20.06,22.201C20.06,21.951 20.039,21.77 19.997,21.658C19.954,21.546 19.883,21.49 19.783,21.49C19.698,21.49 19.626,21.561 19.567,21.702C19.507,21.843 19.478,22.013 19.478,22.21L19.478,23.5L19.279,23.5L19.279,22.157C19.279,21.712 19.185,21.49 18.997,21.49C18.91,21.49 18.838,21.556 18.781,21.69C18.725,21.823 18.697,21.996 18.697,22.21L18.697,23.5L18.498,23.5L18.498,21.238L18.697,21.238L18.697,21.596L18.701,21.596C18.789,21.322 18.918,21.185 19.087,21.185C19.171,21.185 19.245,21.228 19.308,21.314C19.371,21.4 19.414,21.513 19.438,21.653C19.53,21.341 19.667,21.185 19.85,21.185C20.123,21.185 20.259,21.492 20.259,22.106L20.259,23.5Z" style="fill-rule:nonzero;"/>
    <rect x="21.341" y="20.332" width="0.203" height="3.168"/>
    <path d="M22.177,23.173L22.173,23.173L22.173,24.54L21.974,24.54L21.974,21.238L22.173,21.238L22.173,21.636L22.177,21.636C22.275,21.335 22.418,21.185 22.606,21.185C22.766,21.185 22.891,21.286 22.98,21.489C23.07,21.691 23.115,21.963 23.115,22.303C23.115,22.681 23.064,22.984 22.964,23.212C22.863,23.439 22.725,23.553 22.549,23.553C22.389,23.553 22.265,23.426 22.177,23.173ZM22.173,22.261L22.173,22.577C22.173,22.764 22.206,22.922 22.273,23.053C22.339,23.183 22.424,23.248 22.526,23.248C22.647,23.248 22.741,23.164 22.809,22.996C22.877,22.828 22.911,22.595 22.911,22.296C22.911,22.044 22.88,21.847 22.816,21.704C22.752,21.561 22.666,21.49 22.557,21.49C22.441,21.49 22.348,21.563 22.278,21.71C22.208,21.856 22.173,22.04 22.173,22.261Z" style="fill-rule:nonzero;"/>
    <path d="M23.357,23.418L23.357,23.029C23.465,23.175 23.584,23.248 23.714,23.248C23.889,23.248 23.976,23.142 23.976,22.93C23.976,22.87 23.969,22.819 23.954,22.777C23.939,22.735 23.919,22.697 23.893,22.665C23.868,22.633 23.838,22.604 23.803,22.578C23.769,22.552 23.732,22.525 23.693,22.497C23.638,22.457 23.589,22.417 23.548,22.377C23.506,22.336 23.472,22.291 23.444,22.24C23.416,22.189 23.395,22.131 23.381,22.066C23.367,22.002 23.36,21.926 23.36,21.839C23.36,21.733 23.373,21.639 23.4,21.557C23.426,21.475 23.462,21.407 23.506,21.352C23.551,21.297 23.601,21.255 23.658,21.227C23.715,21.199 23.774,21.185 23.834,21.185C23.942,21.185 24.038,21.219 24.123,21.287L24.123,21.653C24.031,21.544 23.926,21.49 23.808,21.49C23.771,21.49 23.737,21.498 23.707,21.513C23.677,21.528 23.652,21.55 23.63,21.578C23.609,21.606 23.592,21.64 23.581,21.679C23.569,21.718 23.563,21.761 23.563,21.808C23.563,21.867 23.569,21.916 23.581,21.956C23.592,21.996 23.609,22.031 23.632,22.062C23.655,22.093 23.682,22.121 23.714,22.146C23.747,22.171 23.783,22.198 23.825,22.228C23.88,22.266 23.929,22.305 23.972,22.346C24.016,22.386 24.053,22.432 24.084,22.483C24.115,22.534 24.138,22.592 24.155,22.658C24.171,22.725 24.18,22.803 24.18,22.895C24.18,23.007 24.166,23.104 24.139,23.186C24.112,23.269 24.076,23.337 24.031,23.392C23.985,23.446 23.933,23.487 23.874,23.513C23.815,23.54 23.754,23.553 23.689,23.553C23.561,23.553 23.451,23.508 23.357,23.418Z" style="fill-rule:nonzero;"/>
    <path d="M25.488,23.5L25.289,23.5L25.289,23.142L25.284,23.142C25.202,23.416 25.074,23.553 24.901,23.553C24.606,23.553 24.458,23.232 24.458,22.59L24.458,21.238L24.656,21.238L24.656,22.532C24.656,23.01 24.756,23.248 24.956,23.248C25.053,23.248 25.133,23.183 25.195,23.053C25.258,22.922 25.289,22.752 25.289,22.541L25.289,21.238L25.488,21.238L25.488,23.5Z" style="fill-rule:nonzero;"/>
    <path d="M27.65,23.5L27.451,23.5L27.451,22.201C27.451,21.951 27.43,21.77 27.387,21.658C27.345,21.546 27.274,21.49 27.174,21.49C27.089,21.49 27.017,21.561 26.957,21.702C26.898,21.843 26.868,22.013 26.868,22.21L26.868,23.5L26.67,23.5L26.67,22.157C26.67,21.712 26.576,21.49 26.388,21.49C26.3,21.49 26.228,21.556 26.172,21.69C26.115,21.823 26.087,21.996 26.087,22.21L26.087,23.5L25.889,23.5L25.889,21.238L26.087,21.238L26.087,21.596L26.092,21.596C26.18,21.322 26.308,21.185 26.477,21.185C26.562,21.185 26.636,21.228 26.699,21.314C26.762,21.4 26.805,21.513 26.828,21.653C26.92,21.341 27.058,21.185 27.24,21.185C27.513,21.185 27.65,21.492 27.65,22.106L27.65,23.5Z" style="fill-rule:nonzero;"/>
    <path d="M29,21.238L28.506,23.5L28.311,23.5L27.841,21.238L28.059,21.238L28.374,22.881C28.397,23.002 28.412,23.108 28.417,23.197L28.422,23.197C28.43,23.084 28.443,22.982 28.461,22.89L28.79,21.238L29,21.238Z" style="fill-rule:nonzero;"/>
    <path d="M14.695,10.365L13.5,10.365L13.5,7.197L13.77,7.197L13.77,10.029L14.695,10.029L14.695,10.365Z" style="fill-rule:nonzero;"/>
    <path d="M15.701,10.418C15.458,10.418 15.263,10.312 15.118,10.101C14.973,9.89 14.901,9.61 14.901,9.261C14.901,8.881 14.976,8.584 15.127,8.37C15.278,8.157 15.482,8.05 15.739,8.05C15.984,8.05 16.176,8.154 16.313,8.361C16.451,8.569 16.52,8.857 16.52,9.225C16.52,9.586 16.446,9.875 16.297,10.092C16.149,10.309 15.95,10.418 15.701,10.418ZM15.72,8.355C15.551,8.355 15.417,8.434 15.318,8.592C15.22,8.751 15.171,8.969 15.171,9.247C15.171,9.515 15.22,9.727 15.32,9.881C15.42,10.036 15.553,10.113 15.72,10.113C15.89,10.113 16.021,10.037 16.113,9.886C16.204,9.734 16.25,9.518 16.25,9.238C16.25,8.956 16.204,8.738 16.113,8.585C16.021,8.431 15.89,8.355 15.72,8.355Z" style="fill-rule:nonzero;"/>
    <path d="M17.798,8.47C17.752,8.421 17.686,8.397 17.599,8.397C17.487,8.397 17.393,8.47 17.317,8.616C17.242,8.761 17.204,8.96 17.204,9.212L17.204,10.365L16.941,10.365L16.941,8.103L17.204,8.103L17.204,8.569L17.211,8.569C17.248,8.41 17.305,8.286 17.382,8.197C17.46,8.108 17.546,8.063 17.641,8.063C17.71,8.063 17.762,8.074 17.798,8.094L17.798,8.47Z" style="fill-rule:nonzero;"/>
    <path d="M19.406,9.325L18.245,9.325C18.249,9.576 18.299,9.771 18.393,9.908C18.487,10.045 18.617,10.113 18.782,10.113C18.967,10.113 19.137,10.029 19.292,9.861L19.292,10.202C19.148,10.346 18.957,10.418 18.719,10.418C18.487,10.418 18.304,10.315 18.171,10.11C18.038,9.904 17.972,9.615 17.972,9.243C17.972,8.891 18.045,8.604 18.19,8.382C18.335,8.161 18.515,8.05 18.73,8.05C18.945,8.05 19.112,8.146 19.23,8.337C19.347,8.529 19.406,8.794 19.406,9.135L19.406,9.325ZM19.137,9.018C19.135,8.808 19.099,8.646 19.026,8.529C18.954,8.413 18.854,8.355 18.725,8.355C18.601,8.355 18.496,8.416 18.409,8.538C18.322,8.66 18.269,8.82 18.248,9.018L19.137,9.018Z" style="fill-rule:nonzero;"/>
    <path d="M22.14,10.365L21.877,10.365L21.877,9.066C21.877,8.816 21.849,8.635 21.793,8.523C21.736,8.411 21.642,8.355 21.509,8.355C21.397,8.355 21.301,8.426 21.222,8.567C21.144,8.708 21.104,8.878 21.104,9.075L21.104,10.365L20.841,10.365L20.841,9.022C20.841,8.577 20.716,8.355 20.467,8.355C20.351,8.355 20.256,8.422 20.181,8.555C20.106,8.688 20.068,8.861 20.068,9.075L20.068,10.365L19.805,10.365L19.805,8.103L20.068,8.103L20.068,8.461L20.075,8.461C20.191,8.187 20.362,8.05 20.585,8.05C20.698,8.05 20.796,8.093 20.879,8.179C20.963,8.265 21.02,8.378 21.051,8.518C21.173,8.206 21.355,8.05 21.597,8.05C21.959,8.05 22.14,8.357 22.14,8.971L22.14,10.365Z" style="fill-rule:nonzero;"/>
    <path d="M17.806,19.189L16.61,19.189L16.61,16.021L16.88,16.021L16.88,18.853L17.806,18.853L17.806,19.189Z" style="fill-rule:nonzero;"/>
    <path d="M18.811,19.242C18.568,19.242 18.374,19.136 18.229,18.925C18.084,18.713 18.011,18.433 18.011,18.084C18.011,17.704 18.087,17.407 18.238,17.194C18.389,16.98 18.593,16.874 18.85,16.874C19.095,16.874 19.286,16.977 19.424,17.185C19.562,17.393 19.63,17.681 19.63,18.049C19.63,18.409 19.556,18.698 19.408,18.916C19.26,19.133 19.061,19.242 18.811,19.242ZM18.83,17.178C18.661,17.178 18.527,17.258 18.429,17.416C18.33,17.574 18.281,17.792 18.281,18.071C18.281,18.339 18.331,18.55 18.43,18.705C18.53,18.859 18.663,18.937 18.83,18.937C19.001,18.937 19.132,18.861 19.223,18.709C19.315,18.557 19.36,18.342 19.36,18.062C19.36,17.779 19.315,17.561 19.223,17.408C19.132,17.255 19.001,17.178 18.83,17.178Z" style="fill-rule:nonzero;"/>
    <path d="M20.909,17.293C20.863,17.245 20.797,17.22 20.71,17.22C20.597,17.22 20.503,17.293 20.428,17.439C20.352,17.585 20.315,17.784 20.315,18.035L20.315,19.189L20.051,19.189L20.051,16.927L20.315,16.927L20.315,17.393L20.321,17.393C20.359,17.234 20.416,17.11 20.493,17.02C20.57,16.931 20.656,16.887 20.752,16.887C20.82,16.887 20.873,16.897 20.909,16.918L20.909,17.293Z" style="fill-rule:nonzero;"/>
    <path d="M22.517,18.148L21.356,18.148C21.36,18.4 21.409,18.594 21.503,18.731C21.598,18.868 21.727,18.937 21.892,18.937C22.077,18.937 22.248,18.853 22.403,18.685L22.403,19.025C22.258,19.169 22.067,19.242 21.829,19.242C21.597,19.242 21.414,19.139 21.282,18.933C21.149,18.728 21.082,18.439 21.082,18.066C21.082,17.714 21.155,17.428 21.3,17.206C21.445,16.984 21.625,16.874 21.841,16.874C22.056,16.874 22.222,16.969 22.34,17.161C22.458,17.352 22.517,17.618 22.517,17.958L22.517,18.148ZM22.247,17.841C22.246,17.632 22.209,17.469 22.137,17.353C22.065,17.237 21.964,17.178 21.836,17.178C21.712,17.178 21.606,17.239 21.519,17.362C21.433,17.484 21.379,17.644 21.359,17.841L22.247,17.841Z" style="fill-rule:nonzero;"/>
    <path d="M25.251,19.189L24.987,19.189L24.987,17.89C24.987,17.639 24.959,17.458 24.903,17.346C24.847,17.234 24.752,17.178 24.62,17.178C24.507,17.178 24.412,17.249 24.333,17.39C24.254,17.532 24.215,17.701 24.215,17.898L24.215,19.189L23.951,19.189L23.951,17.845C23.951,17.401 23.827,17.178 23.577,17.178C23.461,17.178 23.366,17.245 23.291,17.378C23.216,17.512 23.179,17.685 23.179,17.898L23.179,19.189L22.915,19.189L22.915,16.927L23.179,16.927L23.179,17.284L23.185,17.284C23.302,17.01 23.472,16.874 23.696,16.874C23.808,16.874 23.906,16.917 23.99,17.003C24.073,17.089 24.131,17.202 24.162,17.342C24.284,17.03 24.466,16.874 24.708,16.874C25.07,16.874 25.251,17.181 25.251,17.795L25.251,19.189Z" style="fill-rule:nonzero;"/>
    <g id="inner-object" serif:id="inner object">
        <g>
            <path d="M6.973,2.798L7.905,2.798C8.111,2.798 8.276,2.966 8.276,3.175L8.276,4.122C8.276,4.331 8.111,4.499 7.905,4.499L6.973,4.499C6.768,4.499 6.602,4.331 6.602,4.122L6.602,3.175C6.602,2.966 6.768,2.798 6.973,2.798Z" style="fill:url(#_Linear1);fill-rule:nonzero;"/>
            <path d="M7.917,3.436C7.511,3.441 7.4,3.918 7.039,3.923C6.883,3.925 6.75,3.816 6.602,3.687L6.602,4.127C6.602,4.333 6.768,4.499 6.974,4.499L7.905,4.499C8.111,4.499 8.276,4.333 8.276,4.127L8.276,3.529C8.176,3.473 8.059,3.434 7.917,3.436Z" style="fill:rgb(255,0,0);fill-opacity:0.25;"/>
            <rect x="6.812" y="3.011" width="0.276" height="1.276" style="fill:url(#_Linear2);"/>
            <path d="M6.974,2.852L7.905,2.852C8.082,2.852 8.223,2.996 8.223,3.175L8.223,4.122C8.223,4.302 8.082,4.445 7.905,4.445L6.973,4.445C6.796,4.445 6.655,4.302 6.655,4.122L6.655,3.175C6.655,2.995 6.798,2.852 6.974,2.852Z" style="fill:none;fill-rule:nonzero;stroke:rgb(128,0,0);stroke-opacity:0.5;stroke-width:0.11px;stroke-miterlimit:20;"/>
        </g>
        <g>
            <path d="M8.062,1.693L8.993,1.693C9.199,1.693 9.365,1.861 9.365,2.07L9.365,3.017C9.365,3.225 9.199,3.393 8.993,3.393L8.062,3.393C7.856,3.393 7.69,3.225 7.69,3.017L7.69,2.07C7.69,1.861 7.856,1.693 8.062,1.693Z" style="fill:url(#_Linear3);fill-rule:nonzero;"/>
            <path d="M9.005,2.331C8.599,2.335 8.488,2.813 8.127,2.817C7.971,2.819 7.838,2.711 7.69,2.582L7.69,3.021C7.69,3.227 7.856,3.393 8.062,3.393L8.994,3.393C9.199,3.393 9.365,3.227 9.365,3.021L9.365,2.424C9.264,2.368 9.147,2.329 9.005,2.331Z" style="fill:rgb(0,0,255);fill-opacity:0.25;"/>
            <rect x="7.9" y="1.905" width="0.276" height="1.276" style="fill:url(#_Linear4);"/>
            <path d="M8.063,1.747L8.993,1.747C9.17,1.747 9.311,1.89 9.311,2.07L9.311,3.017C9.311,3.196 9.17,3.34 8.993,3.34L8.062,3.34C7.885,3.34 7.744,3.196 7.744,3.017L7.744,2.07C7.744,1.89 7.886,1.747 8.063,1.747Z" style="fill:none;fill-rule:nonzero;stroke:rgb(0,0,128);stroke-opacity:0.5;stroke-width:0.11px;stroke-miterlimit:20;"/>
        </g>
        <g>
            <path d="M9.275,2.501L10.207,2.501C10.413,2.501 10.578,2.669 10.578,2.878L10.578,3.824C10.578,4.033 10.413,4.201 10.207,4.201L9.275,4.201C9.07,4.201 8.904,4.033 8.904,3.824L8.904,2.878C8.904,2.669 9.07,2.501 9.275,2.501Z" style="fill:url(#_Linear5);fill-rule:nonzero;"/>
            <path d="M10.219,3.138C9.813,3.143 9.702,3.621 9.341,3.625C9.185,3.627 9.052,3.519 8.904,3.39L8.904,3.829C8.904,4.035 9.07,4.201 9.276,4.201L10.207,4.201C10.413,4.201 10.578,4.035 10.578,3.829L10.578,3.232C10.478,3.175 10.361,3.137 10.219,3.138Z" style="fill:rgb(192,192,0);fill-opacity:0.25;"/>
            <rect x="9.113" y="2.713" width="0.276" height="1.276" style="fill:url(#_Linear6);"/>
            <path d="M9.276,2.555L10.207,2.555C10.384,2.555 10.525,2.698 10.525,2.878L10.525,3.824C10.525,4.004 10.384,4.147 10.207,4.147L9.275,4.147C9.098,4.147 8.957,4.004 8.957,3.824L8.957,2.877C8.957,2.698 9.099,2.555 9.276,2.555Z" style="fill:none;fill-rule:nonzero;stroke:rgb(128,128,0);stroke-opacity:0.5;stroke-width:0.11px;stroke-miterlimit:20;"/>
        </g>
    </g>
    <g id="inner-object1" serif:id="inner object">
        <g>
            <path d="M8.588,8.47L9.52,8.47C9.726,8.47 9.891,8.638 9.891,8.847L9.891,9.793C9.891,10.002 9.726,10.17 9.52,10.17L8.588,10.17C8.383,10.17 8.217,10.002 8.217,9.793L8.217,8.847C8.217,8.638 8.383,8.47 8.588,8.47Z" style="fill:url(#_Linear7);fill-rule:nonzero;"/>
            <path d="M9.532,9.108C9.126,9.112 9.014,9.59 8.654,9.594C8.498,9.596 8.365,9.488 8.217,9.359L8.217,9.798C8.217,10.004 8.383,10.17 8.588,10.17L9.52,10.17C9.726,10.17 9.891,10.004 9.891,9.798L9.891,9.201C9.79,9.144 9.674,9.106 9.532,9.108Z" style="fill:rgb(255,0,0);fill-opacity:0.25;"/>
            <rect x="8.426" y="8.682" width="0.276" height="1.276" style="fill:url(#_Linear8);"/>
            <path d="M8.589,8.524L9.52,8.524C9.697,8.524 9.838,8.667 9.838,8.847L9.838,9.793C9.838,9.973 9.697,10.117 9.52,10.117L8.588,10.117C8.411,10.117 8.27,9.973 8.27,9.793L8.27,8.847C8.27,8.667 8.412,8.524 8.589,8.524Z" style="fill:none;fill-rule:nonzero;stroke:rgb(128,0,0);stroke-opacity:0.5;stroke-width:0.11px;stroke-miterlimit:20;"/>
        </g>
        <g>
            <path d="M9.676,7.364L10.608,7.364C10.814,7.364 10.979,7.532 10.979,7.741L10.979,8.688C10.979,8.897 10.814,9.065 10.608,9.065L9.676,9.065C9.471,9.065 9.305,8.897 9.305,8.688L9.305,7.741C9.305,7.532 9.471,7.364 9.676,7.364Z" style="fill:url(#_Linear9);fill-rule:nonzero;"/>
            <path d="M10.62,8.002C10.214,8.007 10.103,8.484 9.742,8.489C9.586,8.491 9.453,8.382 9.305,8.253L9.305,8.692C9.305,8.899 9.471,9.065 9.677,9.065L10.608,9.065C10.814,9.065 10.979,8.899 10.979,8.692L10.979,8.095C10.879,8.039 10.762,8 10.62,8.002Z" style="fill:rgb(0,0,255);fill-opacity:0.25;"/>
            <rect x="9.514" y="7.577" width="0.276" height="1.276" style="fill:url(#_Linear10);"/>
            <path d="M9.677,7.418L10.608,7.418C10.785,7.418 10.926,7.562 10.926,7.741L10.926,8.688C10.926,8.868 10.785,9.011 10.608,9.011L9.676,9.011C9.499,9.011 9.358,8.868 9.358,8.688L9.358,7.741C9.358,7.561 9.5,7.418 9.677,7.418Z" style="fill:none;fill-rule:nonzero;stroke:rgb(0,0,128);stroke-opacity:0.5;stroke-width:0.11px;stroke-miterlimit:20;"/>
        </g>
        <g>
            <path d="M10.89,8.172L11.822,8.172C12.027,8.172 12.193,8.34 12.193,8.549L12.193,9.496C12.193,9.705 12.027,9.873 11.822,9.873L10.89,9.873C10.684,9.873 10.519,9.705 10.519,9.496L10.519,8.549C10.519,8.34 10.684,8.172 10.89,8.172Z" style="fill:url(#_Linear11);fill-rule:nonzero;"/>
            <path d="M11.834,8.81C11.427,8.814 11.316,9.292 10.955,9.297C10.8,9.299 10.666,9.19 10.519,9.061L10.519,9.5C10.519,9.707 10.685,9.873 10.89,9.873L11.822,9.873C12.028,9.873 12.193,9.707 12.193,9.5L12.193,8.903C12.092,8.847 11.976,8.808 11.834,8.81Z" style="fill:rgb(192,192,0);fill-opacity:0.25;"/>
            <rect x="10.728" y="8.385" width="0.276" height="1.276" style="fill:url(#_Linear12);"/>
            <path d="M10.891,8.226L11.822,8.226C11.999,8.226 12.14,8.37 12.14,8.549L12.14,9.496C12.14,9.675 11.999,9.819 11.822,9.819L10.89,9.819C10.713,9.819 10.572,9.675 10.572,9.496L10.572,8.549C10.572,8.369 10.714,8.226 10.891,8.226Z" style="fill:none;fill-rule:nonzero;stroke:rgb(128,128,0);stroke-opacity:0.5;stroke-width:0.11px;stroke-miterlimit:20;"/>
        </g>
    </g>
    <g id="inner-object2" serif:id="inner object">
        <g>
            <path d="M8.673,17.106L9.605,17.106C9.811,17.106 9.976,17.274 9.976,17.483L9.976,18.429C9.976,18.638 9.811,18.806 9.605,18.806L8.673,18.806C8.468,18.806 8.302,18.638 8.302,18.429L8.302,17.483C8.302,17.274 8.468,17.106 8.673,17.106Z" style="fill:url(#_Linear13);fill-rule:nonzero;"/>
            <path d="M9.617,17.743C9.211,17.748 9.099,18.226 8.739,18.23C8.583,18.232 8.45,18.124 8.302,17.995L8.302,18.434C8.302,18.64 8.468,18.806 8.673,18.806L9.605,18.806C9.811,18.806 9.976,18.64 9.976,18.434L9.976,17.836C9.875,17.78 9.759,17.742 9.617,17.743Z" style="fill:rgb(255,0,0);fill-opacity:0.25;"/>
            <rect x="8.511" y="17.318" width="0.276" height="1.276" style="fill:url(#_Linear14);"/>
            <path d="M8.674,17.16L9.605,17.16C9.782,17.16 9.923,17.303 9.923,17.483L9.923,18.429C9.923,18.609 9.782,18.752 9.605,18.752L8.673,18.752C8.496,18.752 8.355,18.609 8.355,18.429L8.355,17.482C8.355,17.303 8.497,17.16 8.674,17.16Z" style="fill:none;fill-rule:nonzero;stroke:rgb(128,0,0);stroke-opacity:0.5;stroke-width:0.11px;stroke-miterlimit:20;"/>
        </g>
        <g>
            <path d="M9.761,16L10.693,16C10.899,16 11.064,16.168 11.064,16.377L11.064,17.324C11.064,17.533 10.899,17.701 10.693,17.701L9.761,17.701C9.556,17.701 9.39,17.533 9.39,17.324L9.39,16.377C9.39,16.168 9.556,16 9.761,16Z" style="fill:url(#_Linear15);fill-rule:nonzero;"/>
            <path d="M10.705,16.638C10.299,16.642 10.188,17.12 9.827,17.125C9.671,17.127 9.538,17.018 9.39,16.889L9.39,17.328C9.39,17.535 9.556,17.701 9.762,17.701L10.693,17.701C10.899,17.701 11.064,17.535 11.064,17.328L11.064,16.731C10.964,16.675 10.847,16.636 10.705,16.638Z" style="fill:rgb(0,0,255);fill-opacity:0.25;"/>
            <rect x="9.599" y="16.213" width="0.276" height="1.276" style="fill:url(#_Linear16);"/>
            <path d="M9.762,16.054L10.693,16.054C10.87,16.054 11.011,16.197 11.011,16.377L11.011,17.324C11.011,17.504 10.87,17.647 10.693,17.647L9.761,17.647C9.584,17.647 9.443,17.504 9.443,17.324L9.443,16.377C9.443,16.197 9.585,16.054 9.762,16.054Z" style="fill:none;fill-rule:nonzero;stroke:rgb(0,0,128);stroke-opacity:0.5;stroke-width:0.11px;stroke-miterlimit:20;"/>
        </g>
        <g>
            <path d="M10.975,16.808L11.907,16.808C12.112,16.808 12.278,16.976 12.278,17.185L12.278,18.132C12.278,18.341 12.112,18.509 11.907,18.509L10.975,18.509C10.769,18.509 10.604,18.341 10.604,18.132L10.604,17.185C10.604,16.976 10.769,16.808 10.975,16.808Z" style="fill:url(#_Linear17);fill-rule:nonzero;"/>
            <path d="M11.919,17.446C11.512,17.45 11.401,17.928 11.04,17.933C10.885,17.935 10.751,17.826 10.604,17.697L10.604,18.136C10.604,18.342 10.77,18.509 10.975,18.509L11.907,18.509C12.113,18.509 12.278,18.342 12.278,18.136L12.278,17.539C12.177,17.483 12.061,17.444 11.919,17.446Z" style="fill:rgb(192,192,0);fill-opacity:0.25;"/>
            <rect x="10.813" y="17.021" width="0.276" height="1.276" style="fill:url(#_Linear18);"/>
            <path d="M10.976,16.862L11.907,16.862C12.084,16.862 12.225,17.005 12.225,17.185L12.225,18.132C12.225,18.311 12.084,18.455 11.907,18.455L10.975,18.455C10.798,18.455 10.657,18.311 10.657,18.132L10.657,17.185C10.657,17.005 10.799,16.862 10.976,16.862Z" style="fill:none;fill-rule:nonzero;stroke:rgb(128,128,0);stroke-opacity:0.5;stroke-width:0.11px;stroke-miterlimit:20;"/>
        </g>
    </g>
    <g id="inner-object3" serif:id="inner object">
        <g>
            <path d="M8.588,21.47L9.52,21.47C9.726,21.47 9.891,21.638 9.891,21.847L9.891,22.793C9.891,23.002 9.726,23.17 9.52,23.17L8.588,23.17C8.383,23.17 8.217,23.002 8.217,22.793L8.217,21.847C8.217,21.638 8.383,21.47 8.588,21.47Z" style="fill:url(#_Linear19);fill-rule:nonzero;"/>
            <path d="M9.532,22.108C9.126,22.112 9.014,22.59 8.654,22.594C8.498,22.596 8.365,22.488 8.217,22.359L8.217,22.798C8.217,23.004 8.383,23.17 8.588,23.17L9.52,23.17C9.726,23.17 9.891,23.004 9.891,22.798L9.891,22.201C9.79,22.144 9.674,22.106 9.532,22.108Z" style="fill:rgb(255,0,0);fill-opacity:0.25;"/>
            <rect x="8.426" y="21.682" width="0.276" height="1.276" style="fill:url(#_Linear20);"/>
            <path d="M8.589,21.524L9.52,21.524C9.697,21.524 9.838,21.667 9.838,21.847L9.838,22.793C9.838,22.973 9.697,23.117 9.52,23.117L8.588,23.117C8.411,23.117 8.27,22.973 8.27,22.793L8.27,21.847C8.27,21.667 8.412,21.524 8.589,21.524Z" style="fill:none;fill-rule:nonzero;stroke:rgb(128,0,0);stroke-opacity:0.5;stroke-width:0.11px;stroke-miterlimit:20;"/>
        </g>
        <g>
            <path d="M9.676,20.364L10.608,20.364C10.814,20.364 10.979,20.532 10.979,20.741L10.979,21.688C10.979,21.897 10.814,22.065 10.608,22.065L9.676,22.065C9.471,22.065 9.305,21.897 9.305,21.688L9.305,20.741C9.305,20.532 9.471,20.364 9.676,20.364Z" style="fill:url(#_Linear21);fill-rule:nonzero;"/>
            <path d="M10.62,21.002C10.214,21.007 10.103,21.484 9.742,21.489C9.586,21.491 9.453,21.382 9.305,21.253L9.305,21.692C9.305,21.899 9.471,22.065 9.677,22.065L10.608,22.065C10.814,22.065 10.979,21.899 10.979,21.692L10.979,21.095C10.879,21.039 10.762,21 10.62,21.002Z" style="fill:rgb(0,0,255);fill-opacity:0.25;"/>
            <rect x="9.514" y="20.577" width="0.276" height="1.276" style="fill:url(#_Linear22);"/>
            <path d="M9.677,20.418L10.608,20.418C10.785,20.418 10.926,20.562 10.926,20.741L10.926,21.688C10.926,21.868 10.785,22.011 10.608,22.011L9.676,22.011C9.499,22.011 9.358,21.868 9.358,21.688L9.358,20.741C9.358,20.561 9.5,20.418 9.677,20.418Z" style="fill:none;fill-rule:nonzero;stroke:rgb(0,0,128);stroke-opacity:0.5;stroke-width:0.11px;stroke-miterlimit:20;"/>
        </g>
        <g>
            <path d="M10.89,21.172L11.822,21.172C12.027,21.172 12.193,21.34 12.193,21.549L12.193,22.496C12.193,22.705 12.027,22.873 11.822,22.873L10.89,22.873C10.684,22.873 10.519,22.705 10.519,22.496L10.519,21.549C10.519,21.34 10.684,21.172 10.89,21.172Z" style="fill:url(#_Linear23);fill-rule:nonzero;"/>
            <path d="M11.834,21.81C11.427,21.814 11.316,22.292 10.955,22.297C10.8,22.299 10.666,22.19 10.519,22.061L10.519,22.5C10.519,22.707 10.685,22.873 10.89,22.873L11.822,22.873C12.028,22.873 12.193,22.707 12.193,22.5L12.193,21.903C12.092,21.847 11.976,21.808 11.834,21.81Z" style="fill:rgb(192,192,0);fill-opacity:0.25;"/>
            <rect x="10.728" y="21.385" width="0.276" height="1.276" style="fill:url(#_Linear24);"/>
            <path d="M10.891,21.226L11.822,21.226C11.999,21.226 12.14,21.37 12.14,21.549L12.14,22.496C12.14,22.675 11.999,22.819 11.822,22.819L10.89,22.819C10.713,22.819 10.572,22.675 10.572,22.496L10.572,21.549C10.572,21.369 10.714,21.226 10.891,21.226Z" style="fill:none;fill-rule:nonzero;stroke:rgb(128,128,0);stroke-opacity:0.5;stroke-width:0.11px;stroke-miterlimit:20;"/>
        </g>
    </g>
    <g id="inner-object4" serif:id="inner object">
        <g>
            <path d="M8.588,12.47L9.52,12.47C9.726,12.47 9.891,12.638 9.891,12.847L9.891,13.793C9.891,14.002 9.726,14.17 9.52,14.17L8.588,14.17C8.383,14.17 8.217,14.002 8.217,13.793L8.217,12.847C8.217,12.638 8.383,12.47 8.588,12.47Z" style="fill:url(#_Linear25);fill-rule:nonzero;"/>
            <path d="M9.532,13.108C9.126,13.112 9.014,13.59 8.654,13.594C8.498,13.596 8.365,13.488 8.217,13.359L8.217,13.798C8.217,14.004 8.383,14.17 8.588,14.17L9.52,14.17C9.726,14.17 9.891,14.004 9.891,13.798L9.891,13.201C9.79,13.144 9.674,13.106 9.532,13.108Z" style="fill:rgb(255,0,0);fill-opacity:0.25;"/>
            <rect x="8.426" y="12.682" width="0.276" height="1.276" style="fill:url(#_Linear26);"/>
            <path d="M8.589,12.524L9.52,12.524C9.697,12.524 9.838,12.667 9.838,12.847L9.838,13.793C9.838,13.973 9.697,14.117 9.52,14.117L8.588,14.117C8.411,14.117 8.27,13.973 8.27,13.793L8.27,12.847C8.27,12.667 8.412,12.524 8.589,12.524Z" style="fill:none;fill-rule:nonzero;stroke:rgb(128,0,0);stroke-opacity:0.5;stroke-width:0.11px;stroke-miterlimit:20;"/>
        </g>
        <g>
            <path d="M9.676,11.364L10.608,11.364C10.814,11.364 10.979,11.532 10.979,11.741L10.979,12.688C10.979,12.897 10.814,13.065 10.608,13.065L9.676,13.065C9.471,13.065 9.305,12.897 9.305,12.688L9.305,11.741C9.305,11.532 9.471,11.364 9.676,11.364Z" style="fill:url(#_Linear27);fill-rule:nonzero;"/>
            <path d="M10.62,12.002C10.214,12.007 10.103,12.484 9.742,12.489C9.586,12.491 9.453,12.382 9.305,12.253L9.305,12.692C9.305,12.899 9.471,13.065 9.677,13.065L10.608,13.065C10.814,13.065 10.979,12.899 10.979,12.692L10.979,12.095C10.879,12.039 10.762,12 10.62,12.002Z" style="fill:rgb(0,0,255);fill-opacity:0.25;"/>
            <rect x="9.514" y="11.577" width="0.276" height="1.276" style="fill:url(#_Linear28);"/>
            <path d="M9.677,11.418L10.608,11.418C10.785,11.418 10.926,11.562 10.926,11.741L10.926,12.688C10.926,12.868 10.785,13.011 10.608,13.011L9.676,13.011C9.499,13.011 9.358,12.868 9.358,12.688L9.358,11.741C9.358,11.561 9.5,11.418 9.677,11.418Z" style="fill:none;fill-rule:nonzero;stroke:rgb(0,0,128);stroke-opacity:0.5;stroke-width:0.11px;stroke-miterlimit:20;"/>
        </g>
        <g>
            <path d="M10.89,12.172L11.822,12.172C12.027,12.172 12.193,12.34 12.193,12.549L12.193,13.496C12.193,13.705 12.027,13.873 11.822,13.873L10.89,13.873C10.684,13.873 10.519,13.705 10.519,13.496L10.519,12.549C10.519,12.34 10.684,12.172 10.89,12.172Z" style="fill:url(#_Linear29);fill-rule:nonzero;"/>
            <path d="M11.834,12.81C11.427,12.814 11.316,13.292 10.955,13.297C10.8,13.299 10.666,13.19 10.519,13.061L10.519,13.5C10.519,13.707 10.685,13.873 10.89,13.873L11.822,13.873C12.028,13.873 12.193,13.707 12.193,13.5L12.193,12.903C12.092,12.847 11.976,12.808 11.834,12.81Z" style="fill:rgb(192,192,0);fill-opacity:0.25;"/>
            <rect x="10.728" y="12.385" width="0.276" height="1.276" style="fill:url(#_Linear30);"/>
            <path d="M10.891,12.226L11.822,12.226C11.999,12.226 12.14,12.37 12.14,12.549L12.14,13.496C12.14,13.675 11.999,13.819 11.822,13.819L10.89,13.819C10.713,13.819 10.572,13.675 10.572,13.496L10.572,12.549C10.572,12.369 10.714,12.226 10.891,12.226Z" style="fill:none;fill-rule:nonzero;stroke:rgb(128,128,0);stroke-opacity:0.5;stroke-width:0.11px;stroke-miterlimit:20;"/>
        </g>
    </g>
    <defs>
        <linearGradient id="_Linear1" x1="0" y1="0" x2="1" y2="0" gradientUnits="userSpaceOnUse" gradientTransform="matrix(-0.889591,-1.67818,1.67818,-0.889591,7.86634,4.49909)"><stop offset="0" style="stop-color:rgb(255,0,0);stop-opacity:1"/><stop offset="1" style="stop-color:rgb(255,224,224);stop-opacity:1"/></linearGradient>
        <linearGradient id="_Linear2" x1="0" y1="0" x2="1" y2="0" gradientUnits="userSpaceOnUse" gradientTransform="matrix(0.380428,0,0,0.380428,6.78343,3.69287)"><stop offset="0" style="stop-color:white;stop-opacity:1"/><stop offset="1" style="stop-color:white;stop-opacity:0"/></linearGradient>
        <linearGradient id="_Linear3" x1="0" y1="0" x2="1" y2="0" gradientUnits="userSpaceOnUse" gradientTransform="matrix(-0.884793,-1.67837,1.67837,-0.884793,8.88922,3.37078)"><stop offset="0" style="stop-color:rgb(0,0,255);stop-opacity:1"/><stop offset="1" style="stop-color:rgb(224,224,255);stop-opacity:1"/></linearGradient>
        <linearGradient id="_Linear4" x1="0" y1="0" x2="1" y2="0" gradientUnits="userSpaceOnUse" gradientTransform="matrix(0.379515,0,0,0.379515,7.87251,2.58732)"><stop offset="0" style="stop-color:white;stop-opacity:1"/><stop offset="1" style="stop-color:white;stop-opacity:0"/></linearGradient>
        <linearGradient id="_Linear5" x1="0" y1="0" x2="1" y2="0" gradientUnits="userSpaceOnUse" gradientTransform="matrix(0.888772,1.6782,-1.6782,0.888772,9.26336,2.47788)"><stop offset="0" style="stop-color:rgb(255,255,224);stop-opacity:1"/><stop offset="1" style="stop-color:rgb(255,255,0);stop-opacity:1"/></linearGradient>
        <linearGradient id="_Linear6" x1="0" y1="0" x2="1" y2="0" gradientUnits="userSpaceOnUse" gradientTransform="matrix(0.380424,0,0,0.380424,9.08529,3.39522)"><stop offset="0" style="stop-color:white;stop-opacity:1"/><stop offset="1" style="stop-color:white;stop-opacity:0"/></linearGradient>
        <linearGradient id="_Linear7" x1="0" y1="0" x2="1" y2="0" gradientUnits="userSpaceOnUse" gradientTransform="matrix(-0.889591,-1.67818,1.67818,-0.889591,9.48107,10.1705)"><stop offset="0" style="stop-color:rgb(255,0,0);stop-opacity:1"/><stop offset="1" style="stop-color:rgb(255,224,224);stop-opacity:1"/></linearGradient>
        <linearGradient id="_Linear8" x1="0" y1="0" x2="1" y2="0" gradientUnits="userSpaceOnUse" gradientTransform="matrix(0.380428,0,0,0.380428,8.39816,9.36426)"><stop offset="0" style="stop-color:white;stop-opacity:1"/><stop offset="1" style="stop-color:white;stop-opacity:0"/></linearGradient>
        <linearGradient id="_Linear9" x1="0" y1="0" x2="1" y2="0" gradientUnits="userSpaceOnUse" gradientTransform="matrix(-0.884793,-1.67837,1.67837,-0.884793,10.5039,9.04217)"><stop offset="0" style="stop-color:rgb(0,0,255);stop-opacity:1"/><stop offset="1" style="stop-color:rgb(224,224,255);stop-opacity:1"/></linearGradient>
        <linearGradient id="_Linear10" x1="0" y1="0" x2="1" y2="0" gradientUnits="userSpaceOnUse" gradientTransform="matrix(0.379515,0,0,0.379515,9.48724,8.25871)"><stop offset="0" style="stop-color:white;stop-opacity:1"/><stop offset="1" style="stop-color:white;stop-opacity:0"/></linearGradient>
        <linearGradient id="_Linear11" x1="0" y1="0" x2="1" y2="0" gradientUnits="userSpaceOnUse" gradientTransform="matrix(0.888772,1.6782,-1.6782,0.888772,10.8781,8.14927)"><stop offset="0" style="stop-color:rgb(255,255,224);stop-opacity:1"/><stop offset="1" style="stop-color:rgb(255,255,0);stop-opacity:1"/></linearGradient>
        <linearGradient id="_Linear12" x1="0" y1="0" x2="1" y2="0" gradientUnits="userSpaceOnUse" gradientTransform="matrix(0.380424,0,0,0.380424,10.7,9.06661)"><stop offset="0" style="stop-color:white;stop-opacity:1"/><stop offset="1" style="stop-color:white;stop-opacity:0"/></linearGradient>
        <linearGradient id="_Linear13" x1="0" y1="0" x2="1" y2="0" gradientUnits="userSpaceOnUse" gradientTransform="matrix(-0.889591,-1.67818,1.67818,-0.889591,9.56606,18.8063)"><stop offset="0" style="stop-color:rgb(255,0,0);stop-opacity:1"/><stop offset="1" style="stop-color:rgb(255,224,224);stop-opacity:1"/></linearGradient>
        <linearGradient id="_Linear14" x1="0" y1="0" x2="1" y2="0" gradientUnits="userSpaceOnUse" gradientTransform="matrix(0.380428,0,0,0.380428,8.48315,18.0001)"><stop offset="0" style="stop-color:white;stop-opacity:1"/><stop offset="1" style="stop-color:white;stop-opacity:0"/></linearGradient>
        <linearGradient id="_Linear15" x1="0" y1="0" x2="1" y2="0" gradientUnits="userSpaceOnUse" gradientTransform="matrix(-0.884793,-1.67837,1.67837,-0.884793,10.5889,17.678)"><stop offset="0" style="stop-color:rgb(0,0,255);stop-opacity:1"/><stop offset="1" style="stop-color:rgb(224,224,255);stop-opacity:1"/></linearGradient>
        <linearGradient id="_Linear16" x1="0" y1="0" x2="1" y2="0" gradientUnits="userSpaceOnUse" gradientTransform="matrix(0.379515,0,0,0.379515,9.57223,16.8946)"><stop offset="0" style="stop-color:white;stop-opacity:1"/><stop offset="1" style="stop-color:white;stop-opacity:0"/></linearGradient>
        <linearGradient id="_Linear17" x1="0" y1="0" x2="1" y2="0" gradientUnits="userSpaceOnUse" gradientTransform="matrix(0.888772,1.6782,-1.6782,0.888772,10.9631,16.7851)"><stop offset="0" style="stop-color:rgb(255,255,224);stop-opacity:1"/><stop offset="1" style="stop-color:rgb(255,255,0);stop-opacity:1"/></linearGradient>
        <linearGradient id="_Linear18" x1="0" y1="0" x2="1" y2="0" gradientUnits="userSpaceOnUse" gradientTransform="matrix(0.380424,0,0,0.380424,10.785,17.7025)"><stop offset="0" style="stop-color:white;stop-opacity:1"/><stop offset="1" style="stop-color:white;stop-opacity:0"/></linearGradient>
        <linearGradient id="_Linear19" x1="0" y1="0" x2="1" y2="0" gradientUnits="userSpaceOnUse" gradientTransform="matrix(-0.889591,-1.67818,1.67818,-0.889591,9.48107,23.1705)"><stop offset="0" style="stop-color:rgb(255,0,0);stop-opacity:1"/><stop offset="1" style="stop-color:rgb(255,224,224);stop-opacity:1"/></linearGradient>
        <linearGradient id="_Linear20" x1="0" y1="0" x2="1" y2="0" gradientUnits="userSpaceOnUse" gradientTransform="matrix(0.380428,0,0,0.380428,8.39816,22.3643)"><stop offset="0" style="stop-color:white;stop-opacity:1"/><stop offset="1" style="stop-color:white;stop-opacity:0"/></linearGradient>
        <linearGradient id="_Linear21" x1="0" y1="0" x2="1" y2="0" gradientUnits="userSpaceOnUse" gradientTransform="matrix(-0.884793,-1.67837,1.67837,-0.884793,10.5039,22.0422)"><stop offset="0" style="stop-color:rgb(0,0,255);stop-opacity:1"/><stop offset="1" style="stop-color:rgb(224,224,255);stop-opacity:1"/></linearGradient>
        <linearGradient id="_Linear22" x1="0" y1="0" x2="1" y2="0" gradientUnits="userSpaceOnUse" gradientTransform="matrix(0.379515,0,0,0.379515,9.48724,21.2587)"><stop offset="0" style="stop-color:white;stop-opacity:1"/><stop offset="1" style="stop-color:white;stop-opacity:0"/></linearGradient>
        <linearGradient id="_Linear23" x1="0" y1="0" x2="1" y2="0" gradientUnits="userSpaceOnUse" gradientTransform="matrix(0.888772,1.6782,-1.6782,0.888772,10.8781,21.1493)"><stop offset="0" style="stop-color:rgb(255,255,224);stop-opacity:1"/><stop offset="1" style="stop-color:rgb(255,255,0);stop-opacity:1"/></linearGradient>
        <linearGradient id="_Linear24" x1="0" y1="0" x2="1" y2="0" gradientUnits="userSpaceOnUse" gradientTransform="matrix(0.380424,0,0,0.380424,10.7,22.0666)"><stop offset="0" style="stop-color:white;stop-opacity:1"/><stop offset="1" style="stop-color:white;stop-opacity:0"/></linearGradient>
        <linearGradient id="_Linear25" x1="0" y1="0" x2="1" y2="0" gradientUnits="userSpaceOnUse" gradientTransform="matrix(-0.889591,-1.67818,1.67818,-0.889591,9.48107,14.1705)"><stop offset="0" style="stop-color:rgb(255,0,0);stop-opacity:1"/><stop offset="1" style="stop-color:rgb(255,224,224);stop-opacity:1"/></linearGradient>
        <linearGradient id="_Linear26" x1="0" y1="0" x2="1" y2="0" gradientUnits="userSpaceOnUse" gradientTransform="matrix(0.380428,0,0,0.380428,8.39816,13.3643)"><stop offset="0" style="stop-color:white;stop-opacity:1"/><stop offset="1" style="stop-color:white;stop-opacity:0"/></linearGradient>
        <linearGradient id="_Linear27" x1="0" y1="0" x2="1" y2="0" gradientUnits="userSpaceOnUse" gradientTransform="matrix(-0.884793,-1.67837,1.67837,-0.884793,10.5039,13.0422)"><stop offset="0" style="stop-color:rgb(0,0,255);stop-opacity:1"/><stop offset="1" style="stop-color:rgb(224,224,255);stop-opacity:1"/></linearGradient>
        <linearGradient id="_Linear28" x1="0" y1="0" x2="1" y2="0" gradientUnits="userSpaceOnUse" gradientTransform="matrix(0.379515,0,0,0.379515,9.48724,12.2587)"><stop offset="0" style="stop-color:white;stop-opacity:1"/><stop offset="1" style="stop-color:white;stop-opacity:0"/></linearGradient>
        <linearGradient id="_Linear29" x1="0" y1="0" x2="1" y2="0" gradientUnits="userSpaceOnUse" gradientTransform="matrix(0.888772,1.6782,-1.6782,0.888772,10.8781,12.1493)"><stop offset="0" style="stop-color:rgb(255,255,224);stop-opacity:1"/><stop offset="1" style="stop-color:rgb(255,255,0);stop-opacity:1"/></linearGradient>
        <linearGradient id="_Linear30" x1="0" y1="0" x2="1" y2="0" gradientUnits="userSpaceOnUse" gradientTransform="matrix(0.380424,0,0,0.380424,10.7,13.0666)"><stop offset="0" style="stop-color:white;stop-opacity:1"/><stop offset="1" style="stop-color:white;stop-opacity:0"/></linearGradient>
    </defs>
</svg>
