<?xml version="1.0" encoding="UTF-8" standalone="no"?>
<!DOCTYPE svg PUBLIC "-//W3C//DTD SVG 1.1//EN" "http://www.w3.org/Graphics/SVG/1.1/DTD/svg11.dtd">
<svg width="30px" height="30px" version="1.1" xmlns="http://www.w3.org/2000/svg" xmlns:xlink="http://www.w3.org/1999/xlink" xml:space="preserve" xmlns:serif="http://www.serif.com/" style="fill-rule:evenodd;clip-rule:evenodd;stroke-linecap:round;">
    <g>
        <path d="M29.464,28.928C29.464,29.52 28.984,30 28.393,30L1.607,30C1.015,30 0.536,29.52 0.536,28.928L0.536,27.321C0.536,26.729 1.015,26.25 1.607,26.25L28.393,26.25C28.984,26.25 29.464,26.729 29.464,27.321L29.464,28.928Z" style="fill:url(#_Linear1);fill-rule:nonzero;"/>
        <path d="M28.928,28.66C28.928,29.252 28.466,29.732 27.897,29.732L2.103,29.732C1.533,29.732 1.071,29.252 1.071,28.66L1.071,27.053C1.071,26.462 1.533,25.982 2.103,25.982L27.897,25.982C28.466,25.982 28.928,26.462 28.928,27.053L28.928,28.66Z" style="fill:url(#_Linear2);fill-rule:nonzero;"/>
        <path d="M29.464,27.857C29.464,28.448 28.984,28.928 28.393,28.928L1.607,28.928C1.015,28.928 0.536,28.448 0.536,27.857L0.536,4.821C0.536,4.23 1.015,3.75 1.607,3.75L28.393,3.75C28.984,3.75 29.464,4.23 29.464,4.821L29.464,27.857Z" style="fill:url(#_Linear3);fill-rule:nonzero;"/>
        <path d="M29.464,27.857C29.464,28.448 28.984,28.928 28.393,28.928L1.607,28.928C1.015,28.928 0.536,28.448 0.536,27.857L0.536,4.821C0.536,4.23 1.015,3.75 1.607,3.75L28.393,3.75C28.984,3.75 29.464,4.23 29.464,4.821L29.464,27.857Z" style="fill:url(#_Linear4);fill-rule:nonzero;"/>
        <path d="M28.393,3.75L1.607,3.75C1.454,3.75 1.308,3.783 1.176,3.841L1.176,27.589C1.176,28.032 1.537,28.393 1.98,28.393L28.23,28.393C28.673,28.393 29.034,28.033 29.034,27.589L29.034,3.967C28.854,3.833 28.634,3.75 28.393,3.75Z" style="fill:rgb(50,50,50);fill-opacity:0.1;fill-rule:nonzero;"/>
        <path d="M28.393,3.75L1.607,3.75C1.551,3.75 1.498,3.758 1.444,3.766L1.444,27.589C1.444,27.885 1.685,28.125 1.98,28.125L28.23,28.125C28.526,28.125 28.766,27.885 28.766,27.589L28.766,3.82C28.649,3.777 28.525,3.75 28.393,3.75Z" style="fill:rgb(50,50,50);fill-opacity:0.2;fill-rule:nonzero;"/>
        <path d="M28.393,3.75L1.712,3.75L1.712,27.589C1.712,27.737 1.832,27.857 1.98,27.857L28.23,27.857C28.378,27.857 28.498,27.737 28.498,27.589L28.498,3.76C28.463,3.757 28.429,3.75 28.393,3.75Z" style="fill:rgb(50,50,50);fill-opacity:0.4;fill-rule:nonzero;"/>
        <path d="M28.23,27.589L1.98,27.589L1.98,3.482L28.23,3.503L28.23,27.589Z" style="fill:white;fill-rule:nonzero;"/>
        <path d="M28.23,27.053L1.98,27.053L1.98,2.946L28.23,2.968L28.23,27.053Z" style="fill:url(#_Linear5);fill-rule:nonzero;"/>
        <path d="M28.364,26.786L1.846,26.786L1.846,2.678L28.364,2.7L28.364,26.786Z" style="fill:white;fill-rule:nonzero;"/>
        <path d="M28.364,26.25L1.846,26.25L1.846,2.143L28.364,2.164L28.364,26.25Z" style="fill:url(#_Linear6);fill-rule:nonzero;"/>
        <path d="M28.498,25.982L1.712,25.982L1.712,1.875L28.498,1.896L28.498,25.982Z" style="fill:white;fill-rule:nonzero;"/>
        <path d="M28.498,25.083L28.498,1.683L1.712,1.662L1.712,25.446L19.228,25.446L28.498,25.083Z" style="fill:url(#_Linear7);fill-rule:nonzero;"/>
        <path d="M28.498,16.766L29.359,24.782L19.228,25.178L1.712,25.178L1.712,1.126L28.498,1.148L28.498,16.766Z" style="fill:url(#_Radial8);fill-rule:nonzero;"/>
        <rect x="1.712" y="1.126" width="26.786" height="6.696" style="fill:url(#_Linear9);"/>
        <path d="M4.926,1.875C4.778,1.875 4.659,1.995 4.659,2.143L4.659,3.214C4.659,3.362 4.778,3.482 4.926,3.482L8.676,3.482C8.825,3.482 8.944,3.362 8.944,3.214L8.944,2.143C8.944,1.995 8.824,1.875 8.676,1.875L4.926,1.875Z" style="fill:rgb(114,209,61);fill-rule:nonzero;"/>
        <rect x="4.926" y="2.143" width="3.75" height="1.071" style="fill:url(#_Linear10);"/>
        <path d="M21.534,1.875C21.385,1.875 21.266,1.995 21.266,2.143L21.266,3.214C21.266,3.362 21.386,3.482 21.534,3.482L25.284,3.482C25.432,3.482 25.551,3.362 25.551,3.214L25.551,2.143C25.551,1.995 25.432,1.875 25.284,1.875L21.534,1.875Z" style="fill:rgb(114,209,61);fill-rule:nonzero;"/>
        <rect x="21.534" y="2.143" width="3.75" height="1.071" style="fill:url(#_Linear11);"/>
        <rect x="5.194" y="0" width="3.214" height="3.214" style="fill:url(#_Linear12);"/>
        <rect x="21.801" y="0" width="3.214" height="3.214" style="fill:url(#_Linear13);"/>
        <rect x="22.069" y="1.339" width="2.679" height="0.804" style="fill:url(#_Linear14);"/>
        <rect x="5.462" y="1.339" width="2.679" height="0.804" style="fill:url(#_Linear15);"/>
        <path d="M3.051,4.286C3.051,3.99 3.291,3.75 3.587,3.75L10.016,3.75C10.312,3.75 10.552,3.99 10.552,4.286L10.552,6.696C10.552,6.992 10.312,7.232 10.016,7.232L3.587,7.232C3.291,7.232 3.051,6.992 3.051,6.696L3.051,4.286Z" style="fill:rgb(55,164,44);fill-rule:nonzero;"/>
        <path d="M4.666,6.732C4.026,6.732 3.647,6.246 3.647,5.629C3.647,4.98 4.065,4.494 4.702,4.494C5.366,4.494 5.73,4.993 5.73,5.591C5.73,6.304 5.302,6.732 4.669,6.732L4.666,6.732ZM4.688,6.343C5.019,6.343 5.209,6.031 5.209,5.607C5.209,5.218 5.026,4.883 4.688,4.883C4.351,4.883 4.161,5.211 4.161,5.616C4.161,6.024 4.357,6.343 4.685,6.343L4.688,6.343ZM7.959,6.639C7.873,6.68 7.667,6.732 7.407,6.732C6.658,6.732 6.272,6.262 6.272,5.642C6.272,4.903 6.799,4.495 7.455,4.495C7.709,4.495 7.902,4.546 7.988,4.591L7.885,4.977C7.789,4.935 7.651,4.896 7.474,4.896C7.088,4.896 6.786,5.131 6.786,5.616C6.786,6.05 7.043,6.324 7.477,6.324C7.628,6.324 7.789,6.295 7.889,6.253L7.959,6.639ZM8.994,4.941L8.409,4.941L8.409,4.53L10.074,4.53L10.074,4.941L9.482,4.941L9.482,6.696L8.994,6.696L8.994,4.941Z" style="fill:white;fill-rule:nonzero;"/>
        <path d="M11.81,11.346L11.81,18.733L10.136,18.733L10.136,13.14C10.044,13.217 9.935,13.29 9.809,13.359C9.683,13.428 9.549,13.49 9.408,13.545C9.266,13.601 9.119,13.648 8.967,13.686C8.814,13.725 8.664,13.753 8.515,13.77L8.515,12.429C8.951,12.308 9.362,12.154 9.748,11.965C10.134,11.777 10.483,11.571 10.795,11.346L11.81,11.346Z" style="fill-rule:nonzero;"/>
        <path d="M16.736,18.859C14.922,18.859 14.015,17.652 14.015,15.236C14.015,13.983 14.261,13.028 14.751,12.371C15.242,11.714 15.953,11.386 16.885,11.386C18.656,11.386 19.542,12.614 19.542,15.07C19.542,16.293 19.3,17.23 18.817,17.882C18.333,18.533 17.639,18.859 16.736,18.859ZM16.81,12.6C16.084,12.6 15.721,13.466 15.721,15.196C15.721,16.825 16.077,17.64 16.789,17.64C17.484,17.64 17.831,16.8 17.831,15.12C17.831,13.44 17.491,12.6 16.81,12.6Z" style="fill-rule:nonzero;"/>
    </g>
    <g>
        <g>
            <path d="M14.003,6.909C9.827,6.909 6.436,10.3 6.436,14.476C6.436,18.653 9.827,22.039 14.003,22.039C15.789,22.039 17.364,21.33 18.672,20.294C18.569,20.807 18.631,21.341 19.062,21.71L24.685,26.599C25.316,27.149 26.27,27.077 26.819,26.446C27.368,25.809 27.296,24.86 26.665,24.312L21.037,19.422C20.693,19.124 20.272,19.033 19.857,19.093C20.873,17.801 21.581,16.246 21.581,14.476C21.581,10.3 18.195,6.909 14.018,6.909L14.003,6.909ZM13.962,7.54C17.882,7.54 20.781,9.997 20.781,14.358C20.781,18.812 17.8,21.177 13.962,21.177C10.217,21.177 7.144,18.37 7.144,14.358C7.144,10.264 10.13,7.54 13.962,7.54Z" style="fill:rgb(220,220,220);fill-rule:nonzero;stroke:url(#_Linear16);stroke-width:1.03px;"/>
            <path d="M13.988,6.878C9.801,6.878 6.4,10.28 6.4,14.466C6.4,18.658 9.801,22.059 13.988,22.059C15.779,22.059 17.364,21.346 18.662,20.304C18.554,20.818 18.621,21.351 19.046,21.726L24.69,26.63C25.326,27.179 26.281,27.108 26.834,26.477C27.384,25.84 27.312,24.886 26.675,24.332L21.032,19.427C20.688,19.129 20.267,19.043 19.847,19.099C20.868,17.806 21.581,16.241 21.581,14.482C21.581,10.295 18.179,6.894 13.988,6.894M13.952,8.53C17.174,8.53 19.791,11.142 19.791,14.369C19.791,17.591 17.174,20.202 13.952,20.202C10.73,20.202 8.114,17.591 8.114,14.369C8.114,11.142 10.73,8.53 13.952,8.53" style="fill:rgb(220,220,220);fill-rule:nonzero;"/>
        </g>
        <path d="M24.716,26.63C24.469,25.46 25.428,24.163 26.552,24.173L21.032,19.422C19.524,19.391 18.841,20.587 19.092,21.782L24.716,26.63" style="fill:url(#_Linear17);fill-rule:nonzero;"/>
        <circle cx="13.875" cy="14.225" r="7.064" style="fill:none;stroke:url(#_Linear18);stroke-width:0.51px;stroke-linecap:butt;"/>
        <circle cx="13.875" cy="14.302" r="5.961" style="fill:url(#_Radial19);stroke:rgb(48,99,163);stroke-width:0.51px;stroke-linecap:butt;"/>
        <path d="M13.782,9.095C11.11,9.095 8.945,11.255 8.945,13.927C8.945,14.702 9.16,15.41 9.483,16.056C10.125,16.292 10.807,16.457 11.531,16.457C14.701,16.457 17.225,13.963 17.42,10.844C16.533,9.792 15.26,9.095 13.782,9.095" style="fill:url(#_Radial20);fill-rule:nonzero;"/>
        <path d="M26.642,26.31C26.183,26.848 25.377,26.907 24.845,26.442L19.436,21.715C18.902,21.25 18.843,20.434 19.302,19.895C19.762,19.357 20.567,19.297 21.1,19.763L26.509,24.489C27.042,24.955 27.102,25.771 26.642,26.31Z" style="fill:none;stroke:white;stroke-opacity:0.43;stroke-width:0.51px;stroke-linecap:butt;"/>
    </g>
    <rect id="outer" x="0" y="0" width="30" height="30" style="fill:none;"/>
    <defs>
        <linearGradient id="_Linear1" x1="0" y1="0" x2="1" y2="0" gradientUnits="userSpaceOnUse" gradientTransform="matrix(2.29637e-16,-3.75025,3.75025,2.29637e-16,15,30)"><stop offset="0" style="stop-color:rgb(46,52,54);stop-opacity:1"/><stop offset="0.1" style="stop-color:rgb(56,62,64);stop-opacity:1"/><stop offset="0.27" style="stop-color:rgb(83,88,89);stop-opacity:1"/><stop offset="0.48" style="stop-color:rgb(126,130,131);stop-opacity:1"/><stop offset="0.74" style="stop-color:rgb(187,189,189);stop-opacity:1"/><stop offset="1" style="stop-color:white;stop-opacity:1"/></linearGradient>
        <linearGradient id="_Linear2" x1="0" y1="0" x2="1" y2="0" gradientUnits="userSpaceOnUse" gradientTransform="matrix(2.29637e-16,-3.75025,3.75025,2.29637e-16,14.9997,29.7322)"><stop offset="0" style="stop-color:rgb(46,52,54);stop-opacity:1"/><stop offset="0.02" style="stop-color:rgb(56,62,64);stop-opacity:1"/><stop offset="0.06" style="stop-color:rgb(83,88,89);stop-opacity:1"/><stop offset="0.11" style="stop-color:rgb(126,130,131);stop-opacity:1"/><stop offset="0.18" style="stop-color:rgb(187,189,189);stop-opacity:1"/><stop offset="0.24" style="stop-color:white;stop-opacity:1"/><stop offset="1" style="stop-color:white;stop-opacity:1"/></linearGradient>
        <linearGradient id="_Linear3" x1="0" y1="0" x2="1" y2="0" gradientUnits="userSpaceOnUse" gradientTransform="matrix(1.54173e-15,-25.1783,25.1783,1.54173e-15,15,28.9285)"><stop offset="0" style="stop-color:rgb(187,187,187);stop-opacity:1"/><stop offset="0.09" style="stop-color:rgb(144,145,143);stop-opacity:1"/><stop offset="0.16" style="stop-color:rgb(112,113,110);stop-opacity:1"/><stop offset="0.23" style="stop-color:rgb(92,94,90);stop-opacity:1"/><stop offset="1" style="stop-color:rgb(85,87,83);stop-opacity:1"/></linearGradient>
        <linearGradient id="_Linear4" x1="0" y1="0" x2="1" y2="0" gradientUnits="userSpaceOnUse" gradientTransform="matrix(1.54173e-15,-25.1783,25.1783,1.54173e-15,15,28.9285)"><stop offset="0" style="stop-color:rgb(187,187,187);stop-opacity:1"/><stop offset="0.09" style="stop-color:rgb(144,145,143);stop-opacity:1"/><stop offset="0.16" style="stop-color:rgb(112,113,110);stop-opacity:1"/><stop offset="0.23" style="stop-color:rgb(92,94,90);stop-opacity:1"/><stop offset="1" style="stop-color:rgb(85,87,83);stop-opacity:1"/></linearGradient>
        <linearGradient id="_Linear5" x1="0" y1="0" x2="1" y2="0" gradientUnits="userSpaceOnUse" gradientTransform="matrix(26.25,0,0,26.25,1.9801,15)"><stop offset="0" style="stop-color:rgb(79,79,79);stop-opacity:1"/><stop offset="0.24" style="stop-color:rgb(177,177,177);stop-opacity:1"/><stop offset="0.38" style="stop-color:rgb(150,150,150);stop-opacity:1"/><stop offset="0.69" style="stop-color:rgb(107,107,107);stop-opacity:1"/><stop offset="0.83" style="stop-color:rgb(85,85,85);stop-opacity:1"/><stop offset="1" style="stop-color:rgb(187,187,187);stop-opacity:1"/></linearGradient>
        <linearGradient id="_Linear6" x1="0" y1="0" x2="1" y2="0" gradientUnits="userSpaceOnUse" gradientTransform="matrix(26.5178,0,0,26.5178,1.84607,14.1963)"><stop offset="0" style="stop-color:rgb(139,139,139);stop-opacity:1"/><stop offset="0.14" style="stop-color:rgb(177,177,177);stop-opacity:1"/><stop offset="0.38" style="stop-color:rgb(150,150,150);stop-opacity:1"/><stop offset="0.69" style="stop-color:rgb(107,107,107);stop-opacity:1"/><stop offset="0.83" style="stop-color:rgb(85,85,85);stop-opacity:1"/><stop offset="1" style="stop-color:rgb(187,187,187);stop-opacity:1"/></linearGradient>
        <linearGradient id="_Linear7" x1="0" y1="0" x2="1" y2="0" gradientUnits="userSpaceOnUse" gradientTransform="matrix(26.7857,0,0,26.7857,1.71227,13.5543)"><stop offset="0" style="stop-color:rgb(147,147,147);stop-opacity:1"/><stop offset="0.14" style="stop-color:rgb(177,177,177);stop-opacity:1"/><stop offset="0.38" style="stop-color:rgb(150,150,150);stop-opacity:1"/><stop offset="0.69" style="stop-color:rgb(107,107,107);stop-opacity:1"/><stop offset="0.83" style="stop-color:rgb(85,85,85);stop-opacity:1"/><stop offset="1" style="stop-color:rgb(187,187,187);stop-opacity:1"/></linearGradient>
        <radialGradient id="_Radial8" cx="0" cy="0" r="1" gradientUnits="userSpaceOnUse" gradientTransform="matrix(33.6614,0.0269291,-0.0269291,33.6614,5.46214,0.596464)"><stop offset="0" style="stop-color:white;stop-opacity:1"/><stop offset="0.71" style="stop-color:rgb(251,251,251);stop-opacity:1"/><stop offset="0.74" style="stop-color:rgb(240,240,240);stop-opacity:1"/><stop offset="0.78" style="stop-color:rgb(222,222,222);stop-opacity:1"/><stop offset="0.82" style="stop-color:rgb(196,196,196);stop-opacity:1"/><stop offset="0.83" style="stop-color:rgb(187,187,187);stop-opacity:1"/><stop offset="0.93" style="stop-color:rgb(238,238,238);stop-opacity:1"/><stop offset="1" style="stop-color:rgb(238,238,238);stop-opacity:1"/></radialGradient>
        <linearGradient id="_Linear9" x1="0" y1="0" x2="1" y2="0" gradientUnits="userSpaceOnUse" gradientTransform="matrix(4.10038e-16,6.69643,-6.69643,4.10038e-16,15.1051,1.1815)"><stop offset="0" style="stop-color:rgb(0,140,0);stop-opacity:1"/><stop offset="0.57" style="stop-color:rgb(114,209,61);stop-opacity:1"/><stop offset="1" style="stop-color:rgb(114,209,61);stop-opacity:1"/></linearGradient>
        <linearGradient id="_Linear10" x1="0" y1="0" x2="1" y2="0" gradientUnits="userSpaceOnUse" gradientTransform="matrix(6.56043e-17,-1.0714,1.0714,6.56043e-17,6.8014,3.21422)"><stop offset="0" style="stop-color:rgb(85,85,85);stop-opacity:1"/><stop offset="0.57" style="stop-color:rgb(50,50,50);stop-opacity:1"/><stop offset="1" style="stop-color:rgb(50,50,50);stop-opacity:1"/></linearGradient>
        <linearGradient id="_Linear11" x1="0" y1="0" x2="1" y2="0" gradientUnits="userSpaceOnUse" gradientTransform="matrix(6.56043e-17,-1.0714,1.0714,6.56043e-17,23.4086,3.21422)"><stop offset="0" style="stop-color:rgb(85,85,85);stop-opacity:1"/><stop offset="0.57" style="stop-color:rgb(50,50,50);stop-opacity:1"/><stop offset="1" style="stop-color:rgb(50,50,50);stop-opacity:1"/></linearGradient>
        <linearGradient id="_Linear12" x1="0" y1="0" x2="1" y2="0" gradientUnits="userSpaceOnUse" gradientTransform="matrix(1.96814e-16,3.21422,-3.21422,1.96814e-16,6.8014,-6.88338e-15)"><stop offset="0" style="stop-color:rgb(50,50,50);stop-opacity:1"/><stop offset="0.37" style="stop-color:rgb(221,221,221);stop-opacity:1"/><stop offset="0.45" style="stop-color:rgb(217,217,217);stop-opacity:1"/><stop offset="0.55" style="stop-color:rgb(203,203,203);stop-opacity:1"/><stop offset="0.64" style="stop-color:rgb(182,182,182);stop-opacity:1"/><stop offset="0.74" style="stop-color:rgb(151,151,151);stop-opacity:1"/><stop offset="0.79" style="stop-color:rgb(136,136,136);stop-opacity:1"/><stop offset="1" style="stop-color:rgb(136,136,136);stop-opacity:1"/></linearGradient>
        <linearGradient id="_Linear13" x1="0" y1="0" x2="1" y2="0" gradientUnits="userSpaceOnUse" gradientTransform="matrix(1.96814e-16,3.21422,-3.21422,1.96814e-16,23.4086,-6.88338e-15)"><stop offset="0" style="stop-color:rgb(50,50,50);stop-opacity:1"/><stop offset="0.37" style="stop-color:rgb(221,221,221);stop-opacity:1"/><stop offset="0.45" style="stop-color:rgb(217,217,217);stop-opacity:1"/><stop offset="0.55" style="stop-color:rgb(203,203,203);stop-opacity:1"/><stop offset="0.64" style="stop-color:rgb(182,182,182);stop-opacity:1"/><stop offset="0.74" style="stop-color:rgb(151,151,151);stop-opacity:1"/><stop offset="0.79" style="stop-color:rgb(136,136,136);stop-opacity:1"/><stop offset="1" style="stop-color:rgb(136,136,136);stop-opacity:1"/></linearGradient>
        <linearGradient id="_Linear14" x1="0" y1="0" x2="1" y2="0" gradientUnits="userSpaceOnUse" gradientTransform="matrix(5.90386e-17,-0.964173,0.964173,5.90386e-17,23.4086,2.22315)"><stop offset="0" style="stop-color:white;stop-opacity:0"/><stop offset="1" style="stop-color:white;stop-opacity:1"/></linearGradient>
        <linearGradient id="_Linear15" x1="0" y1="0" x2="1" y2="0" gradientUnits="userSpaceOnUse" gradientTransform="matrix(5.90386e-17,-0.964173,0.964173,5.90386e-17,6.8014,2.22315)"><stop offset="0" style="stop-color:white;stop-opacity:0"/><stop offset="1" style="stop-color:white;stop-opacity:1"/></linearGradient>
        <linearGradient id="_Linear16" x1="0" y1="0" x2="1" y2="0" gradientUnits="userSpaceOnUse" gradientTransform="matrix(2.20095,3.71956,-3.71956,2.20095,18.3026,17.2776)"><stop offset="0" style="stop-color:rgb(138,138,138);stop-opacity:1"/><stop offset="1" style="stop-color:rgb(72,72,72);stop-opacity:1"/></linearGradient>
        <linearGradient id="_Linear17" x1="0" y1="0" x2="1" y2="0" gradientUnits="userSpaceOnUse" gradientTransform="matrix(1.78077,-1.94728,1.94728,1.78077,21.6263,23.7939)"><stop offset="0" style="stop-color:rgb(125,125,125);stop-opacity:1"/><stop offset="0.5" style="stop-color:rgb(177,177,177);stop-opacity:1"/><stop offset="1" style="stop-color:rgb(104,104,104);stop-opacity:1"/></linearGradient>
        <linearGradient id="_Linear18" x1="0" y1="0" x2="1" y2="0" gradientUnits="userSpaceOnUse" gradientTransform="matrix(-0.502783,7.76236,-7.76236,-0.502783,14.0956,10.803)"><stop offset="0" style="stop-color:white;stop-opacity:1"/><stop offset="0.5" style="stop-color:white;stop-opacity:0.22"/><stop offset="1" style="stop-color:white;stop-opacity:1"/></linearGradient>
        <radialGradient id="_Radial19" cx="0" cy="0" r="1" gradientUnits="userSpaceOnUse" gradientTransform="matrix(5.96448,0,0,-5.96448,14.3427,16.6781)"><stop offset="0" style="stop-color:rgb(114,159,207);stop-opacity:0.21"/><stop offset="1" style="stop-color:rgb(114,159,207);stop-opacity:0.68"/></radialGradient>
        <radialGradient id="_Radial20" cx="0" cy="0" r="1" gradientUnits="userSpaceOnUse" gradientTransform="matrix(8.85994,0,0,-7.69482,12.1397,10.7194)"><stop offset="0" style="stop-color:white;stop-opacity:0.83"/><stop offset="1" style="stop-color:white;stop-opacity:0.21"/></radialGradient>
    </defs>
</svg>
