<?xml version="1.0" encoding="UTF-8" standalone="no"?>
<!-- Generator: Adobe Illustrator 19.0.0, SVG Export Plug-In . SVG Version: 6.00 Build 0)  -->

<svg
   version="1.1"
   id="Layer_1"
   x="0px"
   y="0px"
   viewBox="0 0 485 485"
   style="enable-background:new 0 0 485 485;"
   xml:space="preserve"
   sodipodi:docname="debug_logo.svg"
   inkscape:version="1.1.2 (b8e25be833, 2022-02-05)"
   xmlns:inkscape="http://www.inkscape.org/namespaces/inkscape"
   xmlns:sodipodi="http://sodipodi.sourceforge.net/DTD/sodipodi-0.dtd"
   xmlns:xlink="http://www.w3.org/1999/xlink"
   xmlns="http://www.w3.org/2000/svg"
   xmlns:svg="http://www.w3.org/2000/svg"><defs
   id="defs741"><linearGradient
     xlink:href="#a"
     id="e"
     gradientUnits="userSpaceOnUse"
     gradientTransform="matrix(1.00003,0,0,1.00003,-45.008,-319.106)"
     x1="221.01601"
     y1="674.08502"
     x2="119.923"
     y2="474.091" /><linearGradient
     id="a"><stop
       offset="0"
       style="stop-color:red;stop-opacity:1"
       id="stop965" /><stop
       style="stop-color:#ffe0e0;stop-opacity:1"
       offset="1"
       id="stop967" /></linearGradient><linearGradient
     xlink:href="#b"
     id="f"
     gradientUnits="userSpaceOnUse"
     gradientTransform="matrix(0.54556,0,0,0.35025,-38.517,72.607)"
     x1="139.431"
     y1="520.74298"
     x2="222.739"
     y2="520.74298" /><linearGradient
     id="b"><stop
       offset="0"
       style="stop-color:#fff;stop-opacity:1"
       id="stop970" /><stop
       offset="1"
       style="stop-color:#fff;stop-opacity:0"
       id="stop972" /></linearGradient><linearGradient
     xlink:href="#c"
     id="g"
     gradientUnits="userSpaceOnUse"
     gradientTransform="matrix(1.33416,0,0,1.33416,-90.283,-537.514)"
     x1="296.203"
     y1="571.52899"
     x2="220.845"
     y2="421.62299" /><linearGradient
     id="c"><stop
       offset="0"
       style="stop-color:#00f;stop-opacity:1"
       id="stop975" /><stop
       offset="1"
       style="stop-color:#e0e0ff;stop-opacity:1"
       id="stop977" /></linearGradient><linearGradient
     xlink:href="#b"
     id="h"
     gradientUnits="userSpaceOnUse"
     gradientTransform="matrix(0.54556,0,0,0.35025,91.483,-57.393)"
     x1="139.63"
     y1="520.742"
     x2="222.73801"
     y2="520.742" /><linearGradient
     xlink:href="#d"
     id="i"
     gradientUnits="userSpaceOnUse"
     gradientTransform="matrix(1.33416,0,0,1.33416,54.717,-442.514)"
     x1="221.022"
     y1="421.62299"
     x2="296.72601"
     y2="571.52899" /><linearGradient
     id="d"><stop
       offset="0"
       style="stop-color:#ffffe0;stop-opacity:1"
       id="stop980" /><stop
       offset="1"
       style="stop-color:#ff0;stop-opacity:1"
       id="stop982" /></linearGradient><linearGradient
     xlink:href="#b"
     id="j"
     gradientUnits="userSpaceOnUse"
     gradientTransform="matrix(0.54556,0,0,0.35025,236.483,37.607)"
     x1="139.431"
     y1="520.742"
     x2="222.73801"
     y2="520.742" /></defs><sodipodi:namedview
   id="namedview739"
   pagecolor="#ffffff"
   bordercolor="#666666"
   borderopacity="1.0"
   inkscape:pageshadow="2"
   inkscape:pageopacity="0.0"
   inkscape:pagecheckerboard="0"
   showgrid="false"
   inkscape:zoom="0.9757732"
   inkscape:cx="243.90914"
   inkscape:cy="241.34707"
   inkscape:window-width="3840"
   inkscape:window-height="2102"
   inkscape:window-x="-8"
   inkscape:window-y="32"
   inkscape:window-maximized="1"
   inkscape:current-layer="Layer_1"><inkscape:grid
     type="xygrid"
     id="grid1687" /></sodipodi:namedview>
<g
   id="XMLID_29_">
	<g
   id="g699">
		<polygon
   style="display:inline;fill:#92999d"
   points="137.5,472.5 137.5,442.5 167.5,442.5 202.5,442.5 282.5,442.5 317.5,442.5 347.5,442.5 347.5,472.5 "
   id="polygon691" />
		<polygon
   style="display:inline;fill:#e7eced"
   points="202.5,442.5 167.5,442.5 187.5,352.5 297.5,352.5 317.5,442.5 282.5,442.5 267.5,382.5 217.5,382.5 "
   id="polygon693" />
		<path
   style="display:inline;fill:#e6e6e6"
   d="m 477.5,12.5 v 340 h -180 -110 -180 v -340 z m -35,305 v -270 h -400 v 270 z"
   id="path695" />
		<rect
   x="42.5"
   y="47.5"
   style="display:inline;fill:#31c0d8"
   width="400"
   height="270"
   id="rect697" />
	</g>
	<g
   id="g705">
		<path
   style="display:inline;fill:#231f20"
   d="M 485,360 V 5 H 0 v 355 h 178.151 l -16.667,75 H 130 v 45 H 355 V 435 H 323.516 L 306.849,360 Z M 15,345 V 20 H 470 V 345 Z M 340,465 H 145 v -15 h 195 z m -127.894,-30 11.25,-45 h 38.288 l 11.25,45 z m 76.25,0 -15,-60 h -61.712 l -15,60 h -19.795 l 16.667,-75 h 97.968 l 16.667,75 z"
   id="path701" />
		<path
   style="display:inline;fill:#231f20"
   d="M 450,40 H 35 V 325 H 450 Z M 435,310 H 50 V 55 h 385 z"
   id="path703" />
	</g>
</g>
<g
   id="g10615"
   transform="matrix(0.43754539,0,0,0.41753232,136.35293,76.659747)"><polygon
     style="fill:#b7d9dd"
     points="423.992,90.355 439.097,111.756 439.097,288.683 467.15,288.683 467.15,111.756 482.255,90.355 482.255,8.172 423.992,8.172 "
     id="polygon10464" /><path
     style="fill:#367596"
     d="m 189.395,37.002 c -28.277,0 -51.199,22.922 -51.199,51.199 l 51.202,32.681 51.197,-32.682 c -0.001,-28.276 -22.923,-51.198 -51.2,-51.198 z"
     id="path10466" /><path
     style="fill:#940044"
     d="m 266.59,185.411 -77.17,288.735 c 1.689,-0.61 109.851,-40.023 109.851,-137.216 V 185.411 Z"
     id="path10468" /><path
     style="fill:#c20035"
     d="M 189.398,474.157 167.61,185.411 h 98.979 V 336.93 c 10e-4,96.998 -75.688,136.455 -77.191,137.227 z"
     id="path10470" /><path
     style="fill:#ff0f47"
     d="M 189.398,185.412 H 112.206 79.525 v 151.519 c 0,97.193 108.163,136.606 109.851,137.216 0.022,0.011 0.022,-288.735 0.022,-288.735 z"
     id="path10472" /><path
     style="fill:#111449"
     d="m 251.371,88.196 h -18.432 v 145.103 h 18.432 c 26.45,0 47.899,-21.439 47.899,-47.888 v -49.315 c 0.001,-26.45 -21.449,-47.9 -47.899,-47.9 z"
     id="path10474" /><path
     style="fill:#f3a933"
     d="M 497.039,256.002 H 453.12 l -0.014,247.83 c 24.304,0 43.945,-19.696 43.938,-43.952 z"
     id="path10476" /><path
     style="fill:#ffbe35"
     d="m 475.254,256.001 h -66.052 l 0.014,203.885 c -0.041,24.262 19.668,43.932 43.89,43.945 12.256,0 22.154,-19.696 22.151,-43.952 z"
     id="path10478" /><path
     style="fill:#27467a"
     d="m 232.939,88.197 h -87.084 -18.443 c -26.45,0 -47.888,21.45 -47.888,47.899 v 49.315 c 0,26.45 21.439,47.888 47.888,47.888 h 29.119 c 15.24,0 28.182,9.826 32.866,23.487 4.673,-13.661 17.626,-23.487 32.866,-23.487 h 10.676 c 18.585,0 33.65,-21.439 33.65,-47.888 v -49.315 c 10e-4,-26.45 -15.065,-47.899 -33.65,-47.899 z"
     id="path10480" /><path
     d="m 375.265,226.752 c -2.207,-1.524 -5.023,-1.872 -7.533,-0.922 l -60.294,22.782 v -55.03 h 63.182 c 3.024,0 5.801,-1.67 7.217,-4.341 1.417,-2.672 1.243,-5.908 -0.453,-8.411 L 340.119,125.823 V 86.32 c 0,-4.513 -3.658,-8.17 -8.17,-8.17 -4.512,0 -8.17,3.657 -8.17,8.17 v 42.008 c 0,1.634 0.49,3.23 1.405,4.582 l 30.031,44.33 h -47.778 v -41.148 c 0,-30.914 -25.149,-56.064 -56.063,-56.064 h -3.185 C 246.109,64.99 238.388,51.73 227.223,42.477 L 247.36,12.754 c 2.531,-3.737 1.553,-8.816 -2.182,-11.347 -3.736,-2.531 -8.815,-1.553 -11.347,2.181 l -20.52,30.29 c -7.322,-3.235 -15.408,-5.047 -23.914,-5.047 -0.001,0 -0.001,0 -0.002,0 -8.379,0 -16.485,1.741 -23.93,5.021 L 144.962,3.589 c -2.532,-3.734 -7.612,-4.711 -11.347,-2.181 -3.735,2.531 -4.713,7.61 -2.182,11.347 l 20.122,29.7 c -1.427,1.185 -2.811,2.437 -4.138,3.765 -9.263,9.263 -15.077,21.051 -16.823,33.809 h -3.175 c -30.913,0 -56.063,25.15 -56.063,56.064 v 41.148 H 23.575 l 30.032,-44.33 c 0.916,-1.352 1.406,-2.948 1.406,-4.582 V 86.32 c 0,-4.513 -3.658,-8.17 -8.17,-8.17 -4.512,0 -8.17,3.657 -8.17,8.17 v 39.502 L 1.408,180.829 c -1.696,2.503 -1.87,5.739 -0.453,8.411 1.417,2.671 4.194,4.341 7.218,4.341 h 63.182 v 55.03 L 11.06,225.829 c -2.511,-0.95 -5.326,-0.605 -7.533,0.922 -2.208,1.526 -3.526,4.039 -3.526,6.722 v 34.791 c 0,4.513 3.658,8.17 8.17,8.17 4.512,0 8.17,-3.657 8.17,-8.17 v -22.969 l 55.012,20.785 v 35.321 H 8.171 c -2.522,0 -4.902,1.163 -6.449,3.155 -1.548,1.99 -2.089,4.584 -1.47,7.027 l 38.42,151.261 v 40.986 c 0,4.513 3.658,8.17 8.17,8.17 4.512,0 8.17,-3.657 8.17,-8.17 v -42.009 c 0,-0.679 -0.085,-1.354 -0.252,-2.012 L 18.676,317.741 h 52.677 v 19.186 c 0,42.614 20.053,81.246 57.989,111.717 28.216,22.663 56.127,32.784 57.303,33.204 0.889,0.318 1.819,0.477 2.75,0.477 0.93,0 1.861,-0.159 2.75,-0.477 1.174,-0.421 29.087,-10.542 57.303,-33.204 37.937,-30.472 57.99,-69.104 57.99,-111.717 v -19.186 h 52.677 l -36.085,142.07 c -0.167,0.657 -0.252,1.333 -0.252,2.012 v 42.008 c 0,4.513 3.658,8.17 8.17,8.17 4.512,0 8.17,-3.657 8.17,-8.17 v -40.987 l 38.421,-151.261 c 0.621,-2.443 0.078,-5.037 -1.47,-7.027 -1.548,-1.99 -3.928,-3.155 -6.449,-3.155 H 307.438 V 266.08 l 55.012,-20.785 v 22.969 c 0,4.513 3.658,8.17 8.17,8.17 4.512,0 8.17,-3.657 8.17,-8.17 v -34.79 c -0.001,-2.684 -1.318,-5.197 -3.525,-6.722 z M 87.694,136.093 c 0,-21.903 17.819,-39.724 39.722,-39.724 h 21.674 c 4.512,0 8.17,-3.657 8.17,-8.17 0,-4.513 -3.658,-8.17 -8.17,-8.17 h -1.948 c 1.602,-8.38 5.66,-16.089 11.827,-22.256 8.127,-8.127 18.932,-12.602 30.426,-12.602 20.932,0 38.412,15.028 42.241,34.857 H 181.77 c -4.512,0 -8.17,3.657 -8.17,8.17 0,4.513 3.658,8.17 8.17,8.17 h 69.603 c 21.904,0 39.722,17.82 39.722,39.724 v 49.319 c 0,21.903 -17.819,39.722 -39.722,39.722 h -29.111 c -12.941,0 -24.876,5.805 -32.867,15.32 -7.993,-9.513 -19.927,-15.32 -32.867,-15.32 h -29.112 c -21.903,0 -39.722,-17.819 -39.722,-39.722 z m 203.402,200.834 c 0,37.881 -17.332,71.082 -51.514,98.681 -21.195,17.113 -42.717,26.721 -50.188,29.774 -7.477,-3.057 -28.997,-12.665 -50.188,-29.774 C 105.024,408.009 87.692,374.809 87.692,336.927 V 224.932 c 10.159,10.211 24.214,16.542 39.722,16.542 h 29.112 c 10.945,0 20.709,6.716 24.697,16.82 v 180.23 c 0,4.513 3.658,8.17 8.17,8.17 4.512,0 8.17,-3.657 8.17,-8.17 v -180.23 c 3.989,-10.104 13.752,-16.82 24.697,-16.82 h 29.111 c 15.508,0 29.563,-6.331 39.722,-16.542 v 111.995 z"
     id="path10482" /><path
     d="m 453.12,280.512 c -4.512,0 -8.17,3.657 -8.17,8.17 v 171.296 c 0,4.513 3.658,8.17 8.17,8.17 4.512,0 8.17,-3.657 8.17,-8.17 V 288.682 c 0,-4.512 -3.658,-8.17 -8.17,-8.17 z"
     id="path10484" /><path
     d="m 512.001,256.001 c 0,-4.513 -3.658,-8.17 -8.17,-8.17 H 475.32 V 114.348 l 13.61,-19.281 c 0.973,-1.379 1.495,-3.024 1.495,-4.711 V 8.172 c 0,-4.513 -3.658,-8.17 -8.17,-8.17 h -58.263 c -4.512,0 -8.17,3.657 -8.17,8.17 v 82.184 c 0,1.687 0.522,3.333 1.495,4.711 l 13.61,19.281 V 247.832 H 402.41 c -4.512,0 -8.17,3.657 -8.17,8.17 0,4.043 2.938,7.39 6.793,8.046 l 0.013,195.826 c -0.024,13.895 5.376,26.971 15.202,36.819 9.843,9.865 22.931,15.302 36.859,15.31 13.933,0 27.026,-5.424 36.866,-15.275 9.833,-9.843 15.247,-22.931 15.242,-36.847 L 505.21,264.049 c 3.853,-0.657 6.791,-4.005 6.791,-8.048 z M 445.771,107.044 432.162,87.763 V 16.342 h 41.923 v 71.422 l -13.61,19.281 c -0.973,1.379 -1.496,3.024 -1.496,4.711 V 247.831 H 447.266 V 111.756 c 10e-4,-1.688 -0.522,-3.333 -1.495,-4.712 z m 32.641,378.134 c -6.753,6.759 -15.74,10.483 -25.302,10.483 -9.555,-0.005 -18.539,-3.738 -25.296,-10.51 -6.741,-6.756 -10.445,-15.724 -10.428,-25.264 l -0.013,-195.715 h 71.496 l 0.005,195.709 c 0.003,9.557 -3.712,18.54 -10.462,25.297 z"
     id="path10486" /></g></svg>
