<?xml version="1.0" encoding="UTF-8" standalone="no"?><!DOCTYPE svg PUBLIC "-//W3C//DTD SVG 1.1//EN" "http://www.w3.org/Graphics/SVG/1.1/DTD/svg11.dtd"><svg width="100%" height="100%" viewBox="0 0 485 485" version="1.1" xmlns="http://www.w3.org/2000/svg" xmlns:xlink="http://www.w3.org/1999/xlink" xml:space="preserve" xmlns:serif="http://www.serif.com/" style="fill-rule:evenodd;clip-rule:evenodd;stroke-linejoin:round;stroke-miterlimit:2;"><g id="XMLID_29_"><g id="g699"><path id="polygon691" d="M137.5,472.5l0,-30l210,0l0,30l-210,0Z" style="fill:#92999d;fill-rule:nonzero;"/><path id="polygon693" d="M202.5,442.5l-35,0l20,-90l110,0l20,90l-35,0l-15,-60l-50,0l-15,60Z" style="fill:#92999d;fill-rule:nonzero;"/><path id="path695" d="M477.5,12.5l0,340l-470,0l0,-340l470,0Zm-35,305l0,-270l-400,0l0,270l400,0Z" style="fill:#e6e6e6;fill-rule:nonzero;"/><rect id="rect697" x="42.5" y="47.5" width="400" height="270" style="fill:#31c0d8;"/></g><g id="g705"><path id="path701" d="M485,360l0,-355l-485,0l0,355l178.151,0l-16.667,75l-31.484,0l0,45l225,0l0,-45l-31.484,0l-16.667,-75l178.151,0Zm-470,-15l-0,-325l455,0l-0,325l-455,0Zm325,120l-195,0l-0,-15l195,0l-0,15Zm-127.894,-30l11.25,-45l38.288,0l11.25,45l-60.788,0Zm76.25,0l-15,-60l-61.712,0l-15,60l-19.795,0l16.667,-75l97.968,0l16.667,75l-19.795,0Z" style="fill:#231f20;fill-rule:nonzero;"/><path id="path703" d="M450,40l-415,0l0,285l415,0l0,-285Zm-15,261.589c-0,2.231 -0.886,4.37 -2.464,5.947c-1.577,1.578 -3.716,2.464 -5.947,2.464l-368.178,0c-2.231,0 -4.37,-0.886 -5.947,-2.464c-1.578,-1.577 -2.464,-3.716 -2.464,-5.947l0,-238.178c0,-2.231 0.886,-4.37 2.464,-5.947c1.577,-1.578 3.716,-2.464 5.947,-2.464l368.178,0c2.231,-0 4.37,0.886 5.947,2.464c1.578,1.577 2.464,3.716 2.464,5.947l0,238.178Z" style="fill:#231f20;fill-rule:nonzero;"/></g></g><g id="g10615"><path id="polygon10464" d="M321.869,114.386l6.609,8.935l-0,73.873l12.274,0l0,-73.873l6.609,-8.935l0,-34.314l-25.492,-0l-0,34.314Z" style="fill:#b7d9dd;fill-rule:nonzero;"/><path id="path10466" d="M219.222,92.109c-12.373,0 -22.402,9.571 -22.402,21.378l22.403,13.645l22.401,-13.646c-0,-11.806 -10.03,-21.377 -22.402,-21.377Z" style="fill:#367596;fill-rule:nonzero;"/><path id="path10468" d="M252.998,154.075l-33.765,120.556c0.739,-0.255 48.065,-16.711 48.065,-57.292l-0,-63.264l-14.3,-0Z" style="fill:#940044;fill-rule:nonzero;"/><path id="path10470" d="M219.223,274.636l-9.533,-120.561l43.308,-0l-0,63.264c0,40.5 -33.117,56.974 -33.775,57.297Z" style="fill:#c20035;fill-rule:nonzero;"/><path id="path10472" d="M219.223,154.075l-48.074,0l-0,63.264c-0,40.582 47.326,57.038 48.065,57.292c0.009,0.005 0.009,-120.556 0.009,-120.556Z" style="fill:#ff0f47;fill-rule:nonzero;"/><path id="path10474" d="M246.339,113.484l-8.065,0l0,60.586l8.065,-0c11.573,-0 20.958,-8.952 20.958,-19.995l0,-20.591c0.001,-11.044 -9.385,-20 -20.958,-20Z" style="fill:#111449;fill-rule:nonzero;"/><path id="path10476" d="M353.83,183.549l-19.217,-0l-0.006,103.477c10.634,-0 19.228,-8.224 19.225,-18.351l-0.002,-85.126Z" style="fill:#f3a933;fill-rule:nonzero;"/><path id="path10478" d="M344.298,183.548l-28.901,0l0.007,85.129c-0.018,10.13 8.605,18.343 19.203,18.348c5.363,0 9.694,-8.223 9.692,-18.351l-0.001,-85.126Z" style="fill:#ffbe35;fill-rule:nonzero;"/><path id="path10480" d="M238.274,113.485l-46.173,-0c-11.573,-0 -20.953,8.956 -20.953,19.999l0,20.591c0,11.044 9.381,19.995 20.953,19.995l12.741,-0c6.669,-0 12.331,4.102 14.381,9.806c2.044,-5.704 7.712,-9.806 14.38,-9.806l4.671,-0c8.132,-0 14.724,-8.952 14.724,-19.995l-0,-20.591c0,-11.044 -6.592,-19.999 -14.724,-19.999Z" style="fill:#27467a;fill-rule:nonzero;"/><path id="path10482" d="M300.548,171.336c-0.965,-0.636 -2.197,-0.782 -3.296,-0.385l-26.381,9.512l0,-22.977l27.645,0c1.323,0 2.538,-0.697 3.158,-1.812c0.62,-1.116 0.544,-2.467 -0.198,-3.512l-16.306,-22.967l0,-16.494c0,-1.884 -1.6,-3.411 -3.574,-3.411c-1.975,-0 -3.575,1.527 -3.575,3.411l-0,17.54c-0,0.682 0.214,1.348 0.615,1.913l13.14,18.509l-20.905,0l-0,-17.18c-0,-12.908 -11.004,-23.409 -24.531,-23.409l-1.393,0c-0.91,-6.279 -4.288,-11.815 -9.174,-15.679l8.811,-12.41c1.108,-1.56 0.68,-3.681 -0.955,-4.738c-1.634,-1.057 -3.857,-0.648 -4.964,0.911l-8.979,12.647c-3.204,-1.351 -6.742,-2.107 -10.463,-2.107l-0.001,-0c-3.666,-0 -7.213,0.727 -10.471,2.096l-8.971,-12.636c-1.107,-1.559 -3.33,-1.967 -4.964,-0.91c-1.635,1.056 -2.063,3.177 -0.955,4.737l8.804,12.401c-0.624,0.495 -1.23,1.018 -1.81,1.572c-4.053,3.868 -6.597,8.79 -7.361,14.116l-1.389,0c-13.526,0 -24.531,10.501 -24.531,23.409l0,17.181l-20.906,-0l13.14,-18.51c0.401,-0.564 0.616,-1.231 0.616,-1.913l-0,-17.54c-0,-1.884 -1.601,-3.411 -3.575,-3.411c-1.974,-0 -3.575,1.527 -3.575,3.411l0,16.493l-16.305,22.968c-0.742,1.045 -0.818,2.396 -0.198,3.512c0.62,1.115 1.835,1.812 3.158,1.812l27.645,0l-0,22.977l-26.382,-9.512c-1.098,-0.397 -2.33,-0.253 -3.296,0.385c-0.966,0.637 -1.543,1.686 -1.543,2.806l0,14.527c0,1.884 1.601,3.411 3.575,3.411c1.974,-0 3.575,-1.527 3.575,-3.411l-0,-9.591l24.07,8.679l0,14.747l-27.645,0c-1.103,0 -2.145,0.486 -2.822,1.318c-0.677,0.831 -0.914,1.914 -0.643,2.934l16.811,63.156l-0,17.113c-0,1.884 1.6,3.411 3.574,3.411c1.975,0 3.575,-1.527 3.575,-3.411l0,-17.54c0,-0.284 -0.037,-0.565 -0.11,-0.84l-15.788,-59.318l23.048,-0l0,8.011c0,17.792 8.774,33.922 25.373,46.645c12.346,9.463 24.558,13.688 25.073,13.864c0.389,0.133 0.795,0.199 1.203,0.199c0.407,0 0.814,-0.066 1.203,-0.199c0.514,-0.176 12.727,-4.402 25.073,-13.864c16.599,-12.723 25.373,-28.853 25.373,-46.645l0,-8.011l23.049,-0l-15.789,59.319c-0.073,0.274 -0.11,0.556 -0.11,0.84l-0,17.539c-0,1.885 1.6,3.412 3.574,3.412c1.974,-0 3.575,-1.527 3.575,-3.412l-0,-17.113l16.811,-63.156c0.272,-1.02 0.034,-2.103 -0.643,-2.934c-0.678,-0.831 -1.719,-1.318 -2.822,-1.318l-27.645,0l0,-14.747l24.07,-8.679l0,9.591c0,1.884 1.601,3.411 3.575,3.411c1.974,-0 3.575,-1.527 3.575,-3.411l-0,-14.526c-0.001,-1.121 -0.577,-2.17 -1.543,-2.807Zm-125.825,-37.853c0,-9.145 7.797,-16.586 17.38,-16.586l9.484,-0c1.974,-0 3.574,-1.527 3.574,-3.411c0,-1.885 -1.6,-3.412 -3.574,-3.412l-0.853,0c0.701,-3.498 2.477,-6.717 5.175,-9.292c3.556,-3.393 8.284,-5.262 13.313,-5.262c9.159,0 16.807,6.275 18.482,14.554l-21.818,0c-1.975,0 -3.575,1.527 -3.575,3.411c-0,1.885 1.6,3.412 3.575,3.412l30.454,-0c9.584,-0 17.38,7.44 17.38,16.586l0,20.592c0,9.145 -7.796,16.585 -17.38,16.585l-12.737,0c-5.663,0 -10.885,2.424 -14.381,6.397c-3.497,-3.972 -8.719,-6.397 -14.381,-6.397l-12.738,0c-9.583,0 -17.38,-7.44 -17.38,-16.585l0,-20.592Zm88.998,83.855c-0,15.816 -7.584,29.679 -22.54,41.202c-9.274,7.145 -18.691,11.157 -21.96,12.432c-3.271,-1.277 -12.687,-5.288 -21.959,-12.432c-14.956,-11.523 -22.54,-25.385 -22.54,-41.202l0,-46.762c4.445,4.264 10.595,6.907 17.38,6.907l12.738,-0c4.789,-0 9.061,2.804 10.806,7.023l0,75.252c0,1.884 1.601,3.411 3.575,3.411c1.974,-0 3.575,-1.527 3.575,-3.411l-0,-75.252c1.745,-4.219 6.017,-7.023 10.806,-7.023l12.737,-0c6.786,-0 12.935,-2.643 17.38,-6.907l0,46.762l0.002,-0Z" style="fill-rule:nonzero;"/><path id="path10484" d="M334.613,193.783c-1.974,-0 -3.574,1.526 -3.574,3.411l-0,71.521c-0,1.885 1.6,3.412 3.574,3.412c1.975,-0 3.575,-1.527 3.575,-3.412l0,-71.521c0,-1.884 -1.6,-3.411 -3.575,-3.411Z" style="fill-rule:nonzero;"/><path id="path10486" d="M360.377,183.548c-0,-1.884 -1.601,-3.411 -3.575,-3.411l-12.475,0l0,-55.733l5.955,-8.051c0.426,-0.575 0.654,-1.262 0.654,-1.967l0,-34.314c0,-1.885 -1.6,-3.411 -3.575,-3.411l-25.492,-0c-1.975,-0 -3.575,1.526 -3.575,3.411l-0,34.314c-0,0.705 0.228,1.392 0.654,1.967l5.955,8.051l0,55.734l-12.477,-0c-1.975,-0 -3.575,1.527 -3.575,3.411c-0,1.688 1.285,3.085 2.972,3.359l0.006,81.764c-0.011,5.802 2.352,11.261 6.651,15.373c4.307,4.119 10.034,6.389 16.128,6.393c6.096,-0 11.825,-2.265 16.13,-6.378c4.303,-4.11 6.672,-9.575 6.669,-15.385l-0.002,-81.766c1.686,-0.275 2.972,-1.672 2.972,-3.361Zm-28.979,-62.194l-5.955,-8.05l0,-29.821l18.344,0l-0,29.821l-5.955,8.05c-0.426,0.576 -0.655,1.263 -0.655,1.967l0,56.816l-5.125,0l0,-56.816c0.001,-0.704 -0.228,-1.391 -0.654,-1.967Zm14.282,157.883c-2.955,2.822 -6.887,4.377 -11.071,4.377c-4.181,-0.002 -8.112,-1.561 -11.068,-4.388c-2.95,-2.821 -4.57,-6.565 -4.563,-10.549l-0.005,-81.717l31.282,0l0.002,81.715c0.002,3.99 -1.624,7.741 -4.577,10.562Z" style="fill-rule:nonzero;"/></g></svg>