<?xml version="1.0" encoding="UTF-8" standalone="no"?>
<!DOCTYPE svg PUBLIC "-//W3C//DTD SVG 1.1//EN" "http://www.w3.org/Graphics/SVG/1.1/DTD/svg11.dtd">
<svg width="30px" height="30px" version="1.1" xmlns="http://www.w3.org/2000/svg" xmlns:xlink="http://www.w3.org/1999/xlink" xml:space="preserve" xmlns:serif="http://www.serif.com/" style="fill-rule:evenodd;clip-rule:evenodd;">
    <g id="Layer-1" serif:id="Layer 1">
        <path id="path7776" d="M22.176,3.55C22.171,3.19 21.792,2.83 21.428,2.83L10.217,2.83L8.908,1.748C8.773,1.624 8.539,1.388 8.348,1.388L2.742,1.388C2.36,1.388 1.995,1.756 1.995,2.109L1.995,2.83L1.995,17.967L22.176,17.967L22.176,3.55Z" style="fill:rgb(238,238,236);fill-opacity:0.7;fill-rule:nonzero;stroke:url(#_Linear1);stroke-width:0.74px;"/>
        <path id="path7778" d="M21.428,3.911C21.436,3.521 21.428,3.528 21.055,3.55L9.918,3.55L8.647,2.469C8.288,2.173 8.238,2.079 7.6,2.109L3.116,2.109C2.76,2.109 2.742,2.139 2.742,2.469L2.742,17.246L21.428,17.246L21.428,3.911Z" style="fill:none;fill-rule:nonzero;stroke:url(#_Linear2);stroke-width:0.73px;"/>
        <path id="path7780" d="M23.107,17.606C23.092,17.888 22.846,17.967 22.547,17.967L1.624,17.967C1.324,17.967 1.079,17.888 1.063,17.606L0.503,5.352C0.481,5.072 0.577,4.992 0.877,4.992L23.294,4.992C23.594,4.992 23.691,5.072 23.668,5.352L23.107,17.606Z" style="fill:url(#_Linear3);fill-rule:nonzero;stroke:url(#_Linear4);stroke-width:0.73px;"/>
        <path id="path7782" d="M2.369,3.911C2.37,4.121 2.372,4.362 2.373,4.632L21.797,4.632C21.799,4.362 21.801,4.121 21.802,3.911L2.369,3.911Z" style="fill:url(#_Linear5);fill-rule:nonzero;"/>
        <rect id="rect7784" x="0.874" y="5.352" width="22.424" height="0.721" style="fill:url(#_Linear6);"/>
        <path id="path15" d="M28.155,15.084C28.151,14.723 27.771,14.363 27.408,14.363L16.196,14.363L14.888,13.281C14.753,13.157 14.519,12.921 14.328,12.921L8.722,12.921C8.339,12.921 7.974,13.29 7.974,13.642L7.974,14.363L7.974,29.5L28.155,29.5L28.155,15.084Z" style="fill:rgb(238,238,236);fill-rule:nonzero;stroke:url(#_Linear7);stroke-width:0.74px;"/>
        <path id="path7263" d="M27.408,15.444C27.415,15.054 27.407,15.061 27.034,15.084L15.897,15.084L14.626,14.002C14.267,13.706 14.217,13.612 13.58,13.642L9.095,13.642C8.739,13.642 8.722,13.672 8.722,14.002L8.722,28.779L27.408,28.779L27.408,15.444Z" style="fill:none;fill-rule:nonzero;stroke:url(#_Linear8);stroke-width:0.73px;"/>
        <path id="path40085" d="M29.087,29.14C29.071,29.421 28.826,29.5 28.526,29.5L7.603,29.5C7.304,29.5 7.059,29.421 7.043,29.14L6.483,16.886C6.461,16.605 6.557,16.525 6.856,16.525L29.274,16.525C29.573,16.525 29.67,16.605 29.647,16.886L29.087,29.14Z" style="fill:url(#_Linear9);fill-rule:nonzero;stroke:url(#_Linear10);stroke-width:0.73px;"/>
        <path id="path50" d="M8.348,15.444C8.35,15.654 8.352,15.895 8.353,16.165L27.777,16.165C27.779,15.895 27.781,15.654 27.782,15.444L8.348,15.444Z" style="fill:url(#_Linear11);fill-rule:nonzero;"/>
        <rect id="rect3521-5-0" x="6.853" y="16.886" width="22.424" height="0.721" style="fill:url(#_Linear12);"/>
    </g>
    <g>
        <g>
            <path d="M14.003,6.909C9.827,6.909 6.436,10.3 6.436,14.476C6.436,18.653 9.827,22.039 14.003,22.039C15.789,22.039 17.364,21.33 18.672,20.294C18.569,20.807 18.631,21.341 19.062,21.71L24.685,26.599C25.316,27.149 26.27,27.077 26.819,26.446C27.368,25.809 27.296,24.86 26.665,24.312L21.037,19.422C20.693,19.124 20.272,19.033 19.857,19.093C20.873,17.801 21.581,16.246 21.581,14.476C21.581,10.3 18.195,6.909 14.018,6.909L14.003,6.909ZM13.962,7.54C17.882,7.54 20.781,9.997 20.781,14.358C20.781,18.812 17.8,21.177 13.962,21.177C10.217,21.177 7.144,18.37 7.144,14.358C7.144,10.264 10.13,7.54 13.962,7.54Z" style="fill:rgb(220,220,220);fill-rule:nonzero;stroke:url(#_Linear13);stroke-width:1.03px;stroke-linecap:round;"/>
            <path d="M13.988,6.878C9.801,6.878 6.4,10.28 6.4,14.466C6.4,18.658 9.801,22.059 13.988,22.059C15.779,22.059 17.364,21.346 18.662,20.304C18.554,20.818 18.621,21.351 19.046,21.726L24.69,26.63C25.326,27.179 26.281,27.108 26.834,26.477C27.384,25.84 27.312,24.886 26.675,24.332L21.032,19.427C20.688,19.129 20.267,19.043 19.847,19.099C20.868,17.806 21.581,16.241 21.581,14.482C21.581,10.295 18.179,6.894 13.988,6.894M13.952,8.53C17.174,8.53 19.791,11.142 19.791,14.369C19.791,17.591 17.174,20.202 13.952,20.202C10.73,20.202 8.114,17.591 8.114,14.369C8.114,11.142 10.73,8.53 13.952,8.53" style="fill:rgb(220,220,220);fill-rule:nonzero;"/>
        </g>
        <path d="M24.716,26.63C24.469,25.46 25.428,24.163 26.552,24.173L21.032,19.422C19.524,19.391 18.841,20.587 19.092,21.782L24.716,26.63" style="fill:url(#_Linear14);fill-rule:nonzero;"/>
        <circle cx="13.875" cy="14.225" r="7.064" style="fill:none;stroke:url(#_Linear15);stroke-width:0.51px;"/>
        <circle cx="13.875" cy="14.302" r="5.961" style="fill:url(#_Radial16);stroke:rgb(48,99,163);stroke-width:0.51px;"/>
        <path d="M13.782,9.095C11.11,9.095 8.945,11.255 8.945,13.927C8.945,14.702 9.16,15.41 9.483,16.056C10.125,16.292 10.807,16.457 11.531,16.457C14.701,16.457 17.225,13.963 17.42,10.844C16.533,9.792 15.26,9.095 13.782,9.095" style="fill:url(#_Radial17);fill-rule:nonzero;"/>
        <path d="M26.642,26.31C26.183,26.848 25.377,26.907 24.845,26.442L19.436,21.715C18.902,21.25 18.843,20.434 19.302,19.895C19.762,19.357 20.567,19.297 21.1,19.763L26.509,24.489C27.042,24.955 27.102,25.771 26.642,26.31Z" style="fill:none;stroke:white;stroke-opacity:0.43;stroke-width:0.51px;"/>
    </g>
    <rect id="outer" x="0" y="0" width="30" height="30" style="fill:none;"/>
    <defs>
        <linearGradient id="_Linear1" x1="0" y1="0" x2="1" y2="0.000147623" gradientUnits="userSpaceOnUse" gradientTransform="matrix(0.0236013,10.7905,-11.1892,0.0227604,11.3377,1.03843)"><stop offset="0" style="stop-color:rgb(136,138,133);stop-opacity:0.7"/><stop offset="1" style="stop-color:rgb(85,87,83);stop-opacity:0"/></linearGradient>
        <linearGradient id="_Linear2" x1="0" y1="0" x2="1" y2="-3.4645e-06" gradientUnits="userSpaceOnUse" gradientTransform="matrix(-0.000703601,13.7072,-14.2136,-0.000678533,11.3384,1.74303)"><stop offset="0" style="stop-color:white;stop-opacity:0.42"/><stop offset="1" style="stop-color:white;stop-opacity:0"/></linearGradient>
        <linearGradient id="_Linear3" x1="0" y1="0" x2="1" y2="0" gradientUnits="userSpaceOnUse" gradientTransform="matrix(-0.000122881,14.4193,-14.952,-0.000118503,12.0855,3.90799)"><stop offset="0" style="stop-color:rgb(238,238,236);stop-opacity:0.7"/><stop offset="1" style="stop-color:rgb(186,189,182);stop-opacity:0.7"/></linearGradient>
        <linearGradient id="_Linear4" x1="0" y1="0" x2="1" y2="0" gradientUnits="userSpaceOnUse" gradientTransform="matrix(-1.4945e-05,13.6957,-14.2017,-1.44126e-05,12.8326,4.63157)"><stop offset="0" style="stop-color:rgb(136,138,133);stop-opacity:0.7"/><stop offset="1" style="stop-color:rgb(85,87,83);stop-opacity:0.7"/></linearGradient>
        <linearGradient id="_Linear5" x1="0" y1="0" x2="1" y2="0" gradientUnits="userSpaceOnUse" gradientTransform="matrix(4.57987e-17,0.721301,-0.747949,4.41669e-17,12.3194,3.9108)"><stop offset="0" style="stop-color:rgb(186,189,182);stop-opacity:0"/><stop offset="0.25" style="stop-color:rgb(186,189,182);stop-opacity:0"/><stop offset="1" style="stop-color:rgb(136,138,133);stop-opacity:0.35"/></linearGradient>
        <linearGradient id="_Linear6" x1="0" y1="0" x2="1" y2="-0.000268168" gradientUnits="userSpaceOnUse" gradientTransform="matrix(29.1313,-0.100113,0.103812,28.0934,-1.2193,5.833)"><stop offset="0" style="stop-color:rgb(254,235,214);stop-opacity:0"/><stop offset="0" style="stop-color:rgb(254,235,214);stop-opacity:0"/><stop offset="0.46" style="stop-color:rgb(245,245,245);stop-opacity:0.37"/><stop offset="1" style="stop-color:rgb(245,245,245);stop-opacity:0"/></linearGradient>
        <linearGradient id="_Linear7" x1="0" y1="0" x2="1" y2="0.000147623" gradientUnits="userSpaceOnUse" gradientTransform="matrix(0.0236013,10.7905,-11.1892,0.0227604,17.3173,12.5716)"><stop offset="0" style="stop-color:rgb(136,138,133);stop-opacity:1"/><stop offset="1" style="stop-color:rgb(85,87,83);stop-opacity:0"/></linearGradient>
        <linearGradient id="_Linear8" x1="0" y1="0" x2="1" y2="-3.4645e-06" gradientUnits="userSpaceOnUse" gradientTransform="matrix(-0.000703601,13.7072,-14.2136,-0.000678533,17.318,13.2762)"><stop offset="0" style="stop-color:white;stop-opacity:0.6"/><stop offset="1" style="stop-color:white;stop-opacity:0"/></linearGradient>
        <linearGradient id="_Linear9" x1="0" y1="0" x2="1" y2="0" gradientUnits="userSpaceOnUse" gradientTransform="matrix(-0.000122881,14.4193,-14.952,-0.000118503,18.0651,15.4411)"><stop offset="0" style="stop-color:rgb(143,179,217);stop-opacity:0.9"/><stop offset="1" style="stop-color:rgb(52,101,164);stop-opacity:0.9"/></linearGradient>
        <linearGradient id="_Linear10" x1="0" y1="0" x2="1" y2="0" gradientUnits="userSpaceOnUse" gradientTransform="matrix(-1.4945e-05,13.6957,-14.2017,-1.44126e-05,18.8122,16.1647)"><stop offset="0" style="stop-color:rgb(52,101,164);stop-opacity:0.9"/><stop offset="1" style="stop-color:rgb(32,74,135);stop-opacity:0.9"/></linearGradient>
        <linearGradient id="_Linear11" x1="0" y1="0" x2="1" y2="0" gradientUnits="userSpaceOnUse" gradientTransform="matrix(4.57987e-17,0.721301,-0.747949,4.41669e-17,18.299,15.444)"><stop offset="0" style="stop-color:rgb(114,159,207);stop-opacity:0"/><stop offset="0.25" style="stop-color:rgb(114,159,207);stop-opacity:0"/><stop offset="1" style="stop-color:rgb(52,101,164);stop-opacity:0.5"/></linearGradient>
        <linearGradient id="_Linear12" x1="0" y1="0" x2="1" y2="-0.000268168" gradientUnits="userSpaceOnUse" gradientTransform="matrix(29.1313,-0.100113,0.103812,28.0934,4.76033,17.3662)"><stop offset="0" style="stop-color:rgb(254,235,214);stop-opacity:0"/><stop offset="0" style="stop-color:rgb(254,235,214);stop-opacity:0"/><stop offset="0.46" style="stop-color:rgb(245,245,245);stop-opacity:0.53"/><stop offset="1" style="stop-color:rgb(245,245,245);stop-opacity:0"/></linearGradient>
        <linearGradient id="_Linear13" x1="0" y1="0" x2="1" y2="0" gradientUnits="userSpaceOnUse" gradientTransform="matrix(2.20095,3.71956,-3.71956,2.20095,18.3026,17.2776)"><stop offset="0" style="stop-color:rgb(138,138,138);stop-opacity:1"/><stop offset="1" style="stop-color:rgb(72,72,72);stop-opacity:1"/></linearGradient>
        <linearGradient id="_Linear14" x1="0" y1="0" x2="1" y2="0" gradientUnits="userSpaceOnUse" gradientTransform="matrix(1.78077,-1.94728,1.94728,1.78077,21.6263,23.7939)"><stop offset="0" style="stop-color:rgb(125,125,125);stop-opacity:1"/><stop offset="0.5" style="stop-color:rgb(177,177,177);stop-opacity:1"/><stop offset="1" style="stop-color:rgb(104,104,104);stop-opacity:1"/></linearGradient>
        <linearGradient id="_Linear15" x1="0" y1="0" x2="1" y2="0" gradientUnits="userSpaceOnUse" gradientTransform="matrix(-0.502783,7.76236,-7.76236,-0.502783,14.0956,10.803)"><stop offset="0" style="stop-color:white;stop-opacity:1"/><stop offset="0.5" style="stop-color:white;stop-opacity:0.22"/><stop offset="1" style="stop-color:white;stop-opacity:1"/></linearGradient>
        <radialGradient id="_Radial16" cx="0" cy="0" r="1" gradientUnits="userSpaceOnUse" gradientTransform="matrix(5.96448,0,0,-5.96448,14.3427,16.6781)"><stop offset="0" style="stop-color:rgb(114,159,207);stop-opacity:0.21"/><stop offset="1" style="stop-color:rgb(114,159,207);stop-opacity:0.68"/></radialGradient>
        <radialGradient id="_Radial17" cx="0" cy="0" r="1" gradientUnits="userSpaceOnUse" gradientTransform="matrix(8.85994,0,0,-7.69482,12.1397,10.7194)"><stop offset="0" style="stop-color:white;stop-opacity:0.83"/><stop offset="1" style="stop-color:white;stop-opacity:0.21"/></radialGradient>
    </defs>
</svg>
