<?xml version="1.0" encoding="UTF-8" standalone="no"?>
<!DOCTYPE svg PUBLIC "-//W3C//DTD SVG 1.1//EN" "http://www.w3.org/Graphics/SVG/1.1/DTD/svg11.dtd">
<svg width="30px" height="30px" version="1.1" xmlns="http://www.w3.org/2000/svg" xmlns:xlink="http://www.w3.org/1999/xlink" xml:space="preserve" xmlns:serif="http://www.serif.com/" style="fill-rule:evenodd;clip-rule:evenodd;">
    <g id="window">
        <path d="M29.952,29.532C29.952,29.79 29.822,30 29.662,30L0.29,30C0.13,30 0,29.79 0,29.532L0,0.468C0,0.21 0.13,0 0.29,0L29.662,0C29.822,0 29.952,0.21 29.952,0.468L29.952,29.532Z" style="fill:url(#_Linear1);fill-rule:nonzero;stroke:rgb(7,0,1);stroke-width:0.06px;"/>
        <rect x="0.387" y="6.272" width="29.179" height="23.26" style="fill:rgb(59,59,59);stroke:rgb(35,24,21);stroke-width:0.12px;"/>
        <path d="M28.976,4.974L28.408,4.974L27.493,3.449C27.466,3.402 27.435,3.337 27.402,3.251L27.391,3.251C27.372,3.294 27.341,3.36 27.297,3.449L26.354,4.974L25.784,4.974L27.114,2.971L25.889,0.99L26.46,0.99L27.272,2.39C27.325,2.483 27.372,2.575 27.413,2.668L27.424,2.668C27.483,2.546 27.535,2.449 27.579,2.379L28.425,0.99L28.959,0.99L27.71,2.965L28.976,4.974Z" style="fill:white;fill-rule:nonzero;"/>
        <g id="title-text" serif:id="title text">
            <path d="M2.393,4.414L1,4.414L1,1.109L1.314,1.109L1.314,4.064L2.393,4.064L2.393,4.414Z" style="fill:white;fill-rule:nonzero;"/>
            <path d="M3.566,4.469C3.282,4.469 3.056,4.359 2.887,4.139C2.718,3.918 2.633,3.626 2.633,3.262C2.633,2.865 2.721,2.555 2.897,2.333C3.073,2.11 3.311,1.998 3.611,1.998C3.897,1.998 4.12,2.107 4.28,2.323C4.441,2.54 4.521,2.84 4.521,3.225C4.521,3.601 4.435,3.903 4.262,4.129C4.089,4.356 3.857,4.469 3.566,4.469ZM3.588,2.316C3.391,2.316 3.235,2.399 3.12,2.564C3.005,2.729 2.948,2.957 2.948,3.248C2.948,3.527 3.006,3.748 3.122,3.909C3.238,4.071 3.394,4.151 3.588,4.151C3.787,4.151 3.94,4.072 4.046,3.914C4.153,3.756 4.206,3.53 4.206,3.238C4.206,2.943 4.153,2.716 4.046,2.556C3.94,2.396 3.787,2.316 3.588,2.316Z" style="fill:white;fill-rule:nonzero;"/>
            <path d="M6.012,2.436C5.959,2.386 5.881,2.36 5.78,2.36C5.649,2.36 5.539,2.436 5.451,2.588C5.363,2.741 5.319,2.948 5.319,3.211L5.319,4.414L5.012,4.414L5.012,2.054L5.319,2.054L5.319,2.54L5.327,2.54C5.37,2.374 5.437,2.245 5.527,2.152C5.617,2.059 5.718,2.012 5.829,2.012C5.909,2.012 5.97,2.023 6.012,2.044L6.012,2.436Z" style="fill:white;fill-rule:nonzero;"/>
            <path d="M7.887,3.328L6.533,3.328C6.538,3.591 6.595,3.794 6.705,3.937C6.815,4.08 6.966,4.151 7.159,4.151C7.375,4.151 7.573,4.064 7.754,3.889L7.754,4.243C7.586,4.394 7.363,4.469 7.086,4.469C6.815,4.469 6.602,4.362 6.447,4.148C6.292,3.933 6.215,3.632 6.215,3.243C6.215,2.876 6.299,2.576 6.468,2.345C6.638,2.114 6.848,1.998 7.099,1.998C7.35,1.998 7.544,2.098 7.681,2.298C7.819,2.498 7.887,2.775 7.887,3.13L7.887,3.328ZM7.573,3.008C7.571,2.79 7.529,2.62 7.444,2.499C7.36,2.377 7.243,2.316 7.093,2.316C6.948,2.316 6.825,2.38 6.724,2.508C6.623,2.635 6.56,2.802 6.537,3.008L7.573,3.008Z" style="fill:white;fill-rule:nonzero;"/>
            <path d="M11.075,4.414L10.768,4.414L10.768,3.059C10.768,2.797 10.736,2.608 10.67,2.492C10.604,2.375 10.494,2.316 10.339,2.316C10.208,2.316 10.097,2.39 10.005,2.538C9.913,2.685 9.867,2.862 9.867,3.068L9.867,4.414L9.56,4.414L9.56,3.013C9.56,2.548 9.415,2.316 9.124,2.316C8.989,2.316 8.878,2.386 8.79,2.525C8.703,2.664 8.659,2.845 8.659,3.068L8.659,4.414L8.352,4.414L8.352,2.054L8.659,2.054L8.659,2.427L8.667,2.427C8.803,2.141 9.001,1.998 9.262,1.998C9.393,1.998 9.508,2.043 9.605,2.133C9.702,2.223 9.769,2.341 9.805,2.487C9.948,2.161 10.16,1.998 10.442,1.998C10.864,1.998 11.075,2.319 11.075,2.96L11.075,4.414Z" style="fill:white;fill-rule:nonzero;"/>
            <rect x="12.748" y="1.109" width="0.315" height="3.306" style="fill:white;"/>
            <path d="M14.043,4.073L14.035,4.073L14.035,5.5L13.728,5.5L13.728,2.054L14.035,2.054L14.035,2.469L14.043,2.469C14.194,2.155 14.415,1.998 14.706,1.998C14.953,1.998 15.146,2.104 15.285,2.315C15.423,2.527 15.492,2.81 15.492,3.165C15.492,3.56 15.414,3.876 15.258,4.113C15.102,4.351 14.889,4.469 14.618,4.469C14.369,4.469 14.177,4.337 14.043,4.073ZM14.035,3.121L14.035,3.451C14.035,3.646 14.087,3.811 14.19,3.947C14.293,4.083 14.424,4.151 14.582,4.151C14.768,4.151 14.914,4.064 15.019,3.889C15.125,3.713 15.178,3.47 15.178,3.158C15.178,2.895 15.128,2.689 15.03,2.54C14.931,2.391 14.798,2.316 14.629,2.316C14.45,2.316 14.307,2.393 14.198,2.546C14.089,2.699 14.035,2.89 14.035,3.121Z" style="fill:white;fill-rule:nonzero;"/>
            <path d="M15.867,4.329L15.867,3.923C16.034,4.075 16.219,4.151 16.42,4.151C16.689,4.151 16.824,4.041 16.824,3.819C16.824,3.756 16.813,3.703 16.79,3.659C16.767,3.615 16.735,3.577 16.696,3.543C16.657,3.509 16.61,3.479 16.557,3.452C16.504,3.425 16.447,3.397 16.386,3.368C16.301,3.326 16.226,3.284 16.162,3.242C16.098,3.2 16.044,3.152 16.001,3.099C15.958,3.046 15.925,2.986 15.904,2.918C15.882,2.85 15.871,2.771 15.871,2.681C15.871,2.57 15.891,2.472 15.933,2.387C15.974,2.301 16.029,2.23 16.098,2.172C16.166,2.115 16.245,2.071 16.333,2.042C16.421,2.013 16.511,1.998 16.605,1.998C16.771,1.998 16.92,2.034 17.051,2.104L17.051,2.487C16.91,2.373 16.748,2.316 16.564,2.316C16.506,2.316 16.455,2.324 16.408,2.341C16.362,2.357 16.323,2.379 16.29,2.409C16.256,2.438 16.231,2.473 16.213,2.513C16.195,2.554 16.186,2.599 16.186,2.648C16.186,2.71 16.195,2.761 16.213,2.803C16.231,2.844 16.257,2.881 16.292,2.913C16.327,2.946 16.37,2.975 16.42,3.001C16.47,3.027 16.526,3.056 16.59,3.086C16.675,3.126 16.751,3.167 16.819,3.21C16.886,3.252 16.944,3.3 16.991,3.353C17.038,3.406 17.075,3.467 17.101,3.536C17.126,3.605 17.139,3.687 17.139,3.782C17.139,3.899 17.118,4.001 17.076,4.087C17.034,4.173 16.979,4.244 16.909,4.301C16.839,4.358 16.758,4.4 16.667,4.428C16.576,4.456 16.48,4.469 16.38,4.469C16.183,4.469 16.012,4.423 15.867,4.329Z" style="fill:white;fill-rule:nonzero;"/>
            <path d="M19.162,4.414L18.855,4.414L18.855,4.041L18.847,4.041C18.72,4.326 18.523,4.469 18.255,4.469C17.798,4.469 17.57,4.134 17.57,3.464L17.57,2.054L17.875,2.054L17.875,3.404C17.875,3.902 18.03,4.151 18.34,4.151C18.49,4.151 18.613,4.083 18.71,3.947C18.806,3.811 18.855,3.633 18.855,3.414L18.855,2.054L19.162,2.054L19.162,4.414Z" style="fill:white;fill-rule:nonzero;"/>
            <path d="M22.506,4.414L22.199,4.414L22.199,3.059C22.199,2.797 22.166,2.608 22.1,2.492C22.035,2.375 21.924,2.316 21.77,2.316C21.638,2.316 21.527,2.39 21.435,2.538C21.343,2.685 21.298,2.862 21.298,3.068L21.298,4.414L20.99,4.414L20.99,3.013C20.99,2.548 20.845,2.316 20.554,2.316C20.419,2.316 20.308,2.386 20.22,2.525C20.133,2.664 20.089,2.845 20.089,3.068L20.089,4.414L19.782,4.414L19.782,2.054L20.089,2.054L20.089,2.427L20.097,2.427C20.233,2.141 20.431,1.998 20.692,1.998C20.824,1.998 20.938,2.043 21.035,2.133C21.133,2.223 21.199,2.341 21.236,2.487C21.378,2.161 21.59,1.998 21.873,1.998C22.295,1.998 22.506,2.319 22.506,2.96L22.506,4.414Z" style="fill:white;fill-rule:nonzero;"/>
            <path d="M24.594,2.054L23.83,4.414L23.528,4.414L22.802,2.054L23.139,2.054L23.626,3.769C23.662,3.895 23.685,4.005 23.693,4.098L23.701,4.098C23.713,3.98 23.733,3.873 23.761,3.778L24.27,2.054L24.594,2.054Z" style="fill:white;fill-rule:nonzero;"/>
        </g>
    </g>
    <g id="window1" serif:id="window">
        <path d="M21.5,21.568C21.5,21.691 21.415,21.791 21.311,21.791L2.189,21.791C2.085,21.791 2,21.691 2,21.568L2,7.723C2,7.6 2.085,7.5 2.189,7.5L21.311,7.5C21.415,7.5 21.5,7.6 21.5,7.723L21.5,21.568Z" style="fill:url(#_Linear2);fill-rule:nonzero;stroke:rgb(7,0,1);stroke-width:0.03px;"/>
        <rect x="2.252" y="10.488" width="18.997" height="11.08" style="fill:rgb(244,242,241);stroke:rgb(35,24,21);stroke-width:0.07px;"/>
        <path d="M20.865,9.869L20.495,9.869L19.899,9.143C19.882,9.121 19.861,9.09 19.84,9.049L19.833,9.049C19.82,9.069 19.8,9.101 19.771,9.143L19.158,9.869L18.786,9.869L19.652,8.915L18.855,7.972L19.227,7.972L19.755,8.638C19.79,8.683 19.82,8.727 19.847,8.771L19.854,8.771C19.893,8.713 19.926,8.667 19.955,8.633L20.506,7.972L20.854,7.972L20.04,8.912L20.865,9.869Z" style="fill:white;fill-rule:nonzero;"/>
        <g id="title-text1" serif:id="title text">
            <path d="M3.558,9.603L2.651,9.603L2.651,8.028L2.855,8.028L2.855,9.436L3.558,9.436L3.558,9.603Z" style="fill:white;fill-rule:nonzero;"/>
            <path d="M4.322,9.629C4.137,9.629 3.99,9.576 3.88,9.472C3.77,9.366 3.714,9.227 3.714,9.054C3.714,8.865 3.771,8.717 3.886,8.611C4.001,8.505 4.156,8.452 4.351,8.452C4.537,8.452 4.682,8.504 4.786,8.607C4.891,8.71 4.943,8.853 4.943,9.036C4.943,9.215 4.887,9.359 4.775,9.467C4.662,9.575 4.511,9.629 4.322,9.629ZM4.336,8.603C4.208,8.603 4.106,8.643 4.031,8.721C3.956,8.8 3.919,8.909 3.919,9.047C3.919,9.18 3.957,9.285 4.033,9.362C4.108,9.439 4.21,9.477 4.336,9.477C4.465,9.477 4.565,9.44 4.634,9.364C4.704,9.289 4.738,9.182 4.738,9.042C4.738,8.902 4.704,8.794 4.634,8.718C4.565,8.641 4.465,8.603 4.336,8.603Z" style="fill:white;fill-rule:nonzero;"/>
            <path d="M5.914,8.66C5.88,8.637 5.829,8.624 5.763,8.624C5.678,8.624 5.606,8.66 5.549,8.733C5.492,8.806 5.463,8.904 5.463,9.03L5.463,9.603L5.263,9.603L5.263,8.478L5.463,8.478L5.463,8.71L5.468,8.71C5.496,8.631 5.54,8.569 5.598,8.525C5.657,8.481 5.723,8.458 5.795,8.458C5.847,8.458 5.887,8.464 5.914,8.474L5.914,8.66Z" style="fill:white;fill-rule:nonzero;"/>
            <path d="M7.135,9.085L6.253,9.085C6.257,9.211 6.294,9.307 6.365,9.375C6.437,9.444 6.535,9.477 6.661,9.477C6.801,9.477 6.93,9.436 7.048,9.353L7.048,9.521C6.939,9.593 6.794,9.629 6.613,9.629C6.437,9.629 6.298,9.578 6.197,9.476C6.096,9.373 6.046,9.23 6.046,9.045C6.046,8.87 6.101,8.727 6.211,8.617C6.322,8.507 6.458,8.452 6.622,8.452C6.785,8.452 6.911,8.499 7.001,8.595C7.09,8.69 7.135,8.822 7.135,8.991L7.135,9.085ZM6.93,8.933C6.929,8.829 6.902,8.748 6.846,8.69C6.792,8.632 6.715,8.603 6.618,8.603C6.523,8.603 6.443,8.634 6.378,8.695C6.312,8.755 6.271,8.835 6.256,8.933L6.93,8.933Z" style="fill:white;fill-rule:nonzero;"/>
            <path d="M9.21,9.603L9.01,9.603L9.01,8.957C9.01,8.832 8.99,8.742 8.947,8.687C8.904,8.631 8.832,8.603 8.731,8.603C8.646,8.603 8.574,8.638 8.514,8.709C8.454,8.779 8.424,8.863 8.424,8.961L8.424,9.603L8.224,9.603L8.224,8.935C8.224,8.714 8.13,8.603 7.94,8.603C7.852,8.603 7.78,8.637 7.723,8.703C7.666,8.769 7.637,8.855 7.637,8.961L7.637,9.603L7.438,9.603L7.438,8.478L7.637,8.478L7.637,8.656L7.643,8.656C7.731,8.52 7.86,8.452 8.03,8.452C8.115,8.452 8.19,8.473 8.253,8.516C8.316,8.559 8.36,8.615 8.383,8.685C8.477,8.529 8.615,8.452 8.798,8.452C9.073,8.452 9.21,8.605 9.21,8.91L9.21,9.603Z" style="fill:white;fill-rule:nonzero;"/>
            <rect x="10.299" y="8.028" width="0.205" height="1.575" style="fill:white;"/>
            <path d="M11.143,9.44L11.137,9.44L11.137,10.12L10.938,10.12L10.938,8.478L11.137,8.478L11.137,8.676L11.143,8.676C11.241,8.527 11.385,8.452 11.574,8.452C11.735,8.452 11.861,8.502 11.951,8.603C12.041,8.704 12.086,8.839 12.086,9.008C12.086,9.196 12.035,9.346 11.934,9.459C11.832,9.573 11.693,9.629 11.517,9.629C11.355,9.629 11.23,9.566 11.143,9.44ZM11.137,8.987L11.137,9.144C11.137,9.237 11.171,9.315 11.238,9.38C11.305,9.445 11.391,9.477 11.493,9.477C11.615,9.477 11.71,9.436 11.778,9.353C11.847,9.269 11.882,9.153 11.882,9.004C11.882,8.879 11.849,8.781 11.785,8.71C11.721,8.639 11.634,8.603 11.524,8.603C11.408,8.603 11.314,8.64 11.243,8.713C11.173,8.786 11.137,8.877 11.137,8.987Z" style="fill:white;fill-rule:nonzero;"/>
            <path d="M12.33,9.562L12.33,9.369C12.439,9.441 12.559,9.477 12.69,9.477C12.865,9.477 12.953,9.425 12.953,9.319C12.953,9.289 12.946,9.264 12.931,9.243C12.916,9.222 12.895,9.204 12.87,9.188C12.844,9.172 12.814,9.157 12.779,9.144C12.745,9.132 12.708,9.118 12.668,9.104C12.613,9.084 12.564,9.064 12.522,9.044C12.48,9.024 12.445,9.001 12.417,8.976C12.389,8.951 12.368,8.922 12.354,8.89C12.34,8.858 12.333,8.82 12.333,8.777C12.333,8.724 12.346,8.678 12.373,8.637C12.4,8.596 12.436,8.562 12.48,8.535C12.525,8.507 12.576,8.487 12.633,8.473C12.691,8.459 12.749,8.452 12.811,8.452C12.919,8.452 13.016,8.469 13.101,8.502L13.101,8.685C13.009,8.63 12.904,8.603 12.784,8.603C12.746,8.603 12.713,8.607 12.682,8.615C12.652,8.623 12.627,8.633 12.605,8.648C12.583,8.661 12.567,8.678 12.555,8.697C12.544,8.717 12.538,8.738 12.538,8.761C12.538,8.791 12.544,8.815 12.555,8.835C12.567,8.855 12.584,8.872 12.607,8.888C12.63,8.903 12.658,8.917 12.69,8.93C12.723,8.942 12.759,8.956 12.801,8.97C12.856,8.989 12.906,9.009 12.95,9.029C12.993,9.049 13.031,9.072 13.062,9.097C13.092,9.122 13.117,9.152 13.133,9.184C13.15,9.217 13.158,9.256 13.158,9.302C13.158,9.357 13.145,9.406 13.117,9.447C13.09,9.488 13.054,9.522 13.008,9.549C12.963,9.576 12.91,9.596 12.851,9.609C12.792,9.623 12.729,9.629 12.664,9.629C12.536,9.629 12.424,9.607 12.33,9.562Z" style="fill:white;fill-rule:nonzero;"/>
            <path d="M14.475,9.603L14.275,9.603L14.275,9.425L14.27,9.425C14.188,9.561 14.059,9.629 13.885,9.629C13.587,9.629 13.439,9.469 13.439,9.15L13.439,8.478L13.637,8.478L13.637,9.122C13.637,9.359 13.738,9.477 13.94,9.477C14.038,9.477 14.118,9.445 14.181,9.38C14.243,9.315 14.275,9.231 14.275,9.126L14.275,8.478L14.475,8.478L14.475,9.603Z" style="fill:white;fill-rule:nonzero;"/>
            <path d="M16.652,9.603L16.452,9.603L16.452,8.957C16.452,8.832 16.431,8.742 16.388,8.687C16.346,8.631 16.273,8.603 16.173,8.603C16.087,8.603 16.015,8.638 15.955,8.709C15.895,8.779 15.866,8.863 15.866,8.961L15.866,9.603L15.665,9.603L15.665,8.935C15.665,8.714 15.571,8.603 15.382,8.603C15.294,8.603 15.221,8.637 15.164,8.703C15.107,8.769 15.079,8.855 15.079,8.961L15.079,9.603L14.879,9.603L14.879,8.478L15.079,8.478L15.079,8.656L15.084,8.656C15.173,8.52 15.301,8.452 15.471,8.452C15.557,8.452 15.632,8.473 15.695,8.516C15.758,8.559 15.801,8.615 15.826,8.685C15.918,8.529 16.056,8.452 16.24,8.452C16.515,8.452 16.652,8.605 16.652,8.91L16.652,9.603Z" style="fill:white;fill-rule:nonzero;"/>
            <path d="M18.012,8.478L17.514,9.603L17.318,9.603L16.845,8.478L17.064,8.478L17.382,9.295C17.405,9.355 17.42,9.408 17.425,9.452L17.43,9.452C17.438,9.396 17.451,9.345 17.469,9.3L17.801,8.478L18.012,8.478Z" style="fill:white;fill-rule:nonzero;"/>
        </g>
    </g>
    <g id="window2" serif:id="window">
        <path d="M28.299,27.777C28.299,27.9 28.214,28 28.11,28L8.988,28C8.884,28 8.799,27.9 8.799,27.777L8.799,13.932C8.799,13.809 8.884,13.709 8.988,13.709L28.11,13.709C28.214,13.709 28.299,13.809 28.299,13.932L28.299,27.777Z" style="fill:url(#_Linear3);fill-rule:nonzero;stroke:rgb(7,0,1);stroke-width:0.03px;"/>
        <rect x="9.051" y="16.697" width="18.997" height="11.08" style="fill:rgb(244,242,241);stroke:rgb(35,24,21);stroke-width:0.07px;"/>
        <path d="M27.663,16.079L27.294,16.079L26.698,15.352C26.68,15.33 26.66,15.299 26.639,15.258L26.632,15.258C26.619,15.279 26.599,15.31 26.57,15.352L25.956,16.079L25.585,16.079L26.451,15.125L25.654,14.181L26.025,14.181L26.554,14.848C26.589,14.892 26.619,14.936 26.646,14.98L26.653,14.98C26.691,14.922 26.725,14.876 26.754,14.843L27.305,14.181L27.652,14.181L26.839,15.122L27.663,16.079Z" style="fill:white;fill-rule:nonzero;"/>
        <g id="title-text2" serif:id="title text">
            <path d="M10.357,15.812L9.45,15.812L9.45,14.238L9.654,14.238L9.654,15.645L10.357,15.645L10.357,15.812Z" style="fill:white;fill-rule:nonzero;"/>
            <path d="M11.12,15.838C10.936,15.838 10.788,15.786 10.678,15.681C10.568,15.576 10.513,15.437 10.513,15.263C10.513,15.074 10.57,14.926 10.685,14.821C10.8,14.715 10.954,14.661 11.15,14.661C11.336,14.661 11.481,14.713 11.585,14.816C11.69,14.919 11.742,15.062 11.742,15.246C11.742,15.425 11.686,15.569 11.574,15.676C11.461,15.784 11.31,15.838 11.12,15.838ZM11.135,14.813C11.007,14.813 10.905,14.852 10.83,14.931C10.755,15.009 10.718,15.118 10.718,15.257C10.718,15.39 10.756,15.495 10.831,15.571C10.907,15.649 11.009,15.687 11.135,15.687C11.264,15.687 11.364,15.649 11.433,15.574C11.503,15.499 11.537,15.391 11.537,15.252C11.537,15.111 11.503,15.003 11.433,14.927C11.364,14.851 11.264,14.813 11.135,14.813Z" style="fill:white;fill-rule:nonzero;"/>
            <path d="M12.713,14.87C12.678,14.846 12.628,14.834 12.562,14.834C12.477,14.834 12.405,14.87 12.348,14.942C12.29,15.015 12.262,15.114 12.262,15.239L12.262,15.812L12.062,15.812L12.062,14.688L12.262,14.688L12.262,14.919L12.267,14.919C12.295,14.84 12.339,14.779 12.397,14.735C12.456,14.69 12.522,14.668 12.594,14.668C12.646,14.668 12.686,14.673 12.713,14.683L12.713,14.87Z" style="fill:white;fill-rule:nonzero;"/>
            <path d="M13.934,15.295L13.052,15.295C13.055,15.42 13.092,15.517 13.164,15.585C13.236,15.653 13.334,15.687 13.46,15.687C13.6,15.687 13.729,15.645 13.847,15.562L13.847,15.731C13.738,15.803 13.592,15.838 13.412,15.838C13.236,15.838 13.097,15.787 12.996,15.685C12.895,15.583 12.845,15.44 12.845,15.254C12.845,15.079 12.9,14.936 13.01,14.826C13.12,14.716 13.257,14.661 13.421,14.661C13.584,14.661 13.71,14.709 13.8,14.804C13.889,14.899 13.934,15.031 13.934,15.2L13.934,15.295ZM13.729,15.142C13.728,15.038 13.701,14.957 13.645,14.9C13.591,14.842 13.514,14.813 13.417,14.813C13.322,14.813 13.242,14.843 13.176,14.904C13.111,14.965 13.07,15.044 13.055,15.142L13.729,15.142Z" style="fill:white;fill-rule:nonzero;"/>
            <path d="M16.009,15.812L15.809,15.812L15.809,15.167C15.809,15.042 15.788,14.952 15.745,14.896C15.703,14.841 15.631,14.813 15.53,14.813C15.445,14.813 15.372,14.848 15.313,14.918C15.253,14.988 15.223,15.073 15.223,15.171L15.223,15.812L15.023,15.812L15.023,15.145C15.023,14.923 14.928,14.813 14.739,14.813C14.651,14.813 14.579,14.846 14.522,14.912C14.465,14.978 14.436,15.065 14.436,15.171L14.436,15.812L14.236,15.812L14.236,14.688L14.436,14.688L14.436,14.866L14.441,14.866C14.53,14.729 14.659,14.661 14.829,14.661C14.914,14.661 14.989,14.683 15.052,14.725C15.115,14.768 15.159,14.825 15.182,14.894C15.275,14.739 15.413,14.661 15.597,14.661C15.872,14.661 16.009,14.814 16.009,15.119L16.009,15.812Z" style="fill:white;fill-rule:nonzero;"/>
            <rect x="17.098" y="14.238" width="0.205" height="1.575" style="fill:white;"/>
            <path d="M17.941,15.65L17.936,15.65L17.936,16.329L17.736,16.329L17.736,14.688L17.936,14.688L17.936,14.886L17.941,14.886C18.04,14.736 18.184,14.661 18.373,14.661C18.534,14.661 18.66,14.712 18.75,14.812C18.84,14.913 18.885,15.048 18.885,15.217C18.885,15.405 18.834,15.556 18.732,15.669C18.631,15.782 18.492,15.838 18.316,15.838C18.154,15.838 18.029,15.775 17.941,15.65ZM17.936,15.196L17.936,15.353C17.936,15.446 17.97,15.525 18.037,15.59C18.104,15.654 18.189,15.687 18.292,15.687C18.413,15.687 18.509,15.645 18.577,15.562C18.646,15.478 18.68,15.362 18.68,15.214C18.68,15.088 18.648,14.99 18.584,14.919C18.52,14.848 18.433,14.813 18.323,14.813C18.206,14.813 18.113,14.849 18.042,14.922C17.971,14.995 17.936,15.086 17.936,15.196Z" style="fill:white;fill-rule:nonzero;"/>
            <path d="M19.129,15.772L19.129,15.578C19.238,15.651 19.358,15.687 19.489,15.687C19.664,15.687 19.752,15.634 19.752,15.529C19.752,15.499 19.745,15.473 19.73,15.452C19.715,15.431 19.694,15.413 19.669,15.397C19.643,15.381 19.613,15.367 19.578,15.354C19.544,15.341 19.507,15.328 19.467,15.314C19.411,15.294 19.363,15.274 19.321,15.254C19.279,15.234 19.244,15.211 19.216,15.186C19.188,15.16 19.167,15.132 19.153,15.099C19.139,15.067 19.132,15.029 19.132,14.987C19.132,14.934 19.145,14.887 19.172,14.846C19.199,14.806 19.234,14.772 19.279,14.744C19.324,14.717 19.375,14.696 19.432,14.682C19.49,14.668 19.548,14.661 19.609,14.661C19.717,14.661 19.814,14.678 19.9,14.712L19.9,14.894C19.808,14.84 19.703,14.813 19.583,14.813C19.545,14.813 19.512,14.816 19.481,14.825C19.451,14.832 19.426,14.843 19.404,14.857C19.382,14.871 19.366,14.887 19.354,14.906C19.342,14.926 19.337,14.947 19.337,14.971C19.337,15 19.342,15.025 19.354,15.045C19.366,15.064 19.383,15.082 19.406,15.097C19.428,15.113 19.456,15.127 19.489,15.139C19.522,15.151 19.558,15.165 19.6,15.179C19.655,15.198 19.704,15.218 19.749,15.239C19.792,15.259 19.83,15.281 19.861,15.307C19.891,15.332 19.915,15.361 19.932,15.394C19.949,15.427 19.957,15.466 19.957,15.511C19.957,15.567 19.943,15.615 19.916,15.656C19.889,15.697 19.853,15.731 19.807,15.758C19.762,15.785 19.709,15.805 19.65,15.819C19.591,15.832 19.528,15.838 19.463,15.838C19.335,15.838 19.223,15.816 19.129,15.772Z" style="fill:white;fill-rule:nonzero;"/>
            <path d="M21.274,15.812L21.074,15.812L21.074,15.634L21.069,15.634C20.986,15.77 20.858,15.838 20.684,15.838C20.386,15.838 20.238,15.679 20.238,15.359L20.238,14.688L20.436,14.688L20.436,15.331C20.436,15.568 20.537,15.687 20.739,15.687C20.837,15.687 20.917,15.654 20.98,15.59C21.042,15.525 21.074,15.44 21.074,15.336L21.074,14.688L21.274,14.688L21.274,15.812Z" style="fill:white;fill-rule:nonzero;"/>
            <path d="M23.451,15.812L23.251,15.812L23.251,15.167C23.251,15.042 23.23,14.952 23.187,14.896C23.145,14.841 23.072,14.813 22.972,14.813C22.886,14.813 22.814,14.848 22.754,14.918C22.694,14.988 22.665,15.073 22.665,15.171L22.665,15.812L22.464,15.812L22.464,15.145C22.464,14.923 22.37,14.813 22.18,14.813C22.092,14.813 22.02,14.846 21.963,14.912C21.906,14.978 21.878,15.065 21.878,15.171L21.878,15.812L21.678,15.812L21.678,14.688L21.878,14.688L21.878,14.866L21.883,14.866C21.971,14.729 22.1,14.661 22.27,14.661C22.356,14.661 22.43,14.683 22.494,14.725C22.557,14.768 22.6,14.825 22.624,14.894C22.717,14.739 22.855,14.661 23.039,14.661C23.314,14.661 23.451,14.814 23.451,15.119L23.451,15.812Z" style="fill:white;fill-rule:nonzero;"/>
            <path d="M24.811,14.688L24.313,15.812L24.117,15.812L23.644,14.688L23.863,14.688L24.18,15.505C24.204,15.565 24.219,15.617 24.224,15.662L24.229,15.662C24.237,15.605 24.25,15.554 24.268,15.509L24.6,14.688L24.811,14.688Z" style="fill:white;fill-rule:nonzero;"/>
        </g>
    </g>
    <defs>
        <linearGradient id="_Linear1" x1="0" y1="0" x2="1" y2="0" gradientUnits="userSpaceOnUse" gradientTransform="matrix(1.83698e-15,-30.0001,30.0001,1.83698e-15,14.976,30)"><stop offset="0" style="stop-color:rgb(62,77,151);stop-opacity:1"/><stop offset="0.11" style="stop-color:rgb(39,68,146);stop-opacity:1"/><stop offset="0.2" style="stop-color:rgb(21,64,143);stop-opacity:1"/><stop offset="0.25" style="stop-color:rgb(26,67,145);stop-opacity:1"/><stop offset="0.4" style="stop-color:rgb(35,74,149);stop-opacity:1"/><stop offset="0.71" style="stop-color:rgb(33,81,154);stop-opacity:1"/><stop offset="0.77" style="stop-color:rgb(33,82,155);stop-opacity:1"/><stop offset="0.81" style="stop-color:rgb(35,83,156);stop-opacity:1"/><stop offset="0.85" style="stop-color:rgb(59,96,165);stop-opacity:1"/><stop offset="0.89" style="stop-color:rgb(44,88,159);stop-opacity:1"/><stop offset="0.94" style="stop-color:rgb(77,108,172);stop-opacity:1"/><stop offset="0.98" style="stop-color:rgb(97,125,183);stop-opacity:1"/><stop offset="0.99" style="stop-color:rgb(123,150,199);stop-opacity:1"/><stop offset="1" style="stop-color:rgb(154,178,217);stop-opacity:1"/><stop offset="1" style="stop-color:rgb(155,179,217);stop-opacity:1"/></linearGradient>
        <linearGradient id="_Linear2" x1="0" y1="0" x2="1" y2="0" gradientUnits="userSpaceOnUse" gradientTransform="matrix(1.19595e-15,-14.2906,19.5313,8.75049e-16,11.75,21.7906)"><stop offset="0" style="stop-color:rgb(62,77,151);stop-opacity:1"/><stop offset="0.11" style="stop-color:rgb(39,68,146);stop-opacity:1"/><stop offset="0.2" style="stop-color:rgb(21,64,143);stop-opacity:1"/><stop offset="0.25" style="stop-color:rgb(26,67,145);stop-opacity:1"/><stop offset="0.4" style="stop-color:rgb(35,74,149);stop-opacity:1"/><stop offset="0.71" style="stop-color:rgb(33,81,154);stop-opacity:1"/><stop offset="0.77" style="stop-color:rgb(33,82,155);stop-opacity:1"/><stop offset="0.81" style="stop-color:rgb(35,83,156);stop-opacity:1"/><stop offset="0.85" style="stop-color:rgb(59,96,165);stop-opacity:1"/><stop offset="0.89" style="stop-color:rgb(44,88,159);stop-opacity:1"/><stop offset="0.94" style="stop-color:rgb(77,108,172);stop-opacity:1"/><stop offset="0.98" style="stop-color:rgb(97,125,183);stop-opacity:1"/><stop offset="0.99" style="stop-color:rgb(123,150,199);stop-opacity:1"/><stop offset="1" style="stop-color:rgb(154,178,217);stop-opacity:1"/><stop offset="1" style="stop-color:rgb(155,179,217);stop-opacity:1"/></linearGradient>
        <linearGradient id="_Linear3" x1="0" y1="0" x2="1" y2="0" gradientUnits="userSpaceOnUse" gradientTransform="matrix(1.19595e-15,-14.2906,19.5313,8.75049e-16,18.5489,28)"><stop offset="0" style="stop-color:rgb(62,77,151);stop-opacity:1"/><stop offset="0.11" style="stop-color:rgb(39,68,146);stop-opacity:1"/><stop offset="0.2" style="stop-color:rgb(21,64,143);stop-opacity:1"/><stop offset="0.25" style="stop-color:rgb(26,67,145);stop-opacity:1"/><stop offset="0.4" style="stop-color:rgb(35,74,149);stop-opacity:1"/><stop offset="0.71" style="stop-color:rgb(33,81,154);stop-opacity:1"/><stop offset="0.77" style="stop-color:rgb(33,82,155);stop-opacity:1"/><stop offset="0.81" style="stop-color:rgb(35,83,156);stop-opacity:1"/><stop offset="0.85" style="stop-color:rgb(59,96,165);stop-opacity:1"/><stop offset="0.89" style="stop-color:rgb(44,88,159);stop-opacity:1"/><stop offset="0.94" style="stop-color:rgb(77,108,172);stop-opacity:1"/><stop offset="0.98" style="stop-color:rgb(97,125,183);stop-opacity:1"/><stop offset="0.99" style="stop-color:rgb(123,150,199);stop-opacity:1"/><stop offset="1" style="stop-color:rgb(154,178,217);stop-opacity:1"/><stop offset="1" style="stop-color:rgb(155,179,217);stop-opacity:1"/></linearGradient>
    </defs>
</svg>
