<?xml version="1.0" encoding="UTF-8" standalone="no"?><!DOCTYPE svg PUBLIC "-//W3C//DTD SVG 1.1//EN" "http://www.w3.org/Graphics/SVG/1.1/DTD/svg11.dtd"><svg width="100%" height="100%" viewBox="0 0 32 32" version="1.1" xmlns="http://www.w3.org/2000/svg" xmlns:xlink="http://www.w3.org/1999/xlink" xml:space="preserve" xmlns:serif="http://www.serif.com/" style="fill-rule:evenodd;clip-rule:evenodd;"><path id="arrow" d="M4.821,23.428l2.431,2.91l2.017,2.688l0.715,0.974l0.751,-1.054l2.106,-2.593l2.451,-2.815l-1.646,0.925l-1.646,0.921l0.072,-6.58l-1.963,-0.02l-1.965,-0.02l-0.036,3.29l-0.036,3.286l-1.626,-0.954l-1.625,-0.958Z" style="fill:#4a0;fill-rule:nonzero;"/><path id="arrow1" serif:id="arrow" d="M27,12.702l-2.96,2.298l1.94,-3.064l-3.35,-0.019l-3.351,-0.02l0.032,-3.69l3.35,0.019l3.351,0.02l-1.888,-3.086l2.873,2.29l2.65,1.967l1.075,0.701l-0.99,0.676l-2.732,1.908Z" style="fill:#4a0;fill-rule:nonzero;"/><rect id="box" x="4" y="3" width="13" height="14" style="fill:#0ff;stroke:url(#_Radial1);stroke-width:1.23px;"/><defs><radialGradient id="_Radial1" cx="0" cy="0" r="1" gradientUnits="userSpaceOnUse" gradientTransform="matrix(-1.30115e-06,-21,26.5149,0.000714303,18.3,18.1667)"><stop offset="0" style="stop-color:#000;stop-opacity:1"/><stop offset="1" style="stop-color:#000;stop-opacity:0"/></radialGradient></defs></svg>