<?xml version="1.0" encoding="UTF-8" standalone="no"?><!DOCTYPE svg PUBLIC "-//W3C//DTD SVG 1.1//EN" "http://www.w3.org/Graphics/SVG/1.1/DTD/svg11.dtd"><svg width="100%" height="100%" viewBox="0 0 16 18" version="1.1" xmlns="http://www.w3.org/2000/svg" xmlns:xlink="http://www.w3.org/1999/xlink" xml:space="preserve" xmlns:serif="http://www.serif.com/" style="fill-rule:evenodd;clip-rule:evenodd;stroke-linejoin:round;stroke-miterlimit:2;"><path id="path1380" d="M0,17.98l0,-17.98l15.987,0l-0,17.98l-15.987,-0Zm4.993,-0.985l-0,-7.009l-4.009,0l0,7.009l4.009,-0Zm5.004,-0l0,-7.009l-4.008,0l-0,7.009l4.008,-0Zm5.005,-0l0,-7.009l-4.008,0l-0,7.009l4.008,-0Zm0,-8.005l0,-3l-14.018,-0l0,3l14.018,0Zm-10.009,-3.996l-0,-4.009l-4.009,-0l0,4.009l4.009,-0Zm5.005,-0l-0,-4.009l-4.009,-0l-0,4.009l4.009,-0Zm5.004,-0l0,-4.009l-4.008,-0l-0,4.009l4.008,-0Z" style="fill:#f00;fill-rule:nonzero;"/></svg>