<?xml version="1.0" encoding="UTF-8" standalone="no"?>
<!DOCTYPE svg PUBLIC "-//W3C//DTD SVG 1.1//EN" "http://www.w3.org/Graphics/SVG/1.1/DTD/svg11.dtd">
<svg width="30px" height="30px" version="1.1" xmlns="http://www.w3.org/2000/svg" xmlns:xlink="http://www.w3.org/1999/xlink" xml:space="preserve" xmlns:serif="http://www.serif.com/" style="fill-rule:evenodd;clip-rule:evenodd;stroke-linejoin:round;stroke-miterlimit:2;">
    <path id="path1380" d="M0,29.967L0,0L29.976,0L29.976,29.967L0,29.967ZM9.362,28.325L9.362,16.643L1.845,16.643L1.845,28.325L9.362,28.325ZM18.744,28.325L18.744,16.643L11.229,16.643L11.229,28.325L18.744,28.325ZM28.129,28.325L28.129,16.643L20.614,16.643L20.614,28.325L28.129,28.325ZM28.129,14.983L28.129,9.983L1.845,9.983L1.845,14.983L28.129,14.983ZM9.362,8.323L9.362,1.642L1.845,1.642L1.845,8.323L9.362,8.323ZM18.746,8.323L18.746,1.642L11.229,1.642L11.229,8.323L18.746,8.323ZM28.129,8.323L28.129,1.642L20.614,1.642L20.614,8.323L28.129,8.323Z" style="fill:rgb(255,0,0);fill-rule:nonzero;"/>
</svg>
