<?xml version="1.0" encoding="UTF-8" standalone="no"?>
<!-- Created with Inkscape (http://www.inkscape.org/) -->

<svg
   version="1.1"
   id="svg1014"
   width="29.333332"
   height="29.333332"
   viewBox="0 0 29.333332 29.333332"
   sodipodi:docname="flex_grid_sizer.svg"
   inkscape:version="1.1.2 (b8e25be833, 2022-02-05)"
   xmlns:inkscape="http://www.inkscape.org/namespaces/inkscape"
   xmlns:sodipodi="http://sodipodi.sourceforge.net/DTD/sodipodi-0.dtd"
   xmlns="http://www.w3.org/2000/svg"
   xmlns:svg="http://www.w3.org/2000/svg">
  <defs
     id="defs1018" />
  <sodipodi:namedview
     id="namedview1016"
     pagecolor="#ffffff"
     bordercolor="#666666"
     borderopacity="1.0"
     inkscape:pageshadow="2"
     inkscape:pageopacity="0.0"
     inkscape:pagecheckerboard="0"
     showgrid="false"
     inkscape:zoom="63.988639"
     inkscape:cx="14.658852"
     inkscape:cy="14.666666"
     inkscape:window-width="2664"
     inkscape:window-height="2086"
     inkscape:window-x="503"
     inkscape:window-y="44"
     inkscape:window-maximized="1"
     inkscape:current-layer="g1020" />
  <g
     inkscape:groupmode="layer"
     inkscape:label="Image"
     id="g1020">
    <g
       id="g1246">
      <path
         style="fill:#d0d0d0;fill-opacity:1;stroke-width:1.33333"
         d="M 3.9999998,14.666666 V 2.6666665 H 14.666666 25.333332 V 14.666666 26.666665 H 14.666666 3.9999998 Z m 6.6666662,6 V 15.999999 H 7.9999996 5.3333331 v 4.666667 4.666666 h 2.6666665 2.6666664 z m 6.666667,0 v -4.666667 h -2.666667 -2.666667 v 4.666667 4.666666 h 2.666667 2.666667 z m 6.666666,0 v -4.666667 h -2.666667 -2.666666 v 4.666667 4.666666 h 2.666666 2.666667 z m 0,-8 v -2 H 14.666666 5.3333331 v 2 2 h 9.3333329 9.333333 z M 10.666666,6.6666664 V 3.9999998 H 7.9999996 5.3333331 v 2.6666666 2.6666665 h 2.6666665 2.6666664 z m 6.666667,0 V 3.9999998 h -2.666667 -2.666667 v 2.6666666 2.6666665 h 2.666667 2.666667 z m 6.666666,0 V 3.9999998 h -2.666667 -2.666666 v 2.6666666 2.6666665 h 2.666666 2.666667 z"
         id="path1258" />
      <path
         style="fill:#b9b9b9;fill-opacity:1;stroke-width:1.33333"
         d="M 3.9999998,14.666666 V 2.6666665 H 14.666666 25.333332 V 14.666666 26.666665 H 14.666666 3.9999998 Z m 6.6666662,6 V 15.999999 H 7.9999996 5.3333331 v 4.666667 4.666666 h 2.6666665 2.6666664 z m 6.666667,0 v -4.666667 h -2.666667 -2.666667 v 4.666667 4.666666 h 2.666667 2.666667 z m 6.666666,0 v -4.666667 h -2.666667 -2.666666 v 4.666667 4.666666 h 2.666666 2.666667 z m 0,-8 v -2 H 14.666666 5.3333331 v 2 2 h 9.3333329 9.333333 z M 10.666666,6.6666664 V 3.9999998 H 7.9999996 5.3333331 v 2.6666666 2.6666665 h 2.6666665 2.6666664 z m 6.666667,0 V 3.9999998 h -2.666667 -2.666667 v 2.6666666 2.6666665 h 2.666667 2.666667 z m 6.666666,0 V 3.9999998 h -2.666667 -2.666666 v 2.6666666 2.6666665 h 2.666666 2.666667 z"
         id="path1256" />
      <path
         style="fill:#a3a3a3;fill-opacity:1;stroke-width:1.33333"
         d="M 3.9999998,14.666666 V 2.6666665 H 14.666666 25.333332 V 14.666666 26.666665 H 14.666666 3.9999998 Z m 6.6666662,6 V 15.999999 H 7.9999996 5.3333331 v 4.666667 4.666666 h 2.6666665 2.6666664 z m 6.666667,0 v -4.666667 h -2.666667 -2.666667 v 4.666667 4.666666 h 2.666667 2.666667 z m 6.666666,0 v -4.666667 h -2.666667 -2.666666 v 4.666667 4.666666 h 2.666666 2.666667 z m 0,-8 v -2 H 14.666666 5.3333331 v 2 2 h 9.3333329 9.333333 z M 10.666666,6.6666664 V 3.9999998 H 7.9999996 5.3333331 v 2.6666666 2.6666665 h 2.6666665 2.6666664 z m 6.666667,0 V 3.9999998 h -2.666667 -2.666667 v 2.6666666 2.6666665 h 2.666667 2.666667 z m 6.666666,0 V 3.9999998 h -2.666667 -2.666666 v 2.6666666 2.6666665 h 2.666666 2.666667 z"
         id="path1254" />
      <path
         style="fill:#8c8c8c;fill-opacity:1;stroke-width:1.33333"
         d="M 3.9999998,14.666666 V 2.6666665 H 14.666666 25.333332 V 14.666666 26.666665 H 14.666666 3.9999998 Z m 6.6666662,6 V 15.999999 H 7.9999996 5.3333331 v 4.666667 4.666666 h 2.6666665 2.6666664 z m 6.666667,0 v -4.666667 h -2.666667 -2.666667 v 4.666667 4.666666 h 2.666667 2.666667 z m 6.666666,0 v -4.666667 h -2.666667 -2.666666 v 4.666667 4.666666 h 2.666666 2.666667 z m 0,-8 v -2 H 14.666666 5.3333331 v 2 2 h 9.3333329 9.333333 z M 10.666666,6.6666664 V 3.9999998 H 7.9999996 5.3333331 v 2.6666666 2.6666665 h 2.6666665 2.6666664 z m 6.666667,0 V 3.9999998 h -2.666667 -2.666667 v 2.6666666 2.6666665 h 2.666667 2.666667 z m 6.666666,0 V 3.9999998 h -2.666667 -2.666666 v 2.6666666 2.6666665 h 2.666666 2.666667 z"
         id="path1252" />
      <path
         style="fill:#767676;fill-opacity:1;stroke-width:1.33333"
         d="M 3.9999998,14.666666 V 2.6666665 H 14.666666 25.333332 V 14.666666 26.666665 H 14.666666 3.9999998 Z m 6.6666662,6 V 15.999999 H 7.9999996 5.3333331 v 4.666667 4.666666 h 2.6666665 2.6666664 z m 6.666667,0 v -4.666667 h -2.666667 -2.666667 v 4.666667 4.666666 h 2.666667 2.666667 z m 6.666666,0 v -4.666667 h -2.666667 -2.666666 v 4.666667 4.666666 h 2.666666 2.666667 z m 0,-8 v -2 H 14.666666 5.3333331 v 2 2 h 9.3333329 9.333333 z M 10.666666,6.6666664 V 3.9999998 H 7.9999996 5.3333331 v 2.6666666 2.6666665 h 2.6666665 2.6666664 z m 6.666667,0 V 3.9999998 h -2.666667 -2.666667 v 2.6666666 2.6666665 h 2.666667 2.666667 z m 6.666666,0 V 3.9999998 h -2.666667 -2.666666 v 2.6666666 2.6666665 h 2.666666 2.666667 z"
         id="path1250" />
      <path
         style="fill:#606060;fill-opacity:1;stroke-width:1.33333"
         d="M 3.9999998,14.666666 V 2.6666665 H 14.666666 25.333332 V 14.666666 26.666665 H 14.666666 3.9999998 Z m 6.6666662,6 V 15.999999 H 7.9999996 5.3333331 v 4.666667 4.666666 h 2.6666665 2.6666664 z m 6.666667,0 v -4.666667 h -2.666667 -2.666667 v 4.666667 4.666666 h 2.666667 2.666667 z m 6.666666,0 v -4.666667 h -2.666667 -2.666666 v 4.666667 4.666666 h 2.666666 2.666667 z m 0,-8 v -2 H 14.666666 5.3333331 v 2 2 h 9.3333329 9.333333 z M 10.666666,6.6666664 V 3.9999998 H 7.9999996 5.3333331 v 2.6666666 2.6666665 h 2.6666665 2.6666664 z m 6.666667,0 V 3.9999998 h -2.666667 -2.666667 v 2.6666666 2.6666665 h 2.666667 2.666667 z m 6.666666,0 V 3.9999998 h -2.666667 -2.666666 v 2.6666666 2.6666665 h 2.666666 2.666667 z"
         id="path1248" />
    </g>
    <path
       style="fill:#ff0000;stroke-width:0.0156524"
       d="M 4.0085241,14.666666 V 2.6801633 H 14.666666 25.324808 V 14.666666 26.653169 H 14.666666 4.0085241 Z m 6.6574319,6.001065 V 15.995027 H 7.9936065 5.3212571 v 4.672704 4.672705 h 2.6723494 2.6723495 z m 6.673059,0 v -4.672704 h -2.672349 -2.672349 v 4.672704 4.672705 h 2.672349 2.672349 z m 6.67306,0 v -4.672704 h -2.672349 -2.67235 v 4.672704 4.672705 h 2.67235 2.672349 z m 0,-8.00142 V 10.665956 H 14.666666 5.3212571 v 2.000355 2.000355 h 9.3454089 9.345409 z M 10.665956,6.6652457 V 3.9928963 H 7.9936065 5.3212571 V 6.6652457 9.337595 h 2.6723494 2.6723495 z m 6.673059,0 V 3.9928963 H 14.666666 11.994317 V 6.6652457 9.337595 h 2.672349 2.672349 z m 6.67306,0 V 3.9928963 h -2.672349 -2.67235 V 6.6652457 9.337595 h 2.67235 2.672349 z"
       id="path1380" />
  </g>
</svg>
