<?xml version="1.0" encoding="UTF-8" standalone="no"?><!DOCTYPE svg PUBLIC "-//W3C//DTD SVG 1.1//EN" "http://www.w3.org/Graphics/SVG/1.1/DTD/svg11.dtd"><svg width="100%" height="100%" viewBox="0 0 32 32" version="1.1" xmlns="http://www.w3.org/2000/svg" xmlns:xlink="http://www.w3.org/1999/xlink" xml:space="preserve" xmlns:serif="http://www.serif.com/" style="fill-rule:evenodd;clip-rule:evenodd;stroke-linejoin:round;stroke-miterlimit:2;"><g id="Empty-Rect" serif:id="Empty Rect" transform="matrix(1,0,0,0.167284,0,26.6469)"><rect x="0" y="16.553" width="32" height="15.447" style="fill:none;"/></g><g transform="matrix(0.0457142,0,0,0.0457142,-2.28571,-2.2871)"><path d="M464.125,193.25l229.376,0c30.995,0 56.5,25.505 56.5,56.5c0,0.083 -0.001,0.167 -0.001,0.25l0,387.5c0,30.995 -25.505,56.5 -56.5,56.5l-587.5,0c-30.806,-0.273 -56.001,-25.693 -56,-56.5l0,-475c0.273,-30.806 25.693,-56.001 56.5,-56l143.5,0c47.75,0 52.875,14.25 84.25,55.625c25.875,34.25 88.875,31.125 129.875,31.125Z" style="fill:#eeb40b;fill-rule:nonzero;"/><path d="M107.125,693.5l586.375,0c30.807,0.001 56.227,-25.194 56.5,-56l0,-344c-0.273,-30.806 -25.693,-56.001 -56.5,-56l-527.875,0c-30.995,0 -56.5,25.505 -56.5,56.5l0,343.5c-0.016,3.015 -0.267,6.024 -0.75,9c-2.276,14.043 -14.524,24.466 -28.75,24.466c-14.226,0 -26.474,-10.423 -28.75,-24.466c4.547,27.29 28.586,47.376 56.25,47Z" style="fill:#0dcaf2;fill-rule:nonzero;"/><g><clipPath id="_clip1"><path d="M107.125,693.5l586.375,0c30.807,0.001 56.227,-25.194 56.5,-56l0,-344c-0.273,-30.806 -25.693,-56.001 -56.5,-56l-527.875,0c-30.995,0 -56.5,25.505 -56.5,56.5l0,343.5c-0.016,3.015 -0.267,6.024 -0.75,9c-2.276,14.043 -14.524,24.466 -28.75,24.466c-14.226,0 -26.474,-10.423 -28.75,-24.466c4.547,27.29 28.586,47.376 56.25,47Z"/></clipPath><g clip-path="url(#_clip1)"><path d="M50.966,647.03c2.494,13.775 14.612,23.936 28.659,23.936c14.226,0 26.474,-10.423 28.75,-24.466c0.483,-2.976 0.734,-5.985 0.75,-9l0,-343.5c0,-30.995 25.505,-56.5 56.5,-56.5l527.875,0c30.807,-0.001 56.227,25.194 56.5,56l0,344c-0.273,30.806 -25.693,56.001 -56.5,56l-586.375,0c-27.484,0.374 -51.391,-19.45 -56.159,-46.47Z" style="fill:#feed57;"/></g></g></g></svg>