<?xml version="1.0" encoding="UTF-8" standalone="no"?>
<!DOCTYPE svg PUBLIC "-//W3C//DTD SVG 1.1//EN" "http://www.w3.org/Graphics/SVG/1.1/DTD/svg11.dtd">
<svg width="30px" height="30px" version="1.1" xmlns="http://www.w3.org/2000/svg" xmlns:xlink="http://www.w3.org/1999/xlink" xml:space="preserve" xmlns:serif="http://www.serif.com/" style="fill-rule:evenodd;clip-rule:evenodd;stroke-linejoin:round;stroke-miterlimit:2;">
    <g id="folder">
        <path d="M17.748,6.138L27.579,6.138C28.907,6.138 30,7.231 30,8.559L30,25.177C30,26.506 28.907,27.599 27.579,27.599L2.4,27.599C1.08,27.587 0,26.498 0,25.177L0,4.82C0.012,3.5 1.101,2.42 2.421,2.42L8.571,2.42C10.618,2.42 10.837,3.031 12.182,4.804C13.291,6.272 15.991,6.138 17.748,6.138Z" style="fill:rgb(241,155,13);fill-rule:nonzero;"/>
        <path d="M2.448,27.577L27.579,27.577C28.899,27.577 29.988,26.497 30,25.177L30,10.434C29.988,9.114 28.899,8.034 27.579,8.034L4.955,8.034C3.627,8.034 2.534,9.127 2.534,10.456L2.534,25.177C2.533,25.306 2.522,25.435 2.502,25.563C2.404,26.165 1.879,26.611 1.27,26.611C0.66,26.611 0.135,26.165 0.037,25.563C0.232,26.733 1.263,27.593 2.448,27.577Z" style="fill:rgb(0,10,59);fill-rule:nonzero;"/>
        <g>
            <g>
                <g>
                    <g>
                        <clipPath id="_clip1">
                            <path d="M2.448,27.577L27.579,27.577C28.899,27.577 29.988,26.497 30,25.177L30,10.434C29.988,9.114 28.899,8.034 27.579,8.034L4.955,8.034C3.627,8.034 2.534,9.127 2.534,10.456L2.534,25.177C2.533,25.306 2.522,25.435 2.502,25.563C2.404,26.165 1.879,26.611 1.27,26.611C0.66,26.611 0.135,26.165 0.037,25.563C0.232,26.733 1.263,27.593 2.448,27.577Z"/>
                        </clipPath>
                        <g clip-path="url(#_clip1)">
                            <path d="M0.041,25.586C0.148,26.176 0.668,26.611 1.27,26.611C1.879,26.611 2.404,26.165 2.502,25.563C2.522,25.435 2.533,25.306 2.534,25.177L2.534,10.456C2.534,9.127 3.627,8.034 4.955,8.034L27.579,8.034C28.899,8.034 29.988,9.114 30,10.434L30,25.177C29.988,26.497 28.899,27.577 27.579,27.577L2.448,27.577C1.27,27.593 0.246,26.744 0.041,25.586Z" style="fill:rgb(251,193,25);"/>
                        </g>
                    </g>
                </g>
            </g>
        </g>
    </g>
    <rect id="outer" x="0" y="0" width="28.125" height="28.125" style="fill:none;"/>
</svg>
