<?xml version="1.0" encoding="UTF-8" standalone="no"?>
<!DOCTYPE svg PUBLIC "-//W3C//DTD SVG 1.1//EN" "http://www.w3.org/Graphics/SVG/1.1/DTD/svg11.dtd">
<svg width="30px" height="30px" version="1.1" xmlns="http://www.w3.org/2000/svg" xmlns:xlink="http://www.w3.org/1999/xlink" xml:space="preserve" xmlns:serif="http://www.serif.com/" style="fill-rule:evenodd;clip-rule:evenodd;stroke-linecap:round;stroke-linejoin:round;">
    <g id="Layer-1" serif:id="Layer 1">
        <path id="rect1314" d="M29.695,1.325L29.695,28.637C29.695,29.188 29.247,29.636 28.696,29.636L1.309,29.636C0.758,29.636 0.31,29.188 0.31,28.637L0.31,1.325C0.31,0.774 0.758,0.326 1.309,0.326L28.696,0.326C29.247,0.326 29.695,0.774 29.695,1.325Z" style="fill:white;stroke:rgb(128,128,128);stroke-width:0.72px;"/>
        <path id="text2044" d="M25.754,25.21C23.851,25.051 23.651,25.053 23.217,22.733L20.078,4.75L19.479,4.75L9.527,20.636C6.889,24.862 6.264,24.956 4.929,25.21L4.929,25.974L11.464,25.974L11.464,25.21C9.761,25.051 9.494,25.148 9.494,24.354C9.494,23.75 9.594,23.464 10.161,22.384L12.065,19.177L19.41,19.177L20.078,22.956C20.111,23.242 20.145,23.528 20.145,23.782C20.145,24.989 19.968,25.02 17.831,25.21L17.831,25.974L25.754,25.974L25.754,25.21M12.766,17.65L17.774,9.389L19.243,17.65L12.766,17.65" style="fill:url(#_Linear1);fill-rule:nonzero;"/>
        <path id="path4633" d="M3.543,3.045L3.543,3.045C3.543,2.858 3.381,2.704 3.184,2.704C2.988,2.704 2.826,2.858 2.826,3.045L2.826,3.045C2.826,3.232 2.988,3.386 3.184,3.386C3.381,3.386 3.543,3.232 3.543,3.045Z" style="fill:rgb(136,138,133);fill-rule:nonzero;"/>
        <path id="path4635" d="M3.543,4.409L3.543,4.408C3.543,4.221 3.381,4.068 3.184,4.068C2.988,4.068 2.826,4.221 2.826,4.408L2.826,4.409C2.826,4.596 2.988,4.75 3.184,4.75C3.381,4.75 3.543,4.596 3.543,4.409Z" style="fill:rgb(136,138,133);fill-rule:nonzero;"/>
        <path id="path4639" d="M3.543,7.136L3.543,7.136C3.543,6.949 3.381,6.795 3.184,6.795C2.988,6.795 2.826,6.949 2.826,7.136L2.826,7.136C2.826,7.323 2.988,7.477 3.184,7.477C3.381,7.477 3.543,7.323 3.543,7.136Z" style="fill:rgb(136,138,133);fill-rule:nonzero;"/>
        <path id="path4641" d="M3.543,8.5L3.543,8.499C3.543,8.312 3.381,8.159 3.184,8.159C2.988,8.159 2.826,8.312 2.826,8.499L2.826,8.5C2.826,8.687 2.988,8.841 3.184,8.841C3.381,8.841 3.543,8.687 3.543,8.5Z" style="fill:rgb(136,138,133);fill-rule:nonzero;"/>
        <path id="path4643" d="M3.543,9.864L3.543,9.863C3.543,9.676 3.381,9.522 3.184,9.522C2.988,9.522 2.826,9.676 2.826,9.863L2.826,9.864C2.826,10.051 2.988,10.205 3.184,10.205C3.381,10.205 3.543,10.051 3.543,9.864Z" style="fill:rgb(136,138,133);fill-rule:nonzero;"/>
        <path id="path4645" d="M3.543,11.227L3.543,11.227C3.543,11.04 3.381,10.886 3.184,10.886C2.988,10.886 2.826,11.04 2.826,11.227L2.826,11.227C2.826,11.414 2.988,11.568 3.184,11.568C3.381,11.568 3.543,11.414 3.543,11.227Z" style="fill:rgb(136,138,133);fill-rule:nonzero;"/>
        <path id="path4647" d="M3.543,12.591L3.543,12.59C3.543,12.403 3.381,12.249 3.184,12.249C2.988,12.249 2.826,12.403 2.826,12.59L2.826,12.591C2.826,12.778 2.988,12.932 3.184,12.932C3.381,12.932 3.543,12.778 3.543,12.591Z" style="fill:rgb(136,138,133);fill-rule:nonzero;"/>
        <path id="path4649" d="M3.543,13.955L3.543,13.954C3.543,13.767 3.381,13.613 3.184,13.613C2.988,13.613 2.826,13.767 2.826,13.954L2.826,13.955C2.826,14.142 2.988,14.295 3.184,14.295C3.381,14.295 3.543,14.142 3.543,13.955Z" style="fill:rgb(136,138,133);fill-rule:nonzero;"/>
        <path id="path4651" d="M3.543,15.318L3.543,15.318C3.543,15.131 3.381,14.977 3.184,14.977C2.988,14.977 2.826,15.131 2.826,15.318L2.826,15.318C2.826,15.505 2.988,15.659 3.184,15.659C3.381,15.659 3.543,15.505 3.543,15.318Z" style="fill:rgb(136,138,133);fill-rule:nonzero;"/>
        <path id="path4653" d="M3.543,16.682L3.543,16.681C3.543,16.494 3.381,16.34 3.184,16.34C2.988,16.34 2.826,16.494 2.826,16.681L2.826,16.682C2.826,16.869 2.988,17.023 3.184,17.023C3.381,17.023 3.543,16.869 3.543,16.682Z" style="fill:rgb(136,138,133);fill-rule:nonzero;"/>
        <path id="path4655" d="M3.543,18.046L3.543,18.045C3.543,17.858 3.381,17.704 3.184,17.704C2.988,17.704 2.826,17.858 2.826,18.045L2.826,18.046C2.826,18.233 2.988,18.386 3.184,18.386C3.381,18.386 3.543,18.233 3.543,18.046Z" style="fill:rgb(136,138,133);fill-rule:nonzero;"/>
        <path id="path4657" d="M3.543,19.409L3.543,19.409C3.543,19.222 3.381,19.068 3.184,19.068C2.988,19.068 2.826,19.222 2.826,19.409L2.826,19.409C2.826,19.596 2.988,19.75 3.184,19.75C3.381,19.75 3.543,19.596 3.543,19.409Z" style="fill:rgb(136,138,133);fill-rule:nonzero;"/>
        <path id="path4659" d="M3.543,20.773L3.543,20.772C3.543,20.585 3.381,20.431 3.184,20.431C2.988,20.431 2.826,20.585 2.826,20.772L2.826,20.773C2.826,20.96 2.988,21.114 3.184,21.114C3.381,21.114 3.543,20.96 3.543,20.773Z" style="fill:rgb(136,138,133);fill-rule:nonzero;"/>
        <path id="path4661" d="M3.543,22.137L3.543,22.136C3.543,21.949 3.381,21.795 3.184,21.795C2.988,21.795 2.826,21.949 2.826,22.136L2.826,22.137C2.826,22.324 2.988,22.477 3.184,22.477C3.381,22.477 3.543,22.324 3.543,22.137Z" style="fill:rgb(136,138,133);fill-rule:nonzero;"/>
        <path id="path4663" d="M3.543,5.773L3.543,5.772C3.543,5.585 3.381,5.431 3.184,5.431C2.988,5.431 2.826,5.585 2.826,5.772L2.826,5.773C2.826,5.96 2.988,6.114 3.184,6.114C3.381,6.114 3.543,5.96 3.543,5.773Z" style="fill:rgb(136,138,133);fill-rule:nonzero;"/>
        <path id="path4665" d="M3.543,23.5L3.543,23.5C3.543,23.313 3.381,23.159 3.184,23.159C2.988,23.159 2.826,23.313 2.826,23.5L2.826,23.5C2.826,23.687 2.988,23.841 3.184,23.841C3.381,23.841 3.543,23.687 3.543,23.5Z" style="fill:rgb(136,138,133);fill-rule:nonzero;"/>
        <path id="path4667" d="M3.543,24.864L3.543,24.863C3.543,24.676 3.381,24.522 3.184,24.522C2.988,24.522 2.826,24.676 2.826,24.863L2.826,24.864C2.826,25.051 2.988,25.205 3.184,25.205C3.381,25.205 3.543,25.051 3.543,24.864Z" style="fill:rgb(136,138,133);fill-rule:nonzero;"/>
        <path id="path4669" d="M3.543,26.227L3.543,26.227C3.543,26.04 3.381,25.886 3.184,25.886C2.988,25.886 2.826,26.04 2.826,26.227L2.826,26.227C2.826,26.415 2.988,26.568 3.184,26.568C3.381,26.568 3.543,26.415 3.543,26.227Z" style="fill:rgb(136,138,133);fill-rule:nonzero;"/>
        <path id="path4675" d="M1.393,3.045L1.393,3.045C1.393,3.232 1.555,3.386 1.752,3.386C1.948,3.386 2.11,3.232 2.11,3.045L2.11,3.045C2.11,2.858 1.948,2.704 1.752,2.704C1.555,2.704 1.393,2.858 1.393,3.045Z" style="fill:rgb(136,138,133);fill-rule:nonzero;"/>
        <path id="path4679" d="M5.692,3.045L5.692,3.045C5.692,3.232 5.854,3.386 6.05,3.386C6.247,3.386 6.409,3.232 6.409,3.045L6.409,3.045C6.409,2.858 6.247,2.704 6.05,2.704C5.854,2.704 5.692,2.858 5.692,3.045Z" style="fill:rgb(136,138,133);fill-rule:nonzero;"/>
        <path id="path4681" d="M7.125,3.045L7.125,3.045C7.125,3.232 7.287,3.386 7.483,3.386C7.68,3.386 7.842,3.232 7.842,3.045L7.842,3.045C7.842,2.858 7.68,2.704 7.483,2.704C7.287,2.704 7.125,2.858 7.125,3.045Z" style="fill:rgb(136,138,133);fill-rule:nonzero;"/>
        <path id="path4683" d="M8.558,3.045L8.558,3.045C8.558,3.232 8.72,3.386 8.916,3.386C9.113,3.386 9.275,3.232 9.275,3.045L9.275,3.045C9.275,2.858 9.113,2.704 8.916,2.704C8.72,2.704 8.558,2.858 8.558,3.045Z" style="fill:rgb(136,138,133);fill-rule:nonzero;"/>
        <path id="path4685" d="M9.991,3.045L9.991,3.045C9.991,3.232 10.153,3.386 10.349,3.386C10.546,3.386 10.708,3.232 10.708,3.045L10.708,3.045C10.708,2.858 10.546,2.704 10.349,2.704C10.153,2.704 9.991,2.858 9.991,3.045Z" style="fill:rgb(136,138,133);fill-rule:nonzero;"/>
        <path id="path4687" d="M11.424,3.045L11.424,3.045C11.424,3.232 11.586,3.386 11.782,3.386C11.979,3.386 12.141,3.232 12.141,3.045L12.141,3.045C12.141,2.858 11.979,2.704 11.782,2.704C11.586,2.704 11.424,2.858 11.424,3.045Z" style="fill:rgb(136,138,133);fill-rule:nonzero;"/>
        <path id="path4689" d="M12.857,3.045L12.857,3.045C12.857,3.232 13.019,3.386 13.215,3.386C13.412,3.386 13.574,3.232 13.574,3.045L13.574,3.045C13.574,2.858 13.412,2.704 13.215,2.704C13.019,2.704 12.857,2.858 12.857,3.045Z" style="fill:rgb(136,138,133);fill-rule:nonzero;"/>
        <path id="path4691" d="M14.29,3.045L14.29,3.045C14.29,3.232 14.452,3.386 14.648,3.386C14.845,3.386 15.007,3.232 15.007,3.045L15.007,3.045C15.007,2.858 14.845,2.704 14.648,2.704C14.452,2.704 14.29,2.858 14.29,3.045Z" style="fill:rgb(136,138,133);fill-rule:nonzero;"/>
        <path id="path4693" d="M15.723,3.045L15.723,3.045C15.723,3.232 15.885,3.386 16.081,3.386C16.278,3.386 16.44,3.232 16.44,3.045L16.44,3.045C16.44,2.858 16.278,2.704 16.081,2.704C15.885,2.704 15.723,2.858 15.723,3.045Z" style="fill:rgb(136,138,133);fill-rule:nonzero;"/>
        <path id="path4695" d="M17.156,3.045L17.156,3.045C17.156,3.232 17.318,3.386 17.514,3.386C17.711,3.386 17.873,3.232 17.873,3.045L17.873,3.045C17.873,2.858 17.711,2.704 17.514,2.704C17.318,2.704 17.156,2.858 17.156,3.045Z" style="fill:rgb(136,138,133);fill-rule:nonzero;"/>
        <path id="path4697" d="M18.589,3.045L18.589,3.045C18.589,3.232 18.751,3.386 18.947,3.386C19.144,3.386 19.306,3.232 19.306,3.045L19.306,3.045C19.306,2.858 19.144,2.704 18.947,2.704C18.751,2.704 18.589,2.858 18.589,3.045Z" style="fill:rgb(136,138,133);fill-rule:nonzero;"/>
        <path id="path4699" d="M20.022,3.045L20.022,3.045C20.022,3.232 20.184,3.386 20.38,3.386C20.577,3.386 20.739,3.232 20.739,3.045L20.739,3.045C20.739,2.858 20.577,2.704 20.38,2.704C20.184,2.704 20.022,2.858 20.022,3.045Z" style="fill:rgb(136,138,133);fill-rule:nonzero;"/>
        <path id="path4701" d="M21.455,3.045L21.455,3.045C21.455,3.232 21.617,3.386 21.813,3.386C22.01,3.386 22.172,3.232 22.172,3.045L22.172,3.045C22.172,2.858 22.01,2.704 21.813,2.704C21.617,2.704 21.455,2.858 21.455,3.045Z" style="fill:rgb(136,138,133);fill-rule:nonzero;"/>
        <path id="path4703" d="M4.259,3.045L4.259,3.045C4.259,3.232 4.421,3.386 4.617,3.386C4.814,3.386 4.976,3.232 4.976,3.045L4.976,3.045C4.976,2.858 4.814,2.704 4.617,2.704C4.421,2.704 4.259,2.858 4.259,3.045Z" style="fill:rgb(136,138,133);fill-rule:nonzero;"/>
        <path id="path4705" d="M22.888,3.045L22.888,3.045C22.888,3.232 23.05,3.386 23.246,3.386C23.443,3.386 23.605,3.232 23.605,3.045L23.605,3.045C23.605,2.858 23.443,2.704 23.246,2.704C23.05,2.704 22.888,2.858 22.888,3.045Z" style="fill:rgb(136,138,133);fill-rule:nonzero;"/>
        <path id="path4707" d="M24.321,3.045L24.321,3.045C24.321,3.232 24.483,3.386 24.679,3.386C24.876,3.386 25.038,3.232 25.038,3.045L25.038,3.045C25.038,2.858 24.876,2.704 24.679,2.704C24.483,2.704 24.321,2.858 24.321,3.045Z" style="fill:rgb(136,138,133);fill-rule:nonzero;"/>
        <path id="path4709" d="M25.754,3.045L25.754,3.045C25.754,3.232 25.916,3.386 26.112,3.386C26.309,3.386 26.471,3.232 26.471,3.045L26.471,3.045C26.471,2.858 26.309,2.704 26.112,2.704C25.916,2.704 25.754,2.858 25.754,3.045Z" style="fill:rgb(136,138,133);fill-rule:nonzero;"/>
        <path id="path4751" d="M2.826,1.681L2.826,1.682C2.826,1.869 2.988,2.023 3.184,2.023C3.381,2.023 3.543,1.869 3.543,1.682L3.543,1.681C3.543,1.494 3.381,1.34 3.184,1.34C2.988,1.34 2.826,1.494 2.826,1.681Z" style="fill:rgb(136,138,133);fill-rule:nonzero;"/>
        <rect id="rect4753" x="1.026" y="1.008" width="27.953" height="27.978" style="fill:none;stroke:white;stroke-width:0.72px;stroke-linecap:butt;stroke-linejoin:miter;"/>
    </g>
    <g>
        <g>
            <path d="M14.003,6.909C9.827,6.909 6.436,10.3 6.436,14.476C6.436,18.653 9.827,22.039 14.003,22.039C15.789,22.039 17.364,21.33 18.672,20.294C18.569,20.807 18.631,21.341 19.062,21.71L24.685,26.599C25.316,27.149 26.27,27.077 26.819,26.446C27.368,25.809 27.296,24.86 26.665,24.312L21.037,19.422C20.693,19.124 20.272,19.033 19.857,19.093C20.873,17.801 21.581,16.246 21.581,14.476C21.581,10.3 18.195,6.909 14.018,6.909L14.003,6.909ZM13.962,7.54C17.882,7.54 20.781,9.997 20.781,14.358C20.781,18.812 17.8,21.177 13.962,21.177C10.217,21.177 7.144,18.37 7.144,14.358C7.144,10.264 10.13,7.54 13.962,7.54Z" style="fill:rgb(220,220,220);fill-rule:nonzero;stroke:url(#_Linear2);stroke-width:1.03px;stroke-linejoin:miter;"/>
            <path d="M13.988,6.878C9.801,6.878 6.4,10.28 6.4,14.466C6.4,18.658 9.801,22.059 13.988,22.059C15.779,22.059 17.364,21.346 18.662,20.304C18.554,20.818 18.621,21.351 19.046,21.726L24.69,26.63C25.326,27.179 26.281,27.108 26.834,26.477C27.384,25.84 27.312,24.886 26.675,24.332L21.032,19.427C20.688,19.129 20.267,19.043 19.847,19.099C20.868,17.806 21.581,16.241 21.581,14.482C21.581,10.295 18.179,6.894 13.988,6.894M13.952,8.53C17.174,8.53 19.791,11.142 19.791,14.369C19.791,17.591 17.174,20.202 13.952,20.202C10.73,20.202 8.114,17.591 8.114,14.369C8.114,11.142 10.73,8.53 13.952,8.53" style="fill:rgb(220,220,220);fill-rule:nonzero;"/>
        </g>
        <path d="M24.716,26.63C24.469,25.46 25.428,24.163 26.552,24.173L21.032,19.422C19.524,19.391 18.841,20.587 19.092,21.782L24.716,26.63" style="fill:url(#_Linear3);fill-rule:nonzero;"/>
        <circle cx="13.875" cy="14.225" r="7.064" style="fill:none;stroke:url(#_Linear4);stroke-width:0.51px;stroke-linecap:butt;stroke-linejoin:miter;"/>
        <circle cx="13.875" cy="14.302" r="5.961" style="fill:url(#_Radial5);stroke:rgb(48,99,163);stroke-width:0.51px;stroke-linecap:butt;stroke-linejoin:miter;"/>
        <path d="M13.782,9.095C11.11,9.095 8.945,11.255 8.945,13.927C8.945,14.702 9.16,15.41 9.483,16.056C10.125,16.292 10.807,16.457 11.531,16.457C14.701,16.457 17.225,13.963 17.42,10.844C16.533,9.792 15.26,9.095 13.782,9.095" style="fill:url(#_Radial6);fill-rule:nonzero;"/>
        <path d="M26.642,26.31C26.183,26.848 25.377,26.907 24.845,26.442L19.436,21.715C18.902,21.25 18.843,20.434 19.302,19.895C19.762,19.357 20.567,19.297 21.1,19.763L26.509,24.489C27.042,24.955 27.102,25.771 26.642,26.31Z" style="fill:none;stroke:white;stroke-opacity:0.43;stroke-width:0.51px;stroke-linecap:butt;stroke-linejoin:miter;"/>
    </g>
    <rect id="outer" x="0" y="0" width="30" height="30" style="fill:none;"/>
    <defs>
        <linearGradient id="_Linear1" x1="0" y1="0" x2="1" y2="0.0426638" gradientUnits="userSpaceOnUse" gradientTransform="matrix(8.86617,14.1022,-14.8192,8.4372,10.3936,6.79389)"><stop offset="0" style="stop-color:rgb(114,159,207);stop-opacity:1"/><stop offset="1" style="stop-color:rgb(52,101,164);stop-opacity:1"/></linearGradient>
        <linearGradient id="_Linear2" x1="0" y1="0" x2="1" y2="0" gradientUnits="userSpaceOnUse" gradientTransform="matrix(2.20095,3.71956,-3.71956,2.20095,18.3026,17.2776)"><stop offset="0" style="stop-color:rgb(138,138,138);stop-opacity:1"/><stop offset="1" style="stop-color:rgb(72,72,72);stop-opacity:1"/></linearGradient>
        <linearGradient id="_Linear3" x1="0" y1="0" x2="1" y2="0" gradientUnits="userSpaceOnUse" gradientTransform="matrix(1.78077,-1.94728,1.94728,1.78077,21.6263,23.7939)"><stop offset="0" style="stop-color:rgb(125,125,125);stop-opacity:1"/><stop offset="0.5" style="stop-color:rgb(177,177,177);stop-opacity:1"/><stop offset="1" style="stop-color:rgb(104,104,104);stop-opacity:1"/></linearGradient>
        <linearGradient id="_Linear4" x1="0" y1="0" x2="1" y2="0" gradientUnits="userSpaceOnUse" gradientTransform="matrix(-0.502783,7.76236,-7.76236,-0.502783,14.0956,10.803)"><stop offset="0" style="stop-color:white;stop-opacity:1"/><stop offset="0.5" style="stop-color:white;stop-opacity:0.22"/><stop offset="1" style="stop-color:white;stop-opacity:1"/></linearGradient>
        <radialGradient id="_Radial5" cx="0" cy="0" r="1" gradientUnits="userSpaceOnUse" gradientTransform="matrix(5.96448,0,0,-5.96448,14.3427,16.6781)"><stop offset="0" style="stop-color:rgb(114,159,207);stop-opacity:0.21"/><stop offset="1" style="stop-color:rgb(114,159,207);stop-opacity:0.68"/></radialGradient>
        <radialGradient id="_Radial6" cx="0" cy="0" r="1" gradientUnits="userSpaceOnUse" gradientTransform="matrix(8.85994,0,0,-7.69482,12.1397,10.7194)"><stop offset="0" style="stop-color:white;stop-opacity:0.83"/><stop offset="1" style="stop-color:white;stop-opacity:0.21"/></radialGradient>
    </defs>
</svg>
