<?xml version="1.0" encoding="UTF-8" standalone="no"?><!DOCTYPE svg PUBLIC "-//W3C//DTD SVG 1.1//EN" "http://www.w3.org/Graphics/SVG/1.1/DTD/svg11.dtd"><svg width="100%" height="100%" viewBox="0 0 30 30" version="1.1" xmlns="http://www.w3.org/2000/svg" xmlns:xlink="http://www.w3.org/1999/xlink" xml:space="preserve" xmlns:serif="http://www.serif.com/" style="fill-rule:evenodd;clip-rule:evenodd;"><g id="papers" transform="matrix(0.0676727,0,0,0.0655022,-0.475739,0)"><g id="group"><g id="papers1" serif:id="papers"><path id="polygon9" d="M430.54,97.15l10.8,0l0,351.22l-246.48,0l0,-10.8l235.68,0l0,-340.42Z" style="fill:#e2b369;fill-rule:nonzero;"/><path id="polygon11" d="M410.74,77.35l10.8,-0l0,351.22l-246.47,0l0,-10.8l235.67,0l0,-340.42Z" style="fill:#e2b369;fill-rule:nonzero;"/><path id="polygon13" d="M271.51,310.47l95.77,0l0,-9l-95.77,0l0,-20.38l95.77,0l0,-9l-95.77,0l0,-20.38l95.77,0l0,-9l-95.77,0l0,-20.38l95.77,0l0,-9l-95.77,0l0,-47.21l95.77,0l0,-9l-95.77,0l0,-99.57l130.23,0l0,351.22l-246.47,0l0,-39.54l212.01,0l0,-9l-95.77,0l0,-20.38l95.77,0l0,-9l-95.77,0l0,-20.38Z" style="fill:#ffcc73;fill-rule:nonzero;"/><path id="torn_first-page" serif:id="torn_first+page" d="M82.4,15.37l0,60l-60,0l60,-60Z" style="fill:#b3ff80;fill-rule:nonzero;"/><path id="first_page" d="M262.51,9l0,351.23l-246.48,0l0,-275.86l75.37,0l0,-75.37l171.11,0Zm-34.46,307.86l0,-9l-177.56,0l0,9l177.56,0Zm0,-29.38l0,-9l-177.56,0l0,9l177.56,0Zm0,-29.38l0,-9l-177.56,0l0,9l177.56,0Zm0,-29.38l0,-9l-177.56,0l0,9l177.56,0Zm0,-29.38l0,-9l-177.56,0l0,9l177.56,0Zm0,-29.38l0,-9l-177.56,0l0,9l177.56,0Zm0,-56.21l0,-9l-177.56,0l0,9l177.56,0Z" style="fill:#71c837;fill-rule:nonzero;"/><path id="path19" d="M450.34,88.15l-0,369.22l-264.48,0l-0,-19.8l-19.79,0l-0,-19.8l-19.8,0l-0,-48.54l-139.24,0l-0,-291.22l78,-78.01l186.48,0l-0,48.55l139.23,-0l-0,19.8l19.8,-0l-0,19.8l19.8,-0Zm-9,360.22l-0,-351.22l-10.8,0l-0,340.42l-235.68,0l-0,10.8l246.48,0Zm-19.8,-19.8l-0,-351.22l-10.8,0l-0,340.42l-235.67,0l-0,10.8l246.47,0Zm-19.8,-19.8l0,-351.22l-130.23,0l0,99.57l95.77,0l0,9l-95.77,0l0,47.21l95.77,0l0,9l-95.77,0l0,20.38l95.77,0l0,9l-95.77,0l0,20.38l95.77,0l0,9l-95.77,0l0,20.38l95.77,0l0,9l-95.77,0l0,20.38l95.77,0l0,9l-95.77,0l0,20.38l95.77,0l0,9l-212.01,0l0,39.54l246.47,0Zm-139.23,-48.54l0,-351.23l-171.11,0l0,75.37l-75.37,0l0,275.86l246.48,0Zm-180.11,-284.86l0,-60l-60,60l60,0Z" style="fill-rule:nonzero;"/><rect id="rect21" x="50.49" y="307.86" width="177.56" height="9"/><rect id="rect23" x="50.49" y="278.48" width="177.56" height="9"/><rect id="rect25" x="50.49" y="249.1" width="177.56" height="9"/><rect id="rect27" x="50.49" y="219.72" width="177.56" height="9"/><rect id="rect29" x="50.49" y="190.34" width="177.56" height="9"/><rect id="rect31" x="50.49" y="160.96" width="177.56" height="9"/><rect id="rect33" x="50.49" y="104.75" width="177.56" height="9"/></g></g></g><g id="gear" transform="matrix(0.343314,0,0,0.343314,5.06084,5.01583)"><g id="path3254" transform="matrix(1,0,0,1,-0.883885,2.47487)"><path d="M45.078,39.161c0,3.394 -8.858,6.187 -19.622,6.187c-10.765,0 -19.622,-2.793 -19.622,-6.187c-0,-3.394 8.857,-6.187 19.622,-6.187c10.764,-0 19.622,2.793 19.622,6.187l0,0Z" style="fill:url(#_Radial1);fill-rule:nonzero;"/></g><path id="path3243" d="M23.25,0.469c-0.465,0.032 -0.918,0.104 -1.375,0.156l-0.031,0l-1.094,5.969c-1.783,0.406 -3.46,1.095 -4.969,2.031l-4.906,-3.531c-1.326,1.029 -2.533,2.23 -3.594,3.531l3.406,4.969c-1.034,1.58 -1.811,3.385 -2.25,5.281c0,0.009 0,0.03 0,0.031l-5.937,0.938c-0.109,0.886 -0.156,1.803 -0.156,2.719c-0,0.749 0.02,1.488 0.093,2.218l5.938,1.063c0.422,2.062 1.224,3.987 2.344,5.687l-3.531,4.844c1.011,1.256 2.178,2.399 3.437,3.406l5,-3.437c1.747,1.114 3.698,1.896 5.813,2.281l0.937,5.906c0.666,0.061 1.349,0.063 2.031,0.063c0.963,-0 1.882,-0.037 2.813,-0.157l1.125,-6.031c2.007,-0.499 3.893,-1.366 5.531,-2.531l4.813,3.5c1.248,-1.062 2.389,-2.282 3.374,-3.594l-3.5,-5.062c0.948,-1.637 1.605,-3.443 1.938,-5.375l5.906,-0.938c0.052,-0.616 0.063,-1.214 0.063,-1.844c-0,-1.094 -0.127,-2.167 -0.282,-3.218l-6,-1.094c-0.47,-1.736 -1.241,-3.356 -2.218,-4.813l3.531,-4.843c-1.095,-1.339 -2.343,-2.575 -3.719,-3.625l-5.094,3.5c-1.463,-0.866 -3.039,-1.53 -4.75,-1.907l-0.937,-5.937c-0.853,-0.1 -1.714,-0.156 -2.594,-0.156c-0.238,-0 -0.482,-0.008 -0.719,-0c-0.115,0.003 -0.228,-0.007 -0.343,-0c-0.031,0.002 -0.063,-0.002 -0.094,-0Zm0.813,15.187c0.114,-0.006 0.228,0 0.343,0c3.699,0 6.719,3.02 6.719,6.719c0,3.699 -3.02,6.687 -6.719,6.687c-3.699,0.001 -6.687,-2.988 -6.687,-6.687c-0,-3.584 2.804,-6.539 6.344,-6.719Z" style="fill:url(#_Linear2);fill-rule:nonzero;stroke:#808080;stroke-width:1px;"/><g id="path3283" transform="matrix(0.606518,0,0,0.606518,10.1502,7.93684)"><path d="M36.239,23.782c0,6.982 -5.745,12.728 -12.728,12.728c-6.982,-0 -12.728,-5.746 -12.728,-12.728c0,-6.983 5.746,-12.728 12.728,-12.728c6.983,-0 12.728,5.745 12.728,12.728Z" style="fill:none;fill-rule:nonzero;stroke:#fff;stroke-opacity:0.65;stroke-width:1.65px;"/></g><path id="path3285" d="M22.558,1.65l-0.878,5.779c-1.671,0.381 -4.745,1.545 -6.159,2.422l-4.672,-3.487c-1.244,0.965 -1.329,1.031 -2.323,2.25l3.378,5.01c-0.969,1.481 -2.134,4.121 -2.552,6.008l-5.919,0.998c-0.102,0.831 -0.053,2.609 0.015,3.294l5.655,1.018c0.396,1.933 1.877,5.044 2.926,6.637l-3.576,4.724c0.948,1.177 1.138,1.285 2.318,2.229l4.781,-3.502c1.638,1.044 4.889,2.315 6.871,2.676l0.784,5.707c0.625,0.056 2.35,0.216 3.222,0.104l0.878,-5.941c1.882,-0.468 5.133,-1.803 6.668,-2.895l4.776,3.451c1.17,-0.995 1.181,-1.145 2.105,-2.374l-3.539,-5.031c0.888,-1.534 2.037,-4.535 2.349,-6.346l5.794,-0.961c0.049,-0.578 0.051,-2.189 -0.093,-3.175l-5.904,-1.019c-0.441,-1.627 -1.953,-4.56 -2.869,-5.925l3.752,-4.724c-1.026,-1.254 -1.407,-1.427 -2.696,-2.411l-4.943,3.54c-1.372,-0.812 -4.108,-2.049 -5.712,-2.402l-0.873,-5.654c-0.8,-0.094 -3.107,-0.052 -3.564,0Z" style="fill:none;fill-rule:nonzero;stroke:#fff;stroke-opacity:0.35;stroke-width:1px;"/></g><defs><radialGradient id="_Radial1" cx="0" cy="0" r="1" gradientUnits="userSpaceOnUse" gradientTransform="matrix(19.6222,0,0,6.18718,25.4558,39.1612)"><stop offset="0" style="stop-color:#000;stop-opacity:0.41"/><stop offset="1" style="stop-color:#000;stop-opacity:0"/></radialGradient><linearGradient id="_Linear2" x1="0" y1="0" x2="1" y2="0" gradientUnits="userSpaceOnUse" gradientTransform="matrix(24.9274,34.0295,-34.0295,24.9274,12.9345,8.04759)"><stop offset="0" style="stop-color:#c9c9c9;stop-opacity:1"/><stop offset="0.25" style="stop-color:#f8f8f8;stop-opacity:1"/><stop offset="0.5" style="stop-color:#e2e2e2;stop-opacity:1"/><stop offset="0.75" style="stop-color:#b0b0b0;stop-opacity:1"/><stop offset="1" style="stop-color:#c9c9c9;stop-opacity:1"/></linearGradient></defs></svg>