<?xml version="1.0" encoding="UTF-8" standalone="no"?>
<!-- Generator: Adobe Illustrator 19.1.0, SVG Export Plug-In . SVG Version: 6.00 Build 0)  -->

<svg
   version="1.1"
   id="Capa_1"
   x="0px"
   y="0px"
   viewBox="0 0 457.37 457.37"
   style="enable-background:new 0 0 457.37 457.37;"
   xml:space="preserve"
   sodipodi:docname="generate.svg"
   inkscape:label="group"
   inkscape:version="1.1.2 (b8e25be833, 2022-02-05)"
   xmlns:inkscape="http://www.inkscape.org/namespaces/inkscape"
   xmlns:sodipodi="http://sodipodi.sourceforge.net/DTD/sodipodi-0.dtd"
   xmlns="http://www.w3.org/2000/svg"
   xmlns:svg="http://www.w3.org/2000/svg"><defs
   id="defs73" /><sodipodi:namedview
   id="namedview71"
   pagecolor="#ffffff"
   bordercolor="#666666"
   borderopacity="1.0"
   inkscape:pageshadow="2"
   inkscape:pageopacity="0.0"
   inkscape:pagecheckerboard="0"
   showgrid="false"
   inkscape:zoom="2.0694405"
   inkscape:cx="228.56419"
   inkscape:cy="228.80581"
   inkscape:window-width="3840"
   inkscape:window-height="2102"
   inkscape:window-x="-8"
   inkscape:window-y="32"
   inkscape:window-maximized="1"
   inkscape:current-layer="Capa_1" />
<g
   id="g38"
   inkscape:label="group">
	<g
   id="XMLID_39_"
   style="display:inline"
   inkscape:label="image">
		<g
   id="g35">
			<polygon
   style="display:inline;fill:#e2b369"
   points="430.54,97.15 441.34,97.15 441.34,448.37 194.86,448.37 194.86,437.57 430.54,437.57 "
   id="polygon9" />
			<polygon
   style="display:inline;fill:#e2b369"
   points="410.74,77.35 421.54,77.35 421.54,428.57 175.07,428.57 175.07,417.77 410.74,417.77 "
   id="polygon11" />
			<polygon
   style="display:inline;fill:#ffcc73"
   points="271.51,310.47 367.28,310.47 367.28,301.47 271.51,301.47 271.51,281.09 367.28,281.09 367.28,272.09 271.51,272.09 271.51,251.71 367.28,251.71 367.28,242.71 271.51,242.71 271.51,222.33 367.28,222.33 367.28,213.33 271.51,213.33 271.51,166.12 367.28,166.12 367.28,157.12 271.51,157.12 271.51,57.55 401.74,57.55 401.74,408.77 155.27,408.77 155.27,369.23 367.28,369.23 367.28,360.23 271.51,360.23 271.51,339.85 367.28,339.85 367.28,330.85 271.51,330.85 "
   id="polygon13" />
			<polygon
   style="display:inline;fill:#b3ff80"
   points="82.4,15.37 82.4,75.37 22.4,75.37 "
   id="polygon15"
   inkscape:label="torn_first+page" />
			<path
   style="display:inline;fill:#71c837"
   d="M 262.51,9 V 360.23 H 16.03 V 84.37 H 91.4 V 9 Z m -34.46,307.86 v -9 H 50.49 v 9 z m 0,-29.38 v -9 H 50.49 v 9 z m 0,-29.38 v -9 H 50.49 v 9 z m 0,-29.38 v -9 H 50.49 v 9 z m 0,-29.38 v -9 H 50.49 v 9 z m 0,-29.38 v -9 H 50.49 v 9 z m 0,-56.21 v -9 H 50.49 v 9 z"
   id="path17"
   inkscape:label="first_page" />
			<path
   d="M 450.34,88.15 V 457.37 H 185.86 v -19.8 h -19.79 v -19.8 h -19.8 V 369.23 H 7.03 V 78.01 L 85.03,0 h 186.48 v 48.55 h 139.23 v 19.8 h 19.8 v 19.8 z m -9,360.22 V 97.15 h -10.8 V 437.57 H 194.86 v 10.8 z m -19.8,-19.8 V 77.35 h -10.8 V 417.77 H 175.07 v 10.8 z m -19.8,-19.8 V 57.55 H 271.51 v 99.57 h 95.77 v 9 h -95.77 v 47.21 h 95.77 v 9 h -95.77 v 20.38 h 95.77 v 9 h -95.77 v 20.38 h 95.77 v 9 h -95.77 v 20.38 h 95.77 v 9 h -95.77 v 20.38 h 95.77 v 9 h -95.77 v 20.38 h 95.77 v 9 H 155.27 v 39.54 z M 262.51,360.23 V 9 H 91.4 V 84.37 H 16.03 V 360.23 Z M 82.4,75.37 v -60 l -60,60 z"
   id="path19"
   style="display:inline" />
			<rect
   x="50.490002"
   y="307.85999"
   width="177.56"
   height="9"
   id="rect21"
   style="display:inline" />
			<rect
   x="50.490002"
   y="278.48001"
   width="177.56"
   height="9"
   id="rect23"
   style="display:inline" />
			<rect
   x="50.490002"
   y="249.10001"
   width="177.56"
   height="9"
   id="rect25" />
			<rect
   x="50.490002"
   y="219.72"
   width="177.56"
   height="9"
   id="rect27" />
			<rect
   x="50.490002"
   y="190.34"
   width="177.56"
   height="9"
   id="rect29"
   style="display:inline" />
			<rect
   x="50.490002"
   y="160.96001"
   width="177.56"
   height="9"
   id="rect31"
   style="display:inline" />
			<rect
   x="50.490002"
   y="104.75"
   width="177.56"
   height="9"
   id="rect33"
   style="display:inline" />
		</g>
	</g>
</g>
</svg>
