<?xml version="1.0" encoding="UTF-8" standalone="no"?>
<!DOCTYPE svg PUBLIC "-//W3C//DTD SVG 1.1//EN" "http://www.w3.org/Graphics/SVG/1.1/DTD/svg11.dtd">
<svg width="30px" height="30px" version="1.1" xmlns="http://www.w3.org/2000/svg" xmlns:xlink="http://www.w3.org/1999/xlink" xml:space="preserve" xmlns:serif="http://www.serif.com/" style="fill-rule:evenodd;clip-rule:evenodd;">
    <g id="papers">
        <g id="group">
            <g id="papers1" serif:id="papers">
                <path id="polygon9" d="M28.66,6.364L29.391,6.364L29.391,29.369L12.711,29.369L12.711,28.662L28.66,28.662L28.66,6.364Z" style="fill:rgb(226,179,105);fill-rule:nonzero;"/>
                <path id="polygon11" d="M27.32,5.067L28.051,5.067L28.051,28.072L11.372,28.072L11.372,27.365L27.32,27.365L27.32,5.067Z" style="fill:rgb(226,179,105);fill-rule:nonzero;"/>
                <path id="polygon13" d="M17.898,20.336L24.379,20.336L24.379,19.747L17.898,19.747L17.898,18.412L24.379,18.412L24.379,17.822L17.898,17.822L17.898,16.488L24.379,16.488L24.379,15.898L17.898,15.898L17.898,14.563L24.379,14.563L24.379,13.974L17.898,13.974L17.898,10.881L24.379,10.881L24.379,10.292L17.898,10.292L17.898,3.77L26.711,3.77L26.711,26.775L10.032,26.775L10.032,24.185L24.379,24.185L24.379,23.596L17.898,23.596L17.898,22.261L24.379,22.261L24.379,21.671L17.898,21.671L17.898,20.336Z" style="fill:rgb(255,204,115);fill-rule:nonzero;"/>
                <path id="torn_first-page" serif:id="torn_first+page" d="M5.1,1.007L5.1,4.937L1.04,4.937L5.1,1.007Z" style="fill:rgb(179,255,128);fill-rule:nonzero;"/>
                <path id="first_page" d="M17.289,0.59L17.289,23.596L0.609,23.596L0.609,5.526L5.71,5.526L5.71,0.59L17.289,0.59ZM14.957,20.755L14.957,20.166L2.941,20.166L2.941,20.755L14.957,20.755ZM14.957,18.831L14.957,18.241L2.941,18.241L2.941,18.831L14.957,18.831ZM14.957,16.906L14.957,16.317L2.941,16.317L2.941,16.906L14.957,16.906ZM14.957,14.982L14.957,14.392L2.941,14.392L2.941,14.982L14.957,14.982ZM14.957,13.057L14.957,12.468L2.941,12.468L2.941,13.057L14.957,13.057ZM14.957,11.133L14.957,10.543L2.941,10.543L2.941,11.133L14.957,11.133ZM14.957,7.451L14.957,6.861L2.941,6.861L2.941,7.451L14.957,7.451Z" style="fill:rgb(113,200,55);fill-rule:nonzero;"/>
                <path id="path19" d="M30,5.774L30,29.959L12.102,29.959L12.102,28.662L10.763,28.662L10.763,27.365L9.423,27.365L9.423,24.185L0,24.185L0,5.11L5.278,-0L17.898,-0L17.898,3.18L27.32,3.18L27.32,4.477L28.66,4.477L28.66,5.774L30,5.774ZM29.391,29.369L29.391,6.364L28.66,6.364L28.66,28.662L12.711,28.662L12.711,29.369L29.391,29.369ZM28.051,28.072L28.051,5.067L27.32,5.067L27.32,27.365L11.372,27.365L11.372,28.072L28.051,28.072ZM26.711,26.775L26.711,3.77L17.898,3.77L17.898,10.292L24.379,10.292L24.379,10.881L17.898,10.881L17.898,13.974L24.379,13.974L24.379,14.563L17.898,14.563L17.898,15.898L24.379,15.898L24.379,16.488L17.898,16.488L17.898,17.822L24.379,17.822L24.379,18.412L17.898,18.412L17.898,19.747L24.379,19.747L24.379,20.336L17.898,20.336L17.898,21.671L24.379,21.671L24.379,22.261L17.898,22.261L17.898,23.596L24.379,23.596L24.379,24.185L10.032,24.185L10.032,26.775L26.711,26.775ZM17.289,23.596L17.289,0.59L5.71,0.59L5.71,5.526L0.609,5.526L0.609,23.596L17.289,23.596ZM5.1,4.937L5.1,1.007L1.04,4.937L5.1,4.937Z" style="fill-rule:nonzero;"/>
                <rect id="rect21" x="2.941" y="20.166" width="12.016" height="0.59"/>
                <rect id="rect23" x="2.941" y="18.241" width="12.016" height="0.59"/>
                <rect id="rect25" x="2.941" y="16.317" width="12.016" height="0.59"/>
                <rect id="rect27" x="2.941" y="14.392" width="12.016" height="0.59"/>
                <rect id="rect29" x="2.941" y="12.468" width="12.016" height="0.59"/>
                <rect id="rect31" x="2.941" y="10.543" width="12.016" height="0.59"/>
                <rect id="rect33" x="2.941" y="6.861" width="12.016" height="0.59"/>
            </g>
        </g>
    </g>
    <g id="gear">
        <g id="path3254">
            <path d="M20.233,19.31C20.233,20.475 17.192,21.434 13.497,21.434C9.801,21.434 6.76,20.475 6.76,19.31C6.76,18.145 9.801,17.186 13.497,17.186C17.192,17.186 20.233,18.145 20.233,19.31Z" style="fill:url(#_Radial1);fill-rule:nonzero;"/>
        </g>
        <path id="path3243" d="M13.043,5.177C12.883,5.188 12.728,5.213 12.571,5.23L12.56,5.23L12.185,7.28C11.572,7.419 10.997,7.656 10.479,7.977L8.794,6.765C8.339,7.118 7.925,7.53 7.561,7.977L8.73,9.683C8.375,10.225 8.108,10.845 7.957,11.496L7.957,11.507L5.919,11.829C5.882,12.133 5.866,12.448 5.866,12.762C5.866,13.019 5.872,13.273 5.897,13.523L7.936,13.888C8.081,14.596 8.356,15.257 8.741,15.841L7.529,17.504C7.876,17.935 8.276,18.327 8.709,18.673L10.425,17.493C11.025,17.876 11.695,18.144 12.421,18.276L12.742,20.304C12.971,20.325 13.206,20.326 13.44,20.326C13.77,20.326 14.086,20.313 14.406,20.272L14.792,18.201C15.481,18.03 16.128,17.732 16.691,17.332L18.343,18.534C18.771,18.169 19.163,17.75 19.501,17.3L18.3,15.562C18.625,15 18.851,14.38 18.965,13.717L20.993,13.395C21.011,13.183 21.014,12.978 21.014,12.762C21.014,12.386 20.971,12.018 20.917,11.657L18.858,11.281C18.696,10.685 18.432,10.129 18.096,9.629L19.308,7.966C18.932,7.507 18.504,7.082 18.032,6.722L16.283,7.923C15.78,7.626 15.239,7.398 14.652,7.269L14.33,5.23C14.037,5.196 13.742,5.177 13.44,5.177C13.358,5.177 13.274,5.174 13.193,5.177C13.153,5.178 13.115,5.174 13.075,5.177C13.065,5.178 13.054,5.176 13.043,5.177ZM13.322,10.391C13.361,10.389 13.4,10.391 13.44,10.391C14.71,10.391 15.746,11.428 15.746,12.697C15.746,13.967 14.71,14.993 13.44,14.993C12.17,14.994 11.144,13.967 11.144,12.697C11.144,11.467 12.107,10.453 13.322,10.391Z" style="fill:url(#_Linear2);fill-rule:nonzero;stroke:rgb(128,128,128);stroke-width:0.34px;"/>
        <g id="path3283">
            <path d="M16.091,12.693C16.091,14.147 14.895,15.343 13.441,15.343C11.987,15.343 10.791,14.147 10.791,12.693C10.791,11.239 11.987,10.042 13.441,10.042C14.895,10.042 16.091,11.239 16.091,12.693Z" style="fill:none;fill-rule:nonzero;stroke:white;stroke-opacity:0.65;stroke-width:0.34px;"/>
        </g>
        <path id="path3285" d="M12.805,5.582L12.504,7.566C11.93,7.697 10.875,8.097 10.389,8.398L8.785,7.201C8.358,7.532 8.329,7.555 7.988,7.973L9.148,9.693C8.815,10.202 8.415,11.108 8.272,11.756L6.239,12.098C6.204,12.384 6.221,12.994 6.245,13.229L8.186,13.579C8.322,14.242 8.83,15.31 9.191,15.857L7.963,17.479C8.288,17.883 8.354,17.92 8.759,18.244L10.4,17.042C10.962,17.401 12.079,17.837 12.759,17.961L13.028,19.92C13.243,19.939 13.835,19.994 14.134,19.956L14.436,17.916C15.082,17.756 16.198,17.297 16.725,16.922L18.365,18.107C18.766,17.765 18.77,17.714 19.087,17.292L17.872,15.565C18.177,15.038 18.572,14.008 18.679,13.386L20.668,13.056C20.685,12.858 20.685,12.305 20.636,11.966L18.609,11.616C18.458,11.058 17.939,10.051 17.624,9.582L18.912,7.96C18.56,7.53 18.429,7.471 17.987,7.133L16.29,8.348C15.819,8.069 14.879,7.645 14.329,7.523L14.029,5.582C13.754,5.55 12.962,5.564 12.805,5.582Z" style="fill:none;fill-rule:nonzero;stroke:white;stroke-opacity:0.35;stroke-width:0.34px;"/>
    </g>
    <defs>
        <radialGradient id="_Radial1" cx="0" cy="0" r="1" gradientUnits="userSpaceOnUse" gradientTransform="matrix(6.73658,0,0,2.12415,13.4967,19.3101)"><stop offset="0" style="stop-color:black;stop-opacity:0.41"/><stop offset="1" style="stop-color:black;stop-opacity:0"/></radialGradient>
        <linearGradient id="_Linear2" x1="0" y1="0" x2="1" y2="0" gradientUnits="userSpaceOnUse" gradientTransform="matrix(8.55793,11.6828,-11.6828,8.55793,9.50143,7.77868)"><stop offset="0" style="stop-color:rgb(201,201,201);stop-opacity:1"/><stop offset="0.25" style="stop-color:rgb(248,248,248);stop-opacity:1"/><stop offset="0.5" style="stop-color:rgb(226,226,226);stop-opacity:1"/><stop offset="0.75" style="stop-color:rgb(176,176,176);stop-opacity:1"/><stop offset="1" style="stop-color:rgb(201,201,201);stop-opacity:1"/></linearGradient>
    </defs>
</svg>
