<?xml version="1.0" encoding="UTF-8" standalone="no"?>
<!DOCTYPE svg PUBLIC "-//W3C//DTD SVG 1.1//EN" "http://www.w3.org/Graphics/SVG/1.1/DTD/svg11.dtd">
<svg width="30px" height="30px" version="1.1" xmlns="http://www.w3.org/2000/svg" xmlns:xlink="http://www.w3.org/1999/xlink" xml:space="preserve" xmlns:serif="http://www.serif.com/" style="fill-rule:evenodd;clip-rule:evenodd;stroke-linecap:round;stroke-linejoin:round;stroke-miterlimit:1.5;">
    <g id="scrollbar">
        <path d="M30,1.75L30,28.25C30,29.216 29.216,30 28.25,30L24.75,30C23.784,30 23,29.216 23,28.25L23,1.75C23,0.784 23.784,-0 24.75,-0L28.25,-0C29.216,-0 30,0.784 30,1.75Z" style="fill:rgb(128,128,128);"/>
        <path d="M30,1.75L30,5.25C30,6.216 29.216,7 28.25,7L24.75,7C23.784,7 23,6.216 23,5.25L23,1.75C23,0.784 23.784,-0 24.75,-0L28.25,-0C29.216,-0 30,0.784 30,1.75Z" style="fill:rgb(191,191,191);"/>
        <path d="M30,25.5L30,28.5C30,29.328 29.328,30 28.5,30L24.5,30C23.672,30 23,29.328 23,28.5L23,25.5C23,24.672 23.672,24 24.5,24L28.5,24C29.328,24 30,24.672 30,25.5Z" style="fill:rgb(191,191,191);"/>
        <path d="M29.898,11.852L29.898,16.047C29.898,16.998 29.125,17.771 28.174,17.771L24.725,17.771C23.773,17.771 23,16.998 23,16.047L23,11.852C23,10.9 23.773,10.127 24.725,10.127L28.174,10.127C29.125,10.127 29.898,10.9 29.898,11.852Z" style="fill:rgb(139,173,243);"/>
        <path d="M26.5,1.619L28.199,4.772L24.801,4.772L26.5,1.619Z" style="stroke:black;stroke-width:0.24px;"/>
        <path d="M26.5,28.653L24.801,25.5L28.199,25.5L26.5,28.653Z" style="stroke:black;stroke-width:0.24px;"/>
    </g>
    <g id="row">
        <path d="M9.153,10.199L6,11.898L6,8.5L9.153,10.199Z" style="fill:none;stroke:black;stroke-width:0.24px;"/>
        <path d="M17.146,11.5L16.5,11.5L16.5,8.942L16.646,8.942L16.646,11.229L17.146,11.229L17.146,11.5Z" style="fill-rule:nonzero;"/>
        <path d="M17.689,11.543C17.557,11.543 17.453,11.457 17.374,11.287C17.296,11.116 17.257,10.89 17.257,10.608C17.257,10.301 17.297,10.062 17.379,9.889C17.46,9.717 17.571,9.631 17.71,9.631C17.842,9.631 17.945,9.714 18.02,9.882C18.094,10.05 18.131,10.282 18.131,10.58C18.131,10.871 18.091,11.104 18.011,11.28C17.931,11.455 17.823,11.543 17.689,11.543ZM17.699,9.877C17.608,9.877 17.535,9.941 17.482,10.069C17.429,10.196 17.402,10.373 17.402,10.597C17.402,10.814 17.429,10.984 17.483,11.109C17.537,11.234 17.609,11.297 17.699,11.297C17.791,11.297 17.862,11.235 17.911,11.113C17.961,10.99 17.985,10.816 17.985,10.59C17.985,10.362 17.961,10.186 17.911,10.062C17.862,9.939 17.791,9.877 17.699,9.877Z" style="fill-rule:nonzero;"/>
        <path d="M18.822,9.97C18.797,9.93 18.761,9.911 18.714,9.911C18.654,9.911 18.603,9.97 18.562,10.087C18.521,10.205 18.501,10.366 18.501,10.569L18.501,11.5L18.359,11.5L18.359,9.673L18.501,9.673L18.501,10.05L18.504,10.05C18.525,9.921 18.555,9.821 18.597,9.749C18.639,9.677 18.685,9.641 18.737,9.641C18.774,9.641 18.802,9.65 18.822,9.666L18.822,9.97Z" style="fill-rule:nonzero;"/>
        <path d="M19.69,10.66L19.063,10.66C19.065,10.863 19.092,11.02 19.143,11.131C19.194,11.241 19.264,11.297 19.353,11.297C19.453,11.297 19.545,11.229 19.629,11.093L19.629,11.368C19.551,11.485 19.447,11.543 19.319,11.543C19.193,11.543 19.095,11.46 19.023,11.294C18.951,11.128 18.916,10.895 18.916,10.594C18.916,10.31 18.955,10.078 19.033,9.899C19.112,9.72 19.209,9.631 19.325,9.631C19.441,9.631 19.531,9.708 19.595,9.863C19.659,10.017 19.69,10.232 19.69,10.506L19.69,10.66ZM19.545,10.412C19.544,10.243 19.524,10.112 19.485,10.018C19.446,9.924 19.392,9.877 19.322,9.877C19.255,9.877 19.198,9.926 19.152,10.025C19.105,10.124 19.076,10.253 19.065,10.412L19.545,10.412Z" style="fill-rule:nonzero;"/>
        <path d="M21.167,11.5L21.025,11.5L21.025,10.451C21.025,10.249 21.01,10.103 20.979,10.012C20.949,9.922 20.898,9.877 20.826,9.877C20.765,9.877 20.714,9.934 20.671,10.048C20.629,10.162 20.607,10.299 20.607,10.458L20.607,11.5L20.465,11.5L20.465,10.415C20.465,10.056 20.398,9.877 20.263,9.877C20.201,9.877 20.149,9.931 20.109,10.038C20.068,10.146 20.048,10.286 20.048,10.458L20.048,11.5L19.906,11.5L19.906,9.673L20.048,9.673L20.048,9.962L20.051,9.962C20.114,9.741 20.206,9.631 20.327,9.631C20.388,9.631 20.441,9.665 20.486,9.735C20.531,9.805 20.562,9.896 20.579,10.009C20.645,9.757 20.743,9.631 20.874,9.631C21.069,9.631 21.167,9.879 21.167,10.374L21.167,11.5Z" style="fill-rule:nonzero;"/>
        <path d="M10.006,11.659C10.023,11.752 10.105,11.82 10.201,11.82C10.297,11.82 10.38,11.75 10.395,11.655C10.398,11.635 10.4,11.614 10.4,11.594L10.4,9.269C10.4,9.059 10.573,8.887 10.783,8.887L14.355,8.887C14.564,8.887 14.736,9.057 14.738,9.266L14.738,11.594C14.736,11.802 14.564,11.973 14.355,11.973L10.387,11.973C10.201,11.975 10.039,11.841 10.006,11.659Z" style="fill:rgb(251,193,25);"/>
    </g>
    <g id="row1" serif:id="row">
        <path d="M9.153,15.726L6,17.425L6,14.027L9.153,15.726Z" style="fill:none;stroke:black;stroke-width:0.24px;"/>
        <path d="M17.146,17.027L16.5,17.027L16.5,14.469L16.646,14.469L16.646,16.756L17.146,16.756L17.146,17.027Z" style="fill-rule:nonzero;"/>
        <path d="M17.689,17.07C17.557,17.07 17.453,16.985 17.374,16.814C17.296,16.643 17.257,16.417 17.257,16.135C17.257,15.828 17.297,15.589 17.379,15.416C17.46,15.244 17.571,15.158 17.71,15.158C17.842,15.158 17.945,15.241 18.02,15.409C18.094,15.577 18.131,15.809 18.131,16.107C18.131,16.398 18.091,16.631 18.011,16.807C17.931,16.982 17.823,17.07 17.689,17.07ZM17.699,15.404C17.608,15.404 17.535,15.468 17.482,15.596C17.429,15.723 17.402,15.9 17.402,16.124C17.402,16.341 17.429,16.512 17.483,16.636C17.537,16.761 17.609,16.824 17.699,16.824C17.791,16.824 17.862,16.762 17.911,16.64C17.961,16.517 17.985,16.343 17.985,16.117C17.985,15.889 17.961,15.713 17.911,15.589C17.862,15.466 17.791,15.404 17.699,15.404Z" style="fill-rule:nonzero;"/>
        <path d="M18.822,15.497C18.797,15.457 18.761,15.438 18.714,15.438C18.654,15.438 18.603,15.497 18.562,15.614C18.521,15.732 18.501,15.893 18.501,16.096L18.501,17.027L18.359,17.027L18.359,15.2L18.501,15.2L18.501,15.577L18.504,15.577C18.525,15.448 18.555,15.348 18.597,15.276C18.639,15.204 18.685,15.168 18.737,15.168C18.774,15.168 18.802,15.177 18.822,15.193L18.822,15.497Z" style="fill-rule:nonzero;"/>
        <path d="M19.69,16.187L19.063,16.187C19.065,16.39 19.092,16.547 19.143,16.658C19.194,16.768 19.264,16.824 19.353,16.824C19.453,16.824 19.545,16.756 19.629,16.62L19.629,16.895C19.551,17.012 19.447,17.07 19.319,17.07C19.193,17.07 19.095,16.987 19.023,16.821C18.951,16.655 18.916,16.422 18.916,16.121C18.916,15.837 18.955,15.605 19.033,15.426C19.112,15.247 19.209,15.158 19.325,15.158C19.441,15.158 19.531,15.235 19.595,15.39C19.659,15.544 19.69,15.759 19.69,16.033L19.69,16.187ZM19.545,15.939C19.544,15.77 19.524,15.639 19.485,15.545C19.446,15.451 19.392,15.404 19.322,15.404C19.255,15.404 19.198,15.453 19.152,15.552C19.105,15.651 19.076,15.78 19.065,15.939L19.545,15.939Z" style="fill-rule:nonzero;"/>
        <path d="M21.167,17.027L21.025,17.027L21.025,15.978C21.025,15.776 21.01,15.63 20.979,15.539C20.949,15.449 20.898,15.404 20.826,15.404C20.765,15.404 20.714,15.461 20.671,15.575C20.629,15.689 20.607,15.826 20.607,15.985L20.607,17.027L20.465,17.027L20.465,15.943C20.465,15.583 20.398,15.404 20.263,15.404C20.201,15.404 20.149,15.458 20.109,15.565C20.068,15.673 20.048,15.813 20.048,15.985L20.048,17.027L19.906,17.027L19.906,15.2L20.048,15.2L20.048,15.489L20.051,15.489C20.114,15.268 20.206,15.158 20.327,15.158C20.388,15.158 20.441,15.192 20.486,15.262C20.531,15.332 20.562,15.423 20.579,15.536C20.645,15.284 20.743,15.158 20.874,15.158C21.069,15.158 21.167,15.406 21.167,15.901L21.167,17.027Z" style="fill-rule:nonzero;"/>
        <path d="M10.006,17.186C10.023,17.279 10.105,17.347 10.201,17.347C10.297,17.347 10.38,17.277 10.395,17.182C10.398,17.162 10.4,17.141 10.4,17.121L10.4,14.796C10.4,14.586 10.573,14.414 10.783,14.414L14.355,14.414C14.564,14.414 14.736,14.584 14.738,14.793L14.738,17.121C14.736,17.329 14.564,17.5 14.355,17.5L10.387,17.5C10.201,17.502 10.039,17.368 10.006,17.186Z" style="fill:rgb(251,193,25);"/>
    </g>
    <g id="row2" serif:id="row">
        <path d="M9.272,21.726L6.119,23.425L6.119,20.027L9.272,21.726Z" style="fill:none;stroke:black;stroke-width:0.24px;"/>
        <path d="M17.265,23.027L16.619,23.027L16.619,20.469L16.765,20.469L16.765,22.756L17.265,22.756L17.265,23.027Z" style="fill-rule:nonzero;"/>
        <path d="M17.808,23.07C17.676,23.07 17.572,22.985 17.493,22.814C17.415,22.643 17.376,22.417 17.376,22.135C17.376,21.828 17.416,21.589 17.498,21.416C17.579,21.244 17.69,21.158 17.828,21.158C17.961,21.158 18.064,21.241 18.139,21.409C18.213,21.577 18.25,21.809 18.25,22.107C18.25,22.398 18.21,22.631 18.13,22.807C18.05,22.982 17.942,23.07 17.808,23.07ZM17.818,21.404C17.727,21.404 17.654,21.468 17.601,21.596C17.548,21.723 17.521,21.9 17.521,22.124C17.521,22.341 17.548,22.512 17.602,22.636C17.656,22.761 17.728,22.824 17.818,22.824C17.91,22.824 17.981,22.762 18.03,22.64C18.08,22.517 18.104,22.343 18.104,22.117C18.104,21.889 18.08,21.713 18.03,21.589C17.981,21.466 17.91,21.404 17.818,21.404Z" style="fill-rule:nonzero;"/>
        <path d="M18.941,21.497C18.916,21.457 18.88,21.438 18.833,21.438C18.773,21.438 18.722,21.497 18.681,21.614C18.64,21.732 18.62,21.893 18.62,22.096L18.62,23.027L18.478,23.027L18.478,21.2L18.62,21.2L18.62,21.577L18.623,21.577C18.644,21.448 18.674,21.348 18.716,21.276C18.758,21.204 18.804,21.168 18.856,21.168C18.893,21.168 18.921,21.177 18.941,21.193L18.941,21.497Z" style="fill-rule:nonzero;"/>
        <path d="M19.809,22.187L19.182,22.187C19.184,22.39 19.211,22.547 19.262,22.658C19.313,22.768 19.383,22.824 19.472,22.824C19.572,22.824 19.664,22.756 19.748,22.62L19.748,22.895C19.67,23.012 19.566,23.07 19.438,23.07C19.312,23.07 19.214,22.987 19.142,22.821C19.07,22.655 19.035,22.422 19.035,22.121C19.035,21.837 19.074,21.605 19.152,21.426C19.23,21.247 19.328,21.158 19.444,21.158C19.56,21.158 19.65,21.235 19.714,21.39C19.778,21.544 19.809,21.759 19.809,22.033L19.809,22.187ZM19.664,21.939C19.663,21.77 19.643,21.639 19.604,21.545C19.565,21.451 19.511,21.404 19.441,21.404C19.374,21.404 19.317,21.453 19.271,21.552C19.224,21.651 19.195,21.78 19.184,21.939L19.664,21.939Z" style="fill-rule:nonzero;"/>
        <path d="M21.286,23.027L21.144,23.027L21.144,21.978C21.144,21.776 21.129,21.63 21.098,21.539C21.068,21.449 21.017,21.404 20.945,21.404C20.884,21.404 20.833,21.461 20.79,21.575C20.748,21.689 20.726,21.826 20.726,21.985L20.726,23.027L20.584,23.027L20.584,21.943C20.584,21.583 20.517,21.404 20.382,21.404C20.32,21.404 20.268,21.458 20.228,21.565C20.187,21.673 20.167,21.813 20.167,21.985L20.167,23.027L20.025,23.027L20.025,21.2L20.167,21.2L20.167,21.489L20.17,21.489C20.233,21.268 20.325,21.158 20.446,21.158C20.507,21.158 20.56,21.192 20.605,21.262C20.65,21.332 20.681,21.423 20.698,21.536C20.764,21.284 20.862,21.158 20.993,21.158C21.188,21.158 21.286,21.406 21.286,21.901L21.286,23.027Z" style="fill-rule:nonzero;"/>
        <path d="M10.125,23.186C10.142,23.279 10.224,23.347 10.32,23.347C10.416,23.347 10.499,23.277 10.514,23.182C10.517,23.162 10.519,23.141 10.519,23.121L10.519,20.796C10.519,20.586 10.692,20.414 10.902,20.414L14.474,20.414C14.683,20.414 14.855,20.584 14.857,20.793L14.857,23.121C14.855,23.329 14.683,23.5 14.474,23.5L10.506,23.5C10.32,23.502 10.158,23.368 10.125,23.186Z" style="fill:rgb(251,193,25);"/>
    </g>
    <g id="row3" serif:id="row">
        <path d="M9.272,27.06L6.119,28.759L6.119,25.361L9.272,27.06Z" style="fill:none;stroke:black;stroke-width:0.24px;"/>
        <path d="M17.265,28.361L16.619,28.361L16.619,25.803L16.765,25.803L16.765,28.09L17.265,28.09L17.265,28.361Z" style="fill-rule:nonzero;"/>
        <path d="M17.808,28.404C17.676,28.404 17.572,28.319 17.493,28.148C17.415,27.977 17.376,27.751 17.376,27.469C17.376,27.163 17.416,26.923 17.498,26.75C17.579,26.578 17.69,26.492 17.828,26.492C17.961,26.492 18.064,26.576 18.139,26.743C18.213,26.911 18.25,27.143 18.25,27.441C18.25,27.732 18.21,27.965 18.13,28.141C18.05,28.316 17.942,28.404 17.808,28.404ZM17.818,26.738C17.727,26.738 17.654,26.802 17.601,26.93C17.548,27.058 17.521,27.234 17.521,27.459C17.521,27.675 17.548,27.846 17.602,27.971C17.656,28.095 17.728,28.158 17.818,28.158C17.91,28.158 17.981,28.097 18.03,27.974C18.08,27.852 18.104,27.677 18.104,27.451C18.104,27.223 18.08,27.047 18.03,26.923C17.981,26.8 17.91,26.738 17.818,26.738Z" style="fill-rule:nonzero;"/>
        <path d="M18.941,26.831C18.916,26.791 18.88,26.772 18.833,26.772C18.773,26.772 18.722,26.831 18.681,26.948C18.64,27.066 18.62,27.227 18.62,27.43L18.62,28.361L18.478,28.361L18.478,26.535L18.62,26.535L18.62,26.911L18.623,26.911C18.644,26.783 18.674,26.682 18.716,26.61C18.758,26.539 18.804,26.503 18.856,26.503C18.893,26.503 18.921,26.511 18.941,26.528L18.941,26.831Z" style="fill-rule:nonzero;"/>
        <path d="M19.809,27.521L19.182,27.521C19.184,27.724 19.211,27.881 19.262,27.992C19.313,28.103 19.383,28.158 19.472,28.158C19.572,28.158 19.664,28.09 19.748,27.954L19.748,28.229C19.67,28.346 19.566,28.404 19.438,28.404C19.312,28.404 19.214,28.321 19.142,28.155C19.07,27.989 19.035,27.756 19.035,27.455C19.035,27.171 19.074,26.939 19.152,26.76C19.23,26.581 19.328,26.492 19.444,26.492C19.56,26.492 19.65,26.569 19.714,26.724C19.778,26.878 19.809,27.093 19.809,27.368L19.809,27.521ZM19.664,27.273C19.663,27.104 19.643,26.973 19.604,26.879C19.565,26.785 19.511,26.738 19.441,26.738C19.374,26.738 19.317,26.787 19.271,26.886C19.224,26.985 19.195,27.114 19.184,27.273L19.664,27.273Z" style="fill-rule:nonzero;"/>
        <path d="M21.286,28.361L21.144,28.361L21.144,27.312C21.144,27.11 21.129,26.964 21.098,26.874C21.068,26.783 21.017,26.738 20.945,26.738C20.884,26.738 20.833,26.795 20.79,26.909C20.748,27.023 20.726,27.16 20.726,27.319L20.726,28.361L20.584,28.361L20.584,27.277C20.584,26.918 20.517,26.738 20.382,26.738C20.32,26.738 20.268,26.792 20.228,26.899C20.187,27.007 20.167,27.147 20.167,27.319L20.167,28.361L20.025,28.361L20.025,26.535L20.167,26.535L20.167,26.824L20.17,26.824C20.233,26.602 20.325,26.492 20.446,26.492C20.507,26.492 20.56,26.527 20.605,26.596C20.65,26.666 20.681,26.757 20.698,26.87C20.764,26.618 20.862,26.492 20.993,26.492C21.188,26.492 21.286,26.74 21.286,27.236L21.286,28.361Z" style="fill-rule:nonzero;"/>
        <path d="M10.125,28.52C10.142,28.613 10.224,28.682 10.32,28.682C10.416,28.682 10.499,28.611 10.514,28.516C10.517,28.496 10.519,28.475 10.519,28.455L10.519,26.13C10.519,25.92 10.692,25.748 10.902,25.748L14.474,25.748C14.683,25.748 14.855,25.918 14.857,26.127L14.857,28.455C14.855,28.664 14.683,28.834 14.474,28.834L10.506,28.834C10.32,28.837 10.158,28.703 10.125,28.52Z" style="fill:rgb(251,193,25);"/>
    </g>
    <g id="first-row" serif:id="first row">
        <path d="M11.808,4.328L11.163,4.328L11.163,1.77L11.309,1.77L11.309,4.057L11.808,4.057L11.808,4.328Z" style="fill-rule:nonzero;"/>
        <path d="M12.352,4.371C12.22,4.371 12.115,4.286 12.037,4.115C11.959,3.944 11.919,3.718 11.919,3.436C11.919,3.13 11.96,2.89 12.042,2.718C12.123,2.545 12.234,2.459 12.372,2.459C12.505,2.459 12.608,2.543 12.683,2.71C12.757,2.878 12.794,3.111 12.794,3.408C12.794,3.699 12.754,3.933 12.674,4.108C12.594,4.283 12.486,4.371 12.352,4.371ZM12.362,2.705C12.271,2.705 12.198,2.769 12.145,2.897C12.092,3.025 12.065,3.201 12.065,3.426C12.065,3.642 12.092,3.813 12.146,3.938C12.2,4.063 12.272,4.125 12.362,4.125C12.454,4.125 12.525,4.064 12.574,3.941C12.624,3.819 12.648,3.645 12.648,3.419C12.648,3.19 12.624,3.014 12.574,2.891C12.525,2.767 12.454,2.705 12.362,2.705Z" style="fill-rule:nonzero;"/>
        <path d="M13.485,2.798C13.46,2.759 13.424,2.739 13.377,2.739C13.316,2.739 13.266,2.798 13.225,2.916C13.184,3.033 13.164,3.194 13.164,3.397L13.164,4.328L13.021,4.328L13.021,2.502L13.164,2.502L13.164,2.878L13.167,2.878C13.187,2.75 13.218,2.649 13.26,2.578C13.302,2.506 13.348,2.47 13.4,2.47C13.437,2.47 13.465,2.478 13.485,2.495L13.485,2.798Z" style="fill-rule:nonzero;"/>
        <path d="M14.353,3.488L13.726,3.488C13.728,3.691 13.755,3.848 13.806,3.959C13.857,4.07 13.927,4.125 14.016,4.125C14.116,4.125 14.208,4.057 14.292,3.922L14.292,4.196C14.214,4.313 14.11,4.371 13.982,4.371C13.856,4.371 13.758,4.288 13.686,4.122C13.614,3.956 13.578,3.723 13.578,3.422C13.578,3.138 13.618,2.906 13.696,2.727C13.774,2.548 13.872,2.459 13.988,2.459C14.104,2.459 14.194,2.536 14.258,2.691C14.321,2.845 14.353,3.06 14.353,3.335L14.353,3.488ZM14.208,3.24C14.207,3.071 14.187,2.94 14.148,2.846C14.109,2.752 14.055,2.705 13.985,2.705C13.918,2.705 13.861,2.754 13.814,2.853C13.768,2.952 13.739,3.081 13.728,3.24L14.208,3.24Z" style="fill-rule:nonzero;"/>
        <path d="M15.83,4.328L15.688,4.328L15.688,3.279C15.688,3.077 15.673,2.931 15.642,2.841C15.612,2.75 15.561,2.705 15.489,2.705C15.428,2.705 15.377,2.762 15.334,2.876C15.292,2.99 15.27,3.127 15.27,3.287L15.27,4.328L15.128,4.328L15.128,3.244C15.128,2.885 15.061,2.705 14.926,2.705C14.863,2.705 14.812,2.759 14.771,2.867C14.731,2.974 14.711,3.114 14.711,3.287L14.711,4.328L14.568,4.328L14.568,2.502L14.711,2.502L14.711,2.791L14.714,2.791C14.777,2.57 14.869,2.459 14.99,2.459C15.051,2.459 15.104,2.494 15.149,2.563C15.194,2.633 15.225,2.724 15.242,2.837C15.308,2.585 15.406,2.459 15.537,2.459C15.732,2.459 15.83,2.707 15.83,3.203L15.83,4.328Z" style="fill-rule:nonzero;"/>
        <rect x="16.605" y="1.77" width="0.146" height="2.558" style="fill-rule:nonzero;"/>
        <path d="M17.204,4.064L17.201,4.064L17.201,5.168L17.059,5.168L17.059,2.502L17.201,2.502L17.201,2.823L17.204,2.823C17.274,2.58 17.377,2.459 17.512,2.459C17.626,2.459 17.715,2.541 17.78,2.704C17.844,2.868 17.876,3.087 17.876,3.361C17.876,3.667 17.84,3.912 17.768,4.096C17.695,4.279 17.596,4.371 17.471,4.371C17.356,4.371 17.267,4.269 17.204,4.064ZM17.201,3.328L17.201,3.583C17.201,3.734 17.225,3.862 17.273,3.967C17.32,4.072 17.381,4.125 17.454,4.125C17.54,4.125 17.608,4.057 17.657,3.922C17.706,3.786 17.73,3.598 17.73,3.356C17.73,3.153 17.707,2.993 17.662,2.878C17.616,2.763 17.554,2.705 17.476,2.705C17.393,2.705 17.327,2.764 17.276,2.883C17.226,3.001 17.201,3.149 17.201,3.328Z" style="fill-rule:nonzero;"/>
        <path d="M18.049,4.262L18.049,3.948C18.127,4.066 18.212,4.125 18.305,4.125C18.43,4.125 18.493,4.039 18.493,3.868C18.493,3.819 18.488,3.778 18.477,3.744C18.466,3.71 18.452,3.68 18.433,3.654C18.415,3.628 18.394,3.604 18.369,3.584C18.345,3.563 18.318,3.541 18.29,3.518C18.25,3.486 18.216,3.454 18.186,3.421C18.156,3.389 18.131,3.352 18.112,3.311C18.092,3.27 18.077,3.223 18.066,3.171C18.056,3.118 18.051,3.057 18.051,2.987C18.051,2.901 18.061,2.825 18.08,2.759C18.099,2.693 18.124,2.638 18.156,2.594C18.188,2.549 18.224,2.515 18.265,2.493C18.306,2.47 18.348,2.459 18.391,2.459C18.468,2.459 18.537,2.486 18.598,2.541L18.598,2.837C18.532,2.749 18.457,2.705 18.372,2.705C18.346,2.705 18.322,2.711 18.3,2.724C18.279,2.736 18.26,2.754 18.245,2.776C18.23,2.799 18.218,2.826 18.21,2.858C18.201,2.889 18.197,2.924 18.197,2.962C18.197,3.01 18.201,3.049 18.21,3.081C18.218,3.114 18.23,3.142 18.246,3.167C18.263,3.192 18.282,3.215 18.305,3.235C18.329,3.255 18.355,3.277 18.384,3.301C18.424,3.332 18.459,3.364 18.49,3.396C18.521,3.429 18.548,3.466 18.57,3.507C18.592,3.548 18.609,3.595 18.621,3.649C18.633,3.702 18.639,3.766 18.639,3.84C18.639,3.93 18.629,4.008 18.61,4.075C18.59,4.142 18.564,4.197 18.532,4.241C18.5,4.285 18.462,4.318 18.42,4.339C18.378,4.36 18.334,4.371 18.287,4.371C18.196,4.371 18.117,4.335 18.049,4.262Z" style="fill-rule:nonzero;"/>
        <path d="M19.576,4.328L19.433,4.328L19.433,4.039L19.43,4.039C19.371,4.261 19.28,4.371 19.156,4.371C18.944,4.371 18.838,4.112 18.838,3.593L18.838,2.502L18.98,2.502L18.98,3.547C18.98,3.932 19.051,4.125 19.195,4.125C19.264,4.125 19.321,4.072 19.366,3.967C19.411,3.862 19.433,3.724 19.433,3.554L19.433,2.502L19.576,2.502L19.576,4.328Z" style="fill-rule:nonzero;"/>
        <path d="M21.124,4.328L20.982,4.328L20.982,3.279C20.982,3.077 20.967,2.931 20.937,2.841C20.906,2.75 20.855,2.705 20.783,2.705C20.723,2.705 20.671,2.762 20.629,2.876C20.586,2.99 20.565,3.127 20.565,3.287L20.565,4.328L20.423,4.328L20.423,3.244C20.423,2.885 20.355,2.705 20.22,2.705C20.158,2.705 20.106,2.759 20.066,2.867C20.025,2.974 20.005,3.114 20.005,3.287L20.005,4.328L19.863,4.328L19.863,2.502L20.005,2.502L20.005,2.791L20.009,2.791C20.072,2.57 20.164,2.459 20.285,2.459C20.345,2.459 20.398,2.494 20.443,2.563C20.488,2.633 20.519,2.724 20.536,2.837C20.602,2.585 20.7,2.459 20.831,2.459C21.027,2.459 21.124,2.707 21.124,3.203L21.124,4.328Z" style="fill-rule:nonzero;"/>
        <path d="M22.092,2.502L21.738,4.328L21.598,4.328L21.262,2.502L21.418,2.502L21.643,3.829C21.66,3.926 21.671,4.011 21.675,4.084L21.678,4.084C21.684,3.992 21.693,3.91 21.706,3.836L21.942,2.502L22.092,2.502Z" style="fill-rule:nonzero;"/>
        <rect x="0" y="0" width="23" height="6.884" style="fill:rgb(166,202,216);"/>
        <path d="M4.284,3.301L1.131,5L1.131,1.602L4.284,3.301Z" style="fill:none;stroke:black;stroke-width:0.24px;"/>
    </g>
    <g id="folder">
        <path d="M8.065,1.738L9.618,1.738C9.827,1.738 10,1.911 10,2.121L10,4.745C10,4.955 9.827,5.128 9.618,5.128L5.641,5.128C5.433,5.126 5.262,4.954 5.262,4.745L5.262,1.53C5.264,1.322 5.436,1.151 5.645,1.151L6.616,1.151C6.939,1.151 6.974,1.248 7.186,1.528C7.361,1.76 7.788,1.738 8.065,1.738Z" style="fill:rgb(241,155,13);fill-rule:nonzero;"/>
        <path d="M5.649,5.124L9.618,5.124C9.826,5.124 9.998,4.954 10,4.745L10,2.417C9.998,2.208 9.826,2.038 9.618,2.038L6.045,2.038C5.835,2.038 5.662,2.21 5.662,2.42L5.662,4.745C5.662,4.765 5.661,4.786 5.657,4.806C5.642,4.901 5.559,4.972 5.463,4.972C5.366,4.972 5.284,4.901 5.268,4.806C5.299,4.991 5.462,5.127 5.649,5.124Z" style="fill:rgb(0,10,59);fill-rule:nonzero;"/>
        <g>
            <g>
                <g>
                    <g>
                        <g>
                            <clipPath id="_clip1">
                                <path d="M5.649,5.124L9.618,5.124C9.826,5.124 9.998,4.954 10,4.745L10,2.417C9.998,2.208 9.826,2.038 9.618,2.038L6.045,2.038C5.835,2.038 5.662,2.21 5.662,2.42L5.662,4.745C5.662,4.765 5.661,4.786 5.657,4.806C5.642,4.901 5.559,4.972 5.463,4.972C5.366,4.972 5.284,4.901 5.268,4.806C5.299,4.991 5.462,5.127 5.649,5.124Z"/>
                            </clipPath>
                            <g clip-path="url(#_clip1)">
                                <path d="M5.269,4.81C5.286,4.903 5.368,4.972 5.463,4.972C5.559,4.972 5.642,4.901 5.657,4.806C5.661,4.786 5.662,4.765 5.662,4.745L5.662,2.42C5.662,2.21 5.835,2.038 6.045,2.038L9.618,2.038C9.826,2.038 9.998,2.208 10,2.417L10,4.745C9.998,4.954 9.826,5.124 9.618,5.124L5.649,5.124C5.463,5.127 5.301,4.993 5.269,4.81Z" style="fill:rgb(251,193,25);"/>
                                <path d="M5.269,4.81C5.286,4.903 5.368,4.972 5.463,4.972C5.559,4.972 5.642,4.901 5.657,4.806C5.661,4.786 5.662,4.765 5.662,4.745L5.662,2.42C5.662,2.21 5.835,2.038 6.045,2.038L9.618,2.038C9.826,2.038 9.998,2.208 10,2.417L10,4.745C9.998,4.954 9.826,5.124 9.618,5.124L5.649,5.124C5.463,5.127 5.301,4.993 5.269,4.81Z" style="fill:rgb(251,193,25);"/>
                            </g>
                        </g>
                    </g>
                </g>
            </g>
        </g>
    </g>
    <g id="folder1" serif:id="folder">
        <path d="M12.803,8.587L14.355,8.587C14.565,8.587 14.738,8.76 14.738,8.97L14.738,11.594C14.738,11.804 14.565,11.976 14.355,11.976L10.379,11.976C10.171,11.975 10,11.803 10,11.594L10,8.379C10.002,8.171 10.174,8 10.382,8L11.354,8C11.677,8 11.711,8.096 11.924,8.376C12.099,8.608 12.525,8.587 12.803,8.587Z" style="fill:rgb(241,155,13);fill-rule:nonzero;"/>
        <path d="M10.387,11.973L14.355,11.973C14.564,11.973 14.736,11.802 14.738,11.594L14.738,9.266C14.736,9.057 14.564,8.887 14.355,8.887L10.783,8.887C10.573,8.887 10.4,9.059 10.4,9.269L10.4,11.594C10.4,11.614 10.398,11.635 10.395,11.655C10.38,11.75 10.297,11.82 10.201,11.82C10.104,11.82 10.021,11.75 10.006,11.655C10.037,11.84 10.199,11.975 10.387,11.973Z" style="fill:rgb(0,10,59);fill-rule:nonzero;"/>
        <g>
            <g>
                <g>
                    <g>
                        <g>
                            <clipPath id="_clip2">
                                <path d="M10.387,11.973L14.355,11.973C14.564,11.973 14.736,11.802 14.738,11.594L14.738,9.266C14.736,9.057 14.564,8.887 14.355,8.887L10.783,8.887C10.573,8.887 10.4,9.059 10.4,9.269L10.4,11.594C10.4,11.614 10.398,11.635 10.395,11.655C10.38,11.75 10.297,11.82 10.201,11.82C10.104,11.82 10.021,11.75 10.006,11.655C10.037,11.84 10.199,11.975 10.387,11.973Z"/>
                            </clipPath>
                            <g clip-path="url(#_clip2)">
                                <path d="M10.006,11.659C10.023,11.752 10.105,11.82 10.201,11.82C10.297,11.82 10.38,11.75 10.395,11.655C10.398,11.635 10.4,11.614 10.4,11.594L10.4,9.269C10.4,9.059 10.573,8.887 10.783,8.887L14.355,8.887C14.564,8.887 14.736,9.057 14.738,9.266L14.738,11.594C14.736,11.802 14.564,11.973 14.355,11.973L10.387,11.973C10.201,11.975 10.039,11.841 10.006,11.659Z" style="fill:rgb(251,193,25);"/>
                            </g>
                        </g>
                    </g>
                </g>
            </g>
        </g>
    </g>
    <rect id="outer" x="0" y="0" width="30" height="30" style="fill:none;stroke:rgb(191,191,191);stroke-width:0.47px;stroke-linecap:butt;stroke-miterlimit:2;"/>
</svg>
