<?xml version="1.0" encoding="UTF-8" standalone="no"?><!DOCTYPE svg PUBLIC "-//W3C//DTD SVG 1.1//EN" "http://www.w3.org/Graphics/SVG/1.1/DTD/svg11.dtd"><svg width="100%" height="100%" viewBox="0 0 18 18" version="1.1" xmlns="http://www.w3.org/2000/svg" xmlns:xlink="http://www.w3.org/1999/xlink" xml:space="preserve" xmlns:serif="http://www.serif.com/" style="fill-rule:evenodd;clip-rule:evenodd;stroke-linejoin:round;stroke-miterlimit:2;"><path id="path586" d="M0,18l0,-18l18,0l-0,18l-18,-0Zm6,-1l-0,-6l-5,-0l-0,6l5,-0Zm11,-0l-0,-6l-10,-0l-0,6l10,-0Zm-6,-7l-0,-9l-10,-0l-0,9l10,-0Zm6,-0l-0,-4l-5,-0l-0,4l5,-0Zm-0,-5l-0,-4l-5,-0l-0,4l5,-0Z" style="fill:#f00;fill-rule:nonzero;"/></svg>