<?xml version="1.0" encoding="UTF-8" standalone="no"?><!DOCTYPE svg PUBLIC "-//W3C//DTD SVG 1.1//EN" "http://www.w3.org/Graphics/SVG/1.1/DTD/svg11.dtd"><svg width="100%" height="100%" viewBox="0 0 30 30" version="1.1" xmlns="http://www.w3.org/2000/svg" xmlns:xlink="http://www.w3.org/1999/xlink" xml:space="preserve" xmlns:serif="http://www.serif.com/" style="fill-rule:evenodd;clip-rule:evenodd;stroke-linejoin:round;stroke-miterlimit:2;"><path id="path1656" d="M2.68,25.325l0,-22.645l22.645,0l-0,22.645l-22.645,-0Zm5.329,-1.313l0,-4.016l-4.016,-0l-0,4.016l4.016,0Zm5.329,-2.008l0,-2.008l-4.016,-0l-0,1.997c-0,1.099 0.005,2.003 0.01,2.009c0.006,0.005 0.91,0.01 2.009,0.01l1.997,0l0,-2.008Zm5.329,2.008l0,-4.016l-4,-0l-0,4.016l4,0Zm5.341,-2.012l0.004,-2.004l-4.016,-0l-0,4.016l4.008,-0.008l0.004,-2.004Zm-15.999,-3.333l0,-4l-4.016,-0l-0,4l4.016,0Zm5.329,0l0,-4l-4.016,-0l-0,4l4.016,0Zm5.329,0l0,-4l-4,-0l-0,4l4,0Zm5.345,0l0,-4l-4.016,-0l-0,4l4.016,0Zm-16.003,-5.329l0,-4.016l-4.016,-0l-0,4.016l4.016,0Zm5.329,0l0,-4.016l-4.016,-0l-0,4.016l4.016,0Zm5.329,0l0,-4.016l-4,-0l-0,4.016l4,0Zm5.341,-2.004l-0.004,-2.004l-4.008,-0.008l-0,4.016l4.016,0l-0.004,-2.004Zm-15.999,-3.325l0,-4.016l-4.016,-0l-0,4.016l4.016,0Zm5.329,0l0,-4.016l-4.016,-0l-0,4.016l4.016,0Zm5.329,0l0,-4.016l-4,-0l-0,4.016l4,0Zm5.345,0l0,-4.016l-4.016,-0l-0,4.016l4.016,0Z" style="fill:#f00;fill-rule:nonzero;"/></svg>