<?xml version="1.0" encoding="UTF-8" standalone="no"?>
<!DOCTYPE svg PUBLIC "-//W3C//DTD SVG 1.1//EN" "http://www.w3.org/Graphics/SVG/1.1/DTD/svg11.dtd">
<svg width="30px" height="30px" version="1.1" xmlns="http://www.w3.org/2000/svg" xmlns:xlink="http://www.w3.org/1999/xlink" xml:space="preserve" xmlns:serif="http://www.serif.com/" style="fill-rule:evenodd;clip-rule:evenodd;stroke-linejoin:round;stroke-miterlimit:2;">
    <path id="path586" d="M0,30L0,0L30,0L30,30L0,30ZM10,28.333L10,18.333L1.667,18.333L1.667,28.333L10,28.333ZM28.333,28.333L28.333,18.333L11.667,18.333L11.667,28.333L28.333,28.333ZM18.333,16.667L18.333,1.667L1.667,1.667L1.667,16.667L18.333,16.667ZM28.333,16.667L28.333,10L20,10L20,16.667L28.333,16.667ZM28.333,8.333L28.333,1.667L20,1.667L20,8.333L28.333,8.333Z" style="fill:rgb(255,0,0);fill-rule:nonzero;"/>
</svg>
