<?xml version="1.0" encoding="UTF-8" standalone="no"?>
<!-- Created with Inkscape (http://www.inkscape.org/) -->

<svg
   version="1.1"
   id="svg430"
   width="29.333332"
   height="29.333332"
   viewBox="0 0 29.333332 29.333332"
   sodipodi:docname="grid_bag_sizer.svg"
   inkscape:version="1.1.2 (b8e25be833, 2022-02-05)"
   xmlns:inkscape="http://www.inkscape.org/namespaces/inkscape"
   xmlns:sodipodi="http://sodipodi.sourceforge.net/DTD/sodipodi-0.dtd"
   xmlns="http://www.w3.org/2000/svg"
   xmlns:svg="http://www.w3.org/2000/svg">
  <defs
     id="defs434" />
  <sodipodi:namedview
     id="namedview432"
     pagecolor="#ffffff"
     bordercolor="#666666"
     borderopacity="1.0"
     inkscape:pageshadow="2"
     inkscape:pageopacity="0.0"
     inkscape:pagecheckerboard="0"
     showgrid="false"
     inkscape:zoom="63.988639"
     inkscape:cx="14.658852"
     inkscape:cy="14.666666"
     inkscape:window-width="2664"
     inkscape:window-height="2086"
     inkscape:window-x="503"
     inkscape:window-y="44"
     inkscape:window-maximized="1"
     inkscape:current-layer="g436" />
  <g
     inkscape:groupmode="layer"
     inkscape:label="Image"
     id="g436">
    <g
       id="g574"
       style="fill:#ff0000">
      <path
         style="fill:#ff0000;fill-opacity:1;stroke-width:1.33333"
         d="m 2.6666665,14.666666 c 0,-4 0,-7.9999997 0,-11.9999995 7.9999995,0 15.9999995,0 23.9999985,0 0,7.9999995 0,15.9999995 0,23.9999985 -7.999999,0 -15.999999,0 -23.9999985,0 0,-4 0,-7.999999 0,-11.999999 z m 7.9999995,6.666666 c 0,-1.333333 0,-2.666666 0,-3.999999 -2.2222221,0 -4.4444441,0 -6.6666662,0 0,2.666666 0,5.333333 0,7.999999 2.2222221,0 4.4444441,0 6.6666662,0 0,-1.333333 0,-2.666667 0,-4 z m 14.666666,0 c 0,-1.333333 0,-2.666666 0,-3.999999 -4.444444,0 -8.888889,0 -13.333333,0 0,2.666666 0,5.333333 0,7.999999 4.444444,0 8.888889,0 13.333333,0 0,-1.333333 0,-2.666667 0,-4 z M 17.333333,9.9999995 c 0,-1.9999999 0,-3.9999998 0,-5.9999997 -4.444444,0 -8.8888888,0 -13.3333332,0 0,3.9999997 0,7.9999992 0,11.9999992 4.4444444,0 8.8888892,0 13.3333332,0 0,-2 0,-4 0,-5.9999995 z m 7.999999,3.3333335 c 0,-0.888889 0,-1.777778 0,-2.666667 -2.222222,0 -4.444444,0 -6.666666,0 0,1.777778 0,3.555555 0,5.333333 2.222222,0 4.444444,0 6.666666,0 0,-0.888889 0,-1.777777 0,-2.666666 z m 0,-6.6666666 c 0,-0.8888889 0,-1.7777777 0,-2.6666666 -2.222222,0 -4.444444,0 -6.666666,0 0,1.7777777 0,3.5555554 0,5.3333331 2.222222,0 4.444444,0 6.666666,0 0,-0.8888888 0,-1.7777777 0,-2.6666665 z"
         id="path586" />
      <path
         style="fill:#ff0000;fill-opacity:1;stroke-width:1.33333"
         d="m 2.6666665,14.666666 c 0,-4 0,-7.9999997 0,-11.9999995 7.9999995,0 15.9999995,0 23.9999985,0 0,7.9999995 0,15.9999995 0,23.9999985 -7.999999,0 -15.999999,0 -23.9999985,0 0,-4 0,-7.999999 0,-11.999999 z m 7.9999995,6.666666 c 0,-1.333333 0,-2.666666 0,-3.999999 -2.2222221,0 -4.4444441,0 -6.6666662,0 0,2.666666 0,5.333333 0,7.999999 2.2222221,0 4.4444441,0 6.6666662,0 0,-1.333333 0,-2.666667 0,-4 z m 14.666666,0 c 0,-1.333333 0,-2.666666 0,-3.999999 -4.444444,0 -8.888889,0 -13.333333,0 0,2.666666 0,5.333333 0,7.999999 4.444444,0 8.888889,0 13.333333,0 0,-1.333333 0,-2.666667 0,-4 z M 17.333333,9.9999995 c 0,-1.9999999 0,-3.9999998 0,-5.9999997 -4.444444,0 -8.8888888,0 -13.3333332,0 0,3.9999997 0,7.9999992 0,11.9999992 4.4444444,0 8.8888892,0 13.3333332,0 0,-2 0,-4 0,-5.9999995 z m 7.999999,3.3333335 c 0,-0.888889 0,-1.777778 0,-2.666667 -2.222222,0 -4.444444,0 -6.666666,0 0,1.777778 0,3.555555 0,5.333333 2.222222,0 4.444444,0 6.666666,0 0,-0.888889 0,-1.777777 0,-2.666666 z m 0,-6.6666666 c 0,-0.8888889 0,-1.7777777 0,-2.6666666 -2.222222,0 -4.444444,0 -6.666666,0 0,1.7777777 0,3.5555554 0,5.3333331 2.222222,0 4.444444,0 6.666666,0 0,-0.8888888 0,-1.7777777 0,-2.6666665 z"
         id="path584" />
      <path
         style="fill:#ff0000;fill-opacity:1;stroke-width:1.33333"
         d="m 2.6666665,14.666666 c 0,-4 0,-7.9999997 0,-11.9999995 7.9999995,0 15.9999995,0 23.9999985,0 0,7.9999995 0,15.9999995 0,23.9999985 -7.999999,0 -15.999999,0 -23.9999985,0 0,-4 0,-7.999999 0,-11.999999 z m 7.9999995,6.666666 c 0,-1.333333 0,-2.666666 0,-3.999999 -2.2222221,0 -4.4444441,0 -6.6666662,0 0,2.666666 0,5.333333 0,7.999999 2.2222221,0 4.4444441,0 6.6666662,0 0,-1.333333 0,-2.666667 0,-4 z m 14.666666,0 c 0,-1.333333 0,-2.666666 0,-3.999999 -4.444444,0 -8.888889,0 -13.333333,0 0,2.666666 0,5.333333 0,7.999999 4.444444,0 8.888889,0 13.333333,0 0,-1.333333 0,-2.666667 0,-4 z M 17.333333,9.9999995 c 0,-1.9999999 0,-3.9999998 0,-5.9999997 -4.444444,0 -8.8888888,0 -13.3333332,0 0,3.9999997 0,7.9999992 0,11.9999992 4.4444444,0 8.8888892,0 13.3333332,0 0,-2 0,-4 0,-5.9999995 z m 7.999999,3.3333335 c 0,-0.888889 0,-1.777778 0,-2.666667 -2.222222,0 -4.444444,0 -6.666666,0 0,1.777778 0,3.555555 0,5.333333 2.222222,0 4.444444,0 6.666666,0 0,-0.888889 0,-1.777777 0,-2.666666 z m 0,-6.6666666 c 0,-0.8888889 0,-1.7777777 0,-2.6666666 -2.222222,0 -4.444444,0 -6.666666,0 0,1.7777777 0,3.5555554 0,5.3333331 2.222222,0 4.444444,0 6.666666,0 0,-0.8888888 0,-1.7777777 0,-2.6666665 z"
         id="path582" />
      <path
         style="fill:#ff0000;fill-opacity:1;stroke-width:1.33333"
         d="m 2.6666665,14.666666 c 0,-4 0,-7.9999997 0,-11.9999995 7.9999995,0 15.9999995,0 23.9999985,0 0,7.9999995 0,15.9999995 0,23.9999985 -7.999999,0 -15.999999,0 -23.9999985,0 0,-4 0,-7.999999 0,-11.999999 z m 7.9999995,6.666666 c 0,-1.333333 0,-2.666666 0,-3.999999 -2.2222221,0 -4.4444441,0 -6.6666662,0 0,2.666666 0,5.333333 0,7.999999 2.2222221,0 4.4444441,0 6.6666662,0 0,-1.333333 0,-2.666667 0,-4 z m 14.666666,0 c 0,-1.333333 0,-2.666666 0,-3.999999 -4.444444,0 -8.888889,0 -13.333333,0 0,2.666666 0,5.333333 0,7.999999 4.444444,0 8.888889,0 13.333333,0 0,-1.333333 0,-2.666667 0,-4 z M 17.333333,9.9999995 c 0,-1.9999999 0,-3.9999998 0,-5.9999997 -4.444444,0 -8.8888888,0 -13.3333332,0 0,3.9999997 0,7.9999992 0,11.9999992 4.4444444,0 8.8888892,0 13.3333332,0 0,-2 0,-4 0,-5.9999995 z m 7.999999,3.3333335 c 0,-0.888889 0,-1.777778 0,-2.666667 -2.222222,0 -4.444444,0 -6.666666,0 0,1.777778 0,3.555555 0,5.333333 2.222222,0 4.444444,0 6.666666,0 0,-0.888889 0,-1.777777 0,-2.666666 z m 0,-6.6666666 c 0,-0.8888889 0,-1.7777777 0,-2.6666666 -2.222222,0 -4.444444,0 -6.666666,0 0,1.7777777 0,3.5555554 0,5.3333331 2.222222,0 4.444444,0 6.666666,0 0,-0.8888888 0,-1.7777777 0,-2.6666665 z"
         id="path580" />
      <path
         style="fill:#ff0000;fill-opacity:1;stroke-width:1.33333"
         d="m 2.6666665,14.666666 c 0,-4 0,-7.9999997 0,-11.9999995 7.9999995,0 15.9999995,0 23.9999985,0 0,7.9999995 0,15.9999995 0,23.9999985 -7.999999,0 -15.999999,0 -23.9999985,0 0,-4 0,-7.999999 0,-11.999999 z m 7.9999995,6.666666 c 0,-1.333333 0,-2.666666 0,-3.999999 -2.2222221,0 -4.4444441,0 -6.6666662,0 0,2.666666 0,5.333333 0,7.999999 2.2222221,0 4.4444441,0 6.6666662,0 0,-1.333333 0,-2.666667 0,-4 z m 14.666666,0 c 0,-1.333333 0,-2.666666 0,-3.999999 -4.444444,0 -8.888889,0 -13.333333,0 0,2.666666 0,5.333333 0,7.999999 4.444444,0 8.888889,0 13.333333,0 0,-1.333333 0,-2.666667 0,-4 z M 17.333333,9.9999995 c 0,-1.9999999 0,-3.9999998 0,-5.9999997 -4.444444,0 -8.8888888,0 -13.3333332,0 0,3.9999997 0,7.9999992 0,11.9999992 4.4444444,0 8.8888892,0 13.3333332,0 0,-2 0,-4 0,-5.9999995 z m 7.999999,3.3333335 c 0,-0.888889 0,-1.777778 0,-2.666667 -2.222222,0 -4.444444,0 -6.666666,0 0,1.777778 0,3.555555 0,5.333333 2.222222,0 4.444444,0 6.666666,0 0,-0.888889 0,-1.777777 0,-2.666666 z m 0,-6.6666666 c 0,-0.8888889 0,-1.7777777 0,-2.6666666 -2.222222,0 -4.444444,0 -6.666666,0 0,1.7777777 0,3.5555554 0,5.3333331 2.222222,0 4.444444,0 6.666666,0 0,-0.8888888 0,-1.7777777 0,-2.6666665 z"
         id="path578" />
      <path
         style="fill:#ff0000;fill-opacity:1;stroke-width:1.33333"
         d="m 2.6666665,14.666666 c 0,-4 0,-7.9999997 0,-11.9999995 7.9999995,0 15.9999995,0 23.9999985,0 0,7.9999995 0,15.9999995 0,23.9999985 -7.999999,0 -15.999999,0 -23.9999985,0 0,-4 0,-7.999999 0,-11.999999 z m 7.9999995,6.666666 c 0,-1.333333 0,-2.666666 0,-3.999999 -2.2222221,0 -4.4444441,0 -6.6666662,0 0,2.666666 0,5.333333 0,7.999999 2.2222221,0 4.4444441,0 6.6666662,0 0,-1.333333 0,-2.666667 0,-4 z m 14.666666,0 c 0,-1.333333 0,-2.666666 0,-3.999999 -4.444444,0 -8.888889,0 -13.333333,0 0,2.666666 0,5.333333 0,7.999999 4.444444,0 8.888889,0 13.333333,0 0,-1.333333 0,-2.666667 0,-4 z M 17.333333,9.9999995 c 0,-1.9999999 0,-3.9999998 0,-5.9999997 -4.444444,0 -8.8888888,0 -13.3333332,0 0,3.9999997 0,7.9999992 0,11.9999992 4.4444444,0 8.8888892,0 13.3333332,0 0,-2 0,-4 0,-5.9999995 z m 7.999999,3.3333335 c 0,-0.888889 0,-1.777778 0,-2.666667 -2.222222,0 -4.444444,0 -6.666666,0 0,1.777778 0,3.555555 0,5.333333 2.222222,0 4.444444,0 6.666666,0 0,-0.888889 0,-1.777777 0,-2.666666 z m 0,-6.6666666 c 0,-0.8888889 0,-1.7777777 0,-2.6666666 -2.222222,0 -4.444444,0 -6.666666,0 0,1.7777777 0,3.5555554 0,5.3333331 2.222222,0 4.444444,0 6.666666,0 0,-0.8888888 0,-1.7777777 0,-2.6666665 z"
         id="path576" />
    </g>
  </g>
</svg>
