<?xml version="1.0" encoding="UTF-8" standalone="no"?><!DOCTYPE svg PUBLIC "-//W3C//DTD SVG 1.1//EN" "http://www.w3.org/Graphics/SVG/1.1/DTD/svg11.dtd"><svg width="100%" height="100%" viewBox="0 0 30 30" version="1.1" xmlns="http://www.w3.org/2000/svg" xmlns:xlink="http://www.w3.org/1999/xlink" xml:space="preserve" xmlns:serif="http://www.serif.com/" style="fill-rule:evenodd;clip-rule:evenodd;"><g id="Empty-Rect" serif:id="Empty Rect" transform="matrix(0.594738,0,0,0.981173,11.2421,0)"><rect x="27.266" y="0" width="4.274" height="30.576" style="fill:none;"/></g><g id="g13370" transform="matrix(0.711884,0,0,0.711884,104.697,-258.374)"><g id="Text"><g id="g133701" serif:id="g13370"><rect id="rect5141" x="-150" y="360" width="48" height="48" style="fill-opacity:0;"/><g id="Shadow" transform="matrix(1.04643,0,0,0.888889,-151.186,365.722)"><g opacity="0.66"><g id="g5147" transform="matrix(1.05263,0,0,1.28571,-1.26316,-13.4285)"><g opacity="0.4"><rect id="rect5149" x="38" y="40" width="5" height="7" style="fill:url(#_Radial1);"/><g id="rect5152" transform="matrix(-1,0,0,-1,0,0)"><rect x="-10" y="-47" width="5" height="7" style="fill:url(#_Radial2);"/></g><rect id="rect5154" x="10" y="40" width="28" height="7" style="fill:url(#_Linear3);"/></g></g></g></g><g id="g5158" transform="matrix(1.0051,0,0,0.714286,-150.194,372.429)"><g id="Shadow1" serif:id="Shadow"><g id="g51581" serif:id="g5158" opacity="0.4"><rect id="rect5160" x="38" y="40" width="5" height="7" style="fill:url(#_Radial4);"/><g id="rect5162" transform="matrix(-1,0,0,-1,0,0)"><rect x="-10" y="-47" width="5" height="7" style="fill:url(#_Radial5);"/></g><rect id="rect5164" x="10" y="40" width="28" height="7" style="fill:url(#_Linear6);"/></g></g></g><path id="path5166" d="M-141.476,363.5l18.976,0c3.877,0.073 6.5,2.5 9,5c2.5,2.5 4.608,5.253 5,9l0,24.976c0,1.121 -0.903,2.024 -2.024,2.024l-30.952,0c-1.121,0 -2.024,-0.903 -2.024,-2.024l0,-36.952c0,-1.121 0.903,-2.024 2.024,-2.024Z" style="fill:url(#_Radial7);fill-rule:nonzero;stroke:#000;stroke-width:1px;"/><g id="path5168" transform="matrix(1,0,0,1,-150,360)"><path d="M8.531,4c-0.858,0 -1.531,0.673 -1.531,1.531l0,36.938c0,0.858 0.673,1.531 1.531,1.531l30.938,0c0.858,0 1.531,-0.673 1.531,-1.531l0,-24.969c0,-1.392 -0.487,-4.299 -2.344,-6.156c-2,-2 -3,-3 -5,-5c-1.857,-1.857 -4.764,-2.344 -6.156,-2.344l-18.969,-0Z" style="fill:url(#_Radial8);fill-rule:nonzero;"/></g><g id="path5174" transform="matrix(1,0,0,1,-90,360)"><path d="M-51.469,4.5c-0.583,0 -1.031,0.448 -1.031,1.031l0,36.938c0,0.583 0.448,1.031 1.031,1.031l30.938,0c0.583,0 1.031,-0.448 1.031,-1.031l0,-24.969c0,-1.279 -0.48,-4.105 -2.188,-5.813c-2,-2 -3,-3 -5,-5c-1.707,-1.707 -4.533,-2.187 -5.812,-2.187l-18.969,-0Z" style="fill:none;fill-rule:nonzero;stroke:url(#_Linear9);stroke-width:1px;"/></g><path id="path5170" d="M-122.5,364c-1.389,0 -0.042,0.497 1.344,1.125c1.386,0.628 4.973,3.215 4.156,6.875c4.323,-0.431 6.679,3.122 7,4.281c0.321,1.159 1,2.608 1,1.219c0.028,-3.806 -2.845,-6.432 -4.844,-8.656c-1.998,-2.225 -5.002,-4.367 -8.656,-4.844Z" style="fill:url(#_Radial10);fill-rule:nonzero;"/><path id="path5172" d="M-121.399,365.014c0.922,0 3.008,6.196 2.086,10.33c4.295,-0.428 8.853,0.088 9.313,0.937c-0.321,-1.159 -2.677,-4.712 -7,-4.281c0.865,-3.875 -3.187,-6.617 -4.399,-6.986Z" style="fill:url(#_Linear11);fill-rule:nonzero;"/><g id="g5141" transform="matrix(1,0,0,1,-200,-50)"><g opacity="0.6"><g id="g6349" transform="matrix(1,0,0,1,0,50)"><rect id="rect6240" x="78.5" y="371.5" width="5" height="3" style="fill:none;stroke:#888a85;stroke-width:1px;stroke-linejoin:round;"/><rect id="rect5184" x="63.5" y="371.5" width="5" height="3" style="fill:none;stroke:#888a85;stroke-width:1px;stroke-linejoin:round;"/><rect id="rect5186" x="73.5" y="371.5" width="5" height="3" style="fill:none;stroke:#888a85;stroke-width:1px;stroke-linejoin:round;"/><rect id="rect6242" x="78.5" y="374.5" width="5" height="3" style="fill:none;stroke:#888a85;stroke-width:1px;stroke-linejoin:round;"/><rect id="rect5188" x="68.5" y="371.5" width="5" height="3" style="fill:none;stroke:#888a85;stroke-width:1px;stroke-linejoin:round;"/><rect id="rect5192" x="63.5" y="374.5" width="5" height="3" style="fill:none;stroke:#888a85;stroke-width:1px;stroke-linejoin:round;"/><rect id="rect5182" x="59.5" y="371.5" width="4" height="3" style="fill:#708aad;stroke:#204a88;stroke-width:1px;stroke-linejoin:round;"/><rect id="rect5194" x="73.5" y="374.5" width="5" height="3" style="fill:none;stroke:#888a85;stroke-width:1px;stroke-linejoin:round;"/><rect id="rect5196" x="68.5" y="374.5" width="5" height="3" style="fill:none;stroke:#888a85;stroke-width:1px;stroke-linejoin:round;"/><rect id="rect5200" x="63.5" y="377.5" width="5" height="3" style="fill:none;stroke:#888a85;stroke-width:1px;stroke-linejoin:round;"/><rect id="rect5190" x="59.5" y="374.5" width="4" height="3" style="fill:#708aad;stroke:#204a88;stroke-width:1px;stroke-linejoin:round;"/><rect id="rect5202" x="73.5" y="377.5" width="5" height="3" style="fill:none;stroke:#888a85;stroke-width:1px;stroke-linejoin:round;"/><rect id="rect6258" x="63.5" y="380.5" width="5" height="3" style="fill:none;stroke:#888a85;stroke-width:1px;stroke-linejoin:round;"/><rect id="rect5204" x="68.5" y="377.5" width="5" height="3" style="fill:none;stroke:#888a85;stroke-width:1px;stroke-linejoin:round;"/><rect id="rect5208" x="59.5" y="368.5" width="4" height="3" style="fill:#729fcf;stroke:#204a87;stroke-width:1px;stroke-linejoin:round;"/><rect id="rect5198" x="59.5" y="377.5" width="4" height="3" style="fill:#708aad;stroke:#204a88;stroke-width:1px;stroke-linejoin:round;"/><rect id="rect5210" x="63.5" y="368.5" width="5" height="3" style="fill:#729fcf;stroke:#204a87;stroke-width:1px;stroke-linejoin:round;"/><rect id="rect5212" x="73.5" y="368.5" width="5" height="3" style="fill:#729fcf;stroke:#204a87;stroke-width:1px;stroke-linejoin:round;"/><rect id="rect5214" x="68.5" y="368.5" width="5" height="3" style="fill:#6e88ab;stroke:#204a87;stroke-width:1px;stroke-linejoin:round;"/><rect id="rect6244" x="78.5" y="377.5" width="5" height="3" style="fill:none;stroke:#888a85;stroke-width:1px;stroke-linejoin:round;"/><rect id="rect6246" x="78.5" y="368.5" width="5" height="3" style="fill:url(#_Linear12);stroke:url(#_Linear13);stroke-width:1px;stroke-linejoin:round;"/><rect id="rect6250" x="83.5" y="374.5" width="5" height="3" style="fill:none;stroke:#888a85;stroke-width:1px;stroke-linejoin:round;"/><rect id="rect6252" x="83.5" y="377.5" width="5" height="3" style="fill:none;stroke:#888a85;stroke-width:1px;stroke-linejoin:round;"/><rect id="rect6260" x="73.5" y="380.5" width="5" height="3" style="fill:none;stroke:#888a85;stroke-width:1px;stroke-linejoin:round;"/><rect id="rect6262" x="68.5" y="380.5" width="5" height="3" style="fill:none;stroke:#888a85;stroke-width:1px;stroke-linejoin:round;"/><rect id="rect6264" x="78.5" y="380.5" width="5" height="3" style="fill:none;stroke:#888a85;stroke-width:1px;stroke-linejoin:round;"/><rect id="rect6266" x="83.5" y="380.5" width="5" height="3" style="fill:none;stroke:#888a85;stroke-width:1px;stroke-linejoin:round;"/><rect id="rect6270" x="63.5" y="383.5" width="5" height="3" style="fill:none;stroke:#888a85;stroke-width:1px;stroke-linejoin:round;"/><rect id="rect6256" x="59.5" y="380.5" width="4" height="3" style="fill:#708aad;stroke:#204a88;stroke-width:1px;stroke-linejoin:round;"/><rect id="rect6272" x="73.5" y="383.5" width="5" height="3" style="fill:none;stroke:#888a85;stroke-width:1px;stroke-linejoin:round;"/><rect id="rect6274" x="68.5" y="383.5" width="5" height="3" style="fill:none;stroke:#888a85;stroke-width:1px;stroke-linejoin:round;"/><rect id="rect6276" x="78.5" y="383.5" width="5" height="3" style="fill:none;stroke:#888a85;stroke-width:1px;stroke-linejoin:round;"/><rect id="rect6278" x="83.5" y="383.5" width="5" height="3" style="fill:none;stroke:#888a85;stroke-width:1px;stroke-linejoin:round;"/><rect id="rect6282" x="63.5" y="386.5" width="5" height="3" style="fill:none;stroke:#888a85;stroke-width:1px;stroke-linejoin:round;"/><rect id="rect6268" x="59.5" y="383.5" width="4" height="3" style="fill:#708aad;stroke:#204a88;stroke-width:1px;stroke-linejoin:round;"/><rect id="rect6284" x="73.5" y="386.5" width="5" height="3" style="fill:none;stroke:#888a85;stroke-width:1px;stroke-linejoin:round;"/><rect id="rect6286" x="68.5" y="386.5" width="5" height="3" style="fill:none;stroke:#888a85;stroke-width:1px;stroke-linejoin:round;"/><rect id="rect6288" x="78.5" y="386.5" width="5" height="3" style="fill:none;stroke:#888a85;stroke-width:1px;stroke-linejoin:round;"/><rect id="rect6290" x="83.5" y="386.5" width="5" height="3" style="fill:none;stroke:#888a85;stroke-width:1px;stroke-linejoin:round;"/><rect id="rect6294" x="63.5" y="389.5" width="5" height="3" style="fill:none;stroke:#888a85;stroke-width:1px;stroke-linejoin:round;"/><rect id="rect6280" x="59.5" y="386.5" width="4" height="3" style="fill:#708aad;stroke:#204a88;stroke-width:1px;stroke-linejoin:round;"/><rect id="rect6296" x="73.5" y="389.5" width="5" height="3" style="fill:none;stroke:#888a85;stroke-width:1px;stroke-linejoin:round;"/><rect id="rect6298" x="68.5" y="389.5" width="5" height="3" style="fill:none;stroke:#888a85;stroke-width:1px;stroke-linejoin:round;"/><rect id="rect6300" x="78.5" y="389.5" width="5" height="3" style="fill:none;stroke:#888a85;stroke-width:1px;stroke-linejoin:round;"/><rect id="rect6302" x="83.5" y="389.5" width="5" height="3" style="fill:none;stroke:#888a85;stroke-width:1px;stroke-linejoin:round;"/><rect id="rect6306" x="63.5" y="392.5" width="5" height="3" style="fill:none;stroke:#888a85;stroke-width:1px;stroke-linejoin:round;"/><rect id="rect6292" x="59.5" y="389.5" width="4" height="3" style="fill:#708aad;stroke:#204a88;stroke-width:1px;stroke-linejoin:round;"/><rect id="rect6308" x="73.5" y="392.5" width="5" height="3" style="fill:none;stroke:#888a85;stroke-width:1px;stroke-linejoin:round;"/><rect id="rect6310" x="68.5" y="392.5" width="5" height="3" style="fill:none;stroke:#888a85;stroke-width:1px;stroke-linejoin:round;"/><rect id="rect6312" x="78.5" y="392.5" width="5" height="3" style="fill:none;stroke:#888a85;stroke-width:1px;stroke-linejoin:round;"/><rect id="rect6314" x="83.5" y="392.5" width="5" height="3" style="fill:none;stroke:#888a85;stroke-width:1px;stroke-linejoin:round;"/><rect id="rect6320" x="63.5" y="395.5" width="5" height="3" style="fill:none;stroke:#888a85;stroke-width:1px;stroke-linejoin:round;"/><rect id="rect6304" x="59.5" y="392.5" width="4" height="3" style="fill:#708aad;stroke:#204a88;stroke-width:1px;stroke-linejoin:round;"/><rect id="rect6316" x="59.5" y="395.5" width="4" height="3" style="fill:#708aad;stroke:#204a88;stroke-width:1px;stroke-linejoin:round;"/><rect id="rect6322" x="73.5" y="395.5" width="5" height="3" style="fill:none;stroke:#888a85;stroke-width:1px;stroke-linejoin:round;"/><rect id="rect6324" x="68.5" y="395.5" width="5" height="3" style="fill:none;stroke:#888a85;stroke-width:1px;stroke-linejoin:round;"/><rect id="rect6329" x="78.5" y="395.5" width="5" height="3" style="fill:none;stroke:#888a85;stroke-width:1px;stroke-linejoin:round;"/><rect id="rect6331" x="83.5" y="395.5" width="5" height="3" style="fill:none;stroke:#888a85;stroke-width:1px;stroke-linejoin:round;"/></g></g></g></g></g></g><defs><radialGradient id="_Radial1" cx="0" cy="0" r="1" gradientUnits="userSpaceOnUse" gradientTransform="matrix(5.00946,0,0,3.5,37.993,43.5)"><stop offset="0" style="stop-color:#000;stop-opacity:1"/><stop offset="1" style="stop-color:#000;stop-opacity:0"/></radialGradient><radialGradient id="_Radial2" cx="0" cy="0" r="1" gradientUnits="userSpaceOnUse" gradientTransform="matrix(5.00946,0,0,3.5,-10.007,-43.5)"><stop offset="0" style="stop-color:#000;stop-opacity:1"/><stop offset="1" style="stop-color:#000;stop-opacity:0"/></radialGradient><linearGradient id="_Linear3" x1="0" y1="0" x2="1" y2="0" gradientUnits="userSpaceOnUse" gradientTransform="matrix(4.30358e-16,-7.02829,7.02829,4.30358e-16,25.0581,47.0277)"><stop offset="0" style="stop-color:#000;stop-opacity:0"/><stop offset="0.5" style="stop-color:#000;stop-opacity:1"/><stop offset="1" style="stop-color:#000;stop-opacity:0"/></linearGradient><radialGradient id="_Radial4" cx="0" cy="0" r="1" gradientUnits="userSpaceOnUse" gradientTransform="matrix(5.00946,0,0,3.5,37.993,43.5)"><stop offset="0" style="stop-color:#000;stop-opacity:1"/><stop offset="1" style="stop-color:#000;stop-opacity:0"/></radialGradient><radialGradient id="_Radial5" cx="0" cy="0" r="1" gradientUnits="userSpaceOnUse" gradientTransform="matrix(5.00946,0,0,3.5,-10.007,-43.5)"><stop offset="0" style="stop-color:#000;stop-opacity:1"/><stop offset="1" style="stop-color:#000;stop-opacity:0"/></radialGradient><linearGradient id="_Linear6" x1="0" y1="0" x2="1" y2="0" gradientUnits="userSpaceOnUse" gradientTransform="matrix(4.30358e-16,-7.02829,7.02829,4.30358e-16,25.0581,47.0277)"><stop offset="0" style="stop-color:#000;stop-opacity:0"/><stop offset="0.5" style="stop-color:#000;stop-opacity:1"/><stop offset="1" style="stop-color:#000;stop-opacity:0"/></linearGradient><radialGradient id="_Radial7" cx="0" cy="0" r="1" gradientUnits="userSpaceOnUse" gradientTransform="matrix(71.9235,0,0,34.8307,-120.25,397.25)"><stop offset="0" style="stop-color:#f6f6f5;stop-opacity:1"/><stop offset="1" style="stop-color:#d3d7cf;stop-opacity:1"/></radialGradient><radialGradient id="_Radial8" cx="0" cy="0" r="1" gradientUnits="userSpaceOnUse" gradientTransform="matrix(32.0624,0,0,20,4,2)"><stop offset="0" style="stop-color:#fff;stop-opacity:0.68"/><stop offset="1" style="stop-color:#fff;stop-opacity:0"/></radialGradient><linearGradient id="_Linear9" x1="0" y1="0" x2="1" y2="0" gradientUnits="userSpaceOnUse" gradientTransform="matrix(2.00376,-1.87876,1.87876,2.00376,-26.7538,11.5663)"><stop offset="0" style="stop-color:#fff;stop-opacity:1"/><stop offset="1" style="stop-color:#fff;stop-opacity:0"/></linearGradient><radialGradient id="_Radial10" cx="0" cy="0" r="1" gradientUnits="userSpaceOnUse" gradientTransform="matrix(2.8685,-1.97058,5.28883,7.69877,-118.309,369.974)"><stop offset="0" style="stop-color:#fff;stop-opacity:1"/><stop offset="0.48" style="stop-color:#fff;stop-opacity:1"/><stop offset="1" style="stop-color:#fff;stop-opacity:0"/></radialGradient><linearGradient id="_Linear11" x1="0" y1="0" x2="1" y2="0" gradientUnits="userSpaceOnUse" gradientTransform="matrix(-9.40829,2.77134,-2.77134,-9.40829,-109.592,371.479)"><stop offset="0" style="stop-color:#000;stop-opacity:0.36"/><stop offset="1" style="stop-color:#000;stop-opacity:0"/></linearGradient><linearGradient id="_Linear12" x1="0" y1="0" x2="1" y2="0" gradientUnits="userSpaceOnUse" gradientTransform="matrix(2,-0.5,0.5,2,80.5,370)"><stop offset="0" style="stop-color:#729fcf;stop-opacity:1"/><stop offset="1" style="stop-color:#729fcf;stop-opacity:0"/></linearGradient><linearGradient id="_Linear13" x1="0" y1="0" x2="1" y2="0" gradientUnits="userSpaceOnUse" gradientTransform="matrix(1.5,-0.5,0.5,1.5,80.5,368.5)"><stop offset="0" style="stop-color:#204a87;stop-opacity:1"/><stop offset="1" style="stop-color:#204a87;stop-opacity:0"/></linearGradient></defs></svg>