<?xml version="1.0" encoding="UTF-8" standalone="no"?>
<!DOCTYPE svg PUBLIC "-//W3C//DTD SVG 1.1//EN" "http://www.w3.org/Graphics/SVG/1.1/DTD/svg11.dtd">
<svg width="30px" height="30px" version="1.1" xmlns="http://www.w3.org/2000/svg" xmlns:xlink="http://www.w3.org/1999/xlink" xml:space="preserve" xmlns:serif="http://www.serif.com/" style="fill-rule:evenodd;clip-rule:evenodd;stroke-linejoin:round;stroke-miterlimit:2;">
    <g id="path1656">
        <path d="M0,30L0,0L30,0L30,30L0,30ZM7.06,28.261L7.06,22.94L1.739,22.94L1.739,28.261L7.06,28.261ZM14.12,28.261L14.12,22.94L8.799,22.94L8.799,25.586C8.799,27.042 8.806,28.239 8.813,28.247C8.821,28.254 10.018,28.261 11.474,28.261L14.12,28.261ZM21.18,28.261L21.18,22.94L15.88,22.94L15.88,28.261L21.18,28.261ZM28.25,28.25L28.261,22.94L22.94,22.94L22.94,28.261L28.25,28.25ZM7.06,21.18L7.06,15.88L1.739,15.88L1.739,21.18L7.06,21.18ZM14.12,21.18L14.12,15.88L8.799,15.88L8.799,21.18L14.12,21.18ZM21.18,21.18L21.18,15.88L15.88,15.88L15.88,21.18L21.18,21.18ZM28.261,21.18L28.261,15.88L22.94,15.88L22.94,21.18L28.261,21.18ZM7.06,14.12L7.06,8.799L1.739,8.799L1.739,14.12L7.06,14.12ZM14.12,14.12L14.12,8.799L8.799,8.799L8.799,14.12L14.12,14.12ZM21.18,14.12L21.18,8.799L15.88,8.799L15.88,14.12L21.18,14.12ZM28.261,14.12L28.25,8.81L22.94,8.799L22.94,14.12L28.261,14.12ZM7.06,7.06L7.06,1.739L1.739,1.739L1.739,7.06L7.06,7.06ZM14.12,7.06L14.12,1.739L8.799,1.739L8.799,7.06L14.12,7.06ZM21.18,7.06L21.18,1.739L15.88,1.739L15.88,7.06L21.18,7.06ZM28.261,7.06L28.261,1.739L22.94,1.739L22.94,7.06L28.261,7.06Z" style="fill:rgb(255,0,0);fill-rule:nonzero;"/>
    </g>
</svg>
