<?xml version="1.0" encoding="UTF-8" standalone="no"?>
<!DOCTYPE svg PUBLIC "-//W3C//DTD SVG 1.1//EN" "http://www.w3.org/Graphics/SVG/1.1/DTD/svg11.dtd">
<svg width="30px" height="30px" version="1.1" xmlns="http://www.w3.org/2000/svg" xmlns:xlink="http://www.w3.org/1999/xlink" xml:space="preserve" xmlns:serif="http://www.serif.com/" style="fill-rule:evenodd;clip-rule:evenodd;">
    <g id="Empty-Rect" serif:id="Empty Rect">
    </g>
    <g id="g13370">
        <g id="Text">
            <g id="g133701" serif:id="g13370">
                <path id="path5166" d="M3.982,0.396L17.491,0.396C20.251,0.448 22.118,2.176 23.898,3.955C25.678,5.735 27.179,7.695 27.458,10.362L27.458,28.142C27.458,28.94 26.815,29.583 26.017,29.583L3.982,29.583C3.184,29.583 2.542,28.94 2.542,28.142L2.542,1.837C2.542,1.039 3.184,0.396 3.982,0.396Z" style="fill:url(#_Radial1);fill-rule:nonzero;stroke:black;stroke-width:0.71px;"/>
                <g id="path5168">
                    <path d="M3.987,0.752C3.377,0.752 2.898,1.231 2.898,1.842L2.898,28.137C2.898,28.748 3.377,29.227 3.987,29.227L26.012,29.227C26.623,29.227 27.102,28.748 27.102,28.137L27.102,10.362C27.102,9.371 26.755,7.302 25.433,5.98C24.009,4.556 23.297,3.844 21.874,2.42C20.552,1.098 18.482,0.752 17.491,0.752L3.987,0.752Z" style="fill:url(#_Radial2);fill-rule:nonzero;"/>
                </g>
                <g id="path5174">
                    <path d="M3.987,1.108C3.572,1.108 3.254,1.427 3.254,1.842L3.254,28.137C3.254,28.552 3.572,28.871 3.987,28.871L26.012,28.871C26.427,28.871 26.746,28.552 26.746,28.137L26.746,10.362C26.746,9.452 26.404,7.44 25.188,6.224C23.764,4.8 23.052,4.088 21.629,2.665C20.413,1.449 18.402,1.108 17.491,1.108L3.987,1.108Z" style="fill:none;fill-rule:nonzero;stroke:url(#_Linear3);stroke-width:0.71px;"/>
                </g>
                <path id="path5170" d="M17.491,0.752C16.502,0.752 17.461,1.106 18.448,1.553C19.435,2 21.988,3.841 21.407,6.447C24.484,6.14 26.161,8.669 26.39,9.494C26.618,10.319 27.102,11.351 27.102,10.362C27.122,7.653 25.076,5.783 23.653,4.2C22.231,2.616 20.092,1.091 17.491,0.752Z" style="fill:url(#_Radial4);fill-rule:nonzero;"/>
                <path id="path5172" d="M18.275,1.474C18.931,1.474 20.416,5.884 19.76,8.827C22.818,8.523 26.062,8.89 26.39,9.494C26.161,8.669 24.484,6.14 21.407,6.447C22.022,3.688 19.138,1.736 18.275,1.474Z" style="fill:url(#_Linear5);fill-rule:nonzero;"/>
                <g opacity="0.6">
                    <g id="g6349">
                        <rect id="rect6240" x="18.203" y="6.091" width="3.559" height="2.136" style="fill:none;stroke:rgb(136,138,133);stroke-width:0.71px;stroke-linejoin:round;"/>
                        <rect id="rect5184" x="7.525" y="6.091" width="3.559" height="2.136" style="fill:none;stroke:rgb(136,138,133);stroke-width:0.71px;stroke-linejoin:round;"/>
                        <rect id="rect5186" x="14.644" y="6.091" width="3.559" height="2.136" style="fill:none;stroke:rgb(136,138,133);stroke-width:0.71px;stroke-linejoin:round;"/>
                        <rect id="rect6242" x="18.203" y="8.227" width="3.559" height="2.136" style="fill:none;stroke:rgb(136,138,133);stroke-width:0.71px;stroke-linejoin:round;"/>
                        <rect id="rect5188" x="11.084" y="6.091" width="3.559" height="2.136" style="fill:none;stroke:rgb(136,138,133);stroke-width:0.71px;stroke-linejoin:round;"/>
                        <rect id="rect5192" x="7.525" y="8.227" width="3.559" height="2.136" style="fill:none;stroke:rgb(136,138,133);stroke-width:0.71px;stroke-linejoin:round;"/>
                        <rect id="rect5182" x="4.677" y="6.091" width="2.848" height="2.136" style="fill:rgb(112,138,173);stroke:rgb(32,74,136);stroke-width:0.71px;stroke-linejoin:round;"/>
                        <rect id="rect5194" x="14.644" y="8.227" width="3.559" height="2.136" style="fill:none;stroke:rgb(136,138,133);stroke-width:0.71px;stroke-linejoin:round;"/>
                        <rect id="rect5196" x="11.084" y="8.227" width="3.559" height="2.136" style="fill:none;stroke:rgb(136,138,133);stroke-width:0.71px;stroke-linejoin:round;"/>
                        <rect id="rect5200" x="7.525" y="10.362" width="3.559" height="2.136" style="fill:none;stroke:rgb(136,138,133);stroke-width:0.71px;stroke-linejoin:round;"/>
                        <rect id="rect5190" x="4.677" y="8.227" width="2.848" height="2.136" style="fill:rgb(112,138,173);stroke:rgb(32,74,136);stroke-width:0.71px;stroke-linejoin:round;"/>
                        <rect id="rect5202" x="14.644" y="10.362" width="3.559" height="2.136" style="fill:none;stroke:rgb(136,138,133);stroke-width:0.71px;stroke-linejoin:round;"/>
                        <rect id="rect6258" x="7.525" y="12.498" width="3.559" height="2.136" style="fill:none;stroke:rgb(136,138,133);stroke-width:0.71px;stroke-linejoin:round;"/>
                        <rect id="rect5204" x="11.084" y="10.362" width="3.559" height="2.136" style="fill:none;stroke:rgb(136,138,133);stroke-width:0.71px;stroke-linejoin:round;"/>
                        <rect id="rect5208" x="4.677" y="3.955" width="2.848" height="2.136" style="fill:rgb(114,159,207);stroke:rgb(32,74,135);stroke-width:0.71px;stroke-linejoin:round;"/>
                        <rect id="rect5198" x="4.677" y="10.362" width="2.848" height="2.136" style="fill:rgb(112,138,173);stroke:rgb(32,74,136);stroke-width:0.71px;stroke-linejoin:round;"/>
                        <rect id="rect5210" x="7.525" y="3.955" width="3.559" height="2.136" style="fill:rgb(114,159,207);stroke:rgb(32,74,135);stroke-width:0.71px;stroke-linejoin:round;"/>
                        <rect id="rect5212" x="14.644" y="3.955" width="3.559" height="2.136" style="fill:rgb(114,159,207);stroke:rgb(32,74,135);stroke-width:0.71px;stroke-linejoin:round;"/>
                        <rect id="rect5214" x="11.084" y="3.955" width="3.559" height="2.136" style="fill:rgb(110,136,171);stroke:rgb(32,74,135);stroke-width:0.71px;stroke-linejoin:round;"/>
                        <rect id="rect6244" x="18.203" y="10.362" width="3.559" height="2.136" style="fill:none;stroke:rgb(136,138,133);stroke-width:0.71px;stroke-linejoin:round;"/>
                        <rect id="rect6246" x="18.203" y="3.955" width="3.559" height="2.136" style="fill:url(#_Linear6);stroke:url(#_Linear7);stroke-width:0.71px;stroke-linejoin:round;"/>
                        <rect id="rect6250" x="21.763" y="8.227" width="3.559" height="2.136" style="fill:none;stroke:rgb(136,138,133);stroke-width:0.71px;stroke-linejoin:round;"/>
                        <rect id="rect6252" x="21.763" y="10.362" width="3.559" height="2.136" style="fill:none;stroke:rgb(136,138,133);stroke-width:0.71px;stroke-linejoin:round;"/>
                        <rect id="rect6260" x="14.644" y="12.498" width="3.559" height="2.136" style="fill:none;stroke:rgb(136,138,133);stroke-width:0.71px;stroke-linejoin:round;"/>
                        <rect id="rect6262" x="11.084" y="12.498" width="3.559" height="2.136" style="fill:none;stroke:rgb(136,138,133);stroke-width:0.71px;stroke-linejoin:round;"/>
                        <rect id="rect6264" x="18.203" y="12.498" width="3.559" height="2.136" style="fill:none;stroke:rgb(136,138,133);stroke-width:0.71px;stroke-linejoin:round;"/>
                        <rect id="rect6266" x="21.763" y="12.498" width="3.559" height="2.136" style="fill:none;stroke:rgb(136,138,133);stroke-width:0.71px;stroke-linejoin:round;"/>
                        <rect id="rect6270" x="7.525" y="14.634" width="3.559" height="2.136" style="fill:none;stroke:rgb(136,138,133);stroke-width:0.71px;stroke-linejoin:round;"/>
                        <rect id="rect6256" x="4.677" y="12.498" width="2.848" height="2.136" style="fill:rgb(112,138,173);stroke:rgb(32,74,136);stroke-width:0.71px;stroke-linejoin:round;"/>
                        <rect id="rect6272" x="14.644" y="14.634" width="3.559" height="2.136" style="fill:none;stroke:rgb(136,138,133);stroke-width:0.71px;stroke-linejoin:round;"/>
                        <rect id="rect6274" x="11.084" y="14.634" width="3.559" height="2.136" style="fill:none;stroke:rgb(136,138,133);stroke-width:0.71px;stroke-linejoin:round;"/>
                        <rect id="rect6276" x="18.203" y="14.634" width="3.559" height="2.136" style="fill:none;stroke:rgb(136,138,133);stroke-width:0.71px;stroke-linejoin:round;"/>
                        <rect id="rect6278" x="21.763" y="14.634" width="3.559" height="2.136" style="fill:none;stroke:rgb(136,138,133);stroke-width:0.71px;stroke-linejoin:round;"/>
                        <rect id="rect6282" x="7.525" y="16.769" width="3.559" height="2.136" style="fill:none;stroke:rgb(136,138,133);stroke-width:0.71px;stroke-linejoin:round;"/>
                        <rect id="rect6268" x="4.677" y="14.634" width="2.848" height="2.136" style="fill:rgb(112,138,173);stroke:rgb(32,74,136);stroke-width:0.71px;stroke-linejoin:round;"/>
                        <rect id="rect6284" x="14.644" y="16.769" width="3.559" height="2.136" style="fill:none;stroke:rgb(136,138,133);stroke-width:0.71px;stroke-linejoin:round;"/>
                        <rect id="rect6286" x="11.084" y="16.769" width="3.559" height="2.136" style="fill:none;stroke:rgb(136,138,133);stroke-width:0.71px;stroke-linejoin:round;"/>
                        <rect id="rect6288" x="18.203" y="16.769" width="3.559" height="2.136" style="fill:none;stroke:rgb(136,138,133);stroke-width:0.71px;stroke-linejoin:round;"/>
                        <rect id="rect6290" x="21.763" y="16.769" width="3.559" height="2.136" style="fill:none;stroke:rgb(136,138,133);stroke-width:0.71px;stroke-linejoin:round;"/>
                        <rect id="rect6294" x="7.525" y="18.905" width="3.559" height="2.136" style="fill:none;stroke:rgb(136,138,133);stroke-width:0.71px;stroke-linejoin:round;"/>
                        <rect id="rect6280" x="4.677" y="16.769" width="2.848" height="2.136" style="fill:rgb(112,138,173);stroke:rgb(32,74,136);stroke-width:0.71px;stroke-linejoin:round;"/>
                        <rect id="rect6296" x="14.644" y="18.905" width="3.559" height="2.136" style="fill:none;stroke:rgb(136,138,133);stroke-width:0.71px;stroke-linejoin:round;"/>
                        <rect id="rect6298" x="11.084" y="18.905" width="3.559" height="2.136" style="fill:none;stroke:rgb(136,138,133);stroke-width:0.71px;stroke-linejoin:round;"/>
                        <rect id="rect6300" x="18.203" y="18.905" width="3.559" height="2.136" style="fill:none;stroke:rgb(136,138,133);stroke-width:0.71px;stroke-linejoin:round;"/>
                        <rect id="rect6302" x="21.763" y="18.905" width="3.559" height="2.136" style="fill:none;stroke:rgb(136,138,133);stroke-width:0.71px;stroke-linejoin:round;"/>
                        <rect id="rect6306" x="7.525" y="21.04" width="3.559" height="2.136" style="fill:none;stroke:rgb(136,138,133);stroke-width:0.71px;stroke-linejoin:round;"/>
                        <rect id="rect6292" x="4.677" y="18.905" width="2.848" height="2.136" style="fill:rgb(112,138,173);stroke:rgb(32,74,136);stroke-width:0.71px;stroke-linejoin:round;"/>
                        <rect id="rect6308" x="14.644" y="21.04" width="3.559" height="2.136" style="fill:none;stroke:rgb(136,138,133);stroke-width:0.71px;stroke-linejoin:round;"/>
                        <rect id="rect6310" x="11.084" y="21.04" width="3.559" height="2.136" style="fill:none;stroke:rgb(136,138,133);stroke-width:0.71px;stroke-linejoin:round;"/>
                        <rect id="rect6312" x="18.203" y="21.04" width="3.559" height="2.136" style="fill:none;stroke:rgb(136,138,133);stroke-width:0.71px;stroke-linejoin:round;"/>
                        <rect id="rect6314" x="21.763" y="21.04" width="3.559" height="2.136" style="fill:none;stroke:rgb(136,138,133);stroke-width:0.71px;stroke-linejoin:round;"/>
                        <rect id="rect6320" x="7.525" y="23.176" width="3.559" height="2.136" style="fill:none;stroke:rgb(136,138,133);stroke-width:0.71px;stroke-linejoin:round;"/>
                        <rect id="rect6304" x="4.677" y="21.04" width="2.848" height="2.136" style="fill:rgb(112,138,173);stroke:rgb(32,74,136);stroke-width:0.71px;stroke-linejoin:round;"/>
                        <rect id="rect6316" x="4.677" y="23.176" width="2.848" height="2.136" style="fill:rgb(112,138,173);stroke:rgb(32,74,136);stroke-width:0.71px;stroke-linejoin:round;"/>
                        <rect id="rect6322" x="14.644" y="23.176" width="3.559" height="2.136" style="fill:none;stroke:rgb(136,138,133);stroke-width:0.71px;stroke-linejoin:round;"/>
                        <rect id="rect6324" x="11.084" y="23.176" width="3.559" height="2.136" style="fill:none;stroke:rgb(136,138,133);stroke-width:0.71px;stroke-linejoin:round;"/>
                        <rect id="rect6329" x="18.203" y="23.176" width="3.559" height="2.136" style="fill:none;stroke:rgb(136,138,133);stroke-width:0.71px;stroke-linejoin:round;"/>
                        <rect id="rect6331" x="21.763" y="23.176" width="3.559" height="2.136" style="fill:none;stroke:rgb(136,138,133);stroke-width:0.71px;stroke-linejoin:round;"/>
                    </g>
                </g>
            </g>
        </g>
    </g>
    <rect id="outer" x="0" y="0" width="30" height="30" style="fill:none;"/>
    <defs>
        <radialGradient id="_Radial1" cx="0" cy="0" r="1" gradientUnits="userSpaceOnUse" gradientTransform="matrix(51.2012,0,0,24.7954,19.0929,24.4219)"><stop offset="0" style="stop-color:rgb(246,246,245);stop-opacity:1"/><stop offset="1" style="stop-color:rgb(211,215,207);stop-opacity:1"/></radialGradient>
        <radialGradient id="_Radial2" cx="0" cy="0" r="1" gradientUnits="userSpaceOnUse" gradientTransform="matrix(22.8247,0,0,14.2377,0.761936,-0.671992)"><stop offset="0" style="stop-color:white;stop-opacity:0.68"/><stop offset="1" style="stop-color:white;stop-opacity:0"/></radialGradient>
        <linearGradient id="_Linear3" x1="0" y1="0" x2="1" y2="0" gradientUnits="userSpaceOnUse" gradientTransform="matrix(1.42644,-1.33746,1.33746,1.42644,21.5818,6.1381)"><stop offset="0" style="stop-color:white;stop-opacity:1"/><stop offset="1" style="stop-color:white;stop-opacity:0"/></linearGradient>
        <radialGradient id="_Radial4" cx="0" cy="0" r="1" gradientUnits="userSpaceOnUse" gradientTransform="matrix(2.04204,-1.40282,3.76503,5.48063,20.4747,5.00457)"><stop offset="0" style="stop-color:white;stop-opacity:1"/><stop offset="0.48" style="stop-color:white;stop-opacity:1"/><stop offset="1" style="stop-color:white;stop-opacity:0"/></radialGradient>
        <linearGradient id="_Linear5" x1="0" y1="0" x2="1" y2="0" gradientUnits="userSpaceOnUse" gradientTransform="matrix(-6.69761,1.97287,-1.97287,-6.69761,26.6802,6.07596)"><stop offset="0" style="stop-color:black;stop-opacity:0.36"/><stop offset="1" style="stop-color:black;stop-opacity:0"/></linearGradient>
        <linearGradient id="_Linear6" x1="0" y1="0" x2="1" y2="0" gradientUnits="userSpaceOnUse" gradientTransform="matrix(1.42377,-0.355942,0.355942,1.42377,19.6269,5.02308)"><stop offset="0" style="stop-color:rgb(114,159,207);stop-opacity:1"/><stop offset="1" style="stop-color:rgb(114,159,207);stop-opacity:0"/></linearGradient>
        <linearGradient id="_Linear7" x1="0" y1="0" x2="1" y2="0" gradientUnits="userSpaceOnUse" gradientTransform="matrix(1.06783,-0.355942,0.355942,1.06783,19.6269,3.95525)"><stop offset="0" style="stop-color:rgb(32,74,135);stop-opacity:1"/><stop offset="1" style="stop-color:rgb(32,74,135);stop-opacity:0"/></linearGradient>
    </defs>
</svg>
