<?xml version="1.0" encoding="UTF-8" standalone="no"?>
<!-- Created with Inkscape (http://www.inkscape.org/) -->

<svg
   version="1.1"
   id="svg1475"
   width="29.333332"
   height="29.333332"
   viewBox="0 0 29.333332 29.333332"
   sodipodi:docname="grid_sizer.svg"
   inkscape:version="1.1.2 (b8e25be833, 2022-02-05)"
   xmlns:inkscape="http://www.inkscape.org/namespaces/inkscape"
   xmlns:sodipodi="http://sodipodi.sourceforge.net/DTD/sodipodi-0.dtd"
   xmlns="http://www.w3.org/2000/svg"
   xmlns:svg="http://www.w3.org/2000/svg">
  <defs
     id="defs1479" />
  <sodipodi:namedview
     id="namedview1477"
     pagecolor="#ffffff"
     bordercolor="#666666"
     borderopacity="1.0"
     inkscape:pageshadow="2"
     inkscape:pageopacity="0.0"
     inkscape:pagecheckerboard="0"
     showgrid="false"
     inkscape:zoom="63.988639"
     inkscape:cx="14.658852"
     inkscape:cy="14.666666"
     inkscape:window-width="2664"
     inkscape:window-height="2086"
     inkscape:window-x="503"
     inkscape:window-y="44"
     inkscape:window-maximized="1"
     inkscape:current-layer="g1481" />
  <g
     inkscape:groupmode="layer"
     inkscape:label="Image"
     id="g1481">
    <g
       id="g1559">
      <path
         style="fill:#d0d0d0;fill-opacity:1;stroke-width:1.33333"
         d="M 2.6666665,13.999999 V 2.6666665 H 13.999999 25.333332 V 13.999999 25.333332 H 13.999999 2.6666665 Z m 5.3333331,8 v -2 H 5.9999997 3.9999998 v 2 2 h 1.9999999 1.9999999 z m 5.3333334,0 v -2 h -2 -2.0000001 v 2 2 h 2.0000001 2 z m 5.333333,0 v -2 h -2 -2 v 2 2 h 2 2 z m 5.333333,0 v -2 h -2 -2 v 2 2 h 2 2 z M 7.9999996,16.666666 v -2 H 5.9999997 3.9999998 v 2 2 h 1.9999999 1.9999999 z m 5.3333334,0 v -2 h -2 -2.0000001 v 2 2 h 2.0000001 2 z m 5.333333,0 v -2 h -2 -2 v 2 2 h 2 2 z m 5.333333,0 v -2 h -2 -2 v 2 2 h 2 2 z M 7.9999996,11.333333 V 9.3333329 H 5.9999997 3.9999998 v 2.0000001 2 h 1.9999999 1.9999999 z m 5.3333334,0 V 9.3333329 h -2 -2.0000001 v 2.0000001 2 h 2.0000001 2 z m 5.333333,0 V 9.3333329 h -2 -2 v 2.0000001 2 h 2 2 z m 5.333333,0 V 9.3333329 h -2 -2 v 2.0000001 2 h 2 2 z M 7.9999996,5.9999997 V 3.9999998 H 5.9999997 3.9999998 v 1.9999999 1.9999999 h 1.9999999 1.9999999 z m 5.3333334,0 V 3.9999998 h -2 -2.0000001 v 1.9999999 1.9999999 h 2.0000001 2 z m 5.333333,0 V 3.9999998 h -2 -2 v 1.9999999 1.9999999 h 2 2 z m 5.333333,0 V 3.9999998 h -2 -2 v 1.9999999 1.9999999 h 2 2 z"
         id="path1571" />
      <path
         style="fill:#b9b9b9;fill-opacity:1;stroke-width:1.33333"
         d="M 2.6666665,13.999999 V 2.6666665 H 13.999999 25.333332 V 13.999999 25.333332 H 13.999999 2.6666665 Z m 5.3333331,8 v -2 H 5.9999997 3.9999998 v 2 2 h 1.9999999 1.9999999 z m 5.3333334,0 v -2 h -2 -2.0000001 v 2 2 h 2.0000001 2 z m 5.333333,0 v -2 h -2 -2 v 2 2 h 2 2 z m 5.333333,0 v -2 h -2 -2 v 2 2 h 2 2 z M 7.9999996,16.666666 v -2 H 5.9999997 3.9999998 v 2 2 h 1.9999999 1.9999999 z m 5.3333334,0 v -2 h -2 -2.0000001 v 2 2 h 2.0000001 2 z m 5.333333,0 v -2 h -2 -2 v 2 2 h 2 2 z m 5.333333,0 v -2 h -2 -2 v 2 2 h 2 2 z M 7.9999996,11.333333 V 9.3333329 H 5.9999997 3.9999998 v 2.0000001 2 h 1.9999999 1.9999999 z m 5.3333334,0 V 9.3333329 h -2 -2.0000001 v 2.0000001 2 h 2.0000001 2 z m 5.333333,0 V 9.3333329 h -2 -2 v 2.0000001 2 h 2 2 z m 5.333333,0 V 9.3333329 h -2 -2 v 2.0000001 2 h 2 2 z M 7.9999996,5.9999997 V 3.9999998 H 5.9999997 3.9999998 v 1.9999999 1.9999999 h 1.9999999 1.9999999 z m 5.3333334,0 V 3.9999998 h -2 -2.0000001 v 1.9999999 1.9999999 h 2.0000001 2 z m 5.333333,0 V 3.9999998 h -2 -2 v 1.9999999 1.9999999 h 2 2 z m 5.333333,0 V 3.9999998 h -2 -2 v 1.9999999 1.9999999 h 2 2 z"
         id="path1569" />
      <path
         style="fill:#a3a3a3;fill-opacity:1;stroke-width:1.33333"
         d="M 2.6666665,13.999999 V 2.6666665 H 13.999999 25.333332 V 13.999999 25.333332 H 13.999999 2.6666665 Z m 5.3333331,8 v -2 H 5.9999997 3.9999998 v 2 2 h 1.9999999 1.9999999 z m 5.3333334,0 v -2 h -2 -2.0000001 v 2 2 h 2.0000001 2 z m 5.333333,0 v -2 h -2 -2 v 2 2 h 2 2 z m 5.333333,0 v -2 h -2 -2 v 2 2 h 2 2 z M 7.9999996,16.666666 v -2 H 5.9999997 3.9999998 v 2 2 h 1.9999999 1.9999999 z m 5.3333334,0 v -2 h -2 -2.0000001 v 2 2 h 2.0000001 2 z m 5.333333,0 v -2 h -2 -2 v 2 2 h 2 2 z m 5.333333,0 v -2 h -2 -2 v 2 2 h 2 2 z M 7.9999996,11.333333 V 9.3333329 H 5.9999997 3.9999998 v 2.0000001 2 h 1.9999999 1.9999999 z m 5.3333334,0 V 9.3333329 h -2 -2.0000001 v 2.0000001 2 h 2.0000001 2 z m 5.333333,0 V 9.3333329 h -2 -2 v 2.0000001 2 h 2 2 z m 5.333333,0 V 9.3333329 h -2 -2 v 2.0000001 2 h 2 2 z M 7.9999996,5.9999997 V 3.9999998 H 5.9999997 3.9999998 v 1.9999999 1.9999999 h 1.9999999 1.9999999 z m 5.3333334,0 V 3.9999998 h -2 -2.0000001 v 1.9999999 1.9999999 h 2.0000001 2 z m 5.333333,0 V 3.9999998 h -2 -2 v 1.9999999 1.9999999 h 2 2 z m 5.333333,0 V 3.9999998 h -2 -2 v 1.9999999 1.9999999 h 2 2 z"
         id="path1567" />
      <path
         style="fill:#8c8c8c;fill-opacity:1;stroke-width:1.33333"
         d="M 2.6666665,13.999999 V 2.6666665 H 13.999999 25.333332 V 13.999999 25.333332 H 13.999999 2.6666665 Z m 5.3333331,8 v -2 H 5.9999997 3.9999998 v 2 2 h 1.9999999 1.9999999 z m 5.3333334,0 v -2 h -2 -2.0000001 v 2 2 h 2.0000001 2 z m 5.333333,0 v -2 h -2 -2 v 2 2 h 2 2 z m 5.333333,0 v -2 h -2 -2 v 2 2 h 2 2 z M 7.9999996,16.666666 v -2 H 5.9999997 3.9999998 v 2 2 h 1.9999999 1.9999999 z m 5.3333334,0 v -2 h -2 -2.0000001 v 2 2 h 2.0000001 2 z m 5.333333,0 v -2 h -2 -2 v 2 2 h 2 2 z m 5.333333,0 v -2 h -2 -2 v 2 2 h 2 2 z M 7.9999996,11.333333 V 9.3333329 H 5.9999997 3.9999998 v 2.0000001 2 h 1.9999999 1.9999999 z m 5.3333334,0 V 9.3333329 h -2 -2.0000001 v 2.0000001 2 h 2.0000001 2 z m 5.333333,0 V 9.3333329 h -2 -2 v 2.0000001 2 h 2 2 z m 5.333333,0 V 9.3333329 h -2 -2 v 2.0000001 2 h 2 2 z M 7.9999996,5.9999997 V 3.9999998 H 5.9999997 3.9999998 v 1.9999999 1.9999999 h 1.9999999 1.9999999 z m 5.3333334,0 V 3.9999998 h -2 -2.0000001 v 1.9999999 1.9999999 h 2.0000001 2 z m 5.333333,0 V 3.9999998 h -2 -2 v 1.9999999 1.9999999 h 2 2 z m 5.333333,0 V 3.9999998 h -2 -2 v 1.9999999 1.9999999 h 2 2 z"
         id="path1565" />
      <path
         style="fill:#767676;fill-opacity:1;stroke-width:1.33333"
         d="M 2.6666665,13.999999 V 2.6666665 H 13.999999 25.333332 V 13.999999 25.333332 H 13.999999 2.6666665 Z m 5.3333331,8 v -2 H 5.9999997 3.9999998 v 2 2 h 1.9999999 1.9999999 z m 5.3333334,0 v -2 h -2 -2.0000001 v 2 2 h 2.0000001 2 z m 5.333333,0 v -2 h -2 -2 v 2 2 h 2 2 z m 5.333333,0 v -2 h -2 -2 v 2 2 h 2 2 z M 7.9999996,16.666666 v -2 H 5.9999997 3.9999998 v 2 2 h 1.9999999 1.9999999 z m 5.3333334,0 v -2 h -2 -2.0000001 v 2 2 h 2.0000001 2 z m 5.333333,0 v -2 h -2 -2 v 2 2 h 2 2 z m 5.333333,0 v -2 h -2 -2 v 2 2 h 2 2 z M 7.9999996,11.333333 V 9.3333329 H 5.9999997 3.9999998 v 2.0000001 2 h 1.9999999 1.9999999 z m 5.3333334,0 V 9.3333329 h -2 -2.0000001 v 2.0000001 2 h 2.0000001 2 z m 5.333333,0 V 9.3333329 h -2 -2 v 2.0000001 2 h 2 2 z m 5.333333,0 V 9.3333329 h -2 -2 v 2.0000001 2 h 2 2 z M 7.9999996,5.9999997 V 3.9999998 H 5.9999997 3.9999998 v 1.9999999 1.9999999 h 1.9999999 1.9999999 z m 5.3333334,0 V 3.9999998 h -2 -2.0000001 v 1.9999999 1.9999999 h 2.0000001 2 z m 5.333333,0 V 3.9999998 h -2 -2 v 1.9999999 1.9999999 h 2 2 z m 5.333333,0 V 3.9999998 h -2 -2 v 1.9999999 1.9999999 h 2 2 z"
         id="path1563" />
      <path
         style="fill:#606060;fill-opacity:1;stroke-width:1.33333"
         d="M 2.6666665,13.999999 V 2.6666665 H 13.999999 25.333332 V 13.999999 25.333332 H 13.999999 2.6666665 Z m 5.3333331,8 v -2 H 5.9999997 3.9999998 v 2 2 h 1.9999999 1.9999999 z m 5.3333334,0 v -2 h -2 -2.0000001 v 2 2 h 2.0000001 2 z m 5.333333,0 v -2 h -2 -2 v 2 2 h 2 2 z m 5.333333,0 v -2 h -2 -2 v 2 2 h 2 2 z M 7.9999996,16.666666 v -2 H 5.9999997 3.9999998 v 2 2 h 1.9999999 1.9999999 z m 5.3333334,0 v -2 h -2 -2.0000001 v 2 2 h 2.0000001 2 z m 5.333333,0 v -2 h -2 -2 v 2 2 h 2 2 z m 5.333333,0 v -2 h -2 -2 v 2 2 h 2 2 z M 7.9999996,11.333333 V 9.3333329 H 5.9999997 3.9999998 v 2.0000001 2 h 1.9999999 1.9999999 z m 5.3333334,0 V 9.3333329 h -2 -2.0000001 v 2.0000001 2 h 2.0000001 2 z m 5.333333,0 V 9.3333329 h -2 -2 v 2.0000001 2 h 2 2 z m 5.333333,0 V 9.3333329 h -2 -2 v 2.0000001 2 h 2 2 z M 7.9999996,5.9999997 V 3.9999998 H 5.9999997 3.9999998 v 1.9999999 1.9999999 h 1.9999999 1.9999999 z m 5.3333334,0 V 3.9999998 h -2 -2.0000001 v 1.9999999 1.9999999 h 2.0000001 2 z m 5.333333,0 V 3.9999998 h -2 -2 v 1.9999999 1.9999999 h 2 2 z m 5.333333,0 V 3.9999998 h -2 -2 v 1.9999999 1.9999999 h 2 2 z"
         id="path1561" />
    </g>
    <path
       style="fill:#ff0000;stroke-width:0.0156524"
       d="M 2.6801633,14.002486 V 2.6801633 H 14.002486 25.324808 V 14.002486 25.324808 H 14.002486 2.6801633 Z m 5.3290709,8.00142 V 19.995737 H 6.0010653 3.9928963 v 2.008169 2.008169 h 2.008169 2.0081689 z m 5.3290708,0 V 19.995737 H 11.330136 9.3219673 v 1.99775 c 0,1.098764 0.00469,2.00244 0.010419,2.008169 0.00573,0.0057 0.9094067,0.01042 2.0081697,0.01042 h 1.99775 z m 5.329071,0 v -2.008169 h -2.000355 -2.000355 v 2.008169 2.008169 h 2.000355 2.000355 z m 5.340851,-0.0039 0.004,-2.004262 H 22.003998 19.99577 v 2.008228 2.008229 l 2.004262,-0.004 2.004262,-0.004 z M 8.0092342,16.667021 V 14.666666 H 6.0010653 3.9928963 v 2.000355 2.000355 h 2.008169 2.0081689 z m 5.3290708,0 V 14.666666 H 11.330136 9.3219673 v 2.000355 2.000355 h 2.0081687 2.008169 z m 5.329071,0 v -2.000355 h -2.000355 -2.000355 v 2.000355 2.000355 h 2.000355 2.000355 z m 5.344699,0 v -2.000355 h -2.008169 -2.008169 v 2.000355 2.000355 h 2.008169 2.008169 z M 8.0092342,11.330136 V 9.3219673 H 6.0010653 3.9928963 v 2.0081687 2.008169 h 2.008169 2.0081689 z m 5.3290708,0 V 9.3219673 H 11.330136 9.3219673 v 2.0081687 2.008169 h 2.0081687 2.008169 z m 5.329071,0 V 9.3219673 h -2.000355 -2.000355 v 2.0081687 2.008169 h 2.000355 2.000355 z m 5.340851,0.0039 -0.004,-2.0042618 -2.004262,-0.00397 -2.004262,-0.00397 v 2.0082278 2.008228 h 2.008228 2.008229 z M 8.0092342,6.0010653 V 3.9928963 H 6.0010653 3.9928963 v 2.008169 2.0081689 h 2.008169 2.0081689 z m 5.3290708,0 V 3.9928963 H 11.330136 9.3219673 v 2.008169 2.0081689 h 2.0081687 2.008169 z m 5.329071,0 v -2.008169 h -2.000355 -2.000355 v 2.008169 2.0081689 h 2.000355 2.000355 z m 5.344699,0 v -2.008169 h -2.008169 -2.008169 v 2.008169 2.0081689 h 2.008169 2.008169 z"
       id="path1656" />
  </g>
</svg>
