<?xml version="1.0" encoding="UTF-8" standalone="no"?>
<!DOCTYPE svg PUBLIC "-//W3C//DTD SVG 1.1//EN" "http://www.w3.org/Graphics/SVG/1.1/DTD/svg11.dtd">
<svg width="30px" height="30px" version="1.1" xmlns="http://www.w3.org/2000/svg" xmlns:xlink="http://www.w3.org/1999/xlink" xml:space="preserve" xmlns:serif="http://www.serif.com/" style="fill-rule:evenodd;clip-rule:evenodd;stroke-linejoin:round;stroke-miterlimit:2;">
    <g id="group1">
        <path id="path60" d="M29.761,14.229C29.711,14.156 29.448,13.777 28.999,13.208C28.924,13.113 28.844,13.013 28.759,12.908C28.674,12.804 28.584,12.694 28.489,12.58C28.394,12.467 28.295,12.349 28.19,12.228C27.563,11.499 26.764,10.64 25.822,9.768C25.665,9.623 25.504,9.477 25.339,9.332C25.174,9.186 25.006,9.041 24.833,8.896C24.316,8.463 23.765,8.036 23.184,7.63C22.991,7.495 22.794,7.362 22.594,7.232C22.093,6.907 21.573,6.6 21.035,6.32C20.819,6.208 20.601,6.101 20.38,5.998C20.049,5.843 19.711,5.7 19.368,5.569C19.139,5.482 18.908,5.4 18.674,5.325C18.323,5.212 17.967,5.112 17.605,5.029C17.485,5.001 17.364,4.975 17.242,4.951C16.999,4.902 16.754,4.861 16.507,4.828C16.012,4.761 15.51,4.725 15,4.725L14.999,4.725C14.99,4.725 14.981,4.726 14.972,4.726C14.727,4.726 14.482,4.735 14.24,4.751C14.237,4.752 14.233,4.752 14.23,4.752C14.108,4.761 13.986,4.771 13.865,4.783C13.863,4.784 13.86,4.784 13.858,4.784C13.487,4.822 13.119,4.879 12.757,4.951C12.743,4.954 12.73,4.957 12.716,4.96C12.609,4.982 12.501,5.004 12.394,5.029C12.383,5.032 12.372,5.035 12.361,5.037C12.251,5.063 12.143,5.089 12.034,5.118C12.033,5.118 12.032,5.118 12.03,5.119C10.123,5.619 8.362,6.549 6.815,7.63C6.806,7.636 6.798,7.642 6.789,7.649C6.604,7.778 6.423,7.909 6.244,8.043C6.224,8.058 6.205,8.073 6.185,8.088C5.925,8.282 5.673,8.48 5.427,8.68L5.427,8.681C4.81,9.184 4.239,9.699 3.718,10.203C3.701,10.219 3.685,10.235 3.668,10.251C2.839,11.058 2.139,11.833 1.592,12.484C1.541,12.544 1.491,12.603 1.443,12.662C0.831,13.399 0.435,13.949 0.291,14.153C0.277,14.173 0.265,14.191 0.255,14.205C0.248,14.215 0.243,14.223 0.238,14.229C-0.08,14.694 -0.08,15.306 0.238,15.771C0.243,15.777 0.248,15.785 0.255,15.795C0.265,15.808 0.277,15.826 0.291,15.847C0.307,15.868 0.325,15.894 0.346,15.924C0.356,15.938 0.367,15.953 0.379,15.969C0.536,16.188 0.816,16.566 1.206,17.048C1.23,17.079 1.256,17.11 1.281,17.142C1.333,17.205 1.387,17.271 1.443,17.338C1.491,17.397 1.541,17.456 1.592,17.516C2.285,18.339 3.222,19.364 4.358,20.397C4.378,20.415 4.396,20.432 4.416,20.45C4.737,20.74 5.074,21.031 5.426,21.318C5.426,21.319 5.427,21.319 5.427,21.319C6.472,22.172 7.647,22.989 8.922,23.657C8.936,23.664 8.95,23.672 8.964,23.679C9.932,24.183 10.958,24.6 12.03,24.881C12.032,24.881 12.033,24.882 12.034,24.882C12.262,24.942 12.493,24.995 12.725,25.042C12.736,25.044 12.746,25.047 12.757,25.049C12.877,25.073 12.998,25.095 13.119,25.116L13.123,25.116C13.366,25.157 13.611,25.19 13.858,25.216L13.865,25.216C13.986,25.229 14.108,25.239 14.23,25.248C14.233,25.248 14.237,25.248 14.24,25.249C14.482,25.265 14.727,25.274 14.972,25.274C14.981,25.274 14.99,25.275 14.999,25.275L15,25.275C15.51,25.275 16.012,25.239 16.507,25.172C16.754,25.139 16.999,25.098 17.242,25.049C17.364,25.025 17.485,24.999 17.605,24.971C17.967,24.888 18.323,24.788 18.674,24.675C18.908,24.6 19.139,24.518 19.368,24.431C19.711,24.3 20.049,24.157 20.38,24.002C20.601,23.899 20.82,23.791 21.035,23.679C21.573,23.399 22.093,23.093 22.594,22.768C22.794,22.638 22.991,22.505 23.184,22.37C23.765,21.964 24.316,21.537 24.833,21.103C25.006,20.959 25.174,20.814 25.339,20.668C25.504,20.523 25.665,20.377 25.822,20.232C26.764,19.36 27.563,18.501 28.19,17.772C28.295,17.651 28.394,17.533 28.489,17.419C28.584,17.306 28.674,17.196 28.759,17.091C28.844,16.986 28.924,16.886 28.999,16.792C29.448,16.223 29.711,15.843 29.761,15.77C30.079,15.306 30.079,14.694 29.761,14.229Z" style="fill:rgb(119,117,127);fill-rule:nonzero;"/>
        <path id="path64" d="M15,11.213C12.908,11.213 11.212,12.907 11.212,15C11.212,17.093 12.908,18.787 15,18.787C17.091,18.787 18.788,17.093 18.788,15C18.788,12.907 17.091,11.213 15,11.213Z" style="fill:rgb(34,34,36);fill-rule:nonzero;"/>
        <path id="path68" d="M15,7.452L14.999,7.452C9.504,7.453 4.685,12.936 3.066,14.999C4.687,17.06 9.519,22.547 14.999,22.547L15,22.547C20.478,22.547 25.309,17.063 26.932,15C25.31,12.938 20.478,7.452 15,7.452ZM15,18.787L14.999,18.787C12.907,18.786 11.212,17.093 11.212,15C11.212,12.907 12.907,11.214 14.999,11.213L15,11.213C17.091,11.213 18.788,12.907 18.788,15C18.788,17.093 17.091,18.787 15,18.787Z" style="fill:rgb(189,253,255);fill-rule:nonzero;"/>
        <path id="path70" d="M3.066,14.999C4.687,17.06 9.519,22.547 14.999,22.547L14.999,18.787C12.907,18.786 11.212,17.093 11.212,15C11.212,12.907 12.907,11.214 14.999,11.213L14.999,7.452C9.504,7.453 4.684,12.936 3.066,14.999Z" style="fill:rgb(155,201,255);fill-rule:nonzero;"/>
        <path id="path72" d="M3.066,14.999C4.684,12.936 9.503,7.453 14.999,7.452L14.999,4.725C6.843,4.726 0.504,13.841 0.238,14.229C-0.08,14.694 -0.08,15.306 0.238,15.771C0.504,16.159 6.843,25.274 14.999,25.275L14.999,22.548C9.519,22.547 4.687,17.06 3.066,14.999Z" style="fill:rgb(87,87,92);fill-rule:nonzero;"/>
        <path id="path74" d="M11.212,15C11.212,17.093 12.907,18.786 14.999,18.787L14.999,11.213C12.907,11.214 11.212,12.907 11.212,15Z" style="fill:rgb(61,109,235);fill-rule:nonzero;"/>
    </g>
    <rect id="outer" x="0" y="0" width="30" height="30" style="fill:none;"/>
</svg>
