<?xml version="1.0" encoding="UTF-8" standalone="no"?>
<svg
   version="1.1"
   id="Layer_1"
   x="0px"
   y="0px"
   viewBox="0 0 512 512"
   style="enable-background:new 0 0 512 512;"
   xml:space="preserve"
   sodipodi:docname="hidden.svg"
   inkscape:version="1.1.2 (b8e25be833, 2022-02-05)"
   xmlns:inkscape="http://www.inkscape.org/namespaces/inkscape"
   xmlns:sodipodi="http://sodipodi.sourceforge.net/DTD/sodipodi-0.dtd"
   xmlns="http://www.w3.org/2000/svg"
   xmlns:svg="http://www.w3.org/2000/svg"><defs
   id="defs109" /><sodipodi:namedview
   id="namedview107"
   pagecolor="#ffffff"
   bordercolor="#666666"
   borderopacity="1.0"
   inkscape:pageshadow="2"
   inkscape:pageopacity="0.0"
   inkscape:pagecheckerboard="0"
   showgrid="false"
   inkscape:zoom="1.3071808"
   inkscape:cx="255.51171"
   inkscape:cy="255.89421"
   inkscape:window-width="3840"
   inkscape:window-height="2102"
   inkscape:window-x="-8"
   inkscape:window-y="32"
   inkscape:window-maximized="1"
   inkscape:current-layer="g104"><inkscape:grid
     type="xygrid"
     id="grid106" /></sodipodi:namedview>
<g
   id="g104"
   transform="translate(-0.005,39.372)"><path
     style="display:inline;fill:#77757f"
     d="m 507.926,242.845 c -0.85,-1.241 -5.347,-7.72 -13.006,-17.428 -1.277,-1.618 -2.641,-3.325 -4.091,-5.114 -1.451,-1.789 -2.987,-3.657 -4.606,-5.596 -1.62,-1.939 -3.322,-3.95 -5.108,-6.023 -10.705,-12.435 -24.337,-27.096 -40.415,-41.975 -2.679,-2.479 -5.427,-4.966 -8.24,-7.449 -2.813,-2.482 -5.693,-4.962 -8.636,-7.429 -8.828,-7.401 -18.229,-14.688 -28.14,-21.613 -3.305,-2.309 -6.665,-4.575 -10.08,-6.794 -8.538,-5.545 -17.419,-10.78 -26.605,-15.557 -3.676,-1.911 -7.399,-3.75 -11.169,-5.506 -5.657,-2.634 -11.418,-5.084 -17.278,-7.317 -3.907,-1.488 -7.857,-2.881 -11.849,-4.167 -5.987,-1.93 -12.068,-3.624 -18.233,-5.049 -2.056,-0.475 -4.121,-0.92 -6.194,-1.334 -4.149,-0.829 -8.333,-1.531 -12.553,-2.102 -8.439,-1.14 -17.019,-1.749 -25.716,-1.749 -0.005,0 -0.009,0 -0.012,0 -0.155,0 -0.307,0.008 -0.462,0.008 -4.194,0.011 -8.361,0.155 -12.496,0.439 -0.057,0.005 -0.115,0.011 -0.172,0.014 -2.085,0.146 -4.164,0.321 -6.234,0.534 -0.039,0.005 -0.076,0.009 -0.113,0.014 -6.343,0.652 -12.611,1.609 -18.795,2.844 -0.231,0.047 -0.459,0.102 -0.69,0.149 -1.842,0.374 -3.677,0.763 -5.505,1.185 -0.191,0.043 -0.379,0.096 -0.568,0.14 -1.863,0.436 -3.722,0.889 -5.57,1.373 -0.022,0.006 -0.043,0.012 -0.065,0.019 -32.552,8.54 -62.602,24.408 -89.015,42.861 -0.147,0.102 -0.292,0.208 -0.438,0.312 -3.151,2.208 -6.254,4.451 -9.3,6.724 -0.343,0.256 -0.676,0.515 -1.018,0.771 -4.422,3.323 -8.737,6.701 -12.923,10.116 -0.005,0.003 -0.008,0.006 -0.012,0.009 -10.515,8.578 -20.264,17.368 -29.156,25.968 -0.287,0.278 -0.563,0.552 -0.849,0.83 -14.162,13.765 -26.103,27.004 -35.444,38.099 -0.869,1.033 -1.716,2.045 -2.54,3.039 -10.435,12.589 -17.2,21.965 -19.653,25.459 -0.24,0.343 -0.455,0.65 -0.613,0.877 -0.121,0.175 -0.217,0.315 -0.289,0.419 -5.43,7.927 -5.43,18.378 0,26.306 0.071,0.104 0.168,0.244 0.289,0.419 0.157,0.227 0.372,0.534 0.613,0.877 0.262,0.374 0.574,0.815 0.936,1.32 0.172,0.242 0.358,0.501 0.554,0.773 2.684,3.736 7.461,10.183 14.114,18.418 0.422,0.523 0.853,1.053 1.291,1.59 0.889,1.091 1.811,2.211 2.76,3.357 0.824,0.995 1.671,2.008 2.54,3.039 11.827,14.047 27.826,31.538 47.214,49.168 0.329,0.299 0.65,0.597 0.981,0.897 5.486,4.96 11.239,9.925 17.24,14.823 0.008,0.006 0.016,0.012 0.023,0.019 17.838,14.553 37.879,28.494 59.651,39.894 0.239,0.126 0.475,0.256 0.714,0.382 16.517,8.591 34.028,15.708 52.328,20.509 0.022,0.006 0.043,0.012 0.065,0.019 3.894,1.021 7.827,1.929 11.792,2.731 0.182,0.037 0.362,0.081 0.543,0.116 2.053,0.41 4.113,0.788 6.184,1.136 0.022,0.003 0.043,0.008 0.065,0.012 4.147,0.695 8.33,1.263 12.546,1.696 0.039,0.005 0.076,0.009 0.113,0.014 2.07,0.211 4.149,0.388 6.234,0.534 0.057,0.005 0.115,0.011 0.172,0.014 4.135,0.284 8.302,0.428 12.496,0.439 0.154,0 0.307,0.008 0.462,0.008 0.005,0 0.009,0 0.012,0 8.699,0 17.278,-0.608 25.716,-1.749 4.22,-0.571 8.405,-1.274 12.553,-2.102 2.074,-0.414 4.139,-0.86 6.194,-1.334 6.166,-1.424 12.246,-3.117 18.233,-5.049 3.992,-1.286 7.942,-2.679 11.849,-4.169 5.86,-2.233 11.621,-4.682 17.278,-7.317 3.77,-1.756 7.495,-3.595 11.169,-5.506 9.187,-4.779 18.067,-10.013 26.605,-15.559 3.415,-2.219 6.775,-4.485 10.08,-6.794 9.911,-6.924 19.312,-14.212 28.14,-21.613 2.943,-2.467 5.821,-4.946 8.636,-7.429 2.814,-2.482 5.561,-4.968 8.24,-7.449 16.078,-14.879 29.71,-29.541 40.415,-41.976 1.784,-2.073 3.488,-4.084 5.108,-6.023 1.62,-1.939 3.156,-3.807 4.606,-5.596 1.451,-1.789 2.814,-3.496 4.091,-5.114 7.66,-9.708 12.155,-16.187 13.006,-17.428 5.432,-7.924 5.432,-18.376 0,-26.304 z"
     id="path60" /><path
     style="display:inline;fill:#222224"
     d="m 256.005,191.371 c -35.708,0 -64.652,28.9 -64.652,64.627 0,35.728 28.944,64.628 64.652,64.628 35.685,0 64.65,-28.9 64.65,-64.628 0,-35.726 -28.965,-64.627 -64.65,-64.627 z"
     id="path64" /><path
     style="display:inline;fill:#bdfdff"
     d="m 256.005,127.188 c -0.005,0 -0.009,0 -0.012,0 -93.792,0.008 -176.038,93.58 -203.66,128.79 27.668,35.174 110.131,128.824 203.66,128.832 0.005,0 0.009,0 0.012,0 93.488,0 175.942,-93.603 203.647,-128.813 C 431.959,220.804 349.499,127.188 256.005,127.188 Z m 0,193.44 c -0.005,0 -0.008,0 -0.012,0 -35.702,-0.008 -64.639,-28.905 -64.639,-64.628 0,-35.723 28.937,-64.621 64.639,-64.627 0.005,0 0.008,0 0.012,0 35.685,0 64.65,28.9 64.65,64.627 0,35.728 -28.965,64.628 -64.65,64.628 z"
     id="path68" /><path
     style="display:inline;fill:#9bc9ff"
     d="m 52.331,255.978 c 27.668,35.174 110.131,128.824 203.66,128.832 v -64.183 c -35.702,-0.008 -64.639,-28.905 -64.639,-64.628 0,-35.723 28.937,-64.621 64.639,-64.627 V 127.189 C 162.2,127.198 79.953,220.768 52.331,255.978 Z"
     id="path70" /><path
     style="display:inline;fill:#57575c"
     d="m 52.331,255.978 c 27.622,-35.21 109.867,-128.782 203.66,-128.79 V 80.643 C 116.784,80.652 8.611,236.223 4.073,242.846 c -5.43,7.927 -5.43,18.378 0,26.306 4.538,6.622 112.711,162.194 251.919,162.205 V 384.812 C 162.464,384.802 80.001,291.154 52.331,255.978 Z"
     id="path72" /><path
     style="display:inline;fill:#3d6deb"
     d="m 191.353,255.998 c 0,35.724 28.937,64.622 64.639,64.628 V 191.371 c -35.702,0.008 -64.639,28.905 -64.639,64.627 z"
     id="path74" /></g></svg>
