<?xml version="1.0" encoding="UTF-8" standalone="no"?>
<!DOCTYPE svg PUBLIC "-//W3C//DTD SVG 1.1//EN" "http://www.w3.org/Graphics/SVG/1.1/DTD/svg11.dtd">
<svg width="30px" height="30px" version="1.1" xmlns="http://www.w3.org/2000/svg" xmlns:xlink="http://www.w3.org/1999/xlink" xml:space="preserve" xmlns:serif="http://www.serif.com/" style="fill-rule:evenodd;clip-rule:evenodd;stroke-linejoin:round;stroke-miterlimit:2;">
    <path d="M19.341,10.659C16.943,8.262 13.057,8.262 10.659,10.659C8.262,13.057 8.262,16.943 10.659,19.341C13.057,21.738 16.943,21.738 19.341,19.341L15,15L19.341,10.659Z" style="fill:rgb(206,232,250);fill-rule:nonzero;"/>
    <path d="M29.854,14.533C29.735,14.362 27.154,10.681 23.212,7.946L25.398,5.759C25.718,5.44 25.718,4.921 25.398,4.602C25.079,4.282 24.561,4.282 24.241,4.602L21.796,7.046C19.495,5.713 17.209,5.036 15,5.036C11.594,5.036 7.938,6.689 4.428,9.816C1.819,12.14 0.213,14.437 0.146,14.533C-0.049,14.814 -0.049,15.186 0.146,15.467C0.213,15.563 1.819,17.86 4.428,20.184C5.209,20.88 5.999,21.503 6.79,22.052L4.602,24.241C4.282,24.56 4.282,25.079 4.602,25.398C4.761,25.558 4.971,25.638 5.18,25.638C5.39,25.638 5.599,25.558 5.759,25.398L8.207,22.95C10.504,24.276 12.804,24.964 15,24.964C18.383,24.964 22.014,23.333 25.502,20.246C25.841,19.947 25.872,19.429 25.573,19.091C25.273,18.752 24.756,18.721 24.417,19.02C22.197,20.985 18.761,23.328 15,23.328C13.017,23.328 11.12,22.686 9.407,21.75L10.694,20.463C11.952,21.456 13.475,21.954 15,21.954C16.781,21.954 18.563,21.276 19.919,19.92C20.239,19.6 20.239,19.082 19.919,18.762L16.157,15L22.033,9.124C25.868,11.708 28.481,15.427 28.509,15.467C28.767,15.838 29.277,15.93 29.648,15.673C30.02,15.415 30.112,14.905 29.854,14.533ZM1.838,14.999C3.234,13.179 8.672,6.672 15,6.672C16.798,6.672 18.678,7.203 20.594,8.248L19.305,9.537C16.577,7.384 12.597,7.564 10.081,10.081C7.564,12.597 7.384,16.577 9.537,19.305L7.97,20.872C4.938,18.828 2.67,16.082 1.838,14.999ZM18.139,19.296C16.277,20.658 13.724,20.657 11.862,19.295L15,16.157L18.139,19.296ZM14.421,14.421L10.704,18.138C9.183,16.059 9.361,13.115 11.238,11.238C12.275,10.201 13.638,9.682 15,9.682C16.104,9.682 17.208,10.023 18.139,10.704L14.421,14.421Z" style="fill:rgb(45,82,124);fill-rule:nonzero;"/>
    <rect id="outer" x="0" y="0" width="30" height="30" style="fill:none;"/>
</svg>
