<?xml version="1.0" encoding="UTF-8" standalone="no"?>
<!DOCTYPE svg PUBLIC "-//W3C//DTD SVG 1.1//EN" "http://www.w3.org/Graphics/SVG/1.1/DTD/svg11.dtd">
<svg width="30px" height="30px" version="1.1" xmlns="http://www.w3.org/2000/svg" xmlns:xlink="http://www.w3.org/1999/xlink" xml:space="preserve" xmlns:serif="http://www.serif.com/" style="fill-rule:evenodd;clip-rule:evenodd;">
    <g id="g13370">
        <g id="Text">
            <g id="g133701" serif:id="g13370">
                <path id="path5166" d="M3.982,0.362L17.491,0.362C20.251,0.414 22.118,2.154 23.898,3.946C25.678,5.738 27.179,7.712 27.458,10.398L27.458,28.302C27.458,29.105 26.815,29.753 26.017,29.753L3.982,29.753C3.184,29.753 2.542,29.105 2.542,28.302L2.542,1.813C2.542,1.009 3.184,0.362 3.982,0.362Z" style="fill:url(#_Radial1);fill-rule:nonzero;stroke:black;stroke-width:0.71px;"/>
                <g id="path5168">
                    <path d="M3.987,0.72C3.377,0.72 2.898,1.203 2.898,1.818L2.898,28.297C2.898,28.912 3.377,29.394 3.987,29.394L26.012,29.394C26.623,29.394 27.102,28.912 27.102,28.297L27.102,10.398C27.102,9.4 26.755,7.316 25.433,5.985C24.009,4.551 23.297,3.834 21.874,2.4C20.552,1.069 18.482,0.72 17.491,0.72L3.987,0.72Z" style="fill:url(#_Radial2);fill-rule:nonzero;"/>
                </g>
                <g id="path5174">
                    <path d="M3.987,1.079C3.572,1.079 3.254,1.4 3.254,1.818L3.254,28.297C3.254,28.715 3.572,29.036 3.987,29.036L26.012,29.036C26.427,29.036 26.746,28.715 26.746,28.297L26.746,10.398C26.746,9.481 26.404,7.455 25.188,6.231C23.764,4.797 23.052,4.08 21.629,2.647C20.413,1.422 18.402,1.079 17.491,1.079L3.987,1.079Z" style="fill:none;fill-rule:nonzero;stroke:url(#_Linear3);stroke-width:0.71px;"/>
                </g>
                <path id="path5170" d="M17.491,0.72C16.502,0.72 17.461,1.077 18.448,1.527C19.435,1.977 21.988,3.831 21.407,6.455C24.484,6.146 26.161,8.693 26.39,9.524C26.618,10.354 27.102,11.394 27.102,10.398C27.122,7.67 25.076,5.787 23.653,4.193C22.231,2.598 20.092,1.062 17.491,0.72Z" style="fill:url(#_Radial4);fill-rule:nonzero;"/>
                <path id="path5172" d="M18.275,1.448C18.931,1.448 20.416,5.888 19.76,8.852C22.818,8.546 26.062,8.915 26.39,9.524C26.161,8.693 24.484,6.146 21.407,6.455C22.022,3.677 19.138,1.711 18.275,1.448Z" style="fill:url(#_Linear5);fill-rule:nonzero;"/>
            </g>
        </g>
    </g>
    <g id="globe">
        <g id="g8936">
            <path id="path6495" d="M24,17.932C24,22.866 20.001,26.865 15.068,26.865C10.135,26.865 6.136,22.866 6.136,17.932C6.136,12.999 10.135,9 15.068,9C20.001,9 24,12.999 24,17.932Z" style="fill:url(#_Radial6);fill-rule:nonzero;stroke:rgb(32,74,135);stroke-width:0.45px;"/>
            <path id="path8655" d="M23.508,17.932C23.508,22.594 19.729,26.373 15.068,26.373C10.406,26.373 6.628,22.594 6.628,17.932C6.628,13.271 10.406,9.492 15.068,9.492C19.729,9.492 23.508,13.271 23.508,17.932Z" style="fill:none;fill-rule:nonzero;stroke:url(#_Linear7);stroke-width:0.45px;"/>
            <path id="path6534" d="M15.468,11.435L15.434,11.659L15.665,11.808L16.059,11.547L15.862,11.324L15.599,11.473L15.468,11.435" style="fill:rgb(157,176,41);fill-rule:nonzero;stroke:url(#_Radial8);stroke-width:0.45px;"/>
            <path id="path6558" d="M16.422,12.962L16.357,13.409L16.719,13.334L16.982,13.074L16.751,12.85C16.674,12.644 16.585,12.452 16.488,12.255L16.291,12.255L16.291,12.478L16.422,12.627L16.422,12.962" style="fill:rgb(157,176,41);fill-rule:nonzero;"/>
            <clipPath id="_clip9">
                <path d="M16.422,12.962L16.357,13.409L16.719,13.334L16.982,13.074L16.751,12.85C16.674,12.644 16.585,12.452 16.488,12.255L16.291,12.255L16.291,12.478L16.422,12.627L16.422,12.962" clip-rule="nonzero"/>
            </clipPath>
            <g clip-path="url(#_clip9)">
                <path id="path6550" d="M16.121,13.037L15.989,12.701L15.758,12.776L15.825,13.185L16.121,13.037" style="fill:rgb(157,176,41);fill-rule:nonzero;stroke:url(#_Radial10);stroke-width:0.45px;"/>
            </g>
            <path d="M16.422,12.962L16.357,13.409L16.719,13.334L16.982,13.074L16.751,12.85C16.674,12.644 16.585,12.452 16.488,12.255L16.291,12.255L16.291,12.478L16.422,12.627L16.422,12.962" style="fill:none;fill-rule:nonzero;stroke:url(#_Radial11);stroke-width:0.45px;"/>
            <path id="path6574" d="M11.257,11.584L11.586,11.808L11.849,11.808L11.849,11.547L11.52,11.398L11.257,11.584" style="fill:rgb(157,176,41);fill-rule:nonzero;stroke:url(#_Radial12);stroke-width:0.45px;"/>
            <path id="path6610" d="M12.14,10.868L12.305,10.719L12.634,10.644C12.859,10.535 13.085,10.461 13.325,10.384L13.193,10.16L12.769,10.221L12.568,10.421L12.237,10.469L11.943,10.607L11.8,10.676L11.713,10.793L12.14,10.868" style="fill:rgb(157,176,41);fill-rule:nonzero;stroke:url(#_Radial13);stroke-width:0.45px;"/>
            <path id="path6618" d="M12.316,14.149L12.513,13.851L12.217,13.628L12.316,14.149" style="fill:rgb(157,176,41);fill-rule:nonzero;stroke:url(#_Radial14);stroke-width:0.45px;"/>
            <path id="path6566" d="M12.131,19.779L11.896,19.315L11.457,19.215L11.222,18.585L10.636,18.651L10.138,18.287L9.61,18.751L9.61,18.824C9.451,18.778 9.254,18.772 9.112,18.684L8.995,18.353L8.995,17.988L8.643,18.021C8.672,17.789 8.702,17.557 8.731,17.324L8.526,17.324L8.321,17.59L8.115,17.689L7.822,17.524L7.793,17.159L7.852,16.76L8.291,16.429L8.643,16.429L8.702,16.23L9.141,16.329L9.464,16.727L9.522,16.064L10.079,15.599L10.284,15.102L10.695,14.936L10.929,14.604L11.457,14.504L11.721,14.107L10.929,14.107L11.427,13.874L11.779,13.874L12.277,13.708L12.336,13.51L12.16,13.343L11.955,13.277L12.014,13.078L11.867,12.78L11.515,12.912L11.574,12.647L11.164,12.414L10.841,12.978L10.87,13.177L10.548,13.31L10.343,13.741L10.255,13.343L9.698,13.111L9.61,12.813L10.343,12.381L10.665,12.083L10.695,11.718L10.519,11.618L10.284,11.585L10.138,11.95C10.138,11.95 9.893,11.998 9.83,12.013C9.025,12.755 7.399,14.356 7.021,17.379C7.036,17.449 7.295,17.855 7.295,17.855L7.91,18.22L8.526,18.386L8.79,18.718L9.2,19.016L9.434,18.983L9.61,19.062L9.61,19.116L9.376,19.746L9.2,20.012L9.258,20.145L9.112,20.642L9.64,21.604L10.167,22.069L10.402,22.4L10.372,23.097L10.548,23.495L10.372,24.258C10.372,24.258 10.358,24.253 10.381,24.329C10.404,24.406 11.32,24.915 11.378,24.871C11.436,24.827 11.486,24.789 11.486,24.789L11.427,24.623L11.662,24.391L11.75,24.159L12.131,24.025L12.424,23.295L12.336,23.097L12.541,22.799L12.981,22.699L13.215,22.168L13.157,21.505L13.508,21.007L13.567,20.509C13.086,20.271 12.609,20.025 12.131,19.779" style="fill:url(#_Radial15);fill-rule:nonzero;stroke:url(#_Radial16);stroke-width:0.45px;"/>
            <path id="path6542" d="M15.957,10.413L15.102,10.077L14.116,10.189L12.898,10.524L12.668,10.748L13.424,11.269L13.424,11.566L13.128,11.864L13.523,12.647L13.786,12.497L14.116,11.976C14.624,11.819 15.079,11.641 15.562,11.418L15.957,10.413" style="fill:url(#_Radial17);fill-rule:nonzero;stroke:url(#_Radial18);stroke-width:0.45px;"/>
            <path id="path6582" d="M10.969,11.445L10.805,11.854L11.134,11.854L11.298,11.482C11.44,11.381 11.581,11.28 11.726,11.184L12.055,11.296C12.274,11.445 12.493,11.593 12.713,11.742L13.042,11.445L12.68,11.296L12.515,10.96L11.89,10.886L11.857,10.7L11.561,10.774L11.43,11.035L11.265,10.7L11.199,10.849L11.232,11.221L10.969,11.445" style="fill:url(#_Radial19);fill-rule:nonzero;stroke:url(#_Radial20);stroke-width:0.45px;"/>
            <path id="path6628" d="M22.824,16.722C22.824,16.831 22.824,16.722 22.824,16.722L22.598,16.978C22.459,16.815 22.303,16.677 22.145,16.533L21.798,16.584L21.481,16.226L21.481,16.67L21.753,16.875L21.933,17.08L22.175,16.807C22.236,16.921 22.296,17.035 22.357,17.149L22.357,17.49L22.084,17.798L21.586,18.14L21.209,18.517L20.967,18.242L21.088,17.935L20.846,17.661L20.439,16.79L20.091,16.397L20,16.499L20.137,16.995L20.393,17.286C20.54,17.708 20.685,18.112 20.877,18.517C21.175,18.517 21.456,18.485 21.752,18.448L21.752,18.687L21.39,19.576L21.058,19.952L20.786,20.533L20.786,21.49L20.877,21.867L20.726,22.037L20.393,22.242L20.046,22.533L20.333,22.858L19.94,23.2L20.016,23.421L19.427,24.089L19.034,24.089L18.702,24.294L18.49,24.294L18.49,24.02L18.4,23.473C18.283,23.129 18.162,22.789 18.038,22.448C18.038,22.196 18.053,21.947 18.068,21.695L18.219,21.354L18.007,20.943L18.023,20.379L17.736,20.055L17.879,19.585L17.646,19.32L17.237,19.32L17.101,19.166L16.694,19.422L16.528,19.234L16.15,19.559C15.894,19.268 15.637,18.978 15.38,18.687L15.078,17.969L15.35,17.559L15.199,17.388L15.531,16.602C15.803,16.262 16.088,15.937 16.376,15.61L16.89,15.474L17.464,15.405L17.857,15.508L18.415,16.072L18.612,15.85L18.883,15.816L19.397,15.986L19.789,15.986L20.061,15.747L20.182,15.576L19.91,15.405L19.457,15.371C19.331,15.197 19.214,15.013 19.065,14.858L18.913,14.927L18.853,15.371L18.581,15.064L18.521,14.721L18.219,14.483L18.098,14.483L18.4,14.824L18.279,15.132L18.038,15.2L18.189,14.893L17.917,14.756L17.675,14.483L17.222,14.585L17.162,14.721L16.89,14.893L16.739,15.269L16.362,15.457L16.195,15.269L16.014,15.269L16.014,14.653L16.407,14.448L16.709,14.448L16.648,14.209L16.407,13.97L16.815,13.884L17.041,13.628L17.222,13.32L17.555,13.32L17.464,13.081L17.675,12.944L17.675,13.218L18.128,13.32L18.581,12.944L18.611,12.773L19.004,12.5C18.862,12.517 18.72,12.53 18.581,12.568L18.581,12.26L18.732,11.918L18.581,11.918L18.249,12.226L18.158,12.397L18.249,12.637L18.098,13.046L17.857,12.91L17.646,12.671L17.313,12.91L17.192,12.363L17.766,11.987L17.766,11.782L18.128,11.542L18.702,11.406L19.095,11.542L19.819,11.679L19.639,11.884L19.246,11.884L19.639,12.294L19.94,11.953L20.032,11.802C20.032,11.802 21.19,12.84 21.852,13.976C22.514,15.111 22.824,16.45 22.824,16.722Z" style="fill:url(#_Radial21);fill-rule:nonzero;stroke:url(#_Radial22);stroke-width:0.45px;"/>
        </g>
    </g>
    <rect id="outer" x="0" y="0" width="30" height="30" style="fill:none;"/>
    <defs>
        <radialGradient id="_Radial1" cx="0" cy="0" r="1" gradientUnits="userSpaceOnUse" gradientTransform="matrix(51.2012,0,0,24.9687,19.0929,24.5558)"><stop offset="0" style="stop-color:rgb(246,246,245);stop-opacity:1"/><stop offset="1" style="stop-color:rgb(211,215,207);stop-opacity:1"/></radialGradient>
        <radialGradient id="_Radial2" cx="0" cy="0" r="1" gradientUnits="userSpaceOnUse" gradientTransform="matrix(22.8247,0,0,14.3372,0.761936,-0.71345)"><stop offset="0" style="stop-color:white;stop-opacity:0.68"/><stop offset="1" style="stop-color:white;stop-opacity:0"/></radialGradient>
        <linearGradient id="_Linear3" x1="0" y1="0" x2="1" y2="0.0069463" gradientUnits="userSpaceOnUse" gradientTransform="matrix(1.42644,-1.34681,1.33746,1.43641,21.5818,6.14423)"><stop offset="0" style="stop-color:white;stop-opacity:1"/><stop offset="1" style="stop-color:white;stop-opacity:0"/></linearGradient>
        <radialGradient id="_Radial4" cx="0" cy="0" r="1" gradientUnits="userSpaceOnUse" gradientTransform="matrix(2.04204,-1.41262,3.76503,5.51893,20.4747,5.00278)"><stop offset="0" style="stop-color:white;stop-opacity:1"/><stop offset="0.48" style="stop-color:white;stop-opacity:1"/><stop offset="1" style="stop-color:white;stop-opacity:0"/></radialGradient>
        <linearGradient id="_Linear5" x1="0" y1="0" x2="1" y2="0.00375307" gradientUnits="userSpaceOnUse" gradientTransform="matrix(-6.69761,1.98666,-1.97287,-6.74441,26.6802,6.08166)"><stop offset="0" style="stop-color:black;stop-opacity:0.36"/><stop offset="1" style="stop-color:black;stop-opacity:0"/></linearGradient>
        <radialGradient id="_Radial6" cx="0" cy="0" r="1" gradientUnits="userSpaceOnUse" gradientTransform="matrix(10.5667,-2.05723e-14,2.05727e-14,10.567,15.0677,12.8996)"><stop offset="0" style="stop-color:rgb(143,177,220);stop-opacity:1"/><stop offset="1" style="stop-color:rgb(52,101,164);stop-opacity:1"/></radialGradient>
        <linearGradient id="_Linear7" x1="0" y1="0" x2="1" y2="0" gradientUnits="userSpaceOnUse" gradientTransform="matrix(5.3211,25.3073,-25.3073,5.3211,16.223,12.265)"><stop offset="0" style="stop-color:white;stop-opacity:0.53"/><stop offset="1" style="stop-color:white;stop-opacity:0"/></linearGradient>
        <radialGradient id="_Radial8" cx="0" cy="0" r="1" gradientUnits="userSpaceOnUse" gradientTransform="matrix(4.56204,0,0,4.24376,31.8288,5.69815)"><stop offset="0" style="stop-color:white;stop-opacity:1"/><stop offset="1" style="stop-color:white;stop-opacity:0"/></radialGradient>
        <radialGradient id="_Radial10" cx="0" cy="0" r="1" gradientUnits="userSpaceOnUse" gradientTransform="matrix(4.56204,0,0,4.24376,31.2316,5.69815)"><stop offset="0" style="stop-color:white;stop-opacity:1"/><stop offset="1" style="stop-color:white;stop-opacity:0"/></radialGradient>
        <radialGradient id="_Radial11" cx="0" cy="0" r="1" gradientUnits="userSpaceOnUse" gradientTransform="matrix(4.56204,0,0,4.24376,31.4023,5.69815)"><stop offset="0" style="stop-color:white;stop-opacity:1"/><stop offset="1" style="stop-color:white;stop-opacity:0"/></radialGradient>
        <radialGradient id="_Radial12" cx="0" cy="0" r="1" gradientUnits="userSpaceOnUse" gradientTransform="matrix(4.56204,0,0,4.24376,31.8288,5.69815)"><stop offset="0" style="stop-color:white;stop-opacity:1"/><stop offset="1" style="stop-color:white;stop-opacity:0"/></radialGradient>
        <radialGradient id="_Radial13" cx="0" cy="0" r="1" gradientUnits="userSpaceOnUse" gradientTransform="matrix(4.56204,0,0,4.24376,32.3832,6.21031)"><stop offset="0" style="stop-color:white;stop-opacity:1"/><stop offset="1" style="stop-color:white;stop-opacity:0"/></radialGradient>
        <radialGradient id="_Radial14" cx="0" cy="0" r="1" gradientUnits="userSpaceOnUse" gradientTransform="matrix(4.56204,0,0,4.24376,31.9994,5.95403)"><stop offset="0" style="stop-color:white;stop-opacity:1"/><stop offset="1" style="stop-color:white;stop-opacity:0"/></radialGradient>
        <radialGradient id="_Radial15" cx="0" cy="0" r="1" gradientUnits="userSpaceOnUse" gradientTransform="matrix(0.266068,9.59182,-6.8435,0.189851,14.6751,13.8823)"><stop offset="0" style="stop-color:rgb(206,225,75);stop-opacity:1"/><stop offset="1" style="stop-color:rgb(157,176,41);stop-opacity:1"/></radialGradient>
        <radialGradient id="_Radial16" cx="0" cy="0" r="1" gradientUnits="userSpaceOnUse" gradientTransform="matrix(4.06486,0,0,3.78126,29.816,7.00386)"><stop offset="0" style="stop-color:white;stop-opacity:1"/><stop offset="1" style="stop-color:white;stop-opacity:0"/></radialGradient>
        <radialGradient id="_Radial17" cx="0" cy="0" r="1" gradientUnits="userSpaceOnUse" gradientTransform="matrix(0.298611,10.765,-1.51034,0.0418569,15.1772,13.751)"><stop offset="0" style="stop-color:rgb(206,225,75);stop-opacity:1"/><stop offset="1" style="stop-color:rgb(157,176,41);stop-opacity:1"/></radialGradient>
        <radialGradient id="_Radial18" cx="0" cy="0" r="1" gradientUnits="userSpaceOnUse" gradientTransform="matrix(4.56204,0,0,4.24376,31.9567,6.20171)"><stop offset="0" style="stop-color:white;stop-opacity:1"/><stop offset="1" style="stop-color:white;stop-opacity:0"/></radialGradient>
        <radialGradient id="_Radial19" cx="0" cy="0" r="1" gradientUnits="userSpaceOnUse" gradientTransform="matrix(0.298612,10.765,-0.80311,0.0222727,15.318,13.7041)"><stop offset="0" style="stop-color:rgb(206,225,75);stop-opacity:1"/><stop offset="1" style="stop-color:rgb(157,176,41);stop-opacity:1"/></radialGradient>
        <radialGradient id="_Radial20" cx="0" cy="0" r="1" gradientUnits="userSpaceOnUse" gradientTransform="matrix(4.56204,0,0,4.24376,32.3961,5.85619)"><stop offset="0" style="stop-color:white;stop-opacity:1"/><stop offset="1" style="stop-color:white;stop-opacity:0"/></radialGradient>
        <radialGradient id="_Radial21" cx="0" cy="0" r="1" gradientUnits="userSpaceOnUse" gradientTransform="matrix(0.274165,9.88373,-6.64935,0.184373,15.3137,13.6553)"><stop offset="0" style="stop-color:rgb(206,225,75);stop-opacity:1"/><stop offset="1" style="stop-color:rgb(157,176,41);stop-opacity:1"/></radialGradient>
        <radialGradient id="_Radial22" cx="0" cy="0" r="1" gradientUnits="userSpaceOnUse" gradientTransform="matrix(4.18856,0,0,3.89634,30.3672,6.68505)"><stop offset="0" style="stop-color:white;stop-opacity:1"/><stop offset="1" style="stop-color:white;stop-opacity:0"/></radialGradient>
    </defs>
</svg>
