<?xml version="1.0" encoding="UTF-8" standalone="no"?>
<!DOCTYPE svg PUBLIC "-//W3C//DTD SVG 1.1//EN" "http://www.w3.org/Graphics/SVG/1.1/DTD/svg11.dtd">
<svg width="30px" height="30px" version="1.1" xmlns="http://www.w3.org/2000/svg" xmlns:xlink="http://www.w3.org/1999/xlink" xml:space="preserve" xmlns:serif="http://www.serif.com/" style="fill-rule:evenodd;clip-rule:evenodd;stroke-linecap:square;">
    <g id="text">
        <path id="link-underline" d="M0.5,15.5L29.5,15.5" style="fill:none;fill-rule:nonzero;stroke:rgb(6,69,173);stroke-width:0.98px;"/>
        <path d="M1.839,12.267L-0.057,12.267L-0.057,5.386L0.66,5.386L0.66,11.01L1.839,11.01L1.839,12.267Z" style="fill:rgb(6,69,173);fill-rule:nonzero;"/>
        <path d="M3.283,12.387C2.904,12.387 2.606,12.158 2.389,11.699C2.172,11.24 2.064,10.617 2.064,9.83C2.064,9.017 2.176,8.381 2.401,7.922C2.626,7.463 2.931,7.234 3.314,7.234C3.692,7.234 3.988,7.463 4.202,7.922C4.417,8.381 4.524,8.988 4.524,9.743C4.524,10.559 4.414,11.204 4.192,11.677C3.971,12.151 3.668,12.387 3.283,12.387ZM3.301,8.395C3.135,8.395 3.006,8.518 2.914,8.764C2.823,9.011 2.777,9.359 2.777,9.811C2.777,10.754 2.953,11.226 3.305,11.226C3.641,11.226 3.809,10.741 3.809,9.772C3.809,8.854 3.64,8.395 3.301,8.395Z" style="fill:rgb(6,69,173);fill-rule:nonzero;"/>
        <path d="M6.463,8.721C6.379,8.622 6.28,8.573 6.168,8.573C6.015,8.573 5.896,8.693 5.81,8.935C5.724,9.176 5.682,9.505 5.682,9.921L5.682,12.267L4.98,12.267L4.98,7.354L5.682,7.354L5.682,8.265L5.69,8.265C5.801,7.6 6.001,7.267 6.29,7.267C6.364,7.267 6.422,7.287 6.463,7.325L6.463,8.721Z" style="fill:rgb(6,69,173);fill-rule:nonzero;"/>
        <path d="M8.815,10.242L7.332,10.242C7.355,10.956 7.563,11.312 7.956,11.312C8.206,11.312 8.426,11.184 8.615,10.929L8.615,12.023C8.405,12.266 8.132,12.387 7.796,12.387C7.429,12.387 7.144,12.167 6.941,11.728C6.738,11.288 6.637,10.674 6.637,9.887C6.637,9.072 6.746,8.425 6.965,7.949C7.184,7.472 7.454,7.234 7.774,7.234C8.105,7.234 8.362,7.447 8.543,7.872C8.725,8.297 8.815,8.875 8.815,9.604L8.815,10.242ZM8.164,9.312C8.164,8.608 8.033,8.256 7.769,8.256C7.657,8.256 7.559,8.357 7.477,8.558C7.395,8.76 7.345,9.011 7.327,9.312L8.164,9.312Z" style="fill:rgb(6,69,173);fill-rule:nonzero;"/>
        <path d="M12.844,12.267L12.144,12.267L12.144,9.465C12.144,8.752 12.023,8.395 11.78,8.395C11.665,8.395 11.571,8.502 11.498,8.717C11.425,8.931 11.389,9.198 11.389,9.518L11.389,12.267L10.687,12.267L10.687,9.436C10.687,8.742 10.568,8.395 10.33,8.395C10.21,8.395 10.114,8.497 10.042,8.702C9.97,8.907 9.935,9.185 9.935,9.537L9.935,12.267L9.233,12.267L9.233,7.354L9.935,7.354L9.935,8.122L9.943,8.122C10.016,7.859 10.118,7.646 10.249,7.481C10.38,7.316 10.523,7.234 10.678,7.234C11,7.234 11.22,7.539 11.338,8.15C11.511,7.539 11.766,7.234 12.102,7.234C12.597,7.234 12.844,7.893 12.844,9.211L12.844,12.267Z" style="fill:rgb(6,69,173);fill-rule:nonzero;"/>
        <rect x="14.723" y="5.386" width="0.717" height="6.881" style="fill:rgb(6,69,173);fill-rule:nonzero;"/>
        <path d="M16.806,11.696L16.797,11.696L16.797,14.527L16.095,14.527L16.095,7.354L16.797,7.354L16.797,8.093L16.806,8.093C16.979,7.52 17.223,7.234 17.537,7.234C17.831,7.234 18.059,7.452 18.219,7.889C18.38,8.325 18.46,8.92 18.46,9.671C18.46,10.49 18.367,11.148 18.179,11.644C17.992,12.139 17.743,12.387 17.432,12.387C17.158,12.387 16.949,12.157 16.806,11.696ZM16.786,9.681L16.786,10.074C16.786,10.414 16.827,10.69 16.91,10.905C16.993,11.119 17.102,11.226 17.237,11.226C17.397,11.226 17.521,11.093 17.609,10.825C17.697,10.558 17.741,10.18 17.741,9.691C17.741,8.827 17.585,8.395 17.274,8.395C17.131,8.395 17.014,8.513 16.922,8.748C16.831,8.983 16.786,9.294 16.786,9.681Z" style="fill:rgb(6,69,173);fill-rule:nonzero;"/>
        <path d="M18.767,12.138L18.767,10.909C18.882,11.06 18.997,11.172 19.112,11.245C19.227,11.319 19.335,11.356 19.438,11.356C19.562,11.356 19.66,11.319 19.732,11.245C19.804,11.172 19.84,11.06 19.84,10.909C19.84,10.813 19.823,10.733 19.791,10.669C19.758,10.605 19.716,10.55 19.665,10.502C19.614,10.454 19.558,10.41 19.498,10.372C19.437,10.334 19.378,10.29 19.322,10.242C19.232,10.169 19.152,10.09 19.083,10.005C19.015,9.92 18.957,9.822 18.91,9.71C18.863,9.598 18.828,9.468 18.804,9.321C18.779,9.174 18.767,9 18.767,8.798C18.767,8.523 18.795,8.286 18.85,8.088C18.906,7.89 18.98,7.727 19.072,7.601C19.165,7.475 19.271,7.382 19.39,7.323C19.509,7.263 19.633,7.234 19.762,7.234C19.863,7.234 19.965,7.251 20.068,7.284C20.172,7.318 20.274,7.367 20.375,7.431L20.375,8.601C20.286,8.489 20.191,8.405 20.089,8.349C19.988,8.293 19.888,8.265 19.791,8.265C19.745,8.265 19.701,8.274 19.661,8.292C19.62,8.309 19.584,8.335 19.553,8.369C19.522,8.402 19.498,8.445 19.48,8.498C19.462,8.551 19.453,8.611 19.453,8.678C19.453,8.768 19.466,8.844 19.493,8.908C19.52,8.972 19.555,9.028 19.597,9.074C19.64,9.12 19.688,9.162 19.741,9.199C19.793,9.236 19.845,9.273 19.897,9.312C19.991,9.382 20.075,9.459 20.15,9.542C20.226,9.625 20.291,9.723 20.345,9.835C20.399,9.947 20.44,10.078 20.469,10.228C20.498,10.378 20.512,10.558 20.512,10.765C20.512,11.057 20.483,11.305 20.425,11.512C20.366,11.718 20.289,11.886 20.192,12.015C20.095,12.145 19.983,12.239 19.856,12.299C19.73,12.358 19.598,12.387 19.462,12.387C19.212,12.387 18.98,12.304 18.767,12.138Z" style="fill:rgb(6,69,173);fill-rule:nonzero;"/>
        <path d="M23.078,12.267L22.378,12.267L22.378,11.519L22.367,11.519C22.194,12.098 21.962,12.387 21.672,12.387C21.145,12.387 20.881,11.698 20.881,10.319L20.881,7.354L21.581,7.354L21.581,10.185C21.581,10.879 21.708,11.226 21.963,11.226C22.089,11.226 22.189,11.131 22.265,10.941C22.34,10.75 22.378,10.492 22.378,10.166L22.378,7.354L23.078,7.354L23.078,12.267Z" style="fill:rgb(6,69,173);fill-rule:nonzero;"/>
        <path d="M27.279,12.267L26.58,12.267L26.58,9.465C26.58,8.752 26.458,8.395 26.216,8.395C26.1,8.395 26.006,8.502 25.934,8.717C25.861,8.931 25.825,9.198 25.825,9.518L25.825,12.267L25.123,12.267L25.123,9.436C25.123,8.742 25.004,8.395 24.765,8.395C24.645,8.395 24.55,8.497 24.478,8.702C24.406,8.907 24.37,9.185 24.37,9.537L24.37,12.267L23.668,12.267L23.668,7.354L24.37,7.354L24.37,8.122L24.379,8.122C24.452,7.859 24.553,7.646 24.684,7.481C24.815,7.316 24.959,7.234 25.114,7.234C25.435,7.234 25.655,7.539 25.774,8.15C25.947,7.539 26.202,7.234 26.538,7.234C27.032,7.234 27.279,7.893 27.279,9.211L27.279,12.267Z" style="fill:rgb(6,69,173);fill-rule:nonzero;"/>
        <path d="M30,7.354L29.154,12.267L28.354,12.267L27.548,7.354L28.299,7.354L28.694,10.382C28.739,10.724 28.764,11.015 28.772,11.255L28.781,11.255C28.791,11.028 28.819,10.746 28.863,10.41L29.267,7.354L30,7.354Z" style="fill:rgb(6,69,173);fill-rule:nonzero;"/>
    </g>
    <g id="hand">
        <path d="M18.098,26.923C18,26.778 17.607,26.208 17.607,26.208C17.607,26.208 14.668,25.759 13.86,24.772C13.051,23.786 11.64,21.621 11.64,21.621C11.64,21.621 11.561,21.488 11.14,21.115C10.134,20.877 10.904,18.696 12.577,19.881C13.492,20.954 13.567,21.058 13.908,21.571C14.029,21.754 10.58,16.648 10.139,15.978C10.276,15.391 10.384,14.674 11.746,14.948C12.098,15.429 15.27,20.178 15.27,20.178L13.296,17.178C13.296,17.178 14.478,15.801 14.975,16.469C15.473,17.136 16.484,18.779 16.484,18.779L15.082,16.555C15.082,16.555 16.032,15.53 17.057,16.054C17.791,17.147 18.365,18.079 18.365,18.079C18.365,18.079 18.298,17.988 17.178,16.217C17.211,16.195 17.6,15.597 18.438,15.772C19.108,16.482 21.236,19.854 21.236,19.854C21.236,19.854 21.84,20.767 21.701,22.18C22.192,23.362 22.585,23.955 22.585,23.955L18.098,26.923Z" style="fill:white;stroke:black;stroke-width:0.49px;stroke-linecap:butt;stroke-linejoin:round;"/>
        <path d="M18.733,27.878C18.733,27.878 18.309,27.228 18.12,26.951C18.305,26.833 22.18,24.225 22.584,23.956C22.812,24.304 23.314,25.009 23.314,25.009L18.733,27.878Z" style="fill:white;stroke:black;stroke-width:0.49px;stroke-linecap:butt;"/>
        <path d="M18.817,27.143L19.133,27.644L19.426,27.489L19.729,27.976L22.946,25.953L22.662,25.481L22.928,25.279L22.49,24.654L18.816,27.144L18.817,27.143Z" style="fill:white;stroke:white;stroke-width:0.49px;stroke-linecap:butt;"/>
    </g>
    <rect id="outer" x="0" y="0" width="30" height="30" style="fill:none;"/>
</svg>
