<?xml version="1.0" encoding="UTF-8" standalone="no"?>
<!DOCTYPE svg PUBLIC "-//W3C//DTD SVG 1.1//EN" "http://www.w3.org/Graphics/SVG/1.1/DTD/svg11.dtd">
<svg width="30px" height="30px" version="1.1" xmlns="http://www.w3.org/2000/svg" xmlns:xlink="http://www.w3.org/1999/xlink" xml:space="preserve" xmlns:serif="http://www.serif.com/" style="fill-rule:evenodd;clip-rule:evenodd;">
    <g>
        <g>
            <path d="M29.677,20.343C27.476,27.705 19.221,31.713 11.239,29.296C3.258,26.878 -1.426,18.951 0.778,11.588C2.979,4.226 11.234,0.218 19.215,2.636C27.197,5.053 31.881,12.981 29.677,20.343Z" style="fill:url(#_Radial1);fill-rule:nonzero;"/>
        </g>
        <g>
            <path d="M24.545,0.77L27.879,13.016C27.968,13.341 27.777,13.676 27.454,13.766L5.581,19.794C5.258,19.883 4.924,19.692 4.835,19.367L1.502,7.12C1.413,6.795 1.604,6.459 1.927,6.37L23.8,0.341C24.123,0.253 24.457,0.444 24.545,0.77Z" style="fill:rgb(238,238,236);stroke:rgb(136,138,133);stroke-width:0.63px;"/>
        </g>
        <g>
            <path d="M23.945,0.958L27.267,13.161L5.436,19.178L2.114,6.974L23.945,0.958Z" style="fill:none;stroke:white;stroke-width:0.63px;"/>
        </g>
        <g>
            <path d="M23.064,2.513L25.722,12.275L6.317,17.623L3.659,7.861L23.064,2.513Z" style="fill:url(#_Linear2);stroke:rgb(114,159,207);stroke-width:0.63px;"/>
        </g>
        <g>
            <path d="M6.62,17.54C6.246,12.723 8.217,13.951 8.514,9.679C9.438,9.931 9.649,9.542 10.406,9.896C11.226,10.491 11.836,11.622 12.47,12.689C13.473,9.419 14.868,12.97 17.224,12.936C19.301,11.439 18.188,6.152 19.567,6.428C19.936,5.826 19.589,2.763 20.751,4.79C22.021,7.064 24.344,9.216 25.473,11.36L25.722,12.275L6.62,17.54Z" style="fill:url(#_Linear3);stroke:url(#_Linear4);stroke-width:0.63px;"/>
        </g>
        <g>
            <path d="M4.045,8.082L22.844,2.901L24.007,7.172C13.587,8.032 8.273,12.638 6.371,16.625L4.045,8.082Z" style="fill:url(#_Radial5);fill-rule:nonzero;"/>
        </g>
        <g>
            <path d="M26.588,17.038L23.322,29.302C23.235,29.628 22.903,29.822 22.579,29.734L0.673,23.828C0.349,23.74 0.157,23.406 0.244,23.08L3.51,10.815C3.596,10.49 3.929,10.297 4.253,10.384L26.159,16.29C26.483,16.377 26.675,16.712 26.588,17.038Z" style="fill:rgb(238,238,236);stroke:rgb(136,138,133);stroke-width:0.63px;"/>
        </g>
        <g>
            <path d="M25.975,16.896L22.72,29.118L0.857,23.223L4.111,11.001L25.975,16.896Z" style="fill:none;stroke:white;stroke-width:0.63px;"/>
        </g>
        <g>
            <path d="M24.435,17.79L21.831,27.567L2.397,22.328L5.001,12.55L24.435,17.79Z" style="fill:url(#_Linear6);stroke:rgb(114,159,207);stroke-width:0.63px;"/>
        </g>
        <g>
            <path d="M5.223,12.937L24.05,18.014L22.911,22.291C13.485,17.741 6.587,19.018 2.945,21.493L5.223,12.937Z" style="fill:url(#_Radial7);fill-rule:nonzero;"/>
        </g>
        <g>
            <path d="M3.2,19.311C8.497,19.247 15.764,20.941 23.123,22.716L21.831,27.567L2.397,22.328L3.2,19.311Z" style="fill:url(#_Linear8);fill-rule:nonzero;stroke:url(#_Linear9);stroke-width:0.63px;"/>
        </g>
        <path d="M4.002,10.048L5.24,22.029C5.319,22.788 6.025,23.27 6.733,23.196L25.812,21.179L26.912,17.066C27.039,16.59 26.72,16.108 26.244,15.979L4.336,10.087C4.223,10.057 4.113,10.038 4.002,10.048Z" style="fill:url(#_Linear10);fill-rule:nonzero;"/>
        <g>
            <path d="M28.431,6.78L29.742,19.402C29.777,19.738 29.534,20.041 29.199,20.076L6.65,22.447C6.315,22.482 6.015,22.237 5.98,21.9L4.669,9.278C4.634,8.942 4.877,8.639 5.212,8.604L27.761,6.233C28.096,6.198 28.396,6.443 28.431,6.78Z" style="fill:url(#_Linear11);stroke:rgb(136,138,133);stroke-width:0.63px;"/>
        </g>
        <g>
            <path d="M27.808,6.864L29.115,19.448L6.603,21.816L5.296,9.232L27.808,6.864Z" style="fill:none;stroke:white;stroke-width:0.63px;"/>
        </g>
        <g>
            <path d="M26.688,8.254L27.734,18.322L7.723,20.426L6.677,10.358L26.688,8.254Z" style="fill:url(#_Linear12);stroke:rgb(245,121,0);stroke-width:0.63px;"/>
        </g>
        <g>
            <path d="M17.42,13.364L17.943,18.397L12.94,18.924L12.417,13.889L17.42,13.364Z" style="fill:url(#_Radial13);"/>
        </g>
        <g>
            <path d="M7.69,20.111C8.671,18.803 9.261,18.597 12.014,17.232C13.725,18.386 15.748,18.908 17.47,17.652C19.597,15.897 21.196,17.381 23.2,15.379C24.259,15.838 25.045,16.364 27.57,16.748L27.734,18.322L7.723,20.426L7.69,20.111Z" style="stroke:black;stroke-width:0.63px;"/>
        </g>
        <g>
            <path d="M7.023,10.64L26.408,8.602L26.866,13.006C16.446,12.149 10.459,15.826 7.938,19.449L7.023,10.64Z" style="fill:url(#_Radial14);fill-rule:nonzero;"/>
        </g>
    </g>
    <defs>
        <radialGradient id="_Radial1" cx="0" cy="0" r="1" gradientUnits="userSpaceOnUse" gradientTransform="matrix(14.4384,4.37333,-3.98421,13.3173,15.2195,15.9523)"><stop offset="0" style="stop-color:black;stop-opacity:0.7"/><stop offset="1" style="stop-color:black;stop-opacity:0"/></radialGradient>
        <linearGradient id="_Linear2" x1="0" y1="0" x2="1" y2="-0.00146898" gradientUnits="userSpaceOnUse" gradientTransform="matrix(1.67125,6.09893,-6.08147,1.67605,14.3992,5.88441)"><stop offset="0" style="stop-color:rgb(114,159,207);stop-opacity:1"/><stop offset="1" style="stop-color:white;stop-opacity:1"/></linearGradient>
        <linearGradient id="_Linear3" x1="0" y1="0" x2="1" y2="-0.00146898" gradientUnits="userSpaceOnUse" gradientTransform="matrix(-1.94701,-7.10526,7.08491,-1.9526,11.6786,19.3597)"><stop offset="0" style="stop-color:rgb(233,185,110);stop-opacity:1"/><stop offset="1" style="stop-color:rgb(101,63,1);stop-opacity:1"/></linearGradient>
        <linearGradient id="_Linear4" x1="0" y1="0" x2="1" y2="-0.00146898" gradientUnits="userSpaceOnUse" gradientTransform="matrix(-0.203893,-0.74407,0.74194,-0.204478,24.6826,12.0499)"><stop offset="0" style="stop-color:rgb(143,89,2);stop-opacity:1"/><stop offset="1" style="stop-color:rgb(143,89,2);stop-opacity:0"/></linearGradient>
        <radialGradient id="_Radial5" cx="0" cy="0" r="1" gradientUnits="userSpaceOnUse" gradientTransform="matrix(20.1034,-5.54049,2.01146,7.38943,4.06822,8.09528)"><stop offset="0" style="stop-color:white;stop-opacity:0.53"/><stop offset="1" style="stop-color:white;stop-opacity:0"/></radialGradient>
        <linearGradient id="_Linear6" x1="0" y1="0" x2="1" y2="0.00144144" gradientUnits="userSpaceOnUse" gradientTransform="matrix(-1.68656,6.29146,-6.27345,-1.6914,15.3119,16.1165)"><stop offset="0" style="stop-color:rgb(114,159,207);stop-opacity:1"/><stop offset="1" style="stop-color:white;stop-opacity:1"/></linearGradient>
        <radialGradient id="_Radial7" cx="0" cy="0" r="1" gradientUnits="userSpaceOnUse" gradientTransform="matrix(20.1336,5.42828,-1.97073,7.40054,5.23588,12.9609)"><stop offset="0" style="stop-color:white;stop-opacity:0.5"/><stop offset="1" style="stop-color:white;stop-opacity:0"/></radialGradient>
        <linearGradient id="_Linear8" x1="0" y1="0" x2="1" y2="0.00105082" gradientUnits="userSpaceOnUse" gradientTransform="matrix(0.779423,-4.12943,4.11761,0.781661,16.2109,23.9237)"><stop offset="0" style="stop-color:rgb(115,210,22);stop-opacity:1"/><stop offset="1" style="stop-color:rgb(115,210,22);stop-opacity:0"/></linearGradient>
        <linearGradient id="_Linear9" x1="0" y1="0" x2="1" y2="0.000651776" gradientUnits="userSpaceOnUse" gradientTransform="matrix(0.427436,-3.73314,3.72245,0.428663,13.2527,25.2548)"><stop offset="0" style="stop-color:rgb(78,154,6);stop-opacity:1"/><stop offset="1" style="stop-color:rgb(78,154,6);stop-opacity:0"/></linearGradient>
        <linearGradient id="_Linear10" x1="0" y1="0" x2="1" y2="0.00286593" gradientUnits="userSpaceOnUse" gradientTransform="matrix(-4.73187,4.9189,-4.90481,-4.74546,10.2895,17.3436)"><stop offset="0" style="stop-color:black;stop-opacity:0.2"/><stop offset="1" style="stop-color:black;stop-opacity:0"/></linearGradient>
        <linearGradient id="_Linear11" x1="0" y1="0" x2="1" y2="-0.00247723" gradientUnits="userSpaceOnUse" gradientTransform="matrix(-16.0901,-28.1666,28.0859,-16.1363,26.8455,31.0732)"><stop offset="0" style="stop-color:rgb(211,215,207);stop-opacity:1"/><stop offset="1" style="stop-color:rgb(238,238,236);stop-opacity:1"/></linearGradient>
        <linearGradient id="_Linear12" x1="0" y1="0" x2="1" y2="-0.000596469" gradientUnits="userSpaceOnUse" gradientTransform="matrix(0.644015,6.15962,-6.14199,0.645864,18.8505,9.30081)"><stop offset="0" style="stop-color:rgb(245,121,0);stop-opacity:1"/><stop offset="1" style="stop-color:rgb(252,233,79);stop-opacity:1"/></linearGradient>
        <radialGradient id="_Radial13" cx="0" cy="0" r="1" gradientUnits="userSpaceOnUse" gradientTransform="matrix(2.50134,-0.26303,0.261407,2.51688,15.1802,16.1431)"><stop offset="0" style="stop-color:white;stop-opacity:1"/><stop offset="0.81" style="stop-color:white;stop-opacity:1"/><stop offset="0.84" style="stop-color:rgb(253,244,167);stop-opacity:1"/><stop offset="1" style="stop-color:rgb(252,233,79);stop-opacity:0"/></radialGradient>
        <radialGradient id="_Radial14" cx="0" cy="0" r="1" gradientUnits="userSpaceOnUse" gradientTransform="matrix(25.0382,-2.63291,0.955853,9.20316,6.6707,12.6807)"><stop offset="0" style="stop-color:white;stop-opacity:0.75"/><stop offset="1" style="stop-color:white;stop-opacity:0"/></radialGradient>
    </defs>
</svg>
