<?xml version="1.0" encoding="UTF-8" standalone="no"?><!DOCTYPE svg PUBLIC "-//W3C//DTD SVG 1.1//EN" "http://www.w3.org/Graphics/SVG/1.1/DTD/svg11.dtd"><svg width="100%" height="100%" viewBox="0 0 48 48" version="1.1" xmlns="http://www.w3.org/2000/svg" xmlns:xlink="http://www.w3.org/1999/xlink" xml:space="preserve" xmlns:serif="http://www.serif.com/" style="fill-rule:evenodd;clip-rule:evenodd;"><g transform="matrix(0.94892,0.28565,-0.26185,0.86984,7.7139,-2.162)"><path d="M48.437,24.218c0.003,13.378 -10.841,24.224 -24.219,24.224c-13.377,0 -24.221,-10.846 -24.218,-24.224c-0.003,-13.377 10.841,-24.223 24.218,-24.223c13.378,0 24.222,10.846 24.219,24.223Z" style="fill:url(#_Radial1);fill-rule:nonzero;"/></g><g transform="matrix(0.96448,-0.26417,0.26417,0.96448,21.295,86.053)"><path d="M39.5,-76.535l0,20.07c0,0.533 -0.432,0.965 -0.965,0.965l-36.07,-0c-0.533,-0 -0.965,-0.432 -0.965,-0.965l0,-20.07c0,-0.533 0.432,-0.965 0.965,-0.965l36.07,0c0.533,0 0.965,0.432 0.965,0.965Z" style="fill:#eeeeec;stroke:#888a85;stroke-width:1px;"/></g><g transform="matrix(0.96448,-0.26417,0.26417,0.96448,21.295,86.053)"><rect x="2.5" y="-76.5" width="36" height="20" style="fill:none;stroke:#fff;stroke-width:1px;"/></g><g transform="matrix(0.96448,-0.26417,0.26417,0.96448,21.295,86.053)"><rect x="4.5" y="-74.5" width="32" height="16" style="fill:url(#_Linear2);stroke:#729fcf;stroke-width:1px;"/></g><g transform="matrix(0.96448,-0.26417,0.26417,0.96448,21.295,86.053)"><path d="M5,-58.5c1.438,-7.5 3.948,-4.799 6.188,-11.188c1.313,0.772 1.799,0.268 2.812,1.126c1.009,1.252 1.472,3.231 2,5.124c2.903,-4.562 3.561,1.438 7.188,2.376c3.812,-1.411 4.312,-9.938 6.312,-8.938c0.818,-0.762 1.564,-5.578 2.5,-2c1,4 3.664,8.257 4.5,12l0,1.5l-31.5,0Z" style="fill:url(#_Linear3);stroke:url(#_Linear4);stroke-width:1px;"/></g><g transform="matrix(0.96448,-0.26417,0.26417,0.96448,21.295,86.053)"><path d="M5,-74l31,0l0,7c-16.342,-3.067 -26.417,1.721 -31,7l0,-14Z" style="fill:url(#_Radial5);fill-rule:nonzero;"/></g><g transform="matrix(0.96593,0.25882,-0.25882,0.96593,-54.178,80.868)"><path d="M79.5,-76.535l0,20.07c0,0.533 -0.432,0.965 -0.965,0.965l-36.07,-0c-0.533,-0 -0.965,-0.432 -0.965,-0.965l0,-20.07c0,-0.533 0.432,-0.965 0.965,-0.965l36.07,0c0.533,0 0.965,0.432 0.965,0.965Z" style="fill:#eeeeec;stroke:#888a85;stroke-width:1px;"/></g><g transform="matrix(0.96593,0.25882,-0.25882,0.96593,-54.178,80.868)"><rect x="42.5" y="-76.5" width="36" height="20" style="fill:none;stroke:#fff;stroke-width:1px;"/></g><g transform="matrix(0.96593,0.25882,-0.25882,0.96593,-54.178,80.868)"><rect x="44.5" y="-74.5" width="32" height="16" style="fill:url(#_Linear6);stroke:#729fcf;stroke-width:1px;"/></g><g transform="matrix(0.96593,0.25882,-0.25882,0.96593,-54.178,80.868)"><path d="M45,-74l31,0l0,7c-16.342,-3.067 -26.417,1.721 -31,7l0,-14Z" style="fill:url(#_Radial7);fill-rule:nonzero;"/></g><g transform="matrix(0.96593,0.25882,-0.25882,0.96593,-54.178,80.868)"><path d="M44.5,-63.438c8.111,-2.277 19.968,-2.682 32,-3l0,7.938l-32,0l0,-4.938Z" style="fill:url(#_Linear8);fill-rule:nonzero;stroke:url(#_Linear9);stroke-width:1px;"/></g><path d="M6.5,16.469l1.969,18.937c0.125,1.199 1.249,1.962 2.375,1.844l30.344,-3.188l1.75,-6.5c0.202,-0.754 -0.305,-1.515 -1.063,-1.718l-34.844,-9.313c-0.179,-0.048 -0.355,-0.078 -0.531,-0.062Z" style="fill:url(#_Linear10);fill-rule:nonzero;"/><g transform="matrix(0.99458,-0.10394,0.10394,0.99458,17.141,121.36)"><path d="M39.5,-106.53l0,20.06c0,0.535 -0.435,0.97 -0.97,0.97l-36.06,0c-0.535,0 -0.97,-0.435 -0.97,-0.97l0,-20.06c0,-0.535 0.435,-0.97 0.97,-0.97l36.06,0c0.535,0 0.97,0.435 0.97,0.97Z" style="fill:url(#_Linear11);stroke:#888a85;stroke-width:1px;"/></g><g transform="matrix(0.99458,-0.10394,0.10394,0.99458,17.141,121.36)"><rect x="2.5" y="-106.5" width="36" height="20" style="fill:none;stroke:#fff;stroke-width:1px;"/></g><g transform="matrix(0.99458,-0.10394,0.10394,0.99458,17.141,121.36)"><rect x="4.5" y="-104.5" width="32" height="16" style="fill:url(#_Linear12);stroke:#f57900;stroke-width:1px;"/></g><g transform="matrix(0.99458,-0.10394,0.10394,0.99458,17.141,121.36)"><rect x="13" y="-98" width="8" height="8" style="fill:url(#_Radial13);"/></g><g transform="matrix(0.99458,-0.10394,0.10394,0.99458,17.141,121.36)"><path d="M4.5,-89c1.766,-1.895 2.734,-2.121 7.312,-3.812c2.518,2.097 5.632,3.253 8.563,1.562c3.653,-2.407 5.938,0.191 9.437,-2.625c1.6,0.896 2.756,1.854 6.688,2.875l0,2.5l-32,0l0,-0.5Z" style="stroke:#000;stroke-width:1px;"/></g><g transform="matrix(0.99458,-0.10394,0.10394,0.99458,17.141,121.36)"><path d="M5,-104l31,0l0,7c-16.342,-3.07 -26.417,1.721 -31,7l0,-14Z" style="fill:url(#_Radial14);fill-rule:nonzero;"/></g><defs><radialGradient id="_Radial1" cx="0" cy="0" r="1" gradientUnits="userSpaceOnUse" gradientTransform="matrix(24.2,0,0,24.2,24.2,24.2)"><stop offset="0" style="stop-color:#000;stop-opacity:0.7"/><stop offset="1" style="stop-color:#000;stop-opacity:0"/></radialGradient><linearGradient id="_Linear2" x1="0" y1="0" x2="1" y2="0" gradientUnits="userSpaceOnUse" gradientTransform="matrix(6.12323e-16,10,-10,6.12323e-16,21.8,-73)"><stop offset="0" style="stop-color:#729fcf;stop-opacity:1"/><stop offset="1" style="stop-color:#fff;stop-opacity:1"/></linearGradient><linearGradient id="_Linear3" x1="0" y1="0" x2="1" y2="0" gradientUnits="userSpaceOnUse" gradientTransform="matrix(7.13357e-16,-11.65,11.65,7.13357e-16,12,-53.6)"><stop offset="0" style="stop-color:#e9b96e;stop-opacity:1"/><stop offset="1" style="stop-color:#653f01;stop-opacity:1"/></linearGradient><linearGradient id="_Linear4" x1="0" y1="0" x2="1" y2="0" gradientUnits="userSpaceOnUse" gradientTransform="matrix(7.47035e-17,-1.22,1.22,7.47035e-17,35,-59.28)"><stop offset="0" style="stop-color:#8f5902;stop-opacity:1"/><stop offset="1" style="stop-color:#8f5902;stop-opacity:0"/></linearGradient><radialGradient id="_Radial5" cx="0" cy="0" r="1" gradientUnits="userSpaceOnUse" gradientTransform="matrix(33.1514,0,0,12.1103,5.02948,-73.9701)"><stop offset="0" style="stop-color:#fff;stop-opacity:0.53"/><stop offset="1" style="stop-color:#fff;stop-opacity:0"/></radialGradient><linearGradient id="_Linear6" x1="0" y1="0" x2="1" y2="0" gradientUnits="userSpaceOnUse" gradientTransform="matrix(6.30693e-16,10.3,-10.3,6.30693e-16,61.8,-73.3)"><stop offset="0" style="stop-color:#729fcf;stop-opacity:1"/><stop offset="1" style="stop-color:#fff;stop-opacity:1"/></linearGradient><radialGradient id="_Radial7" cx="0" cy="0" r="1" gradientUnits="userSpaceOnUse" gradientTransform="matrix(33.1514,0,0,12.1103,45.0295,-73.9701)"><stop offset="0" style="stop-color:#fff;stop-opacity:0.5"/><stop offset="1" style="stop-color:#fff;stop-opacity:0"/></radialGradient><linearGradient id="_Linear8" x1="0" y1="0" x2="1" y2="0" gradientUnits="userSpaceOnUse" gradientTransform="matrix(-0.5,-6.625,6.625,-0.5,66.375,-61.75)"><stop offset="0" style="stop-color:#73d216;stop-opacity:1"/><stop offset="1" style="stop-color:#73d216;stop-opacity:0"/></linearGradient><linearGradient id="_Linear9" x1="0" y1="0" x2="1" y2="0" gradientUnits="userSpaceOnUse" gradientTransform="matrix(-0.875,-5.875,5.875,-0.875,62.375,-58.5)"><stop offset="0" style="stop-color:#4e9a06;stop-opacity:1"/><stop offset="1" style="stop-color:#4e9a06;stop-opacity:0"/></linearGradient><linearGradient id="_Linear10" x1="0" y1="0" x2="1" y2="0" gradientUnits="userSpaceOnUse" gradientTransform="matrix(-7.5,7.8,-7.8,-7.5,16.5,28)"><stop offset="0" style="stop-color:#000;stop-opacity:0.2"/><stop offset="1" style="stop-color:#000;stop-opacity:0"/></linearGradient><linearGradient id="_Linear11" x1="0" y1="0" x2="1" y2="0" gradientUnits="userSpaceOnUse" gradientTransform="matrix(-20.69,-47,47,-20.69,33,-68.6)"><stop offset="0" style="stop-color:#d3d7cf;stop-opacity:1"/><stop offset="1" style="stop-color:#eeeeec;stop-opacity:1"/></linearGradient><linearGradient id="_Linear12" x1="0" y1="0" x2="1" y2="0" gradientUnits="userSpaceOnUse" gradientTransform="matrix(5.99465e-16,9.79,-9.79,5.99465e-16,23.93,-104.15)"><stop offset="0" style="stop-color:#f57900;stop-opacity:1"/><stop offset="1" style="stop-color:#fce94f;stop-opacity:1"/></linearGradient><radialGradient id="_Radial13" cx="0" cy="0" r="1" gradientUnits="userSpaceOnUse" gradientTransform="matrix(4,0,0,4,17,-94)"><stop offset="0" style="stop-color:#fff;stop-opacity:1"/><stop offset="0.81" style="stop-color:#fff;stop-opacity:1"/><stop offset="0.84" style="stop-color:#fdf4a7;stop-opacity:1"/><stop offset="1" style="stop-color:#fce94f;stop-opacity:0"/></radialGradient><radialGradient id="_Radial14" cx="0" cy="0" r="1" gradientUnits="userSpaceOnUse" gradientTransform="matrix(40.0396,0,0,14.6263,4.10794,-100.85)"><stop offset="0" style="stop-color:#fff;stop-opacity:0.75"/><stop offset="1" style="stop-color:#fff;stop-opacity:0"/></radialGradient></defs></svg>