<?xml version="1.0" encoding="UTF-8" standalone="no"?>
<!-- Generator: Adobe Illustrator 19.0.0, SVG Export Plug-In . SVG Version: 6.00 Build 0)  -->

<svg
   version="1.1"
   id="Layer_1"
   x="0px"
   y="0px"
   viewBox="0 0 412 412"
   style="enable-background:new 0 0 412 412;"
   xml:space="preserve"
   sodipodi:docname="import.svg"
   inkscape:version="1.1.2 (b8e25be833, 2022-02-05)"
   xmlns:inkscape="http://www.inkscape.org/namespaces/inkscape"
   xmlns:sodipodi="http://sodipodi.sourceforge.net/DTD/sodipodi-0.dtd"
   xmlns="http://www.w3.org/2000/svg"
   xmlns:svg="http://www.w3.org/2000/svg"><defs
   id="defs54" /><sodipodi:namedview
   id="namedview52"
   pagecolor="#ffffff"
   bordercolor="#666666"
   borderopacity="1.0"
   inkscape:pageshadow="2"
   inkscape:pageopacity="0.0"
   inkscape:pagecheckerboard="0"
   showgrid="false"
   inkscape:zoom="2.2973301"
   inkscape:cx="205.89118"
   inkscape:cy="206.10882"
   inkscape:window-width="3840"
   inkscape:window-height="2102"
   inkscape:window-x="-8"
   inkscape:window-y="32"
   inkscape:window-maximized="1"
   inkscape:current-layer="g19" />
<path
   style="fill:#9CE0FF;"
   d="M334,148c17.6,0,32,14.4,32,32v192c0,17.6-14.4,32-32,32H78c-17.6,0-32-14.4-32-32V180  c0-17.6,14.4-32,32-32H334z"
   id="path9" />
<path
   style="fill:#00AEEF;"
   d="M334,412H78c-22,0-40-18-40-40V180c0-22,18-40,40-40h256c22,0,40,18,40,40v192  C374,394,356,412,334,412z M78,156c-13.2,0-24,10.8-24,24v192c0,13.2,10.8,24,24,24h256c13.2,0,24-10.8,24-24V180  c0-13.2-10.8-24-24-24H78z"
   id="path11" />
<g
   id="g19">
	<path
   style="fill:#2b0000"
   d="m 206,281.2 c -4.4,0 -8,-3.6 -8,-8 V 56 c 0,-4.4 3.6,-8 8,-8 4.4,0 8,3.6 8,8 v 217.2 c 0,4.4 -3.6,8 -8,8 z"
   id="path13" />
	<path
   style="fill:#2b0000"
   d="m 206,28 c -4.4,0 -8,-3.6 -8,-8 V 8 c 0,-4.4 3.6,-8 8,-8 4.4,0 8,3.6 8,8 v 12 c 0,4.4 -3.6,8 -8,8 z"
   id="path15" />
	<path
   style="fill:#2b0000"
   d="m 206,296 c -2,0 -4,-0.8 -5.6,-2.4 l -70.8,-70.8 c -3.2,-3.2 -3.2,-8 0,-11.2 3.2,-3.2 8,-3.2 11.2,0 l 65.2,65.2 65.2,-65.2 c 3.2,-3.2 8,-3.2 11.2,0 3.2,3.2 3.2,8 0,11.2 l -70.8,70.8 C 210,295.2 208,296 206,296 Z"
   id="path17" />
</g>
</svg>
