<?xml version="1.0" encoding="UTF-8" standalone="no"?>
<!DOCTYPE svg PUBLIC "-//W3C//DTD SVG 1.1//EN" "http://www.w3.org/Graphics/SVG/1.1/DTD/svg11.dtd">
<svg width="30px" height="30px" version="1.1" xmlns="http://www.w3.org/2000/svg" xmlns:xlink="http://www.w3.org/1999/xlink" xml:space="preserve" xmlns:serif="http://www.serif.com/" style="fill-rule:evenodd;clip-rule:evenodd;">
    <g id="Layer-1" serif:id="Layer 1">
        <g id="g13071">
            <rect id="rect13073" x="10.083" y="26.25" width="15.835" height="5.25" style="fill:url(#_Linear1);"/>
            <path id="path13075" d="M25.917,26.25L25.917,31.5C27.606,31.51 30,30.324 30,28.875C30,27.426 28.115,26.25 25.917,26.25Z" style="fill:url(#_Radial2);fill-rule:nonzero;"/>
            <path id="path13077" d="M10.083,26.25L10.083,31.5C8.394,31.51 6,30.324 6,28.875C6,27.426 7.885,26.25 10.083,26.25Z" style="fill:url(#_Radial3);fill-rule:nonzero;"/>
        </g>
        <g id="g7768">
            <rect id="rect7770" x="4.083" y="14.25" width="15.835" height="5.25" style="fill:url(#_Linear4);"/>
            <path id="path7772" d="M19.917,14.25L19.917,19.5C21.606,19.51 24,18.324 24,16.875C24,15.426 22.115,14.25 19.917,14.25Z" style="fill:url(#_Radial5);fill-rule:nonzero;"/>
            <path id="path7774" d="M4.083,14.25L4.083,19.5C2.394,19.51 0,18.324 0,16.875C0,15.426 1.885,14.25 4.083,14.25Z" style="fill:url(#_Radial6);fill-rule:nonzero;"/>
        </g>
        <path id="path7776" d="M22.125,2.625C22.12,2.25 21.739,1.875 21.375,1.875L10.125,1.875L8.812,0.75C8.677,0.62 8.441,0.375 8.25,0.375L2.625,0.375C2.241,0.375 1.875,0.758 1.875,1.125L1.875,17.625L22.125,17.625L22.125,2.625Z" style="fill:rgb(238,238,236);fill-opacity:0.7;fill-rule:nonzero;stroke:url(#_Linear7);stroke-width:0.76px;"/>
        <path id="path7778" d="M21.375,3C21.382,2.594 21.374,2.601 21,2.625L9.825,2.625L8.55,1.5C8.189,1.192 8.139,1.094 7.5,1.125L3,1.125C2.643,1.125 2.625,1.156 2.625,1.5L2.625,16.875L21.375,16.875L21.375,3Z" style="fill:none;fill-rule:nonzero;stroke:url(#_Linear8);stroke-width:0.75px;"/>
        <path id="path7780" d="M23.059,17.25C23.044,17.543 22.798,17.625 22.497,17.625L1.503,17.625C1.202,17.625 0.956,17.543 0.94,17.25L0.378,4.5C0.356,4.208 0.452,4.125 0.753,4.125L23.247,4.125C23.547,4.125 23.645,4.208 23.622,4.5L23.059,17.25Z" style="fill:url(#_Linear9);fill-rule:nonzero;stroke:url(#_Linear10);stroke-width:0.75px;"/>
        <path id="path7782" d="M2.25,3C2.251,3.219 2.253,3.469 2.255,3.75L21.745,3.75C21.747,3.469 21.749,3.219 21.75,3L2.25,3Z" style="fill:url(#_Linear11);fill-rule:nonzero;"/>
        <rect id="rect7784" x="0.75" y="4.5" width="22.5" height="0.75" style="fill:url(#_Linear12);"/>
        <path id="path15" d="M28.125,14.625C28.12,14.25 27.739,13.875 27.375,13.875L16.125,13.875L14.812,12.75C14.677,12.62 14.441,12.375 14.25,12.375L8.625,12.375C8.241,12.375 7.875,12.758 7.875,13.125L7.875,29.625L28.125,29.625L28.125,14.625Z" style="fill:rgb(238,238,236);fill-rule:nonzero;stroke:url(#_Linear13);stroke-width:0.76px;"/>
        <path id="path7263" d="M27.375,15C27.382,14.594 27.374,14.601 27,14.625L15.825,14.625L14.55,13.5C14.189,13.192 14.139,13.094 13.5,13.125L9,13.125C8.643,13.125 8.625,13.156 8.625,13.5L8.625,28.875L27.375,28.875L27.375,15Z" style="fill:none;fill-rule:nonzero;stroke:url(#_Linear14);stroke-width:0.75px;"/>
        <path id="path40085" d="M29.059,29.25C29.044,29.543 28.798,29.625 28.497,29.625L7.503,29.625C7.202,29.625 6.956,29.543 6.94,29.25L6.378,16.5C6.356,16.208 6.452,16.125 6.753,16.125L29.247,16.125C29.547,16.125 29.645,16.208 29.622,16.5L29.059,29.25Z" style="fill:url(#_Linear15);fill-rule:nonzero;stroke:url(#_Linear16);stroke-width:0.75px;"/>
        <path id="path50" d="M8.25,15C8.251,15.219 8.253,15.469 8.255,15.75L27.745,15.75C27.747,15.469 27.749,15.219 27.75,15L8.25,15Z" style="fill:url(#_Linear17);fill-rule:nonzero;"/>
        <rect id="rect3521-5-0" x="6.75" y="16.5" width="22.5" height="0.75" style="fill:url(#_Linear18);"/>
    </g>
    <g id="Layer-11" serif:id="Layer 1">
        <path id="path1432" d="M5.912,9.627C10.242,1.804 19.386,6.227 19.302,13.758L22.987,13.764L16.554,21.098L9.83,13.743L13.817,13.749C14.015,9.075 10.509,7.01 7.717,11.103C6.918,12.275 4.898,11.459 5.912,9.627Z" style="fill:url(#_Linear19);fill-rule:nonzero;stroke:black;stroke-width:0.45px;"/>
        <path id="path4247" d="M21.987,14.226L19.303,14.222C19.053,14.218 18.851,14.015 18.847,13.765C18.887,10.188 16.718,7.373 14.091,6.376C11.463,5.379 8.385,6.104 6.306,9.862C6.091,10.25 6.069,10.531 6.104,10.718C6.139,10.905 6.239,11.023 6.375,11.104C6.645,11.265 7.063,11.242 7.332,10.848C8.065,9.773 8.865,9.065 9.691,8.71C10.516,8.357 11.368,8.375 12.089,8.729C13.528,9.435 14.383,11.315 14.279,13.771C14.267,14.016 14.067,14.21 13.821,14.213L10.881,14.209L16.553,20.413L21.987,14.226Z" style="fill:none;fill-rule:nonzero;stroke:url(#_Linear20);stroke-width:0.45px;"/>
        <path id="path4920" d="M16.532,20.714C17.976,12.243 15.571,7.513 11.789,5.726C17.565,5.665 19.235,11.659 19.054,14.001L22.483,13.999L16.532,20.714Z" style="fill:url(#_Linear21);"/>
    </g>
    <defs>
        <linearGradient id="_Linear1" x1="0" y1="0" x2="1" y2="0" gradientUnits="userSpaceOnUse" gradientTransform="matrix(3.2147e-16,5.25,-5.25,3.2147e-16,16.0792,26.25)"><stop offset="0" style="stop-color:black;stop-opacity:0"/><stop offset="0.5" style="stop-color:black;stop-opacity:0.4"/><stop offset="1" style="stop-color:black;stop-opacity:0"/></linearGradient>
        <radialGradient id="_Radial2" cx="0" cy="0" r="1" gradientUnits="userSpaceOnUse" gradientTransform="matrix(3.84154,0,0,2.53235,26.0175,28.8441)"><stop offset="0" style="stop-color:black;stop-opacity:0.4"/><stop offset="1" style="stop-color:black;stop-opacity:0"/></radialGradient>
        <radialGradient id="_Radial3" cx="0" cy="0" r="1" gradientUnits="userSpaceOnUse" gradientTransform="matrix(-3.84154,0,0,2.53235,9.98253,28.8441)"><stop offset="0" style="stop-color:black;stop-opacity:0.4"/><stop offset="1" style="stop-color:black;stop-opacity:0"/></radialGradient>
        <linearGradient id="_Linear4" x1="0" y1="0" x2="1" y2="0" gradientUnits="userSpaceOnUse" gradientTransform="matrix(3.2147e-16,5.25,-5.25,3.2147e-16,10.0792,14.25)"><stop offset="0" style="stop-color:black;stop-opacity:0"/><stop offset="0.5" style="stop-color:black;stop-opacity:0.4"/><stop offset="1" style="stop-color:black;stop-opacity:0"/></linearGradient>
        <radialGradient id="_Radial5" cx="0" cy="0" r="1" gradientUnits="userSpaceOnUse" gradientTransform="matrix(3.84154,0,0,2.53235,20.0175,16.8441)"><stop offset="0" style="stop-color:black;stop-opacity:0.4"/><stop offset="1" style="stop-color:black;stop-opacity:0"/></radialGradient>
        <radialGradient id="_Radial6" cx="0" cy="0" r="1" gradientUnits="userSpaceOnUse" gradientTransform="matrix(-3.84154,0,0,2.53235,3.98253,16.8441)"><stop offset="0" style="stop-color:black;stop-opacity:0.4"/><stop offset="1" style="stop-color:black;stop-opacity:0"/></radialGradient>
        <linearGradient id="_Linear7" x1="0" y1="0" x2="1" y2="0" gradientUnits="userSpaceOnUse" gradientTransform="matrix(0.0236817,11.2273,-11.2273,0.0236817,11.2497,0.0113599)"><stop offset="0" style="stop-color:rgb(45,46,47);stop-opacity:0.36"/><stop offset="0.35" style="stop-color:rgb(79,81,78);stop-opacity:0.36"/><stop offset="1" style="stop-color:rgb(85,87,83);stop-opacity:0.36"/></linearGradient>
        <linearGradient id="_Linear8" x1="0" y1="0" x2="1" y2="0" gradientUnits="userSpaceOnUse" gradientTransform="matrix(-0.000705998,14.262,-14.262,-0.000705998,11.2504,0.744478)"><stop offset="0" style="stop-color:white;stop-opacity:0.42"/><stop offset="1" style="stop-color:white;stop-opacity:0"/></linearGradient>
        <linearGradient id="_Linear9" x1="0" y1="0" x2="1" y2="0" gradientUnits="userSpaceOnUse" gradientTransform="matrix(-0.0001233,15.003,-15.003,-0.0001233,12,2.99707)"><stop offset="0" style="stop-color:rgb(255,208,87);stop-opacity:0.7"/><stop offset="0.46" style="stop-color:rgb(235,203,114);stop-opacity:0.7"/><stop offset="1" style="stop-color:rgb(186,189,182);stop-opacity:0.7"/></linearGradient>
        <linearGradient id="_Linear10" x1="0" y1="0" x2="1" y2="0" gradientUnits="userSpaceOnUse" gradientTransform="matrix(-1.49959e-05,14.2501,-14.2501,-1.49959e-05,12.7497,3.74995)"><stop offset="0" style="stop-color:rgb(136,138,133);stop-opacity:0.88"/><stop offset="1" style="stop-color:rgb(85,87,83);stop-opacity:0.88"/></linearGradient>
        <linearGradient id="_Linear11" x1="0" y1="0" x2="1" y2="0" gradientUnits="userSpaceOnUse" gradientTransform="matrix(4.59547e-17,0.750498,-0.750498,4.59547e-17,12.2347,3)"><stop offset="0" style="stop-color:rgb(186,189,182);stop-opacity:0"/><stop offset="0.25" style="stop-color:rgb(186,189,182);stop-opacity:0"/><stop offset="1" style="stop-color:rgb(136,138,133);stop-opacity:0.35"/></linearGradient>
        <linearGradient id="_Linear12" x1="0" y1="0" x2="1" y2="0" gradientUnits="userSpaceOnUse" gradientTransform="matrix(29.2306,-0.104165,0.104165,29.2306,-1.3501,5)"><stop offset="0" style="stop-color:rgb(254,235,214);stop-opacity:0"/><stop offset="0" style="stop-color:rgb(254,235,214);stop-opacity:0"/><stop offset="0.46" style="stop-color:rgb(245,245,245);stop-opacity:0.37"/><stop offset="1" style="stop-color:rgb(245,245,245);stop-opacity:0"/></linearGradient>
        <linearGradient id="_Linear13" x1="0" y1="0" x2="1" y2="0" gradientUnits="userSpaceOnUse" gradientTransform="matrix(0.0236817,11.2273,-11.2273,0.0236817,17.2497,12.0114)"><stop offset="0" style="stop-color:rgb(136,138,133);stop-opacity:1"/><stop offset="1" style="stop-color:rgb(85,87,83);stop-opacity:0"/></linearGradient>
        <linearGradient id="_Linear14" x1="0" y1="0" x2="1" y2="0" gradientUnits="userSpaceOnUse" gradientTransform="matrix(-0.000705998,14.262,-14.262,-0.000705998,17.2504,12.7445)"><stop offset="0" style="stop-color:white;stop-opacity:0.6"/><stop offset="1" style="stop-color:white;stop-opacity:0"/></linearGradient>
        <linearGradient id="_Linear15" x1="0" y1="0" x2="1" y2="0" gradientUnits="userSpaceOnUse" gradientTransform="matrix(-0.0001233,15.003,-15.003,-0.0001233,18,14.9971)"><stop offset="0" style="stop-color:rgb(143,179,217);stop-opacity:0.9"/><stop offset="1" style="stop-color:rgb(52,101,164);stop-opacity:0.9"/></linearGradient>
        <linearGradient id="_Linear16" x1="0" y1="0" x2="1" y2="0" gradientUnits="userSpaceOnUse" gradientTransform="matrix(-1.49959e-05,14.2501,-14.2501,-1.49959e-05,18.7497,15.7499)"><stop offset="0" style="stop-color:rgb(52,101,164);stop-opacity:0.9"/><stop offset="1" style="stop-color:rgb(32,74,135);stop-opacity:0.9"/></linearGradient>
        <linearGradient id="_Linear17" x1="0" y1="0" x2="1" y2="0" gradientUnits="userSpaceOnUse" gradientTransform="matrix(4.59547e-17,0.750498,-0.750498,4.59547e-17,18.2347,15)"><stop offset="0" style="stop-color:rgb(114,159,207);stop-opacity:0"/><stop offset="0.25" style="stop-color:rgb(114,159,207);stop-opacity:0"/><stop offset="1" style="stop-color:rgb(52,101,164);stop-opacity:0.5"/></linearGradient>
        <linearGradient id="_Linear18" x1="0" y1="0" x2="1" y2="0" gradientUnits="userSpaceOnUse" gradientTransform="matrix(29.2306,-0.104165,0.104165,29.2306,4.6499,17)"><stop offset="0" style="stop-color:rgb(254,235,214);stop-opacity:0"/><stop offset="0" style="stop-color:rgb(254,235,214);stop-opacity:0"/><stop offset="0.46" style="stop-color:rgb(245,245,245);stop-opacity:0.53"/><stop offset="1" style="stop-color:rgb(245,245,245);stop-opacity:0"/></linearGradient>
        <linearGradient id="_Linear19" x1="0" y1="0" x2="1" y2="0" gradientUnits="userSpaceOnUse" gradientTransform="matrix(-1.3453,2.16769,-2.16769,-1.3453,8.63565,7.69556)"><stop offset="0" style="stop-color:rgb(115,210,22);stop-opacity:1"/><stop offset="1" style="stop-color:rgb(138,226,52);stop-opacity:1"/></linearGradient>
        <linearGradient id="_Linear20" x1="0" y1="0" x2="1" y2="0" gradientUnits="userSpaceOnUse" gradientTransform="matrix(-12.097,-1.60877,1.60877,-12.097,11.705,11.5215)"><stop offset="0" style="stop-color:white;stop-opacity:0.62"/><stop offset="1" style="stop-color:white;stop-opacity:0"/></linearGradient>
        <linearGradient id="_Linear21" x1="0" y1="0" x2="1" y2="0" gradientUnits="userSpaceOnUse" gradientTransform="matrix(-3.12014,-6.6083,6.6083,-3.12014,18.2591,14.7207)"><stop offset="0" style="stop-color:white;stop-opacity:0.45"/><stop offset="1" style="stop-color:white;stop-opacity:0"/></linearGradient>
    </defs>
</svg>
