<?xml version="1.0" encoding="UTF-8" standalone="no"?>
<!DOCTYPE svg PUBLIC "-//W3C//DTD SVG 1.1//EN" "http://www.w3.org/Graphics/SVG/1.1/DTD/svg11.dtd">
<svg width="30px" height="30px" version="1.1" xmlns="http://www.w3.org/2000/svg" xmlns:xlink="http://www.w3.org/1999/xlink" xml:space="preserve" xmlns:serif="http://www.serif.com/" style="fill-rule:evenodd;clip-rule:evenodd;stroke-linejoin:round;stroke-miterlimit:2;">
    <g id="Image">
        <rect id="red" x="0" y="4.5" width="2.587" height="21" style="fill:rgb(255,0,0);"/>
        <path id="dots" d="M0,30L0,27L3,27L3,30L0,30ZM4.5,30L4.5,27L7.5,27L7.5,30L4.5,30ZM9,30L9,27L12,27L12,30L9,30ZM13.5,30L13.5,27L16.5,27L16.5,30L13.5,30ZM18,30L18,27L21,27L21,30L18,30ZM22.5,30L22.5,27L25.5,27L25.5,30L22.5,30ZM27,30L27,27L30,27L30,30L27,30ZM27,25.5L27,22.5L30,22.5L30,25.5L27,25.5ZM27,21L27,18L30,18L30,21L27,21ZM27,16.5L27,13.5L30,13.5L30,16.5L27,16.5ZM27,12L27,9L30,9L30,12L27,12ZM27,7.5L27,4.5L30,4.5L30,7.5L27,7.5ZM0,3L0,0L3,0L3,3L0,3ZM4.5,3L4.5,0L7.5,0L7.5,3L4.5,3ZM9,3L9,0L12,0L12,3L9,3ZM13.5,3L13.5,0L16.5,0L16.5,3L13.5,3ZM18,3L18,0L21,0L21,3L18,3ZM22.5,3L22.5,0L25.5,0L25.5,3L22.5,3ZM27,3L27,0L30,0L30,3L27,3Z" style="fill:rgb(0,0,255);fill-rule:nonzero;"/>
    </g>
</svg>
