<?xml version="1.0" encoding="UTF-8" standalone="no"?>
<!-- Created with Inkscape (http://www.inkscape.org/) -->

<svg
   version="1.1"
   id="svg1606"
   width="32"
   height="32"
   viewBox="0 0 32 32"
   sodipodi:docname="left.svg"
   inkscape:version="1.1.2 (b8e25be833, 2022-02-05)"
   xmlns:inkscape="http://www.inkscape.org/namespaces/inkscape"
   xmlns:sodipodi="http://sodipodi.sourceforge.net/DTD/sodipodi-0.dtd"
   xmlns="http://www.w3.org/2000/svg"
   xmlns:svg="http://www.w3.org/2000/svg">
  <defs
     id="defs1610" />
  <sodipodi:namedview
     id="namedview1608"
     pagecolor="#ffffff"
     bordercolor="#666666"
     borderopacity="1.0"
     inkscape:pageshadow="2"
     inkscape:pageopacity="0.0"
     inkscape:pagecheckerboard="0"
     showgrid="true"
     inkscape:zoom="41.829786"
     inkscape:cx="15.993388"
     inkscape:cy="16.005341"
     inkscape:window-width="3840"
     inkscape:window-height="2102"
     inkscape:window-x="-8"
     inkscape:window-y="32"
     inkscape:window-maximized="1"
     inkscape:current-layer="g1612">
    <inkscape:grid
       type="xygrid"
       id="grid13456" />
  </sodipodi:namedview>
  <g
     inkscape:groupmode="layer"
     inkscape:label="Image"
     id="g1612">
    <g
       id="g13833"
       transform="matrix(1.0714286,0,0,1.097561,-1.1428571,-1.9268293)">
      <path
         style="display:inline;fill:#0000ff;stroke-width:1.38323"
         d="M 2,28.633334 V 27.266667 H 3.3999999 4.8 V 28.633334 30 H 3.3999999 2 Z m 4.2000001,0 V 27.266667 H 7.6 9.0000001 V 28.633334 30 H 7.6 6.2000001 Z m 4.1999999,0 v -1.366667 h 1.4 1.4 V 28.633334 30 h -1.4 -1.4 z m 4.2,0 V 27.266667 H 16.000001 17.4 V 28.633334 30 H 16.000001 14.6 Z m 4.2,0 V 27.266667 H 20.200001 21.6 V 28.633334 30 H 20.200001 18.8 Z m 4.2,0 V 27.266667 H 24.400001 25.8 V 28.633334 30 H 24.400001 23 Z m 4.2,0 V 27.266667 H 28.600001 30 V 28.633334 30 H 28.600001 27.2 Z m 0,-4.1 V 23.166667 H 28.600001 30 V 24.533334 25.9 H 28.600001 27.2 Z m 0,-4.1 V 19.066667 H 28.600001 30 V 20.433334 21.8 H 28.600001 27.2 Z m 0,-4.1 V 14.966667 H 28.600001 30 V 16.333334 17.7 H 28.600001 27.2 Z m 0,-4.100001 V 10.866667 H 28.600001 30 V 12.233333 13.6 H 28.600001 27.2 Z m 0,-4.0999996 V 6.7666668 H 28.600001 30 V 8.1333334 9.5000001 H 28.600001 27.2 Z M 2,4.0333333 V 2.6666667 H 3.3999999 4.8 V 4.0333333 5.4 H 3.3999999 2 Z m 4.2000001,0 V 2.6666667 H 7.6 9.0000001 V 4.0333333 5.4 H 7.6 6.2000001 Z m 4.1999999,0 V 2.6666667 h 1.4 1.4 V 4.0333333 5.4 h -1.4 -1.4 z m 4.2,0 V 2.6666667 H 16.000001 17.4 V 4.0333333 5.4 H 16.000001 14.6 Z m 4.2,0 V 2.6666667 H 20.200001 21.6 V 4.0333333 5.4 H 20.200001 18.8 Z m 4.2,0 V 2.6666667 H 24.400001 25.8 V 4.0333333 5.4 H 24.400001 23 Z m 4.2,0 V 2.6666667 H 28.600001 30 V 4.0333333 5.4 H 28.600001 27.2 Z"
         id="path1714"
         inkscape:label="dots" />
      <path
         style="display:inline;fill:#ff0000;fill-opacity:1;stroke-width:0.0248643"
         d="M 2,16.250001 V 5.499999 H 3.2072737 4.4145474 V 16.250001 27 H 3.2072737 2 Z"
         id="path13517"
         inkscape:label="red" />
    </g>
  </g>
</svg>
