<?xml version="1.0" encoding="UTF-8" standalone="no"?><!DOCTYPE svg PUBLIC "-//W3C//DTD SVG 1.1//EN" "http://www.w3.org/Graphics/SVG/1.1/DTD/svg11.dtd"><svg width="100%" height="100%" viewBox="0 0 32 32" version="1.1" xmlns="http://www.w3.org/2000/svg" xmlns:xlink="http://www.w3.org/1999/xlink" xml:space="preserve" xmlns:serif="http://www.serif.com/" style="fill-rule:evenodd;clip-rule:evenodd;stroke-linejoin:round;stroke-miterlimit:2;"><g id="Image"><g id="g13833"><path id="dots" d="M1,31l0,-3l3,0l0,3l-3,0Zm4.5,0l0,-3l3,0l0,3l-3,0Zm4.5,0l0,-3l3,0l0,3l-3,0Zm4.5,0l0,-3l3,0l0,3l-3,0Zm4.5,0l0,-3l3,0l0,3l-3,0Zm4.5,0l0,-3l3,0l0,3l-3,0Zm4.5,0l0,-3l3,0l0,3l-3,0Zm0,-4.5l0,-3l3,0l0,3l-3,0Zm0,-4.5l0,-3l3,0l0,3l-3,0Zm0,-4.5l0,-3l3,0l0,3l-3,0Zm0,-4.5l0,-3l3,0l0,3l-3,0Zm0,-4.5l0,-3l3,0l0,3l-3,0Zm-27,-4.5l0,-3l3,0l0,3l-3,0Zm4.5,0l0,-3l3,0l0,3l-3,0Zm4.5,0l0,-3l3,0l0,3l-3,0Zm4.5,0l0,-3l3,0l0,3l-3,0Zm4.5,0l0,-3l3,0l0,3l-3,0Zm4.5,0l0,-3l3,0l0,3l-3,0Zm4.5,0l0,-3l3,0l0,3l-3,0Z" style="fill:#00f;fill-rule:nonzero;"/><rect id="red" x="1" y="4.11" width="2.587" height="23.598" style="fill:#f00;fill-rule:nonzero;"/></g></g></svg>