<?xml version="1.0" encoding="UTF-8" standalone="no"?>
<!DOCTYPE svg PUBLIC "-//W3C//DTD SVG 1.1//EN" "http://www.w3.org/Graphics/SVG/1.1/DTD/svg11.dtd">
<svg width="30px" height="30px" version="1.1" xmlns="http://www.w3.org/2000/svg" xmlns:xlink="http://www.w3.org/1999/xlink" xml:space="preserve" xmlns:serif="http://www.serif.com/" style="fill-rule:evenodd;clip-rule:evenodd;stroke-miterlimit:10;">
    <rect id="outer" x="0" y="0" width="30" height="30" style="fill:none;"/>
    <g>
        <path d="M26.6,15.003C26.6,8.601 21.402,3.403 15,3.403C8.598,3.403 3.4,8.601 3.4,15.003C3.4,21.406 8.598,26.603 15,26.603C21.402,26.603 26.6,21.406 26.6,15.003" style="fill:rgb(0,0,128);fill-rule:nonzero;"/>
        <path d="M23.203,10.197C23.203,8.322 21.681,6.8 19.807,6.8C17.932,6.8 16.41,8.322 16.41,10.197C16.41,12.071 17.932,13.593 19.807,13.593C21.681,13.593 23.203,12.071 23.203,10.197" style="fill:white;fill-rule:nonzero;"/>
        <path d="M29.997,3.4C29.997,1.525 28.475,0.003 26.6,0.003C24.725,0.003 23.203,1.525 23.203,3.4C23.203,5.275 24.725,6.797 26.6,6.797C28.475,6.797 29.997,5.278 29.997,3.4" style="fill:rgb(0,0,128);fill-rule:nonzero;"/>
        <g>
            <path d="M8.098,19.944L11.856,19.944L11.856,20.8L7.127,20.8L7.127,13.189L8.098,13.189L8.098,19.944Z" style="fill:white;fill-rule:nonzero;"/>
            <path d="M16.346,20.8L16.346,20.037C15.833,20.758 15.324,21.04 14.519,21.04C13.455,21.04 12.776,20.457 12.776,19.547L12.776,15.33L13.641,15.33L13.641,19.204C13.641,19.861 14.08,20.281 14.769,20.281C15.676,20.281 16.263,19.55 16.263,18.432L16.263,15.33L17.128,15.33L17.128,20.8L16.346,20.8Z" style="fill:white;fill-rule:nonzero;"/>
            <path d="M23.489,20.947C23.207,21.021 23.072,21.04 22.893,21.04C22.329,21.04 22.056,20.79 21.995,20.236C21.38,20.8 20.826,21.04 20.137,21.04C19.031,21.04 18.342,20.416 18.342,19.422C18.342,18.711 18.666,18.22 19.304,17.961C19.637,17.826 19.826,17.785 21.056,17.628C21.745,17.544 21.963,17.387 21.963,17.022L21.963,16.791C21.963,16.269 21.524,15.977 20.742,15.977C19.928,15.977 19.531,16.279 19.457,16.948L18.579,16.948C18.602,16.407 18.704,16.093 18.954,15.811C19.32,15.404 19.977,15.173 20.771,15.173C22.117,15.173 22.828,15.695 22.828,16.666L22.828,19.884C22.828,20.156 22.995,20.313 23.3,20.313C23.351,20.313 23.392,20.313 23.489,20.291L23.489,20.947ZM21.963,18.095C21.672,18.23 21.483,18.272 20.563,18.397C19.634,18.531 19.246,18.826 19.246,19.4C19.246,19.954 19.643,20.278 20.323,20.278C20.835,20.278 21.261,20.111 21.617,19.787C21.877,19.547 21.963,19.371 21.963,19.076L21.963,18.095Z" style="fill:white;fill-rule:nonzero;"/>
        </g>
        <path d="M28.366,8.191C29.439,10.299 30,12.632 30,15C30,23.28 23.28,30 15,30C6.72,30 0,23.28 0,15C0,6.72 6.72,-0 15,-0C17.663,-0 20.275,0.708 22.569,2.048" style="fill:none;fill-rule:nonzero;stroke:rgb(128,128,128);stroke-width:0.35px;stroke-dasharray:1.31,1.31;"/>
    </g>
</svg>
