<?xml version="1.0" encoding="UTF-8" standalone="no"?><!DOCTYPE svg PUBLIC "-//W3C//DTD SVG 1.1//EN" "http://www.w3.org/Graphics/SVG/1.1/DTD/svg11.dtd"><svg width="100%" height="100%" viewBox="0 0 256 256" version="1.1" xmlns="http://www.w3.org/2000/svg" xmlns:xlink="http://www.w3.org/1999/xlink" xml:space="preserve" xmlns:serif="http://www.serif.com/" style="fill-rule:evenodd;clip-rule:evenodd;stroke-linejoin:round;stroke-miterlimit:2;"><g id="Layer-1" serif:id="Layer 1"><g id="g16987"><path id="path16981" d="M154.696,46.918c-25.267,-26.684 -70.035,-30.017 -98.946,-7.463c-29.19,20.938 -39.327,63.729 -22.944,95.831c14.877,31.859 53.068,49.645 86.711,40.461c34.921,-8.167 60.51,-43.975 57.211,-80.043c-1.227,-18.246 -9.176,-35.906 -22.032,-48.786Zm-5.114,103.46c-23.657,25.066 -66.196,27.189 -92.203,4.643c-26.437,-20.934 -33.085,-62.18 -14.789,-90.589c16.745,-28.39 54.738,-40.626 84.692,-27.447c30.159,11.983 48.368,47.328 40.821,79.169c-2.756,12.894 -9.268,24.92 -18.521,34.224Z" style="fill-rule:nonzero;"/><path id="path16983" d="M244.525,215.736c-16.845,-17.022 -33.69,-34.044 -50.536,-51.066c-3.064,2.357 -6.128,9.227 -9.193,3.402c-3.283,-3.317 -6.566,-6.634 -9.849,-9.951c26.458,-33.805 24.964,-86.055 -3.531,-118.179c-26.528,-32.348 -75.426,-42.11 -112.231,-22.7c-36.57,17.893 -57.851,61.775 -49.466,101.944c7.319,42.22 46.455,75.756 88.905,75.966c20.941,0.603 42.015,-6.213 58.621,-19.141c4.254,4.299 8.507,8.597 12.761,12.896c-2.332,3.096 -9.129,6.193 -3.365,9.289c16.422,16.498 32.656,33.196 49.197,49.567c12.207,11.151 34.085,1.956 34.847,-14.663c0.634,-6.336 -1.667,-12.889 -6.16,-17.364Zm-82.952,-53.24c-27.525,28.947 -75.532,33.747 -108.168,10.868c-32.751,-21.229 -46.957,-66.275 -32.647,-102.787c13.002,-36.661 52.638,-60.857 90.809,-55.331c40.21,4.234 73.849,40.812 75.014,81.664c1.327,24.192 -7.946,48.554 -25.008,65.586Zm1.271,8.835c4.51,-5.782 8.442,-9.741 12.816,-2.155c1.491,2.989 9.509,5.979 4.992,8.969c-2.977,3.042 -5.955,8.005 -8.932,2.156c-2.959,-2.99 -5.917,-5.98 -8.876,-8.97Zm76.566,69.818c-6.539,7.07 -17.811,4.394 -22.948,-2.944c-14.169,-14.318 -28.338,-28.636 -42.507,-42.954c6.679,-6.749 13.357,-13.497 20.035,-20.245c2.273,3.001 7.304,6.002 7.938,9.002c-3.951,3.993 -7.901,7.985 -11.852,11.977c3,3.823 6,6.798 8.999,1.243c2.98,-2.312 5.959,-7.393 8.939,-8.051c11.005,11.38 22.562,22.27 33.209,33.97c3.69,5.479 2.888,13.397 -1.813,18.002Z" style="fill-rule:nonzero;"/></g><path id="path17444" d="M223.92,243.707c-1.611,-0.763 -10.411,-9.233 -25.914,-24.943l-23.474,-23.787l19.188,-19.39l7.949,7.962l-5.796,5.879c-3.188,3.234 -5.797,6.165 -5.797,6.514c0,0.799 4.419,5.198 5.221,5.198c0.328,-0 3.194,-2.636 6.369,-5.858l5.773,-5.858l16.688,16.795c10.718,10.787 17.097,17.678 17.831,19.261c5.138,11.077 -7.078,23.421 -18.038,18.227Z" style="fill:#00f;fill-rule:nonzero;"/><path id="path23250" d="M85.191,185.699c-18.134,-3.968 -31.82,-11.554 -44.84,-24.857c-10.985,-11.223 -18.336,-24.634 -22.328,-40.734c-1.942,-7.835 -2.241,-23.758 -0.623,-33.275c3.075,-18.093 10.869,-33.307 23.653,-46.168c11.759,-11.829 24.157,-18.886 40.453,-23.024c5.895,-1.497 7.469,-1.634 18.93,-1.652c17.149,-0.027 24.702,1.67 38.417,8.632c8.599,4.364 14.39,8.598 21.413,15.653c12.286,12.343 19.34,24.878 23.587,41.911c1.506,6.039 1.617,7.409 1.586,19.437c-0.033,12.436 -0.107,13.221 -1.916,20.144c-7.17,27.444 -27.302,50.249 -52.986,60.018c-9.238,3.513 -15.563,4.624 -27.967,4.913c-10.068,0.235 -12.345,0.104 -17.379,-0.998Zm27.176,-8.02c15.351,-2.157 30.613,-9.838 41.87,-21.071c15.18,-15.148 23.033,-34 23.033,-55.294c0,-33.544 -20.568,-62.72 -51.624,-73.226c-8.065,-2.729 -15.066,-3.796 -24.905,-3.796c-9.899,0 -17.138,1.102 -25.002,3.806c-25.66,8.822 -45.283,32.099 -49.974,59.281c-1.225,7.101 -1.225,20.77 0,27.87c4.313,24.989 21.423,46.815 44.622,56.92c4.858,2.117 15.377,5.14 19.988,5.746c4.038,0.531 17.572,0.385 21.992,-0.236Z" style="fill:#0ff;fill-rule:nonzero;"/><path id="path23326" d="M169.272,177.259l-5.836,-6.005l7.106,-6.822l5.807,5.891l5.808,5.891l-3.525,3.525l-3.525,3.524l-5.835,-6.004Z" style="fill:#0ff;fill-rule:nonzero;"/><g id="g625"><path id="path9" d="M73.764,71.856l57.156,0c2.625,0 4.776,2.376 4.776,5.291l0,53.048c0,2.923 -2.15,5.291 -4.776,5.291l-57.15,-0c-2.614,-0 -4.752,-2.376 -4.752,-5.291l-0,-53.048c-0,-2.916 2.131,-5.291 4.746,-5.291Zm39.151,3.98c-1.325,0 -2.366,1.181 -2.366,2.656c-0,1.476 1.041,2.656 2.366,2.656c1.314,0 2.386,-1.18 2.386,-2.656c-0,-1.476 -1.072,-2.656 -2.386,-2.656Zm7.292,0c-1.325,0 -2.385,1.181 -2.385,2.656c-0,1.476 1.06,2.656 2.385,2.656c1.307,0 2.386,-1.18 2.386,-2.656c-0,-1.476 -1.079,-2.656 -2.386,-2.656Zm7.144,0c-1.3,0 -2.373,1.181 -2.373,2.656c-0,1.476 1.071,2.656 2.373,2.656c1.312,0 2.379,-1.18 2.379,-2.656c0,-1.476 -1.071,-2.656 -2.379,-2.656Zm-53.587,54.366l57.156,-0l-0,-45.026l-57.15,0l-0,45.026l-0.006,-0Zm-0,-50.33l33.345,-0l0,-2.656l-33.345,-0l-0,2.656Z" style="fill:#030104;fill-rule:nonzero;"/><path id="path292" d="M72.254,134.91c-0.575,-0.215 -1.466,-1.029 -1.979,-1.809c-0.908,-1.381 -0.933,-2.168 -0.933,-29.503c-0,-27.086 0.032,-28.132 0.909,-29.465c0.633,-0.963 1.476,-1.524 2.779,-1.849c1.269,-0.317 11.06,-0.428 30.497,-0.346c27.868,0.118 28.655,0.144 29.657,0.984c2.388,2.004 2.331,1.248 2.331,30.698c-0,24.557 -0.082,27.658 -0.762,28.988c-1.456,2.843 -0.334,2.749 -32.42,2.719c-16.091,-0.015 -29.499,-0.201 -30.079,-0.417Zm59.066,-4.308l0,-45.798l-57.787,0l-0,45.798l57.787,-0Zm-16.697,-49.969c1.732,-1.454 0.586,-4.902 -1.63,-4.902c-1.416,0 -2.644,1.27 -2.644,2.733c0,2.466 2.443,3.705 4.274,2.169Zm7.583,-0.245c1.477,-1.955 0.315,-4.657 -2.004,-4.657c-0.703,0 -1.53,0.233 -1.837,0.519c-0.803,0.744 -0.69,3.619 0.173,4.419c1.051,0.974 2.822,0.839 3.668,-0.281Zm6.864,0.245c1.732,-1.454 0.586,-4.902 -1.63,-4.902c-1.416,0 -2.644,1.27 -2.644,2.733c-0,2.466 2.443,3.705 4.274,2.169Zm-21.517,-0.581l-0,-3.025l-34.02,0l-0,3.025l34.02,-0Z" style="fill:#2ad4ff;fill-rule:nonzero;"/><path id="path368" d="M111.586,80.126c-1.441,-1.477 -0.609,-3.963 1.326,-3.963c1.982,0 2.82,2.716 1.245,4.038c-1.092,0.916 -1.618,0.901 -2.571,-0.075Z" style="fill-rule:nonzero;"/><path id="path407" d="M118.831,80.397c-0.308,-0.285 -0.559,-1.136 -0.559,-1.891c-0,-2.506 2.378,-3.142 3.684,-0.985c0.616,1.017 0.604,1.252 -0.111,2.265c-0.852,1.205 -2.1,1.459 -3.014,0.611Z" style="fill-rule:nonzero;"/><path id="path446" d="M126.033,80.126c-1.441,-1.477 -0.609,-3.963 1.326,-3.963c1.982,0 2.82,2.716 1.245,4.038c-1.092,0.916 -1.618,0.901 -2.571,-0.075Z" style="fill-rule:nonzero;"/><rect id="path485" x="73.999" y="77.459" width="33.088" height="2.16" style="fill-rule:nonzero;"/><rect id="path561" x="73.882" y="85.236" width="56.856" height="44.933" style="fill:#fff;fill-rule:nonzero;"/></g></g></svg>