<?xml version="1.0" encoding="UTF-8" standalone="no"?>
<!-- Created with Inkscape (http://www.inkscape.org/) -->

<svg
   width="210mm"
   height="297mm"
   viewBox="0 0 210 297"
   version="1.1"
   id="svg17200"
   inkscape:version="1.1.2 (b8e25be833, 2022-02-05)"
   sodipodi:docname="magnify.svg"
   xmlns:inkscape="http://www.inkscape.org/namespaces/inkscape"
   xmlns:sodipodi="http://sodipodi.sourceforge.net/DTD/sodipodi-0.dtd"
   xmlns="http://www.w3.org/2000/svg"
   xmlns:svg="http://www.w3.org/2000/svg">
  <sodipodi:namedview
     id="namedview17202"
     pagecolor="#ffffff"
     bordercolor="#666666"
     borderopacity="1.0"
     inkscape:pageshadow="2"
     inkscape:pageopacity="0.0"
     inkscape:pagecheckerboard="0"
     inkscape:document-units="mm"
     showgrid="true"
     inkscape:zoom="0.38885733"
     inkscape:cx="401.17542"
     inkscape:cy="-497.61182"
     inkscape:window-width="3840"
     inkscape:window-height="2102"
     inkscape:window-x="-8"
     inkscape:window-y="32"
     inkscape:window-maximized="1"
     inkscape:current-layer="layer1">
    <inkscape:grid
       type="xygrid"
       id="grid17329" />
  </sodipodi:namedview>
  <defs
     id="defs17197" />
  <g
     inkscape:label="Layer 1"
     inkscape:groupmode="layer"
     id="layer1">
    <g
       id="g16987"
       style="display:inline"
       transform="matrix(0.26458333,0,0,0.26458333,37.39023,80.766403)">
      <path
         d="M 309.336,82.704 C 256.05924,27.022151 161.65995,20.067303 100.69824,67.130625 39.148804,110.82129 17.77258,200.11151 52.319639,267.09731 83.688912,333.57762 164.21832,370.69016 235.15847,351.52638 308.79321,334.48554 362.75034,259.76624 355.79424,184.50295 353.20686,146.43053 336.44571,109.58013 309.336,82.704 Z M 298.553,298.59 C 248.66962,350.89449 158.97186,355.32465 104.13271,308.27968 48.387701,264.59685 34.371116,178.53069 72.950042,119.25035 108.25837,60.008209 188.36984,34.476454 251.531,61.9765 c 63.59478,25.005234 101.98969,98.75738 86.07645,165.20036 -5.81143,26.90488 -19.54371,51.99828 -39.05445,71.41314 z"
         id="path16981"
         style="display:inline" />
      <path
         d="m 498.75,434.97 c -35.51967,-35.519 -71.03933,-71.038 -106.559,-106.557 -6.46175,4.9192 -12.92324,19.253 -19.38547,7.09976 C 365.88336,328.59084 358.96118,321.66892 352.039,314.747 407.82781,244.20705 404.67699,135.1782 344.59313,68.14713 288.65508,0.64770653 185.5486,-19.721704 107.94188,20.780085 30.829495,58.116257 -14.043689,149.68387 3.6383438,233.50364 19.071025,321.60284 101.59277,391.58112 191.10333,392.01937 c 44.1556,1.25742 88.592,-12.96602 123.60767,-39.94137 8.96967,8.96967 17.93933,17.93933 26.909,26.909 -4.91869,6.4615 -19.24977,12.92318 -7.09665,19.38435 34.6289,34.42438 68.85828,69.26822 103.738,103.42927 25.7388,23.26832 71.87048,4.08108 73.47815,-30.59617 1.33726,-13.2213 -3.51593,-26.89497 -12.9895,-36.23445 z M 323.837,323.876 C 265.79797,384.27885 164.57052,394.29532 95.753937,346.55395 26.69491,302.25718 -3.2586518,208.26062 26.915064,132.07262 54.330948,55.572973 137.90761,5.0839721 218.39376,16.614105 303.18152,25.450149 374.11339,101.77629 376.56947,187.01936 379.36791,237.50167 359.81509,288.33607 323.837,323.876 Z m 2.681,18.437 c 9.50969,-12.0649 17.8011,-20.32668 27.02403,-4.4984 3.14356,6.23866 20.05094,12.47719 10.5254,18.71597 -6.27789,6.34792 -12.55582,16.70362 -18.83354,4.49905 C 338.99526,354.79074 332.75663,348.55187 326.518,342.313 Z M 487.965,488 c -13.78732,14.75118 -37.55631,9.16726 -48.38732,-6.14339 -29.87689,-29.8772 -59.75379,-59.75441 -89.63068,-89.63161 14.08167,-14.08167 28.16333,-28.16333 42.245,-42.245 4.79214,6.26196 15.40144,12.52393 16.73811,18.78589 -8.33037,8.33037 -16.66074,16.66074 -24.99111,24.99111 6.32554,7.97681 12.65105,14.18545 18.97614,2.59286 6.28258,-4.82455 12.56517,-15.42646 18.84775,-16.79997 23.20597,23.74804 47.57567,46.47131 70.02545,70.88558 7.78117,11.43146 6.08976,27.95383 -3.82334,37.56453 z"
         id="path16983"
         style="display:inline" />
    </g>
    <path
       style="display:inline;fill:#0000ff;stroke-width:1.28784"
       d="m 596.61986,798.59673 c -3.39677,-1.59283 -21.9515,-19.26684 -54.64162,-52.048 l -49.49833,-49.63618 20.22987,-20.22987 20.22987,-20.22987 8.381,8.30651 8.381,8.30651 -12.22236,12.2684 c -6.7223,6.74762 -12.22237,12.86389 -12.22237,13.59171 0,1.66738 9.31661,10.84596 11.00907,10.84596 0.69135,0 6.73478,-5.50066 13.42986,-12.22369 l 12.17285,-12.22368 35.18812,35.04696 c 22.59953,22.50888 36.05061,36.88698 37.59898,40.19024 10.83432,23.11368 -14.92497,48.87233 -38.03594,38.035 z"
       id="path17444"
       transform="scale(0.26458333)" />
    <path
       style="display:inline;fill:#00ffff;fill-opacity:1;stroke-width:1.28784"
       d="m 304.09611,677.55307 c -38.23884,-8.27974 -67.09664,-24.11054 -94.55114,-51.86881 -23.16242,-23.41871 -38.66234,-51.40246 -47.07929,-84.99752 -4.09622,-16.34946 -4.72566,-49.57625 -1.31535,-69.4342 6.48396,-37.75562 22.91882,-69.50058 49.87525,-96.33719 24.79504,-24.68484 50.93749,-39.40942 85.29894,-48.04412 12.43061,-3.12369 15.74922,-3.4103 39.91706,-3.44739 36.16061,-0.0555 52.08615,3.48546 81.00657,18.01136 18.13105,9.1067 30.34301,17.94119 45.15007,32.66288 25.90628,25.75693 40.78175,51.9134 49.73611,87.45414 3.17512,12.60236 3.41081,15.46062 3.34449,40.55996 -0.0685,25.94948 -0.22606,27.5882 -4.03949,42.03317 -15.11833,57.26716 -57.57034,104.85205 -111.72783,125.23686 -19.4783,7.33162 -32.81586,9.65062 -58.96956,10.25307 -21.22936,0.48899 -26.03115,0.21617 -36.64583,-2.08221 z m 57.30337,-16.7354 c 32.36951,-4.50218 64.54941,-20.52864 88.28752,-43.96955 32.00867,-31.60794 48.56773,-70.94608 48.56773,-115.37884 0,-69.99657 -43.37108,-130.87628 -108.85527,-152.79946 -17.00584,-5.69332 -31.76865,-7.91966 -52.51497,-7.91966 -20.87362,0 -36.13777,2.29906 -52.71857,7.94038 -54.10799,18.40928 -95.48446,66.98119 -105.37547,123.70042 -2.58385,14.81686 -2.58385,43.33977 0,58.15663 9.09282,52.14208 45.17107,97.68544 94.08834,118.77237 10.24481,4.41626 32.42431,10.72585 42.14678,11.98983 8.51483,1.107 37.05421,0.80414 46.37391,-0.49212 z"
       id="path23250"
       transform="scale(0.26458333)" />
    <path
       style="display:inline;fill:#00ffff;fill-opacity:1;stroke-width:1.28784"
       d="m 481.38853,659.93987 -12.30451,-12.53018 7.49122,-7.11722 7.49122,-7.11722 12.24606,12.29219 12.24606,12.29218 -7.43277,7.35521 -7.43276,7.35521 z"
       id="path23326"
       transform="scale(0.26458333)" />
    <g
       id="g625"
       transform="matrix(0.76423955,0,0,0.70114567,21.044583,41.032513)">
      <path
         style="display:inline;fill:#030104;stroke-width:4.93096"
         d="M 69.400687,107.51568 H 111.125 c 1.91677,0 3.48712,1.8708 3.48712,4.16642 v 41.77092 c 0,2.30195 -1.56967,4.16621 -3.48712,4.16621 H 69.40511 c -1.907754,0 -3.469091,-1.8708 -3.469091,-4.16621 V 111.6821 c 0,-2.29664 1.556066,-4.16642 3.464668,-4.16642 z m 28.581095,3.1342 c -0.967652,0 -1.727828,0.92927 -1.727828,2.09117 0,1.16211 0.760176,2.09137 1.727828,2.09137 0.959148,0 1.741432,-0.92926 1.741432,-2.09137 0,-1.1621 -0.782284,-2.09117 -1.741432,-2.09117 z m 5.322938,0 c -0.96766,0 -1.74127,0.92927 -1.74127,2.09117 0,1.16211 0.77378,2.09137 1.74127,2.09137 0.95404,0 1.74143,-0.92926 1.74143,-2.09137 0,-1.1621 -0.78739,-2.09117 -1.74143,-2.09117 z m 5.21511,0 c -0.94894,0 -1.73242,0.92927 -1.73242,2.09117 0,1.16211 0.78229,2.09137 1.73242,2.09137 0.95744,0 1.73683,-0.92926 1.73683,-2.09137 0,-1.1621 -0.78228,-2.09117 -1.73683,-2.09117 z M 69.400687,153.45833 H 111.125 V 118.00442 H 69.40511 v 35.45391 z m 0,-39.63094 h 24.342474 v -2.09138 H 69.400687 Z"
         id="path9" />
      <path
         style="fill:#2ad4ff;stroke-width:1.28784"
         d="m 258.13622,594.01116 c -1.58673,-0.63794 -4.0437,-3.06039 -5.45992,-5.38324 -2.50634,-4.1108 -2.57496,-6.4506 -2.57496,-87.80156 0,-80.61038 0.0891,-83.72428 2.50819,-87.69177 1.74783,-2.86654 4.07208,-4.53467 7.66701,-5.50268 3.5026,-0.94316 30.51709,-1.27374 84.14556,-1.02972 76.88863,0.34987 79.06212,0.42764 81.82422,2.92801 6.59006,5.96559 6.43166,3.71551 6.43166,91.35944 0,73.08359 -0.22493,82.31446 -2.10211,86.27034 -4.01583,8.46272 -0.91992,8.18262 -89.44862,8.09255 -44.39767,-0.0451 -81.39208,-0.59853 -82.99103,-1.24137 z m 162.96939,-80.96952 v -68.14839 h -79.72076 -79.72076 v 68.14839 68.14839 h 79.72076 79.72076 z m -46.06927,-80.56295 c 4.7796,-4.32547 1.61592,-14.58763 -4.49715,-14.58763 -3.90593,0 -7.29542,3.77929 -7.29542,8.13441 0,7.33761 6.73987,11.02585 11.79257,6.45322 z m 20.9229,-0.72973 c 4.07482,-5.81763 0.86692,-13.8579 -5.52902,-13.8579 -1.94007,0 -4.22173,0.69434 -5.07037,1.54298 -2.2147,2.2147 -1.90402,10.77049 0.47759,13.15209 2.90004,2.90003 7.78728,2.49581 10.1218,-0.83717 z m 18.93748,0.72973 c 4.7796,-4.32547 1.61592,-14.58763 -4.49716,-14.58763 -3.90592,0 -7.29541,3.77929 -7.29541,8.13441 0,7.33761 6.73987,11.02585 11.79257,6.45322 z m -59.36786,-6.22981 v -4.50036 h -46.93238 -46.93239 v 4.50036 4.50037 h 46.93239 46.93238 z"
         id="path292"
         transform="scale(0.26458333)" />
      <path
         style="fill:#000000;stroke-width:1.28784"
         d="m 366.6576,430.96946 c -3.97672,-4.39423 -1.68168,-11.79258 3.65817,-11.79258 5.46914,0 7.77986,8.08372 3.43476,12.01599 -3.01349,2.72716 -4.46404,2.68147 -7.09293,-0.22341 z"
         id="path368"
         transform="scale(0.26458333)" />
      <path
         style="fill:#000000;stroke-width:1.28784"
         d="m 386.64567,431.7779 c -0.84864,-0.84864 -1.54298,-3.38157 -1.54298,-5.62874 0,-7.45784 6.56318,-9.35106 10.16586,-2.93244 1.69958,3.02802 1.66772,3.72779 -0.3069,6.74145 -2.35083,3.58782 -5.79437,4.34135 -8.31598,1.81973 z"
         id="path407"
         transform="scale(0.26458333)" />
      <path
         style="fill:#000000;stroke-width:1.28784"
         d="m 406.51798,430.96946 c -3.97672,-4.39423 -1.68168,-11.79258 3.65817,-11.79258 5.46914,0 7.77986,8.08372 3.43475,12.01599 -3.01348,2.72716 -4.46403,2.68147 -7.09292,-0.22341 z"
         id="path446"
         transform="scale(0.26458333)" />
      <path
         style="fill:#000000;stroke-width:1.28784"
         d="m 262.94991,426.24888 v -3.21454 h 45.64657 45.64656 v 3.21454 3.21455 h -45.64656 -45.64657 z"
         id="path485"
         transform="scale(0.26458333)" />
      <path
         style="fill:#ffffff;stroke-width:0.643922"
         d="m 262.62846,513.04164 v -66.86257 h 78.43494 78.43493 v 66.86257 66.86257 H 341.0634 262.62846 Z"
         id="path561"
         transform="scale(0.26458333)" />
    </g>
  </g>
</svg>
