<?xml version="1.0" encoding="UTF-8" standalone="no"?>
<!DOCTYPE svg PUBLIC "-//W3C//DTD SVG 1.1//EN" "http://www.w3.org/Graphics/SVG/1.1/DTD/svg11.dtd">
<svg width="30px" height="30px" version="1.1" xmlns="http://www.w3.org/2000/svg" xmlns:xlink="http://www.w3.org/1999/xlink" xml:space="preserve" xmlns:serif="http://www.serif.com/" style="fill-rule:evenodd;clip-rule:evenodd;stroke-linecap:round;">
    <g>
        <g>
            <path d="M11.118,1.133C5.355,1.133 0.675,5.814 0.675,11.576C0.675,17.34 5.355,22.013 11.118,22.013C13.582,22.013 15.756,21.035 17.561,19.606C17.419,20.314 17.504,21.05 18.099,21.559L25.859,28.307C26.73,29.065 28.047,28.965 28.805,28.095C29.562,27.216 29.462,25.907 28.592,25.149L20.825,18.402C20.351,17.991 19.77,17.864 19.197,17.949C20.598,16.164 21.575,14.019 21.575,11.576C21.575,5.814 16.903,1.133 11.139,1.133L11.118,1.133ZM11.061,2.004C16.471,2.004 20.47,5.395 20.47,11.414C20.47,17.56 16.357,20.824 11.061,20.824C5.893,20.824 1.651,16.951 1.651,11.414C1.651,5.764 5.773,2.004 11.061,2.004Z" style="fill:rgb(220,220,220);fill-rule:nonzero;stroke:url(#_Linear1);stroke-width:1.42px;"/>
            <path d="M11.096,1.091C5.32,1.091 0.625,5.785 0.625,11.562C0.625,17.347 5.32,22.041 11.096,22.041C13.568,22.041 15.756,21.057 17.547,19.62C17.398,20.328 17.49,21.064 18.078,21.581L25.866,28.349C26.744,29.107 28.061,29.008 28.826,28.138C29.583,27.259 29.484,25.943 28.606,25.178L20.818,18.409C20.344,17.999 19.763,17.878 19.182,17.956C20.591,16.172 21.575,14.012 21.575,11.583C21.575,5.807 16.881,1.112 11.096,1.112M11.047,3.371C15.493,3.371 19.104,6.974 19.104,11.427C19.104,15.875 15.493,19.478 11.047,19.478C6.6,19.478 2.99,15.875 2.99,11.427C2.99,6.974 6.6,3.371 11.047,3.371" style="fill:rgb(220,220,220);fill-rule:nonzero;"/>
        </g>
        <path d="M25.902,28.349C25.561,26.735 26.886,24.944 28.436,24.958L20.818,18.402C18.737,18.359 17.794,20.009 18.142,21.659L25.902,28.349" style="fill:url(#_Linear2);fill-rule:nonzero;"/>
        <circle cx="10.941" cy="11.23" r="9.75" style="fill:none;stroke:url(#_Linear3);stroke-width:0.71px;stroke-linecap:butt;"/>
        <circle cx="10.941" cy="11.336" r="8.227" style="fill:url(#_Radial4);stroke:rgb(48,99,163);stroke-width:0.71px;stroke-linecap:butt;"/>
        <path d="M10.814,4.15C7.124,4.15 4.137,7.13 4.137,10.819C4.137,11.888 4.434,12.865 4.88,13.757C5.765,14.083 6.707,14.309 7.705,14.309C12.08,14.309 15.564,10.868 15.834,6.564C14.608,5.112 12.852,4.15 10.814,4.15" style="fill:url(#_Radial5);fill-rule:nonzero;"/>
        <path d="M29.709,26.559L27.412,29.254L17.282,20.401L19.579,17.708L29.709,26.559Z" style="fill:none;stroke:white;stroke-opacity:0.43;stroke-width:0.71px;stroke-linecap:butt;"/>
    </g>
    <g id="window">
        <path d="M16.25,16.659C16.25,16.75 16.204,16.824 16.148,16.824L5.819,16.824C5.763,16.824 5.717,16.75 5.717,16.659L5.717,6.466C5.717,6.375 5.763,6.301 5.819,6.301L16.148,6.301C16.204,6.301 16.25,6.375 16.25,6.466L16.25,16.659Z" style="fill:url(#_Linear6);fill-rule:nonzero;stroke:rgb(7,0,1);stroke-width:0.02px;stroke-linecap:butt;"/>
        <rect x="5.853" y="7.694" width="10.261" height="8.965" style="fill:rgb(244,242,241);stroke:rgb(35,24,21);stroke-width:0.05px;stroke-linecap:butt;"/>
        <path d="M15.043,7.342L15.407,6.976L15.086,6.64L15.234,6.64L15.405,6.82C15.441,6.857 15.466,6.886 15.481,6.906C15.502,6.881 15.527,6.854 15.556,6.826L15.745,6.64L15.881,6.64L15.55,6.971L15.907,7.342L15.753,7.342L15.515,7.092C15.502,7.077 15.488,7.062 15.474,7.045C15.453,7.07 15.438,7.088 15.429,7.097L15.193,7.342L15.043,7.342Z" style="fill-rule:nonzero;"/>
        <path d="M6.06,7.211L6.06,6.737L6.142,6.737L6.142,7.155L6.447,7.155L6.447,7.211L6.06,7.211Z" style="fill-rule:nonzero;"/>
        <path d="M6.507,7.039C6.507,6.976 6.53,6.929 6.576,6.898C6.615,6.873 6.662,6.86 6.717,6.86C6.779,6.86 6.829,6.876 6.868,6.906C6.908,6.937 6.927,6.98 6.927,7.035C6.927,7.079 6.919,7.113 6.901,7.139C6.884,7.164 6.859,7.184 6.826,7.198C6.792,7.212 6.756,7.219 6.717,7.219C6.654,7.219 6.604,7.203 6.565,7.173C6.526,7.142 6.507,7.097 6.507,7.039ZM6.585,7.039C6.585,7.083 6.597,7.116 6.623,7.138C6.648,7.16 6.679,7.171 6.717,7.171C6.755,7.171 6.786,7.16 6.811,7.138C6.836,7.116 6.849,7.082 6.849,7.037C6.849,6.995 6.836,6.963 6.811,6.941C6.786,6.919 6.755,6.908 6.717,6.908C6.679,6.908 6.648,6.919 6.623,6.941C6.597,6.963 6.585,6.995 6.585,7.039Z" style="fill-rule:nonzero;"/>
        <path d="M7.016,7.211L7.016,6.868L7.084,6.868L7.084,6.92C7.101,6.896 7.118,6.88 7.132,6.872C7.147,6.864 7.163,6.86 7.181,6.86C7.207,6.86 7.233,6.866 7.259,6.879L7.233,6.933C7.215,6.924 7.196,6.92 7.177,6.92C7.161,6.92 7.146,6.924 7.133,6.932C7.119,6.939 7.11,6.95 7.104,6.963C7.096,6.984 7.092,7.007 7.092,7.031L7.092,7.211L7.016,7.211Z" style="fill-rule:nonzero;"/>
        <path d="M7.612,7.1L7.69,7.108C7.678,7.143 7.655,7.17 7.621,7.19C7.588,7.209 7.545,7.219 7.493,7.219C7.427,7.219 7.375,7.203 7.337,7.172C7.298,7.141 7.279,7.098 7.279,7.042C7.279,6.985 7.299,6.94 7.338,6.908C7.376,6.876 7.427,6.86 7.489,6.86C7.549,6.86 7.598,6.876 7.636,6.907C7.674,6.938 7.693,6.982 7.693,7.039C7.693,7.042 7.693,7.047 7.692,7.054L7.358,7.054C7.361,7.092 7.375,7.121 7.4,7.141C7.425,7.161 7.456,7.171 7.493,7.171C7.521,7.171 7.545,7.165 7.565,7.154C7.585,7.143 7.6,7.125 7.612,7.1ZM7.362,7.006L7.613,7.006C7.609,6.978 7.6,6.956 7.584,6.942C7.56,6.919 7.528,6.908 7.49,6.908C7.455,6.908 7.425,6.917 7.402,6.935C7.378,6.953 7.365,6.977 7.362,7.006Z" style="fill-rule:nonzero;"/>
        <path d="M7.786,7.211L7.786,6.868L7.854,6.868L7.854,6.916C7.868,6.899 7.887,6.886 7.91,6.875C7.933,6.865 7.96,6.86 7.99,6.86C8.023,6.86 8.05,6.865 8.072,6.876C8.093,6.887 8.108,6.901 8.117,6.92C8.152,6.88 8.198,6.86 8.255,6.86C8.3,6.86 8.334,6.87 8.358,6.888C8.382,6.907 8.394,6.936 8.394,6.975L8.394,7.211L8.318,7.211L8.318,6.995C8.318,6.972 8.316,6.955 8.311,6.945C8.306,6.934 8.297,6.926 8.284,6.92C8.271,6.914 8.256,6.911 8.238,6.911C8.207,6.911 8.181,6.919 8.16,6.935C8.139,6.951 8.129,6.976 8.129,7.012L8.129,7.211L8.053,7.211L8.053,6.988C8.053,6.962 8.046,6.943 8.034,6.93C8.022,6.917 8.001,6.911 7.973,6.911C7.952,6.911 7.932,6.915 7.914,6.923C7.896,6.932 7.882,6.945 7.874,6.961C7.866,6.978 7.862,7.002 7.862,7.033L7.862,7.211L7.786,7.211Z" style="fill-rule:nonzero;"/>
        <rect x="8.771" y="6.737" width="0.082" height="0.474"/>
        <path d="M8.988,7.342L8.988,6.868L9.057,6.868L9.057,6.912C9.073,6.895 9.092,6.882 9.112,6.873C9.133,6.864 9.158,6.86 9.187,6.86C9.225,6.86 9.259,6.868 9.289,6.883C9.318,6.898 9.34,6.919 9.355,6.947C9.37,6.974 9.377,7.004 9.377,7.037C9.377,7.072 9.369,7.104 9.353,7.132C9.336,7.16 9.312,7.181 9.281,7.196C9.249,7.211 9.216,7.219 9.182,7.219C9.156,7.219 9.134,7.215 9.113,7.206C9.093,7.198 9.077,7.188 9.064,7.175L9.064,7.342L8.988,7.342ZM9.057,7.041C9.057,7.086 9.068,7.118 9.092,7.139C9.115,7.16 9.143,7.171 9.177,7.171C9.21,7.171 9.239,7.16 9.263,7.138C9.288,7.116 9.3,7.082 9.3,7.037C9.3,6.993 9.288,6.96 9.264,6.938C9.241,6.917 9.213,6.906 9.18,6.906C9.148,6.906 9.119,6.917 9.094,6.94C9.069,6.964 9.057,6.997 9.057,7.041Z" style="fill-rule:nonzero;"/>
        <path d="M9.439,7.109L9.514,7.1C9.518,7.123 9.53,7.14 9.549,7.152C9.568,7.165 9.595,7.171 9.63,7.171C9.665,7.171 9.691,7.165 9.708,7.155C9.725,7.144 9.733,7.131 9.733,7.116C9.733,7.103 9.726,7.093 9.711,7.085C9.7,7.08 9.674,7.074 9.633,7.066C9.577,7.055 9.539,7.046 9.517,7.038C9.495,7.03 9.479,7.019 9.468,7.005C9.457,6.991 9.451,6.976 9.451,6.959C9.451,6.944 9.456,6.93 9.465,6.916C9.474,6.903 9.487,6.893 9.502,6.884C9.514,6.877 9.53,6.872 9.551,6.867C9.571,6.862 9.593,6.86 9.617,6.86C9.652,6.86 9.683,6.864 9.709,6.872C9.736,6.88 9.756,6.89 9.768,6.903C9.781,6.916 9.79,6.934 9.794,6.956L9.72,6.964C9.717,6.946 9.707,6.933 9.691,6.923C9.674,6.913 9.652,6.908 9.622,6.908C9.587,6.908 9.562,6.912 9.547,6.921C9.532,6.93 9.525,6.94 9.525,6.952C9.525,6.96 9.528,6.967 9.534,6.973C9.54,6.979 9.55,6.984 9.563,6.988C9.571,6.99 9.593,6.995 9.63,7.003C9.684,7.014 9.722,7.023 9.743,7.03C9.764,7.037 9.781,7.047 9.793,7.06C9.805,7.074 9.811,7.09 9.811,7.11C9.811,7.13 9.804,7.148 9.789,7.165C9.774,7.182 9.753,7.195 9.725,7.205C9.697,7.214 9.666,7.219 9.63,7.219C9.572,7.219 9.528,7.209 9.497,7.191C9.467,7.172 9.447,7.145 9.439,7.109Z" style="fill-rule:nonzero;"/>
        <path d="M10.196,7.211L10.196,7.161C10.161,7.199 10.113,7.219 10.053,7.219C10.027,7.219 10.002,7.215 9.979,7.207C9.956,7.199 9.939,7.19 9.928,7.178C9.917,7.166 9.909,7.152 9.905,7.135C9.902,7.123 9.9,7.105 9.9,7.08L9.9,6.868L9.976,6.868L9.976,7.058C9.976,7.089 9.978,7.109 9.981,7.12C9.986,7.135 9.996,7.147 10.011,7.156C10.027,7.164 10.046,7.169 10.069,7.169C10.091,7.169 10.113,7.164 10.133,7.155C10.153,7.146 10.167,7.134 10.175,7.119C10.184,7.103 10.188,7.081 10.188,7.052L10.188,6.868L10.264,6.868L10.264,7.211L10.196,7.211Z" style="fill-rule:nonzero;"/>
        <path d="M10.383,7.211L10.383,6.868L10.451,6.868L10.451,6.916C10.465,6.899 10.484,6.886 10.507,6.875C10.531,6.865 10.557,6.86 10.587,6.86C10.62,6.86 10.648,6.865 10.669,6.876C10.69,6.887 10.705,6.901 10.714,6.92C10.749,6.88 10.796,6.86 10.853,6.86C10.897,6.86 10.931,6.87 10.955,6.888C10.979,6.907 10.991,6.936 10.991,6.975L10.991,7.211L10.916,7.211L10.916,6.995C10.916,6.972 10.913,6.955 10.908,6.945C10.903,6.934 10.894,6.926 10.881,6.92C10.868,6.914 10.853,6.911 10.836,6.911C10.804,6.911 10.778,6.919 10.757,6.935C10.736,6.951 10.726,6.976 10.726,7.012L10.726,7.211L10.65,7.211L10.65,6.988C10.65,6.962 10.644,6.943 10.631,6.93C10.619,6.917 10.598,6.911 10.57,6.911C10.549,6.911 10.529,6.915 10.511,6.923C10.493,6.932 10.48,6.945 10.471,6.961C10.463,6.978 10.459,7.002 10.459,7.033L10.459,7.211L10.383,7.211Z" style="fill-rule:nonzero;"/>
    </g>
    <g id="List">
        <g>
            <path d="M7,15.225L12.591,15.225" style="fill:none;stroke:black;stroke-width:0.34px;stroke-linejoin:round;stroke-miterlimit:1.5;"/>
        </g>
        <g>
            <path d="M7,13.866L14.893,13.866" style="fill:none;stroke:black;stroke-width:0.34px;stroke-linejoin:round;stroke-miterlimit:1.5;"/>
        </g>
        <g>
            <path d="M7,12.601L13.326,12.546" style="fill:none;stroke:black;stroke-width:0.34px;stroke-linejoin:round;stroke-miterlimit:1.5;"/>
        </g>
        <g>
            <path d="M7,11.439L14.568,11.385" style="fill:none;stroke:black;stroke-width:0.34px;stroke-linejoin:round;stroke-miterlimit:1.5;"/>
        </g>
        <path d="M7,8.783L15.364,8.775" style="fill:none;stroke:black;stroke-width:0.34px;stroke-linejoin:round;stroke-miterlimit:1.5;"/>
        <g>
            <path d="M7,10.03L13.939,9.995" style="fill:none;stroke:black;stroke-width:0.34px;stroke-linejoin:round;stroke-miterlimit:1.5;"/>
        </g>
    </g>
    <rect id="outer" x="0" y="0" width="30" height="30" style="fill:none;"/>
    <defs>
        <linearGradient id="_Linear1" x1="0" y1="0" x2="1" y2="0" gradientUnits="userSpaceOnUse" gradientTransform="matrix(3.03741,5.13316,-5.13316,3.03741,17.0511,15.4423)"><stop offset="0" style="stop-color:rgb(138,138,138);stop-opacity:1"/><stop offset="1" style="stop-color:rgb(72,72,72);stop-opacity:1"/></linearGradient>
        <linearGradient id="_Linear2" x1="0" y1="0" x2="1" y2="0" gradientUnits="userSpaceOnUse" gradientTransform="matrix(2.45754,-2.68733,2.68733,2.45754,21.6381,24.4352)"><stop offset="0" style="stop-color:rgb(125,125,125);stop-opacity:1"/><stop offset="0.5" style="stop-color:rgb(177,177,177);stop-opacity:1"/><stop offset="1" style="stop-color:rgb(104,104,104);stop-opacity:1"/></linearGradient>
        <linearGradient id="_Linear3" x1="0" y1="0" x2="1" y2="0" gradientUnits="userSpaceOnUse" gradientTransform="matrix(-0.693862,10.7124,-10.7124,-0.693862,11.2453,6.50706)"><stop offset="0" style="stop-color:white;stop-opacity:1"/><stop offset="0.5" style="stop-color:white;stop-opacity:0.22"/><stop offset="1" style="stop-color:white;stop-opacity:1"/></linearGradient>
        <radialGradient id="_Radial4" cx="0" cy="0" r="1" gradientUnits="userSpaceOnUse" gradientTransform="matrix(8.23124,0,0,-8.23124,11.5864,14.615)"><stop offset="0" style="stop-color:rgb(114,159,207);stop-opacity:0.21"/><stop offset="1" style="stop-color:rgb(114,159,207);stop-opacity:0.68"/></radialGradient>
        <radialGradient id="_Radial5" cx="0" cy="0" r="1" gradientUnits="userSpaceOnUse" gradientTransform="matrix(12.2271,0,0,-10.6192,8.54607,6.3918)"><stop offset="0" style="stop-color:white;stop-opacity:0.83"/><stop offset="1" style="stop-color:white;stop-opacity:0.21"/></radialGradient>
        <linearGradient id="_Linear6" x1="0" y1="0" x2="1" y2="0" gradientUnits="userSpaceOnUse" gradientTransform="matrix(6.4433e-16,-10.5227,10.5227,6.4433e-16,10.9834,16.8239)"><stop offset="0" style="stop-color:rgb(62,77,151);stop-opacity:1"/><stop offset="0.11" style="stop-color:rgb(39,68,146);stop-opacity:1"/><stop offset="0.2" style="stop-color:rgb(21,64,143);stop-opacity:1"/><stop offset="0.25" style="stop-color:rgb(26,67,145);stop-opacity:1"/><stop offset="0.4" style="stop-color:rgb(35,74,149);stop-opacity:1"/><stop offset="0.71" style="stop-color:rgb(33,81,154);stop-opacity:1"/><stop offset="0.77" style="stop-color:rgb(33,82,155);stop-opacity:1"/><stop offset="0.81" style="stop-color:rgb(35,83,156);stop-opacity:1"/><stop offset="0.85" style="stop-color:rgb(59,96,165);stop-opacity:1"/><stop offset="0.89" style="stop-color:rgb(44,88,159);stop-opacity:1"/><stop offset="0.94" style="stop-color:rgb(77,108,172);stop-opacity:1"/><stop offset="0.98" style="stop-color:rgb(97,125,183);stop-opacity:1"/><stop offset="0.99" style="stop-color:rgb(123,150,199);stop-opacity:1"/><stop offset="1" style="stop-color:rgb(154,178,217);stop-opacity:1"/><stop offset="1" style="stop-color:rgb(155,179,217);stop-opacity:1"/></linearGradient>
    </defs>
</svg>
