<?xml version="1.0" encoding="UTF-8" standalone="no"?>
<!DOCTYPE svg PUBLIC "-//W3C//DTD SVG 1.1//EN" "http://www.w3.org/Graphics/SVG/1.1/DTD/svg11.dtd">
<svg width="30px" height="30px" version="1.1" xmlns="http://www.w3.org/2000/svg" xmlns:xlink="http://www.w3.org/1999/xlink" xml:space="preserve" xmlns:serif="http://www.serif.com/" style="fill-rule:evenodd;clip-rule:evenodd;stroke-linecap:square;stroke-linejoin:round;stroke-miterlimit:1.5;">
    <g id="File">
        <rect x="0.235" y="0.205" width="18.717" height="8.534" style="fill:rgb(13,202,242);"/>
        <path d="M5.699,1.785L3.064,1.785L3.064,4.237L5.502,4.237L5.502,4.984L3.064,4.984L3.064,8.124L2.274,8.124L2.274,1.033L5.699,1.033L5.699,1.785Z" style="fill-rule:nonzero;"/>
        <path d="M7.271,1.775C7.133,1.775 7.015,1.726 6.918,1.627C6.821,1.528 6.772,1.403 6.772,1.251C6.772,1.099 6.821,0.973 6.918,0.873C7.015,0.772 7.133,0.722 7.271,0.722C7.412,0.722 7.532,0.772 7.631,0.873C7.73,0.973 7.779,1.099 7.779,1.251C7.779,1.396 7.73,1.52 7.631,1.622C7.532,1.724 7.412,1.775 7.271,1.775ZM7.647,8.124L6.876,8.124L6.876,3.061L7.647,3.061L7.647,8.124Z" style="fill-rule:nonzero;"/>
        <rect x="9.209" y="0.628" width="0.772" height="7.496" style="fill-rule:nonzero;"/>
        <path d="M15.415,5.795L12.014,5.795C12.026,6.359 12.17,6.794 12.447,7.1C12.723,7.407 13.102,7.56 13.585,7.56C14.128,7.56 14.627,7.372 15.081,6.997L15.081,7.758C14.658,8.081 14.098,8.243 13.402,8.243C12.721,8.243 12.186,8.013 11.797,7.553C11.408,7.093 11.214,6.446 11.214,5.612C11.214,4.824 11.426,4.182 11.851,3.686C12.276,3.19 12.804,2.942 13.435,2.942C14.065,2.942 14.553,3.156 14.898,3.585C15.243,4.013 15.415,4.608 15.415,5.37L15.415,5.795ZM14.625,5.108C14.622,4.64 14.514,4.275 14.303,4.015C14.091,3.755 13.797,3.624 13.42,3.624C13.057,3.624 12.748,3.761 12.494,4.035C12.239,4.308 12.083,4.666 12.023,5.108L14.625,5.108Z" style="fill-rule:nonzero;"/>
    </g>
    <g id="Open">
        <rect x="5.551" y="17.5" width="24.449" height="8.295" style="fill:white;"/>
        <path d="M10.054,23.964C9.163,23.964 8.449,23.703 7.913,23.181C7.377,22.66 7.109,21.981 7.109,21.144C7.109,20.246 7.382,19.529 7.928,18.994C8.475,18.46 9.218,18.192 10.159,18.192C11.027,18.192 11.726,18.452 12.256,18.971C12.786,19.49 13.051,20.169 13.051,21.008C13.051,21.92 12.78,22.64 12.236,23.17C11.693,23.7 10.965,23.964 10.054,23.964ZM10.106,18.784C9.446,18.784 8.91,18.996 8.498,19.419C8.086,19.842 7.88,20.398 7.88,21.086C7.88,21.774 8.081,22.328 8.483,22.747C8.884,23.167 9.408,23.376 10.054,23.376C10.743,23.376 11.287,23.176 11.684,22.776C12.081,22.377 12.28,21.817 12.28,21.098C12.28,20.36 12.087,19.79 11.702,19.388C11.316,18.985 10.784,18.784 10.106,18.784Z" style="fill-rule:nonzero;"/>
        <path d="M14.927,23.294L14.909,23.294L14.909,25.705L14.191,25.705L14.191,19.883L14.909,19.883L14.909,20.584L14.927,20.584C15.28,20.054 15.797,19.789 16.478,19.789C17.057,19.789 17.508,19.968 17.832,20.325C18.157,20.682 18.319,21.16 18.319,21.76C18.319,22.427 18.136,22.961 17.771,23.363C17.406,23.764 16.906,23.964 16.272,23.964C15.691,23.964 15.242,23.741 14.927,23.294ZM14.909,21.686L14.909,22.243C14.909,22.573 15.03,22.852 15.271,23.082C15.512,23.312 15.818,23.427 16.189,23.427C16.624,23.427 16.965,23.279 17.212,22.983C17.459,22.687 17.583,22.275 17.583,21.748C17.583,21.304 17.467,20.956 17.236,20.704C17.006,20.452 16.693,20.327 16.299,20.327C15.881,20.327 15.545,20.456 15.291,20.714C15.036,20.972 14.909,21.296 14.909,21.686Z" style="fill-rule:nonzero;"/>
        <path d="M23.074,22.036L19.905,22.036C19.917,22.48 20.051,22.823 20.308,23.065C20.565,23.306 20.919,23.427 21.369,23.427C21.874,23.427 22.339,23.279 22.762,22.983L22.762,23.583C22.368,23.837 21.847,23.964 21.198,23.964C20.564,23.964 20.066,23.783 19.704,23.421C19.341,23.059 19.16,22.549 19.16,21.892C19.16,21.272 19.358,20.766 19.754,20.375C20.15,19.984 20.641,19.789 21.229,19.789C21.816,19.789 22.27,19.958 22.591,20.295C22.913,20.633 23.074,21.102 23.074,21.701L23.074,22.036ZM22.337,21.495C22.334,21.126 22.234,20.839 22.037,20.634C21.84,20.429 21.566,20.327 21.215,20.327C20.877,20.327 20.589,20.434 20.352,20.65C20.116,20.865 19.969,21.147 19.914,21.495L22.337,21.495Z" style="fill-rule:nonzero;"/>
        <path d="M27.885,23.871L27.167,23.871L27.167,21.596C27.167,20.75 26.819,20.327 26.124,20.327C25.764,20.327 25.467,20.447 25.232,20.687C24.997,20.927 24.879,21.23 24.879,21.596L24.879,23.871L24.16,23.871L24.16,19.883L24.879,19.883L24.879,20.545L24.897,20.545C25.235,20.041 25.726,19.789 26.369,19.789C26.86,19.789 27.235,19.93 27.495,20.212C27.755,20.493 27.885,20.9 27.885,21.433L27.885,23.871Z" style="fill-rule:nonzero;"/>
    </g>
    <g id="New">
        <rect x="5.551" y="9.205" width="24.449" height="8.295" style="fill:rgb(13,202,242);"/>
        <path d="M12.587,15.576L11.684,15.576L8.45,11.124C8.368,11.013 8.301,10.896 8.248,10.774L8.222,10.774C8.245,10.893 8.257,11.149 8.257,11.541L8.257,15.576L7.521,15.576L7.521,9.991L8.476,9.991L11.623,14.373C11.754,14.555 11.839,14.679 11.877,14.747L11.894,14.747C11.865,14.586 11.851,14.312 11.851,13.925L11.851,9.991L12.587,9.991L12.587,15.576Z" style="fill-rule:nonzero;"/>
        <path d="M17.745,13.742L14.576,13.742C14.588,14.186 14.722,14.529 14.979,14.77C15.237,15.012 15.59,15.132 16.04,15.132C16.545,15.132 17.01,14.984 17.434,14.688L17.434,15.288C17.039,15.543 16.518,15.67 15.869,15.67C15.235,15.67 14.737,15.489 14.375,15.126C14.012,14.764 13.831,14.255 13.831,13.598C13.831,12.977 14.029,12.471 14.425,12.081C14.821,11.69 15.313,11.494 15.9,11.494C16.487,11.494 16.941,11.663 17.263,12.001C17.584,12.338 17.745,12.807 17.745,13.407L17.745,13.742ZM17.008,13.2C17.006,12.832 16.905,12.545 16.708,12.34C16.511,12.134 16.237,12.032 15.887,12.032C15.548,12.032 15.26,12.14 15.023,12.355C14.787,12.571 14.641,12.852 14.585,13.2L17.008,13.2Z" style="fill-rule:nonzero;"/>
        <path d="M24.485,11.588L23.139,15.576L22.394,15.576L21.47,12.721C21.435,12.612 21.411,12.489 21.4,12.351L21.382,12.351C21.373,12.445 21.343,12.566 21.29,12.714L20.286,15.576L19.568,15.576L18.209,11.588L18.963,11.588L19.892,14.587C19.921,14.678 19.942,14.797 19.953,14.945L19.988,14.945C19.997,14.831 20.023,14.709 20.067,14.579L21.102,11.588L21.759,11.588L22.688,14.595C22.717,14.691 22.739,14.81 22.754,14.953L22.789,14.953C22.795,14.852 22.819,14.732 22.863,14.595L23.775,11.588L24.485,11.588Z" style="fill-rule:nonzero;"/>
    </g>
    <path d="M5.833,17L30,17" style="fill:none;stroke:rgb(128,128,128);stroke-width:0.5px;"/>
    <rect x="0" y="0" width="29.824" height="9" style="fill:none;stroke:rgb(128,128,128);stroke-width:0.5px;"/>
    <rect id="outer" x="0" y="0" width="30" height="30" style="fill:none;"/>
</svg>
