<?xml version="1.0" encoding="UTF-8" standalone="no"?>
<!DOCTYPE svg PUBLIC "-//W3C//DTD SVG 1.1//EN" "http://www.w3.org/Graphics/SVG/1.1/DTD/svg11.dtd">
<svg width="30px" height="30px" version="1.1" xmlns="http://www.w3.org/2000/svg" xmlns:xlink="http://www.w3.org/1999/xlink" xml:space="preserve" xmlns:serif="http://www.serif.com/" style="fill-rule:evenodd;clip-rule:evenodd;stroke-linecap:square;stroke-linejoin:round;stroke-miterlimit:1.5;">
    <g id="menuitem">
        <rect x="0.235" y="10.733" width="29.374" height="8.534" style="fill:rgb(13,202,242);"/>
        <rect x="0.235" y="10.5" width="29.588" height="9" style="fill:none;stroke:rgb(128,128,128);stroke-width:0.5px;"/>
        <path d="M2.593,16.107L1.199,16.107L1.199,12.81L1.514,12.81L1.514,15.758L2.593,15.758L2.593,16.107Z" style="fill-rule:nonzero;"/>
        <path d="M3.765,16.162C3.482,16.162 3.256,16.052 3.086,15.832C2.917,15.612 2.833,15.321 2.833,14.957C2.833,14.562 2.921,14.253 3.097,14.031C3.273,13.809 3.511,13.698 3.81,13.698C4.096,13.698 4.32,13.806 4.48,14.022C4.64,14.238 4.721,14.537 4.721,14.921C4.721,15.296 4.634,15.597 4.461,15.823C4.288,16.049 4.056,16.162 3.765,16.162ZM3.788,14.015C3.591,14.015 3.434,14.097 3.32,14.262C3.205,14.427 3.147,14.654 3.147,14.944C3.147,15.223 3.205,15.443 3.321,15.604C3.438,15.764 3.593,15.845 3.788,15.845C3.986,15.845 4.139,15.766 4.246,15.608C4.353,15.45 4.406,15.226 4.406,14.934C4.406,14.64 4.353,14.413 4.246,14.254C4.139,14.095 3.986,14.015 3.788,14.015Z" style="fill-rule:nonzero;"/>
        <path d="M6.212,14.134C6.158,14.084 6.081,14.058 5.979,14.058C5.848,14.058 5.739,14.134 5.651,14.286C5.563,14.438 5.519,14.645 5.519,14.907L5.519,16.107L5.211,16.107L5.211,13.753L5.519,13.753L5.519,14.238L5.526,14.238C5.57,14.072 5.637,13.943 5.727,13.85C5.817,13.758 5.917,13.711 6.028,13.711C6.108,13.711 6.169,13.722 6.212,13.744L6.212,14.134Z" style="fill-rule:nonzero;"/>
        <path d="M8.087,15.024L6.733,15.024C6.737,15.286 6.795,15.489 6.905,15.631C7.015,15.774 7.166,15.845 7.358,15.845C7.574,15.845 7.773,15.758 7.954,15.583L7.954,15.937C7.785,16.087 7.562,16.162 7.285,16.162C7.014,16.162 6.801,16.055 6.646,15.841C6.491,15.628 6.414,15.327 6.414,14.939C6.414,14.573 6.499,14.274 6.668,14.044C6.837,13.813 7.047,13.698 7.298,13.698C7.549,13.698 7.743,13.797 7.881,13.996C8.018,14.196 8.087,14.472 8.087,14.826L8.087,15.024ZM7.772,14.705C7.771,14.487 7.728,14.318 7.644,14.196C7.56,14.075 7.442,14.015 7.293,14.015C7.148,14.015 7.025,14.078 6.924,14.206C6.822,14.333 6.76,14.499 6.736,14.705L7.772,14.705Z" style="fill-rule:nonzero;"/>
        <path d="M11.275,16.107L10.968,16.107L10.968,14.755C10.968,14.495 10.935,14.306 10.869,14.19C10.804,14.073 10.694,14.015 10.539,14.015C10.408,14.015 10.296,14.088 10.204,14.236C10.113,14.383 10.067,14.559 10.067,14.764L10.067,16.107L9.76,16.107L9.76,14.709C9.76,14.246 9.614,14.015 9.323,14.015C9.188,14.015 9.077,14.084 8.99,14.223C8.902,14.362 8.859,14.542 8.859,14.764L8.859,16.107L8.551,16.107L8.551,13.753L8.859,13.753L8.859,14.125L8.866,14.125C9.002,13.84 9.201,13.698 9.462,13.698C9.593,13.698 9.707,13.742 9.805,13.832C9.902,13.922 9.969,14.039 10.005,14.185C10.147,13.86 10.36,13.698 10.642,13.698C11.064,13.698 11.275,14.017 11.275,14.656L11.275,16.107Z" style="fill-rule:nonzero;"/>
        <rect x="12.948" y="12.81" width="0.315" height="3.297" style="fill-rule:nonzero;"/>
        <path d="M14.242,15.767L14.235,15.767L14.235,17.19L13.927,17.19L13.927,13.753L14.235,13.753L14.235,14.167L14.242,14.167C14.393,13.854 14.614,13.698 14.905,13.698C15.153,13.698 15.345,13.803 15.484,14.014C15.623,14.224 15.692,14.507 15.692,14.861C15.692,15.255 15.614,15.57 15.458,15.807C15.302,16.044 15.088,16.162 14.817,16.162C14.569,16.162 14.377,16.03 14.242,15.767ZM14.235,14.817L14.235,15.146C14.235,15.341 14.286,15.506 14.389,15.641C14.492,15.777 14.623,15.845 14.782,15.845C14.968,15.845 15.113,15.758 15.219,15.583C15.325,15.408 15.377,15.165 15.377,14.854C15.377,14.592 15.328,14.387 15.229,14.238C15.131,14.089 14.997,14.015 14.828,14.015C14.65,14.015 14.506,14.091 14.398,14.244C14.289,14.396 14.235,14.587 14.235,14.817Z" style="fill-rule:nonzero;"/>
        <path d="M16.067,16.022L16.067,15.617C16.234,15.769 16.418,15.845 16.619,15.845C16.889,15.845 17.024,15.735 17.024,15.514C17.024,15.451 17.012,15.398 16.989,15.354C16.966,15.31 16.935,15.272 16.896,15.238C16.856,15.204 16.81,15.174 16.757,15.147C16.704,15.12 16.647,15.092 16.585,15.063C16.501,15.022 16.426,14.98 16.362,14.938C16.297,14.896 16.244,14.848 16.201,14.795C16.157,14.742 16.125,14.682 16.103,14.615C16.081,14.547 16.07,14.469 16.07,14.378C16.07,14.268 16.091,14.17 16.132,14.085C16.173,14 16.228,13.929 16.297,13.871C16.366,13.814 16.444,13.77 16.532,13.741C16.62,13.712 16.711,13.698 16.805,13.698C16.971,13.698 17.119,13.733 17.25,13.803L17.25,14.185C17.109,14.072 16.947,14.015 16.763,14.015C16.706,14.015 16.654,14.023 16.608,14.039C16.562,14.055 16.522,14.078 16.489,14.107C16.456,14.136 16.43,14.171 16.412,14.211C16.394,14.252 16.385,14.297 16.385,14.346C16.385,14.407 16.394,14.459 16.412,14.5C16.43,14.541 16.457,14.578 16.492,14.61C16.527,14.642 16.569,14.672 16.619,14.698C16.669,14.724 16.726,14.752 16.79,14.783C16.875,14.823 16.951,14.864 17.018,14.906C17.086,14.948 17.143,14.995 17.191,15.048C17.238,15.101 17.275,15.162 17.3,15.231C17.326,15.3 17.339,15.382 17.339,15.477C17.339,15.594 17.318,15.695 17.276,15.781C17.234,15.866 17.178,15.938 17.108,15.994C17.038,16.051 16.958,16.093 16.866,16.121C16.775,16.148 16.68,16.162 16.58,16.162C16.383,16.162 16.211,16.115 16.067,16.022Z" style="fill-rule:nonzero;"/>
        <path d="M19.362,16.107L19.054,16.107L19.054,15.735L19.047,15.735C18.919,16.02 18.722,16.162 18.455,16.162C17.998,16.162 17.769,15.828 17.769,15.16L17.769,13.753L18.075,13.753L18.075,15.1C18.075,15.597 18.23,15.845 18.539,15.845C18.689,15.845 18.812,15.777 18.909,15.641C19.006,15.506 19.054,15.328 19.054,15.109L19.054,13.753L19.362,13.753L19.362,16.107Z" style="fill-rule:nonzero;"/>
        <path d="M22.705,16.107L22.398,16.107L22.398,14.755C22.398,14.495 22.365,14.306 22.3,14.19C22.234,14.073 22.124,14.015 21.969,14.015C21.838,14.015 21.726,14.088 21.635,14.236C21.543,14.383 21.497,14.559 21.497,14.764L21.497,16.107L21.19,16.107L21.19,14.709C21.19,14.246 21.044,14.015 20.753,14.015C20.618,14.015 20.507,14.084 20.42,14.223C20.333,14.362 20.289,14.542 20.289,14.764L20.289,16.107L19.982,16.107L19.982,13.753L20.289,13.753L20.289,14.125L20.296,14.125C20.432,13.84 20.631,13.698 20.892,13.698C21.023,13.698 21.137,13.742 21.235,13.832C21.332,13.922 21.399,14.039 21.435,14.185C21.578,13.86 21.79,13.698 22.072,13.698C22.494,13.698 22.705,14.017 22.705,14.656L22.705,16.107Z" style="fill-rule:nonzero;"/>
        <path d="M24.794,13.753L24.03,16.107L23.728,16.107L23.001,13.753L23.338,13.753L23.825,15.463C23.862,15.589 23.884,15.699 23.893,15.792L23.9,15.792C23.913,15.674 23.933,15.568 23.96,15.472L24.47,13.753L24.794,13.753Z" style="fill-rule:nonzero;"/>
    </g>
    <g id="mouse">
        <path d="M19.388,22.257L22.508,20.61L9.657,15.565L14.833,27.839L16.447,24.909L19.477,28.148L22.38,25.5L19.388,22.257Z" style="fill:rgb(248,248,248);fill-rule:nonzero;"/>
        <path d="M9.502,15.431L14.66,28.02" style="fill:none;fill-rule:nonzero;stroke:black;stroke-width:0.82px;stroke-linecap:round;stroke-linejoin:miter;stroke-miterlimit:10;"/>
        <path d="M14.66,28.02L16.339,24.933" style="fill:none;fill-rule:nonzero;stroke:black;stroke-width:0.82px;stroke-linecap:round;stroke-linejoin:miter;stroke-miterlimit:10;"/>
        <path d="M9.559,15.453L22.504,20.556" style="fill:none;fill-rule:nonzero;stroke:black;stroke-width:0.82px;stroke-linecap:round;stroke-linejoin:miter;stroke-miterlimit:10;"/>
        <path d="M19.358,22.232L22.556,20.629" style="fill:none;fill-rule:nonzero;stroke:black;stroke-width:0.82px;stroke-linecap:round;stroke-linejoin:miter;stroke-miterlimit:10;"/>
        <path d="M19.306,28.133L16.412,24.979" style="fill:none;fill-rule:nonzero;stroke:black;stroke-width:0.82px;stroke-linecap:round;stroke-linejoin:miter;stroke-miterlimit:10;"/>
        <path d="M19.357,22.28L22.187,25.41" style="fill:none;fill-rule:nonzero;stroke:black;stroke-width:0.82px;stroke-linecap:round;stroke-linejoin:miter;stroke-miterlimit:10;"/>
        <path d="M19.361,28.12L22.293,25.498" style="fill:none;fill-rule:nonzero;stroke:black;stroke-width:0.82px;stroke-linecap:round;stroke-linejoin:miter;stroke-miterlimit:10;"/>
        <path d="M17.118,19.335L19.58,20.417" style="fill:none;fill-rule:nonzero;stroke:rgb(228,228,228);stroke-width:0.39px;stroke-linecap:round;stroke-linejoin:miter;stroke-miterlimit:10;"/>
        <path d="M11.272,17.89C11.272,17.89 10.797,16.774 10.858,16.706C10.87,16.692 12.55,17.373 12.55,17.373" style="fill:none;fill-rule:nonzero;stroke:rgb(228,228,228);stroke-width:0.39px;stroke-linecap:round;stroke-linejoin:miter;stroke-miterlimit:10;"/>
        <path d="M19.508,27.05L21.243,25.498" style="fill:none;fill-rule:nonzero;stroke:rgb(228,228,228);stroke-width:0.39px;stroke-linecap:round;stroke-linejoin:miter;stroke-miterlimit:10;"/>
        <path d="M12.949,21.831L14.794,26.195" style="fill:none;fill-rule:nonzero;stroke:white;stroke-width:0.36px;stroke-linecap:round;stroke-linejoin:miter;stroke-miterlimit:10;"/>
    </g>
    <rect id="outer" x="0" y="0" width="30" height="30" style="fill:none;"/>
</svg>
