<?xml version="1.0" encoding="UTF-8" standalone="no"?>
<!-- Generator: Adobe Illustrator 19.0.0, SVG Export Plug-In . SVG Version: 6.00 Build 0)  -->

<svg
   version="1.1"
   id="Layer_1"
   x="0px"
   y="0px"
   viewBox="0 0 502 502"
   style="enable-background:new 0 0 502 502;"
   xml:space="preserve"
   sodipodi:docname="new-project.svg"
   inkscape:version="1.1.2 (b8e25be833, 2022-02-05)"
   xmlns:inkscape="http://www.inkscape.org/namespaces/inkscape"
   xmlns:sodipodi="http://sodipodi.sourceforge.net/DTD/sodipodi-0.dtd"
   xmlns="http://www.w3.org/2000/svg"
   xmlns:svg="http://www.w3.org/2000/svg"><defs
   id="defs58" /><sodipodi:namedview
   id="namedview56"
   pagecolor="#ffffff"
   bordercolor="#666666"
   borderopacity="1.0"
   inkscape:pageshadow="2"
   inkscape:pageopacity="0.0"
   inkscape:pagecheckerboard="0"
   showgrid="false"
   inkscape:zoom="1.8854582"
   inkscape:cx="250.86741"
   inkscape:cy="251.13259"
   inkscape:window-width="3840"
   inkscape:window-height="2102"
   inkscape:window-x="-8"
   inkscape:window-y="32"
   inkscape:window-maximized="1"
   inkscape:current-layer="g13" />
<g
   id="g23">
	<g
   id="g13"
   style="display:inline">
		<path
   style="display:inline;fill:#aaccff"
   d="m 356.57,342.707 c 14.435,0 27.898,4.118 39.32,11.213 V 105.273 L 300.617,10 H 70.783 V 455.916 H 292.35 l 0.188,-0.185 c -6.736,-11.215 -10.615,-24.342 -10.615,-38.377 0,-41.227 33.42,-74.647 74.647,-74.647 z"
   id="path9" />
		<path
   style="display:inline;fill:#ffdd55"
   d="m 396.288,354.162 c -0.131,-0.083 -0.267,-0.16 -0.399,-0.242 -11.421,-7.095 -24.885,-11.213 -39.32,-11.213 -41.226,0 -74.647,33.42 -74.647,74.646 0,14.035 3.879,27.162 10.615,38.377 0.071,0.119 0.138,0.241 0.21,0.359 13.097,21.531 36.78,35.911 63.823,35.911 41.226,0 74.647,-33.42 74.647,-74.647 -10e-4,-26.624 -13.951,-49.977 -34.929,-63.191 z"
   id="path11" />
	</g>
	<g
   id="g21">
		<path
   d="M 405.889,348.576 V 105.273 c 0,-2.652 -1.054,-5.196 -2.929,-7.071 L 307.688,2.929 C 305.813,1.054 303.27,0 300.617,0 H 70.783 c -5.523,0 -10,4.477 -10,10 v 445.916 c 0,5.523 4.477,10 10,10 h 216.442 c 15.858,22.695 41.39,36.084 69.345,36.084 46.674,0 84.646,-37.972 84.646,-84.646 10e-4,-27.527 -13.114,-52.869 -35.327,-68.778 z M 80.783,20 h 215.691 l 76.158,76.158 h -51.151 c -5.522,0 -10,4.477 -10,10 0,5.523 4.478,10 10,10 h 64.408 v 221.789 c -9.334,-3.451 -19.247,-5.241 -29.319,-5.241 -46.675,0 -84.647,37.973 -84.647,84.647 0,9.793 1.692,19.45 4.955,28.562 H 80.783 Z M 356.57,482 c -22.766,0 -43.43,-11.629 -55.277,-31.107 -6.13,-10.077 -9.37,-21.675 -9.37,-33.539 0,-35.646 29.001,-64.647 64.647,-64.647 11.785,0 23.28,3.21 33.334,9.278 0.474,0.355 0.979,0.67 1.513,0.938 18.668,11.975 29.799,32.278 29.799,54.431 C 421.217,453 392.217,482 356.57,482 Z"
   id="path15"
   style="display:inline" />
		<path
   d="m 394.345,407.354 h -27.776 v -27.776 c 0,-5.523 -4.478,-10 -10,-10 -5.522,0 -10,4.477 -10,10 v 27.776 h -27.776 c -5.522,0 -10,4.477 -10,10 0,5.523 4.478,10 10,10 h 27.776 v 27.776 c 0,5.523 4.478,10 10,10 5.522,0 10,-4.477 10,-10 v -27.776 h 27.776 c 5.522,0 10,-4.477 10,-10 0,-5.523 -4.477,-10 -10,-10 z"
   id="path17"
   style="display:inline" />
		<path
   d="m 292.56,106.158 c 0,-5.523 -4.478,-10 -10,-10 h -11.447 c -5.522,0 -10,4.477 -10,10 0,5.523 4.478,10 10,10 h 11.447 c 5.523,0 10,-4.477 10,-10 z"
   id="path19" />
	</g>
</g>















</svg>
