<?xml version="1.0" encoding="UTF-8" standalone="no"?><!DOCTYPE svg PUBLIC "-//W3C//DTD SVG 1.1//EN" "http://www.w3.org/Graphics/SVG/1.1/DTD/svg11.dtd"><svg width="100%" height="100%" viewBox="0 0 502 502" version="1.1" xmlns="http://www.w3.org/2000/svg" xmlns:xlink="http://www.w3.org/1999/xlink" xml:space="preserve" xmlns:serif="http://www.serif.com/" style="fill-rule:evenodd;clip-rule:evenodd;stroke-linejoin:round;stroke-miterlimit:2;"><g id="g23"><g id="g13"><path id="path9" d="M356.57,342.707c14.435,0 27.898,4.118 39.32,11.213l0,-248.647l-95.273,-95.273l-229.834,-0l0,445.916l221.567,-0l0.188,-0.185c-6.736,-11.215 -10.615,-24.342 -10.615,-38.377c0,-41.227 33.42,-74.647 74.647,-74.647Z" style="fill:#acf;fill-rule:nonzero;"/><path id="path11" d="M396.288,354.162c-0.131,-0.083 -0.267,-0.16 -0.399,-0.242c-11.421,-7.095 -24.885,-11.213 -39.32,-11.213c-41.226,-0 -74.647,33.42 -74.647,74.646c0,14.035 3.879,27.162 10.615,38.377c0.071,0.119 0.138,0.241 0.21,0.359c13.097,21.531 36.78,35.911 63.823,35.911c41.226,-0 74.647,-33.42 74.647,-74.647c-0.001,-26.624 -13.951,-49.977 -34.929,-63.191Z" style="fill:#fd5;fill-rule:nonzero;"/></g><g id="g21"><path id="path15" d="M405.889,348.576l0,-243.303c0,-2.652 -1.054,-5.196 -2.929,-7.071l-95.272,-95.273c-1.875,-1.875 -4.418,-2.929 -7.071,-2.929l-229.834,-0c-5.523,-0 -10,4.477 -10,10l-0,445.916c-0,5.523 4.477,10 10,10l216.442,-0c15.858,22.695 41.39,36.084 69.345,36.084c46.674,-0 84.646,-37.972 84.646,-84.646c0.001,-27.527 -13.114,-52.869 -35.327,-68.778Zm-325.106,-328.576l215.691,0l76.158,76.158l-51.151,0c-5.522,0 -10,4.477 -10,10c-0,5.523 4.478,10 10,10l64.408,0l-0,221.789c-9.334,-3.451 -19.247,-5.241 -29.319,-5.241c-46.675,0 -84.647,37.973 -84.647,84.647c-0,9.793 1.692,19.45 4.955,28.562l-196.095,0l-0,-425.915Zm275.787,462c-22.766,0 -43.43,-11.629 -55.277,-31.107c-6.13,-10.077 -9.37,-21.675 -9.37,-33.539c-0,-35.646 29.001,-64.647 64.647,-64.647c11.785,0 23.28,3.21 33.334,9.278c0.474,0.355 0.979,0.67 1.513,0.938c18.668,11.975 29.799,32.278 29.799,54.431c0.001,35.646 -28.999,64.646 -64.646,64.646Z" style="fill-rule:nonzero;"/><path id="path17" d="M394.345,407.354l-27.776,0l0,-27.776c0,-5.523 -4.478,-10 -10,-10c-5.522,0 -10,4.477 -10,10l0,27.776l-27.776,0c-5.522,0 -10,4.477 -10,10c0,5.523 4.478,10 10,10l27.776,0l0,27.776c0,5.523 4.478,10 10,10c5.522,0 10,-4.477 10,-10l0,-27.776l27.776,0c5.522,0 10,-4.477 10,-10c0,-5.523 -4.477,-10 -10,-10Z" style="fill-rule:nonzero;"/><path id="path19" d="M292.56,106.158c0,-5.523 -4.478,-10 -10,-10l-11.447,0c-5.522,0 -10,4.477 -10,10c0,5.523 4.478,10 10,10l11.447,0c5.523,0 10,-4.477 10,-10Z" style="fill-rule:nonzero;"/></g></g></svg>