<?xml version="1.0" encoding="UTF-8" standalone="no"?>
<!DOCTYPE svg PUBLIC "-//W3C//DTD SVG 1.1//EN" "http://www.w3.org/Graphics/SVG/1.1/DTD/svg11.dtd">
<svg width="30px" height="30px" version="1.1" xmlns="http://www.w3.org/2000/svg" xmlns:xlink="http://www.w3.org/1999/xlink" xml:space="preserve" xmlns:serif="http://www.serif.com/" style="fill-rule:evenodd;clip-rule:evenodd;stroke-linejoin:round;stroke-miterlimit:2;">
    <g id="g23">
        <g id="g13">
            <path id="path9" d="M21.309,20.48C22.172,20.48 22.976,20.727 23.659,21.151L23.659,6.291L17.965,0.598L4.23,0.598L4.23,27.246L17.471,27.246L17.482,27.235C17.08,26.565 16.848,25.78 16.848,24.941C16.848,22.478 18.845,20.48 21.309,20.48Z" style="fill:rgb(170,204,255);fill-rule:nonzero;"/>
            <path id="path11" d="M23.683,21.165C23.675,21.16 23.667,21.155 23.659,21.151C22.976,20.727 22.172,20.48 21.309,20.48C18.845,20.48 16.848,22.478 16.848,24.941C16.848,25.78 17.08,26.565 17.482,27.235C17.487,27.242 17.491,27.249 17.495,27.256C18.278,28.543 19.693,29.402 21.309,29.402C23.773,29.402 25.77,27.405 25.77,24.941C25.77,23.35 24.936,21.955 23.683,21.165Z" style="fill:rgb(255,221,85);fill-rule:nonzero;"/>
        </g>
        <g id="g21">
            <path id="path15" d="M24.256,20.831L24.256,6.291C24.256,6.133 24.193,5.981 24.081,5.869L18.388,0.175C18.276,0.063 18.124,0 17.965,0L4.23,0C3.9,0 3.632,0.268 3.632,0.598L3.632,27.246C3.632,27.576 3.9,27.844 4.23,27.844L17.165,27.844C18.113,29.2 19.638,30 21.309,30C24.098,30 26.368,27.731 26.368,24.941C26.368,23.296 25.584,21.782 24.256,20.831ZM4.828,1.195L17.718,1.195L22.269,5.746L19.212,5.746C18.882,5.746 18.614,6.014 18.614,6.344C18.614,6.674 18.882,6.942 19.212,6.942L23.061,6.942L23.061,20.196C22.503,19.99 21.911,19.883 21.309,19.883C18.52,19.883 16.25,22.152 16.25,24.941C16.25,25.527 16.352,26.104 16.547,26.648L4.828,26.648L4.828,1.195ZM21.309,28.805C19.948,28.805 18.714,28.11 18.006,26.946C17.639,26.344 17.446,25.65 17.446,24.941C17.446,22.811 19.179,21.078 21.309,21.078C22.013,21.078 22.7,21.27 23.301,21.633C23.329,21.654 23.36,21.673 23.391,21.689C24.507,22.404 25.172,23.618 25.172,24.941C25.172,27.072 23.439,28.805 21.309,28.805Z" style="fill-rule:nonzero;"/>
            <path id="path17" d="M23.566,24.344L21.907,24.344L21.907,22.684C21.907,22.354 21.639,22.086 21.309,22.086C20.979,22.086 20.711,22.354 20.711,22.684L20.711,24.344L19.051,24.344C18.721,24.344 18.454,24.611 18.454,24.941C18.454,25.272 18.721,25.539 19.051,25.539L20.711,25.539L20.711,27.199C20.711,27.529 20.979,27.797 21.309,27.797C21.639,27.797 21.907,27.529 21.907,27.199L21.907,25.539L23.566,25.539C23.896,25.539 24.164,25.272 24.164,24.941C24.164,24.611 23.897,24.344 23.566,24.344Z" style="fill-rule:nonzero;"/>
            <path id="path19" d="M17.484,6.344C17.484,6.014 17.216,5.746 16.886,5.746L16.202,5.746C15.872,5.746 15.604,6.014 15.604,6.344C15.604,6.674 15.872,6.942 16.202,6.942L16.886,6.942C17.216,6.942 17.484,6.674 17.484,6.344Z" style="fill-rule:nonzero;"/>
        </g>
    </g>
    <rect id="outer" x="0" y="0" width="30" height="30" style="fill:none;"/>
</svg>
