<?xml version="1.0" encoding="UTF-8" standalone="no"?>
<!DOCTYPE svg PUBLIC "-//W3C//DTD SVG 1.1//EN" "http://www.w3.org/Graphics/SVG/1.1/DTD/svg11.dtd">
<svg width="30px" height="30px" version="1.1" xmlns="http://www.w3.org/2000/svg" xmlns:xlink="http://www.w3.org/1999/xlink" xml:space="preserve" xmlns:serif="http://www.serif.com/" style="fill-rule:evenodd;clip-rule:evenodd;stroke-linecap:round;stroke-linejoin:round;">
    <g id="Layer-1" serif:id="Layer 1">
        <g id="path21642">
            <path d="M28.669,25.227C28.669,28.942 22.757,32 15.574,32C8.39,32 2.479,28.942 2.479,25.227C2.479,21.511 8.39,18.453 15.574,18.453C22.757,18.453 28.669,21.511 28.669,25.227Z" style="fill:url(#_Radial1);"/>
        </g>
        <path id="rect1408" d="M2.832,2.211C2.898,0.827 3.56,0.069 4.794,0.065L25.982,0C26.16,-0.001 26.393,0.145 26.411,0.325L28.764,24.137L27.814,24.178L28.269,28.835C28.313,29.286 28.138,29.673 27.495,29.676L5.307,29.78C3.477,29.789 1.597,28.279 1.685,26.418L2.832,2.211Z" style="fill:rgb(91,107,148);fill-rule:nonzero;stroke:rgb(54,72,120);stroke-width:0.72px;"/>
        <path id="path2489" d="M27.224,23.42L6.136,23.511C5.012,23.639 4.104,24.519 4.104,25.678C4.104,26.837 5.012,27.717 6.137,27.846L27.224,27.936L27.224,27.89C26.028,27.834 25.057,26.888 25.057,25.678C25.057,24.468 26.028,23.522 27.224,23.465L27.224,23.42Z" style="fill:url(#_Linear2);fill-rule:nonzero;"/>
        <path id="path2784" d="M5.234,0.256C4,0.255 3.328,0.985 3.269,2.323L2.072,25.552C2.006,27.776 3.392,29.041 4.827,29.403C1.756,28.226 2.162,22.907 6.001,22.929L28.324,22.929L25.932,0.566C25.913,0.393 25.68,0.256 25.502,0.256L5.233,0.256L5.234,0.256Z" style="fill:url(#_Linear3);fill-rule:nonzero;"/>
        <g id="rect2793">
            <path d="M6.649,1.089L5.882,22.465L4.437,22.465L5.204,1.089L6.649,1.089Z" style="fill:url(#_Linear4);"/>
        </g>
        <path id="path2104" d="M5.369,0.632C4.152,0.632 3.68,1.161 3.622,2.477L2.684,24.072C3.359,22.911 4.447,22.495 6.19,22.495L27.83,22.495L25.788,0.938C25.772,0.767 25.54,0.632 25.364,0.632L5.369,0.632Z" style="fill:none;fill-rule:nonzero;stroke:url(#_Linear5);stroke-width:0.72px;stroke-linejoin:miter;stroke-miterlimit:20;"/>
        <g id="AUI">
            <g>
                <path d="M10.068,14.721L12.19,9.177L12.98,9.177L15.248,14.721L14.42,14.721L13.769,13.041L11.454,13.041L10.843,14.721L10.068,14.721ZM11.663,12.444L13.545,12.444L12.964,10.911C12.786,10.447 12.655,10.06 12.569,9.758C12.5,10.114 12.399,10.47 12.275,10.818L11.663,12.444Z" style="fill-rule:nonzero;"/>
            </g>
            <g>
                <path d="M19.476,9.177L20.211,9.177L20.211,12.382C20.211,12.94 20.142,13.381 20.018,13.706C19.894,14.032 19.669,14.303 19.336,14.504C19.011,14.713 18.578,14.814 18.043,14.814C17.525,14.814 17.099,14.728 16.766,14.55C16.441,14.365 16.201,14.109 16.061,13.768C15.922,13.428 15.852,12.971 15.852,12.382L15.852,9.177L16.58,9.177L16.58,12.375C16.58,12.855 16.626,13.211 16.719,13.443C16.805,13.668 16.959,13.846 17.176,13.97C17.393,14.094 17.664,14.155 17.981,14.155C18.516,14.155 18.903,14.032 19.127,13.784C19.36,13.544 19.476,13.072 19.476,12.375L19.476,9.177Z" style="fill-rule:nonzero;"/>
            </g>
            <g>
                <rect x="21.552" y="9.177" width="0.736" height="5.544"/>
            </g>
        </g>
    </g>
    <rect id="outer" x="0" y="0" width="30" height="30" style="fill:none;"/>
    <defs>
        <radialGradient id="_Radial1" cx="0" cy="0" r="1" gradientUnits="userSpaceOnUse" gradientTransform="matrix(13.0952,0,0,6.77338,15.5739,25.2266)"><stop offset="0" style="stop-color:black;stop-opacity:1"/><stop offset="1" style="stop-color:black;stop-opacity:0"/></radialGradient>
        <linearGradient id="_Linear2" x1="0" y1="0" x2="1" y2="0" gradientUnits="userSpaceOnUse" gradientTransform="matrix(-0.45156,-2.88998,2.88998,-0.45156,16.1158,27.3941)"><stop offset="0" style="stop-color:white;stop-opacity:1"/><stop offset="1" style="stop-color:rgb(203,203,203);stop-opacity:1"/></linearGradient>
        <linearGradient id="_Linear3" x1="0" y1="0" x2="1" y2="0" gradientUnits="userSpaceOnUse" gradientTransform="matrix(5.48331,0,0,5.48331,3.51467,14.2487)"><stop offset="0" style="stop-color:rgb(214,227,240);stop-opacity:1"/><stop offset="1" style="stop-color:rgb(149,177,207);stop-opacity:1"/></linearGradient>
        <linearGradient id="_Linear4" x1="0" y1="0" x2="1" y2="0.0356441" gradientUnits="userSpaceOnUse" gradientTransform="matrix(1.06047,0.0380175,-0.0760843,1.06115,4.82039,11.7766)"><stop offset="0" style="stop-color:black;stop-opacity:0.03"/><stop offset="1" style="stop-color:white;stop-opacity:0.48"/></linearGradient>
        <linearGradient id="_Linear5" x1="0" y1="0" x2="1" y2="0" gradientUnits="userSpaceOnUse" gradientTransform="matrix(-56.3949,-3.72231,3.72231,-56.3949,52.5854,16.0744)"><stop offset="0" style="stop-color:white;stop-opacity:1"/><stop offset="1" style="stop-color:white;stop-opacity:0"/></linearGradient>
    </defs>
</svg>
