<?xml version="1.0" encoding="UTF-8" standalone="no"?>
<!DOCTYPE svg PUBLIC "-//W3C//DTD SVG 1.1//EN" "http://www.w3.org/Graphics/SVG/1.1/DTD/svg11.dtd">
<svg width="30px" height="30px" version="1.1" xmlns="http://www.w3.org/2000/svg" xmlns:xlink="http://www.w3.org/1999/xlink" xml:space="preserve" xmlns:serif="http://www.serif.com/" style="fill-rule:evenodd;clip-rule:evenodd;stroke-linecap:round;stroke-linejoin:round;">
    <g id="Layer-1" serif:id="Layer 1">
        <g id="path21642">
            <path d="M28.67,25.276C28.67,28.965 22.802,32 15.671,32C8.54,32 2.671,28.965 2.671,25.276C2.671,21.588 8.54,18.553 15.671,18.553C22.802,18.553 28.67,21.588 28.67,25.276Z" style="fill:url(#_Radial1);"/>
        </g>
        <path id="rect1408" d="M3.022,2.429C3.087,1.056 3.745,0.303 4.969,0.299L26.003,0.235C26.179,0.234 26.41,0.378 26.428,0.557L28.764,24.195L27.821,24.236L28.273,28.859C28.316,29.306 28.143,29.69 27.504,29.693L5.479,29.797C3.663,29.805 1.796,28.306 1.883,26.459L3.022,2.429Z" style="fill:rgb(91,107,148);fill-rule:nonzero;stroke:rgb(54,72,120);stroke-width:0.72px;"/>
        <path id="path2489" d="M27.235,23.483L6.302,23.573C5.186,23.701 4.285,24.574 4.285,25.725C4.285,26.875 5.186,27.748 6.303,27.876L27.235,27.966L27.235,27.921C26.048,27.865 25.084,26.926 25.084,25.725C25.084,24.523 26.048,23.584 27.235,23.528L27.235,23.483Z" style="fill:url(#_Linear2);fill-rule:nonzero;"/>
        <path id="path2784" d="M5.406,0.489C4.182,0.488 3.514,1.212 3.456,2.54L2.268,25.6C2.202,27.807 3.578,29.062 5.002,29.422C1.954,28.253 2.357,22.973 6.168,22.996L28.328,22.996L25.952,0.797C25.934,0.625 25.703,0.489 25.526,0.489L5.405,0.489L5.406,0.489Z" style="fill:url(#_Linear3);fill-rule:nonzero;"/>
        <g id="rect2793">
            <path d="M6.811,1.316L6.05,22.535L4.616,22.535L5.377,1.316L6.811,1.316Z" style="fill:url(#_Linear4);"/>
        </g>
        <path id="path2104" d="M5.54,0.862C4.333,0.862 3.864,1.387 3.807,2.694L2.875,24.13C3.545,22.978 4.625,22.565 6.356,22.565L27.836,22.565L25.81,1.166C25.794,0.996 25.564,0.862 25.389,0.862L5.54,0.862Z" style="fill:none;fill-rule:nonzero;stroke:url(#_Linear5);stroke-width:0.72px;stroke-linejoin:miter;stroke-miterlimit:20;"/>
    </g>
    <rect id="outer" x="0" y="0" width="30" height="30" style="fill:none;"/>
    <defs>
        <radialGradient id="_Radial1" cx="0" cy="0" r="1" gradientUnits="userSpaceOnUse" gradientTransform="matrix(12.9991,0,0,6.72371,15.6706,25.2763)"><stop offset="0" style="stop-color:black;stop-opacity:1"/><stop offset="1" style="stop-color:black;stop-opacity:0"/></radialGradient>
        <linearGradient id="_Linear2" x1="0" y1="0" x2="1" y2="0" gradientUnits="userSpaceOnUse" gradientTransform="matrix(-0.448248,-2.86878,2.86878,-0.448248,16.2086,27.4279)"><stop offset="0" style="stop-color:white;stop-opacity:1"/><stop offset="1" style="stop-color:rgb(203,203,203);stop-opacity:1"/></linearGradient>
        <linearGradient id="_Linear3" x1="0" y1="0" x2="1" y2="0" gradientUnits="userSpaceOnUse" gradientTransform="matrix(5.4431,0,0,5.4431,3.69986,14.3789)"><stop offset="0" style="stop-color:rgb(214,227,240);stop-opacity:1"/><stop offset="1" style="stop-color:rgb(149,177,207);stop-opacity:1"/></linearGradient>
        <linearGradient id="_Linear4" x1="0" y1="0" x2="1" y2="0.0356441" gradientUnits="userSpaceOnUse" gradientTransform="matrix(1.05269,0.0377386,-0.0755263,1.05336,4.99601,11.9249)"><stop offset="0" style="stop-color:black;stop-opacity:0.03"/><stop offset="1" style="stop-color:white;stop-opacity:0.48"/></linearGradient>
        <linearGradient id="_Linear5" x1="0" y1="0" x2="1" y2="0" gradientUnits="userSpaceOnUse" gradientTransform="matrix(-55.9813,-3.69501,3.69501,-55.9813,52.4107,16.1912)"><stop offset="0" style="stop-color:white;stop-opacity:1"/><stop offset="1" style="stop-color:white;stop-opacity:0"/></linearGradient>
    </defs>
</svg>
