<?xml version="1.0" encoding="UTF-8" standalone="no"?>
<!DOCTYPE svg PUBLIC "-//W3C//DTD SVG 1.1//EN" "http://www.w3.org/Graphics/SVG/1.1/DTD/svg11.dtd">
<svg width="30px" height="30px" version="1.1" xmlns="http://www.w3.org/2000/svg" xmlns:xlink="http://www.w3.org/1999/xlink" xml:space="preserve" xmlns:serif="http://www.serif.com/" style="fill-rule:evenodd;clip-rule:evenodd;stroke-linecap:round;stroke-linejoin:round;">
    <g id="book">
        <g id="path21642">
            <path d="M28.67,25.283C28.67,28.968 22.807,32 15.683,32C8.559,32 2.696,28.968 2.696,25.283C2.696,21.598 8.559,18.565 15.683,18.565C22.807,18.565 28.67,21.598 28.67,25.283Z" style="fill:url(#_Radial1);"/>
        </g>
        <path id="rect1408" d="M3.046,2.457C3.112,1.085 3.769,0.333 4.992,0.329L26.005,0.265C26.181,0.264 26.412,0.408 26.43,0.587L28.764,24.202L27.822,24.243L28.273,28.862C28.317,29.309 28.143,29.692 27.506,29.695L5.5,29.799C3.686,29.807 1.821,28.31 1.909,26.464L3.046,2.457Z" style="fill:rgb(91,107,148);fill-rule:nonzero;stroke:rgb(54,72,120);stroke-width:0.72px;"/>
        <path id="path2489" d="M27.237,23.491L6.323,23.581C5.208,23.708 4.308,24.581 4.308,25.73C4.308,26.88 5.208,27.752 6.324,27.88L27.237,27.97L27.237,27.924C26.05,27.869 25.087,26.931 25.087,25.73C25.087,24.53 26.05,23.592 27.237,23.536L27.237,23.491Z" style="fill:url(#_Linear2);fill-rule:nonzero;"/>
        <path id="path2784" d="M5.428,0.518C4.205,0.517 3.538,1.241 3.48,2.568L2.293,25.606C2.227,27.811 3.602,29.065 5.025,29.425C1.979,28.257 2.382,22.982 6.189,23.004L28.328,23.004L25.955,0.826C25.936,0.654 25.706,0.518 25.529,0.518L5.427,0.518L5.428,0.518Z" style="fill:url(#_Linear3);fill-rule:nonzero;"/>
        <g id="rect2793">
            <path d="M6.832,1.345L6.072,22.544L4.639,22.544L5.399,1.345L6.832,1.345Z" style="fill:url(#_Linear4);"/>
        </g>
        <path id="path2104" d="M5.562,0.891C4.355,0.891 3.888,1.416 3.83,2.721L2.899,24.138C3.569,22.986 4.648,22.573 6.377,22.573L27.837,22.573L25.812,1.195C25.797,1.025 25.567,0.891 25.393,0.891L5.562,0.891Z" style="fill:none;fill-rule:nonzero;stroke:url(#_Linear5);stroke-width:0.72px;stroke-linejoin:miter;stroke-miterlimit:20;"/>
    </g>
    <g>
        <rect x="7.791" y="7.963" width="17.209" height="8.073" style="fill:rgb(235,235,235);stroke:black;stroke-width:0.97px;stroke-miterlimit:1.5;"/>
        <path d="M19.562,7.963L19.562,16.037" style="fill:none;stroke:black;stroke-width:0.97px;stroke-miterlimit:1.5;"/>
        <g>
            <path d="M20.924,9.823L22.02,14.374" style="fill:none;stroke:black;stroke-width:0.97px;stroke-miterlimit:1.5;"/>
        </g>
        <g>
            <path d="M23.568,9.823L22.02,14.374" style="fill:none;stroke:black;stroke-width:0.97px;stroke-miterlimit:1.5;"/>
        </g>
        <g>
            <g>
                <path d="M11.051,13.071L11.114,13.448C10.992,13.473 10.886,13.487 10.789,13.487C10.634,13.487 10.513,13.463 10.43,13.415C10.343,13.366 10.285,13.298 10.251,13.221C10.217,13.138 10.198,12.974 10.198,12.717L10.198,11.273L9.888,11.273L9.888,10.939L10.198,10.939L10.198,10.319L10.619,10.062L10.619,10.939L11.051,10.939L11.051,11.273L10.619,11.273L10.619,12.741C10.619,12.862 10.629,12.94 10.644,12.974C10.658,13.012 10.682,13.037 10.716,13.056C10.75,13.08 10.799,13.09 10.862,13.09C10.91,13.09 10.973,13.085 11.051,13.071Z" style="fill-rule:nonzero;"/>
            </g>
            <g>
                <path d="M13.186,12.644L13.627,12.697C13.555,12.954 13.429,13.153 13.24,13.298C13.051,13.439 12.813,13.511 12.523,13.511C12.154,13.511 11.864,13.395 11.646,13.172C11.433,12.945 11.326,12.625 11.326,12.218C11.326,11.796 11.433,11.467 11.651,11.234C11.869,11.002 12.15,10.885 12.498,10.885C12.833,10.885 13.109,10.997 13.322,11.229C13.535,11.457 13.642,11.777 13.642,12.194C13.642,12.218 13.637,12.257 13.637,12.305L11.762,12.305C11.781,12.581 11.859,12.794 11.999,12.94C12.14,13.085 12.314,13.158 12.523,13.158C12.678,13.158 12.813,13.119 12.925,13.037C13.031,12.954 13.123,12.823 13.186,12.644ZM11.786,11.956L13.191,11.956C13.172,11.743 13.119,11.588 13.031,11.481C12.896,11.317 12.716,11.234 12.503,11.234C12.305,11.234 12.14,11.302 12.009,11.433C11.873,11.564 11.801,11.738 11.786,11.956Z" style="fill-rule:nonzero;"/>
            </g>
            <g>
                <path d="M13.875,13.453L14.796,12.145L13.943,10.939L14.476,10.939L14.863,11.53C14.936,11.641 14.994,11.738 15.038,11.811C15.106,11.709 15.174,11.617 15.232,11.535L15.653,10.939L16.162,10.939L15.295,12.126L16.23,13.453L15.706,13.453L15.188,12.673L15.052,12.46L14.394,13.453L13.875,13.453Z" style="fill-rule:nonzero;"/>
            </g>
            <g>
                <path d="M17.514,13.071L17.577,13.448C17.455,13.473 17.349,13.487 17.252,13.487C17.097,13.487 16.976,13.463 16.893,13.415C16.806,13.366 16.748,13.298 16.714,13.221C16.68,13.138 16.661,12.974 16.661,12.717L16.661,11.273L16.351,11.273L16.351,10.939L16.661,10.939L16.661,10.319L17.082,10.062L17.082,10.939L17.514,10.939L17.514,11.273L17.082,11.273L17.082,12.741C17.082,12.862 17.092,12.94 17.107,12.974C17.121,13.012 17.145,13.037 17.179,13.056C17.213,13.08 17.262,13.09 17.325,13.09C17.373,13.09 17.436,13.085 17.514,13.071Z" style="fill-rule:nonzero;"/>
            </g>
        </g>
    </g>
    <rect id="outer" x="0" y="0" width="30" height="30" style="fill:none;"/>
    <defs>
        <radialGradient id="_Radial1" cx="0" cy="0" r="1" gradientUnits="userSpaceOnUse" gradientTransform="matrix(12.9869,0,0,6.7174,15.6829,25.2826)"><stop offset="0" style="stop-color:black;stop-opacity:1"/><stop offset="1" style="stop-color:black;stop-opacity:0"/></radialGradient>
        <linearGradient id="_Linear2" x1="0" y1="0" x2="1" y2="0" gradientUnits="userSpaceOnUse" gradientTransform="matrix(-0.447827,-2.86609,2.86609,-0.447827,16.2203,27.4322)"><stop offset="0" style="stop-color:white;stop-opacity:1"/><stop offset="1" style="stop-color:rgb(203,203,203);stop-opacity:1"/></linearGradient>
        <linearGradient id="_Linear3" x1="0" y1="0" x2="1" y2="0" gradientUnits="userSpaceOnUse" gradientTransform="matrix(5.43799,0,0,5.43799,3.72338,14.3955)"><stop offset="0" style="stop-color:rgb(214,227,240);stop-opacity:1"/><stop offset="1" style="stop-color:rgb(149,177,207);stop-opacity:1"/></linearGradient>
        <linearGradient id="_Linear4" x1="0" y1="0" x2="1" y2="0.0356441" gradientUnits="userSpaceOnUse" gradientTransform="matrix(1.0517,0.0377032,-0.0754555,1.05238,5.0183,11.9437)"><stop offset="0" style="stop-color:black;stop-opacity:0.03"/><stop offset="1" style="stop-color:white;stop-opacity:0.48"/></linearGradient>
        <linearGradient id="_Linear5" x1="0" y1="0" x2="1" y2="0" gradientUnits="userSpaceOnUse" gradientTransform="matrix(-55.9288,-3.69155,3.69155,-55.9288,52.3885,16.2061)"><stop offset="0" style="stop-color:white;stop-opacity:1"/><stop offset="1" style="stop-color:white;stop-opacity:0"/></linearGradient>
    </defs>
</svg>
