<?xml version="1.0" encoding="UTF-8" standalone="no"?><!DOCTYPE svg PUBLIC "-//W3C//DTD SVG 1.1//EN" "http://www.w3.org/Graphics/SVG/1.1/DTD/svg11.dtd"><svg width="100%" height="100%" viewBox="0 0 30 30" version="1.1" xmlns="http://www.w3.org/2000/svg" xmlns:xlink="http://www.w3.org/1999/xlink" xml:space="preserve" xmlns:serif="http://www.serif.com/" style="fill-rule:evenodd;clip-rule:evenodd;stroke-linecap:round;stroke-linejoin:round;"><g id="Layer-1" serif:id="Layer 1" transform="matrix(0.699848,0,0,0.699848,-1.03101,-0.980238)"><g id="path21642" transform="matrix(1.15079,0,0,1,-4.91369,0.625)"><path d="M40.875,36.75c0,5.143 -7.11,9.375 -15.75,9.375c-8.64,0 -15.75,-4.232 -15.75,-9.375c-0,-5.143 7.11,-9.375 15.75,-9.375c8.64,0 15.75,4.232 15.75,9.375Z" style="fill:url(#_Radial1);"/></g><path id="rect1408" d="M6.364,5.519c0.091,-1.915 1.008,-2.965 2.715,-2.97l29.327,-0.09c0.246,-0.001 0.568,0.2 0.593,0.45l3.258,32.958l-1.315,0.057l0.629,6.446c0.061,0.624 -0.181,1.159 -1.071,1.163l-30.711,0.145c-2.532,0.012 -5.135,-2.078 -5.013,-4.654l1.588,-33.505Z" style="fill:#5b6b94;fill-rule:nonzero;stroke:#364878;stroke-width:1px;"/><path id="path2489" d="M40.125,34.875l-29.188,0.125c-1.556,0.178 -2.812,1.396 -2.812,3c0,1.604 1.256,2.822 2.813,3l29.187,0.125l0,-0.063c-1.656,-0.078 -3,-1.387 -3,-3.062c0,-1.675 1.344,-2.984 3,-3.063l0,-0.062Z" style="fill:url(#_Linear2);fill-rule:nonzero;"/><path id="path2784" d="M9.688,2.813c-1.707,-0.001 -2.638,1.009 -2.719,2.861l-1.657,32.152c-0.091,3.078 1.827,4.828 3.813,5.33c-4.25,-1.63 -3.688,-8.992 1.625,-8.961l30.898,0l-3.312,-30.952c-0.026,-0.24 -0.348,-0.43 -0.594,-0.43l-28.055,-0Z" style="fill:url(#_Linear3);fill-rule:nonzero;"/><g id="rect2793" transform="matrix(1,0,-0.0358273,0.999358,0,0)"><rect x="9.789" y="3.969" width="2" height="29.605" style="fill:url(#_Linear4);"/></g><path id="path2104" d="M9.875,3.334c-1.684,-0 -2.337,0.732 -2.417,2.554l-1.299,29.889c0.934,-1.607 2.44,-2.183 4.853,-2.183l29.951,0l-2.826,-29.837c-0.022,-0.237 -0.343,-0.423 -0.586,-0.423l-27.676,-0Z" style="fill:none;fill-rule:nonzero;stroke:url(#_Linear5);stroke-width:1px;stroke-linejoin:miter;stroke-miterlimit:20;"/><g id="AUI" transform="matrix(0.893051,0,0,0.893051,5.15798,1.87251)"><g transform="matrix(12,0,0,12,12.5779,23.4716)"><path d="M-0.001,-0l0.274,-0.716l0.102,0l0.293,0.716l-0.107,-0l-0.084,-0.217l-0.299,0l-0.079,0.217l-0.1,-0Zm0.206,-0.294l0.243,0l-0.075,-0.198c-0.023,-0.06 -0.04,-0.11 -0.051,-0.149c-0.009,0.046 -0.022,0.092 -0.038,0.137l-0.079,0.21Z" style="fill-rule:nonzero;"/></g><g transform="matrix(12,0,0,12,20.5818,23.4716)"><path d="M0.547,-0.716l0.095,0l-0,0.414c-0,0.072 -0.009,0.129 -0.025,0.171c-0.016,0.042 -0.045,0.077 -0.088,0.103c-0.042,0.027 -0.098,0.04 -0.167,0.04c-0.067,0 -0.122,-0.011 -0.165,-0.034c-0.042,-0.024 -0.073,-0.057 -0.091,-0.101c-0.018,-0.044 -0.027,-0.103 -0.027,-0.179l-0,-0.414l0.094,0l0,0.413c0,0.062 0.006,0.108 0.018,0.138c0.011,0.029 0.031,0.052 0.059,0.068c0.028,0.016 0.063,0.024 0.104,0.024c0.069,-0 0.119,-0.016 0.148,-0.048c0.03,-0.031 0.045,-0.092 0.045,-0.182l-0,-0.413Z" style="fill-rule:nonzero;"/></g><g transform="matrix(12,0,0,12,29.2478,23.4716)"><rect x="0.093" y="-0.716" width="0.095" height="0.716" style="fill-rule:nonzero;"/></g></g></g><defs><radialGradient id="_Radial1" cx="0" cy="0" r="1" gradientUnits="userSpaceOnUse" gradientTransform="matrix(15.75,0,0,9.375,25.125,36.75)"><stop offset="0" style="stop-color:#000;stop-opacity:1"/><stop offset="1" style="stop-color:#000;stop-opacity:0"/></radialGradient><linearGradient id="_Linear2" x1="0" y1="0" x2="1" y2="0" gradientUnits="userSpaceOnUse" gradientTransform="matrix(-0.625001,-4,4,-0.625001,24.75,40.375)"><stop offset="0" style="stop-color:#fff;stop-opacity:1"/><stop offset="1" style="stop-color:#cbcbcb;stop-opacity:1"/></linearGradient><linearGradient id="_Linear3" x1="0" y1="0" x2="1" y2="0" gradientUnits="userSpaceOnUse" gradientTransform="matrix(7.58942,0,0,7.58942,7.30887,22.1806)"><stop offset="0" style="stop-color:#d6e3f0;stop-opacity:1"/><stop offset="1" style="stop-color:#95b1cf;stop-opacity:1"/></linearGradient><linearGradient id="_Linear4" x1="0" y1="0" x2="1" y2="0.0358273" gradientUnits="userSpaceOnUse" gradientTransform="matrix(1.46967,-7.51963e-07,7.51963e-07,1.46967,9.78862,18.7709)"><stop offset="0" style="stop-color:#000;stop-opacity:0.03"/><stop offset="1" style="stop-color:#fff;stop-opacity:0.48"/></linearGradient><linearGradient id="_Linear5" x1="0" y1="0" x2="1" y2="0" gradientUnits="userSpaceOnUse" gradientTransform="matrix(-78.0559,-5.15203,5.15203,-78.0559,75.2274,24.7075)"><stop offset="0" style="stop-color:#fff;stop-opacity:1"/><stop offset="1" style="stop-color:#fff;stop-opacity:0"/></linearGradient></defs></svg>