<?xml version="1.0" encoding="UTF-8" standalone="no"?>
<!DOCTYPE svg PUBLIC "-//W3C//DTD SVG 1.1//EN" "http://www.w3.org/Graphics/SVG/1.1/DTD/svg11.dtd">
<svg width="30px" height="30px" version="1.1" xmlns="http://www.w3.org/2000/svg" xmlns:xlink="http://www.w3.org/1999/xlink" xml:space="preserve" xmlns:serif="http://www.serif.com/" style="fill-rule:evenodd;clip-rule:evenodd;stroke-linecap:round;stroke-linejoin:round;">
    <g id="book">
        <g id="path21642">
            <path d="M28.332,25.267C28.332,28.951 22.471,31.983 15.348,31.983C8.225,31.983 2.363,28.951 2.363,25.267C2.363,21.582 8.225,18.551 15.348,18.551C22.471,18.551 28.332,21.582 28.332,25.267Z" style="fill:url(#_Radial1);"/>
        </g>
        <path id="rect1408" d="M2.714,2.445C2.779,1.074 3.436,0.321 4.659,0.318L25.668,0.253C25.844,0.253 26.075,0.397 26.093,0.576L28.427,24.186L27.485,24.227L27.935,28.845C27.979,29.292 27.806,29.675 27.168,29.678L5.167,29.782C3.353,29.791 1.489,28.293 1.576,26.448L2.714,2.445Z" style="fill:rgb(91,107,148);fill-rule:nonzero;stroke:rgb(54,72,120);stroke-width:0.72px;"/>
        <path id="path2489" d="M26.9,23.476L5.99,23.565C4.875,23.693 3.975,24.565 3.975,25.714C3.975,26.864 4.875,27.736 5.99,27.864L26.9,27.953L26.9,27.908C25.713,27.852 24.75,26.914 24.75,25.714C24.75,24.515 25.713,23.577 26.9,23.52L26.9,23.476Z" style="fill:url(#_Linear2);fill-rule:nonzero;"/>
        <path id="path2784" d="M5.095,0.507C3.872,0.506 3.205,1.23 3.147,2.557L1.96,25.59C1.895,27.795 3.269,29.049 4.692,29.408C1.647,28.24 2.05,22.966 5.856,22.989L27.991,22.989L25.618,0.815C25.599,0.643 25.369,0.507 25.192,0.507L5.094,0.507L5.095,0.507Z" style="fill:url(#_Linear3);fill-rule:nonzero;"/>
        <g id="rect2793">
            <path d="M6.498,1.333L5.738,22.528L4.306,22.528L5.065,1.333L6.498,1.333Z" style="fill:url(#_Linear4);"/>
        </g>
        <path id="path2104" d="M5.229,0.88C4.022,0.88 3.555,1.405 3.497,2.71L2.567,24.122C3.236,22.971 4.315,22.558 6.043,22.558L27.5,22.558L25.475,1.183C25.46,1.013 25.23,0.88 25.056,0.88L5.229,0.88Z" style="fill:none;fill-rule:nonzero;stroke:url(#_Linear5);stroke-width:0.72px;stroke-linejoin:miter;stroke-miterlimit:20;"/>
    </g>
    <g id="List">
        <path d="M8.133,18.266L17.938,18.266" style="fill:none;stroke:black;stroke-width:0.63px;stroke-miterlimit:1.5;"/>
        <path d="M8.133,15.625L21.975,15.625" style="fill:none;stroke:black;stroke-width:0.63px;stroke-miterlimit:1.5;"/>
        <path d="M8.133,13.166L19.227,13.06" style="fill:none;stroke:black;stroke-width:0.63px;stroke-miterlimit:1.5;"/>
        <path d="M8.133,10.909L21.405,10.802" style="fill:none;stroke:black;stroke-width:0.63px;stroke-miterlimit:1.5;"/>
        <path d="M8.133,5.748L22.802,5.731" style="fill:none;stroke:black;stroke-width:0.63px;stroke-miterlimit:1.5;"/>
        <path d="M8.133,8.171L20.303,8.103" style="fill:none;stroke:black;stroke-width:0.63px;stroke-miterlimit:1.5;"/>
    </g>
    <rect id="outer" x="0" y="0" width="30" height="30" style="fill:none;"/>
    <defs>
        <radialGradient id="_Radial1" cx="0" cy="0" r="1" gradientUnits="userSpaceOnUse" gradientTransform="matrix(12.9845,0,0,6.71613,15.3478,25.2667)"><stop offset="0" style="stop-color:black;stop-opacity:1"/><stop offset="1" style="stop-color:black;stop-opacity:0"/></radialGradient>
        <linearGradient id="_Linear2" x1="0" y1="0" x2="1" y2="0" gradientUnits="userSpaceOnUse" gradientTransform="matrix(-0.447743,-2.86555,2.86555,-0.447743,15.8851,27.4159)"><stop offset="0" style="stop-color:white;stop-opacity:1"/><stop offset="1" style="stop-color:rgb(203,203,203);stop-opacity:1"/></linearGradient>
        <linearGradient id="_Linear3" x1="0" y1="0" x2="1" y2="0" gradientUnits="userSpaceOnUse" gradientTransform="matrix(5.43697,0,0,5.43697,3.39054,14.3817)"><stop offset="0" style="stop-color:rgb(214,227,240);stop-opacity:1"/><stop offset="1" style="stop-color:rgb(149,177,207);stop-opacity:1"/></linearGradient>
        <linearGradient id="_Linear4" x1="0" y1="0" x2="1" y2="0" gradientUnits="userSpaceOnUse" gradientTransform="matrix(1.04881,0.0752001,-0.0752001,1.04881,4.68522,11.9304)"><stop offset="0" style="stop-color:black;stop-opacity:0.03"/><stop offset="1" style="stop-color:white;stop-opacity:0.48"/></linearGradient>
        <linearGradient id="_Linear5" x1="0" y1="0" x2="1" y2="0" gradientUnits="userSpaceOnUse" gradientTransform="matrix(-55.9183,-3.69085,3.69085,-55.9183,52.0465,16.1919)"><stop offset="0" style="stop-color:white;stop-opacity:1"/><stop offset="1" style="stop-color:white;stop-opacity:0"/></linearGradient>
    </defs>
</svg>
