<?xml version="1.0" encoding="UTF-8" standalone="no"?>
<!DOCTYPE svg PUBLIC "-//W3C//DTD SVG 1.1//EN" "http://www.w3.org/Graphics/SVG/1.1/DTD/svg11.dtd">
<svg width="30px" height="30px" version="1.1" xmlns="http://www.w3.org/2000/svg" xmlns:xlink="http://www.w3.org/1999/xlink" xml:space="preserve" xmlns:serif="http://www.serif.com/" style="fill-rule:evenodd;clip-rule:evenodd;">
    <path id="path2997" d="M19.288,0C19.734,0.075 20.117,0.309 20.537,0.449C21.426,1.02 22.141,1.897 22.324,2.954C22.88,4.741 24.516,5.916 25.088,7.688C25.558,8.825 26.4,9.72 27.187,10.633C27.729,11.309 27.67,12.217 27.908,13.008C28.147,13.224 28.317,13.718 27.87,13.771C27.882,14.173 28.158,14.621 27.867,15.006C27.641,15.846 27.242,16.651 26.847,17.429C26.768,17.712 26.284,18.041 26.21,17.584C26.151,16.933 25.869,16.158 26.327,15.584C26.621,14.847 26.379,14.069 26.242,13.334C26.309,12.88 26.147,12.363 25.902,12.002C25.649,12.138 25.735,12.595 25.635,12.84C25.394,14.603 25.321,16.435 25.767,18.174C25.933,18.855 25.66,19.575 25.82,20.244C26.393,20.867 25.949,21.762 25.899,22.485C25.621,23.828 25.773,25.223 26.175,26.507C26.184,26.968 26.345,27.388 26.442,27.829C26.281,28.384 25.519,28.579 25.01,28.448C24.694,28.235 24.091,28.642 23.94,28.134C23.894,27.584 24.432,27.172 24.389,26.612C24.724,25.077 24.976,23.478 24.65,21.912C24.482,21.002 24.548,20.03 24.292,19.153C23.726,18.444 23.339,17.604 23.098,16.725C22.762,15.994 22.554,15.106 22.35,14.41C21.473,15.821 20.945,17.511 21.175,19.194C21.145,19.851 21.556,20.62 21.004,21.138C20.335,22.184 19.491,23.171 19.153,24.377C19.126,24.882 19.806,24.89 19.986,25.298C20.385,25.879 20.343,26.618 20.388,27.29C20.011,27.436 19.457,27.826 19.138,27.357C18.827,27.029 18.694,26.454 18.37,26.202C18.17,26.58 18.356,27.193 17.842,27.378C17.104,27.642 16.252,27.716 15.487,27.533C15.093,27.192 15.631,26.711 15.965,26.58C16.518,26.416 16.843,25.985 17.032,25.462C17.206,25.174 17.331,24.837 16.991,24.615C16.193,23.646 15.094,23.005 14.249,22.098C13.739,21.389 13.873,20.402 14.067,19.602C14.306,19.135 14.479,18.646 14.349,18.115C14.26,17.658 14.573,17.186 14.554,16.78C14.106,16.751 13.583,16.768 13.184,16.918C13.076,17.64 13.236,18.41 13.029,19.109C12.69,19.433 12.529,19.944 12.507,20.409C12.19,20.798 12.39,21.371 12.304,21.846C12.507,22.62 12.219,23.384 11.982,24.119C11.548,25.518 11.731,27.025 11.36,28.428C11.078,28.826 11.551,29.491 10.999,29.754C10.145,30.073 9.002,30.164 8.274,29.522C8.052,29.079 8.707,28.824 9.022,28.683C9.465,28.587 9.801,28.277 9.895,27.819C10.568,26.43 10.897,24.871 10.662,23.322C10.628,22.575 10.525,21.838 10.333,21.127C10.243,20.401 10.232,19.655 10.019,18.966C9.895,17.994 10.106,16.971 9.834,16.027C9.395,16.306 8.924,16.588 8.403,16.628C8.065,16.885 7.701,16.629 7.517,16.32C7.246,15.947 6.919,16.943 6.671,16.438C6.363,16.089 5.966,15.84 5.617,15.566C5.419,15.244 5.013,15.253 4.728,15.106C4.53,14.847 4.855,14.439 4.49,14.24C4.366,13.91 4.048,14.346 3.904,14.032C3.75,13.691 3.774,13.221 3.364,13.073C2.619,12.481 2.842,11.402 2.708,10.565C2.717,9.731 2.552,8.847 2.756,8.044C2.995,7.407 3.387,6.761 3.546,6.127C2.82,5.548 1.535,6.028 1.041,5.074C0.827,4.377 1.5,3.781 1.944,3.338C2.376,2.931 3.057,3.125 3.585,2.925C3.995,2.786 4.632,2.94 4.74,2.382C4.911,1.941 5.449,1.944 5.737,1.61C6.197,1.373 6.615,1.915 7.069,1.959C7.573,2.312 8.151,2.655 8.473,3.191C8.611,3.541 8.492,3.998 8.869,4.215C9.499,4.939 9.235,6.012 9.295,6.893C9.287,7.295 9.297,7.702 9.069,8.031C9.034,8.525 8.585,8.849 8.665,9.357C8.728,9.69 8.435,10.403 8.987,10.248C9.155,9.968 9.13,9.49 9.287,9.161C9.748,7.741 10.448,6.202 11.847,5.491C12.833,4.768 13.537,3.718 13.947,2.578C14.334,2 15.047,1.643 15.352,1.018C15.752,0.847 16.235,0.906 16.633,0.683C17.128,0.464 17.575,0.067 18.167,0.137C18.558,0.166 18.918,0.029 19.288,0ZM18.566,15.93C18.224,16.043 18.33,16.576 18.206,16.854C18.045,17.243 18.181,17.933 17.727,18.13C17.472,18.553 17.63,19.126 17.373,19.517C17.432,19.795 17.523,20.313 17.091,20.321C16.704,20.287 16.598,20.72 16.325,20.913C16.074,21.265 15.792,21.764 16.182,22.136C16.559,22.594 16.818,23.314 17.513,23.333C17.8,23.364 18.196,23.81 18.326,23.351C18.821,22.514 19.243,21.624 19.147,20.629C19.14,19.065 18.784,17.53 18.604,15.988C18.613,15.945 18.598,15.927 18.566,15.93Z" style="fill:rgb(17,84,204);fill-opacity:0.79;fill-rule:nonzero;stroke:black;stroke-width:0.09px;"/>
    <rect id="outer" x="0" y="0" width="30" height="30" style="fill:none;"/>
</svg>
