<?xml version="1.0" encoding="UTF-8" standalone="no"?>
<!DOCTYPE svg PUBLIC "-//W3C//DTD SVG 1.1//EN" "http://www.w3.org/Graphics/SVG/1.1/DTD/svg11.dtd">
<svg width="30px" height="30px" version="1.1" xmlns="http://www.w3.org/2000/svg" xmlns:xlink="http://www.w3.org/1999/xlink" xml:space="preserve" xmlns:serif="http://www.serif.com/" style="fill-rule:evenodd;clip-rule:evenodd;stroke-linejoin:round;stroke-miterlimit:2;">
    <g id="g3438">
        <g id="g3440">
            <g id="g3442">
                <clipPath id="_clip1">
                    <path d="M-0.086,15C-0.086,20.247 6.668,24.5 15,24.5C23.332,24.5 30.086,20.247 30.086,15C30.086,9.753 23.332,5.5 15,5.5C6.668,5.5 -0.086,9.753 -0.086,15"/>
                </clipPath>
                <g clip-path="url(#_clip1)">
                    <g id="g3448">
                        <g id="g3450">
                            <path id="path3462" d="M-0.086,15C-0.086,20.247 6.668,24.5 15,24.5C23.332,24.5 30.086,20.247 30.086,15C30.086,9.753 23.332,5.5 15,5.5C6.668,5.5 -0.086,9.753 -0.086,15" style="fill:url(#_Radial2);fill-rule:nonzero;"/>
                        </g>
                    </g>
                </g>
            </g>
        </g>
        <g id="g3464">
            <g id="g3466">
                <g id="g3472">
                    <path id="path3474" d="M15,23.795C23.006,23.795 29.497,19.857 29.497,15C29.497,10.143 23.006,6.205 15,6.205C6.994,6.205 0.503,10.143 0.503,15C0.503,19.857 6.994,23.795 15,23.795" style="fill:rgb(119,123,179);fill-rule:nonzero;"/>
                </g>
            </g>
        </g>
        <g id="g3476">
            <g id="g3478">
                <g id="g3484">
                    <path id="path3486" d="M8.11,16.09C8.769,16.09 9.26,15.945 9.571,15.659C9.879,15.375 10.091,14.884 10.203,14.198C10.306,13.558 10.267,13.111 10.085,12.869C9.899,12.623 9.497,12.498 8.89,12.498L7.838,12.498L7.255,16.09L8.11,16.09ZM4.669,20.516C4.621,20.516 4.574,20.49 4.543,20.444C4.512,20.399 4.499,20.34 4.509,20.282L6.054,10.762C6.069,10.67 6.137,10.604 6.215,10.604L9.546,10.604C10.593,10.604 11.373,10.944 11.863,11.615C12.355,12.29 12.507,13.233 12.315,14.419C12.236,14.902 12.101,15.35 11.914,15.752C11.726,16.154 11.478,16.526 11.177,16.858C10.816,17.262 10.407,17.555 9.963,17.728C9.527,17.898 8.966,17.985 8.297,17.985L6.948,17.985L6.562,20.357C6.548,20.449 6.48,20.516 6.402,20.516L4.669,20.516Z" style="fill-rule:nonzero;"/>
                </g>
                <g id="g3488">
                    <path id="path3490" d="M7.973,12.694L8.89,12.694C9.623,12.694 9.877,12.886 9.964,13.001C10.107,13.191 10.134,13.592 10.042,14.161C9.938,14.798 9.746,15.25 9.471,15.503C9.19,15.763 8.732,15.894 8.11,15.894L7.454,15.894L7.973,12.694ZM9.547,10.408L6.215,10.408C6.058,10.408 5.924,10.541 5.894,10.725L4.348,20.245C4.329,20.36 4.355,20.479 4.417,20.569C4.479,20.659 4.572,20.712 4.669,20.712L6.402,20.712C6.559,20.712 6.693,20.579 6.723,20.395L7.083,18.181L8.297,18.181C8.983,18.181 9.561,18.091 10.014,17.914C10.48,17.733 10.909,17.426 11.289,17.001C11.602,16.655 11.861,16.267 12.057,15.848C12.253,15.428 12.394,14.96 12.475,14.456C12.678,13.208 12.513,12.209 11.986,11.486C11.464,10.77 10.643,10.408 9.547,10.408M7.057,16.286L8.11,16.286C8.809,16.286 9.329,16.129 9.671,15.814C10.013,15.499 10.243,14.973 10.363,14.236C10.478,13.528 10.426,13.029 10.207,12.738C9.987,12.447 9.549,12.302 8.89,12.302L7.703,12.302L7.057,16.286M9.547,10.799C10.549,10.799 11.28,11.114 11.739,11.744C12.199,12.374 12.337,13.253 12.154,14.381C12.078,14.846 11.951,15.271 11.771,15.656C11.591,16.042 11.356,16.394 11.066,16.713C10.72,17.101 10.336,17.377 9.913,17.542C9.49,17.707 8.951,17.789 8.297,17.789L6.813,17.789L6.402,20.32L4.669,20.32L6.215,10.799L9.547,10.799" style="fill:white;fill-rule:nonzero;"/>
                </g>
                <g id="g3492">
                    <path id="path3494" d="M16.287,17.985C16.238,17.985 16.192,17.959 16.161,17.913C16.129,17.868 16.117,17.809 16.126,17.751L16.81,13.539C16.875,13.138 16.859,12.851 16.765,12.729C16.707,12.655 16.534,12.53 16.022,12.53L14.784,12.53L13.924,17.826C13.909,17.918 13.842,17.985 13.763,17.985L12.044,17.985C11.995,17.985 11.949,17.959 11.918,17.913C11.887,17.868 11.874,17.809 11.884,17.751L13.429,8.231C13.444,8.139 13.512,8.072 13.59,8.072L15.309,8.072C15.358,8.072 15.404,8.099 15.435,8.144C15.466,8.189 15.479,8.248 15.47,8.306L15.097,10.604L16.429,10.604C17.444,10.604 18.133,10.818 18.534,11.259C18.942,11.708 19.07,12.427 18.913,13.396L18.194,17.826C18.179,17.918 18.111,17.985 18.033,17.985L16.287,17.985Z" style="fill-rule:nonzero;"/>
                </g>
                <g id="g3496">
                    <path id="path3498" d="M15.309,7.876L13.59,7.876C13.433,7.876 13.299,8.009 13.269,8.194L11.723,17.714C11.704,17.829 11.73,17.948 11.792,18.038C11.854,18.128 11.947,18.181 12.044,18.181L13.763,18.181C13.92,18.181 14.055,18.048 14.085,17.863L14.918,12.726L16.022,12.726C16.533,12.726 16.64,12.857 16.645,12.863C16.676,12.903 16.716,13.087 16.649,13.502L15.965,17.714C15.947,17.829 15.972,17.948 16.034,18.038C16.096,18.128 16.189,18.181 16.287,18.181L18.033,18.181C18.19,18.181 18.324,18.048 18.354,17.863L19.073,13.433C19.242,12.393 19.098,11.613 18.644,11.114C18.212,10.639 17.487,10.408 16.429,10.408L15.295,10.408L15.63,8.343C15.649,8.228 15.624,8.109 15.562,8.019C15.499,7.929 15.407,7.876 15.309,7.876M15.309,8.268L14.898,10.799L16.429,10.799C17.393,10.799 18.057,11.001 18.423,11.403C18.789,11.805 18.898,12.457 18.752,13.358L18.033,17.789L16.287,17.789L16.971,13.576C17.048,13.097 17.02,12.77 16.885,12.596C16.749,12.422 16.462,12.335 16.022,12.335L14.649,12.335L13.763,17.789L12.044,17.789L13.59,8.268L15.309,8.268" style="fill:white;fill-rule:nonzero;"/>
                </g>
                <g id="g3500">
                    <path id="path3502" d="M21.632,16.09C22.291,16.09 22.782,15.945 23.093,15.659C23.401,15.375 23.613,14.884 23.725,14.198C23.828,13.558 23.789,13.111 23.607,12.869C23.421,12.623 23.019,12.498 22.412,12.498L21.36,12.498L20.777,16.09L21.632,16.09ZM18.191,20.516C18.142,20.516 18.096,20.49 18.065,20.444C18.034,20.399 18.021,20.34 18.031,20.282L19.576,10.762C19.591,10.67 19.659,10.604 19.737,10.604L23.068,10.604C24.115,10.604 24.895,10.944 25.385,11.615C25.877,12.29 26.029,13.233 25.837,14.419C25.758,14.902 25.623,15.35 25.436,15.752C25.248,16.154 25,16.526 24.699,16.858C24.338,17.262 23.929,17.555 23.485,17.728C23.049,17.898 22.488,17.985 21.819,17.985L20.47,17.985L20.084,20.357C20.069,20.449 20.002,20.516 19.924,20.516L18.191,20.516Z" style="fill-rule:nonzero;"/>
                </g>
                <g id="g3504">
                    <path id="path3506" d="M21.495,12.694L22.412,12.694C23.145,12.694 23.399,12.886 23.486,13.001C23.629,13.191 23.656,13.592 23.564,14.161C23.46,14.798 23.268,15.25 22.993,15.503C22.712,15.763 22.254,15.894 21.632,15.894L20.976,15.894L21.495,12.694ZM23.068,10.408L19.737,10.408C19.58,10.408 19.446,10.541 19.416,10.725L17.87,20.245C17.851,20.36 17.877,20.479 17.939,20.569C18.001,20.659 18.094,20.712 18.191,20.712L19.924,20.712C20.08,20.712 20.215,20.579 20.245,20.395L20.605,18.181L21.819,18.181C22.505,18.181 23.083,18.091 23.536,17.914C24.002,17.733 24.431,17.426 24.811,17.001C25.124,16.655 25.383,16.267 25.579,15.848C25.775,15.428 25.915,14.96 25.997,14.456C26.2,13.208 26.035,12.209 25.508,11.486C24.985,10.77 24.165,10.408 23.068,10.408M20.579,16.286L21.632,16.286C22.331,16.286 22.851,16.129 23.193,15.814C23.535,15.499 23.765,14.973 23.885,14.236C24,13.528 23.948,13.029 23.729,12.738C23.509,12.447 23.071,12.302 22.412,12.302L21.225,12.302L20.579,16.286M23.068,10.799C24.071,10.799 24.802,11.114 25.261,11.744C25.721,12.374 25.859,13.253 25.676,14.381C25.6,14.846 25.473,15.271 25.293,15.656C25.113,16.042 24.878,16.394 24.588,16.713C24.242,17.101 23.858,17.377 23.435,17.542C23.012,17.707 22.473,17.789 21.819,17.789L20.335,17.789L19.924,20.32L18.191,20.32L19.737,10.799L23.068,10.799" style="fill:white;fill-rule:nonzero;"/>
                </g>
            </g>
        </g>
    </g>
    <rect id="outer" x="0" y="-0.5" width="30" height="30" style="fill:none;"/>
    <defs>
        <radialGradient id="_Radial2" cx="0" cy="0" r="1" gradientUnits="userSpaceOnUse" gradientTransform="matrix(19.8101,-4.78186e-16,-4.78186e-16,23.7148,8.97169,8.83991)"><stop offset="0" style="stop-color:rgb(174,178,213);stop-opacity:1"/><stop offset="0.3" style="stop-color:rgb(174,178,213);stop-opacity:1"/><stop offset="0.75" style="stop-color:rgb(72,76,137);stop-opacity:1"/><stop offset="1" style="stop-color:rgb(72,76,137);stop-opacity:1"/></radialGradient>
    </defs>
</svg>
