<?xml version="1.0" encoding="UTF-8" standalone="no"?><!DOCTYPE svg PUBLIC "-//W3C//DTD SVG 1.1//EN" "http://www.w3.org/Graphics/SVG/1.1/DTD/svg11.dtd"><svg width="100%" height="100%" viewBox="0 0 30 30" version="1.1" xmlns="http://www.w3.org/2000/svg" xmlns:xlink="http://www.w3.org/1999/xlink" xml:space="preserve" xmlns:serif="http://www.serif.com/" style="fill-rule:evenodd;clip-rule:evenodd;stroke-linecap:round;stroke-linejoin:round;"><g id="page" transform="matrix(0.734642,0,0,0.713743,-4.39504,-2.11655)"><g id="g2679"><g id="rect15391" transform="matrix(1.00358,0,0,1.00194,-0.12722,-0.153534)"><rect x="6.604" y="3.646" width="34.875" height="40.92" style="fill:url(#_Radial1);stroke:url(#_Radial2);stroke-width:1px;"/></g><g id="rect15660" transform="matrix(1.00358,0,0,1.00194,-0.12722,-0.153534)"><rect x="7.666" y="4.584" width="32.776" height="38.946" style="fill:none;stroke:url(#_Radial3);stroke-width:1px;"/></g><g id="g2270" transform="matrix(1,0,0,1,0.646447,-0.0379893)"><g id="g1440" transform="matrix(0.229703,0,0,0.229703,4.96708,4.24497)"><path id="path1448" d="M23.428,113.07c0,1.973 -1.6,3.572 -3.573,3.572c-1.974,-0 -3.573,-1.6 -3.573,-3.572c0,-1.974 1.6,-3.573 3.573,-3.573c1.973,-0 3.573,1.6 3.573,3.573Z" style="fill:#fff;fill-rule:nonzero;"/><path id="path1456" d="M23.428,63.07c0,1.973 -1.6,3.573 -3.573,3.573c-1.974,0 -3.573,-1.6 -3.573,-3.573c0,-1.974 1.6,-3.573 3.573,-3.573c1.973,0 3.573,1.6 3.573,3.573Z" style="fill:#fff;fill-rule:nonzero;"/></g><path id="path15570" d="M9.995,29.952c0,0.454 -0.368,0.821 -0.821,0.821c-0.453,-0 -0.82,-0.368 -0.82,-0.821c-0,-0.453 0.367,-0.82 0.82,-0.82c0.453,-0 0.821,0.367 0.821,0.82Z" style="fill:url(#_Radial4);fill-rule:nonzero;"/><path id="path15577" d="M9.995,18.467c0,0.453 -0.368,0.821 -0.821,0.821c-0.453,-0 -0.82,-0.368 -0.82,-0.821c-0,-0.453 0.367,-0.821 0.82,-0.821c0.453,0 0.821,0.368 0.821,0.821Z" style="fill:url(#_Radial5);fill-rule:nonzero;"/></g><path id="path15674" d="M12.5,5.021l0,38.017" style="fill:none;stroke:#fff;stroke-opacity:0.2;stroke-width:1px;stroke-linecap:butt;stroke-linejoin:miter;"/><g id="g2253" transform="matrix(0.909091,0,0,1,2.36363,0)"><rect id="rect15686" x="15" y="9" width="22" height="1" style="fill:#9b9b9b;fill-opacity:0.55;"/><rect id="rect15688" x="15" y="11" width="22" height="1" style="fill:#9b9b9b;fill-opacity:0.55;"/><rect id="rect15690" x="15" y="13" width="22" height="1" style="fill:#9b9b9b;fill-opacity:0.55;"/><rect id="rect15692" x="15" y="15" width="22" height="1" style="fill:#9b9b9b;fill-opacity:0.55;"/><rect id="rect15694" x="15" y="17" width="22" height="1" style="fill:#9b9b9b;fill-opacity:0.55;"/><rect id="rect15696" x="15" y="19" width="22" height="1" style="fill:#9b9b9b;fill-opacity:0.55;"/><rect id="rect15698" x="15" y="21" width="22" height="1" style="fill:#9b9b9b;fill-opacity:0.55;"/><rect id="rect15700" x="15" y="23" width="22" height="1" style="fill:#9b9b9b;fill-opacity:0.55;"/><rect id="rect15732" x="15" y="25" width="9.9" height="1" style="fill:#9b9b9b;fill-opacity:0.55;"/><rect id="rect15736" x="15" y="29" width="22" height="1" style="fill:#9b9b9b;fill-opacity:0.55;"/><rect id="rect15738" x="15" y="31" width="22" height="1" style="fill:#9b9b9b;fill-opacity:0.55;"/><rect id="rect15740" x="15" y="33" width="22" height="1" style="fill:#9b9b9b;fill-opacity:0.55;"/><rect id="rect15742" x="15" y="35" width="22" height="1" style="fill:#9b9b9b;fill-opacity:0.55;"/><rect id="rect15744" x="15" y="37" width="15.4" height="1" style="fill:#9b9b9b;fill-opacity:0.55;"/></g></g></g><g id="popup" transform="matrix(0.944679,0,0,1.12565,-65.7179,4.16724)"><g id="rect15391-8" transform="matrix(1,0,0,1,63.2542,-27.2542)"><rect x="13.592" y="26.448" width="24.477" height="13.612" style="fill:url(#_Radial6);stroke:#000;stroke-width:0.31px;"/></g><g id="lines"><g id="rect15736-7" transform="matrix(0.909091,0,0,1,65.6179,-27.2542)"><rect x="15" y="29" width="22" height="1" style="fill:#808080;fill-opacity:0.55;"/></g><g id="rect15738-3" transform="matrix(0.909091,0,0,1,65.6179,-27.2542)"><rect x="15" y="31" width="22" height="1" style="fill:#808080;fill-opacity:0.55;"/></g><g id="rect15740-0" transform="matrix(0.909091,0,0,1,65.6179,-27.2542)"><rect x="15" y="33" width="22" height="1" style="fill:#808080;fill-opacity:0.55;"/></g><g id="rect15742-3" transform="matrix(0.909091,0,0,1,65.6179,-27.2542)"><rect x="15" y="35" width="22" height="1" style="fill:#808080;fill-opacity:0.55;"/></g><g id="rect15744-6" transform="matrix(0.909091,0,0,1,65.6179,-27.2542)"><rect x="15" y="37" width="15.4" height="1" style="fill:#808080;fill-opacity:0.55;"/></g></g></g><defs><radialGradient id="_Radial1" cx="0" cy="0" r="1" gradientUnits="userSpaceOnUse" gradientTransform="matrix(83.2829,0,0,90.2749,32.6248,37.2068)"><stop offset="0" style="stop-color:#fafafa;stop-opacity:1"/><stop offset="1" style="stop-color:#bbb;stop-opacity:1"/></radialGradient><radialGradient id="_Radial2" cx="0" cy="0" r="1" gradientUnits="userSpaceOnUse" gradientTransform="matrix(36.554,0,0,38.9887,11.898,4.52565)"><stop offset="0" style="stop-color:#a3a3a3;stop-opacity:1"/><stop offset="1" style="stop-color:#4c4c4c;stop-opacity:1"/></radialGradient><radialGradient id="_Radial3" cx="0" cy="0" r="1" gradientUnits="userSpaceOnUse" gradientTransform="matrix(36.948,0,0,39.409,11.2387,8.15249)"><stop offset="0" style="stop-color:#fff;stop-opacity:1"/><stop offset="1" style="stop-color:#f8f8f8;stop-opacity:1"/></radialGradient><radialGradient id="_Radial4" cx="0" cy="0" r="1" gradientUnits="userSpaceOnUse" gradientTransform="matrix(1.20732,0,0,1.20732,9.41251,30.2965)"><stop offset="0" style="stop-color:#f0f0f0;stop-opacity:1"/><stop offset="1" style="stop-color:#9a9a9a;stop-opacity:1"/></radialGradient><radialGradient id="_Radial5" cx="0" cy="0" r="1" gradientUnits="userSpaceOnUse" gradientTransform="matrix(1.20755,0,0,1.20755,9.41251,18.8112)"><stop offset="0" style="stop-color:#f0f0f0;stop-opacity:1"/><stop offset="1" style="stop-color:#9a9a9a;stop-opacity:1"/></radialGradient><radialGradient id="_Radial6" cx="0" cy="0" r="1" gradientUnits="userSpaceOnUse" gradientTransform="matrix(58.4519,0,0,30.0285,31.855,37.6118)"><stop offset="0" style="stop-color:#fafa7a;stop-opacity:1"/><stop offset="1" style="stop-color:#f7f536;stop-opacity:1"/></radialGradient></defs></svg>