<?xml version="1.0" encoding="UTF-8" standalone="no"?>
<!DOCTYPE svg PUBLIC "-//W3C//DTD SVG 1.1//EN" "http://www.w3.org/Graphics/SVG/1.1/DTD/svg11.dtd">
<svg width="30px" height="30px" version="1.1" xmlns="http://www.w3.org/2000/svg" xmlns:xlink="http://www.w3.org/1999/xlink" xml:space="preserve" xmlns:serif="http://www.serif.com/" style="fill-rule:evenodd;clip-rule:evenodd;stroke-linejoin:round;stroke-miterlimit:2;">
    <g>
        <rect x="6.25" y="9.255" width="2.083" height="1.596" style="fill:white;"/>
        <rect x="6.25" y="13.723" width="2.083" height="1.596" style="fill:white;"/>
        <rect x="6.25" y="18.191" width="2.083" height="1.596" style="fill:white;"/>
        <rect x="6.25" y="22.66" width="2.083" height="1.596" style="fill:white;"/>
        <path d="M20.833,23.457C20.833,23.193 21.113,22.979 21.458,22.979L28.75,22.979L28.75,0.957L1.25,0.957L1.25,29.043L20.833,29.043L20.833,23.457ZM24.375,19.468L11.458,19.468C11.113,19.468 10.833,19.254 10.833,18.989C10.833,18.725 11.113,18.511 11.458,18.511L24.375,18.511C24.72,18.511 25,18.725 25,18.989C25,19.254 24.72,19.468 24.375,19.468ZM24.375,15L11.458,15C11.113,15 10.833,14.786 10.833,14.521C10.833,14.257 11.113,14.043 11.458,14.043L24.375,14.043C24.72,14.043 25,14.257 25,14.521C25,14.786 24.72,15 24.375,15ZM12.393,5.106L24.375,5.106C24.72,5.106 25,5.321 25,5.585C25,5.85 24.72,6.064 24.375,6.064L12.393,6.064C12.048,6.064 11.768,5.85 11.768,5.585C11.768,5.321 12.048,5.106 12.393,5.106ZM24.375,9.574C24.72,9.574 25,9.789 25,10.053C25,10.318 24.72,10.532 24.375,10.532L11.458,10.532C11.113,10.532 10.833,10.318 10.833,10.053C10.833,9.789 11.113,9.574 11.458,9.574L24.375,9.574ZM5.6,5.566C5.844,5.379 6.24,5.379 6.484,5.566L7.292,6.185L10.183,3.97C10.427,3.783 10.823,3.783 11.067,3.97C11.311,4.157 11.311,4.46 11.067,4.647L7.734,7.2C7.612,7.294 7.452,7.34 7.292,7.34C7.132,7.34 6.972,7.294 6.85,7.2L5.6,6.243C5.356,6.056 5.356,5.753 5.6,5.566ZM9.583,24.734C9.583,24.998 9.304,25.213 8.958,25.213L5.625,25.213C5.28,25.213 5,24.998 5,24.734L5,22.181C5,21.916 5.28,21.702 5.625,21.702L8.958,21.702C9.304,21.702 9.583,21.916 9.583,22.181L9.583,24.734ZM9.583,20.266C9.583,20.53 9.304,20.745 8.958,20.745L5.625,20.745C5.28,20.745 5,20.53 5,20.266L5,17.713C5,17.448 5.28,17.234 5.625,17.234L8.958,17.234C9.304,17.234 9.583,17.448 9.583,17.713L9.583,20.266ZM9.583,15.798C9.583,16.062 9.304,16.277 8.958,16.277L5.625,16.277C5.28,16.277 5,16.062 5,15.798L5,13.245C5,12.98 5.28,12.766 5.625,12.766L8.958,12.766C9.304,12.766 9.583,12.98 9.583,13.245L9.583,15.798ZM9.583,11.33C9.583,11.594 9.304,11.809 8.958,11.809L5.625,11.809C5.28,11.809 5,11.594 5,11.33L5,8.777C5,8.512 5.28,8.298 5.625,8.298L8.958,8.298C9.304,8.298 9.583,8.512 9.583,8.777L9.583,11.33ZM18.958,23.936L11.458,23.936C11.113,23.936 10.833,23.722 10.833,23.457C10.833,23.193 11.113,22.979 11.458,22.979L18.958,22.979C19.304,22.979 19.583,23.193 19.583,23.457C19.583,23.722 19.304,23.936 18.958,23.936Z" style="fill:white;fill-rule:nonzero;"/>
        <path d="M22.083,23.936L22.083,28.366L27.866,23.936L22.083,23.936Z" style="fill:rgb(255,204,117);fill-rule:nonzero;"/>
        <path d="M29.867,23.752C29.877,23.743 29.886,23.733 29.895,23.724C29.897,23.721 29.899,23.718 29.901,23.715C29.91,23.705 29.918,23.694 29.926,23.683C29.927,23.681 29.928,23.679 29.93,23.677C29.938,23.665 29.945,23.653 29.952,23.641C29.953,23.64 29.953,23.638 29.954,23.637C29.961,23.624 29.967,23.611 29.973,23.597C29.973,23.595 29.974,23.594 29.974,23.592C29.98,23.579 29.984,23.565 29.988,23.552C29.989,23.548 29.989,23.544 29.99,23.54C29.993,23.528 29.995,23.517 29.997,23.505C29.999,23.489 30,23.473 30,23.457L30,0.479C30,0.214 29.72,0 29.375,0L0.625,0C0.28,0 0,0.214 0,0.479L0,29.521C0,29.786 0.28,30 0.625,30L21.458,30C21.479,30 21.5,29.999 21.521,29.998C21.536,29.996 21.551,29.994 21.567,29.992C21.571,29.992 21.576,29.991 21.581,29.991C21.599,29.988 21.617,29.984 21.634,29.981C21.636,29.98 21.638,29.98 21.641,29.979C21.658,29.975 21.675,29.97 21.691,29.965C21.694,29.965 21.696,29.964 21.698,29.963C21.714,29.958 21.729,29.953 21.744,29.947C21.747,29.946 21.75,29.945 21.753,29.943C21.767,29.938 21.78,29.931 21.793,29.925C21.798,29.923 21.802,29.921 21.806,29.919C21.818,29.913 21.83,29.906 21.841,29.899C21.846,29.896 21.851,29.894 21.855,29.891C21.869,29.882 21.883,29.873 21.896,29.863C21.897,29.862 21.899,29.861 21.9,29.86L29.817,23.796C29.818,23.795 29.819,23.794 29.821,23.793C29.834,23.783 29.846,23.772 29.858,23.761C29.861,23.758 29.864,23.755 29.867,23.752ZM1.25,0.957L28.75,0.957L28.75,22.979L21.458,22.979C21.113,22.979 20.833,23.193 20.833,23.457L20.833,29.043L1.25,29.043L1.25,0.957ZM22.083,23.936L27.866,23.936L22.083,28.366L22.083,23.936Z" style="fill:rgb(8,41,71);fill-rule:nonzero;"/>
        <path d="M12.393,6.064L24.375,6.064C24.72,6.064 25,5.85 25,5.585C25,5.321 24.72,5.106 24.375,5.106L12.393,5.106C12.048,5.106 11.768,5.321 11.768,5.585C11.768,5.85 12.048,6.064 12.393,6.064Z" style="fill:rgb(8,41,71);fill-rule:nonzero;"/>
        <path d="M6.85,7.2C6.972,7.294 7.132,7.34 7.292,7.34C7.452,7.34 7.612,7.294 7.734,7.2L11.067,4.647C11.311,4.46 11.311,4.157 11.067,3.97C10.823,3.783 10.427,3.783 10.183,3.97L7.292,6.185L6.484,5.566C6.24,5.379 5.844,5.379 5.6,5.566C5.356,5.753 5.356,6.056 5.6,6.243L6.85,7.2Z" style="fill:rgb(8,41,71);fill-rule:nonzero;"/>
        <path d="M10.833,10.053C10.833,10.318 11.113,10.532 11.458,10.532L24.375,10.532C24.72,10.532 25,10.318 25,10.053C25,9.789 24.72,9.574 24.375,9.574L11.458,9.574C11.113,9.574 10.833,9.789 10.833,10.053Z" style="fill:rgb(8,41,71);fill-rule:nonzero;"/>
        <path d="M8.958,8.298L5.625,8.298C5.28,8.298 5,8.512 5,8.777L5,11.33C5,11.594 5.28,11.809 5.625,11.809L8.958,11.809C9.304,11.809 9.583,11.594 9.583,11.33L9.583,8.777C9.583,8.512 9.304,8.298 8.958,8.298ZM8.333,10.851L6.25,10.851L6.25,9.255L8.333,9.255L8.333,10.851Z" style="fill:rgb(8,41,71);fill-rule:nonzero;"/>
        <path d="M24.375,14.043L11.458,14.043C11.113,14.043 10.833,14.257 10.833,14.521C10.833,14.786 11.113,15 11.458,15L24.375,15C24.72,15 25,14.786 25,14.521C25,14.257 24.72,14.043 24.375,14.043Z" style="fill:rgb(8,41,71);fill-rule:nonzero;"/>
        <path d="M8.958,12.766L5.625,12.766C5.28,12.766 5,12.98 5,13.245L5,15.798C5,16.062 5.28,16.277 5.625,16.277L8.958,16.277C9.304,16.277 9.583,16.062 9.583,15.798L9.583,13.245C9.583,12.98 9.304,12.766 8.958,12.766ZM8.333,15.319L6.25,15.319L6.25,13.723L8.333,13.723L8.333,15.319Z" style="fill:rgb(8,41,71);fill-rule:nonzero;"/>
        <path d="M24.375,18.511L11.458,18.511C11.113,18.511 10.833,18.725 10.833,18.989C10.833,19.254 11.113,19.468 11.458,19.468L24.375,19.468C24.72,19.468 25,19.254 25,18.989C25,18.725 24.72,18.511 24.375,18.511Z" style="fill:rgb(8,41,71);fill-rule:nonzero;"/>
        <path d="M8.958,17.234L5.625,17.234C5.28,17.234 5,17.448 5,17.713L5,20.266C5,20.53 5.28,20.745 5.625,20.745L8.958,20.745C9.304,20.745 9.583,20.53 9.583,20.266L9.583,17.713C9.583,17.448 9.304,17.234 8.958,17.234ZM8.333,19.787L6.25,19.787L6.25,18.191L8.333,18.191L8.333,19.787Z" style="fill:rgb(8,41,71);fill-rule:nonzero;"/>
        <path d="M18.958,22.979L11.458,22.979C11.113,22.979 10.833,23.193 10.833,23.457C10.833,23.722 11.113,23.936 11.458,23.936L18.958,23.936C19.304,23.936 19.583,23.722 19.583,23.457C19.583,23.193 19.304,22.979 18.958,22.979Z" style="fill:rgb(8,41,71);fill-rule:nonzero;"/>
        <path d="M8.958,21.702L5.625,21.702C5.28,21.702 5,21.916 5,22.181L5,24.734C5,24.998 5.28,25.213 5.625,25.213L8.958,25.213C9.304,25.213 9.583,24.998 9.583,24.734L9.583,22.181C9.583,21.916 9.304,21.702 8.958,21.702ZM8.333,24.255L6.25,24.255L6.25,22.66L8.333,22.66L8.333,24.255Z" style="fill:rgb(8,41,71);fill-rule:nonzero;"/>
    </g>
</svg>
