<?xml version="1.0" encoding="UTF-8" standalone="no"?>
<!DOCTYPE svg PUBLIC "-//W3C//DTD SVG 1.1//EN" "http://www.w3.org/Graphics/SVG/1.1/DTD/svg11.dtd">
<svg width="30px" height="30px" version="1.1" xmlns="http://www.w3.org/2000/svg" xmlns:xlink="http://www.w3.org/1999/xlink" xml:space="preserve" xmlns:serif="http://www.serif.com/" style="fill-rule:evenodd;clip-rule:evenodd;">
    <g id="Layer-1" serif:id="Layer 1">
        <g id="yellow-folder" serif:id="yellow folder">
            <path id="path7776" d="M22.175,3.121C22.17,2.759 21.801,2.396 21.449,2.396L10.572,2.396L9.302,1.308C9.172,1.183 8.943,0.946 8.759,0.946L3.32,0.946C2.948,0.946 2.595,1.316 2.595,1.671L2.595,17.625L22.175,17.625L22.175,3.121Z" style="fill:rgb(238,238,236);fill-opacity:0.7;fill-rule:nonzero;stroke:url(#_Linear1);stroke-width:0.73px;"/>
            <path id="path7778" d="M21.449,3.484C21.456,3.091 21.448,3.098 21.087,3.121L10.282,3.121L9.049,2.033C8.7,1.736 8.651,1.641 8.033,1.671L3.682,1.671C3.337,1.671 3.32,1.701 3.32,2.033L3.32,16.9L21.449,16.9L21.449,3.484Z" style="fill:none;fill-rule:nonzero;stroke:url(#_Linear2);stroke-width:0.73px;"/>
            <path id="path7780" d="M23.078,17.262C23.063,17.546 22.825,17.625 22.534,17.625L2.235,17.625C1.944,17.625 1.706,17.546 1.69,17.262L1.147,4.934C1.126,4.652 1.219,4.572 1.51,4.572L23.26,4.572C23.55,4.572 23.644,4.652 23.622,4.934L23.078,17.262Z" style="fill:url(#_Linear3);fill-rule:nonzero;stroke:url(#_Linear4);stroke-width:0.73px;"/>
            <rect id="rect7784" x="1.507" y="4.934" width="21.756" height="0.725" style="fill:url(#_Linear5);"/>
        </g>
        <g>
            <g>
                <path d="M6.602,9.915L9.807,9.915C10.514,9.915 11.083,10.484 11.083,11.191L11.083,14.396C11.083,15.103 10.514,15.672 9.807,15.672L6.602,15.672C5.895,15.672 5.326,15.103 5.326,14.396L5.326,11.191C5.326,10.484 5.895,9.915 6.602,9.915Z" style="fill:url(#_Linear6);fill-rule:nonzero;"/>
                <path d="M9.847,12.074C8.45,12.089 8.068,13.706 6.827,13.722C6.291,13.729 5.833,13.361 5.326,12.925L5.326,14.412C5.326,15.11 5.895,15.672 6.603,15.672L9.807,15.672C10.515,15.672 11.083,15.11 11.083,14.412L11.083,12.389C10.737,12.199 10.336,12.069 9.847,12.074Z" style="fill:rgb(255,0,0);fill-opacity:0.25;"/>
                <rect x="6.045" y="10.634" width="0.95" height="4.318" style="fill:url(#_Linear7);"/>
                <path d="M6.606,10.097L9.807,10.097C10.415,10.097 10.901,10.583 10.901,11.191L10.901,14.396C10.901,15.005 10.415,15.49 9.807,15.49L6.602,15.49C5.994,15.49 5.508,15.005 5.508,14.396L5.508,11.19C5.508,10.582 5.998,10.097 6.606,10.097Z" style="fill:none;fill-rule:nonzero;stroke:rgb(128,0,0);stroke-opacity:0.5;stroke-width:0.36px;stroke-linejoin:round;stroke-miterlimit:20;"/>
            </g>
            <g>
                <path d="M10.345,6.172L13.549,6.172C14.256,6.172 14.826,6.742 14.826,7.449L14.826,10.654C14.826,11.361 14.256,11.93 13.549,11.93L10.345,11.93C9.637,11.93 9.068,11.361 9.068,10.654L9.068,7.449C9.068,6.742 9.637,6.172 10.345,6.172Z" style="fill:url(#_Linear8);fill-rule:nonzero;"/>
                <path d="M13.59,8.332C12.192,8.347 11.811,9.964 10.57,9.98C10.033,9.987 9.576,9.618 9.068,9.182L9.068,10.669C9.068,11.367 9.638,11.93 10.345,11.93L13.55,11.93C14.257,11.93 14.826,11.367 14.826,10.669L14.826,8.647C14.479,8.457 14.078,8.326 13.59,8.332Z" style="fill:rgb(0,0,255);fill-opacity:0.25;"/>
                <rect x="9.788" y="6.892" width="0.95" height="4.318" style="fill:url(#_Linear9);"/>
                <path d="M10.348,6.355L13.549,6.355C14.157,6.355 14.643,6.841 14.643,7.449L14.643,10.654C14.643,11.262 14.157,11.747 13.549,11.747L10.345,11.747C9.736,11.747 9.251,11.262 9.251,10.654L9.251,7.448C9.251,6.84 9.74,6.355 10.348,6.355Z" style="fill:none;fill-rule:nonzero;stroke:rgb(0,0,128);stroke-opacity:0.5;stroke-width:0.36px;stroke-linejoin:round;stroke-miterlimit:20;"/>
            </g>
            <g>
                <path d="M14.519,8.907L17.724,8.907C18.431,8.907 19,9.477 19,10.184L19,13.388C19,14.096 18.431,14.665 17.724,14.665L14.519,14.665C13.812,14.665 13.242,14.096 13.242,13.388L13.242,10.184C13.242,9.477 13.812,8.907 14.519,8.907Z" style="fill:url(#_Linear10);fill-rule:nonzero;"/>
                <path d="M17.764,11.066C16.367,11.082 15.985,12.699 14.744,12.715C14.208,12.722 13.75,12.353 13.242,11.917L13.242,13.404C13.242,14.102 13.812,14.665 14.519,14.665L17.724,14.665C18.431,14.665 19,14.102 19,13.404L19,11.382C18.654,11.191 18.252,11.061 17.764,11.066Z" style="fill:rgb(192,192,0);fill-opacity:0.25;"/>
                <rect x="13.962" y="9.627" width="0.95" height="4.318" style="fill:url(#_Linear11);"/>
                <path d="M14.523,9.09L17.724,9.09C18.332,9.09 18.817,9.576 18.817,10.184L18.817,13.389C18.817,13.997 18.332,14.482 17.724,14.482L14.519,14.482C13.91,14.482 13.425,13.997 13.425,13.389L13.425,10.183C13.425,9.575 13.914,9.09 14.523,9.09Z" style="fill:none;fill-rule:nonzero;stroke:rgb(128,128,0);stroke-opacity:0.5;stroke-width:0.36px;stroke-linejoin:round;stroke-miterlimit:20;"/>
            </g>
        </g>
        <g id="blue-folder" serif:id="blue folder">
            <path id="path15" d="M27.703,14.581C27.698,14.214 27.325,13.846 26.968,13.846L15.936,13.846L14.648,12.743C14.516,12.615 14.285,12.375 14.097,12.375L8.581,12.375C8.205,12.375 7.846,12.751 7.846,13.11L7.846,29.29L27.703,29.29L27.703,14.581Z" style="fill:rgb(238,238,236);fill-rule:nonzero;stroke:url(#_Linear12);stroke-width:0.75px;"/>
            <path id="path7263" d="M26.968,14.949C26.975,14.551 26.967,14.558 26.6,14.581L15.642,14.581L14.391,13.478C14.037,13.176 13.988,13.08 13.362,13.11L8.949,13.11C8.599,13.11 8.581,13.141 8.581,13.478L8.581,28.555L26.968,28.555L26.968,14.949Z" style="fill:none;fill-rule:nonzero;stroke:url(#_Linear13);stroke-width:0.74px;"/>
            <path id="path40085" d="M28.619,28.592C28.604,28.872 28.363,28.951 28.068,28.951L7.481,28.951C7.186,28.951 6.945,28.872 6.929,28.592L6.378,16.411C6.356,16.132 6.451,16.052 6.746,16.052L28.803,16.052C29.098,16.052 29.194,16.132 29.171,16.411L28.619,28.592Z" style="fill:url(#_Linear14);fill-rule:nonzero;stroke:url(#_Linear15);stroke-width:0.73px;"/>
            <path id="path50" d="M8.214,14.949C8.215,15.164 8.217,15.409 8.219,15.685L27.331,15.685C27.333,15.409 27.335,15.164 27.335,14.949L8.214,14.949Z" style="fill:url(#_Linear16);fill-rule:nonzero;"/>
            <rect id="rect3521-5-0" x="6.743" y="16.42" width="22.064" height="0.735" style="fill:url(#_Linear17);"/>
        </g>
    </g>
    <g>
        <g>
            <path d="M12.776,21.742L15.981,21.742C16.688,21.742 17.258,22.312 17.258,23.019L17.258,26.224C17.258,26.931 16.688,27.5 15.981,27.5L12.776,27.5C12.069,27.5 11.5,26.931 11.5,26.224L11.5,23.019C11.5,22.312 12.069,21.742 12.776,21.742Z" style="fill:url(#_Linear18);fill-rule:nonzero;"/>
            <path d="M16.021,23.902C14.624,23.917 14.242,25.534 13.001,25.55C12.465,25.556 12.007,25.189 11.5,24.752L11.5,26.239C11.5,26.938 12.07,27.5 12.777,27.5L15.982,27.5C16.689,27.5 17.258,26.938 17.258,26.239L17.258,24.217C16.911,24.027 16.51,23.896 16.021,23.902Z" style="fill:rgb(255,0,0);fill-opacity:0.25;"/>
            <rect x="12.22" y="22.462" width="0.95" height="4.318" style="fill:url(#_Linear19);"/>
            <path d="M12.78,21.925L15.981,21.925C16.59,21.925 17.075,22.411 17.075,23.019L17.075,26.224C17.075,26.832 16.59,27.317 15.981,27.317L12.776,27.317C12.168,27.317 11.683,26.832 11.683,26.224L11.683,23.018C11.683,22.41 12.172,21.925 12.78,21.925Z" style="fill:none;fill-rule:nonzero;stroke:rgb(128,0,0);stroke-opacity:0.5;stroke-width:0.36px;stroke-linejoin:round;stroke-miterlimit:20;"/>
        </g>
        <g>
            <path d="M16.519,18L19.724,18C20.431,18 21,18.569 21,19.276L21,22.481C21,23.188 20.431,23.758 19.724,23.758L16.519,23.758C15.812,23.758 15.243,23.188 15.243,22.481L15.243,19.276C15.243,18.569 15.812,18 16.519,18Z" style="fill:url(#_Linear20);fill-rule:nonzero;"/>
            <path d="M19.764,20.159C18.367,20.174 17.985,21.791 16.744,21.807C16.208,21.814 15.75,21.446 15.243,21.01L15.243,22.497C15.243,23.195 15.812,23.758 16.519,23.758L19.724,23.758C20.431,23.758 21,23.195 21,22.497L21,20.475C20.654,20.284 20.252,20.154 19.764,20.159Z" style="fill:rgb(0,0,255);fill-opacity:0.25;"/>
            <rect x="15.962" y="18.72" width="0.95" height="4.318" style="fill:url(#_Linear21);"/>
            <path d="M16.523,18.183L19.724,18.183C20.332,18.183 20.817,18.669 20.817,19.277L20.817,22.482C20.817,23.09 20.332,23.575 19.724,23.575L16.519,23.575C15.91,23.575 15.425,23.09 15.425,22.482L15.425,19.276C15.425,18.667 15.914,18.183 16.523,18.183Z" style="fill:none;fill-rule:nonzero;stroke:rgb(0,0,128);stroke-opacity:0.5;stroke-width:0.36px;stroke-linejoin:round;stroke-miterlimit:20;"/>
        </g>
        <g>
            <path d="M20.693,20.735L23.898,20.735C24.605,20.735 25.174,21.304 25.174,22.011L25.174,25.216C25.174,25.923 24.605,26.493 23.898,26.493L20.693,26.493C19.986,26.493 19.417,25.923 19.417,25.216L19.417,22.011C19.417,21.304 19.986,20.735 20.693,20.735Z" style="fill:url(#_Linear22);fill-rule:nonzero;"/>
            <path d="M23.938,22.894C22.541,22.909 22.159,24.526 20.918,24.542C20.382,24.549 19.924,24.181 19.417,23.745L19.417,25.232C19.417,25.93 19.987,26.493 20.694,26.493L23.898,26.493C24.605,26.493 25.174,25.93 25.174,25.232L25.174,23.209C24.828,23.019 24.427,22.889 23.938,22.894Z" style="fill:rgb(192,192,0);fill-opacity:0.25;"/>
            <rect x="20.136" y="21.455" width="0.95" height="4.318" style="fill:url(#_Linear23);"/>
            <path d="M20.697,20.918L23.898,20.918C24.506,20.918 24.992,21.404 24.992,22.012L24.992,25.216C24.992,25.825 24.506,26.31 23.898,26.31L20.693,26.31C20.085,26.31 19.599,25.824 19.599,25.216L19.599,22.011C19.599,21.402 20.088,20.918 20.697,20.918Z" style="fill:none;fill-rule:nonzero;stroke:rgb(128,128,0);stroke-opacity:0.5;stroke-width:0.36px;stroke-linejoin:round;stroke-miterlimit:20;"/>
        </g>
    </g>
    <rect id="outer" x="0" y="0" width="30" height="30" style="fill:none;"/>
    <defs>
        <linearGradient id="_Linear1" x1="0" y1="0" x2="1" y2="0" gradientUnits="userSpaceOnUse" gradientTransform="matrix(0.0228983,10.8559,-10.8559,0.0228983,11.6591,0.594046)"><stop offset="0" style="stop-color:rgb(45,46,47);stop-opacity:0.36"/><stop offset="0.35" style="stop-color:rgb(79,81,78);stop-opacity:0.36"/><stop offset="1" style="stop-color:rgb(85,87,83);stop-opacity:0.36"/></linearGradient>
        <linearGradient id="_Linear2" x1="0" y1="0" x2="1" y2="0" gradientUnits="userSpaceOnUse" gradientTransform="matrix(-0.000682643,13.7902,-13.7902,-0.000682643,11.6598,1.30291)"><stop offset="0" style="stop-color:white;stop-opacity:0.42"/><stop offset="1" style="stop-color:white;stop-opacity:0"/></linearGradient>
        <linearGradient id="_Linear3" x1="0" y1="0" x2="1" y2="0" gradientUnits="userSpaceOnUse" gradientTransform="matrix(-0.000119221,14.5067,-14.5067,-0.000119221,12.3846,3.48098)"><stop offset="0" style="stop-color:rgb(255,208,87);stop-opacity:0.7"/><stop offset="0.46" style="stop-color:rgb(235,203,114);stop-opacity:0.7"/><stop offset="1" style="stop-color:rgb(186,189,182);stop-opacity:0.7"/></linearGradient>
        <linearGradient id="_Linear4" x1="0" y1="0" x2="1" y2="0" gradientUnits="userSpaceOnUse" gradientTransform="matrix(-1.44998e-05,13.7787,-13.7787,-1.44998e-05,13.1095,4.20896)"><stop offset="0" style="stop-color:rgb(136,138,133);stop-opacity:0.88"/><stop offset="1" style="stop-color:rgb(85,87,83);stop-opacity:0.88"/></linearGradient>
        <linearGradient id="_Linear5" x1="0" y1="0" x2="1" y2="0" gradientUnits="userSpaceOnUse" gradientTransform="matrix(28.2636,-0.100719,0.100719,28.2636,-0.523879,5.41765)"><stop offset="0" style="stop-color:rgb(254,235,214);stop-opacity:0"/><stop offset="0" style="stop-color:rgb(254,235,214);stop-opacity:0"/><stop offset="0.46" style="stop-color:rgb(245,245,245);stop-opacity:0.37"/><stop offset="1" style="stop-color:rgb(245,245,245);stop-opacity:0"/></linearGradient>
        <linearGradient id="_Linear6" x1="0" y1="0" x2="1" y2="0" gradientUnits="userSpaceOnUse" gradientTransform="matrix(-2.91035,-5.75761,5.75761,-2.91035,9.67308,15.6724)"><stop offset="0" style="stop-color:rgb(255,0,0);stop-opacity:1"/><stop offset="1" style="stop-color:rgb(255,224,224);stop-opacity:1"/></linearGradient>
        <linearGradient id="_Linear7" x1="0" y1="0" x2="1" y2="0" gradientUnits="userSpaceOnUse" gradientTransform="matrix(1.3084,0,0,1.3084,5.94865,12.9432)"><stop offset="0" style="stop-color:white;stop-opacity:1"/><stop offset="1" style="stop-color:white;stop-opacity:0"/></linearGradient>
        <linearGradient id="_Linear8" x1="0" y1="0" x2="1" y2="0" gradientUnits="userSpaceOnUse" gradientTransform="matrix(-2.89434,-5.75757,5.75757,-2.89434,13.191,11.853)"><stop offset="0" style="stop-color:rgb(0,0,255);stop-opacity:1"/><stop offset="1" style="stop-color:rgb(224,224,255);stop-opacity:1"/></linearGradient>
        <linearGradient id="_Linear9" x1="0" y1="0" x2="1" y2="0" gradientUnits="userSpaceOnUse" gradientTransform="matrix(1.30526,0,0,1.30526,9.69423,9.20076)"><stop offset="0" style="stop-color:white;stop-opacity:1"/><stop offset="1" style="stop-color:white;stop-opacity:0"/></linearGradient>
        <linearGradient id="_Linear10" x1="0" y1="0" x2="1" y2="0" gradientUnits="userSpaceOnUse" gradientTransform="matrix(2.90763,5.75757,-5.75757,2.90763,14.4778,8.83028)"><stop offset="0" style="stop-color:rgb(255,255,224);stop-opacity:1"/><stop offset="1" style="stop-color:rgb(255,255,0);stop-opacity:1"/></linearGradient>
        <linearGradient id="_Linear11" x1="0" y1="0" x2="1" y2="0" gradientUnits="userSpaceOnUse" gradientTransform="matrix(1.30839,0,0,1.30839,13.8653,11.9356)"><stop offset="0" style="stop-color:white;stop-opacity:1"/><stop offset="1" style="stop-color:white;stop-opacity:0"/></linearGradient>
        <linearGradient id="_Linear12" x1="0" y1="0" x2="1" y2="0" gradientUnits="userSpaceOnUse" gradientTransform="matrix(0.0232224,11.0096,-11.0096,0.0232224,17.0388,12.0185)"><stop offset="0" style="stop-color:rgb(136,138,133);stop-opacity:1"/><stop offset="1" style="stop-color:rgb(85,87,83);stop-opacity:0"/></linearGradient>
        <linearGradient id="_Linear13" x1="0" y1="0" x2="1" y2="0" gradientUnits="userSpaceOnUse" gradientTransform="matrix(-0.000692307,13.9854,-13.9854,-0.000692307,17.0395,12.7373)"><stop offset="0" style="stop-color:white;stop-opacity:0.6"/><stop offset="1" style="stop-color:white;stop-opacity:0"/></linearGradient>
        <linearGradient id="_Linear14" x1="0" y1="0" x2="1" y2="0" gradientUnits="userSpaceOnUse" gradientTransform="matrix(-0.000120909,14.3343,-14.7121,-0.000117804,17.7746,14.9747)"><stop offset="0" style="stop-color:rgb(143,179,217);stop-opacity:0.9"/><stop offset="1" style="stop-color:rgb(52,101,164);stop-opacity:0.9"/></linearGradient>
        <linearGradient id="_Linear15" x1="0" y1="0" x2="1" y2="0" gradientUnits="userSpaceOnUse" gradientTransform="matrix(-1.47051e-05,13.6149,-13.9738,-1.43275e-05,18.5097,15.6939)"><stop offset="0" style="stop-color:rgb(52,101,164);stop-opacity:0.9"/><stop offset="1" style="stop-color:rgb(32,74,135);stop-opacity:0.9"/></linearGradient>
        <linearGradient id="_Linear16" x1="0" y1="0" x2="1" y2="0" gradientUnits="userSpaceOnUse" gradientTransform="matrix(4.50636e-17,0.735944,-0.735944,4.50636e-17,18.0047,14.9491)"><stop offset="0" style="stop-color:rgb(114,159,207);stop-opacity:0"/><stop offset="0.25" style="stop-color:rgb(114,159,207);stop-opacity:0"/><stop offset="1" style="stop-color:rgb(52,101,164);stop-opacity:0.5"/></linearGradient>
        <linearGradient id="_Linear17" x1="0" y1="0" x2="1" y2="0" gradientUnits="userSpaceOnUse" gradientTransform="matrix(28.6637,-0.102145,0.102145,28.6637,4.68335,16.9103)"><stop offset="0" style="stop-color:rgb(254,235,214);stop-opacity:0"/><stop offset="0" style="stop-color:rgb(254,235,214);stop-opacity:0"/><stop offset="0.46" style="stop-color:rgb(245,245,245);stop-opacity:0.53"/><stop offset="1" style="stop-color:rgb(245,245,245);stop-opacity:0"/></linearGradient>
        <linearGradient id="_Linear18" x1="0" y1="0" x2="1" y2="0" gradientUnits="userSpaceOnUse" gradientTransform="matrix(-2.91035,-5.75761,5.75761,-2.91035,15.8474,27.5)"><stop offset="0" style="stop-color:rgb(255,0,0);stop-opacity:1"/><stop offset="1" style="stop-color:rgb(255,224,224);stop-opacity:1"/></linearGradient>
        <linearGradient id="_Linear19" x1="0" y1="0" x2="1" y2="0" gradientUnits="userSpaceOnUse" gradientTransform="matrix(1.3084,0,0,1.3084,12.123,24.7708)"><stop offset="0" style="stop-color:white;stop-opacity:1"/><stop offset="1" style="stop-color:white;stop-opacity:0"/></linearGradient>
        <linearGradient id="_Linear20" x1="0" y1="0" x2="1" y2="0" gradientUnits="userSpaceOnUse" gradientTransform="matrix(-2.89434,-5.75757,5.75757,-2.89434,19.3653,23.6805)"><stop offset="0" style="stop-color:rgb(0,0,255);stop-opacity:1"/><stop offset="1" style="stop-color:rgb(224,224,255);stop-opacity:1"/></linearGradient>
        <linearGradient id="_Linear21" x1="0" y1="0" x2="1" y2="0" gradientUnits="userSpaceOnUse" gradientTransform="matrix(1.30526,0,0,1.30526,15.8685,21.0283)"><stop offset="0" style="stop-color:white;stop-opacity:1"/><stop offset="1" style="stop-color:white;stop-opacity:0"/></linearGradient>
        <linearGradient id="_Linear22" x1="0" y1="0" x2="1" y2="0" gradientUnits="userSpaceOnUse" gradientTransform="matrix(2.90763,5.75757,-5.75757,2.90763,20.6521,20.6578)"><stop offset="0" style="stop-color:rgb(255,255,224);stop-opacity:1"/><stop offset="1" style="stop-color:rgb(255,255,0);stop-opacity:1"/></linearGradient>
        <linearGradient id="_Linear23" x1="0" y1="0" x2="1" y2="0" gradientUnits="userSpaceOnUse" gradientTransform="matrix(1.30839,0,0,1.30839,20.0397,23.7632)"><stop offset="0" style="stop-color:white;stop-opacity:1"/><stop offset="1" style="stop-color:white;stop-opacity:0"/></linearGradient>
    </defs>
</svg>
