<?xml version="1.0" encoding="UTF-8" standalone="no"?>
<!DOCTYPE svg PUBLIC "-//W3C//DTD SVG 1.1//EN" "http://www.w3.org/Graphics/SVG/1.1/DTD/svg11.dtd">
<svg width="30px" height="30px" version="1.1" xmlns="http://www.w3.org/2000/svg" xmlns:xlink="http://www.w3.org/1999/xlink" xml:space="preserve" xmlns:serif="http://www.serif.com/" style="fill-rule:evenodd;clip-rule:evenodd;">
    <g id="window">
        <path d="M30,29.532C30,29.79 29.87,30 29.71,30L0.338,30C0.178,30 0.048,29.79 0.048,29.532L0.048,0.468C0.048,0.21 0.178,0 0.338,0L29.71,0C29.87,0 30,0.21 30,0.468L30,29.532Z" style="fill:url(#_Linear1);fill-rule:nonzero;stroke:rgb(7,0,1);stroke-width:0.06px;"/>
        <rect x="0.435" y="6.272" width="29.179" height="23.26" style="fill:rgb(244,242,241);stroke:rgb(35,24,21);stroke-width:0.12px;"/>
        <path d="M29.024,4.974L28.456,4.974L27.541,3.449C27.514,3.402 27.483,3.337 27.45,3.251L27.439,3.251C27.42,3.294 27.389,3.36 27.345,3.449L26.402,4.974L25.832,4.974L27.162,2.971L25.937,0.99L26.508,0.99L27.32,2.39C27.373,2.483 27.42,2.575 27.461,2.668L27.472,2.668C27.531,2.546 27.583,2.449 27.627,2.379L28.473,0.99L29.007,0.99L27.758,2.965L29.024,4.974Z" style="fill:white;fill-rule:nonzero;"/>
        <g id="title-text" serif:id="title text">
            <path d="M2.063,4.269L0.67,4.269L0.67,0.964L0.984,0.964L0.984,3.919L2.063,3.919L2.063,4.269Z" style="fill:white;fill-rule:nonzero;"/>
            <path d="M3.236,4.324C2.952,4.324 2.726,4.214 2.557,3.994C2.388,3.773 2.303,3.481 2.303,3.117C2.303,2.72 2.391,2.41 2.567,2.188C2.743,1.965 2.981,1.853 3.281,1.853C3.567,1.853 3.79,1.962 3.95,2.178C4.111,2.395 4.191,2.695 4.191,3.08C4.191,3.456 4.105,3.758 3.932,3.984C3.759,4.211 3.527,4.324 3.236,4.324ZM3.258,2.171C3.061,2.171 2.905,2.254 2.79,2.419C2.675,2.584 2.618,2.812 2.618,3.103C2.618,3.382 2.676,3.603 2.792,3.764C2.908,3.926 3.064,4.006 3.258,4.006C3.457,4.006 3.61,3.927 3.716,3.769C3.823,3.611 3.876,3.385 3.876,3.093C3.876,2.798 3.823,2.571 3.716,2.411C3.61,2.251 3.457,2.171 3.258,2.171Z" style="fill:white;fill-rule:nonzero;"/>
            <path d="M5.682,2.291C5.629,2.241 5.551,2.215 5.45,2.215C5.319,2.215 5.209,2.291 5.121,2.443C5.033,2.596 4.989,2.803 4.989,3.066L4.989,4.269L4.682,4.269L4.682,1.909L4.989,1.909L4.989,2.395L4.997,2.395C5.04,2.229 5.107,2.1 5.197,2.007C5.287,1.914 5.388,1.867 5.499,1.867C5.579,1.867 5.64,1.878 5.682,1.899L5.682,2.291Z" style="fill:white;fill-rule:nonzero;"/>
            <path d="M7.557,3.183L6.203,3.183C6.208,3.446 6.265,3.649 6.375,3.792C6.485,3.935 6.636,4.006 6.829,4.006C7.045,4.006 7.243,3.919 7.424,3.744L7.424,4.098C7.256,4.249 7.033,4.324 6.756,4.324C6.485,4.324 6.272,4.217 6.117,4.003C5.962,3.788 5.885,3.487 5.885,3.098C5.885,2.731 5.969,2.431 6.138,2.2C6.308,1.969 6.518,1.853 6.769,1.853C7.02,1.853 7.214,1.953 7.351,2.153C7.489,2.353 7.557,2.63 7.557,2.985L7.557,3.183ZM7.243,2.863C7.241,2.645 7.199,2.475 7.114,2.354C7.03,2.232 6.913,2.171 6.763,2.171C6.618,2.171 6.495,2.235 6.394,2.363C6.293,2.49 6.23,2.657 6.207,2.863L7.243,2.863Z" style="fill:white;fill-rule:nonzero;"/>
            <path d="M10.745,4.269L10.438,4.269L10.438,2.914C10.438,2.652 10.406,2.463 10.34,2.347C10.274,2.23 10.164,2.171 10.009,2.171C9.878,2.171 9.767,2.245 9.675,2.393C9.583,2.54 9.537,2.717 9.537,2.923L9.537,4.269L9.23,4.269L9.23,2.868C9.23,2.403 9.085,2.171 8.794,2.171C8.659,2.171 8.548,2.241 8.46,2.38C8.373,2.519 8.329,2.7 8.329,2.923L8.329,4.269L8.022,4.269L8.022,1.909L8.329,1.909L8.329,2.282L8.337,2.282C8.473,1.996 8.671,1.853 8.932,1.853C9.063,1.853 9.178,1.898 9.275,1.988C9.372,2.078 9.439,2.196 9.475,2.342C9.618,2.016 9.83,1.853 10.112,1.853C10.534,1.853 10.745,2.174 10.745,2.815L10.745,4.269Z" style="fill:white;fill-rule:nonzero;"/>
            <rect x="12.418" y="0.964" width="0.315" height="3.306" style="fill:white;"/>
            <path d="M13.713,3.928L13.705,3.928L13.705,5.355L13.398,5.355L13.398,1.909L13.705,1.909L13.705,2.324L13.713,2.324C13.864,2.01 14.085,1.853 14.376,1.853C14.623,1.853 14.816,1.959 14.955,2.17C15.093,2.382 15.162,2.665 15.162,3.02C15.162,3.415 15.084,3.731 14.928,3.968C14.772,4.206 14.559,4.324 14.288,4.324C14.039,4.324 13.847,4.192 13.713,3.928ZM13.705,2.976L13.705,3.306C13.705,3.501 13.757,3.666 13.86,3.802C13.963,3.938 14.094,4.006 14.252,4.006C14.438,4.006 14.584,3.919 14.689,3.744C14.795,3.568 14.848,3.325 14.848,3.013C14.848,2.75 14.798,2.544 14.7,2.395C14.601,2.246 14.468,2.171 14.299,2.171C14.12,2.171 13.977,2.248 13.868,2.401C13.759,2.554 13.705,2.745 13.705,2.976Z" style="fill:white;fill-rule:nonzero;"/>
            <path d="M15.537,4.184L15.537,3.778C15.704,3.93 15.889,4.006 16.09,4.006C16.359,4.006 16.494,3.896 16.494,3.674C16.494,3.611 16.483,3.558 16.46,3.514C16.437,3.47 16.405,3.432 16.366,3.398C16.327,3.364 16.28,3.334 16.227,3.307C16.174,3.28 16.117,3.252 16.056,3.223C15.971,3.181 15.896,3.139 15.832,3.097C15.768,3.055 15.714,3.007 15.671,2.954C15.628,2.901 15.595,2.841 15.574,2.773C15.552,2.705 15.541,2.626 15.541,2.536C15.541,2.425 15.561,2.327 15.603,2.242C15.644,2.156 15.699,2.085 15.768,2.027C15.836,1.97 15.915,1.926 16.003,1.897C16.091,1.868 16.181,1.853 16.275,1.853C16.441,1.853 16.59,1.889 16.721,1.959L16.721,2.342C16.58,2.228 16.418,2.171 16.234,2.171C16.176,2.171 16.125,2.179 16.078,2.196C16.032,2.212 15.993,2.234 15.96,2.264C15.926,2.293 15.901,2.328 15.883,2.368C15.865,2.409 15.856,2.454 15.856,2.503C15.856,2.565 15.865,2.616 15.883,2.658C15.901,2.699 15.927,2.736 15.962,2.768C15.997,2.801 16.04,2.83 16.09,2.856C16.14,2.882 16.196,2.911 16.26,2.941C16.345,2.981 16.421,3.022 16.489,3.065C16.556,3.107 16.614,3.155 16.661,3.208C16.708,3.261 16.745,3.322 16.771,3.391C16.796,3.46 16.809,3.542 16.809,3.637C16.809,3.754 16.788,3.856 16.746,3.942C16.704,4.028 16.649,4.099 16.579,4.156C16.509,4.213 16.428,4.255 16.337,4.283C16.246,4.311 16.15,4.324 16.05,4.324C15.853,4.324 15.682,4.278 15.537,4.184Z" style="fill:white;fill-rule:nonzero;"/>
            <path d="M18.832,4.269L18.525,4.269L18.525,3.896L18.517,3.896C18.39,4.181 18.193,4.324 17.925,4.324C17.468,4.324 17.24,3.989 17.24,3.319L17.24,1.909L17.545,1.909L17.545,3.259C17.545,3.757 17.7,4.006 18.01,4.006C18.16,4.006 18.283,3.938 18.38,3.802C18.476,3.666 18.525,3.488 18.525,3.269L18.525,1.909L18.832,1.909L18.832,4.269Z" style="fill:white;fill-rule:nonzero;"/>
            <path d="M22.176,4.269L21.869,4.269L21.869,2.914C21.869,2.652 21.836,2.463 21.77,2.347C21.705,2.23 21.594,2.171 21.44,2.171C21.308,2.171 21.197,2.245 21.105,2.393C21.013,2.54 20.968,2.717 20.968,2.923L20.968,4.269L20.66,4.269L20.66,2.868C20.66,2.403 20.515,2.171 20.224,2.171C20.089,2.171 19.978,2.241 19.89,2.38C19.803,2.519 19.759,2.7 19.759,2.923L19.759,4.269L19.452,4.269L19.452,1.909L19.759,1.909L19.759,2.282L19.767,2.282C19.903,1.996 20.101,1.853 20.362,1.853C20.494,1.853 20.608,1.898 20.705,1.988C20.803,2.078 20.869,2.196 20.906,2.342C21.048,2.016 21.26,1.853 21.543,1.853C21.965,1.853 22.176,2.174 22.176,2.815L22.176,4.269Z" style="fill:white;fill-rule:nonzero;"/>
            <path d="M24.264,1.909L23.5,4.269L23.198,4.269L22.472,1.909L22.809,1.909L23.296,3.624C23.332,3.75 23.355,3.86 23.363,3.953L23.371,3.953C23.383,3.835 23.403,3.728 23.431,3.633L23.94,1.909L24.264,1.909Z" style="fill:white;fill-rule:nonzero;"/>
        </g>
    </g>
    <path d="M16.874,10.249L21.79,10.249C22.453,10.249 23,11.204 23,12.364L23,26.884C23,28.045 22.453,29 21.79,29L9.2,29C8.54,28.99 8,28.038 8,26.884L8,9.097C8.006,7.944 8.55,7 9.21,7L12.285,7C13.309,7 13.418,7.534 14.091,9.083C14.645,10.366 15.995,10.249 16.874,10.249Z" style="fill:rgb(230,230,230);fill-rule:nonzero;"/>
    <path d="M23.282,10.249L27.87,10.249C28.49,10.249 29,11.204 29,12.364L29,26.884C29,28.045 28.49,29 27.87,29L16.12,29C15.504,28.99 15,28.038 15,26.884L15,9.097C15.006,7.944 15.514,7 16.13,7L19,7C19.955,7 20.057,7.534 20.685,9.083C21.202,10.366 22.462,10.249 23.282,10.249Z" style="fill:rgb(230,230,230);fill-rule:nonzero;"/>
    <path d="M11.057,10.249L16.628,10.249C17.381,10.249 18,11.204 18,12.364L18,26.884C18,28.045 17.381,29 16.628,29L2.36,29C1.612,28.99 1,28.038 1,26.884L1,9.097C1.007,7.944 1.624,7 2.372,7L5.857,7C7.017,7 7.141,7.534 7.903,9.083C8.532,10.366 10.062,10.249 11.057,10.249Z" style="fill:rgb(230,230,230);fill-rule:nonzero;"/>
    <g id="checkbox">
        <rect x="2.5" y="12.5" width="1.5" height="1.5" style="fill:rgb(30,140,188);stroke:black;stroke-width:0.13px;stroke-linecap:round;stroke-linejoin:round;stroke-miterlimit:1.5;"/>
        <path id="path1542" d="M3.528,12.719C3.512,12.717 3.497,12.725 3.489,12.741L3.162,13.399L2.941,13.209C2.922,13.197 2.898,13.204 2.887,13.225L2.792,13.358C2.782,13.378 2.789,13.404 2.809,13.416C2.809,13.416 3.212,13.775 3.213,13.776C3.218,13.778 3.222,13.78 3.227,13.781C3.243,13.783 3.259,13.775 3.267,13.76L3.708,12.872C3.718,12.851 3.711,12.825 3.691,12.813L3.543,12.725C3.538,12.722 3.533,12.72 3.528,12.719Z" style="fill:white;fill-rule:nonzero;"/>
        <path d="M5.685,13.968L5,13.968L5,12.348L5.155,12.348L5.155,13.796L5.685,13.796L5.685,13.968Z" style="fill-rule:nonzero;"/>
        <path d="M6.261,13.995C6.122,13.995 6.011,13.941 5.927,13.833C5.844,13.725 5.803,13.581 5.803,13.403C5.803,13.209 5.846,13.057 5.932,12.948C6.019,12.838 6.136,12.784 6.283,12.784C6.424,12.784 6.533,12.837 6.612,12.943C6.691,13.049 6.731,13.197 6.731,13.385C6.731,13.569 6.688,13.717 6.603,13.828C6.518,13.939 6.404,13.995 6.261,13.995ZM6.272,12.94C6.175,12.94 6.098,12.98 6.042,13.061C5.986,13.142 5.957,13.254 5.957,13.396C5.957,13.533 5.986,13.641 6.043,13.72C6.1,13.8 6.176,13.839 6.272,13.839C6.37,13.839 6.445,13.8 6.497,13.723C6.55,13.645 6.576,13.535 6.576,13.392C6.576,13.247 6.55,13.136 6.497,13.057C6.445,12.979 6.37,12.94 6.272,12.94Z" style="fill-rule:nonzero;"/>
        <path d="M7.463,12.998C7.437,12.974 7.399,12.961 7.349,12.961C7.285,12.961 7.231,12.998 7.188,13.073C7.144,13.148 7.123,13.249 7.123,13.378L7.123,13.968L6.972,13.968L6.972,12.811L7.123,12.811L7.123,13.049L7.126,13.049C7.148,12.968 7.181,12.904 7.225,12.859C7.269,12.813 7.318,12.791 7.373,12.791C7.412,12.791 7.442,12.796 7.463,12.806L7.463,12.998Z" style="fill-rule:nonzero;"/>
        <path d="M8.385,13.436L7.719,13.436C7.722,13.565 7.75,13.664 7.804,13.734C7.858,13.804 7.932,13.839 8.027,13.839C8.133,13.839 8.23,13.796 8.319,13.71L8.319,13.884C8.237,13.958 8.127,13.995 7.991,13.995C7.858,13.995 7.753,13.942 7.677,13.837C7.601,13.732 7.563,13.584 7.563,13.394C7.563,13.214 7.604,13.067 7.687,12.954C7.771,12.84 7.874,12.784 7.997,12.784C8.121,12.784 8.216,12.833 8.283,12.931C8.351,13.029 8.385,13.165 8.385,13.339L8.385,13.436ZM8.23,13.279C8.229,13.172 8.208,13.088 8.167,13.029C8.126,12.969 8.068,12.94 7.994,12.94C7.923,12.94 7.863,12.971 7.813,13.033C7.763,13.096 7.733,13.178 7.721,13.279L8.23,13.279Z" style="fill-rule:nonzero;"/>
        <path d="M9.951,13.968L9.8,13.968L9.8,13.304C9.8,13.175 9.784,13.083 9.752,13.026C9.72,12.968 9.666,12.94 9.59,12.94C9.525,12.94 9.47,12.976 9.425,13.048C9.38,13.12 9.358,13.207 9.358,13.308L9.358,13.968L9.207,13.968L9.207,13.281C9.207,13.053 9.135,12.94 8.992,12.94C8.926,12.94 8.871,12.974 8.828,13.042C8.785,13.11 8.764,13.199 8.764,13.308L8.764,13.968L8.613,13.968L8.613,12.811L8.764,12.811L8.764,12.994L8.768,12.994C8.835,12.854 8.932,12.784 9.06,12.784C9.125,12.784 9.181,12.806 9.229,12.85C9.277,12.894 9.31,12.952 9.327,13.023C9.397,12.864 9.502,12.784 9.64,12.784C9.848,12.784 9.951,12.941 9.951,13.255L9.951,13.968Z" style="fill-rule:nonzero;"/>
        <rect x="10.773" y="12.348" width="0.155" height="1.62"/>
        <path d="M11.41,13.801L11.406,13.801L11.406,14.5L11.255,14.5L11.255,12.811L11.406,12.811L11.406,13.014L11.41,13.014C11.484,12.861 11.592,12.784 11.735,12.784C11.857,12.784 11.952,12.836 12.02,12.939C12.088,13.043 12.122,13.181 12.122,13.355C12.122,13.549 12.084,13.704 12.007,13.82C11.93,13.937 11.825,13.995 11.692,13.995C11.57,13.995 11.476,13.93 11.41,13.801ZM11.406,13.334L11.406,13.496C11.406,13.591 11.431,13.672 11.482,13.739C11.532,13.806 11.597,13.839 11.675,13.839C11.766,13.839 11.838,13.796 11.89,13.71C11.941,13.624 11.967,13.505 11.967,13.352C11.967,13.223 11.943,13.122 11.895,13.049C11.846,12.976 11.78,12.94 11.698,12.94C11.61,12.94 11.539,12.977 11.486,13.052C11.433,13.127 11.406,13.221 11.406,13.334Z" style="fill-rule:nonzero;"/>
        <path d="M12.306,13.926L12.306,13.727C12.388,13.802 12.479,13.839 12.578,13.839C12.71,13.839 12.776,13.785 12.776,13.676C12.776,13.645 12.771,13.619 12.759,13.598C12.748,13.576 12.733,13.557 12.713,13.541C12.694,13.524 12.671,13.509 12.645,13.496C12.619,13.483 12.591,13.469 12.561,13.455C12.519,13.435 12.483,13.414 12.451,13.393C12.419,13.373 12.393,13.349 12.372,13.323C12.351,13.297 12.335,13.268 12.324,13.235C12.313,13.201 12.308,13.163 12.308,13.118C12.308,13.064 12.318,13.016 12.338,12.974C12.359,12.932 12.386,12.897 12.419,12.869C12.453,12.841 12.492,12.82 12.535,12.805C12.578,12.791 12.623,12.784 12.669,12.784C12.75,12.784 12.823,12.801 12.888,12.836L12.888,13.023C12.819,12.968 12.739,12.94 12.649,12.94C12.62,12.94 12.595,12.944 12.572,12.952C12.549,12.959 12.53,12.971 12.514,12.985C12.497,12.999 12.485,13.016 12.476,13.036C12.467,13.056 12.463,13.078 12.463,13.102C12.463,13.133 12.467,13.158 12.476,13.178C12.485,13.198 12.498,13.217 12.515,13.232C12.532,13.248 12.553,13.262 12.578,13.275C12.602,13.288 12.63,13.302 12.661,13.317C12.703,13.337 12.741,13.357 12.774,13.378C12.807,13.398 12.835,13.422 12.858,13.448C12.882,13.474 12.9,13.503 12.912,13.537C12.925,13.571 12.931,13.612 12.931,13.658C12.931,13.716 12.921,13.765 12.9,13.807C12.88,13.85 12.852,13.885 12.818,13.912C12.784,13.94 12.744,13.961 12.699,13.975C12.654,13.988 12.607,13.995 12.558,13.995C12.461,13.995 12.377,13.972 12.306,13.926Z" style="fill-rule:nonzero;"/>
        <path d="M13.925,13.968L13.774,13.968L13.774,13.785L13.771,13.785C13.708,13.925 13.611,13.995 13.48,13.995C13.255,13.995 13.143,13.831 13.143,13.502L13.143,12.811L13.293,12.811L13.293,13.473C13.293,13.717 13.369,13.839 13.521,13.839C13.595,13.839 13.655,13.806 13.703,13.739C13.751,13.672 13.774,13.585 13.774,13.478L13.774,12.811L13.925,12.811L13.925,13.968Z" style="fill-rule:nonzero;"/>
        <path d="M15.568,13.968L15.417,13.968L15.417,13.304C15.417,13.175 15.401,13.083 15.369,13.026C15.337,12.968 15.283,12.94 15.207,12.94C15.142,12.94 15.087,12.976 15.042,13.048C14.997,13.12 14.975,13.207 14.975,13.308L14.975,13.968L14.824,13.968L14.824,13.281C14.824,13.053 14.752,12.94 14.609,12.94C14.543,12.94 14.488,12.974 14.445,13.042C14.402,13.11 14.381,13.199 14.381,13.308L14.381,13.968L14.23,13.968L14.23,12.811L14.381,12.811L14.381,12.994L14.385,12.994C14.451,12.854 14.549,12.784 14.677,12.784C14.742,12.784 14.798,12.806 14.846,12.85C14.894,12.894 14.926,12.952 14.944,13.023C15.014,12.864 15.119,12.784 15.257,12.784C15.465,12.784 15.568,12.941 15.568,13.255L15.568,13.968Z" style="fill-rule:nonzero;"/>
        <path d="M16.595,12.811L16.219,13.968L16.071,13.968L15.714,12.811L15.88,12.811L16.119,13.651C16.137,13.713 16.148,13.767 16.152,13.813L16.156,13.813C16.162,13.755 16.172,13.703 16.185,13.656L16.435,12.811L16.595,12.811Z" style="fill-rule:nonzero;"/>
    </g>
    <g id="checkbox1" serif:id="checkbox">
        <rect x="2.5" y="15.5" width="1.5" height="1.5" style="fill:rgb(30,140,188);stroke:black;stroke-width:0.13px;stroke-linecap:round;stroke-linejoin:round;stroke-miterlimit:1.5;"/>
        <path id="path15421" serif:id="path1542" d="M3.528,15.719C3.512,15.717 3.497,15.725 3.489,15.741L3.162,16.399L2.941,16.209C2.922,16.197 2.898,16.204 2.887,16.225L2.792,16.358C2.782,16.378 2.789,16.404 2.809,16.416C2.809,16.416 3.212,16.775 3.213,16.776C3.218,16.778 3.222,16.78 3.227,16.781C3.243,16.783 3.259,16.775 3.267,16.76L3.708,15.872C3.718,15.851 3.711,15.825 3.691,15.813L3.543,15.725C3.538,15.722 3.533,15.72 3.528,15.719Z" style="fill:white;fill-rule:nonzero;"/>
        <path d="M5.685,16.968L5,16.968L5,15.348L5.155,15.348L5.155,16.796L5.685,16.796L5.685,16.968Z" style="fill-rule:nonzero;"/>
        <path d="M6.261,16.995C6.122,16.995 6.011,16.941 5.927,16.833C5.844,16.725 5.803,16.581 5.803,16.403C5.803,16.209 5.846,16.057 5.932,15.948C6.019,15.838 6.136,15.784 6.283,15.784C6.424,15.784 6.533,15.837 6.612,15.943C6.691,16.049 6.731,16.197 6.731,16.385C6.731,16.569 6.688,16.717 6.603,16.828C6.518,16.939 6.404,16.995 6.261,16.995ZM6.272,15.94C6.175,15.94 6.098,15.98 6.042,16.061C5.986,16.142 5.957,16.254 5.957,16.396C5.957,16.533 5.986,16.641 6.043,16.72C6.1,16.8 6.176,16.839 6.272,16.839C6.37,16.839 6.445,16.8 6.497,16.723C6.55,16.645 6.576,16.535 6.576,16.392C6.576,16.247 6.55,16.136 6.497,16.057C6.445,15.979 6.37,15.94 6.272,15.94Z" style="fill-rule:nonzero;"/>
        <path d="M7.463,15.998C7.437,15.974 7.399,15.961 7.349,15.961C7.285,15.961 7.231,15.998 7.188,16.073C7.144,16.148 7.123,16.249 7.123,16.378L7.123,16.968L6.972,16.968L6.972,15.811L7.123,15.811L7.123,16.049L7.126,16.049C7.148,15.968 7.181,15.904 7.225,15.859C7.269,15.813 7.318,15.791 7.373,15.791C7.412,15.791 7.442,15.796 7.463,15.806L7.463,15.998Z" style="fill-rule:nonzero;"/>
        <path d="M8.385,16.436L7.719,16.436C7.722,16.565 7.75,16.664 7.804,16.734C7.858,16.804 7.932,16.839 8.027,16.839C8.133,16.839 8.23,16.796 8.319,16.71L8.319,16.884C8.237,16.958 8.127,16.995 7.991,16.995C7.858,16.995 7.753,16.942 7.677,16.837C7.601,16.732 7.563,16.584 7.563,16.394C7.563,16.214 7.604,16.067 7.687,15.954C7.771,15.84 7.874,15.784 7.997,15.784C8.121,15.784 8.216,15.833 8.283,15.931C8.351,16.029 8.385,16.165 8.385,16.339L8.385,16.436ZM8.23,16.279C8.229,16.172 8.208,16.088 8.167,16.029C8.126,15.969 8.068,15.94 7.994,15.94C7.923,15.94 7.863,15.971 7.813,16.033C7.763,16.096 7.733,16.178 7.721,16.279L8.23,16.279Z" style="fill-rule:nonzero;"/>
        <path d="M9.951,16.968L9.8,16.968L9.8,16.304C9.8,16.175 9.784,16.083 9.752,16.026C9.72,15.968 9.666,15.94 9.59,15.94C9.525,15.94 9.47,15.976 9.425,16.048C9.38,16.12 9.358,16.207 9.358,16.308L9.358,16.968L9.207,16.968L9.207,16.281C9.207,16.053 9.135,15.94 8.992,15.94C8.926,15.94 8.871,15.974 8.828,16.042C8.785,16.11 8.764,16.199 8.764,16.308L8.764,16.968L8.613,16.968L8.613,15.811L8.764,15.811L8.764,15.994L8.768,15.994C8.835,15.854 8.932,15.784 9.06,15.784C9.125,15.784 9.181,15.806 9.229,15.85C9.277,15.894 9.31,15.952 9.327,16.023C9.397,15.864 9.502,15.784 9.64,15.784C9.848,15.784 9.951,15.941 9.951,16.255L9.951,16.968Z" style="fill-rule:nonzero;"/>
        <rect x="10.773" y="15.348" width="0.155" height="1.62"/>
        <path d="M11.41,16.801L11.406,16.801L11.406,17.5L11.255,17.5L11.255,15.811L11.406,15.811L11.406,16.014L11.41,16.014C11.484,15.861 11.592,15.784 11.735,15.784C11.857,15.784 11.952,15.836 12.02,15.939C12.088,16.043 12.122,16.181 12.122,16.355C12.122,16.549 12.084,16.704 12.007,16.82C11.93,16.937 11.825,16.995 11.692,16.995C11.57,16.995 11.476,16.93 11.41,16.801ZM11.406,16.334L11.406,16.496C11.406,16.591 11.431,16.672 11.482,16.739C11.532,16.806 11.597,16.839 11.675,16.839C11.766,16.839 11.838,16.796 11.89,16.71C11.941,16.624 11.967,16.505 11.967,16.352C11.967,16.223 11.943,16.122 11.895,16.049C11.846,15.976 11.78,15.94 11.698,15.94C11.61,15.94 11.539,15.977 11.486,16.052C11.433,16.127 11.406,16.221 11.406,16.334Z" style="fill-rule:nonzero;"/>
        <path d="M12.306,16.926L12.306,16.727C12.388,16.802 12.479,16.839 12.578,16.839C12.71,16.839 12.776,16.785 12.776,16.676C12.776,16.645 12.771,16.619 12.759,16.598C12.748,16.576 12.733,16.557 12.713,16.541C12.694,16.524 12.671,16.509 12.645,16.496C12.619,16.483 12.591,16.469 12.561,16.455C12.519,16.435 12.483,16.414 12.451,16.393C12.419,16.373 12.393,16.349 12.372,16.323C12.351,16.297 12.335,16.268 12.324,16.235C12.313,16.201 12.308,16.163 12.308,16.118C12.308,16.064 12.318,16.016 12.338,15.974C12.359,15.932 12.386,15.897 12.419,15.869C12.453,15.841 12.492,15.82 12.535,15.805C12.578,15.791 12.623,15.784 12.669,15.784C12.75,15.784 12.823,15.801 12.888,15.836L12.888,16.023C12.819,15.968 12.739,15.94 12.649,15.94C12.62,15.94 12.595,15.944 12.572,15.952C12.549,15.959 12.53,15.971 12.514,15.985C12.497,15.999 12.485,16.016 12.476,16.036C12.467,16.056 12.463,16.078 12.463,16.102C12.463,16.133 12.467,16.158 12.476,16.178C12.485,16.198 12.498,16.217 12.515,16.232C12.532,16.248 12.553,16.262 12.578,16.275C12.602,16.288 12.63,16.302 12.661,16.317C12.703,16.337 12.741,16.357 12.774,16.378C12.807,16.398 12.835,16.422 12.858,16.448C12.882,16.474 12.9,16.503 12.912,16.537C12.925,16.571 12.931,16.612 12.931,16.658C12.931,16.716 12.921,16.765 12.9,16.807C12.88,16.85 12.852,16.885 12.818,16.912C12.784,16.94 12.744,16.961 12.699,16.975C12.654,16.988 12.607,16.995 12.558,16.995C12.461,16.995 12.377,16.972 12.306,16.926Z" style="fill-rule:nonzero;"/>
        <path d="M13.925,16.968L13.774,16.968L13.774,16.785L13.771,16.785C13.708,16.925 13.611,16.995 13.48,16.995C13.255,16.995 13.143,16.831 13.143,16.502L13.143,15.811L13.293,15.811L13.293,16.473C13.293,16.717 13.369,16.839 13.521,16.839C13.595,16.839 13.655,16.806 13.703,16.739C13.751,16.672 13.774,16.585 13.774,16.478L13.774,15.811L13.925,15.811L13.925,16.968Z" style="fill-rule:nonzero;"/>
        <path d="M15.568,16.968L15.417,16.968L15.417,16.304C15.417,16.175 15.401,16.083 15.369,16.026C15.337,15.968 15.283,15.94 15.207,15.94C15.142,15.94 15.087,15.976 15.042,16.048C14.997,16.12 14.975,16.207 14.975,16.308L14.975,16.968L14.824,16.968L14.824,16.281C14.824,16.053 14.752,15.94 14.609,15.94C14.543,15.94 14.488,15.974 14.445,16.042C14.402,16.11 14.381,16.199 14.381,16.308L14.381,16.968L14.23,16.968L14.23,15.811L14.381,15.811L14.381,15.994L14.385,15.994C14.451,15.854 14.549,15.784 14.677,15.784C14.742,15.784 14.798,15.806 14.846,15.85C14.894,15.894 14.926,15.952 14.944,16.023C15.014,15.864 15.119,15.784 15.257,15.784C15.465,15.784 15.568,15.941 15.568,16.255L15.568,16.968Z" style="fill-rule:nonzero;"/>
        <path d="M16.595,15.811L16.219,16.968L16.071,16.968L15.714,15.811L15.88,15.811L16.119,16.651C16.137,16.713 16.148,16.767 16.152,16.813L16.156,16.813C16.162,16.755 16.172,16.703 16.185,16.656L16.435,15.811L16.595,15.811Z" style="fill-rule:nonzero;"/>
        <path d="M18.612,16.968L18.461,16.968L18.461,16.304C18.461,16.175 18.445,16.083 18.412,16.026C18.38,15.968 18.326,15.94 18.25,15.94C18.185,15.94 18.131,15.976 18.086,16.048C18.04,16.12 18.018,16.207 18.018,16.308L18.018,16.968L17.867,16.968L17.867,16.281C17.867,16.053 17.795,15.94 17.652,15.94C17.586,15.94 17.532,15.974 17.489,16.042C17.446,16.11 17.424,16.199 17.424,16.308L17.424,16.968L17.273,16.968L17.273,15.811L17.424,15.811L17.424,15.994L17.428,15.994C17.495,15.854 17.592,15.784 17.721,15.784C17.785,15.784 17.841,15.806 17.889,15.85C17.937,15.894 17.97,15.952 17.987,16.023C18.057,15.864 18.162,15.784 18.3,15.784C18.508,15.784 18.612,15.941 18.612,16.255L18.612,16.968Z" style="fill-rule:nonzero;"/>
        <path d="M19.291,16.995C19.152,16.995 19.04,16.941 18.957,16.833C18.874,16.725 18.833,16.581 18.833,16.403C18.833,16.209 18.876,16.057 18.962,15.948C19.049,15.838 19.166,15.784 19.313,15.784C19.454,15.784 19.563,15.837 19.642,15.943C19.721,16.049 19.76,16.197 19.76,16.385C19.76,16.569 19.718,16.717 19.633,16.828C19.548,16.939 19.434,16.995 19.291,16.995ZM19.302,15.94C19.205,15.94 19.128,15.98 19.072,16.061C19.015,16.142 18.987,16.254 18.987,16.396C18.987,16.533 19.016,16.641 19.073,16.72C19.13,16.8 19.206,16.839 19.302,16.839C19.4,16.839 19.475,16.8 19.527,16.723C19.579,16.645 19.606,16.535 19.606,16.392C19.606,16.247 19.579,16.136 19.527,16.057C19.475,15.979 19.4,15.94 19.302,15.94Z" style="fill-rule:nonzero;"/>
        <path d="M20.493,15.998C20.467,15.974 20.429,15.961 20.379,15.961C20.315,15.961 20.261,15.998 20.217,16.073C20.174,16.148 20.153,16.249 20.153,16.378L20.153,16.968L20.002,16.968L20.002,15.811L20.153,15.811L20.153,16.049L20.156,16.049C20.178,15.968 20.211,15.904 20.255,15.859C20.299,15.813 20.348,15.791 20.403,15.791C20.442,15.791 20.472,15.796 20.493,15.806L20.493,15.998Z" style="fill-rule:nonzero;"/>
        <path d="M21.415,16.436L20.749,16.436C20.751,16.565 20.78,16.664 20.834,16.734C20.888,16.804 20.962,16.839 21.056,16.839C21.163,16.839 21.26,16.796 21.349,16.71L21.349,16.884C21.266,16.958 21.157,16.995 21.021,16.995C20.887,16.995 20.783,16.942 20.707,16.837C20.631,16.732 20.593,16.584 20.593,16.394C20.593,16.214 20.634,16.067 20.717,15.954C20.8,15.84 20.904,15.784 21.027,15.784C21.15,15.784 21.246,15.833 21.313,15.931C21.381,16.029 21.415,16.165 21.415,16.339L21.415,16.436ZM21.26,16.279C21.259,16.172 21.238,16.088 21.197,16.029C21.155,15.969 21.098,15.94 21.024,15.94C20.953,15.94 20.893,15.971 20.843,16.033C20.793,16.096 20.763,16.178 20.751,16.279L21.26,16.279Z" style="fill-rule:nonzero;"/>
        <path d="M22.596,16.957C22.561,16.981 22.514,16.993 22.456,16.993C22.291,16.993 22.208,16.88 22.208,16.654L22.208,15.969L22.046,15.969L22.046,15.811L22.208,15.811L22.208,15.528L22.359,15.469L22.359,15.811L22.596,15.811L22.596,15.969L22.359,15.969L22.359,16.621C22.359,16.699 22.37,16.754 22.391,16.787C22.413,16.82 22.448,16.837 22.498,16.837C22.536,16.837 22.569,16.824 22.596,16.798L22.596,16.957Z" style="fill-rule:nonzero;"/>
        <path d="M23.556,16.436L22.89,16.436C22.893,16.565 22.921,16.664 22.975,16.734C23.029,16.804 23.103,16.839 23.198,16.839C23.304,16.839 23.401,16.796 23.49,16.71L23.49,16.884C23.407,16.958 23.298,16.995 23.162,16.995C23.028,16.995 22.924,16.942 22.848,16.837C22.772,16.732 22.734,16.584 22.734,16.394C22.734,16.214 22.775,16.067 22.858,15.954C22.942,15.84 23.045,15.784 23.168,15.784C23.291,15.784 23.387,15.833 23.454,15.931C23.522,16.029 23.556,16.165 23.556,16.339L23.556,16.436ZM23.401,16.279C23.4,16.172 23.379,16.088 23.338,16.029C23.297,15.969 23.239,15.94 23.165,15.94C23.094,15.94 23.034,15.971 22.984,16.033C22.934,16.096 22.904,16.178 22.892,16.279L23.401,16.279Z" style="fill-rule:nonzero;"/>
        <path d="M24.472,15.811L24.156,16.396L24.467,16.968L24.291,16.968L24.106,16.593C24.094,16.569 24.081,16.54 24.065,16.505L24.061,16.505C24.058,16.511 24.044,16.541 24.018,16.593L23.829,16.968L23.655,16.968L23.976,16.401L23.669,15.811L23.845,15.811L24.027,16.206C24.04,16.236 24.054,16.266 24.067,16.297L24.07,16.297L24.306,15.811L24.472,15.811Z" style="fill-rule:nonzero;"/>
        <path d="M25.086,16.957C25.051,16.981 25.004,16.993 24.946,16.993C24.781,16.993 24.698,16.88 24.698,16.654L24.698,15.969L24.536,15.969L24.536,15.811L24.698,15.811L24.698,15.528L24.849,15.469L24.849,15.811L25.086,15.811L25.086,15.969L24.849,15.969L24.849,16.621C24.849,16.699 24.86,16.754 24.881,16.787C24.903,16.82 24.938,16.837 24.988,16.837C25.026,16.837 25.059,16.824 25.086,16.798L25.086,16.957Z" style="fill-rule:nonzero;"/>
    </g>
    <g id="checkbox2" serif:id="checkbox">
        <rect x="2.5" y="18.5" width="1.5" height="1.5" style="fill:rgb(30,140,188);stroke:black;stroke-width:0.13px;stroke-linecap:round;stroke-linejoin:round;stroke-miterlimit:1.5;"/>
        <path id="path15422" serif:id="path1542" d="M3.528,18.719C3.512,18.717 3.497,18.725 3.489,18.741L3.162,19.399L2.941,19.209C2.922,19.197 2.898,19.204 2.887,19.225L2.792,19.358C2.782,19.378 2.789,19.404 2.809,19.416C2.809,19.416 3.212,19.775 3.213,19.776C3.218,19.778 3.222,19.78 3.227,19.781C3.243,19.783 3.259,19.775 3.267,19.76L3.708,18.872C3.718,18.851 3.711,18.825 3.691,18.813L3.543,18.725C3.538,18.722 3.533,18.72 3.528,18.719Z" style="fill:white;fill-rule:nonzero;"/>
        <path d="M5.685,19.968L5,19.968L5,18.348L5.155,18.348L5.155,19.796L5.685,19.796L5.685,19.968Z" style="fill-rule:nonzero;"/>
        <path d="M6.261,19.995C6.122,19.995 6.011,19.941 5.927,19.833C5.844,19.725 5.803,19.581 5.803,19.403C5.803,19.209 5.846,19.057 5.932,18.948C6.019,18.838 6.136,18.784 6.283,18.784C6.424,18.784 6.533,18.837 6.612,18.943C6.691,19.049 6.731,19.197 6.731,19.385C6.731,19.569 6.688,19.717 6.603,19.828C6.518,19.939 6.404,19.995 6.261,19.995ZM6.272,18.94C6.175,18.94 6.098,18.98 6.042,19.061C5.986,19.142 5.957,19.254 5.957,19.396C5.957,19.533 5.986,19.641 6.043,19.72C6.1,19.8 6.176,19.839 6.272,19.839C6.37,19.839 6.445,19.8 6.497,19.723C6.55,19.645 6.576,19.535 6.576,19.392C6.576,19.247 6.55,19.136 6.497,19.057C6.445,18.979 6.37,18.94 6.272,18.94Z" style="fill-rule:nonzero;"/>
        <path d="M7.463,18.998C7.437,18.974 7.399,18.961 7.349,18.961C7.285,18.961 7.231,18.998 7.188,19.073C7.144,19.148 7.123,19.249 7.123,19.378L7.123,19.968L6.972,19.968L6.972,18.811L7.123,18.811L7.123,19.049L7.126,19.049C7.148,18.968 7.181,18.904 7.225,18.859C7.269,18.813 7.318,18.791 7.373,18.791C7.412,18.791 7.442,18.796 7.463,18.806L7.463,18.998Z" style="fill-rule:nonzero;"/>
        <path d="M8.385,19.436L7.719,19.436C7.722,19.565 7.75,19.664 7.804,19.734C7.858,19.804 7.932,19.839 8.027,19.839C8.133,19.839 8.23,19.796 8.319,19.71L8.319,19.884C8.237,19.958 8.127,19.995 7.991,19.995C7.858,19.995 7.753,19.942 7.677,19.837C7.601,19.732 7.563,19.584 7.563,19.394C7.563,19.214 7.604,19.067 7.687,18.954C7.771,18.84 7.874,18.784 7.997,18.784C8.121,18.784 8.216,18.833 8.283,18.931C8.351,19.029 8.385,19.165 8.385,19.339L8.385,19.436ZM8.23,19.279C8.229,19.172 8.208,19.088 8.167,19.029C8.126,18.969 8.068,18.94 7.994,18.94C7.923,18.94 7.863,18.971 7.813,19.033C7.763,19.096 7.733,19.178 7.721,19.279L8.23,19.279Z" style="fill-rule:nonzero;"/>
        <path d="M9.951,19.968L9.8,19.968L9.8,19.304C9.8,19.175 9.784,19.083 9.752,19.026C9.72,18.968 9.666,18.94 9.59,18.94C9.525,18.94 9.47,18.976 9.425,19.048C9.38,19.12 9.358,19.207 9.358,19.308L9.358,19.968L9.207,19.968L9.207,19.281C9.207,19.053 9.135,18.94 8.992,18.94C8.926,18.94 8.871,18.974 8.828,19.042C8.785,19.11 8.764,19.199 8.764,19.308L8.764,19.968L8.613,19.968L8.613,18.811L8.764,18.811L8.764,18.994L8.768,18.994C8.835,18.854 8.932,18.784 9.06,18.784C9.125,18.784 9.181,18.806 9.229,18.85C9.277,18.894 9.31,18.952 9.327,19.023C9.397,18.864 9.502,18.784 9.64,18.784C9.848,18.784 9.951,18.941 9.951,19.255L9.951,19.968Z" style="fill-rule:nonzero;"/>
        <rect x="10.773" y="18.348" width="0.155" height="1.62"/>
        <path d="M11.41,19.801L11.406,19.801L11.406,20.5L11.255,20.5L11.255,18.811L11.406,18.811L11.406,19.014L11.41,19.014C11.484,18.861 11.592,18.784 11.735,18.784C11.857,18.784 11.952,18.836 12.02,18.939C12.088,19.043 12.122,19.181 12.122,19.355C12.122,19.549 12.084,19.704 12.007,19.82C11.93,19.937 11.825,19.995 11.692,19.995C11.57,19.995 11.476,19.93 11.41,19.801ZM11.406,19.334L11.406,19.496C11.406,19.591 11.431,19.672 11.482,19.739C11.532,19.806 11.597,19.839 11.675,19.839C11.766,19.839 11.838,19.796 11.89,19.71C11.941,19.624 11.967,19.505 11.967,19.352C11.967,19.223 11.943,19.122 11.895,19.049C11.846,18.976 11.78,18.94 11.698,18.94C11.61,18.94 11.539,18.977 11.486,19.052C11.433,19.127 11.406,19.221 11.406,19.334Z" style="fill-rule:nonzero;"/>
        <path d="M12.306,19.926L12.306,19.727C12.388,19.802 12.479,19.839 12.578,19.839C12.71,19.839 12.776,19.785 12.776,19.676C12.776,19.645 12.771,19.619 12.759,19.598C12.748,19.576 12.733,19.557 12.713,19.541C12.694,19.524 12.671,19.509 12.645,19.496C12.619,19.483 12.591,19.469 12.561,19.455C12.519,19.435 12.483,19.414 12.451,19.393C12.419,19.373 12.393,19.349 12.372,19.323C12.351,19.297 12.335,19.268 12.324,19.235C12.313,19.201 12.308,19.163 12.308,19.118C12.308,19.064 12.318,19.016 12.338,18.974C12.359,18.932 12.386,18.897 12.419,18.869C12.453,18.841 12.492,18.82 12.535,18.805C12.578,18.791 12.623,18.784 12.669,18.784C12.75,18.784 12.823,18.801 12.888,18.836L12.888,19.023C12.819,18.968 12.739,18.94 12.649,18.94C12.62,18.94 12.595,18.944 12.572,18.952C12.549,18.959 12.53,18.971 12.514,18.985C12.497,18.999 12.485,19.016 12.476,19.036C12.467,19.056 12.463,19.078 12.463,19.102C12.463,19.133 12.467,19.158 12.476,19.178C12.485,19.198 12.498,19.217 12.515,19.232C12.532,19.248 12.553,19.262 12.578,19.275C12.602,19.288 12.63,19.302 12.661,19.317C12.703,19.337 12.741,19.357 12.774,19.378C12.807,19.398 12.835,19.422 12.858,19.448C12.882,19.474 12.9,19.503 12.912,19.537C12.925,19.571 12.931,19.612 12.931,19.658C12.931,19.716 12.921,19.765 12.9,19.807C12.88,19.85 12.852,19.885 12.818,19.912C12.784,19.94 12.744,19.961 12.699,19.975C12.654,19.988 12.607,19.995 12.558,19.995C12.461,19.995 12.377,19.972 12.306,19.926Z" style="fill-rule:nonzero;"/>
        <path d="M13.925,19.968L13.774,19.968L13.774,19.785L13.771,19.785C13.708,19.925 13.611,19.995 13.48,19.995C13.255,19.995 13.143,19.831 13.143,19.502L13.143,18.811L13.293,18.811L13.293,19.473C13.293,19.717 13.369,19.839 13.521,19.839C13.595,19.839 13.655,19.806 13.703,19.739C13.751,19.672 13.774,19.585 13.774,19.478L13.774,18.811L13.925,18.811L13.925,19.968Z" style="fill-rule:nonzero;"/>
        <path d="M15.568,19.968L15.417,19.968L15.417,19.304C15.417,19.175 15.401,19.083 15.369,19.026C15.337,18.968 15.283,18.94 15.207,18.94C15.142,18.94 15.087,18.976 15.042,19.048C14.997,19.12 14.975,19.207 14.975,19.308L14.975,19.968L14.824,19.968L14.824,19.281C14.824,19.053 14.752,18.94 14.609,18.94C14.543,18.94 14.488,18.974 14.445,19.042C14.402,19.11 14.381,19.199 14.381,19.308L14.381,19.968L14.23,19.968L14.23,18.811L14.381,18.811L14.381,18.994L14.385,18.994C14.451,18.854 14.549,18.784 14.677,18.784C14.742,18.784 14.798,18.806 14.846,18.85C14.894,18.894 14.926,18.952 14.944,19.023C15.014,18.864 15.119,18.784 15.257,18.784C15.465,18.784 15.568,18.941 15.568,19.255L15.568,19.968Z" style="fill-rule:nonzero;"/>
        <path d="M16.595,18.811L16.219,19.968L16.071,19.968L15.714,18.811L15.88,18.811L16.119,19.651C16.137,19.713 16.148,19.767 16.152,19.813L16.156,19.813C16.162,19.755 16.172,19.703 16.185,19.656L16.435,18.811L16.595,18.811Z" style="fill-rule:nonzero;"/>
        <path d="M17.216,19.926L17.216,19.727C17.298,19.802 17.389,19.839 17.488,19.839C17.62,19.839 17.686,19.785 17.686,19.676C17.686,19.645 17.681,19.619 17.669,19.598C17.658,19.576 17.643,19.557 17.623,19.541C17.604,19.524 17.581,19.509 17.555,19.496C17.529,19.483 17.501,19.469 17.471,19.455C17.429,19.435 17.393,19.414 17.361,19.393C17.329,19.373 17.303,19.349 17.282,19.323C17.261,19.297 17.245,19.268 17.234,19.235C17.223,19.201 17.218,19.163 17.218,19.118C17.218,19.064 17.228,19.016 17.248,18.974C17.269,18.932 17.296,18.897 17.329,18.869C17.363,18.841 17.402,18.82 17.445,18.805C17.488,18.791 17.533,18.784 17.579,18.784C17.66,18.784 17.733,18.801 17.798,18.836L17.798,19.023C17.729,18.968 17.649,18.94 17.559,18.94C17.53,18.94 17.505,18.944 17.482,18.952C17.459,18.959 17.44,18.971 17.424,18.985C17.407,18.999 17.395,19.016 17.386,19.036C17.377,19.056 17.373,19.078 17.373,19.102C17.373,19.133 17.377,19.158 17.386,19.178C17.395,19.198 17.408,19.217 17.425,19.232C17.442,19.248 17.463,19.262 17.488,19.275C17.512,19.288 17.54,19.302 17.571,19.317C17.613,19.337 17.651,19.357 17.684,19.378C17.717,19.398 17.745,19.422 17.768,19.448C17.792,19.474 17.81,19.503 17.822,19.537C17.835,19.571 17.841,19.612 17.841,19.658C17.841,19.716 17.831,19.765 17.81,19.807C17.79,19.85 17.762,19.885 17.728,19.912C17.694,19.94 17.654,19.961 17.609,19.975C17.564,19.988 17.517,19.995 17.468,19.995C17.371,19.995 17.287,19.972 17.216,19.926Z" style="fill-rule:nonzero;"/>
        <path d="M18.467,19.995C18.328,19.995 18.217,19.941 18.133,19.833C18.05,19.725 18.009,19.581 18.009,19.403C18.009,19.209 18.052,19.057 18.138,18.948C18.225,18.838 18.342,18.784 18.489,18.784C18.63,18.784 18.739,18.837 18.818,18.943C18.897,19.049 18.937,19.197 18.937,19.385C18.937,19.569 18.894,19.717 18.809,19.828C18.724,19.939 18.61,19.995 18.467,19.995ZM18.478,18.94C18.381,18.94 18.304,18.98 18.248,19.061C18.192,19.142 18.163,19.254 18.163,19.396C18.163,19.533 18.192,19.641 18.249,19.72C18.306,19.8 18.382,19.839 18.478,19.839C18.576,19.839 18.651,19.8 18.703,19.723C18.756,19.645 18.782,19.535 18.782,19.392C18.782,19.247 18.756,19.136 18.703,19.057C18.651,18.979 18.576,18.94 18.478,18.94Z" style="fill-rule:nonzero;"/>
        <path d="M20.516,19.968L20.365,19.968L20.365,19.304C20.365,19.175 20.349,19.083 20.317,19.026C20.285,18.968 20.23,18.94 20.154,18.94C20.09,18.94 20.035,18.976 19.99,19.048C19.945,19.12 19.922,19.207 19.922,19.308L19.922,19.968L19.771,19.968L19.771,19.281C19.771,19.053 19.7,18.94 19.557,18.94C19.491,18.94 19.436,18.974 19.393,19.042C19.35,19.11 19.329,19.199 19.329,19.308L19.329,19.968L19.178,19.968L19.178,18.811L19.329,18.811L19.329,18.994L19.332,18.994C19.399,18.854 19.497,18.784 19.625,18.784C19.689,18.784 19.746,18.806 19.794,18.85C19.841,18.894 19.874,18.952 19.892,19.023C19.962,18.864 20.066,18.784 20.205,18.784C20.412,18.784 20.516,18.941 20.516,19.255L20.516,19.968Z" style="fill-rule:nonzero;"/>
        <path d="M21.559,19.436L20.894,19.436C20.896,19.565 20.924,19.664 20.978,19.734C21.032,19.804 21.106,19.839 21.201,19.839C21.307,19.839 21.405,19.796 21.494,19.71L21.494,19.884C21.411,19.958 21.301,19.995 21.165,19.995C21.032,19.995 20.927,19.942 20.851,19.837C20.775,19.732 20.737,19.584 20.737,19.394C20.737,19.214 20.779,19.067 20.862,18.954C20.945,18.84 21.048,18.784 21.172,18.784C21.295,18.784 21.39,18.833 21.458,18.931C21.525,19.029 21.559,19.165 21.559,19.339L21.559,19.436ZM21.404,19.279C21.404,19.172 21.383,19.088 21.341,19.029C21.3,18.969 21.242,18.94 21.169,18.94C21.098,18.94 21.037,18.971 20.987,19.033C20.938,19.096 20.907,19.178 20.895,19.279L21.404,19.279Z" style="fill-rule:nonzero;"/>
    </g>
    <g id="ok-cancel">
        <g id="button">
            <rect x="23.115" y="24" width="4.385" height="4.019" style="fill:none;stroke:rgb(136,136,136);stroke-width:0.47px;stroke-linejoin:round;"/>
            <rect x="23.115" y="24" width="4.385" height="4.019" style="fill:rgb(221,221,221);"/>
            <rect x="23.272" y="24.287" width="4.071" height="3.445" style="fill:white;"/>
        </g>
        <g id="button1" serif:id="button">
            <rect x="18" y="24" width="4.385" height="4.019" style="fill:none;stroke:rgb(136,136,136);stroke-width:0.47px;stroke-linejoin:round;"/>
            <rect x="18" y="24" width="4.385" height="4.019" style="fill:rgb(221,221,221);"/>
            <rect x="18.157" y="24.287" width="4.071" height="3.445" style="fill:white;"/>
        </g>
        <path d="M24.377,26.74L23.481,26.74L23.481,25.277L24.339,25.277L24.339,25.432L23.679,25.432L23.679,25.919L24.289,25.919L24.289,26.073L23.679,26.073L23.679,26.585L24.377,26.585L24.377,26.74Z" style="fill-rule:nonzero;"/>
        <path d="M24.623,26.681L24.623,26.479C24.65,26.5 24.682,26.518 24.719,26.534C24.756,26.55 24.795,26.564 24.837,26.576C24.878,26.587 24.92,26.595 24.961,26.602C25.003,26.608 25.041,26.611 25.077,26.611C25.198,26.611 25.289,26.591 25.35,26.552C25.41,26.513 25.44,26.457 25.44,26.383C25.44,26.344 25.43,26.309 25.41,26.28C25.39,26.251 25.362,26.224 25.327,26.2C25.291,26.176 25.249,26.153 25.201,26.131C25.153,26.109 25.101,26.085 25.045,26.061C24.986,26.035 24.931,26.009 24.88,25.982C24.829,25.956 24.784,25.926 24.747,25.895C24.709,25.862 24.679,25.826 24.658,25.786C24.636,25.745 24.625,25.698 24.625,25.643C24.625,25.577 24.642,25.519 24.676,25.469C24.71,25.42 24.754,25.379 24.809,25.347C24.864,25.315 24.927,25.292 24.997,25.276C25.067,25.26 25.139,25.253 25.212,25.253C25.379,25.253 25.5,25.27 25.576,25.304L25.576,25.497C25.477,25.437 25.349,25.407 25.192,25.407C25.149,25.407 25.106,25.411 25.063,25.419C25.019,25.427 24.981,25.44 24.947,25.458C24.913,25.475 24.886,25.498 24.864,25.526C24.843,25.554 24.833,25.588 24.833,25.628C24.833,25.665 24.841,25.698 24.857,25.725C24.873,25.752 24.897,25.777 24.928,25.8C24.959,25.822 24.998,25.844 25.043,25.865C25.088,25.886 25.14,25.909 25.199,25.934C25.26,25.96 25.317,25.987 25.371,26.016C25.426,26.044 25.473,26.076 25.514,26.111C25.555,26.146 25.587,26.184 25.611,26.226C25.635,26.268 25.647,26.317 25.647,26.371C25.647,26.443 25.631,26.504 25.598,26.554C25.566,26.604 25.521,26.645 25.466,26.676C25.411,26.708 25.347,26.73 25.275,26.744C25.202,26.758 25.126,26.765 25.046,26.765C25.019,26.765 24.986,26.763 24.947,26.759C24.908,26.755 24.868,26.75 24.827,26.743C24.786,26.736 24.747,26.727 24.711,26.716C24.674,26.706 24.645,26.694 24.623,26.681Z" style="fill-rule:nonzero;"/>
        <path d="M27.135,26.679C27.01,26.736 26.854,26.765 26.668,26.765C26.428,26.765 26.235,26.698 26.09,26.564C25.946,26.43 25.873,26.254 25.873,26.036C25.873,25.802 25.955,25.613 26.117,25.469C26.28,25.325 26.486,25.253 26.736,25.253C26.896,25.253 27.029,25.273 27.135,25.312L27.135,25.495C27.014,25.437 26.88,25.407 26.734,25.407C26.54,25.407 26.382,25.464 26.262,25.576C26.141,25.688 26.081,25.838 26.081,26.026C26.081,26.204 26.137,26.346 26.25,26.452C26.363,26.558 26.511,26.611 26.694,26.611C26.864,26.611 27.01,26.578 27.135,26.513L27.135,26.679Z" style="fill-rule:nonzero;"/>
        <path d="M19.403,26.791C19.2,26.791 19.037,26.723 18.915,26.586C18.792,26.45 18.731,26.272 18.731,26.052C18.731,25.817 18.793,25.629 18.918,25.489C19.043,25.349 19.213,25.279 19.428,25.279C19.626,25.279 19.785,25.347 19.907,25.483C20.028,25.619 20.088,25.797 20.088,26.017C20.088,26.256 20.026,26.444 19.902,26.583C19.778,26.722 19.612,26.791 19.403,26.791ZM19.416,25.434C19.265,25.434 19.142,25.489 19.048,25.6C18.954,25.711 18.907,25.857 18.907,26.037C18.907,26.218 18.953,26.363 19.045,26.473C19.136,26.582 19.256,26.637 19.403,26.637C19.561,26.637 19.685,26.585 19.776,26.48C19.866,26.375 19.912,26.228 19.912,26.04C19.912,25.847 19.868,25.698 19.78,25.592C19.692,25.487 19.57,25.434 19.416,25.434Z" style="fill-rule:nonzero;"/>
        <path d="M21.369,26.767L21.135,26.767L20.581,26.097C20.56,26.072 20.547,26.055 20.542,26.046L20.538,26.046L20.538,26.767L20.37,26.767L20.37,25.303L20.538,25.303L20.538,25.991L20.542,25.991C20.552,25.976 20.565,25.96 20.581,25.941L21.117,25.303L21.326,25.303L20.711,26.006L21.369,26.767Z" style="fill-rule:nonzero;"/>
    </g>
    <defs>
        <linearGradient id="_Linear1" x1="0" y1="0" x2="1" y2="0" gradientUnits="userSpaceOnUse" gradientTransform="matrix(1.83698e-15,-30.0001,30.0001,1.83698e-15,15.024,30)"><stop offset="0" style="stop-color:rgb(62,77,151);stop-opacity:1"/><stop offset="0.11" style="stop-color:rgb(39,68,146);stop-opacity:1"/><stop offset="0.2" style="stop-color:rgb(21,64,143);stop-opacity:1"/><stop offset="0.25" style="stop-color:rgb(26,67,145);stop-opacity:1"/><stop offset="0.4" style="stop-color:rgb(35,74,149);stop-opacity:1"/><stop offset="0.71" style="stop-color:rgb(33,81,154);stop-opacity:1"/><stop offset="0.77" style="stop-color:rgb(33,82,155);stop-opacity:1"/><stop offset="0.81" style="stop-color:rgb(35,83,156);stop-opacity:1"/><stop offset="0.85" style="stop-color:rgb(59,96,165);stop-opacity:1"/><stop offset="0.89" style="stop-color:rgb(44,88,159);stop-opacity:1"/><stop offset="0.94" style="stop-color:rgb(77,108,172);stop-opacity:1"/><stop offset="0.98" style="stop-color:rgb(97,125,183);stop-opacity:1"/><stop offset="0.99" style="stop-color:rgb(123,150,199);stop-opacity:1"/><stop offset="1" style="stop-color:rgb(154,178,217);stop-opacity:1"/><stop offset="1" style="stop-color:rgb(155,179,217);stop-opacity:1"/></linearGradient>
    </defs>
</svg>
