<?xml version="1.0" encoding="UTF-8" standalone="no"?>
<!DOCTYPE svg PUBLIC "-//W3C//DTD SVG 1.1//EN" "http://www.w3.org/Graphics/SVG/1.1/DTD/svg11.dtd">
<svg width="30px" height="30px" version="1.1" xmlns="http://www.w3.org/2000/svg" xmlns:xlink="http://www.w3.org/1999/xlink" xml:space="preserve" xmlns:serif="http://www.serif.com/" style="fill-rule:evenodd;clip-rule:evenodd;stroke-linecap:round;stroke-linejoin:round;stroke-miterlimit:1.5;">
    <g id="grid">
        <rect x="0" y="0.238" width="30" height="5.17" style="fill:white;stroke:rgb(129,129,129);stroke-width:0.47px;"/>
        <rect x="0" y="5.408" width="30" height="5.17" style="fill:white;stroke:rgb(129,129,129);stroke-width:0.47px;"/>
        <rect x="0" y="10.277" width="30" height="5.17" style="fill:white;stroke:rgb(129,129,129);stroke-width:0.47px;"/>
        <rect x="0" y="15.447" width="30" height="5.17" style="fill:rgb(67,171,241);stroke:rgb(129,129,129);stroke-width:0.47px;"/>
        <rect x="0" y="20.356" width="30" height="5.17" style="fill:white;stroke:rgb(129,129,129);stroke-width:0.47px;"/>
        <rect x="0" y="25.198" width="30" height="5.17" style="fill:white;stroke:rgb(129,129,129);stroke-width:0.47px;"/>
        <path d="M10,0.342L10,29.932" style="fill:none;stroke:rgb(129,129,129);stroke-width:0.47px;"/>
    </g>
    <g id="text">
        <path d="M1.906,4.264L1,4.264L1,1.207L1.205,1.207L1.205,3.94L1.906,3.94L1.906,4.264Z" style="fill-rule:nonzero;"/>
        <path d="M2.668,4.315C2.484,4.315 2.336,4.213 2.227,4.009C2.117,3.805 2.062,3.535 2.062,3.198C2.062,2.831 2.119,2.545 2.233,2.339C2.348,2.133 2.502,2.03 2.697,2.03C2.883,2.03 3.028,2.13 3.132,2.33C3.237,2.531 3.289,2.809 3.289,3.164C3.289,3.512 3.232,3.791 3.12,4.001C3.008,4.21 2.857,4.315 2.668,4.315ZM2.682,2.324C2.554,2.324 2.453,2.4 2.378,2.553C2.303,2.706 2.266,2.917 2.266,3.185C2.266,3.444 2.304,3.648 2.379,3.797C2.455,3.946 2.556,4.021 2.682,4.021C2.811,4.021 2.911,3.948 2.98,3.801C3.049,3.655 3.084,3.447 3.084,3.177C3.084,2.904 3.049,2.694 2.98,2.546C2.911,2.398 2.811,2.324 2.682,2.324Z" style="fill-rule:nonzero;"/>
        <path d="M4.258,2.435C4.223,2.388 4.172,2.364 4.107,2.364C4.022,2.364 3.95,2.435 3.893,2.576C3.836,2.716 3.807,2.908 3.807,3.151L3.807,4.264L3.608,4.264L3.608,2.081L3.807,2.081L3.807,2.531L3.812,2.531C3.841,2.377 3.884,2.258 3.942,2.172C4.001,2.086 4.066,2.043 4.138,2.043C4.19,2.043 4.23,2.053 4.258,2.072L4.258,2.435Z" style="fill-rule:nonzero;"/>
        <path d="M5.476,3.26L4.596,3.26C4.599,3.503 4.637,3.691 4.708,3.823C4.78,3.955 4.878,4.021 5.003,4.021C5.143,4.021 5.272,3.94 5.39,3.778L5.39,4.106C5.28,4.246 5.135,4.315 4.955,4.315C4.779,4.315 4.641,4.216 4.54,4.018C4.44,3.82 4.389,3.541 4.389,3.181C4.389,2.841 4.444,2.565 4.554,2.351C4.664,2.137 4.801,2.03 4.964,2.03C5.127,2.03 5.253,2.122 5.342,2.307C5.432,2.492 5.476,2.748 5.476,3.077L5.476,3.26ZM5.272,2.964C5.271,2.762 5.243,2.605 5.188,2.492C5.134,2.38 5.058,2.324 4.96,2.324C4.866,2.324 4.786,2.383 4.72,2.501C4.655,2.619 4.614,2.773 4.599,2.964L5.272,2.964Z" style="fill-rule:nonzero;"/>
        <path d="M7.548,4.264L7.349,4.264L7.349,3.01C7.349,2.769 7.327,2.594 7.285,2.486C7.242,2.378 7.17,2.324 7.07,2.324C6.985,2.324 6.912,2.392 6.853,2.529C6.793,2.665 6.763,2.829 6.763,3.019L6.763,4.264L6.563,4.264L6.563,2.968C6.563,2.539 6.469,2.324 6.28,2.324C6.192,2.324 6.12,2.388 6.063,2.517C6.006,2.646 5.978,2.813 5.978,3.019L5.978,4.264L5.778,4.264L5.778,2.081L5.978,2.081L5.978,2.426L5.983,2.426C6.071,2.162 6.2,2.03 6.37,2.03C6.455,2.03 6.529,2.071 6.593,2.154C6.656,2.238 6.699,2.347 6.723,2.482C6.815,2.18 6.953,2.03 7.137,2.03C7.411,2.03 7.548,2.326 7.548,2.919L7.548,4.264Z" style="fill-rule:nonzero;"/>
        <path d="M1.906,9.317L1,9.317L1,6.26L1.205,6.26L1.205,8.993L1.906,8.993L1.906,9.317Z" style="fill-rule:nonzero;"/>
        <path d="M2.668,9.368C2.484,9.368 2.336,9.266 2.227,9.062C2.117,8.859 2.062,8.588 2.062,8.251C2.062,7.885 2.119,7.598 2.233,7.392C2.348,7.186 2.502,7.083 2.697,7.083C2.883,7.083 3.028,7.183 3.132,7.384C3.237,7.584 3.289,7.862 3.289,8.217C3.289,8.565 3.232,8.844 3.12,9.054C3.008,9.264 2.857,9.368 2.668,9.368ZM2.682,7.377C2.554,7.377 2.453,7.454 2.378,7.606C2.303,7.759 2.266,7.97 2.266,8.238C2.266,8.497 2.304,8.701 2.379,8.85C2.455,9 2.556,9.074 2.682,9.074C2.811,9.074 2.911,9.001 2.98,8.855C3.049,8.708 3.084,8.5 3.084,8.23C3.084,7.957 3.049,7.747 2.98,7.599C2.911,7.451 2.811,7.377 2.682,7.377Z" style="fill-rule:nonzero;"/>
        <path d="M4.258,7.488C4.223,7.441 4.172,7.418 4.107,7.418C4.022,7.418 3.95,7.488 3.893,7.629C3.836,7.769 3.807,7.961 3.807,8.204L3.807,9.317L3.608,9.317L3.608,7.134L3.807,7.134L3.807,7.584L3.812,7.584C3.841,7.43 3.884,7.311 3.942,7.225C4.001,7.139 4.066,7.096 4.138,7.096C4.19,7.096 4.23,7.106 4.258,7.126L4.258,7.488Z" style="fill-rule:nonzero;"/>
        <path d="M5.476,8.313L4.596,8.313C4.599,8.556 4.637,8.744 4.708,8.876C4.78,9.008 4.878,9.074 5.003,9.074C5.143,9.074 5.272,8.993 5.39,8.831L5.39,9.159C5.28,9.299 5.135,9.368 4.955,9.368C4.779,9.368 4.641,9.269 4.54,9.071C4.44,8.873 4.389,8.594 4.389,8.234C4.389,7.895 4.444,7.618 4.554,7.404C4.664,7.19 4.801,7.083 4.964,7.083C5.127,7.083 5.253,7.175 5.342,7.36C5.432,7.545 5.476,7.801 5.476,8.13L5.476,8.313ZM5.272,8.017C5.271,7.815 5.243,7.658 5.188,7.546C5.134,7.433 5.058,7.377 4.96,7.377C4.866,7.377 4.786,7.436 4.72,7.554C4.655,7.672 4.614,7.826 4.599,8.017L5.272,8.017Z" style="fill-rule:nonzero;"/>
        <path d="M6.671,9.317L6.471,9.317L6.471,8.976L6.466,8.976C6.379,9.238 6.251,9.368 6.083,9.368C5.958,9.368 5.861,9.311 5.791,9.196C5.721,9.081 5.686,8.928 5.686,8.737C5.686,8.329 5.823,8.092 6.097,8.025L6.471,7.934C6.471,7.563 6.385,7.377 6.214,7.377C6.064,7.377 5.928,7.467 5.807,7.646L5.807,7.288C5.93,7.151 6.071,7.083 6.231,7.083C6.524,7.083 6.671,7.354 6.671,7.897L6.671,9.317ZM6.471,8.213L6.17,8.285C6.078,8.308 6.008,8.348 5.961,8.406C5.914,8.463 5.89,8.565 5.89,8.712C5.89,8.818 5.912,8.905 5.955,8.973C5.999,9.04 6.057,9.074 6.129,9.074C6.228,9.074 6.31,9.013 6.374,8.892C6.439,8.77 6.471,8.617 6.471,8.43L6.471,8.213Z" style="fill-rule:nonzero;"/>
        <path d="M8.817,9.317L8.617,9.317L8.617,8.064C8.617,7.822 8.596,7.647 8.553,7.539C8.511,7.431 8.439,7.377 8.338,7.377C8.253,7.377 8.181,7.445 8.121,7.582C8.061,7.718 8.032,7.882 8.032,8.072L8.032,9.317L7.832,9.317L7.832,8.021C7.832,7.592 7.737,7.377 7.548,7.377C7.461,7.377 7.388,7.441 7.332,7.57C7.275,7.699 7.246,7.866 7.246,8.072L7.246,9.317L7.047,9.317L7.047,7.134L7.246,7.134L7.246,7.479L7.251,7.479C7.34,7.215 7.469,7.083 7.638,7.083C7.724,7.083 7.798,7.125 7.861,7.208C7.924,7.291 7.968,7.4 7.991,7.535C8.084,7.234 8.222,7.083 8.405,7.083C8.68,7.083 8.817,7.379 8.817,7.972L8.817,9.317Z" style="fill-rule:nonzero;"/>
        <path d="M1.906,14.37L1,14.37L1,11.313L1.205,11.313L1.205,14.046L1.906,14.046L1.906,14.37Z" style="fill-rule:nonzero;"/>
        <path d="M2.668,14.422C2.484,14.422 2.336,14.32 2.227,14.116C2.117,13.912 2.062,13.641 2.062,13.304C2.062,12.938 2.119,12.651 2.233,12.445C2.348,12.239 2.502,12.136 2.697,12.136C2.883,12.136 3.028,12.236 3.132,12.437C3.237,12.637 3.289,12.915 3.289,13.27C3.289,13.619 3.232,13.897 3.12,14.107C3.008,14.317 2.857,14.422 2.668,14.422ZM2.682,12.43C2.554,12.43 2.453,12.507 2.378,12.66C2.303,12.812 2.266,13.023 2.266,13.292C2.266,13.55 2.304,13.754 2.379,13.904C2.455,14.053 2.556,14.127 2.682,14.127C2.811,14.127 2.911,14.054 2.98,13.908C3.049,13.761 3.084,13.553 3.084,13.283C3.084,13.01 3.049,12.8 2.98,12.652C2.911,12.504 2.811,12.43 2.682,12.43Z" style="fill-rule:nonzero;"/>
        <path d="M4.258,12.541C4.223,12.494 4.172,12.471 4.107,12.471C4.022,12.471 3.95,12.541 3.893,12.682C3.836,12.823 3.807,13.014 3.807,13.258L3.807,14.37L3.608,14.37L3.608,12.187L3.807,12.187L3.807,12.637L3.812,12.637C3.841,12.484 3.884,12.364 3.942,12.278C4.001,12.192 4.066,12.149 4.138,12.149C4.19,12.149 4.23,12.159 4.258,12.179L4.258,12.541Z" style="fill-rule:nonzero;"/>
        <path d="M6.244,14.37L6.045,14.37L6.045,13.117C6.045,12.875 6.024,12.7 5.981,12.592C5.938,12.484 5.867,12.43 5.766,12.43C5.681,12.43 5.608,12.499 5.549,12.635C5.489,12.771 5.459,12.935 5.459,13.125L5.459,14.37L5.26,14.37L5.26,13.074C5.26,12.645 5.165,12.43 4.976,12.43C4.888,12.43 4.816,12.495 4.759,12.623C4.702,12.752 4.674,12.919 4.674,13.125L4.674,14.37L4.474,14.37L4.474,12.187L4.674,12.187L4.674,12.533L4.679,12.533C4.767,12.268 4.896,12.136 5.066,12.136C5.151,12.136 5.226,12.178 5.289,12.261C5.352,12.344 5.396,12.453 5.419,12.588C5.512,12.287 5.65,12.136 5.833,12.136C6.107,12.136 6.244,12.432 6.244,13.025L6.244,14.37Z" style="fill-rule:nonzero;"/>
        <path d="M1.906,19.594L1,19.594L1,16.537L1.205,16.537L1.205,19.27L1.906,19.27L1.906,19.594Z" style="fill-rule:nonzero;"/>
        <path d="M2.668,19.645C2.484,19.645 2.336,19.543 2.227,19.339C2.117,19.135 2.062,18.865 2.062,18.528C2.062,18.161 2.119,17.875 2.233,17.669C2.348,17.463 2.502,17.36 2.697,17.36C2.883,17.36 3.028,17.46 3.132,17.66C3.237,17.861 3.289,18.139 3.289,18.494C3.289,18.842 3.232,19.121 3.12,19.331C3.008,19.54 2.857,19.645 2.668,19.645ZM2.682,17.654C2.554,17.654 2.453,17.73 2.378,17.883C2.303,18.036 2.266,18.247 2.266,18.515C2.266,18.774 2.304,18.978 2.379,19.127C2.455,19.276 2.556,19.351 2.682,19.351C2.811,19.351 2.911,19.278 2.98,19.131C3.049,18.985 3.084,18.777 3.084,18.507C3.084,18.234 3.049,18.024 2.98,17.876C2.911,17.728 2.811,17.654 2.682,17.654Z" style="fill-rule:nonzero;"/>
        <rect x="3.581" y="18.24" width="0.665" height="0.275" style="fill-rule:nonzero;"/>
        <path d="M5.255,17.765C5.22,17.718 5.17,17.695 5.104,17.695C5.019,17.695 4.947,17.765 4.89,17.906C4.833,18.046 4.804,18.238 4.804,18.481L4.804,19.594L4.605,19.594L4.605,17.411L4.804,17.411L4.804,17.861L4.809,17.861C4.838,17.707 4.881,17.588 4.939,17.502C4.998,17.416 5.063,17.373 5.135,17.373C5.187,17.373 5.227,17.383 5.255,17.402L5.255,17.765Z" style="fill-rule:nonzero;"/>
        <path d="M6.473,18.59L5.593,18.59C5.596,18.833 5.634,19.021 5.705,19.153C5.777,19.285 5.875,19.351 6,19.351C6.14,19.351 6.269,19.27 6.387,19.108L6.387,19.436C6.277,19.576 6.132,19.645 5.952,19.645C5.776,19.645 5.638,19.546 5.537,19.348C5.437,19.15 5.386,18.871 5.386,18.511C5.386,18.171 5.441,17.895 5.551,17.681C5.661,17.467 5.798,17.36 5.961,17.36C6.124,17.36 6.25,17.452 6.339,17.637C6.429,17.822 6.473,18.078 6.473,18.407L6.473,18.59ZM6.269,18.294C6.268,18.092 6.24,17.935 6.185,17.822C6.131,17.71 6.055,17.654 5.957,17.654C5.863,17.654 5.783,17.713 5.717,17.831C5.652,17.949 5.611,18.103 5.596,18.294L6.269,18.294Z" style="fill-rule:nonzero;"/>
        <path d="M8.545,19.594L8.346,19.594L8.346,18.341C8.346,18.099 8.324,17.924 8.282,17.816C8.239,17.708 8.168,17.654 8.067,17.654C7.982,17.654 7.909,17.722 7.85,17.859C7.79,17.995 7.76,18.159 7.76,18.349L7.76,19.594L7.56,19.594L7.56,18.298C7.56,17.869 7.466,17.654 7.277,17.654C7.189,17.654 7.117,17.718 7.06,17.847C7.003,17.976 6.975,18.143 6.975,18.349L6.975,19.594L6.775,19.594L6.775,17.411L6.975,17.411L6.975,17.756L6.98,17.756C7.068,17.492 7.197,17.36 7.367,17.36C7.452,17.36 7.526,17.401 7.59,17.485C7.653,17.568 7.696,17.677 7.72,17.812C7.812,17.51 7.95,17.36 8.134,17.36C8.408,17.36 8.545,17.656 8.545,18.249L8.545,19.594Z" style="fill-rule:nonzero;"/>
        <path d="M1.906,24.443L1,24.443L1,21.385L1.205,21.385L1.205,24.119L1.906,24.119L1.906,24.443Z" style="fill-rule:nonzero;"/>
        <path d="M2.668,24.494C2.484,24.494 2.336,24.392 2.227,24.188C2.117,23.984 2.062,23.713 2.062,23.377C2.062,23.01 2.119,22.724 2.233,22.517C2.348,22.311 2.502,22.208 2.697,22.208C2.883,22.208 3.028,22.308 3.132,22.509C3.237,22.709 3.289,22.987 3.289,23.343C3.289,23.691 3.232,23.97 3.12,24.179C3.008,24.389 2.857,24.494 2.668,24.494ZM2.682,22.503C2.554,22.503 2.453,22.579 2.378,22.732C2.303,22.884 2.266,23.095 2.266,23.364C2.266,23.622 2.304,23.826 2.379,23.976C2.455,24.125 2.556,24.2 2.682,24.2C2.811,24.2 2.911,24.126 2.98,23.98C3.049,23.834 3.084,23.625 3.084,23.355C3.084,23.082 3.049,22.872 2.98,22.724C2.911,22.576 2.811,22.503 2.682,22.503Z" style="fill-rule:nonzero;"/>
        <path d="M4.186,24.421C4.139,24.467 4.077,24.49 4,24.49C3.781,24.49 3.672,24.276 3.672,23.85L3.672,22.558L3.458,22.558L3.458,22.259L3.672,22.259L3.672,21.726L3.872,21.613L3.872,22.259L4.186,22.259L4.186,22.558L3.872,22.558L3.872,23.788C3.872,23.934 3.886,24.039 3.914,24.101C3.943,24.164 3.99,24.195 4.056,24.195C4.106,24.195 4.149,24.171 4.186,24.123L4.186,24.421Z" style="fill-rule:nonzero;"/>
        <path d="M5.031,24.421C4.984,24.467 4.922,24.49 4.844,24.49C4.626,24.49 4.517,24.276 4.517,23.85L4.517,22.558L4.303,22.558L4.303,22.259L4.517,22.259L4.517,21.726L4.717,21.613L4.717,22.259L5.031,22.259L5.031,22.558L4.717,22.558L4.717,23.788C4.717,23.934 4.731,24.039 4.759,24.101C4.788,24.164 4.835,24.195 4.9,24.195C4.951,24.195 4.994,24.171 5.031,24.123L5.031,24.421Z" style="fill-rule:nonzero;"/>
        <path d="M6.299,23.438L5.419,23.438C5.422,23.681 5.46,23.869 5.531,24.001C5.603,24.133 5.701,24.2 5.826,24.2C5.966,24.2 6.095,24.119 6.213,23.957L6.213,24.285C6.103,24.424 5.958,24.494 5.778,24.494C5.602,24.494 5.464,24.395 5.363,24.196C5.262,23.998 5.212,23.719 5.212,23.36C5.212,23.02 5.267,22.743 5.377,22.529C5.487,22.315 5.624,22.208 5.787,22.208C5.95,22.208 6.076,22.301 6.165,22.485C6.255,22.67 6.299,22.927 6.299,23.255L6.299,23.438ZM6.095,23.142C6.094,22.94 6.066,22.783 6.011,22.671C5.957,22.559 5.88,22.503 5.783,22.503C5.689,22.503 5.609,22.561 5.543,22.679C5.478,22.797 5.437,22.952 5.422,23.142L6.095,23.142Z" style="fill-rule:nonzero;"/>
        <path d="M8.371,24.443L8.172,24.443L8.172,23.189C8.172,22.947 8.15,22.773 8.108,22.665C8.065,22.557 7.993,22.503 7.893,22.503C7.808,22.503 7.735,22.571 7.676,22.707C7.616,22.844 7.586,23.007 7.586,23.198L7.586,24.443L7.386,24.443L7.386,23.146C7.386,22.717 7.292,22.503 7.103,22.503C7.015,22.503 6.943,22.567 6.886,22.695C6.829,22.824 6.801,22.991 6.801,23.198L6.801,24.443L6.601,24.443L6.601,22.259L6.801,22.259L6.801,22.605L6.806,22.605C6.894,22.34 7.023,22.208 7.193,22.208C7.278,22.208 7.352,22.25 7.416,22.333C7.479,22.416 7.522,22.525 7.546,22.66C7.638,22.359 7.776,22.208 7.96,22.208C8.234,22.208 8.371,22.505 8.371,23.097L8.371,24.443Z" style="fill-rule:nonzero;"/>
        <path d="M1.857,29.439L0.952,29.439L0.952,26.382L1.156,26.382L1.156,29.115L1.857,29.115L1.857,29.439Z" style="fill-rule:nonzero;"/>
        <path d="M2.62,29.49C2.435,29.49 2.288,29.388 2.178,29.184C2.068,28.98 2.013,28.71 2.013,28.373C2.013,28.006 2.07,27.72 2.185,27.514C2.299,27.308 2.454,27.204 2.649,27.204C2.835,27.204 2.98,27.305 3.084,27.505C3.188,27.705 3.24,27.983 3.24,28.339C3.24,28.687 3.184,28.966 3.072,29.175C2.959,29.385 2.809,29.49 2.62,29.49ZM2.634,27.499C2.506,27.499 2.404,27.575 2.33,27.728C2.255,27.881 2.218,28.091 2.218,28.36C2.218,28.619 2.256,28.823 2.331,28.972C2.406,29.121 2.508,29.196 2.634,29.196C2.763,29.196 2.862,29.123 2.932,28.976C3.001,28.83 3.036,28.622 3.036,28.351C3.036,28.079 3.001,27.868 2.932,27.72C2.862,27.573 2.763,27.499 2.634,27.499Z" style="fill-rule:nonzero;"/>
        <path d="M4.209,27.61C4.175,27.563 4.124,27.539 4.058,27.539C3.973,27.539 3.902,27.61 3.845,27.75C3.788,27.891 3.759,28.083 3.759,28.326L3.759,29.439L3.559,29.439L3.559,27.256L3.759,27.256L3.759,27.705L3.764,27.705C3.792,27.552 3.836,27.432 3.894,27.346C3.953,27.26 4.018,27.217 4.09,27.217C4.142,27.217 4.182,27.227 4.209,27.247L4.209,27.61Z" style="fill-rule:nonzero;"/>
        <path d="M5.434,29.439L5.234,29.439L5.234,29.093L5.23,29.093C5.147,29.358 5.019,29.49 4.845,29.49C4.548,29.49 4.399,29.18 4.399,28.56L4.399,27.256L4.598,27.256L4.598,28.505C4.598,28.965 4.698,29.196 4.9,29.196C4.997,29.196 5.077,29.133 5.14,29.007C5.203,28.881 5.234,28.717 5.234,28.513L5.234,27.256L5.434,27.256L5.434,29.439Z" style="fill-rule:nonzero;"/>
        <path d="M5.939,26.701C5.904,26.701 5.873,26.68 5.848,26.637C5.823,26.595 5.81,26.541 5.81,26.475C5.81,26.41 5.823,26.356 5.848,26.312C5.873,26.269 5.904,26.247 5.939,26.247C5.976,26.247 6.007,26.269 6.032,26.312C6.058,26.356 6.071,26.41 6.071,26.475C6.071,26.538 6.058,26.591 6.032,26.635C6.007,26.679 5.976,26.701 5.939,26.701ZM6.037,29.439L5.837,29.439L5.837,27.256L6.037,27.256L6.037,29.439Z" style="fill-rule:nonzero;"/>
        <path d="M8.211,29.439L8.011,29.439L8.011,28.185C8.011,27.944 7.99,27.769 7.947,27.661C7.905,27.553 7.833,27.499 7.733,27.499C7.647,27.499 7.575,27.567 7.515,27.703C7.456,27.84 7.426,28.003 7.426,28.194L7.426,29.439L7.226,29.439L7.226,28.143C7.226,27.713 7.132,27.499 6.942,27.499C6.855,27.499 6.783,27.563 6.726,27.692C6.669,27.82 6.641,27.988 6.641,28.194L6.641,29.439L6.441,29.439L6.441,27.256L6.641,27.256L6.641,27.601L6.645,27.601C6.734,27.337 6.863,27.204 7.033,27.204C7.118,27.204 7.192,27.246 7.255,27.329C7.319,27.412 7.362,27.521 7.386,27.656C7.478,27.355 7.616,27.204 7.799,27.204C8.074,27.204 8.211,27.501 8.211,28.093L8.211,29.439Z" style="fill-rule:nonzero;"/>
        <path d="M11.9,4.379L11.034,4.379L11.034,1.526L11.23,1.526L11.23,4.077L11.9,4.077L11.9,4.379Z" style="fill-rule:nonzero;"/>
        <path d="M12.628,4.427C12.452,4.427 12.311,4.332 12.206,4.141C12.101,3.951 12.049,3.699 12.049,3.384C12.049,3.042 12.103,2.775 12.213,2.582C12.322,2.39 12.47,2.294 12.656,2.294C12.834,2.294 12.972,2.387 13.072,2.574C13.172,2.761 13.221,3.021 13.221,3.352C13.221,3.677 13.168,3.938 13.06,4.133C12.953,4.329 12.809,4.427 12.628,4.427ZM12.642,2.568C12.52,2.568 12.423,2.64 12.351,2.782C12.28,2.925 12.244,3.122 12.244,3.372C12.244,3.614 12.28,3.804 12.352,3.943C12.425,4.083 12.521,4.152 12.642,4.152C12.765,4.152 12.86,4.084 12.927,3.947C12.993,3.811 13.026,3.616 13.026,3.364C13.026,3.11 12.993,2.913 12.927,2.775C12.86,2.637 12.765,2.568 12.642,2.568Z" style="fill-rule:nonzero;"/>
        <path d="M14.148,2.672C14.114,2.628 14.066,2.606 14.003,2.606C13.922,2.606 13.854,2.672 13.799,2.803C13.744,2.934 13.717,3.114 13.717,3.34L13.717,4.379L13.526,4.379L13.526,2.341L13.717,2.341L13.717,2.761L13.722,2.761C13.749,2.618 13.79,2.506 13.846,2.426C13.902,2.346 13.964,2.306 14.033,2.306C14.083,2.306 14.121,2.315 14.148,2.333L14.148,2.672Z" style="fill-rule:nonzero;"/>
        <path d="M15.312,3.442L14.471,3.442C14.474,3.669 14.51,3.844 14.578,3.967C14.646,4.091 14.74,4.152 14.86,4.152C14.994,4.152 15.117,4.077 15.229,3.925L15.229,4.232C15.125,4.362 14.986,4.427 14.814,4.427C14.646,4.427 14.514,4.334 14.417,4.149C14.321,3.964 14.273,3.704 14.273,3.368C14.273,3.051 14.326,2.793 14.431,2.593C14.536,2.393 14.666,2.294 14.822,2.294C14.978,2.294 15.099,2.38 15.184,2.552C15.269,2.725 15.312,2.964 15.312,3.271L15.312,3.442ZM15.117,3.165C15.116,2.977 15.089,2.83 15.037,2.725C14.985,2.621 14.912,2.568 14.819,2.568C14.729,2.568 14.652,2.623 14.59,2.733C14.527,2.844 14.488,2.988 14.473,3.165L15.117,3.165Z" style="fill-rule:nonzero;"/>
        <path d="M17.292,4.379L17.101,4.379L17.101,3.209C17.101,2.984 17.081,2.82 17.04,2.72C17,2.619 16.931,2.568 16.835,2.568C16.754,2.568 16.684,2.632 16.627,2.759C16.57,2.887 16.542,3.039 16.542,3.217L16.542,4.379L16.351,4.379L16.351,3.169C16.351,2.769 16.261,2.568 16.08,2.568C15.996,2.568 15.927,2.628 15.873,2.748C15.819,2.868 15.791,3.025 15.791,3.217L15.791,4.379L15.601,4.379L15.601,2.341L15.791,2.341L15.791,2.664L15.796,2.664C15.881,2.417 16.004,2.294 16.166,2.294C16.247,2.294 16.318,2.332 16.379,2.41C16.439,2.488 16.481,2.59 16.503,2.716C16.592,2.434 16.724,2.294 16.899,2.294C17.161,2.294 17.292,2.57 17.292,3.123L17.292,4.379Z" style="fill-rule:nonzero;"/>
        <rect x="18.331" y="1.526" width="0.195" height="2.854" style="fill-rule:nonzero;"/>
        <path d="M19.792,4.379L19.602,4.379L19.602,4.061L19.597,4.061C19.514,4.305 19.392,4.427 19.23,4.427C19.112,4.427 19.019,4.373 18.952,4.266C18.885,4.158 18.851,4.016 18.851,3.838C18.851,3.457 18.982,3.236 19.244,3.173L19.602,3.088C19.602,2.741 19.52,2.568 19.356,2.568C19.213,2.568 19.083,2.652 18.967,2.819L18.967,2.485C19.085,2.357 19.22,2.294 19.372,2.294C19.652,2.294 19.792,2.547 19.792,3.054L19.792,4.379ZM19.602,3.348L19.314,3.416C19.226,3.437 19.159,3.475 19.114,3.528C19.069,3.582 19.047,3.677 19.047,3.814C19.047,3.914 19.067,3.995 19.109,4.058C19.15,4.121 19.206,4.152 19.275,4.152C19.369,4.152 19.447,4.096 19.509,3.982C19.571,3.869 19.602,3.725 19.602,3.551L19.602,3.348Z" style="fill-rule:nonzero;"/>
        <path d="M20.08,4.306L20.08,3.955C20.184,4.087 20.298,4.152 20.423,4.152C20.59,4.152 20.674,4.057 20.674,3.866C20.674,3.811 20.667,3.765 20.653,3.727C20.638,3.69 20.619,3.656 20.595,3.627C20.57,3.598 20.541,3.572 20.508,3.548C20.475,3.525 20.44,3.501 20.402,3.476C20.349,3.44 20.303,3.404 20.263,3.367C20.223,3.331 20.19,3.29 20.163,3.244C20.136,3.198 20.116,3.146 20.102,3.088C20.089,3.029 20.082,2.961 20.082,2.883C20.082,2.787 20.095,2.703 20.12,2.629C20.146,2.555 20.18,2.494 20.223,2.444C20.265,2.394 20.314,2.357 20.369,2.331C20.423,2.306 20.48,2.294 20.538,2.294C20.641,2.294 20.734,2.324 20.815,2.385L20.815,2.716C20.727,2.617 20.627,2.568 20.512,2.568C20.477,2.568 20.445,2.575 20.416,2.589C20.387,2.603 20.363,2.623 20.342,2.648C20.321,2.673 20.306,2.703 20.294,2.738C20.283,2.774 20.277,2.812 20.277,2.855C20.277,2.908 20.283,2.952 20.294,2.988C20.306,3.024 20.322,3.056 20.344,3.084C20.366,3.112 20.392,3.137 20.423,3.159C20.454,3.182 20.489,3.206 20.529,3.233C20.582,3.267 20.629,3.303 20.671,3.339C20.713,3.376 20.748,3.417 20.778,3.463C20.807,3.509 20.83,3.561 20.846,3.621C20.862,3.681 20.87,3.752 20.87,3.834C20.87,3.935 20.857,4.022 20.831,4.097C20.805,4.171 20.77,4.233 20.727,4.282C20.683,4.331 20.633,4.367 20.576,4.391C20.52,4.415 20.461,4.427 20.398,4.427C20.276,4.427 20.17,4.386 20.08,4.306Z" style="fill-rule:nonzero;"/>
        <path d="M22.126,4.379L21.935,4.379L21.935,4.057L21.931,4.057C21.852,4.304 21.729,4.427 21.563,4.427C21.279,4.427 21.137,4.138 21.137,3.559L21.137,2.341L21.327,2.341L21.327,3.508C21.327,3.937 21.423,4.152 21.615,4.152C21.708,4.152 21.785,4.094 21.845,3.976C21.905,3.859 21.935,3.705 21.935,3.516L21.935,2.341L22.126,2.341L22.126,4.379Z" style="fill-rule:nonzero;"/>
        <path d="M24.203,4.379L24.012,4.379L24.012,3.209C24.012,2.984 23.992,2.82 23.951,2.72C23.91,2.619 23.842,2.568 23.746,2.568C23.664,2.568 23.595,2.632 23.538,2.759C23.481,2.887 23.452,3.039 23.452,3.217L23.452,4.379L23.262,4.379L23.262,3.169C23.262,2.769 23.171,2.568 22.991,2.568C22.907,2.568 22.838,2.628 22.783,2.748C22.729,2.868 22.702,3.025 22.702,3.217L22.702,4.379L22.511,4.379L22.511,2.341L22.702,2.341L22.702,2.664L22.707,2.664C22.791,2.417 22.915,2.294 23.077,2.294C23.158,2.294 23.229,2.332 23.29,2.41C23.35,2.488 23.392,2.59 23.414,2.716C23.502,2.434 23.634,2.294 23.81,2.294C24.072,2.294 24.203,2.57 24.203,3.123L24.203,4.379Z" style="fill-rule:nonzero;"/>
        <path d="M25.5,2.341L25.025,4.379L24.838,4.379L24.387,2.341L24.596,2.341L24.899,3.822C24.921,3.931 24.935,4.026 24.94,4.107L24.945,4.107C24.953,4.004 24.965,3.912 24.982,3.83L25.299,2.341L25.5,2.341Z" style="fill-rule:nonzero;"/>
        <path d="M12.109,9.219L11.034,9.219L11.034,6.365L11.277,6.365L11.277,8.917L12.109,8.917L12.109,9.219Z" style="fill-rule:nonzero;"/>
        <path d="M13.014,9.267C12.795,9.267 12.62,9.172 12.49,8.981C12.359,8.791 12.294,8.538 12.294,8.224C12.294,7.882 12.362,7.614 12.498,7.422C12.634,7.23 12.817,7.134 13.048,7.134C13.269,7.134 13.441,7.227 13.565,7.414C13.689,7.601 13.751,7.861 13.751,8.192C13.751,8.517 13.684,8.778 13.551,8.973C13.417,9.169 13.238,9.267 13.014,9.267ZM13.031,7.408C12.879,7.408 12.758,7.479 12.67,7.622C12.581,7.765 12.537,7.961 12.537,8.212C12.537,8.454 12.582,8.644 12.671,8.783C12.761,8.923 12.881,8.992 13.031,8.992C13.184,8.992 13.302,8.924 13.384,8.787C13.467,8.651 13.508,8.456 13.508,8.204C13.508,7.949 13.467,7.753 13.384,7.615C13.302,7.477 13.184,7.408 13.031,7.408Z" style="fill-rule:nonzero;"/>
        <path d="M14.901,7.512C14.859,7.468 14.8,7.446 14.722,7.446C14.62,7.446 14.536,7.512 14.468,7.643C14.4,7.774 14.366,7.953 14.366,8.18L14.366,9.219L14.129,9.219L14.129,7.181L14.366,7.181L14.366,7.601L14.372,7.601C14.406,7.458 14.457,7.346 14.527,7.266C14.596,7.186 14.673,7.145 14.759,7.145C14.821,7.145 14.868,7.155 14.901,7.173L14.901,7.512Z" style="fill-rule:nonzero;"/>
        <path d="M16.347,8.282L15.302,8.282C15.306,8.509 15.351,8.684 15.435,8.807C15.52,8.93 15.637,8.992 15.785,8.992C15.952,8.992 16.105,8.917 16.245,8.765L16.245,9.072C16.114,9.202 15.943,9.267 15.729,9.267C15.52,9.267 15.355,9.174 15.236,8.989C15.117,8.804 15.057,8.544 15.057,8.208C15.057,7.891 15.122,7.633 15.253,7.433C15.383,7.233 15.545,7.134 15.739,7.134C15.932,7.134 16.082,7.22 16.188,7.392C16.294,7.565 16.347,7.804 16.347,8.111L16.347,8.282ZM16.104,8.005C16.103,7.817 16.07,7.67 16.005,7.565C15.94,7.461 15.85,7.408 15.734,7.408C15.623,7.408 15.528,7.463 15.45,7.573C15.372,7.683 15.324,7.827 15.305,8.005L16.104,8.005Z" style="fill-rule:nonzero;"/>
        <path d="M18.806,9.219L18.569,9.219L18.569,8.049C18.569,7.823 18.544,7.66 18.493,7.559C18.443,7.459 18.358,7.408 18.238,7.408C18.137,7.408 18.051,7.472 17.981,7.599C17.91,7.727 17.874,7.879 17.874,8.057L17.874,9.219L17.637,9.219L17.637,8.009C17.637,7.608 17.525,7.408 17.301,7.408C17.197,7.408 17.111,7.468 17.044,7.588C16.976,7.708 16.942,7.865 16.942,8.057L16.942,9.219L16.705,9.219L16.705,7.181L16.942,7.181L16.942,7.504L16.948,7.504C17.053,7.257 17.206,7.134 17.408,7.134C17.509,7.134 17.597,7.172 17.672,7.25C17.747,7.328 17.799,7.429 17.827,7.555C17.936,7.274 18.1,7.134 18.318,7.134C18.644,7.134 18.806,7.41 18.806,7.963L18.806,9.219Z" style="fill-rule:nonzero;"/>
        <rect x="20.097" y="6.365" width="0.243" height="2.854" style="fill-rule:nonzero;"/>
        <path d="M21.911,9.219L21.674,9.219L21.674,8.901L21.669,8.901C21.566,9.145 21.414,9.267 21.213,9.267C21.066,9.267 20.951,9.213 20.867,9.106C20.784,8.998 20.742,8.856 20.742,8.678C20.742,8.297 20.905,8.075 21.231,8.013L21.674,7.928C21.674,7.581 21.573,7.408 21.37,7.408C21.191,7.408 21.03,7.492 20.887,7.659L20.887,7.325C21.032,7.197 21.2,7.134 21.39,7.134C21.738,7.134 21.911,7.387 21.911,7.894L21.911,9.219ZM21.674,8.188L21.318,8.256C21.208,8.277 21.125,8.315 21.069,8.368C21.013,8.422 20.985,8.517 20.985,8.654C20.985,8.753 21.011,8.835 21.062,8.898C21.114,8.961 21.183,8.992 21.268,8.992C21.386,8.992 21.483,8.935 21.56,8.822C21.636,8.709 21.674,8.565 21.674,8.391L21.674,8.188Z" style="fill-rule:nonzero;"/>
        <path d="M22.268,9.145L22.268,8.795C22.397,8.927 22.539,8.992 22.695,8.992C22.903,8.992 23.007,8.897 23.007,8.706C23.007,8.651 22.998,8.605 22.98,8.567C22.962,8.53 22.938,8.496 22.908,8.467C22.877,8.438 22.842,8.411 22.801,8.388C22.76,8.365 22.716,8.341 22.668,8.316C22.603,8.28 22.545,8.244 22.496,8.207C22.446,8.171 22.405,8.13 22.372,8.084C22.338,8.038 22.313,7.986 22.296,7.928C22.28,7.869 22.271,7.801 22.271,7.723C22.271,7.627 22.287,7.542 22.319,7.469C22.351,7.395 22.393,7.334 22.446,7.284C22.499,7.234 22.559,7.197 22.627,7.171C22.695,7.146 22.765,7.134 22.838,7.134C22.966,7.134 23.08,7.164 23.181,7.225L23.181,7.555C23.073,7.457 22.947,7.408 22.806,7.408C22.761,7.408 22.721,7.415 22.686,7.429C22.65,7.443 22.62,7.463 22.594,7.488C22.569,7.513 22.549,7.543 22.535,7.578C22.521,7.613 22.514,7.652 22.514,7.695C22.514,7.748 22.521,7.792 22.535,7.828C22.549,7.864 22.569,7.896 22.596,7.924C22.623,7.951 22.656,7.977 22.695,7.999C22.733,8.022 22.777,8.046 22.826,8.073C22.891,8.107 22.95,8.143 23.002,8.179C23.054,8.216 23.099,8.257 23.135,8.303C23.172,8.348 23.2,8.401 23.22,8.461C23.239,8.521 23.249,8.592 23.249,8.674C23.249,8.775 23.233,8.862 23.201,8.936C23.169,9.011 23.126,9.072 23.072,9.122C23.018,9.171 22.956,9.207 22.885,9.231C22.815,9.255 22.741,9.267 22.664,9.267C22.512,9.267 22.38,9.226 22.268,9.145Z" style="fill-rule:nonzero;"/>
        <path d="M24.81,9.219L24.573,9.219L24.573,8.897L24.567,8.897C24.469,9.143 24.317,9.267 24.11,9.267C23.758,9.267 23.582,8.978 23.582,8.399L23.582,7.181L23.817,7.181L23.817,8.347C23.817,8.777 23.937,8.992 24.176,8.992C24.291,8.992 24.386,8.933 24.461,8.816C24.536,8.699 24.573,8.545 24.573,8.355L24.573,7.181L24.81,7.181L24.81,9.219Z" style="fill-rule:nonzero;"/>
        <path d="M27.389,9.219L27.152,9.219L27.152,8.049C27.152,7.823 27.127,7.66 27.076,7.559C27.026,7.459 26.941,7.408 26.821,7.408C26.72,7.408 26.634,7.472 26.563,7.599C26.492,7.727 26.457,7.879 26.457,8.057L26.457,9.219L26.22,9.219L26.22,8.009C26.22,7.608 26.108,7.408 25.883,7.408C25.779,7.408 25.694,7.468 25.626,7.588C25.559,7.708 25.525,7.865 25.525,8.057L25.525,9.219L25.288,9.219L25.288,7.181L25.525,7.181L25.525,7.504L25.531,7.504C25.636,7.257 25.789,7.134 25.99,7.134C26.091,7.134 26.18,7.172 26.255,7.25C26.33,7.328 26.381,7.429 26.409,7.555C26.519,7.274 26.683,7.134 26.901,7.134C27.226,7.134 27.389,7.41 27.389,7.963L27.389,9.219Z" style="fill-rule:nonzero;"/>
        <path d="M29,7.181L28.41,9.219L28.178,9.219L27.617,7.181L27.877,7.181L28.253,8.662C28.281,8.771 28.298,8.865 28.305,8.946L28.311,8.946C28.32,8.844 28.336,8.752 28.357,8.67L28.75,7.181L29,7.181Z" style="fill-rule:nonzero;"/>
        <path d="M11.67,14.37L11.034,14.37L11.034,11.517L11.178,11.517L11.178,14.068L11.67,14.068L11.67,14.37Z" style="fill-rule:nonzero;"/>
        <path d="M12.205,14.418C12.076,14.418 11.972,14.323 11.895,14.133C11.818,13.942 11.779,13.69 11.779,13.375C11.779,13.033 11.819,12.766 11.9,12.573C11.98,12.381 12.089,12.285 12.225,12.285C12.356,12.285 12.458,12.378 12.531,12.566C12.604,12.753 12.641,13.012 12.641,13.344C12.641,13.669 12.601,13.929 12.522,14.125C12.443,14.32 12.338,14.418 12.205,14.418ZM12.215,12.56C12.125,12.56 12.054,12.631 12.001,12.773C11.949,12.916 11.923,13.113 11.923,13.363C11.923,13.605 11.949,13.795 12.002,13.935C12.055,14.074 12.126,14.144 12.215,14.144C12.306,14.144 12.375,14.075 12.424,13.939C12.473,13.802 12.497,13.608 12.497,13.356C12.497,13.101 12.473,12.904 12.424,12.766C12.375,12.629 12.306,12.56 12.215,12.56Z" style="fill-rule:nonzero;"/>
        <path d="M13.321,12.663C13.296,12.619 13.261,12.597 13.215,12.597C13.155,12.597 13.105,12.663 13.065,12.794C13.025,12.926 13.005,13.105 13.005,13.332L13.005,14.37L12.865,14.37L12.865,12.333L13.005,12.333L13.005,12.753L13.008,12.753C13.028,12.609 13.058,12.498 13.099,12.417C13.14,12.337 13.186,12.297 13.237,12.297C13.274,12.297 13.301,12.306 13.321,12.325L13.321,12.663Z" style="fill-rule:nonzero;"/>
        <path d="M14.176,13.433L13.558,13.433C13.561,13.66 13.587,13.835 13.637,13.958C13.687,14.082 13.756,14.144 13.844,14.144C13.942,14.144 14.033,14.068 14.115,13.917L14.115,14.223C14.039,14.353 13.937,14.418 13.81,14.418C13.687,14.418 13.59,14.326 13.519,14.141C13.448,13.956 13.413,13.695 13.413,13.36C13.413,13.042 13.452,12.784 13.529,12.584C13.606,12.385 13.702,12.285 13.816,12.285C13.931,12.285 14.019,12.371 14.082,12.544C14.145,12.716 14.176,12.956 14.176,13.262L14.176,13.433ZM14.033,13.157C14.032,12.968 14.012,12.822 13.974,12.717C13.936,12.612 13.882,12.56 13.814,12.56C13.748,12.56 13.692,12.615 13.645,12.725C13.599,12.835 13.571,12.979 13.56,13.157L14.033,13.157Z" style="fill-rule:nonzero;"/>
        <path d="M15.63,14.37L15.49,14.37L15.49,13.2C15.49,12.975 15.475,12.812 15.445,12.711C15.416,12.61 15.365,12.56 15.295,12.56C15.235,12.56 15.184,12.623 15.142,12.751C15.1,12.878 15.079,13.03 15.079,13.208L15.079,14.37L14.939,14.37L14.939,13.161C14.939,12.76 14.873,12.56 14.74,12.56C14.679,12.56 14.628,12.62 14.588,12.74C14.548,12.86 14.528,13.016 14.528,13.208L14.528,14.37L14.388,14.37L14.388,12.333L14.528,12.333L14.528,12.655L14.532,12.655C14.594,12.408 14.684,12.285 14.803,12.285C14.863,12.285 14.915,12.324 14.96,12.401C15.004,12.479 15.035,12.581 15.051,12.707C15.116,12.426 15.213,12.285 15.342,12.285C15.534,12.285 15.63,12.562 15.63,13.115L15.63,14.37Z" style="fill-rule:nonzero;"/>
        <rect x="16.393" y="11.517" width="0.144" height="2.854" style="fill-rule:nonzero;"/>
        <path d="M17.467,14.37L17.327,14.37L17.327,14.052L17.323,14.052C17.262,14.296 17.172,14.418 17.054,14.418C16.967,14.418 16.899,14.364 16.849,14.257C16.8,14.15 16.775,14.007 16.775,13.829C16.775,13.448 16.872,13.227 17.064,13.164L17.327,13.079C17.327,12.733 17.266,12.56 17.146,12.56C17.041,12.56 16.946,12.643 16.861,12.81L16.861,12.476C16.947,12.349 17.046,12.285 17.158,12.285C17.364,12.285 17.467,12.538 17.467,13.045L17.467,14.37ZM17.327,13.34L17.115,13.407C17.051,13.428 17.002,13.466 16.968,13.52C16.935,13.573 16.919,13.669 16.919,13.805C16.919,13.905 16.934,13.986 16.965,14.049C16.995,14.112 17.036,14.144 17.086,14.144C17.156,14.144 17.213,14.087 17.259,13.973C17.304,13.86 17.327,13.716 17.327,13.543L17.327,13.34Z" style="fill-rule:nonzero;"/>
        <path d="M17.678,14.297L17.678,13.947C17.754,14.078 17.838,14.144 17.93,14.144C18.053,14.144 18.114,14.048 18.114,13.857C18.114,13.803 18.109,13.757 18.099,13.719C18.088,13.681 18.074,13.647 18.056,13.618C18.038,13.589 18.017,13.563 17.993,13.54C17.968,13.516 17.942,13.492 17.914,13.467C17.876,13.431 17.842,13.395 17.812,13.359C17.783,13.322 17.758,13.281 17.739,13.235C17.719,13.189 17.704,13.137 17.694,13.079C17.684,13.021 17.679,12.952 17.679,12.874C17.679,12.778 17.689,12.694 17.708,12.62C17.726,12.547 17.751,12.485 17.783,12.435C17.814,12.385 17.85,12.348 17.89,12.323C17.93,12.298 17.972,12.285 18.014,12.285C18.09,12.285 18.158,12.315 18.218,12.376L18.218,12.707C18.153,12.609 18.079,12.56 17.996,12.56C17.969,12.56 17.946,12.566 17.925,12.58C17.904,12.594 17.885,12.614 17.87,12.639C17.855,12.664 17.844,12.695 17.835,12.73C17.827,12.765 17.823,12.804 17.823,12.846C17.823,12.899 17.827,12.944 17.835,12.979C17.844,13.015 17.856,13.047 17.872,13.075C17.888,13.103 17.907,13.128 17.93,13.151C17.953,13.173 17.978,13.198 18.008,13.224C18.046,13.259 18.081,13.294 18.112,13.331C18.143,13.367 18.169,13.408 18.19,13.454C18.212,13.5 18.229,13.553 18.24,13.612C18.252,13.672 18.258,13.743 18.258,13.825C18.258,13.926 18.248,14.014 18.229,14.088C18.21,14.162 18.185,14.224 18.153,14.273C18.121,14.322 18.084,14.358 18.043,14.382C18.001,14.406 17.957,14.418 17.912,14.418C17.822,14.418 17.744,14.378 17.678,14.297Z" style="fill-rule:nonzero;"/>
        <path d="M19.181,14.37L19.041,14.37L19.041,14.048L19.037,14.048C18.979,14.295 18.889,14.418 18.767,14.418C18.559,14.418 18.454,14.129 18.454,13.551L18.454,12.333L18.594,12.333L18.594,13.499C18.594,13.929 18.664,14.144 18.806,14.144C18.874,14.144 18.93,14.085 18.974,13.967C19.018,13.85 19.041,13.696 19.041,13.507L19.041,12.333L19.181,12.333L19.181,14.37Z" style="fill-rule:nonzero;"/>
        <path d="M20.706,14.37L20.566,14.37L20.566,13.2C20.566,12.975 20.551,12.812 20.521,12.711C20.491,12.61 20.441,12.56 20.37,12.56C20.31,12.56 20.259,12.623 20.218,12.751C20.176,12.878 20.155,13.03 20.155,13.208L20.155,14.37L20.015,14.37L20.015,13.161C20.015,12.76 19.948,12.56 19.816,12.56C19.754,12.56 19.703,12.62 19.663,12.74C19.624,12.86 19.604,13.016 19.604,13.208L19.604,14.37L19.464,14.37L19.464,12.333L19.604,12.333L19.604,12.655L19.607,12.655C19.669,12.408 19.76,12.285 19.879,12.285C19.939,12.285 19.991,12.324 20.035,12.401C20.08,12.479 20.11,12.581 20.127,12.707C20.192,12.426 20.288,12.285 20.417,12.285C20.61,12.285 20.706,12.562 20.706,13.115L20.706,14.37Z" style="fill-rule:nonzero;"/>
        <path d="M21.659,12.333L21.31,14.37L21.172,14.37L20.841,12.333L20.995,12.333L21.217,13.813C21.233,13.922 21.244,14.017 21.248,14.098L21.251,14.098C21.257,13.996 21.266,13.903 21.278,13.821L21.511,12.333L21.659,12.333Z" style="fill-rule:nonzero;"/>
        <path d="M11.9,19.28L11.034,19.28L11.034,16.426L11.23,16.426L11.23,18.977L11.9,18.977L11.9,19.28Z" style="fill-rule:nonzero;"/>
        <path d="M12.628,19.328C12.452,19.328 12.311,19.232 12.206,19.042C12.101,18.852 12.049,18.599 12.049,18.285C12.049,17.943 12.103,17.675 12.213,17.483C12.322,17.29 12.47,17.194 12.656,17.194C12.834,17.194 12.972,17.288 13.072,17.475C13.172,17.662 13.221,17.921 13.221,18.253C13.221,18.578 13.168,18.838 13.06,19.034C12.953,19.23 12.809,19.328 12.628,19.328ZM12.642,17.469C12.52,17.469 12.423,17.54 12.351,17.683C12.28,17.825 12.244,18.022 12.244,18.273C12.244,18.514 12.28,18.705 12.352,18.844C12.425,18.983 12.521,19.053 12.642,19.053C12.765,19.053 12.86,18.985 12.927,18.848C12.993,18.711 13.026,18.517 13.026,18.265C13.026,18.01 12.993,17.814 12.927,17.676C12.86,17.538 12.765,17.469 12.642,17.469Z" style="fill-rule:nonzero;"/>
        <path d="M14.148,17.572C14.114,17.529 14.066,17.507 14.003,17.507C13.922,17.507 13.854,17.572 13.799,17.704C13.744,17.835 13.717,18.014 13.717,18.241L13.717,19.28L13.526,19.28L13.526,17.242L13.717,17.242L13.717,17.662L13.722,17.662C13.749,17.519 13.79,17.407 13.846,17.327C13.902,17.246 13.964,17.206 14.033,17.206C14.083,17.206 14.121,17.216 14.148,17.234L14.148,17.572Z" style="fill-rule:nonzero;"/>
        <path d="M15.312,18.343L14.471,18.343C14.474,18.569 14.51,18.744 14.578,18.868C14.646,18.991 14.74,19.053 14.86,19.053C14.994,19.053 15.117,18.977 15.229,18.826L15.229,19.133C15.125,19.263 14.986,19.328 14.814,19.328C14.646,19.328 14.514,19.235 14.417,19.05C14.321,18.865 14.273,18.605 14.273,18.269C14.273,17.952 14.326,17.693 14.431,17.494C14.536,17.294 14.666,17.194 14.822,17.194C14.978,17.194 15.099,17.281 15.184,17.453C15.269,17.625 15.312,17.865 15.312,18.171L15.312,18.343ZM15.117,18.066C15.116,17.878 15.089,17.731 15.037,17.626C14.985,17.521 14.912,17.469 14.819,17.469C14.729,17.469 14.652,17.524 14.59,17.634C14.527,17.744 14.488,17.888 14.473,18.066L15.117,18.066Z" style="fill-rule:nonzero;"/>
        <path d="M17.292,19.28L17.101,19.28L17.101,18.11C17.101,17.884 17.081,17.721 17.04,17.62C17,17.519 16.931,17.469 16.835,17.469C16.754,17.469 16.684,17.533 16.627,17.66C16.57,17.787 16.542,17.94 16.542,18.118L16.542,19.28L16.351,19.28L16.351,18.07C16.351,17.669 16.261,17.469 16.08,17.469C15.996,17.469 15.927,17.529 15.873,17.649C15.819,17.769 15.791,17.925 15.791,18.118L15.791,19.28L15.601,19.28L15.601,17.242L15.791,17.242L15.791,17.564L15.796,17.564C15.881,17.318 16.004,17.194 16.166,17.194C16.247,17.194 16.318,17.233 16.379,17.311C16.439,17.388 16.481,17.49 16.503,17.616C16.592,17.335 16.724,17.194 16.899,17.194C17.161,17.194 17.292,17.471 17.292,18.024L17.292,19.28Z" style="fill-rule:nonzero;"/>
        <path d="M11.9,24.12L11.034,24.12L11.034,21.266L11.23,21.266L11.23,23.817L11.9,23.817L11.9,24.12Z" style="fill-rule:nonzero;"/>
        <path d="M12.628,24.167C12.452,24.167 12.311,24.072 12.206,23.882C12.101,23.691 12.049,23.439 12.049,23.125C12.049,22.782 12.103,22.515 12.213,22.323C12.322,22.13 12.47,22.034 12.656,22.034C12.834,22.034 12.972,22.128 13.072,22.315C13.172,22.502 13.221,22.761 13.221,23.093C13.221,23.418 13.168,23.678 13.06,23.874C12.953,24.07 12.809,24.167 12.628,24.167ZM12.642,22.309C12.52,22.309 12.423,22.38 12.351,22.523C12.28,22.665 12.244,22.862 12.244,23.113C12.244,23.354 12.28,23.545 12.352,23.684C12.425,23.823 12.521,23.893 12.642,23.893C12.765,23.893 12.86,23.824 12.927,23.688C12.993,23.551 13.026,23.357 13.026,23.105C13.026,22.85 12.993,22.654 12.927,22.516C12.86,22.378 12.765,22.309 12.642,22.309Z" style="fill-rule:nonzero;"/>
        <path d="M14.148,22.412C14.114,22.368 14.066,22.347 14.003,22.347C13.922,22.347 13.854,22.412 13.799,22.544C13.744,22.675 13.717,22.854 13.717,23.081L13.717,24.12L13.526,24.12L13.526,22.082L13.717,22.082L13.717,22.502L13.722,22.502C13.749,22.359 13.79,22.247 13.846,22.166C13.902,22.086 13.964,22.046 14.033,22.046C14.083,22.046 14.121,22.055 14.148,22.074L14.148,22.412Z" style="fill-rule:nonzero;"/>
        <path d="M15.312,23.182L14.471,23.182C14.474,23.409 14.51,23.584 14.578,23.708C14.646,23.831 14.74,23.893 14.86,23.893C14.994,23.893 15.117,23.817 15.229,23.666L15.229,23.972C15.125,24.102 14.986,24.167 14.814,24.167C14.646,24.167 14.514,24.075 14.417,23.89C14.321,23.705 14.273,23.444 14.273,23.109C14.273,22.792 14.326,22.533 14.431,22.334C14.536,22.134 14.666,22.034 14.822,22.034C14.978,22.034 15.099,22.12 15.184,22.293C15.269,22.465 15.312,22.705 15.312,23.011L15.312,23.182ZM15.117,22.906C15.116,22.717 15.089,22.571 15.037,22.466C14.985,22.361 14.912,22.309 14.819,22.309C14.729,22.309 14.652,22.364 14.59,22.474C14.527,22.584 14.488,22.728 14.473,22.906L15.117,22.906Z" style="fill-rule:nonzero;"/>
        <path d="M17.292,24.12L17.101,24.12L17.101,22.95C17.101,22.724 17.081,22.561 17.04,22.46C17,22.359 16.931,22.309 16.835,22.309C16.754,22.309 16.684,22.372 16.627,22.5C16.57,22.627 16.542,22.78 16.542,22.958L16.542,24.12L16.351,24.12L16.351,22.91C16.351,22.509 16.261,22.309 16.08,22.309C15.996,22.309 15.927,22.369 15.873,22.489C15.819,22.609 15.791,22.765 15.791,22.958L15.791,24.12L15.601,24.12L15.601,22.082L15.791,22.082L15.791,22.404L15.796,22.404C15.881,22.158 16.004,22.034 16.166,22.034C16.247,22.034 16.318,22.073 16.379,22.151C16.439,22.228 16.481,22.33 16.503,22.456C16.592,22.175 16.724,22.034 16.899,22.034C17.161,22.034 17.292,22.311 17.292,22.864L17.292,24.12Z" style="fill-rule:nonzero;"/>
        <rect x="18.331" y="21.266" width="0.195" height="2.854" style="fill-rule:nonzero;"/>
        <path d="M19.792,24.12L19.602,24.12L19.602,23.801L19.597,23.801C19.514,24.045 19.392,24.167 19.23,24.167C19.112,24.167 19.019,24.114 18.952,24.006C18.885,23.899 18.851,23.756 18.851,23.578C18.851,23.198 18.982,22.976 19.244,22.914L19.602,22.828C19.602,22.482 19.52,22.309 19.356,22.309C19.213,22.309 19.083,22.392 18.967,22.56L18.967,22.225C19.085,22.098 19.22,22.034 19.372,22.034C19.652,22.034 19.792,22.288 19.792,22.794L19.792,24.12ZM19.602,23.089L19.314,23.157C19.226,23.178 19.159,23.215 19.114,23.269C19.069,23.323 19.047,23.418 19.047,23.555C19.047,23.654 19.067,23.735 19.109,23.798C19.15,23.861 19.206,23.893 19.275,23.893C19.369,23.893 19.447,23.836 19.509,23.723C19.571,23.609 19.602,23.466 19.602,23.292L19.602,23.089Z" style="fill-rule:nonzero;"/>
        <path d="M20.08,24.046L20.08,23.696C20.184,23.827 20.298,23.893 20.423,23.893C20.59,23.893 20.674,23.797 20.674,23.606C20.674,23.552 20.667,23.506 20.653,23.468C20.638,23.43 20.619,23.397 20.595,23.367C20.57,23.338 20.541,23.312 20.508,23.289C20.475,23.266 20.44,23.241 20.402,23.216C20.349,23.18 20.303,23.144 20.263,23.108C20.223,23.071 20.19,23.03 20.163,22.984C20.136,22.939 20.116,22.887 20.102,22.828C20.089,22.77 20.082,22.701 20.082,22.623C20.082,22.528 20.095,22.443 20.12,22.369C20.146,22.296 20.18,22.234 20.223,22.184C20.265,22.135 20.314,22.097 20.369,22.072C20.423,22.047 20.48,22.034 20.538,22.034C20.641,22.034 20.734,22.065 20.815,22.126L20.815,22.456C20.727,22.358 20.627,22.309 20.512,22.309C20.477,22.309 20.445,22.316 20.416,22.33C20.387,22.344 20.363,22.363 20.342,22.388C20.321,22.414 20.306,22.444 20.294,22.479C20.283,22.514 20.277,22.553 20.277,22.595C20.277,22.648 20.283,22.693 20.294,22.729C20.306,22.764 20.322,22.796 20.344,22.824C20.366,22.852 20.392,22.877 20.423,22.9C20.454,22.922 20.489,22.947 20.529,22.973C20.582,23.008 20.629,23.043 20.671,23.08C20.713,23.116 20.748,23.158 20.778,23.203C20.807,23.249 20.83,23.302 20.846,23.361C20.862,23.421 20.87,23.492 20.87,23.574C20.87,23.675 20.857,23.763 20.831,23.837C20.805,23.911 20.77,23.973 20.727,24.022C20.683,24.071 20.633,24.108 20.576,24.132C20.52,24.155 20.461,24.167 20.398,24.167C20.276,24.167 20.17,24.127 20.08,24.046Z" style="fill-rule:nonzero;"/>
        <path d="M22.126,24.12L21.935,24.12L21.935,23.797L21.931,23.797C21.852,24.044 21.729,24.167 21.563,24.167C21.279,24.167 21.137,23.878 21.137,23.3L21.137,22.082L21.327,22.082L21.327,23.248C21.327,23.678 21.423,23.893 21.615,23.893C21.708,23.893 21.785,23.834 21.845,23.717C21.905,23.599 21.935,23.446 21.935,23.256L21.935,22.082L22.126,22.082L22.126,24.12Z" style="fill-rule:nonzero;"/>
        <path d="M24.203,24.12L24.012,24.12L24.012,22.95C24.012,22.724 23.992,22.561 23.951,22.46C23.91,22.359 23.842,22.309 23.746,22.309C23.664,22.309 23.595,22.372 23.538,22.5C23.481,22.627 23.452,22.78 23.452,22.958L23.452,24.12L23.262,24.12L23.262,22.91C23.262,22.509 23.171,22.309 22.991,22.309C22.907,22.309 22.838,22.369 22.783,22.489C22.729,22.609 22.702,22.765 22.702,22.958L22.702,24.12L22.511,24.12L22.511,22.082L22.702,22.082L22.702,22.404L22.707,22.404C22.791,22.158 22.915,22.034 23.077,22.034C23.158,22.034 23.229,22.073 23.29,22.151C23.35,22.228 23.392,22.33 23.414,22.456C23.502,22.175 23.634,22.034 23.81,22.034C24.072,22.034 24.203,22.311 24.203,22.864L24.203,24.12Z" style="fill-rule:nonzero;"/>
        <path d="M25.5,22.082L25.025,24.12L24.838,24.12L24.387,22.082L24.596,22.082L24.899,23.562C24.921,23.671 24.935,23.766 24.94,23.847L24.945,23.847C24.953,23.745 24.965,23.653 24.982,23.57L25.299,22.082L25.5,22.082Z" style="fill-rule:nonzero;"/>
        <path d="M27.153,21.266L27.153,23.151L27.367,23.151L27.367,23.449L27.153,23.449L27.153,24.12L26.965,24.12L26.965,23.449L26.181,23.449L26.181,23.166C26.253,23.026 26.327,22.876 26.402,22.716C26.476,22.556 26.547,22.394 26.615,22.229C26.683,22.065 26.746,21.9 26.804,21.737C26.861,21.573 26.91,21.416 26.95,21.266L27.153,21.266ZM26.396,23.151L26.965,23.151L26.965,21.754C26.907,21.927 26.851,22.083 26.8,22.219C26.748,22.356 26.698,22.48 26.651,22.591C26.604,22.703 26.559,22.804 26.517,22.894C26.474,22.984 26.434,23.07 26.396,23.151Z" style="fill-rule:nonzero;"/>
        <path d="M28.438,21.266L28.438,23.151L28.652,23.151L28.652,23.449L28.438,23.449L28.438,24.12L28.249,24.12L28.249,23.449L27.465,23.449L27.465,23.166C27.538,23.026 27.612,22.876 27.686,22.716C27.76,22.556 27.832,22.394 27.9,22.229C27.967,22.065 28.03,21.9 28.088,21.737C28.146,21.573 28.194,21.416 28.234,21.266L28.438,21.266ZM27.68,23.151L28.249,23.151L28.249,21.754C28.191,21.927 28.136,22.083 28.084,22.219C28.032,22.356 27.983,22.48 27.936,22.591C27.889,22.703 27.844,22.804 27.801,22.894C27.759,22.984 27.718,23.07 27.68,23.151Z" style="fill-rule:nonzero;"/>
        <path d="M11.9,29.293L11.034,29.293L11.034,26.439L11.23,26.439L11.23,28.99L11.9,28.99L11.9,29.293Z" style="fill-rule:nonzero;"/>
        <path d="M12.628,29.341C12.452,29.341 12.311,29.245 12.206,29.055C12.101,28.865 12.049,28.612 12.049,28.298C12.049,27.956 12.103,27.688 12.213,27.496C12.322,27.303 12.47,27.207 12.656,27.207C12.834,27.207 12.972,27.301 13.072,27.488C13.172,27.675 13.221,27.934 13.221,28.266C13.221,28.591 13.168,28.851 13.06,29.047C12.953,29.243 12.809,29.341 12.628,29.341ZM12.642,27.482C12.52,27.482 12.423,27.553 12.351,27.696C12.28,27.838 12.244,28.035 12.244,28.286C12.244,28.527 12.28,28.718 12.352,28.857C12.425,28.996 12.521,29.066 12.642,29.066C12.765,29.066 12.86,28.998 12.927,28.861C12.993,28.724 13.026,28.53 13.026,28.278C13.026,28.023 12.993,27.827 12.927,27.689C12.86,27.551 12.765,27.482 12.642,27.482Z" style="fill-rule:nonzero;"/>
        <path d="M14.148,27.585C14.114,27.542 14.066,27.52 14.003,27.52C13.922,27.52 13.854,27.585 13.799,27.717C13.744,27.848 13.717,28.027 13.717,28.254L13.717,29.293L13.526,29.293L13.526,27.255L13.717,27.255L13.717,27.675L13.722,27.675C13.749,27.532 13.79,27.42 13.846,27.34C13.902,27.259 13.964,27.219 14.033,27.219C14.083,27.219 14.121,27.229 14.148,27.247L14.148,27.585Z" style="fill-rule:nonzero;"/>
        <path d="M15.312,28.356L14.471,28.356C14.474,28.582 14.51,28.757 14.578,28.881C14.646,29.004 14.74,29.066 14.86,29.066C14.994,29.066 15.117,28.99 15.229,28.839L15.229,29.146C15.125,29.276 14.986,29.341 14.814,29.341C14.646,29.341 14.514,29.248 14.417,29.063C14.321,28.878 14.273,28.618 14.273,28.282C14.273,27.965 14.326,27.706 14.431,27.507C14.536,27.307 14.666,27.207 14.822,27.207C14.978,27.207 15.099,27.294 15.184,27.466C15.269,27.638 15.312,27.878 15.312,28.184L15.312,28.356ZM15.117,28.079C15.116,27.891 15.089,27.744 15.037,27.639C14.985,27.534 14.912,27.482 14.819,27.482C14.729,27.482 14.652,27.537 14.59,27.647C14.527,27.757 14.488,27.901 14.473,28.079L15.117,28.079Z" style="fill-rule:nonzero;"/>
        <path d="M17.292,29.293L17.101,29.293L17.101,28.123C17.101,27.897 17.081,27.734 17.04,27.633C17,27.532 16.931,27.482 16.835,27.482C16.754,27.482 16.684,27.546 16.627,27.673C16.57,27.8 16.542,27.953 16.542,28.131L16.542,29.293L16.351,29.293L16.351,28.083C16.351,27.682 16.261,27.482 16.08,27.482C15.996,27.482 15.927,27.542 15.873,27.662C15.819,27.782 15.791,27.938 15.791,28.131L15.791,29.293L15.601,29.293L15.601,27.255L15.791,27.255L15.791,27.577L15.796,27.577C15.881,27.331 16.004,27.207 16.166,27.207C16.247,27.207 16.318,27.246 16.379,27.324C16.439,27.401 16.481,27.503 16.503,27.629C16.592,27.348 16.724,27.207 16.899,27.207C17.161,27.207 17.292,27.484 17.292,28.037L17.292,29.293Z" style="fill-rule:nonzero;"/>
        <rect x="18.331" y="26.439" width="0.195" height="2.854" style="fill-rule:nonzero;"/>
        <path d="M19.792,29.293L19.602,29.293L19.602,28.974L19.597,28.974C19.514,29.219 19.392,29.341 19.23,29.341C19.112,29.341 19.019,29.287 18.952,29.179C18.885,29.072 18.851,28.929 18.851,28.752C18.851,28.371 18.982,28.149 19.244,28.087L19.602,28.001C19.602,27.655 19.52,27.482 19.356,27.482C19.213,27.482 19.083,27.565 18.967,27.733L18.967,27.398C19.085,27.271 19.22,27.207 19.372,27.207C19.652,27.207 19.792,27.461 19.792,27.967L19.792,29.293ZM19.602,28.262L19.314,28.33C19.226,28.351 19.159,28.388 19.114,28.442C19.069,28.496 19.047,28.591 19.047,28.728C19.047,28.827 19.067,28.908 19.109,28.971C19.15,29.034 19.206,29.066 19.275,29.066C19.369,29.066 19.447,29.009 19.509,28.896C19.571,28.782 19.602,28.639 19.602,28.465L19.602,28.262Z" style="fill-rule:nonzero;"/>
        <path d="M20.08,29.219L20.08,28.869C20.184,29 20.298,29.066 20.423,29.066C20.59,29.066 20.674,28.97 20.674,28.779C20.674,28.725 20.667,28.679 20.653,28.641C20.638,28.603 20.619,28.57 20.595,28.541C20.57,28.511 20.541,28.485 20.508,28.462C20.475,28.439 20.44,28.415 20.402,28.389C20.349,28.354 20.303,28.317 20.263,28.281C20.223,28.244 20.19,28.203 20.163,28.158C20.136,28.112 20.116,28.06 20.102,28.001C20.089,27.943 20.082,27.875 20.082,27.796C20.082,27.701 20.095,27.616 20.12,27.543C20.146,27.469 20.18,27.407 20.223,27.358C20.265,27.308 20.314,27.27 20.369,27.245C20.423,27.22 20.48,27.207 20.538,27.207C20.641,27.207 20.734,27.238 20.815,27.299L20.815,27.629C20.727,27.531 20.627,27.482 20.512,27.482C20.477,27.482 20.445,27.489 20.416,27.503C20.387,27.517 20.363,27.536 20.342,27.562C20.321,27.587 20.306,27.617 20.294,27.652C20.283,27.687 20.277,27.726 20.277,27.768C20.277,27.822 20.283,27.866 20.294,27.902C20.306,27.938 20.322,27.969 20.344,27.997C20.366,28.025 20.392,28.05 20.423,28.073C20.454,28.095 20.489,28.12 20.529,28.147C20.582,28.181 20.629,28.217 20.671,28.253C20.713,28.29 20.748,28.331 20.778,28.376C20.807,28.422 20.83,28.475 20.846,28.535C20.862,28.594 20.87,28.665 20.87,28.748C20.87,28.848 20.857,28.936 20.831,29.01C20.805,29.085 20.77,29.146 20.727,29.195C20.683,29.244 20.633,29.281 20.576,29.305C20.52,29.329 20.461,29.341 20.398,29.341C20.276,29.341 20.17,29.3 20.08,29.219Z" style="fill-rule:nonzero;"/>
    </g>
</svg>
