<?xml version="1.0" encoding="UTF-8" standalone="no"?><!DOCTYPE svg PUBLIC "-//W3C//DTD SVG 1.1//EN" "http://www.w3.org/Graphics/SVG/1.1/DTD/svg11.dtd"><svg width="100%" height="100%" viewBox="0 0 84 102" version="1.1" xmlns="http://www.w3.org/2000/svg" xmlns:xlink="http://www.w3.org/1999/xlink" xml:space="preserve" xmlns:serif="http://www.serif.com/" style="fill-rule:evenodd;clip-rule:evenodd;stroke-linejoin:round;stroke-miterlimit:2;"><path id="path1948" d="M54.919,0.001c-4.584,0.021 -8.961,0.412 -12.813,1.094c-11.346,2.004 -13.406,6.2 -13.406,13.937l0,10.219l26.813,-0l-0,3.406l-36.875,0c-7.793,0 -14.616,4.684 -16.75,13.594c-2.462,10.213 -2.571,16.586 -0,27.25c1.905,7.938 6.457,13.594 14.25,13.594l9.218,-0l0,-12.25c0,-8.85 7.657,-16.657 16.75,-16.657l26.782,0c7.454,0 13.406,-6.138 13.406,-13.625l-0,-25.531c-0,-7.266 -6.13,-12.725 -13.406,-13.937c-4.606,-0.767 -9.386,-1.115 -13.969,-1.094Zm-14.5,8.219c2.769,-0 5.031,2.298 5.031,5.125c0,2.816 -2.262,5.093 -5.031,5.093c-2.78,0 -5.031,-2.277 -5.031,-5.093c-0,-2.827 2.251,-5.125 5.031,-5.125Z" style="fill:url(#_Linear1);fill-rule:nonzero;"/><path id="path1950" d="M85.638,28.657l-0,11.906c-0,9.231 -7.826,17 -16.75,17l-26.782,0c-7.336,0 -13.406,6.279 -13.406,13.625l0,25.532c0,7.266 6.319,11.54 13.406,13.625c8.488,2.495 16.627,2.946 26.782,-0c6.75,-1.955 13.406,-5.888 13.406,-13.625l-0,-10.219l-26.781,-0l-0,-3.406l40.187,-0c7.792,-0 10.696,-5.436 13.406,-13.594c2.8,-8.399 2.68,-16.476 0,-27.25c-1.926,-7.758 -5.604,-13.594 -13.406,-13.594l-10.062,0Zm-15.063,64.656c2.78,0 5.031,2.278 5.031,5.094c0,2.827 -2.251,5.125 -5.031,5.125c-2.77,0 -5.031,-2.298 -5.031,-5.125c-0,-2.816 2.261,-5.094 5.031,-5.094Z" style="fill:url(#_Linear2);fill-rule:nonzero;"/><defs><linearGradient id="_Linear1" x1="0" y1="0" x2="1" y2="0" gradientUnits="userSpaceOnUse" gradientTransform="matrix(61.3261,53.2723,-53.2723,61.3261,-3.31083e-07,-2.97868e-07)"><stop offset="0" style="stop-color:#5a9fd4;stop-opacity:1"/><stop offset="1" style="stop-color:#306998;stop-opacity:1"/></linearGradient><linearGradient id="_Linear2" x1="0" y1="0" x2="1" y2="0" gradientUnits="userSpaceOnUse" gradientTransform="matrix(-21.8995,-31.2832,31.2832,-21.8995,69.9307,97.548)"><stop offset="0" style="stop-color:#ffd43b;stop-opacity:1"/><stop offset="1" style="stop-color:#ffe873;stop-opacity:1"/></linearGradient></defs></svg>