<?xml version="1.0" encoding="UTF-8" standalone="no"?>
<!DOCTYPE svg PUBLIC "-//W3C//DTD SVG 1.1//EN" "http://www.w3.org/Graphics/SVG/1.1/DTD/svg11.dtd">
<svg width="30px" height="30px" version="1.1" xmlns="http://www.w3.org/2000/svg" xmlns:xlink="http://www.w3.org/1999/xlink" xml:space="preserve" xmlns:serif="http://www.serif.com/" style="fill-rule:evenodd;clip-rule:evenodd;stroke-linejoin:round;stroke-miterlimit:2;">
    <path id="yellow" d="M23.112,7.649L23.112,10.827C23.112,13.292 21,15.365 18.591,15.365L11.364,15.365C9.384,15.365 7.746,17.041 7.746,19.002L7.746,25.818C7.746,27.757 9.451,28.898 11.364,29.454C13.654,30.12 15.851,30.241 18.591,29.454C20.413,28.933 22.209,27.883 22.209,25.818L22.209,23.09L14.982,23.09L14.982,22.181L25.827,22.181C27.93,22.181 28.714,20.73 29.445,18.552C30.201,16.31 30.169,14.154 29.445,11.278C28.926,9.207 27.933,7.649 25.827,7.649L23.112,7.649ZM19.047,24.908C19.797,24.908 20.404,25.516 20.404,26.268C20.404,27.022 19.797,27.636 19.047,27.636C18.299,27.636 17.689,27.022 17.689,26.268C17.689,25.516 18.299,24.908 19.047,24.908Z" style="fill:url(#_Linear1);fill-rule:nonzero;"/>
    <path id="blue" d="M14.821,0C13.584,0.006 12.403,0.11 11.364,0.292C8.301,0.827 7.746,1.947 7.746,4.012L7.746,6.74L14.982,6.74L14.982,7.649L5.03,7.649C2.927,7.649 1.085,8.9 0.51,11.278C-0.155,14.004 -0.184,15.705 0.51,18.552C1.024,20.671 2.252,22.181 4.355,22.181L6.843,22.181L6.843,18.911C6.843,16.548 8.91,14.464 11.364,14.464L18.591,14.464C20.603,14.464 22.209,12.826 22.209,10.827L22.209,4.012C22.209,2.073 20.555,0.616 18.591,0.292C17.348,0.088 16.058,-0.005 14.821,0ZM10.908,2.194C11.656,2.194 12.266,2.808 12.266,3.562C12.266,4.314 11.656,4.922 10.908,4.922C10.158,4.922 9.55,4.314 9.55,3.562C9.55,2.808 10.158,2.194 10.908,2.194Z" style="fill:url(#_Linear2);fill-rule:nonzero;"/>
    <g id="Layer1">
    </g>
    <defs>
        <linearGradient id="_Linear1" x1="0" y1="0" x2="1" y2="0.0102798" gradientUnits="userSpaceOnUse" gradientTransform="matrix(-5.91019,-8.35043,8.44264,-5.84564,18.8728,26.0385)"><stop offset="0" style="stop-color:rgb(255,212,59);stop-opacity:1"/><stop offset="1" style="stop-color:rgb(255,232,115);stop-opacity:1"/></linearGradient>
        <linearGradient id="_Linear2" x1="0" y1="0" x2="1" y2="0.0108903" gradientUnits="userSpaceOnUse" gradientTransform="matrix(16.5506,14.22,-14.377,16.3698,3.51433e-05,2.76992e-06)"><stop offset="0" style="stop-color:rgb(90,159,212);stop-opacity:1"/><stop offset="1" style="stop-color:rgb(48,105,152);stop-opacity:1"/></linearGradient>
    </defs>
</svg>
