<?xml version="1.0" encoding="UTF-8" standalone="no"?>
<!DOCTYPE svg PUBLIC "-//W3C//DTD SVG 1.1//EN" "http://www.w3.org/Graphics/SVG/1.1/DTD/svg11.dtd">
<svg width="30px" height="30px" version="1.1" xmlns="http://www.w3.org/2000/svg" xmlns:xlink="http://www.w3.org/1999/xlink" xml:space="preserve" xmlns:serif="http://www.serif.com/" style="fill-rule:evenodd;clip-rule:evenodd;stroke-miterlimit:1.5;">
    <rect x="0.5" y="0.398" width="29" height="29.102" style="fill:none;stroke:rgb(191,191,191);stroke-width:5px;"/>
    <rect x="2.826" y="2.822" width="24.323" height="4.178" style="fill:rgb(191,191,191);"/>
    <g id="radio-buttons" serif:id="radio buttons">
        <g id="text">
            <path d="M7.099,11.12L6.414,11.12L6.414,9.5L6.569,9.5L6.569,10.948L7.099,10.948L7.099,11.12Z" style="fill-rule:nonzero;"/>
            <path d="M7.675,11.147C7.536,11.147 7.425,11.093 7.341,10.985C7.258,10.877 7.217,10.733 7.217,10.555C7.217,10.361 7.26,10.209 7.346,10.1C7.433,9.99 7.55,9.936 7.697,9.936C7.838,9.936 7.947,9.989 8.026,10.095C8.105,10.201 8.145,10.349 8.145,10.537C8.145,10.721 8.102,10.869 8.017,10.98C7.932,11.091 7.818,11.147 7.675,11.147ZM7.686,10.092C7.589,10.092 7.512,10.132 7.456,10.213C7.4,10.294 7.371,10.406 7.371,10.548C7.371,10.685 7.4,10.793 7.457,10.872C7.514,10.952 7.59,10.991 7.686,10.991C7.784,10.991 7.859,10.952 7.911,10.875C7.964,10.797 7.99,10.687 7.99,10.544C7.99,10.399 7.964,10.288 7.911,10.209C7.859,10.131 7.784,10.092 7.686,10.092Z" style="fill-rule:nonzero;"/>
            <path d="M8.877,10.15C8.851,10.126 8.813,10.113 8.763,10.113C8.699,10.113 8.645,10.15 8.602,10.225C8.558,10.3 8.537,10.401 8.537,10.53L8.537,11.12L8.386,11.12L8.386,9.963L8.537,9.963L8.537,10.201L8.54,10.201C8.562,10.12 8.595,10.056 8.639,10.011C8.683,9.965 8.732,9.943 8.787,9.943C8.826,9.943 8.856,9.948 8.877,9.958L8.877,10.15Z" style="fill-rule:nonzero;"/>
            <path d="M9.799,10.588L9.133,10.588C9.136,10.717 9.164,10.816 9.218,10.886C9.272,10.956 9.346,10.991 9.441,10.991C9.547,10.991 9.644,10.948 9.733,10.862L9.733,11.036C9.651,11.11 9.541,11.147 9.405,11.147C9.272,11.147 9.167,11.094 9.091,10.989C9.015,10.884 8.977,10.736 8.977,10.546C8.977,10.366 9.018,10.219 9.101,10.106C9.185,9.992 9.288,9.936 9.411,9.936C9.535,9.936 9.63,9.985 9.697,10.083C9.765,10.181 9.799,10.317 9.799,10.491L9.799,10.588ZM9.644,10.431C9.643,10.324 9.622,10.24 9.581,10.181C9.54,10.121 9.482,10.092 9.408,10.092C9.337,10.092 9.277,10.123 9.227,10.185C9.177,10.248 9.147,10.33 9.135,10.431L9.644,10.431Z" style="fill-rule:nonzero;"/>
            <path d="M11.365,11.12L11.214,11.12L11.214,10.456C11.214,10.327 11.198,10.235 11.166,10.178C11.134,10.12 11.08,10.092 11.004,10.092C10.939,10.092 10.884,10.128 10.839,10.2C10.794,10.272 10.772,10.359 10.772,10.46L10.772,11.12L10.621,11.12L10.621,10.433C10.621,10.205 10.549,10.092 10.406,10.092C10.34,10.092 10.285,10.126 10.242,10.194C10.199,10.262 10.178,10.351 10.178,10.46L10.178,11.12L10.027,11.12L10.027,9.963L10.178,9.963L10.178,10.146L10.182,10.146C10.249,10.006 10.346,9.936 10.474,9.936C10.539,9.936 10.595,9.958 10.643,10.002C10.691,10.046 10.724,10.104 10.741,10.175C10.811,10.016 10.916,9.936 11.054,9.936C11.262,9.936 11.365,10.093 11.365,10.407L11.365,11.12Z" style="fill-rule:nonzero;"/>
            <rect x="12.187" y="9.5" width="0.155" height="1.62"/>
            <path d="M12.824,10.953L12.82,10.953L12.82,11.652L12.669,11.652L12.669,9.963L12.82,9.963L12.82,10.166L12.824,10.166C12.898,10.013 13.006,9.936 13.149,9.936C13.271,9.936 13.366,9.988 13.434,10.091C13.502,10.195 13.536,10.333 13.536,10.507C13.536,10.701 13.498,10.856 13.421,10.972C13.344,11.089 13.239,11.147 13.106,11.147C12.984,11.147 12.89,11.082 12.824,10.953ZM12.82,10.486L12.82,10.648C12.82,10.743 12.845,10.824 12.896,10.891C12.946,10.958 13.011,10.991 13.089,10.991C13.18,10.991 13.252,10.948 13.304,10.862C13.355,10.776 13.381,10.657 13.381,10.504C13.381,10.375 13.357,10.274 13.309,10.201C13.26,10.128 13.194,10.092 13.112,10.092C13.024,10.092 12.953,10.129 12.9,10.204C12.847,10.279 12.82,10.373 12.82,10.486Z" style="fill-rule:nonzero;"/>
            <path d="M13.72,11.078L13.72,10.879C13.802,10.954 13.893,10.991 13.992,10.991C14.124,10.991 14.19,10.937 14.19,10.828C14.19,10.797 14.185,10.771 14.173,10.75C14.162,10.728 14.147,10.709 14.127,10.693C14.108,10.676 14.085,10.661 14.059,10.648C14.033,10.635 14.005,10.621 13.975,10.607C13.933,10.587 13.897,10.566 13.865,10.545C13.833,10.525 13.807,10.501 13.786,10.475C13.765,10.449 13.749,10.42 13.738,10.387C13.727,10.353 13.722,10.315 13.722,10.27C13.722,10.216 13.732,10.168 13.752,10.126C13.773,10.084 13.8,10.049 13.833,10.021C13.867,9.993 13.906,9.972 13.949,9.957C13.992,9.943 14.037,9.936 14.083,9.936C14.164,9.936 14.237,9.953 14.302,9.988L14.302,10.175C14.233,10.12 14.153,10.092 14.063,10.092C14.034,10.092 14.009,10.096 13.986,10.104C13.963,10.111 13.944,10.123 13.928,10.137C13.911,10.151 13.899,10.168 13.89,10.188C13.881,10.208 13.877,10.23 13.877,10.254C13.877,10.285 13.881,10.31 13.89,10.33C13.899,10.35 13.912,10.369 13.929,10.384C13.946,10.4 13.967,10.414 13.992,10.427C14.016,10.44 14.044,10.454 14.075,10.469C14.117,10.489 14.155,10.509 14.188,10.53C14.221,10.55 14.249,10.574 14.272,10.6C14.296,10.626 14.314,10.655 14.326,10.689C14.339,10.723 14.345,10.764 14.345,10.81C14.345,10.868 14.335,10.917 14.314,10.959C14.294,11.002 14.266,11.037 14.232,11.064C14.198,11.092 14.158,11.113 14.113,11.127C14.068,11.14 14.021,11.147 13.972,11.147C13.875,11.147 13.791,11.124 13.72,11.078Z" style="fill-rule:nonzero;"/>
            <path d="M15.339,11.12L15.188,11.12L15.188,10.937L15.185,10.937C15.122,11.077 15.025,11.147 14.894,11.147C14.669,11.147 14.557,10.983 14.557,10.654L14.557,9.963L14.707,9.963L14.707,10.625C14.707,10.869 14.783,10.991 14.935,10.991C15.009,10.991 15.069,10.958 15.117,10.891C15.165,10.824 15.188,10.737 15.188,10.63L15.188,9.963L15.339,9.963L15.339,11.12Z" style="fill-rule:nonzero;"/>
            <path d="M16.982,11.12L16.831,11.12L16.831,10.456C16.831,10.327 16.815,10.235 16.783,10.178C16.751,10.12 16.697,10.092 16.621,10.092C16.556,10.092 16.501,10.128 16.456,10.2C16.411,10.272 16.389,10.359 16.389,10.46L16.389,11.12L16.238,11.12L16.238,10.433C16.238,10.205 16.166,10.092 16.023,10.092C15.957,10.092 15.902,10.126 15.859,10.194C15.816,10.262 15.795,10.351 15.795,10.46L15.795,11.12L15.644,11.12L15.644,9.963L15.795,9.963L15.795,10.146L15.799,10.146C15.865,10.006 15.963,9.936 16.091,9.936C16.156,9.936 16.212,9.958 16.26,10.002C16.308,10.046 16.34,10.104 16.358,10.175C16.428,10.016 16.533,9.936 16.671,9.936C16.879,9.936 16.982,10.093 16.982,10.407L16.982,11.12Z" style="fill-rule:nonzero;"/>
            <path d="M18.009,9.963L17.633,11.12L17.485,11.12L17.128,9.963L17.294,9.963L17.533,10.803C17.551,10.865 17.562,10.919 17.566,10.965L17.57,10.965C17.576,10.907 17.586,10.855 17.599,10.808L17.849,9.963L18.009,9.963Z" style="fill-rule:nonzero;"/>
        </g>
        <g id="text1" serif:id="text">
            <path d="M7.099,14.12L6.414,14.12L6.414,12.5L6.569,12.5L6.569,13.948L7.099,13.948L7.099,14.12Z" style="fill-rule:nonzero;"/>
            <path d="M7.675,14.147C7.536,14.147 7.425,14.093 7.341,13.985C7.258,13.877 7.217,13.733 7.217,13.555C7.217,13.361 7.26,13.209 7.346,13.1C7.433,12.99 7.55,12.936 7.697,12.936C7.838,12.936 7.947,12.989 8.026,13.095C8.105,13.201 8.145,13.349 8.145,13.537C8.145,13.721 8.102,13.869 8.017,13.98C7.932,14.091 7.818,14.147 7.675,14.147ZM7.686,13.092C7.589,13.092 7.512,13.132 7.456,13.213C7.4,13.294 7.371,13.406 7.371,13.548C7.371,13.685 7.4,13.793 7.457,13.872C7.514,13.952 7.59,13.991 7.686,13.991C7.784,13.991 7.859,13.952 7.911,13.875C7.964,13.797 7.99,13.687 7.99,13.544C7.99,13.399 7.964,13.288 7.911,13.209C7.859,13.131 7.784,13.092 7.686,13.092Z" style="fill-rule:nonzero;"/>
            <path d="M8.877,13.15C8.851,13.126 8.813,13.113 8.763,13.113C8.699,13.113 8.645,13.15 8.602,13.225C8.558,13.3 8.537,13.401 8.537,13.53L8.537,14.12L8.386,14.12L8.386,12.963L8.537,12.963L8.537,13.201L8.54,13.201C8.562,13.12 8.595,13.056 8.639,13.011C8.683,12.965 8.732,12.943 8.787,12.943C8.826,12.943 8.856,12.948 8.877,12.958L8.877,13.15Z" style="fill-rule:nonzero;"/>
            <path d="M9.799,13.588L9.133,13.588C9.136,13.717 9.164,13.816 9.218,13.886C9.272,13.956 9.346,13.991 9.441,13.991C9.547,13.991 9.644,13.948 9.733,13.862L9.733,14.036C9.651,14.11 9.541,14.147 9.405,14.147C9.272,14.147 9.167,14.094 9.091,13.989C9.015,13.884 8.977,13.736 8.977,13.546C8.977,13.366 9.018,13.219 9.101,13.106C9.185,12.992 9.288,12.936 9.411,12.936C9.535,12.936 9.63,12.985 9.697,13.083C9.765,13.181 9.799,13.317 9.799,13.491L9.799,13.588ZM9.644,13.431C9.643,13.324 9.622,13.24 9.581,13.181C9.54,13.121 9.482,13.092 9.408,13.092C9.337,13.092 9.277,13.123 9.227,13.185C9.177,13.248 9.147,13.33 9.135,13.431L9.644,13.431Z" style="fill-rule:nonzero;"/>
            <path d="M11.365,14.12L11.214,14.12L11.214,13.456C11.214,13.327 11.198,13.235 11.166,13.178C11.134,13.12 11.08,13.092 11.004,13.092C10.939,13.092 10.884,13.128 10.839,13.2C10.794,13.272 10.772,13.359 10.772,13.46L10.772,14.12L10.621,14.12L10.621,13.433C10.621,13.205 10.549,13.092 10.406,13.092C10.34,13.092 10.285,13.126 10.242,13.194C10.199,13.262 10.178,13.351 10.178,13.46L10.178,14.12L10.027,14.12L10.027,12.963L10.178,12.963L10.178,13.146L10.182,13.146C10.249,13.006 10.346,12.936 10.474,12.936C10.539,12.936 10.595,12.958 10.643,13.002C10.691,13.046 10.724,13.104 10.741,13.175C10.811,13.016 10.916,12.936 11.054,12.936C11.262,12.936 11.365,13.093 11.365,13.407L11.365,14.12Z" style="fill-rule:nonzero;"/>
            <rect x="12.187" y="12.5" width="0.155" height="1.62"/>
            <path d="M12.824,13.953L12.82,13.953L12.82,14.652L12.669,14.652L12.669,12.963L12.82,12.963L12.82,13.166L12.824,13.166C12.898,13.013 13.006,12.936 13.149,12.936C13.271,12.936 13.366,12.988 13.434,13.091C13.502,13.195 13.536,13.333 13.536,13.507C13.536,13.701 13.498,13.856 13.421,13.972C13.344,14.089 13.239,14.147 13.106,14.147C12.984,14.147 12.89,14.082 12.824,13.953ZM12.82,13.486L12.82,13.648C12.82,13.743 12.845,13.824 12.896,13.891C12.946,13.958 13.011,13.991 13.089,13.991C13.18,13.991 13.252,13.948 13.304,13.862C13.355,13.776 13.381,13.657 13.381,13.504C13.381,13.375 13.357,13.274 13.309,13.201C13.26,13.128 13.194,13.092 13.112,13.092C13.024,13.092 12.953,13.129 12.9,13.204C12.847,13.279 12.82,13.373 12.82,13.486Z" style="fill-rule:nonzero;"/>
            <path d="M13.72,14.078L13.72,13.879C13.802,13.954 13.893,13.991 13.992,13.991C14.124,13.991 14.19,13.937 14.19,13.828C14.19,13.797 14.185,13.771 14.173,13.75C14.162,13.728 14.147,13.709 14.127,13.693C14.108,13.676 14.085,13.661 14.059,13.648C14.033,13.635 14.005,13.621 13.975,13.607C13.933,13.587 13.897,13.566 13.865,13.545C13.833,13.525 13.807,13.501 13.786,13.475C13.765,13.449 13.749,13.42 13.738,13.387C13.727,13.353 13.722,13.315 13.722,13.27C13.722,13.216 13.732,13.168 13.752,13.126C13.773,13.084 13.8,13.049 13.833,13.021C13.867,12.993 13.906,12.972 13.949,12.957C13.992,12.943 14.037,12.936 14.083,12.936C14.164,12.936 14.237,12.953 14.302,12.988L14.302,13.175C14.233,13.12 14.153,13.092 14.063,13.092C14.034,13.092 14.009,13.096 13.986,13.104C13.963,13.111 13.944,13.123 13.928,13.137C13.911,13.151 13.899,13.168 13.89,13.188C13.881,13.208 13.877,13.23 13.877,13.254C13.877,13.285 13.881,13.31 13.89,13.33C13.899,13.35 13.912,13.369 13.929,13.384C13.946,13.4 13.967,13.414 13.992,13.427C14.016,13.44 14.044,13.454 14.075,13.469C14.117,13.489 14.155,13.509 14.188,13.53C14.221,13.55 14.249,13.574 14.272,13.6C14.296,13.626 14.314,13.655 14.326,13.689C14.339,13.723 14.345,13.764 14.345,13.81C14.345,13.868 14.335,13.917 14.314,13.959C14.294,14.002 14.266,14.037 14.232,14.064C14.198,14.092 14.158,14.113 14.113,14.127C14.068,14.14 14.021,14.147 13.972,14.147C13.875,14.147 13.791,14.124 13.72,14.078Z" style="fill-rule:nonzero;"/>
            <path d="M15.339,14.12L15.188,14.12L15.188,13.937L15.185,13.937C15.122,14.077 15.025,14.147 14.894,14.147C14.669,14.147 14.557,13.983 14.557,13.654L14.557,12.963L14.707,12.963L14.707,13.625C14.707,13.869 14.783,13.991 14.935,13.991C15.009,13.991 15.069,13.958 15.117,13.891C15.165,13.824 15.188,13.737 15.188,13.63L15.188,12.963L15.339,12.963L15.339,14.12Z" style="fill-rule:nonzero;"/>
            <path d="M16.982,14.12L16.831,14.12L16.831,13.456C16.831,13.327 16.815,13.235 16.783,13.178C16.751,13.12 16.697,13.092 16.621,13.092C16.556,13.092 16.501,13.128 16.456,13.2C16.411,13.272 16.389,13.359 16.389,13.46L16.389,14.12L16.238,14.12L16.238,13.433C16.238,13.205 16.166,13.092 16.023,13.092C15.957,13.092 15.902,13.126 15.859,13.194C15.816,13.262 15.795,13.351 15.795,13.46L15.795,14.12L15.644,14.12L15.644,12.963L15.795,12.963L15.795,13.146L15.799,13.146C15.865,13.006 15.963,12.936 16.091,12.936C16.156,12.936 16.212,12.958 16.26,13.002C16.308,13.046 16.34,13.104 16.358,13.175C16.428,13.016 16.533,12.936 16.671,12.936C16.879,12.936 16.982,13.093 16.982,13.407L16.982,14.12Z" style="fill-rule:nonzero;"/>
            <path d="M18.009,12.963L17.633,14.12L17.485,14.12L17.128,12.963L17.294,12.963L17.533,13.803C17.551,13.865 17.562,13.919 17.566,13.965L17.57,13.965C17.576,13.907 17.586,13.855 17.599,13.808L17.849,12.963L18.009,12.963Z" style="fill-rule:nonzero;"/>
            <path d="M20.026,14.12L19.875,14.12L19.875,13.456C19.875,13.327 19.859,13.235 19.826,13.178C19.794,13.12 19.74,13.092 19.664,13.092C19.599,13.092 19.545,13.128 19.5,13.2C19.454,13.272 19.432,13.359 19.432,13.46L19.432,14.12L19.281,14.12L19.281,13.433C19.281,13.205 19.209,13.092 19.066,13.092C19,13.092 18.946,13.126 18.903,13.194C18.86,13.262 18.838,13.351 18.838,13.46L18.838,14.12L18.687,14.12L18.687,12.963L18.838,12.963L18.838,13.146L18.842,13.146C18.909,13.006 19.006,12.936 19.135,12.936C19.199,12.936 19.255,12.958 19.303,13.002C19.351,13.046 19.384,13.104 19.401,13.175C19.471,13.016 19.576,12.936 19.714,12.936C19.922,12.936 20.026,13.093 20.026,13.407L20.026,14.12Z" style="fill-rule:nonzero;"/>
            <path d="M20.705,14.147C20.566,14.147 20.454,14.093 20.371,13.985C20.288,13.877 20.247,13.733 20.247,13.555C20.247,13.361 20.29,13.209 20.376,13.1C20.463,12.99 20.58,12.936 20.727,12.936C20.868,12.936 20.977,12.989 21.056,13.095C21.135,13.201 21.174,13.349 21.174,13.537C21.174,13.721 21.132,13.869 21.047,13.98C20.962,14.091 20.848,14.147 20.705,14.147ZM20.716,13.092C20.619,13.092 20.542,13.132 20.486,13.213C20.429,13.294 20.401,13.406 20.401,13.548C20.401,13.685 20.43,13.793 20.487,13.872C20.544,13.952 20.62,13.991 20.716,13.991C20.814,13.991 20.889,13.952 20.941,13.875C20.993,13.797 21.02,13.687 21.02,13.544C21.02,13.399 20.993,13.288 20.941,13.209C20.889,13.131 20.814,13.092 20.716,13.092Z" style="fill-rule:nonzero;"/>
            <path d="M21.907,13.15C21.881,13.126 21.843,13.113 21.793,13.113C21.729,13.113 21.675,13.15 21.631,13.225C21.588,13.3 21.567,13.401 21.567,13.53L21.567,14.12L21.416,14.12L21.416,12.963L21.567,12.963L21.567,13.201L21.57,13.201C21.592,13.12 21.625,13.056 21.669,13.011C21.713,12.965 21.762,12.943 21.817,12.943C21.856,12.943 21.886,12.948 21.907,12.958L21.907,13.15Z" style="fill-rule:nonzero;"/>
            <path d="M22.829,13.588L22.163,13.588C22.165,13.717 22.194,13.816 22.248,13.886C22.302,13.956 22.376,13.991 22.47,13.991C22.577,13.991 22.674,13.948 22.763,13.862L22.763,14.036C22.68,14.11 22.571,14.147 22.435,14.147C22.301,14.147 22.197,14.094 22.121,13.989C22.045,13.884 22.007,13.736 22.007,13.546C22.007,13.366 22.048,13.219 22.131,13.106C22.214,12.992 22.318,12.936 22.441,12.936C22.564,12.936 22.66,12.985 22.727,13.083C22.795,13.181 22.829,13.317 22.829,13.491L22.829,13.588ZM22.674,13.431C22.673,13.324 22.652,13.24 22.611,13.181C22.569,13.121 22.512,13.092 22.438,13.092C22.367,13.092 22.307,13.123 22.257,13.185C22.207,13.248 22.177,13.33 22.165,13.431L22.674,13.431Z" style="fill-rule:nonzero;"/>
            <path d="M24.01,14.109C23.975,14.133 23.928,14.145 23.87,14.145C23.705,14.145 23.622,14.032 23.622,13.806L23.622,13.121L23.46,13.121L23.46,12.963L23.622,12.963L23.622,12.68L23.773,12.621L23.773,12.963L24.01,12.963L24.01,13.121L23.773,13.121L23.773,13.773C23.773,13.851 23.784,13.906 23.805,13.939C23.827,13.972 23.862,13.989 23.912,13.989C23.95,13.989 23.983,13.976 24.01,13.95L24.01,14.109Z" style="fill-rule:nonzero;"/>
            <path d="M24.97,13.588L24.304,13.588C24.307,13.717 24.335,13.816 24.389,13.886C24.443,13.956 24.517,13.991 24.612,13.991C24.718,13.991 24.815,13.948 24.904,13.862L24.904,14.036C24.821,14.11 24.712,14.147 24.576,14.147C24.442,14.147 24.338,14.094 24.262,13.989C24.186,13.884 24.148,13.736 24.148,13.546C24.148,13.366 24.189,13.219 24.272,13.106C24.356,12.992 24.459,12.936 24.582,12.936C24.705,12.936 24.801,12.985 24.868,13.083C24.936,13.181 24.97,13.317 24.97,13.491L24.97,13.588ZM24.815,13.431C24.814,13.324 24.793,13.24 24.752,13.181C24.711,13.121 24.653,13.092 24.579,13.092C24.508,13.092 24.448,13.123 24.398,13.185C24.348,13.248 24.318,13.33 24.306,13.431L24.815,13.431Z" style="fill-rule:nonzero;"/>
            <path d="M25.886,12.963L25.57,13.548L25.881,14.12L25.705,14.12L25.52,13.745C25.508,13.721 25.495,13.692 25.479,13.657L25.475,13.657C25.472,13.663 25.458,13.693 25.432,13.745L25.243,14.12L25.069,14.12L25.39,13.553L25.083,12.963L25.259,12.963L25.441,13.358C25.454,13.388 25.468,13.418 25.481,13.449L25.484,13.449L25.72,12.963L25.886,12.963Z" style="fill-rule:nonzero;"/>
            <path d="M26.5,14.109C26.465,14.133 26.418,14.145 26.36,14.145C26.195,14.145 26.112,14.032 26.112,13.806L26.112,13.121L25.95,13.121L25.95,12.963L26.112,12.963L26.112,12.68L26.263,12.621L26.263,12.963L26.5,12.963L26.5,13.121L26.263,13.121L26.263,13.773C26.263,13.851 26.274,13.906 26.295,13.939C26.317,13.972 26.352,13.989 26.402,13.989C26.44,13.989 26.473,13.976 26.5,13.95L26.5,14.109Z" style="fill-rule:nonzero;"/>
        </g>
        <g id="text2" serif:id="text">
            <path d="M7.099,17.12L6.414,17.12L6.414,15.5L6.569,15.5L6.569,16.948L7.099,16.948L7.099,17.12Z" style="fill-rule:nonzero;"/>
            <path d="M7.675,17.147C7.536,17.147 7.425,17.093 7.341,16.985C7.258,16.877 7.217,16.733 7.217,16.555C7.217,16.361 7.26,16.209 7.346,16.1C7.433,15.99 7.55,15.936 7.697,15.936C7.838,15.936 7.947,15.989 8.026,16.095C8.105,16.201 8.145,16.349 8.145,16.537C8.145,16.721 8.102,16.869 8.017,16.98C7.932,17.091 7.818,17.147 7.675,17.147ZM7.686,16.092C7.589,16.092 7.512,16.132 7.456,16.213C7.4,16.294 7.371,16.406 7.371,16.548C7.371,16.685 7.4,16.793 7.457,16.872C7.514,16.952 7.59,16.991 7.686,16.991C7.784,16.991 7.859,16.952 7.911,16.875C7.964,16.797 7.99,16.687 7.99,16.544C7.99,16.399 7.964,16.288 7.911,16.209C7.859,16.131 7.784,16.092 7.686,16.092Z" style="fill-rule:nonzero;"/>
            <path d="M8.877,16.15C8.851,16.126 8.813,16.113 8.763,16.113C8.699,16.113 8.645,16.15 8.602,16.225C8.558,16.3 8.537,16.401 8.537,16.53L8.537,17.12L8.386,17.12L8.386,15.963L8.537,15.963L8.537,16.201L8.54,16.201C8.562,16.12 8.595,16.056 8.639,16.011C8.683,15.965 8.732,15.943 8.787,15.943C8.826,15.943 8.856,15.948 8.877,15.958L8.877,16.15Z" style="fill-rule:nonzero;"/>
            <path d="M9.799,16.588L9.133,16.588C9.136,16.717 9.164,16.816 9.218,16.886C9.272,16.956 9.346,16.991 9.441,16.991C9.547,16.991 9.644,16.948 9.733,16.862L9.733,17.036C9.651,17.11 9.541,17.147 9.405,17.147C9.272,17.147 9.167,17.094 9.091,16.989C9.015,16.884 8.977,16.736 8.977,16.546C8.977,16.366 9.018,16.219 9.101,16.106C9.185,15.992 9.288,15.936 9.411,15.936C9.535,15.936 9.63,15.985 9.697,16.083C9.765,16.181 9.799,16.317 9.799,16.491L9.799,16.588ZM9.644,16.431C9.643,16.324 9.622,16.24 9.581,16.181C9.54,16.121 9.482,16.092 9.408,16.092C9.337,16.092 9.277,16.123 9.227,16.185C9.177,16.248 9.147,16.33 9.135,16.431L9.644,16.431Z" style="fill-rule:nonzero;"/>
            <path d="M11.365,17.12L11.214,17.12L11.214,16.456C11.214,16.327 11.198,16.235 11.166,16.178C11.134,16.12 11.08,16.092 11.004,16.092C10.939,16.092 10.884,16.128 10.839,16.2C10.794,16.272 10.772,16.359 10.772,16.46L10.772,17.12L10.621,17.12L10.621,16.433C10.621,16.205 10.549,16.092 10.406,16.092C10.34,16.092 10.285,16.126 10.242,16.194C10.199,16.262 10.178,16.351 10.178,16.46L10.178,17.12L10.027,17.12L10.027,15.963L10.178,15.963L10.178,16.146L10.182,16.146C10.249,16.006 10.346,15.936 10.474,15.936C10.539,15.936 10.595,15.958 10.643,16.002C10.691,16.046 10.724,16.104 10.741,16.175C10.811,16.016 10.916,15.936 11.054,15.936C11.262,15.936 11.365,16.093 11.365,16.407L11.365,17.12Z" style="fill-rule:nonzero;"/>
            <rect x="12.187" y="15.5" width="0.155" height="1.62"/>
            <path d="M12.824,16.953L12.82,16.953L12.82,17.652L12.669,17.652L12.669,15.963L12.82,15.963L12.82,16.166L12.824,16.166C12.898,16.013 13.006,15.936 13.149,15.936C13.271,15.936 13.366,15.988 13.434,16.091C13.502,16.195 13.536,16.333 13.536,16.507C13.536,16.701 13.498,16.856 13.421,16.972C13.344,17.089 13.239,17.147 13.106,17.147C12.984,17.147 12.89,17.082 12.824,16.953ZM12.82,16.486L12.82,16.648C12.82,16.743 12.845,16.824 12.896,16.891C12.946,16.958 13.011,16.991 13.089,16.991C13.18,16.991 13.252,16.948 13.304,16.862C13.355,16.776 13.381,16.657 13.381,16.504C13.381,16.375 13.357,16.274 13.309,16.201C13.26,16.128 13.194,16.092 13.112,16.092C13.024,16.092 12.953,16.129 12.9,16.204C12.847,16.279 12.82,16.373 12.82,16.486Z" style="fill-rule:nonzero;"/>
            <path d="M13.72,17.078L13.72,16.879C13.802,16.954 13.893,16.991 13.992,16.991C14.124,16.991 14.19,16.937 14.19,16.828C14.19,16.797 14.185,16.771 14.173,16.75C14.162,16.728 14.147,16.709 14.127,16.693C14.108,16.676 14.085,16.661 14.059,16.648C14.033,16.635 14.005,16.621 13.975,16.607C13.933,16.587 13.897,16.566 13.865,16.545C13.833,16.525 13.807,16.501 13.786,16.475C13.765,16.449 13.749,16.42 13.738,16.387C13.727,16.353 13.722,16.315 13.722,16.27C13.722,16.216 13.732,16.168 13.752,16.126C13.773,16.084 13.8,16.049 13.833,16.021C13.867,15.993 13.906,15.972 13.949,15.957C13.992,15.943 14.037,15.936 14.083,15.936C14.164,15.936 14.237,15.953 14.302,15.988L14.302,16.175C14.233,16.12 14.153,16.092 14.063,16.092C14.034,16.092 14.009,16.096 13.986,16.104C13.963,16.111 13.944,16.123 13.928,16.137C13.911,16.151 13.899,16.168 13.89,16.188C13.881,16.208 13.877,16.23 13.877,16.254C13.877,16.285 13.881,16.31 13.89,16.33C13.899,16.35 13.912,16.369 13.929,16.384C13.946,16.4 13.967,16.414 13.992,16.427C14.016,16.44 14.044,16.454 14.075,16.469C14.117,16.489 14.155,16.509 14.188,16.53C14.221,16.55 14.249,16.574 14.272,16.6C14.296,16.626 14.314,16.655 14.326,16.689C14.339,16.723 14.345,16.764 14.345,16.81C14.345,16.868 14.335,16.917 14.314,16.959C14.294,17.002 14.266,17.037 14.232,17.064C14.198,17.092 14.158,17.113 14.113,17.127C14.068,17.14 14.021,17.147 13.972,17.147C13.875,17.147 13.791,17.124 13.72,17.078Z" style="fill-rule:nonzero;"/>
            <path d="M15.339,17.12L15.188,17.12L15.188,16.937L15.185,16.937C15.122,17.077 15.025,17.147 14.894,17.147C14.669,17.147 14.557,16.983 14.557,16.654L14.557,15.963L14.707,15.963L14.707,16.625C14.707,16.869 14.783,16.991 14.935,16.991C15.009,16.991 15.069,16.958 15.117,16.891C15.165,16.824 15.188,16.737 15.188,16.63L15.188,15.963L15.339,15.963L15.339,17.12Z" style="fill-rule:nonzero;"/>
            <path d="M16.982,17.12L16.831,17.12L16.831,16.456C16.831,16.327 16.815,16.235 16.783,16.178C16.751,16.12 16.697,16.092 16.621,16.092C16.556,16.092 16.501,16.128 16.456,16.2C16.411,16.272 16.389,16.359 16.389,16.46L16.389,17.12L16.238,17.12L16.238,16.433C16.238,16.205 16.166,16.092 16.023,16.092C15.957,16.092 15.902,16.126 15.859,16.194C15.816,16.262 15.795,16.351 15.795,16.46L15.795,17.12L15.644,17.12L15.644,15.963L15.795,15.963L15.795,16.146L15.799,16.146C15.865,16.006 15.963,15.936 16.091,15.936C16.156,15.936 16.212,15.958 16.26,16.002C16.308,16.046 16.34,16.104 16.358,16.175C16.428,16.016 16.533,15.936 16.671,15.936C16.879,15.936 16.982,16.093 16.982,16.407L16.982,17.12Z" style="fill-rule:nonzero;"/>
            <path d="M18.009,15.963L17.633,17.12L17.485,17.12L17.128,15.963L17.294,15.963L17.533,16.803C17.551,16.865 17.562,16.919 17.566,16.965L17.57,16.965C17.576,16.907 17.586,16.855 17.599,16.808L17.849,15.963L18.009,15.963Z" style="fill-rule:nonzero;"/>
            <path d="M18.63,17.078L18.63,16.879C18.712,16.954 18.803,16.991 18.902,16.991C19.034,16.991 19.1,16.937 19.1,16.828C19.1,16.797 19.095,16.771 19.083,16.75C19.072,16.728 19.057,16.709 19.037,16.693C19.018,16.676 18.995,16.661 18.969,16.648C18.943,16.635 18.915,16.621 18.885,16.607C18.843,16.587 18.807,16.566 18.775,16.545C18.743,16.525 18.717,16.501 18.696,16.475C18.675,16.449 18.659,16.42 18.648,16.387C18.637,16.353 18.632,16.315 18.632,16.27C18.632,16.216 18.642,16.168 18.662,16.126C18.683,16.084 18.71,16.049 18.743,16.021C18.777,15.993 18.816,15.972 18.859,15.957C18.902,15.943 18.947,15.936 18.993,15.936C19.074,15.936 19.147,15.953 19.212,15.988L19.212,16.175C19.143,16.12 19.063,16.092 18.973,16.092C18.944,16.092 18.919,16.096 18.896,16.104C18.873,16.111 18.854,16.123 18.838,16.137C18.821,16.151 18.809,16.168 18.8,16.188C18.791,16.208 18.787,16.23 18.787,16.254C18.787,16.285 18.791,16.31 18.8,16.33C18.809,16.35 18.822,16.369 18.839,16.384C18.856,16.4 18.877,16.414 18.902,16.427C18.926,16.44 18.954,16.454 18.985,16.469C19.027,16.489 19.065,16.509 19.098,16.53C19.131,16.55 19.159,16.574 19.182,16.6C19.206,16.626 19.224,16.655 19.236,16.689C19.249,16.723 19.255,16.764 19.255,16.81C19.255,16.868 19.245,16.917 19.224,16.959C19.204,17.002 19.176,17.037 19.142,17.064C19.108,17.092 19.068,17.113 19.023,17.127C18.978,17.14 18.931,17.147 18.882,17.147C18.785,17.147 18.701,17.124 18.63,17.078Z" style="fill-rule:nonzero;"/>
            <path d="M19.881,17.147C19.742,17.147 19.631,17.093 19.547,16.985C19.464,16.877 19.423,16.733 19.423,16.555C19.423,16.361 19.466,16.209 19.552,16.1C19.639,15.99 19.756,15.936 19.903,15.936C20.044,15.936 20.153,15.989 20.232,16.095C20.311,16.201 20.351,16.349 20.351,16.537C20.351,16.721 20.308,16.869 20.223,16.98C20.138,17.091 20.024,17.147 19.881,17.147ZM19.892,16.092C19.795,16.092 19.718,16.132 19.662,16.213C19.606,16.294 19.577,16.406 19.577,16.548C19.577,16.685 19.606,16.793 19.663,16.872C19.72,16.952 19.796,16.991 19.892,16.991C19.99,16.991 20.065,16.952 20.117,16.875C20.17,16.797 20.196,16.687 20.196,16.544C20.196,16.399 20.17,16.288 20.117,16.209C20.065,16.131 19.99,16.092 19.892,16.092Z" style="fill-rule:nonzero;"/>
            <path d="M21.93,17.12L21.779,17.12L21.779,16.456C21.779,16.327 21.763,16.235 21.731,16.178C21.699,16.12 21.644,16.092 21.568,16.092C21.504,16.092 21.449,16.128 21.404,16.2C21.359,16.272 21.336,16.359 21.336,16.46L21.336,17.12L21.185,17.12L21.185,16.433C21.185,16.205 21.114,16.092 20.971,16.092C20.905,16.092 20.85,16.126 20.807,16.194C20.764,16.262 20.743,16.351 20.743,16.46L20.743,17.12L20.592,17.12L20.592,15.963L20.743,15.963L20.743,16.146L20.746,16.146C20.813,16.006 20.911,15.936 21.039,15.936C21.103,15.936 21.16,15.958 21.208,16.002C21.255,16.046 21.288,16.104 21.306,16.175C21.376,16.016 21.48,15.936 21.619,15.936C21.826,15.936 21.93,16.093 21.93,16.407L21.93,17.12Z" style="fill-rule:nonzero;"/>
            <path d="M22.973,16.588L22.308,16.588C22.31,16.717 22.338,16.816 22.392,16.886C22.446,16.956 22.52,16.991 22.615,16.991C22.721,16.991 22.819,16.948 22.908,16.862L22.908,17.036C22.825,17.11 22.715,17.147 22.579,17.147C22.446,17.147 22.341,17.094 22.265,16.989C22.189,16.884 22.151,16.736 22.151,16.546C22.151,16.366 22.193,16.219 22.276,16.106C22.359,15.992 22.462,15.936 22.586,15.936C22.709,15.936 22.804,15.985 22.872,16.083C22.939,16.181 22.973,16.317 22.973,16.491L22.973,16.588ZM22.818,16.431C22.818,16.324 22.797,16.24 22.755,16.181C22.714,16.121 22.656,16.092 22.583,16.092C22.512,16.092 22.451,16.123 22.401,16.185C22.352,16.248 22.321,16.33 22.309,16.431L22.818,16.431Z" style="fill-rule:nonzero;"/>
        </g>
        <g id="Layer1">
            <circle cx="4.673" cy="16.412" r="0.673" style="fill:none;stroke:rgb(31,140,188);stroke-width:0.51px;stroke-linecap:round;stroke-linejoin:round;"/>
            <circle cx="4.69" cy="16.293" r="0.673" style="fill:none;stroke:rgb(31,140,188);stroke-width:0.51px;stroke-linecap:round;stroke-linejoin:round;"/>
        </g>
        <g id="Layer11" serif:id="Layer1">
            <circle cx="4.724" cy="13.276" r="0.673" style="fill:none;stroke:rgb(31,140,188);stroke-width:0.51px;stroke-linecap:round;stroke-linejoin:round;"/>
        </g>
        <g id="Layer12" serif:id="Layer1">
            <circle cx="4.673" cy="10.412" r="0.673" style="fill:none;stroke:rgb(31,140,188);stroke-width:0.51px;stroke-linecap:round;stroke-linejoin:round;"/>
        </g>
    </g>
    <g id="text3" serif:id="text">
        <path d="M4.248,5.287L3,5.287L3,0.069L3.472,0.069L3.472,4.334L4.248,4.334L4.248,5.287Z" style="fill-rule:nonzero;"/>
        <path d="M5.199,5.378C4.949,5.378 4.752,5.203 4.611,4.856C4.467,4.508 4.396,4.034 4.396,3.44C4.396,2.823 4.47,2.342 4.618,1.99C4.767,1.643 4.966,1.468 5.22,1.468C5.468,1.468 5.662,1.643 5.805,1.99C5.945,2.342 6.017,2.801 6.017,3.373C6.017,3.992 5.943,4.48 5.799,4.839C5.652,5.198 5.453,5.378 5.199,5.378ZM5.21,2.349C5.101,2.349 5.017,2.444 4.957,2.63C4.896,2.817 4.865,3.083 4.865,3.425C4.865,4.14 4.982,4.497 5.213,4.497C5.435,4.497 5.545,4.129 5.545,3.393C5.545,2.698 5.433,2.349 5.21,2.349Z" style="fill-rule:nonzero;"/>
        <path d="M7.292,2.598C7.238,2.524 7.172,2.485 7.098,2.485C6.998,2.485 6.919,2.578 6.864,2.76C6.807,2.944 6.779,3.191 6.779,3.507L6.779,5.287L6.316,5.287L6.316,1.559L6.779,1.559L6.779,2.252L6.784,2.252C6.858,1.749 6.989,1.494 7.18,1.494C7.227,1.494 7.265,1.509 7.292,1.541L7.292,2.598Z" style="fill-rule:nonzero;"/>
        <path d="M8.842,3.752L7.864,3.752C7.881,4.291 8.018,4.562 8.276,4.562C8.44,4.562 8.586,4.465 8.71,4.272L8.71,5.101C8.571,5.287 8.391,5.378 8.171,5.378C7.929,5.378 7.741,5.212 7.608,4.878C7.474,4.545 7.407,4.077 7.407,3.482C7.407,2.864 7.479,2.373 7.624,2.011C7.768,1.652 7.945,1.468 8.157,1.468C8.374,1.468 8.542,1.632 8.663,1.953C8.782,2.277 8.842,2.715 8.842,3.269L8.842,3.752ZM8.413,3.046C8.413,2.513 8.327,2.245 8.153,2.245C8.079,2.245 8.015,2.321 7.96,2.475C7.906,2.626 7.875,2.817 7.861,3.046L8.413,3.046Z" style="fill-rule:nonzero;"/>
        <path d="M11.494,5.287L11.035,5.287L11.035,3.163C11.035,2.62 10.953,2.349 10.794,2.349C10.717,2.349 10.657,2.433 10.609,2.594C10.561,2.758 10.537,2.96 10.537,3.202L10.537,5.287L10.075,5.287L10.075,3.141C10.075,2.613 9.997,2.349 9.839,2.349C9.761,2.349 9.697,2.427 9.649,2.583C9.603,2.737 9.579,2.949 9.579,3.217L9.579,5.287L9.117,5.287L9.117,1.559L9.579,1.559L9.579,2.141L9.585,2.141C9.633,1.946 9.7,1.782 9.786,1.658C9.872,1.531 9.967,1.468 10.069,1.468C10.281,1.468 10.426,1.702 10.504,2.165C10.617,1.702 10.785,1.468 11.006,1.468C11.331,1.468 11.494,1.97 11.494,2.968L11.494,5.287Z" style="fill-rule:nonzero;"/>
        <rect x="12.731" y="0.069" width="0.472" height="5.218"/>
        <path d="M14.104,4.854L14.098,4.854L14.098,7L13.635,7L13.635,1.559L14.098,1.559L14.098,2.122L14.104,2.122C14.217,1.686 14.378,1.468 14.584,1.468C14.778,1.468 14.929,1.634 15.034,1.968C15.141,2.299 15.193,2.748 15.193,3.319C15.193,3.938 15.131,4.438 15.008,4.813C14.885,5.19 14.721,5.378 14.515,5.378C14.336,5.378 14.198,5.203 14.104,4.854ZM14.089,3.325L14.089,3.624C14.089,3.88 14.118,4.092 14.172,4.254C14.226,4.417 14.298,4.497 14.388,4.497C14.494,4.497 14.575,4.397 14.632,4.194C14.691,3.992 14.72,3.704 14.72,3.334C14.72,2.678 14.617,2.349 14.411,2.349C14.318,2.349 14.24,2.438 14.181,2.618C14.12,2.797 14.089,3.031 14.089,3.325Z" style="fill-rule:nonzero;"/>
        <path d="M15.396,5.19L15.396,4.257C15.47,4.371 15.547,4.456 15.622,4.512C15.699,4.568 15.769,4.597 15.836,4.597C15.918,4.597 15.983,4.568 16.031,4.512C16.078,4.456 16.1,4.371 16.1,4.257C16.1,4.183 16.091,4.124 16.069,4.075C16.048,4.027 16.021,3.984 15.986,3.947C15.953,3.912 15.915,3.878 15.876,3.85C15.836,3.821 15.798,3.787 15.76,3.752C15.7,3.696 15.649,3.635 15.603,3.57C15.559,3.507 15.52,3.434 15.49,3.349C15.458,3.261 15.435,3.165 15.419,3.051C15.404,2.94 15.396,2.81 15.396,2.656C15.396,2.447 15.413,2.267 15.45,2.119C15.487,1.968 15.535,1.845 15.596,1.749C15.657,1.652 15.727,1.583 15.805,1.537C15.884,1.492 15.965,1.468 16.049,1.468C16.117,1.468 16.183,1.483 16.252,1.509C16.32,1.535 16.387,1.572 16.455,1.621L16.455,2.507C16.395,2.421 16.333,2.358 16.266,2.316C16.199,2.273 16.134,2.252 16.069,2.252C16.038,2.252 16.01,2.258 15.984,2.273C15.957,2.284 15.933,2.304 15.912,2.33C15.891,2.356 15.876,2.39 15.864,2.429C15.853,2.47 15.847,2.514 15.847,2.565C15.847,2.631 15.855,2.693 15.873,2.741C15.89,2.789 15.914,2.828 15.942,2.866C15.969,2.901 16.001,2.931 16.037,2.96C16.07,2.988 16.105,3.018 16.139,3.046C16.201,3.1 16.257,3.157 16.306,3.219C16.356,3.282 16.398,3.356 16.434,3.442C16.469,3.527 16.497,3.627 16.517,3.741C16.535,3.856 16.544,3.99 16.544,4.15C16.544,4.369 16.524,4.556 16.487,4.713C16.448,4.871 16.397,4.999 16.333,5.095C16.27,5.196 16.196,5.266 16.112,5.309C16.028,5.356 15.942,5.378 15.853,5.378C15.688,5.378 15.536,5.315 15.396,5.19Z" style="fill-rule:nonzero;"/>
        <path d="M18.234,5.287L17.773,5.287L17.773,4.72L17.765,4.72C17.652,5.159 17.499,5.378 17.308,5.378C16.96,5.378 16.788,4.856 16.788,3.81L16.788,1.559L17.248,1.559L17.248,3.707C17.248,4.235 17.332,4.497 17.499,4.497C17.582,4.497 17.649,4.426 17.698,4.28C17.747,4.138 17.773,3.941 17.773,3.692L17.773,1.559L18.234,1.559L18.234,5.287Z" style="fill-rule:nonzero;"/>
        <path d="M21,5.287L20.54,5.287L20.54,3.163C20.54,2.62 20.46,2.349 20.301,2.349C20.224,2.349 20.161,2.433 20.114,2.594C20.066,2.758 20.042,2.96 20.042,3.202L20.042,5.287L19.579,5.287L19.579,3.141C19.579,2.613 19.501,2.349 19.346,2.349C19.266,2.349 19.203,2.427 19.155,2.583C19.108,2.737 19.086,2.949 19.086,3.217L19.086,5.287L18.623,5.287L18.623,1.559L19.086,1.559L19.086,2.141L19.09,2.141C19.138,1.946 19.205,1.782 19.292,1.658C19.377,1.531 19.472,1.468 19.575,1.468C19.785,1.468 19.931,1.702 20.009,2.165C20.123,1.702 20.291,1.468 20.513,1.468C20.838,1.468 21,1.97 21,2.968L21,5.287Z" style="fill-rule:nonzero;"/>
    </g>
    <rect id="outer" x="0" y="0" width="30" height="30" style="fill:none;"/>
</svg>
