<?xml version="1.0" encoding="UTF-8" standalone="no"?>
<!DOCTYPE svg PUBLIC "-//W3C//DTD SVG 1.1//EN" "http://www.w3.org/Graphics/SVG/1.1/DTD/svg11.dtd">
<svg width="30px" height="30px" version="1.1" xmlns="http://www.w3.org/2000/svg" xmlns:xlink="http://www.w3.org/1999/xlink" xml:space="preserve" xmlns:serif="http://www.serif.com/" style="fill-rule:evenodd;clip-rule:evenodd;stroke-miterlimit:1.5;">
    <rect x="0.5" y="0.398" width="29" height="29.102" style="fill:none;stroke:rgb(191,191,191);stroke-width:5px;"/>
    <rect x="2.826" y="2.822" width="24.323" height="4.178" style="fill:rgb(191,191,191);"/>
    <g id="radio-buttons" serif:id="radio buttons">
        <g id="text">
            <path d="M9.283,19.12L8.68,19.12L8.68,17.5L8.816,17.5L8.816,18.948L9.283,18.948L9.283,19.12Z" style="fill-rule:nonzero;"/>
            <path d="M9.791,19.147C9.668,19.147 9.57,19.093 9.497,18.985C9.423,18.877 9.387,18.733 9.387,18.555C9.387,18.361 9.425,18.209 9.501,18.1C9.578,17.99 9.681,17.936 9.81,17.936C9.934,17.936 10.03,17.989 10.1,18.095C10.17,18.201 10.205,18.349 10.205,18.537C10.205,18.721 10.167,18.869 10.092,18.98C10.017,19.091 9.917,19.147 9.791,19.147ZM9.8,18.092C9.715,18.092 9.647,18.132 9.598,18.213C9.548,18.294 9.523,18.406 9.523,18.548C9.523,18.685 9.548,18.793 9.599,18.872C9.649,18.952 9.716,18.991 9.8,18.991C9.887,18.991 9.953,18.952 9.999,18.875C10.045,18.797 10.068,18.687 10.068,18.544C10.068,18.399 10.045,18.288 9.999,18.209C9.953,18.131 9.887,18.092 9.8,18.092Z" style="fill-rule:nonzero;"/>
            <path d="M10.85,18.15C10.827,18.126 10.793,18.113 10.749,18.113C10.693,18.113 10.645,18.15 10.607,18.225C10.569,18.3 10.55,18.401 10.55,18.53L10.55,19.12L10.417,19.12L10.417,17.963L10.55,17.963L10.55,18.201L10.553,18.201C10.572,18.12 10.601,18.056 10.64,18.011C10.679,17.965 10.722,17.943 10.77,17.943C10.805,17.943 10.831,17.948 10.85,17.958L10.85,18.15Z" style="fill-rule:nonzero;"/>
            <path d="M11.662,18.588L11.075,18.588C11.078,18.717 11.102,18.816 11.15,18.886C11.198,18.956 11.263,18.991 11.346,18.991C11.44,18.991 11.525,18.948 11.604,18.862L11.604,19.036C11.531,19.11 11.435,19.147 11.315,19.147C11.198,19.147 11.105,19.094 11.038,18.989C10.971,18.884 10.938,18.736 10.938,18.546C10.938,18.366 10.974,18.219 11.047,18.106C11.121,17.992 11.212,17.936 11.32,17.936C11.429,17.936 11.513,17.985 11.572,18.083C11.632,18.181 11.662,18.317 11.662,18.491L11.662,18.588ZM11.525,18.431C11.524,18.324 11.506,18.24 11.47,18.181C11.434,18.121 11.383,18.092 11.317,18.092C11.255,18.092 11.202,18.123 11.158,18.185C11.114,18.248 11.087,18.33 11.077,18.431L11.525,18.431Z" style="fill-rule:nonzero;"/>
            <path d="M13.041,19.12L12.908,19.12L12.908,18.456C12.908,18.327 12.894,18.235 12.866,18.178C12.838,18.12 12.79,18.092 12.723,18.092C12.666,18.092 12.618,18.128 12.578,18.2C12.538,18.272 12.519,18.359 12.519,18.46L12.519,19.12L12.386,19.12L12.386,18.433C12.386,18.205 12.323,18.092 12.197,18.092C12.138,18.092 12.09,18.126 12.052,18.194C12.014,18.262 11.996,18.351 11.996,18.46L11.996,19.12L11.863,19.12L11.863,17.963L11.996,17.963L11.996,18.146L11.999,18.146C12.058,18.006 12.144,17.936 12.256,17.936C12.314,17.936 12.363,17.958 12.405,18.002C12.448,18.046 12.477,18.104 12.492,18.175C12.553,18.016 12.646,17.936 12.767,17.936C12.951,17.936 13.041,18.093 13.041,18.407L13.041,19.12Z" style="fill-rule:nonzero;"/>
            <rect x="13.765" y="17.5" width="0.137" height="1.62"/>
            <path d="M14.327,18.953L14.323,18.953L14.323,19.652L14.19,19.652L14.19,17.963L14.323,17.963L14.323,18.166L14.327,18.166C14.392,18.013 14.487,17.936 14.613,17.936C14.72,17.936 14.804,17.988 14.864,18.091C14.924,18.195 14.954,18.333 14.954,18.507C14.954,18.701 14.92,18.856 14.853,18.972C14.785,19.089 14.692,19.147 14.575,19.147C14.468,19.147 14.385,19.082 14.327,18.953ZM14.323,18.486L14.323,18.648C14.323,18.743 14.345,18.824 14.39,18.891C14.434,18.958 14.491,18.991 14.56,18.991C14.64,18.991 14.704,18.948 14.749,18.862C14.794,18.776 14.817,18.657 14.817,18.504C14.817,18.375 14.796,18.274 14.754,18.201C14.711,18.128 14.653,18.092 14.58,18.092C14.503,18.092 14.44,18.129 14.394,18.204C14.347,18.279 14.323,18.373 14.323,18.486Z" style="fill-rule:nonzero;"/>
            <path d="M15.116,19.078L15.116,18.879C15.188,18.954 15.268,18.991 15.356,18.991C15.472,18.991 15.53,18.937 15.53,18.828C15.53,18.797 15.526,18.771 15.515,18.75C15.505,18.728 15.492,18.709 15.474,18.693C15.458,18.676 15.437,18.661 15.415,18.648C15.392,18.635 15.367,18.621 15.341,18.607C15.304,18.587 15.272,18.566 15.244,18.545C15.215,18.525 15.193,18.501 15.174,18.475C15.156,18.449 15.141,18.42 15.132,18.387C15.122,18.353 15.118,18.315 15.118,18.27C15.118,18.216 15.126,18.168 15.144,18.126C15.163,18.084 15.186,18.049 15.215,18.021C15.245,17.993 15.28,17.972 15.318,17.957C15.356,17.943 15.395,17.936 15.436,17.936C15.507,17.936 15.571,17.953 15.629,17.988L15.629,18.175C15.568,18.12 15.497,18.092 15.418,18.092C15.393,18.092 15.37,18.096 15.35,18.104C15.33,18.111 15.313,18.123 15.299,18.137C15.284,18.151 15.274,18.168 15.266,18.188C15.258,18.208 15.254,18.23 15.254,18.254C15.254,18.285 15.258,18.31 15.266,18.33C15.274,18.35 15.285,18.369 15.3,18.384C15.315,18.4 15.333,18.414 15.356,18.427C15.377,18.44 15.401,18.454 15.429,18.469C15.466,18.489 15.499,18.509 15.528,18.53C15.557,18.55 15.582,18.574 15.602,18.6C15.623,18.626 15.639,18.655 15.65,18.689C15.661,18.723 15.666,18.764 15.666,18.81C15.666,18.868 15.658,18.917 15.639,18.959C15.622,19.002 15.597,19.037 15.567,19.064C15.537,19.092 15.502,19.113 15.462,19.127C15.422,19.14 15.381,19.147 15.338,19.147C15.252,19.147 15.178,19.124 15.116,19.078Z" style="fill-rule:nonzero;"/>
            <path d="M16.542,19.12L16.409,19.12L16.409,18.937L16.406,18.937C16.351,19.077 16.266,19.147 16.15,19.147C15.952,19.147 15.853,18.983 15.853,18.654L15.853,17.963L15.985,17.963L15.985,18.625C15.985,18.869 16.052,18.991 16.186,18.991C16.251,18.991 16.304,18.958 16.347,18.891C16.389,18.824 16.409,18.737 16.409,18.63L16.409,17.963L16.542,17.963L16.542,19.12Z" style="fill-rule:nonzero;"/>
            <path d="M17.989,19.12L17.856,19.12L17.856,18.456C17.856,18.327 17.842,18.235 17.814,18.178C17.786,18.12 17.738,18.092 17.671,18.092C17.614,18.092 17.566,18.128 17.526,18.2C17.486,18.272 17.467,18.359 17.467,18.46L17.467,19.12L17.334,19.12L17.334,18.433C17.334,18.205 17.271,18.092 17.145,18.092C17.087,18.092 17.038,18.126 17,18.194C16.962,18.262 16.944,18.351 16.944,18.46L16.944,19.12L16.811,19.12L16.811,17.963L16.944,17.963L16.944,18.146L16.947,18.146C17.005,18.006 17.092,17.936 17.205,17.936C17.262,17.936 17.311,17.958 17.353,18.002C17.396,18.046 17.424,18.104 17.44,18.175C17.501,18.016 17.594,17.936 17.716,17.936C17.899,17.936 17.989,18.093 17.989,18.407L17.989,19.12Z" style="fill-rule:nonzero;"/>
            <path d="M18.894,17.963L18.563,19.12L18.433,19.12L18.118,17.963L18.264,17.963L18.475,18.803C18.491,18.865 18.5,18.919 18.504,18.965L18.507,18.965C18.513,18.907 18.522,18.855 18.533,18.808L18.753,17.963L18.894,17.963Z" style="fill-rule:nonzero;"/>
            <path d="M19.441,19.078L19.441,18.879C19.513,18.954 19.594,18.991 19.681,18.991C19.797,18.991 19.855,18.937 19.855,18.828C19.855,18.797 19.851,18.771 19.84,18.75C19.831,18.728 19.817,18.709 19.8,18.693C19.783,18.676 19.763,18.661 19.74,18.648C19.717,18.635 19.692,18.621 19.666,18.607C19.629,18.587 19.597,18.566 19.569,18.545C19.541,18.525 19.518,18.501 19.499,18.475C19.481,18.449 19.467,18.42 19.457,18.387C19.447,18.353 19.443,18.315 19.443,18.27C19.443,18.216 19.452,18.168 19.469,18.126C19.488,18.084 19.512,18.049 19.541,18.021C19.571,17.993 19.605,17.972 19.643,17.957C19.681,17.943 19.72,17.936 19.761,17.936C19.832,17.936 19.897,17.953 19.954,17.988L19.954,18.175C19.893,18.12 19.823,18.092 19.743,18.092C19.718,18.092 19.696,18.096 19.676,18.104C19.655,18.111 19.639,18.123 19.624,18.137C19.609,18.151 19.599,18.168 19.591,18.188C19.583,18.208 19.58,18.23 19.58,18.254C19.58,18.285 19.583,18.31 19.591,18.33C19.599,18.35 19.61,18.369 19.625,18.384C19.64,18.4 19.659,18.414 19.681,18.427C19.702,18.44 19.727,18.454 19.754,18.469C19.791,18.489 19.824,18.509 19.854,18.53C19.883,18.55 19.907,18.574 19.928,18.6C19.949,18.626 19.965,18.655 19.975,18.689C19.987,18.723 19.992,18.764 19.992,18.81C19.992,18.868 19.983,18.917 19.965,18.959C19.947,19.002 19.922,19.037 19.892,19.064C19.862,19.092 19.827,19.113 19.787,19.127C19.748,19.14 19.706,19.147 19.663,19.147C19.578,19.147 19.504,19.124 19.441,19.078Z" style="fill-rule:nonzero;"/>
            <path d="M20.543,19.147C20.421,19.147 20.323,19.093 20.249,18.985C20.176,18.877 20.14,18.733 20.14,18.555C20.14,18.361 20.178,18.209 20.253,18.1C20.33,17.99 20.433,17.936 20.563,17.936C20.687,17.936 20.783,17.989 20.852,18.095C20.922,18.201 20.957,18.349 20.957,18.537C20.957,18.721 20.919,18.869 20.845,18.98C20.77,19.091 20.669,19.147 20.543,19.147ZM20.553,18.092C20.468,18.092 20.4,18.132 20.35,18.213C20.301,18.294 20.275,18.406 20.275,18.548C20.275,18.685 20.301,18.793 20.351,18.872C20.401,18.952 20.468,18.991 20.553,18.991C20.639,18.991 20.705,18.952 20.751,18.875C20.798,18.797 20.821,18.687 20.821,18.544C20.821,18.399 20.798,18.288 20.751,18.209C20.705,18.131 20.639,18.092 20.553,18.092Z" style="fill-rule:nonzero;"/>
            <path d="M22.348,19.12L22.215,19.12L22.215,18.456C22.215,18.327 22.201,18.235 22.173,18.178C22.145,18.12 22.096,18.092 22.029,18.092C21.973,18.092 21.925,18.128 21.885,18.2C21.845,18.272 21.825,18.359 21.825,18.46L21.825,19.12L21.692,19.12L21.692,18.433C21.692,18.205 21.629,18.092 21.503,18.092C21.445,18.092 21.397,18.126 21.359,18.194C21.321,18.262 21.303,18.351 21.303,18.46L21.303,19.12L21.17,19.12L21.17,17.963L21.303,17.963L21.303,18.146L21.305,18.146C21.364,18.006 21.451,17.936 21.563,17.936C21.62,17.936 21.67,17.958 21.712,18.002C21.754,18.046 21.783,18.104 21.799,18.175C21.86,18.016 21.952,17.936 22.074,17.936C22.257,17.936 22.348,18.093 22.348,18.407L22.348,19.12Z" style="fill-rule:nonzero;"/>
            <path d="M23.267,18.588L22.681,18.588C22.683,18.717 22.708,18.816 22.755,18.886C22.803,18.956 22.868,18.991 22.952,18.991C23.045,18.991 23.131,18.948 23.21,18.862L23.21,19.036C23.137,19.11 23.04,19.147 22.92,19.147C22.803,19.147 22.71,19.094 22.643,18.989C22.576,18.884 22.543,18.736 22.543,18.546C22.543,18.366 22.58,18.219 22.653,18.106C22.726,17.992 22.817,17.936 22.926,17.936C23.035,17.936 23.118,17.985 23.178,18.083C23.237,18.181 23.267,18.317 23.267,18.491L23.267,18.588ZM23.131,18.431C23.131,18.324 23.112,18.24 23.075,18.181C23.039,18.121 22.988,18.092 22.924,18.092C22.861,18.092 22.807,18.123 22.763,18.185C22.72,18.248 22.693,18.33 22.682,18.431L23.131,18.431Z" style="fill-rule:nonzero;"/>
        </g>
        <g id="text1" serif:id="text">
            <path d="M9.409,14.8L8.806,14.8L8.806,13.18L8.942,13.18L8.942,14.628L9.409,14.628L9.409,14.8Z" style="fill-rule:nonzero;"/>
            <path d="M9.917,14.827C9.794,14.827 9.696,14.773 9.622,14.665C9.549,14.557 9.513,14.413 9.513,14.235C9.513,14.041 9.551,13.889 9.627,13.78C9.703,13.67 9.807,13.616 9.936,13.616C10.06,13.616 10.156,13.669 10.226,13.775C10.295,13.881 10.331,14.029 10.331,14.217C10.331,14.401 10.293,14.549 10.218,14.66C10.143,14.771 10.043,14.827 9.917,14.827ZM9.926,13.772C9.841,13.772 9.773,13.812 9.724,13.893C9.674,13.974 9.649,14.086 9.649,14.228C9.649,14.365 9.674,14.473 9.725,14.552C9.775,14.632 9.842,14.671 9.926,14.671C10.013,14.671 10.079,14.632 10.125,14.555C10.171,14.477 10.194,14.367 10.194,14.224C10.194,14.079 10.171,13.968 10.125,13.889C10.079,13.811 10.013,13.772 9.926,13.772Z" style="fill-rule:nonzero;"/>
            <path d="M10.976,13.83C10.953,13.806 10.919,13.793 10.875,13.793C10.819,13.793 10.771,13.83 10.733,13.905C10.694,13.98 10.676,14.081 10.676,14.21L10.676,14.8L10.543,14.8L10.543,13.643L10.676,13.643L10.676,13.881L10.679,13.881C10.698,13.8 10.727,13.736 10.766,13.691C10.805,13.645 10.848,13.623 10.896,13.623C10.931,13.623 10.957,13.628 10.976,13.638L10.976,13.83Z" style="fill-rule:nonzero;"/>
            <path d="M11.788,14.268L11.201,14.268C11.204,14.397 11.228,14.496 11.276,14.566C11.323,14.636 11.389,14.671 11.472,14.671C11.566,14.671 11.651,14.628 11.73,14.542L11.73,14.716C11.657,14.79 11.56,14.827 11.441,14.827C11.323,14.827 11.231,14.774 11.164,14.669C11.097,14.564 11.064,14.416 11.064,14.226C11.064,14.046 11.1,13.899 11.173,13.786C11.247,13.672 11.338,13.616 11.446,13.616C11.555,13.616 11.639,13.665 11.698,13.763C11.758,13.861 11.788,13.997 11.788,14.171L11.788,14.268ZM11.651,14.111C11.65,14.004 11.632,13.92 11.596,13.861C11.56,13.801 11.508,13.772 11.443,13.772C11.381,13.772 11.328,13.803 11.284,13.865C11.24,13.928 11.213,14.01 11.203,14.111L11.651,14.111Z" style="fill-rule:nonzero;"/>
            <path d="M13.167,14.8L13.034,14.8L13.034,14.136C13.034,14.007 13.02,13.915 12.992,13.858C12.964,13.8 12.916,13.772 12.849,13.772C12.792,13.772 12.744,13.808 12.704,13.88C12.664,13.952 12.645,14.039 12.645,14.14L12.645,14.8L12.512,14.8L12.512,14.113C12.512,13.885 12.448,13.772 12.322,13.772C12.264,13.772 12.216,13.806 12.178,13.874C12.14,13.942 12.122,14.031 12.122,14.14L12.122,14.8L11.989,14.8L11.989,13.643L12.122,13.643L12.122,13.826L12.125,13.826C12.184,13.686 12.27,13.616 12.382,13.616C12.44,13.616 12.489,13.638 12.531,13.682C12.574,13.726 12.603,13.784 12.618,13.855C12.679,13.696 12.772,13.616 12.893,13.616C13.077,13.616 13.167,13.773 13.167,14.087L13.167,14.8Z" style="fill-rule:nonzero;"/>
            <rect x="13.891" y="13.18" width="0.137" height="1.62"/>
            <path d="M14.453,14.633L14.449,14.633L14.449,15.332L14.316,15.332L14.316,13.643L14.449,13.643L14.449,13.846L14.453,13.846C14.518,13.693 14.613,13.616 14.739,13.616C14.846,13.616 14.93,13.668 14.99,13.771C15.05,13.875 15.08,14.013 15.08,14.187C15.08,14.381 15.046,14.536 14.978,14.652C14.911,14.769 14.818,14.827 14.701,14.827C14.593,14.827 14.511,14.762 14.453,14.633ZM14.449,14.166L14.449,14.328C14.449,14.423 14.471,14.504 14.516,14.571C14.56,14.638 14.617,14.671 14.686,14.671C14.766,14.671 14.83,14.628 14.875,14.542C14.92,14.456 14.943,14.337 14.943,14.184C14.943,14.055 14.922,13.954 14.88,13.881C14.837,13.808 14.778,13.772 14.706,13.772C14.629,13.772 14.566,13.809 14.519,13.884C14.473,13.959 14.449,14.053 14.449,14.166Z" style="fill-rule:nonzero;"/>
            <path d="M15.242,14.758L15.242,14.559C15.314,14.634 15.394,14.671 15.481,14.671C15.598,14.671 15.656,14.617 15.656,14.508C15.656,14.477 15.651,14.451 15.641,14.43C15.631,14.408 15.618,14.389 15.6,14.373C15.584,14.356 15.563,14.341 15.54,14.328C15.518,14.315 15.493,14.301 15.466,14.287C15.429,14.267 15.398,14.246 15.37,14.225C15.341,14.205 15.318,14.181 15.3,14.155C15.281,14.129 15.267,14.1 15.258,14.067C15.248,14.033 15.244,13.995 15.244,13.95C15.244,13.896 15.252,13.848 15.27,13.806C15.289,13.764 15.312,13.729 15.341,13.701C15.371,13.673 15.406,13.652 15.444,13.637C15.481,13.623 15.521,13.616 15.562,13.616C15.633,13.616 15.697,13.633 15.755,13.668L15.755,13.855C15.694,13.8 15.623,13.772 15.544,13.772C15.518,13.772 15.496,13.776 15.476,13.784C15.456,13.791 15.439,13.803 15.425,13.817C15.41,13.831 15.399,13.848 15.392,13.868C15.384,13.888 15.38,13.91 15.38,13.934C15.38,13.965 15.384,13.99 15.392,14.01C15.399,14.03 15.411,14.049 15.426,14.064C15.441,14.08 15.459,14.094 15.481,14.107C15.503,14.12 15.527,14.134 15.555,14.149C15.592,14.169 15.625,14.189 15.654,14.21C15.683,14.23 15.708,14.254 15.728,14.28C15.749,14.306 15.765,14.335 15.776,14.369C15.787,14.403 15.792,14.444 15.792,14.49C15.792,14.548 15.784,14.597 15.765,14.639C15.747,14.682 15.723,14.717 15.693,14.744C15.663,14.772 15.628,14.793 15.588,14.807C15.548,14.82 15.507,14.827 15.464,14.827C15.378,14.827 15.304,14.804 15.242,14.758Z" style="fill-rule:nonzero;"/>
            <path d="M16.668,14.8L16.535,14.8L16.535,14.617L16.532,14.617C16.477,14.757 16.391,14.827 16.276,14.827C16.078,14.827 15.979,14.663 15.979,14.334L15.979,13.643L16.111,13.643L16.111,14.305C16.111,14.549 16.178,14.671 16.312,14.671C16.377,14.671 16.43,14.638 16.472,14.571C16.515,14.504 16.535,14.417 16.535,14.31L16.535,13.643L16.668,13.643L16.668,14.8Z" style="fill-rule:nonzero;"/>
            <path d="M18.115,14.8L17.982,14.8L17.982,14.136C17.982,14.007 17.968,13.915 17.94,13.858C17.912,13.8 17.864,13.772 17.797,13.772C17.74,13.772 17.692,13.808 17.652,13.88C17.612,13.952 17.593,14.039 17.593,14.14L17.593,14.8L17.46,14.8L17.46,14.113C17.46,13.885 17.397,13.772 17.271,13.772C17.212,13.772 17.164,13.806 17.126,13.874C17.088,13.942 17.07,14.031 17.07,14.14L17.07,14.8L16.937,14.8L16.937,13.643L17.07,13.643L17.07,13.826L17.073,13.826C17.131,13.686 17.218,13.616 17.33,13.616C17.388,13.616 17.437,13.638 17.479,13.682C17.522,13.726 17.55,13.784 17.566,13.855C17.627,13.696 17.72,13.616 17.841,13.616C18.025,13.616 18.115,13.773 18.115,14.087L18.115,14.8Z" style="fill-rule:nonzero;"/>
            <path d="M19.02,13.643L18.689,14.8L18.558,14.8L18.244,13.643L18.39,13.643L18.601,14.483C18.617,14.545 18.626,14.599 18.63,14.645L18.633,14.645C18.639,14.587 18.647,14.535 18.659,14.488L18.879,13.643L19.02,13.643Z" style="fill-rule:nonzero;"/>
            <path d="M20.797,14.8L20.664,14.8L20.664,14.136C20.664,14.007 20.65,13.915 20.621,13.858C20.593,13.8 20.545,13.772 20.478,13.772C20.421,13.772 20.373,13.808 20.334,13.88C20.293,13.952 20.274,14.039 20.274,14.14L20.274,14.8L20.141,14.8L20.141,14.113C20.141,13.885 20.077,13.772 19.951,13.772C19.893,13.772 19.846,13.806 19.808,13.874C19.77,13.942 19.75,14.031 19.75,14.14L19.75,14.8L19.617,14.8L19.617,13.643L19.75,13.643L19.75,13.826L19.754,13.826C19.813,13.686 19.898,13.616 20.012,13.616C20.068,13.616 20.118,13.638 20.16,13.682C20.202,13.726 20.231,13.784 20.246,13.855C20.308,13.696 20.4,13.616 20.522,13.616C20.705,13.616 20.797,13.773 20.797,14.087L20.797,14.8Z" style="fill-rule:nonzero;"/>
            <path d="M21.395,14.827C21.273,14.827 21.174,14.773 21.101,14.665C21.028,14.557 20.992,14.413 20.992,14.235C20.992,14.041 21.029,13.889 21.105,13.78C21.182,13.67 21.285,13.616 21.414,13.616C21.539,13.616 21.635,13.669 21.704,13.775C21.774,13.881 21.808,14.029 21.808,14.217C21.808,14.401 21.771,14.549 21.696,14.66C21.621,14.771 21.521,14.827 21.395,14.827ZM21.405,13.772C21.319,13.772 21.251,13.812 21.202,13.893C21.152,13.974 21.127,14.086 21.127,14.228C21.127,14.365 21.153,14.473 21.203,14.552C21.253,14.632 21.32,14.671 21.405,14.671C21.491,14.671 21.557,14.632 21.603,14.555C21.649,14.477 21.673,14.367 21.673,14.224C21.673,14.079 21.649,13.968 21.603,13.889C21.557,13.811 21.491,13.772 21.405,13.772Z" style="fill-rule:nonzero;"/>
            <path d="M22.454,13.83C22.431,13.806 22.398,13.793 22.353,13.793C22.297,13.793 22.25,13.83 22.211,13.905C22.173,13.98 22.154,14.081 22.154,14.21L22.154,14.8L22.021,14.8L22.021,13.643L22.154,13.643L22.154,13.881L22.157,13.881C22.176,13.8 22.206,13.736 22.244,13.691C22.283,13.645 22.326,13.623 22.375,13.623C22.409,13.623 22.435,13.628 22.454,13.638L22.454,13.83Z" style="fill-rule:nonzero;"/>
            <path d="M23.266,14.268L22.679,14.268C22.681,14.397 22.707,14.496 22.754,14.566C22.802,14.636 22.867,14.671 22.95,14.671C23.044,14.671 23.13,14.628 23.208,14.542L23.208,14.716C23.135,14.79 23.039,14.827 22.919,14.827C22.801,14.827 22.709,14.774 22.642,14.669C22.575,14.564 22.542,14.416 22.542,14.226C22.542,14.046 22.578,13.899 22.651,13.786C22.724,13.672 22.816,13.616 22.924,13.616C23.033,13.616 23.117,13.665 23.176,13.763C23.236,13.861 23.266,13.997 23.266,14.171L23.266,14.268ZM23.13,14.111C23.129,14.004 23.11,13.92 23.074,13.861C23.037,13.801 22.987,13.772 22.922,13.772C22.859,13.772 22.806,13.803 22.762,13.865C22.718,13.928 22.692,14.01 22.681,14.111L23.13,14.111Z" style="fill-rule:nonzero;"/>
            <path d="M24.307,14.789C24.276,14.813 24.234,14.825 24.183,14.825C24.038,14.825 23.965,14.712 23.965,14.486L23.965,13.801L23.822,13.801L23.822,13.643L23.965,13.643L23.965,13.36L24.098,13.301L24.098,13.643L24.307,13.643L24.307,13.801L24.098,13.801L24.098,14.453C24.098,14.531 24.107,14.586 24.126,14.619C24.145,14.652 24.176,14.669 24.22,14.669C24.254,14.669 24.283,14.656 24.307,14.63L24.307,14.789Z" style="fill-rule:nonzero;"/>
            <path d="M25.152,14.268L24.565,14.268C24.568,14.397 24.593,14.496 24.64,14.566C24.688,14.636 24.753,14.671 24.837,14.671C24.93,14.671 25.016,14.628 25.094,14.542L25.094,14.716C25.021,14.79 24.925,14.827 24.805,14.827C24.687,14.827 24.595,14.774 24.528,14.669C24.462,14.564 24.428,14.416 24.428,14.226C24.428,14.046 24.464,13.899 24.537,13.786C24.611,13.672 24.702,13.616 24.81,13.616C24.919,13.616 25.003,13.665 25.062,13.763C25.122,13.861 25.152,13.997 25.152,14.171L25.152,14.268ZM25.016,14.111C25.015,14.004 24.996,13.92 24.96,13.861C24.924,13.801 24.873,13.772 24.808,13.772C24.745,13.772 24.692,13.803 24.648,13.865C24.604,13.928 24.578,14.01 24.567,14.111L25.016,14.111Z" style="fill-rule:nonzero;"/>
            <path d="M25.959,13.643L25.681,14.228L25.955,14.8L25.8,14.8L25.637,14.425C25.626,14.401 25.615,14.372 25.601,14.337L25.597,14.337C25.594,14.343 25.582,14.373 25.559,14.425L25.393,14.8L25.239,14.8L25.522,14.233L25.252,13.643L25.407,13.643L25.567,14.038C25.579,14.068 25.591,14.098 25.602,14.129L25.605,14.129L25.813,13.643L25.959,13.643Z" style="fill-rule:nonzero;"/>
            <path d="M26.5,14.789C26.469,14.813 26.428,14.825 26.377,14.825C26.231,14.825 26.158,14.712 26.158,14.486L26.158,13.801L26.015,13.801L26.015,13.643L26.158,13.643L26.158,13.36L26.291,13.301L26.291,13.643L26.5,13.643L26.5,13.801L26.291,13.801L26.291,14.453C26.291,14.531 26.301,14.586 26.319,14.619C26.339,14.652 26.37,14.669 26.414,14.669C26.447,14.669 26.476,14.656 26.5,14.63L26.5,14.789Z" style="fill-rule:nonzero;"/>
        </g>
        <g id="text2" serif:id="text">
            <path d="M9.409,10.468L8.806,10.468L8.806,8.848L8.942,8.848L8.942,10.296L9.409,10.296L9.409,10.468Z" style="fill-rule:nonzero;"/>
            <path d="M9.917,10.495C9.794,10.495 9.696,10.441 9.622,10.333C9.549,10.225 9.513,10.081 9.513,9.903C9.513,9.709 9.551,9.557 9.627,9.448C9.703,9.338 9.807,9.284 9.936,9.284C10.06,9.284 10.156,9.337 10.226,9.443C10.295,9.549 10.331,9.697 10.331,9.885C10.331,10.069 10.293,10.217 10.218,10.328C10.143,10.439 10.043,10.495 9.917,10.495ZM9.926,9.44C9.841,9.44 9.773,9.48 9.724,9.561C9.674,9.642 9.649,9.754 9.649,9.896C9.649,10.033 9.674,10.141 9.725,10.22C9.775,10.3 9.842,10.339 9.926,10.339C10.013,10.339 10.079,10.3 10.125,10.223C10.171,10.145 10.194,10.035 10.194,9.892C10.194,9.747 10.171,9.636 10.125,9.557C10.079,9.479 10.013,9.44 9.926,9.44Z" style="fill-rule:nonzero;"/>
            <path d="M10.976,9.498C10.953,9.474 10.919,9.461 10.875,9.461C10.819,9.461 10.771,9.498 10.733,9.573C10.694,9.648 10.676,9.749 10.676,9.878L10.676,10.468L10.543,10.468L10.543,9.311L10.676,9.311L10.676,9.549L10.679,9.549C10.698,9.468 10.727,9.404 10.766,9.359C10.805,9.313 10.848,9.291 10.896,9.291C10.931,9.291 10.957,9.296 10.976,9.306L10.976,9.498Z" style="fill-rule:nonzero;"/>
            <path d="M11.788,9.936L11.201,9.936C11.204,10.065 11.228,10.164 11.276,10.234C11.323,10.304 11.389,10.339 11.472,10.339C11.566,10.339 11.651,10.296 11.73,10.21L11.73,10.384C11.657,10.458 11.56,10.495 11.441,10.495C11.323,10.495 11.231,10.442 11.164,10.337C11.097,10.232 11.064,10.084 11.064,9.894C11.064,9.714 11.1,9.567 11.173,9.454C11.247,9.34 11.338,9.284 11.446,9.284C11.555,9.284 11.639,9.333 11.698,9.431C11.758,9.529 11.788,9.665 11.788,9.839L11.788,9.936ZM11.651,9.779C11.65,9.672 11.632,9.588 11.596,9.529C11.56,9.469 11.508,9.44 11.443,9.44C11.381,9.44 11.328,9.471 11.284,9.533C11.24,9.596 11.213,9.678 11.203,9.779L11.651,9.779Z" style="fill-rule:nonzero;"/>
            <path d="M13.167,10.468L13.034,10.468L13.034,9.804C13.034,9.675 13.02,9.583 12.992,9.526C12.964,9.468 12.916,9.44 12.849,9.44C12.792,9.44 12.744,9.476 12.704,9.548C12.664,9.62 12.645,9.707 12.645,9.808L12.645,10.468L12.512,10.468L12.512,9.781C12.512,9.553 12.448,9.44 12.322,9.44C12.264,9.44 12.216,9.474 12.178,9.542C12.14,9.61 12.122,9.699 12.122,9.808L12.122,10.468L11.989,10.468L11.989,9.311L12.122,9.311L12.122,9.494L12.125,9.494C12.184,9.354 12.27,9.284 12.382,9.284C12.44,9.284 12.489,9.306 12.531,9.35C12.574,9.394 12.603,9.452 12.618,9.523C12.679,9.364 12.772,9.284 12.893,9.284C13.077,9.284 13.167,9.441 13.167,9.755L13.167,10.468Z" style="fill-rule:nonzero;"/>
            <rect x="13.891" y="8.848" width="0.137" height="1.62"/>
            <path d="M14.453,10.301L14.449,10.301L14.449,11L14.316,11L14.316,9.311L14.449,9.311L14.449,9.514L14.453,9.514C14.518,9.361 14.613,9.284 14.739,9.284C14.846,9.284 14.93,9.336 14.99,9.439C15.05,9.543 15.08,9.681 15.08,9.855C15.08,10.049 15.046,10.204 14.978,10.32C14.911,10.437 14.818,10.495 14.701,10.495C14.593,10.495 14.511,10.43 14.453,10.301ZM14.449,9.834L14.449,9.996C14.449,10.091 14.471,10.172 14.516,10.239C14.56,10.306 14.617,10.339 14.686,10.339C14.766,10.339 14.83,10.296 14.875,10.21C14.92,10.124 14.943,10.005 14.943,9.852C14.943,9.723 14.922,9.622 14.88,9.549C14.837,9.476 14.778,9.44 14.706,9.44C14.629,9.44 14.566,9.477 14.519,9.552C14.473,9.627 14.449,9.721 14.449,9.834Z" style="fill-rule:nonzero;"/>
            <path d="M15.242,10.426L15.242,10.227C15.314,10.302 15.394,10.339 15.481,10.339C15.598,10.339 15.656,10.285 15.656,10.176C15.656,10.145 15.651,10.119 15.641,10.098C15.631,10.076 15.618,10.057 15.6,10.041C15.584,10.024 15.563,10.009 15.54,9.996C15.518,9.983 15.493,9.969 15.466,9.955C15.429,9.935 15.398,9.914 15.37,9.893C15.341,9.873 15.318,9.849 15.3,9.823C15.281,9.797 15.267,9.768 15.258,9.735C15.248,9.701 15.244,9.663 15.244,9.618C15.244,9.564 15.252,9.516 15.27,9.474C15.289,9.432 15.312,9.397 15.341,9.369C15.371,9.341 15.406,9.32 15.444,9.305C15.481,9.291 15.521,9.284 15.562,9.284C15.633,9.284 15.697,9.301 15.755,9.336L15.755,9.523C15.694,9.468 15.623,9.44 15.544,9.44C15.518,9.44 15.496,9.444 15.476,9.452C15.456,9.459 15.439,9.471 15.425,9.485C15.41,9.499 15.399,9.516 15.392,9.536C15.384,9.556 15.38,9.578 15.38,9.602C15.38,9.633 15.384,9.658 15.392,9.678C15.399,9.698 15.411,9.717 15.426,9.732C15.441,9.748 15.459,9.762 15.481,9.775C15.503,9.788 15.527,9.802 15.555,9.817C15.592,9.837 15.625,9.857 15.654,9.878C15.683,9.898 15.708,9.922 15.728,9.948C15.749,9.974 15.765,10.003 15.776,10.037C15.787,10.071 15.792,10.112 15.792,10.158C15.792,10.216 15.784,10.265 15.765,10.307C15.747,10.35 15.723,10.385 15.693,10.412C15.663,10.44 15.628,10.461 15.588,10.475C15.548,10.488 15.507,10.495 15.464,10.495C15.378,10.495 15.304,10.472 15.242,10.426Z" style="fill-rule:nonzero;"/>
            <path d="M16.668,10.468L16.535,10.468L16.535,10.285L16.532,10.285C16.477,10.425 16.391,10.495 16.276,10.495C16.078,10.495 15.979,10.331 15.979,10.002L15.979,9.311L16.111,9.311L16.111,9.973C16.111,10.217 16.178,10.339 16.312,10.339C16.377,10.339 16.43,10.306 16.472,10.239C16.515,10.172 16.535,10.085 16.535,9.978L16.535,9.311L16.668,9.311L16.668,10.468Z" style="fill-rule:nonzero;"/>
            <path d="M18.115,10.468L17.982,10.468L17.982,9.804C17.982,9.675 17.968,9.583 17.94,9.526C17.912,9.468 17.864,9.44 17.797,9.44C17.74,9.44 17.692,9.476 17.652,9.548C17.612,9.62 17.593,9.707 17.593,9.808L17.593,10.468L17.46,10.468L17.46,9.781C17.46,9.553 17.397,9.44 17.271,9.44C17.212,9.44 17.164,9.474 17.126,9.542C17.088,9.61 17.07,9.699 17.07,9.808L17.07,10.468L16.937,10.468L16.937,9.311L17.07,9.311L17.07,9.494L17.073,9.494C17.131,9.354 17.218,9.284 17.33,9.284C17.388,9.284 17.437,9.306 17.479,9.35C17.522,9.394 17.55,9.452 17.566,9.523C17.627,9.364 17.72,9.284 17.841,9.284C18.025,9.284 18.115,9.441 18.115,9.755L18.115,10.468Z" style="fill-rule:nonzero;"/>
            <path d="M19.02,9.311L18.689,10.468L18.558,10.468L18.244,9.311L18.39,9.311L18.601,10.151C18.617,10.213 18.626,10.267 18.63,10.313L18.633,10.313C18.639,10.255 18.647,10.203 18.659,10.156L18.879,9.311L19.02,9.311Z" style="fill-rule:nonzero;"/>
        </g>
        <g id="Layer1">
            <circle cx="5.301" cy="18.538" r="1.199" style="fill:white;stroke:rgb(31,140,188);stroke-width:0.91px;stroke-linecap:round;stroke-linejoin:round;"/>
        </g>
        <g id="Layer11" serif:id="Layer1">
            <circle cx="5.323" cy="14.177" r="1.323" style="fill:white;stroke:rgb(31,140,188);stroke-width:1px;stroke-linecap:round;stroke-linejoin:round;"/>
        </g>
        <g id="Layer12" serif:id="Layer1">
            <circle cx="5.25" cy="9.835" r="1.25" style="fill:white;stroke:rgb(31,46,188);stroke-width:0.95px;stroke-linecap:round;stroke-linejoin:round;"/>
        </g>
    </g>
    <g id="text3" serif:id="text">
        <path d="M4.248,4.803L3,4.803L3,1.157L3.472,1.157L3.472,4.137L4.248,4.137L4.248,4.803Z" style="fill-rule:nonzero;"/>
        <path d="M5.199,4.867C4.949,4.867 4.752,4.744 4.611,4.502C4.467,4.259 4.396,3.927 4.396,3.512C4.396,3.081 4.47,2.745 4.618,2.499C4.767,2.257 4.966,2.134 5.22,2.134C5.468,2.134 5.662,2.257 5.805,2.499C5.945,2.745 6.017,3.066 6.017,3.466C6.017,3.898 5.943,4.239 5.799,4.49C5.652,4.741 5.453,4.867 5.199,4.867ZM5.21,2.75C5.101,2.75 5.017,2.816 4.957,2.946C4.896,3.077 4.865,3.263 4.865,3.502C4.865,4.002 4.982,4.251 5.213,4.251C5.435,4.251 5.545,3.994 5.545,3.48C5.545,2.994 5.433,2.75 5.21,2.75Z" style="fill-rule:nonzero;"/>
        <path d="M7.292,2.924C7.238,2.872 7.172,2.845 7.098,2.845C6.998,2.845 6.919,2.91 6.864,3.037C6.807,3.166 6.779,3.338 6.779,3.559L6.779,4.803L6.316,4.803L6.316,2.198L6.779,2.198L6.779,2.682L6.784,2.682C6.858,2.331 6.989,2.153 7.18,2.153C7.227,2.153 7.265,2.163 7.292,2.185L7.292,2.924Z" style="fill-rule:nonzero;"/>
        <path d="M8.842,3.73L7.864,3.73C7.881,4.107 8.018,4.296 8.276,4.296C8.44,4.296 8.586,4.229 8.71,4.094L8.71,4.673C8.571,4.803 8.391,4.867 8.171,4.867C7.929,4.867 7.741,4.751 7.608,4.517C7.474,4.285 7.407,3.957 7.407,3.542C7.407,3.11 7.479,2.767 7.624,2.514C7.768,2.263 7.945,2.134 8.157,2.134C8.374,2.134 8.542,2.249 8.663,2.473C8.782,2.7 8.842,3.006 8.842,3.393L8.842,3.73ZM8.413,3.237C8.413,2.865 8.327,2.677 8.153,2.677C8.079,2.677 8.015,2.73 7.96,2.838C7.906,2.944 7.875,3.077 7.861,3.237L8.413,3.237Z" style="fill-rule:nonzero;"/>
        <path d="M11.494,4.803L11.035,4.803L11.035,3.319C11.035,2.939 10.953,2.75 10.794,2.75C10.717,2.75 10.657,2.809 10.609,2.921C10.561,3.036 10.537,3.177 10.537,3.346L10.537,4.803L10.075,4.803L10.075,3.303C10.075,2.934 9.997,2.75 9.839,2.75C9.761,2.75 9.697,2.805 9.649,2.914C9.603,3.021 9.579,3.169 9.579,3.357L9.579,4.803L9.117,4.803L9.117,2.198L9.579,2.198L9.579,2.605L9.585,2.605C9.633,2.468 9.7,2.354 9.786,2.267C9.872,2.178 9.967,2.134 10.069,2.134C10.281,2.134 10.426,2.298 10.504,2.621C10.617,2.298 10.785,2.134 11.006,2.134C11.331,2.134 11.494,2.485 11.494,3.183L11.494,4.803Z" style="fill-rule:nonzero;"/>
        <rect x="12.731" y="1.157" width="0.472" height="3.646"/>
        <path d="M14.104,4.5L14.098,4.5L14.098,6L13.635,6L13.635,2.198L14.098,2.198L14.098,2.591L14.104,2.591C14.217,2.287 14.378,2.134 14.584,2.134C14.778,2.134 14.929,2.25 15.034,2.484C15.141,2.715 15.193,3.029 15.193,3.428C15.193,3.86 15.131,4.21 15.008,4.472C14.885,4.735 14.721,4.867 14.515,4.867C14.336,4.867 14.198,4.744 14.104,4.5ZM14.089,3.432L14.089,3.641C14.089,3.82 14.118,3.968 14.172,4.081C14.226,4.195 14.298,4.251 14.388,4.251C14.494,4.251 14.575,4.181 14.632,4.039C14.691,3.898 14.72,3.697 14.72,3.438C14.72,2.98 14.617,2.75 14.411,2.75C14.318,2.75 14.24,2.812 14.181,2.938C14.12,3.063 14.089,3.227 14.089,3.432Z" style="fill-rule:nonzero;"/>
        <path d="M15.396,4.735L15.396,4.083C15.47,4.163 15.547,4.222 15.622,4.261C15.699,4.301 15.769,4.321 15.836,4.321C15.918,4.321 15.983,4.301 16.031,4.261C16.078,4.222 16.1,4.163 16.1,4.083C16.1,4.032 16.091,3.99 16.069,3.956C16.048,3.923 16.021,3.893 15.986,3.867C15.953,3.842 15.915,3.818 15.876,3.799C15.836,3.779 15.798,3.755 15.76,3.73C15.7,3.691 15.649,3.649 15.603,3.603C15.559,3.559 15.52,3.508 15.49,3.449C15.458,3.387 15.435,3.32 15.419,3.241C15.404,3.163 15.396,3.072 15.396,2.965C15.396,2.818 15.413,2.693 15.45,2.589C15.487,2.484 15.535,2.398 15.596,2.331C15.657,2.263 15.727,2.215 15.805,2.183C15.884,2.151 15.965,2.134 16.049,2.134C16.117,2.134 16.183,2.145 16.252,2.163C16.32,2.181 16.387,2.207 16.455,2.241L16.455,2.86C16.395,2.8 16.333,2.756 16.266,2.727C16.199,2.697 16.134,2.682 16.069,2.682C16.038,2.682 16.01,2.686 15.984,2.697C15.957,2.705 15.933,2.719 15.912,2.737C15.891,2.755 15.876,2.779 15.864,2.806C15.853,2.835 15.847,2.865 15.847,2.901C15.847,2.947 15.855,2.99 15.873,3.024C15.89,3.057 15.914,3.085 15.942,3.111C15.969,3.136 16.001,3.157 16.037,3.177C16.07,3.197 16.105,3.217 16.139,3.237C16.201,3.275 16.257,3.315 16.306,3.358C16.356,3.402 16.398,3.454 16.434,3.514C16.469,3.573 16.497,3.643 16.517,3.723C16.535,3.803 16.544,3.897 16.544,4.009C16.544,4.162 16.524,4.292 16.487,4.402C16.448,4.512 16.397,4.602 16.333,4.669C16.27,4.739 16.196,4.788 16.112,4.818C16.028,4.851 15.942,4.867 15.853,4.867C15.688,4.867 15.536,4.823 15.396,4.735Z" style="fill-rule:nonzero;"/>
        <path d="M18.234,4.803L17.773,4.803L17.773,4.407L17.765,4.407C17.652,4.714 17.499,4.867 17.308,4.867C16.96,4.867 16.788,4.502 16.788,3.771L16.788,2.198L17.248,2.198L17.248,3.699C17.248,4.068 17.332,4.251 17.499,4.251C17.582,4.251 17.649,4.201 17.698,4.099C17.747,4 17.773,3.862 17.773,3.688L17.773,2.198L18.234,2.198L18.234,4.803Z" style="fill-rule:nonzero;"/>
        <path d="M21,4.803L20.54,4.803L20.54,3.319C20.54,2.939 20.46,2.75 20.301,2.75C20.224,2.75 20.161,2.809 20.114,2.921C20.066,3.036 20.042,3.177 20.042,3.346L20.042,4.803L19.579,4.803L19.579,3.303C19.579,2.934 19.501,2.75 19.346,2.75C19.266,2.75 19.203,2.805 19.155,2.914C19.108,3.021 19.086,3.169 19.086,3.357L19.086,4.803L18.623,4.803L18.623,2.198L19.086,2.198L19.086,2.605L19.09,2.605C19.138,2.468 19.205,2.354 19.292,2.267C19.377,2.178 19.472,2.134 19.575,2.134C19.785,2.134 19.931,2.298 20.009,2.621C20.123,2.298 20.291,2.134 20.513,2.134C20.838,2.134 21,2.485 21,3.183L21,4.803Z" style="fill-rule:nonzero;"/>
    </g>
    <rect id="outer" x="0" y="0" width="30" height="30" style="fill:none;"/>
</svg>
