<?xml version="1.0" encoding="UTF-8" standalone="no"?><!DOCTYPE svg PUBLIC "-//W3C//DTD SVG 1.1//EN" "http://www.w3.org/Graphics/SVG/1.1/DTD/svg11.dtd"><svg width="100%" height="100%" viewBox="0 0 32 32" version="1.1" xmlns="http://www.w3.org/2000/svg" xmlns:xlink="http://www.w3.org/1999/xlink" xml:space="preserve" xmlns:serif="http://www.serif.com/" style="fill-rule:evenodd;clip-rule:evenodd;"><g id="Layer-1" serif:id="Layer 1" transform="matrix(0.803826,0,0,0.803826,-4.45379,-2.79886)"><g id="Empty-Rectangle" serif:id="Empty Rectangle" transform="matrix(0.508811,0,0,1.24405,28.1591,3.48192)"><rect x="29.709" y="0" width="4.078" height="32" style="fill:none;"/></g><path id="path1432" d="M17.425,41.893c-17.141,-9.451 -7.489,-29.484 8.997,-29.327l0,-8.066l16.078,14.058l-16.078,14.744l0,-8.729c-10.234,-0.416 -14.741,7.267 -5.772,13.363c2.567,1.745 0.789,6.171 -3.225,3.957Z" style="fill:url(#_Linear1);fill-rule:nonzero;stroke:#000;stroke-width:1px;"/><path id="path4247" d="M27.438,6.688l-0,5.875c-0.009,0.548 -0.452,0.991 -1,1c-7.83,-0.075 -13.983,4.681 -16.157,10.437c-2.174,5.756 -0.578,12.491 7.657,17.031c0.85,0.469 1.465,0.516 1.875,0.438c0.409,-0.078 0.667,-0.297 0.843,-0.594c0.353,-0.593 0.3,-1.507 -0.562,-2.094c-2.357,-1.602 -3.909,-3.351 -4.688,-5.156c-0.778,-1.805 -0.74,-3.672 0.032,-5.25c1.542,-3.155 5.654,-5.031 11.031,-4.813c0.536,0.025 0.961,0.463 0.968,1l0,6.438l13.563,-12.438l-13.563,-11.874Z" style="fill:none;fill-rule:nonzero;stroke:url(#_Linear2);stroke-width:1px;"/><path id="path4920" d="M41.66,18.605c-18.55,-3.13 -28.895,2.15 -32.795,10.436c-0.154,-12.643 12.963,-16.32 18.09,-15.932l-0.016,-7.507l14.721,13.003Z" style="fill:url(#_Linear3);"/></g><defs><linearGradient id="_Linear1" x1="0" y1="0" x2="1" y2="0" gradientUnits="userSpaceOnUse" gradientTransform="matrix(4.75,2.9375,-2.9375,4.75,13.1875,35.9375)"><stop offset="0" style="stop-color:#73d216;stop-opacity:1"/><stop offset="1" style="stop-color:#8ae234;stop-opacity:1"/></linearGradient><linearGradient id="_Linear2" x1="0" y1="0" x2="1" y2="0" gradientUnits="userSpaceOnUse" gradientTransform="matrix(-3.4798,26.4873,-26.4873,-3.4798,21.5523,29.205)"><stop offset="0" style="stop-color:#fff;stop-opacity:0.62"/><stop offset="1" style="stop-color:#fff;stop-opacity:0"/></linearGradient><linearGradient id="_Linear3" x1="0" y1="0" x2="1" y2="0" gradientUnits="userSpaceOnUse" gradientTransform="matrix(-14.4555,6.85331,-6.85331,-14.4555,28.5329,14.8463)"><stop offset="0" style="stop-color:#fff;stop-opacity:0.45"/><stop offset="1" style="stop-color:#fff;stop-opacity:0"/></linearGradient></defs></svg>