<?xml version="1.0" encoding="UTF-8" standalone="no"?>
<!DOCTYPE svg PUBLIC "-//W3C//DTD SVG 1.1//EN" "http://www.w3.org/Graphics/SVG/1.1/DTD/svg11.dtd">
<svg width="30px" height="30px" version="1.1" xmlns="http://www.w3.org/2000/svg" xmlns:xlink="http://www.w3.org/1999/xlink" xml:space="preserve" xmlns:serif="http://www.serif.com/" style="fill-rule:evenodd;clip-rule:evenodd;">
    <g id="Layer-1" serif:id="Layer 1">
        <path id="path1432" d="M8.956,28.946C-3.961,21.824 3.312,6.727 15.736,6.846L15.736,0.767L27.852,11.361L15.736,22.472L15.736,15.894C8.024,15.58 4.627,21.37 11.386,25.964C13.321,27.279 11.981,30.615 8.956,28.946Z" style="fill:url(#_Linear1);fill-rule:nonzero;stroke:black;stroke-width:0.75px;"/>
        <path id="path4247" d="M16.501,2.416L16.501,6.843C16.495,7.256 16.161,7.59 15.748,7.597C9.847,7.54 5.21,11.125 3.572,15.462C1.934,19.8 3.137,24.875 9.342,28.296C9.983,28.65 10.446,28.685 10.755,28.627C11.064,28.568 11.258,28.403 11.391,28.179C11.657,27.732 11.617,27.043 10.967,26.601C9.191,25.394 8.021,24.076 7.434,22.715C6.848,21.355 6.877,19.948 7.458,18.759C8.62,16.382 11.719,14.968 15.771,15.132C16.175,15.151 16.495,15.481 16.501,15.886L16.501,20.737L26.722,11.364L16.501,2.416L16.501,2.416Z" style="fill:none;fill-rule:nonzero;stroke:url(#_Linear2);stroke-width:0.75px;"/>
        <path id="path4920" d="M27.219,11.397C13.24,9.038 5.444,13.017 2.505,19.261C2.389,9.733 12.274,6.962 16.138,7.255L16.125,1.598L27.219,11.397Z" style="fill:url(#_Linear3);"/>
    </g>
    <rect id="outer" x="0" y="0" width="30" height="30" style="fill:none;"/>
    <defs>
        <linearGradient id="_Linear1" x1="0" y1="0" x2="1" y2="0" gradientUnits="userSpaceOnUse" gradientTransform="matrix(3.57954,2.21366,-2.21366,3.57954,5.7625,24.4581)"><stop offset="0" style="stop-color:rgb(115,210,22);stop-opacity:1"/><stop offset="1" style="stop-color:rgb(138,226,52);stop-opacity:1"/></linearGradient>
        <linearGradient id="_Linear2" x1="0" y1="0" x2="1" y2="0" gradientUnits="userSpaceOnUse" gradientTransform="matrix(-2.62233,19.9605,-19.9605,-2.62233,12.0661,19.3846)"><stop offset="0" style="stop-color:white;stop-opacity:0.62"/><stop offset="1" style="stop-color:white;stop-opacity:0"/></linearGradient>
        <linearGradient id="_Linear3" x1="0" y1="0" x2="1" y2="0" gradientUnits="userSpaceOnUse" gradientTransform="matrix(-10.8935,5.16456,-5.16456,-10.8935,17.3266,8.56405)"><stop offset="0" style="stop-color:white;stop-opacity:0.45"/><stop offset="1" style="stop-color:white;stop-opacity:0"/></linearGradient>
    </defs>
</svg>
