<?xml version="1.0" encoding="UTF-8" standalone="no"?><!DOCTYPE svg PUBLIC "-//W3C//DTD SVG 1.1//EN" "http://www.w3.org/Graphics/SVG/1.1/DTD/svg11.dtd"><svg width="100%" height="100%" viewBox="0 0 48 48" version="1.1" xmlns="http://www.w3.org/2000/svg" xmlns:xlink="http://www.w3.org/1999/xlink" xml:space="preserve" xmlns:serif="http://www.serif.com/" style="fill-rule:evenodd;clip-rule:evenodd;stroke-linejoin:round;stroke-miterlimit:2;"><g id="layer1"><path id="path8660" d="M47.66,38.846c0,-4.612 -10.521,-8.408 -23.306,-8.408c-12.786,0 -23.307,3.796 -23.307,8.408c0,4.612 10.521,8.407 23.307,8.407c12.785,0 23.306,-3.795 23.306,-8.407Z" style="fill:none;"/><path id="path1432" d="M38.375,45.034c-40.026,1.322 -33.7,-32.74 -12.88,-32.536l-0,-9.376l16.648,14.587l-16.648,15.297l-0,-9.668c-14.063,-0.586 -18.178,21.433 12.88,21.696Z" style="fill:#008000;fill-rule:nonzero;"/><path id="path2177" d="M16.925,39.316c-11.723,-6.08 -8.188,-26.229 9.584,-25.766l-0,-8.099l14.047,12.264l-14.047,12.944l-0,-8.278c-14.84,-0.348 -14.16,12.758 -9.584,16.935Z" style="fill:none;fill-rule:nonzero;"/><path id="path4989" d="M26.037,4.569l10.687,10.229c-6.938,0 -4.687,8.937 -10.812,11.812l0.062,-3.666c-15.187,-0.063 -14.312,15.5 -3.25,19.75c-19.088,-4.882 -16.437,-29.313 3.188,-29.813l0.125,-8.312Z" style="fill:#008000;fill-opacity:0.49;fill-rule:nonzero;"/></g></svg>