<?xml version="1.0" encoding="UTF-8" standalone="no"?>
<!DOCTYPE svg PUBLIC "-//W3C//DTD SVG 1.1//EN" "http://www.w3.org/Graphics/SVG/1.1/DTD/svg11.dtd">
<svg width="30px" height="30px" version="1.1" xmlns="http://www.w3.org/2000/svg" xmlns:xlink="http://www.w3.org/1999/xlink" xml:space="preserve" xmlns:serif="http://www.serif.com/" style="fill-rule:evenodd;clip-rule:evenodd;stroke-linecap:round;stroke-linejoin:round;stroke-miterlimit:1.5;">
    <rect x="-0.113" y="21.091" width="30.113" height="8.909" style="fill:rgb(160,195,223);"/>
    <rect x="0.255" y="10.399" width="29.5" height="13.101" style="fill:rgb(179,221,255);stroke:rgb(55,124,199);stroke-width:1px;"/>
    <path d="M8.276,17.772L8.276,20.064L7.733,20.064L7.733,14L9.008,14C9.504,14 9.889,14.158 10.162,14.474C10.435,14.789 10.571,15.235 10.571,15.81C10.571,16.385 10.419,16.856 10.116,17.222C9.813,17.589 9.404,17.772 8.888,17.772L8.276,17.772ZM8.276,14.643L8.276,17.129L8.846,17.129C9.221,17.129 9.508,17.017 9.705,16.793C9.903,16.569 10.001,16.253 10.001,15.844C10.001,15.043 9.639,14.643 8.914,14.643L8.276,14.643Z" style="fill-rule:nonzero;"/>
    <path d="M13.519,20.064L12.989,20.064L12.989,19.387L12.976,19.387C12.745,19.906 12.405,20.166 11.956,20.166C11.626,20.166 11.368,20.051 11.181,19.823C10.994,19.595 10.901,19.292 10.901,18.914C10.901,18.105 11.266,17.634 11.995,17.501L12.989,17.32C12.989,16.584 12.761,16.216 12.306,16.216C11.907,16.216 11.546,16.393 11.225,16.749L11.225,16.038C11.551,15.768 11.926,15.632 12.351,15.632C13.13,15.632 13.519,16.171 13.519,17.248L13.519,20.064ZM12.989,17.874L12.189,18.017C11.943,18.062 11.758,18.142 11.633,18.256C11.507,18.37 11.445,18.573 11.445,18.863C11.445,19.075 11.503,19.247 11.618,19.381C11.733,19.515 11.887,19.582 12.079,19.582C12.342,19.582 12.56,19.461 12.731,19.22C12.903,18.979 12.989,18.674 12.989,18.305L12.989,17.874Z" style="fill-rule:nonzero;"/>
    <path d="M17.27,20.064L16.74,20.064L16.74,17.594C16.74,16.675 16.483,16.216 15.969,16.216C15.704,16.216 15.484,16.346 15.311,16.607C15.137,16.868 15.05,17.197 15.05,17.594L15.05,20.064L14.519,20.064L14.519,15.734L15.05,15.734L15.05,16.453L15.063,16.453C15.313,15.906 15.676,15.632 16.151,15.632C16.513,15.632 16.79,15.785 16.982,16.091C17.174,16.397 17.27,16.839 17.27,17.417L17.27,20.064Z" style="fill-rule:nonzero;"/>
    <path d="M20.934,18.072L18.594,18.072C18.603,18.554 18.702,18.927 18.892,19.189C19.082,19.451 19.343,19.582 19.675,19.582C20.048,19.582 20.391,19.421 20.704,19.1L20.704,19.751C20.413,20.027 20.028,20.166 19.549,20.166C19.081,20.166 18.713,19.969 18.445,19.576C18.178,19.182 18.044,18.629 18.044,17.916C18.044,17.242 18.19,16.693 18.482,16.269C18.775,15.844 19.138,15.632 19.571,15.632C20.005,15.632 20.341,15.816 20.578,16.182C20.815,16.549 20.934,17.057 20.934,17.709L20.934,18.072ZM20.39,17.484C20.388,17.084 20.314,16.773 20.168,16.55C20.023,16.327 19.821,16.216 19.562,16.216C19.311,16.216 19.099,16.333 18.924,16.567C18.749,16.801 18.641,17.107 18.6,17.484L20.39,17.484Z" style="fill-rule:nonzero;"/>
    <rect x="21.736" y="13.653" width="0.531" height="6.411"/>
    <rect id="outer" x="0" y="0" width="30" height="30" style="fill:none;"/>
</svg>
