<?xml version="1.0" encoding="UTF-8" standalone="no"?>
<!DOCTYPE svg PUBLIC "-//W3C//DTD SVG 1.1//EN" "http://www.w3.org/Graphics/SVG/1.1/DTD/svg11.dtd">
<svg width="30px" height="30px" version="1.1" xmlns="http://www.w3.org/2000/svg" xmlns:xlink="http://www.w3.org/1999/xlink" xml:space="preserve" xmlns:serif="http://www.serif.com/" style="fill-rule:evenodd;clip-rule:evenodd;stroke-linecap:round;stroke-linejoin:round;stroke-miterlimit:1.5;">
    <rect x="-0.113" y="21.091" width="30.113" height="8.909" style="fill:rgb(160,195,223);"/>
    <rect x="0" y="0" width="30.113" height="8.909" style="fill:rgb(160,195,223);"/>
    <rect x="0.255" y="8.45" width="29.5" height="13.101" style="fill:rgb(179,221,255);stroke:rgb(55,124,199);stroke-width:1px;"/>
    <g id="save">
        <path id="path9" d="M31.769,10.786L31.103,10.786L31.103,13.158C31.103,13.296 30.995,13.408 30.858,13.408L25.546,13.408C25.412,13.408 25.301,13.297 25.301,13.158L25.301,10.786L24.898,10.786L24.186,11.515L24.186,18.544C24.186,18.682 24.295,18.795 24.431,18.795L25.303,18.795L25.303,15.191C25.303,15.053 25.412,14.94 25.548,14.94L30.861,14.94C30.996,14.94 31.106,15.051 31.106,15.191L31.106,18.797L31.769,18.797C31.904,18.797 32.014,18.685 32.014,18.546L32.014,11.037C32.014,10.899 31.904,10.786 31.769,10.786Z" style="fill:rgb(86,172,224);fill-rule:nonzero;"/>
        <path id="path13" d="M25.789,15.43L25.789,18.798L30.606,18.798L30.606,15.43L25.789,15.43ZM29.521,17.973L26.87,17.973C26.736,17.973 26.627,17.862 26.627,17.722C26.627,17.583 26.736,17.47 26.87,17.47L29.521,17.47C29.656,17.47 29.766,17.582 29.766,17.722C29.766,17.86 29.656,17.973 29.521,17.973ZM29.521,16.756L26.87,16.756C26.736,16.756 26.627,16.642 26.627,16.505C26.627,16.367 26.736,16.254 26.87,16.254L29.521,16.254C29.656,16.254 29.766,16.365 29.766,16.505C29.766,16.644 29.656,16.756 29.521,16.756Z" style="fill:rgb(255,193,13);fill-rule:nonzero;"/>
        <g id="g23">
            <path id="path15" d="M31.767,10.287L24.798,10.287C24.735,10.287 24.672,10.314 24.625,10.36L23.769,11.234C23.724,11.282 23.698,11.346 23.698,11.412L23.698,18.537C23.698,18.951 24.027,19.287 24.432,19.287L31.767,19.287C32.171,19.287 32.5,18.951 32.5,18.537L32.5,11.037C32.5,10.624 32.171,10.287 31.767,10.287ZM25.791,10.787L30.614,10.787L30.614,12.906L25.791,12.906L25.791,10.787ZM25.791,18.788L25.791,15.435L30.614,15.435L30.614,18.788L25.791,18.788ZM32.012,18.537C32.012,18.675 31.903,18.788 31.767,18.788L31.101,18.788L31.101,15.186C31.101,15.048 30.993,14.935 30.856,14.935L25.546,14.935C25.412,14.935 25.301,15.047 25.301,15.186L25.301,18.788L24.432,18.788C24.297,18.788 24.187,18.676 24.187,18.537L24.187,11.515L24.899,10.787L25.303,10.787L25.303,13.155C25.303,13.293 25.412,13.406 25.548,13.406L30.859,13.406C30.994,13.406 31.104,13.295 31.104,13.155L31.104,10.787L31.767,10.787C31.901,10.787 32.012,10.898 32.012,11.037L32.012,18.537Z" style="fill:rgb(25,79,130);fill-rule:nonzero;"/>
            <path id="path17" d="M29.749,11.007C29.614,11.007 29.504,11.118 29.504,11.257L29.504,12.073C29.504,12.21 29.613,12.323 29.749,12.323C29.884,12.323 29.994,12.212 29.994,12.073L29.994,11.257C29.992,11.119 29.884,11.007 29.749,11.007Z" style="fill:rgb(25,79,130);fill-rule:nonzero;"/>
            <path id="path19" d="M29.521,16.249L26.87,16.249C26.736,16.249 26.626,16.36 26.626,16.499C26.626,16.636 26.734,16.75 26.87,16.75L29.521,16.75C29.656,16.75 29.766,16.638 29.766,16.499C29.766,16.36 29.656,16.249 29.521,16.249Z" style="fill:rgb(25,79,130);fill-rule:nonzero;"/>
            <path id="path21" d="M29.521,17.46L26.87,17.46C26.736,17.46 26.626,17.571 26.626,17.71C26.626,17.848 26.734,17.96 26.87,17.96L29.521,17.96C29.656,17.96 29.766,17.849 29.766,17.71C29.766,17.571 29.656,17.46 29.521,17.46Z" style="fill:rgb(25,79,130);fill-rule:nonzero;"/>
        </g>
    </g>
    <g id="open">
        <path d="M3.742,13.557C3.742,13.743 3.595,13.896 3.414,13.896L-1.508,19.33C-1.688,19.33 -1.836,19.177 -1.836,18.991L-1.836,11.009C-1.836,10.823 -1.688,10.67 -1.508,10.67L1.445,10.67C1.626,10.67 1.773,10.823 1.773,11.009L3.742,13.557Z" style="fill:rgb(211,172,81);fill-rule:nonzero;"/>
        <path d="M-1.442,19.5L-1.508,19.5C-1.787,19.5 -2,19.279 -2,18.991L-2,11.009C-2,10.721 -1.787,10.5 -1.508,10.5L1.445,10.5C1.691,10.5 1.905,10.687 1.938,10.942L3.906,13.489L3.906,13.557C3.906,13.811 3.726,14.015 3.496,14.066L-1.442,19.5ZM-1.508,10.84C-1.606,10.84 -1.672,10.908 -1.672,11.009L-1.672,18.991C-1.672,19.058 -1.623,19.126 -1.573,19.143L3.332,13.726L3.398,13.726C3.463,13.726 3.529,13.675 3.562,13.608L1.593,11.077L1.593,11.009C1.593,10.908 1.527,10.84 1.429,10.84L-1.508,10.84Z" style="fill:rgb(35,28,28);fill-rule:nonzero;"/>
        <path d="M7.352,18.991C7.352,19.177 7.204,19.33 7.023,19.33L-1.508,19.33C-1.688,19.33 -1.836,19.177 -1.836,18.991L-1.016,12.198C-1.016,12.011 -0.868,11.858 -0.687,11.858L8.008,11.858C8.188,11.858 8.336,12.011 8.336,12.198L7.352,18.991Z" style="fill:rgb(250,197,70);fill-rule:nonzero;"/>
        <path d="M7.023,19.5L-1.508,19.5C-1.787,19.5 -2,19.279 -2,18.991L-2,18.974L-1.18,12.198C-1.18,11.926 -0.95,11.706 -0.687,11.706L8.008,11.706C8.287,11.706 8.5,11.926 8.5,12.215L8.5,12.232L7.516,19.008C7.499,19.279 7.286,19.5 7.023,19.5ZM-1.672,19.008C-1.672,19.092 -1.59,19.16 -1.508,19.16L7.023,19.16C7.122,19.16 7.188,19.092 7.188,18.991L7.188,18.974L8.172,12.198C8.172,12.113 8.09,12.045 8.008,12.045L-0.687,12.045C-0.786,12.045 -0.852,12.113 -0.852,12.215L-0.852,12.232L-1.672,19.008Z" style="fill:rgb(35,28,28);fill-rule:nonzero;"/>
    </g>
    <rect x="0.255" y="8.45" width="29.5" height="13.101" style="fill:none;stroke:rgb(55,124,199);stroke-width:1px;"/>
    <rect id="outer" x="0" y="0" width="30" height="30" style="fill:none;"/>
</svg>
