<?xml version="1.0" encoding="UTF-8" standalone="no"?>
<!DOCTYPE svg PUBLIC "-//W3C//DTD SVG 1.1//EN" "http://www.w3.org/Graphics/SVG/1.1/DTD/svg11.dtd">
<svg width="30px" height="30px" version="1.1" xmlns="http://www.w3.org/2000/svg" xmlns:xlink="http://www.w3.org/1999/xlink" xml:space="preserve" xmlns:serif="http://www.serif.com/" style="fill-rule:evenodd;clip-rule:evenodd;stroke-linecap:round;stroke-linejoin:round;stroke-miterlimit:1.5;">
    <rect x="-0.113" y="21.091" width="30.113" height="8.909" style="fill:rgb(160,195,223);"/>
    <rect x="0" y="0" width="30.113" height="8.909" style="fill:rgb(160,195,223);"/>
    <rect x="0.255" y="8.45" width="29.5" height="13.101" style="fill:rgb(179,221,255);stroke:rgb(55,124,199);stroke-width:1px;"/>
    <rect id="outer" x="0" y="0" width="30" height="30" style="fill:none;"/>
    <g id="open">
        <path d="M8.742,13.557C8.742,13.743 8.595,13.896 8.414,13.896L3.492,19.33C3.312,19.33 3.164,19.177 3.164,18.991L3.164,11.009C3.164,10.823 3.312,10.67 3.492,10.67L6.445,10.67C6.626,10.67 6.773,10.823 6.773,11.009L8.742,13.557Z" style="fill:rgb(211,172,81);fill-rule:nonzero;"/>
        <path d="M3.558,19.5L3.492,19.5C3.213,19.5 3,19.279 3,18.991L3,11.009C3,10.721 3.213,10.5 3.492,10.5L6.445,10.5C6.691,10.5 6.905,10.687 6.938,10.942L8.906,13.489L8.906,13.557C8.906,13.811 8.726,14.015 8.496,14.066L3.558,19.5ZM3.492,10.84C3.394,10.84 3.328,10.908 3.328,11.009L3.328,18.991C3.328,19.058 3.377,19.126 3.427,19.143L8.332,13.726L8.398,13.726C8.463,13.726 8.529,13.675 8.562,13.608L6.593,11.077L6.593,11.009C6.593,10.908 6.527,10.84 6.429,10.84L3.492,10.84Z" style="fill:rgb(35,28,28);fill-rule:nonzero;"/>
        <path d="M12.352,18.991C12.352,19.177 12.204,19.33 12.023,19.33L3.492,19.33C3.312,19.33 3.164,19.177 3.164,18.991L3.984,12.198C3.984,12.011 4.132,11.858 4.313,11.858L13.008,11.858C13.188,11.858 13.336,12.011 13.336,12.198L12.352,18.991Z" style="fill:rgb(250,197,70);fill-rule:nonzero;"/>
        <path d="M12.023,19.5L3.492,19.5C3.213,19.5 3,19.279 3,18.991L3,18.974L3.82,12.198C3.82,11.926 4.05,11.706 4.313,11.706L13.008,11.706C13.287,11.706 13.5,11.926 13.5,12.215L13.5,12.232L12.516,19.008C12.499,19.279 12.286,19.5 12.023,19.5ZM3.328,19.008C3.328,19.092 3.41,19.16 3.492,19.16L12.023,19.16C12.122,19.16 12.188,19.092 12.188,18.991L12.188,18.974L13.172,12.198C13.172,12.113 13.09,12.045 13.008,12.045L4.313,12.045C4.214,12.045 4.148,12.113 4.148,12.215L4.148,12.232L3.328,19.008Z" style="fill:rgb(35,28,28);fill-rule:nonzero;"/>
    </g>
    <g id="tool">
        <path d="M24.627,9.678C24.593,9.678 24.56,9.678 24.526,9.68C24.521,9.681 24.518,9.68 24.514,9.68C24.494,9.681 24.418,9.685 24.412,9.686C24.406,9.686 24.398,9.685 24.393,9.686C24.386,9.686 24.38,9.688 24.373,9.688C24.317,9.695 24.26,9.705 24.205,9.716C23.518,9.842 22.997,10.303 22.892,10.856C22.888,10.88 22.885,10.905 22.881,10.928C22.88,10.944 22.877,10.959 22.877,10.976C22.876,10.978 22.874,10.984 22.874,10.986C22.874,10.986 22.574,12.817 22.222,13.31C22.213,13.321 22.201,13.339 22.183,13.359C22.056,13.493 21.767,13.772 21.407,14.119C20.003,15.452 17.237,17.987 16.554,18.715C16.546,18.722 16.46,18.803 16.46,18.803L16.496,18.779C16.449,18.83 16.413,18.87 16.399,18.894C16.333,19.002 16.291,19.116 16.269,19.231C16.269,19.233 16.27,19.235 16.269,19.237C16.264,19.263 16.261,19.289 16.258,19.317C16.258,19.319 16.259,19.322 16.258,19.325C16.256,19.352 16.253,19.381 16.253,19.408L16.253,19.411C16.253,19.438 16.254,19.464 16.256,19.491L16.256,19.496C16.258,19.523 16.26,19.55 16.264,19.576L16.264,19.582C16.268,19.608 16.274,19.633 16.28,19.659C16.285,19.679 16.292,19.698 16.297,19.718C16.299,19.725 16.3,19.734 16.303,19.742C16.303,19.744 16.305,19.746 16.306,19.748C16.307,19.752 16.31,19.757 16.311,19.762C16.326,19.808 16.342,19.855 16.363,19.899C16.364,19.902 16.366,19.903 16.366,19.905C16.544,20.269 16.916,20.534 17.349,20.496C17.373,20.495 17.397,20.491 17.421,20.488L17.424,20.488C17.43,20.487 17.437,20.486 17.443,20.485C17.543,20.469 17.646,20.434 17.75,20.383C17.815,20.353 17.878,20.317 17.943,20.273C18.63,19.802 22.782,14.617 23.343,14.254C23.355,14.246 23.373,14.237 23.387,14.229C24.037,13.945 24.66,13.907 25.313,13.683C25.524,13.634 25.666,13.602 25.666,13.602L25.671,13.602C25.672,13.602 25.674,13.6 25.674,13.6C25.674,13.599 25.677,13.597 25.677,13.597L25.677,13.591L25.688,13.588C25.703,13.591 25.7,13.57 25.685,13.525C26.064,13.328 26.553,12.794 26.738,12.019C26.746,11.982 26.72,11.723 26.71,11.708C26.712,11.702 26.714,11.697 26.716,11.691L25.539,12.246L24.813,11.763C24.734,11.609 24.661,11.469 24.616,11.373C24.616,11.008 24.616,10.977 24.649,10.647C25.098,10.47 25.89,10.166 25.89,10.166C25.889,10.165 25.887,10.164 25.887,10.164C25.888,10.163 25.911,10.155 25.911,10.155C25.606,9.86 25.141,9.675 24.627,9.678ZM17.305,18.768C17.523,18.762 17.733,18.905 17.849,19.112C17.859,19.13 17.869,19.146 17.877,19.165C17.878,19.167 17.879,19.169 17.88,19.17C17.888,19.189 17.895,19.209 17.902,19.229C17.903,19.23 17.904,19.232 17.905,19.233C17.915,19.266 17.923,19.3 17.93,19.333C17.932,19.348 17.933,19.363 17.935,19.378C17.937,19.395 17.94,19.412 17.94,19.43C17.952,19.709 17.699,19.999 17.41,20.062C17.396,20.065 17.38,20.065 17.366,20.066C17.043,20.082 16.715,19.759 16.695,19.422C16.681,19.189 16.806,18.956 17.029,18.836C17.083,18.81 17.145,18.788 17.209,18.775C17.214,18.775 17.22,18.776 17.225,18.775C17.251,18.772 17.278,18.769 17.305,18.768Z" style="stroke:url(#_Radial1);stroke-width:0.14px;stroke-miterlimit:4;"/>
        <g>
            <path d="M26.718,11.514L25.54,12.069L24.803,11.58C24.719,11.705 24.773,13.403 25.2,13.361C25.981,13.284 26.498,12.494 26.718,11.514Z" style="fill:rgb(136,138,133);stroke:url(#_Radial2);stroke-width:0.14px;stroke-miterlimit:4;"/>
            <path d="M26.678,11.572L25.561,12.098L25.546,12.892L25.703,13.231C26.184,12.929 26.514,12.304 26.678,11.572Z" style="fill:url(#_Radial3);"/>
            <path d="M24.797,11.597C24.797,11.598 24.795,11.599 24.795,11.599C24.794,11.601 24.793,11.604 24.793,11.605C24.716,11.786 24.776,13.42 25.194,13.378C25.286,13.369 25.377,13.35 25.462,13.321L25.426,12.015L24.797,11.597Z" style="fill:url(#_Radial4);"/>
        </g>
        <path d="M24.328,9.519C23.533,9.618 22.927,10.159 22.878,10.798C22.877,10.801 22.876,10.807 22.875,10.81C22.875,10.81 22.578,12.641 22.225,13.134C21.948,13.52 16.651,18.307 16.402,18.718C15.874,19.583 16.857,20.816 17.9,20.103C18.588,19.633 22.738,14.448 23.299,14.086C23.677,13.841 25.646,13.422 25.646,13.422C25.76,13.447 24.826,11.743 24.574,11.205C24.574,10.838 24.573,10.809 24.607,10.475C25.051,10.299 25.869,9.987 25.869,9.987C25.543,9.672 25.036,9.482 24.481,9.512L24.47,9.512C24.449,9.513 24.376,9.517 24.37,9.518C24.364,9.518 24.355,9.518 24.349,9.519L24.328,9.519ZM17.292,18.584C17.615,18.568 17.927,18.881 17.942,19.252C17.955,19.56 17.647,19.881 17.324,19.898C17.002,19.915 16.672,19.591 16.652,19.253C16.632,18.929 16.884,18.605 17.292,18.584Z" style="fill:rgb(136,138,133);"/>
        <path d="M24.374,9.511C23.578,9.609 22.973,10.15 22.923,10.789C22.922,10.792 22.922,10.798 22.921,10.801C22.921,10.801 22.622,12.632 22.27,13.125C21.993,13.511 16.697,18.299 16.447,18.709C15.92,19.574 16.903,20.808 17.946,20.095C18.633,19.624 22.783,14.44 23.344,14.078C23.723,13.833 25.691,13.413 25.691,13.413C25.806,13.439 24.871,11.734 24.619,11.195C24.619,10.829 24.618,10.799 24.653,10.466C25.096,10.291 25.914,9.978 25.914,9.978C25.588,9.663 25.081,9.474 24.527,9.503L24.516,9.503C24.495,9.505 24.421,9.508 24.416,9.509C24.41,9.509 24.401,9.509 24.394,9.51C24.388,9.511 24.38,9.51 24.374,9.511ZM17.337,18.575C17.66,18.558 17.972,18.872 17.988,19.244C18,19.552 17.692,19.872 17.369,19.889C17.046,19.906 16.717,19.581 16.697,19.245C16.678,18.92 16.929,18.597 17.337,18.575Z" style="fill:url(#_Radial5);"/>
        <path d="M23.057,10.851L23.718,12.287L24,12.167L24.467,13.213L24.235,13.323L24.553,13.738C25.078,13.606 25.645,13.381 25.645,13.381L25.651,13.381C25.651,13.381 25.653,13.378 25.654,13.378L25.653,13.376C25.654,13.375 25.656,13.371 25.656,13.37C25.654,13.213 24.813,11.672 24.577,11.165C24.577,10.799 24.577,10.769 24.611,10.435C25.053,10.261 25.869,9.984 25.869,9.984C25.543,9.669 24.874,9.531 24.377,9.623C23.594,9.769 23.13,10.236 23.057,10.851Z" style="fill:url(#_Radial6);"/>
        <path d="M24.238,9.539C23.488,9.666 22.926,10.191 22.878,10.806C22.878,10.809 22.877,10.814 22.877,10.817C22.877,10.817 22.579,12.648 22.227,13.14C21.949,13.527 16.651,18.313 16.402,18.723C15.874,19.589 16.859,20.824 17.902,20.11C18.589,19.639 22.741,14.456 23.301,14.093C23.68,13.848 25.646,13.427 25.646,13.427C25.647,13.427 25.649,13.429 25.649,13.43C25.65,13.43 25.651,13.429 25.652,13.429L25.654,13.426C25.654,13.425 25.657,13.424 25.657,13.423L25.657,13.421C25.657,13.419 25.656,13.414 25.656,13.413C25.64,13.234 24.811,11.714 24.576,11.211C24.576,10.845 24.576,10.815 24.61,10.481C25.054,10.306 25.87,9.992 25.87,9.992C25.543,9.678 25.038,9.49 24.483,9.519C24.48,9.519 24.475,9.518 24.471,9.518C24.451,9.519 24.378,9.524 24.371,9.525C24.366,9.526 24.357,9.524 24.351,9.525C24.346,9.525 24.337,9.526 24.331,9.527C24.301,9.531 24.268,9.534 24.238,9.539ZM24.358,9.631C24.853,9.546 25.502,9.651 25.822,9.961C25.822,9.961 25.012,10.274 24.571,10.449C24.537,10.782 24.537,10.812 24.537,11.178C24.771,11.682 25.599,13.202 25.614,13.38L25.614,13.383C25.614,13.384 25.612,13.387 25.611,13.388L25.612,13.391C25.611,13.391 25.61,13.394 25.61,13.394L25.607,13.394C25.607,13.395 25.604,13.395 25.604,13.395C25.604,13.395 24.976,13.502 24.45,13.634L24.293,13.405L24.602,13.202L24.037,12.108L23.647,12.242L23.017,10.864C23.088,10.249 23.553,9.782 24.335,9.637C24.343,9.635 24.35,9.633 24.358,9.631ZM17.19,18.602C17.223,18.596 17.258,18.594 17.293,18.592C17.616,18.575 17.929,18.886 17.945,19.258C17.956,19.566 17.647,19.888 17.324,19.905C17.002,19.922 16.673,19.596 16.653,19.259C16.636,18.963 16.843,18.667 17.19,18.602Z" style="fill:url(#_Radial7);"/>
        <path d="M24.26,9.536C23.51,9.663 22.948,10.189 22.9,10.803L22.9,10.814C22.9,10.814 22.601,12.645 22.248,13.138C21.971,13.524 16.673,18.311 16.424,18.72C15.897,19.586 16.881,20.821 17.923,20.107C18.61,19.636 22.763,14.453 23.323,14.09C23.702,13.845 25.668,13.424 25.668,13.424C25.669,13.424 25.671,13.427 25.671,13.427L25.674,13.427C25.674,13.426 25.676,13.424 25.677,13.424C25.677,13.423 25.679,13.421 25.679,13.421L25.679,13.418C25.679,13.416 25.677,13.412 25.677,13.41C25.662,13.231 24.833,11.712 24.598,11.209C24.598,10.842 24.597,10.813 24.631,10.479C25.076,10.304 25.891,9.99 25.891,9.99C25.565,9.675 25.06,9.488 24.506,9.516C24.501,9.516 24.497,9.515 24.493,9.515C24.474,9.516 24.4,9.522 24.394,9.522C24.388,9.523 24.379,9.522 24.373,9.522C24.368,9.523 24.36,9.524 24.353,9.525C24.323,9.528 24.29,9.531 24.26,9.536ZM24.38,9.629C24.875,9.544 25.524,9.648 25.844,9.958C25.844,9.958 25.034,10.271 24.593,10.446C24.559,10.78 24.558,10.81 24.559,11.176C24.793,11.679 25.62,13.2 25.636,13.377L25.636,13.38C25.636,13.381 25.634,13.384 25.634,13.385L25.634,13.388C25.633,13.389 25.632,13.391 25.631,13.391L25.629,13.391L25.626,13.392C25.626,13.392 24.997,13.5 24.472,13.631L24.306,13.342L24.64,13.157L24.121,12.076L23.682,12.176L23.038,10.861C23.111,10.246 23.575,9.779 24.357,9.634C24.365,9.633 24.371,9.63 24.38,9.629ZM17.212,18.599C17.246,18.593 17.28,18.59 17.315,18.589C17.637,18.572 17.951,18.883 17.966,19.256C17.978,19.563 17.669,19.885 17.346,19.902C17.023,19.919 16.695,19.594 16.675,19.256C16.657,18.96 16.865,18.664 17.212,18.599Z" style="fill:url(#_Radial8);"/>
        <g>
            <path d="M22.879,12.667L23.997,12.192L24.513,13.199L23.395,13.674L22.879,12.667Z" style="fill:rgb(46,52,54);stroke:url(#_Radial9);stroke-width:0.14px;stroke-miterlimit:4;"/>
            <path d="M23.13,12.625L23.787,12.377L24.219,13.227L23.563,13.475L23.13,12.625Z" style="fill:url(#_Radial10);"/>
            <g>
                <path d="M24.063,12.424L24.087,12.526L23.101,12.81L23.077,12.707L24.063,12.424Z" style="fill:url(#_Radial11);stroke:url(#_Linear12);stroke-width:0.04px;stroke-miterlimit:4;"/>
                <path d="M24.381,13.071L24.403,13.158L23.436,13.416L23.414,13.328L24.381,13.071Z" style="fill:url(#_Radial13);stroke:url(#_Linear14);stroke-width:0.03px;stroke-miterlimit:4;"/>
                <path d="M24.237,12.766L24.26,12.853L23.228,13.118L23.205,13.031L24.237,12.766Z" style="fill:url(#_Radial15);stroke:url(#_Linear16);stroke-width:0.03px;stroke-miterlimit:4;"/>
            </g>
        </g>
        <path d="M24.581,10.482L25.841,9.996L25.898,10.145L24.578,10.669L24.581,10.482Z" style="fill:url(#_Linear17);"/>
        <path d="M25.585,13.231C25.953,13.162 26.527,12.394 26.712,11.532C26.72,11.494 26.749,11.802 26.739,11.844C26.55,12.64 26.039,13.182 25.655,13.365C25.633,13.376 25.658,13.517 25.585,13.231Z" style="fill:url(#_Linear18);"/>
        <path d="M23.111,10.762L23.691,12.249L24.046,12.182L24.532,13.205L24.244,13.384L24.454,13.667C24.979,13.535 25.546,13.311 25.546,13.311L25.549,13.311C25.549,13.31 25.551,13.31 25.551,13.31C25.552,13.31 25.554,13.308 25.554,13.308C25.555,13.307 25.554,13.305 25.554,13.305C25.554,13.304 25.557,13.301 25.557,13.299C25.555,13.142 24.714,11.601 24.478,11.094C24.478,10.728 24.478,10.699 24.512,10.365C24.953,10.19 25.677,9.888 25.677,9.888C25.351,9.573 24.793,9.583 24.294,9.675C23.512,9.821 23.184,10.147 23.111,10.762Z" style="fill:url(#_Radial19);"/>
        <path d="M16.462,18.627C16.462,18.627 21.906,13.518 22.259,13.102C22.597,12.702 22.893,10.885 22.893,10.885C22.893,10.885 23.079,10.759 23.044,10.869C22.995,11.018 22.522,12.851 22.407,13.03C22.142,13.435 20.644,14.774 20.644,14.774L16.982,18.253L16.462,18.627Z" style="fill-opacity:0.39;"/>
        <path d="M17.39,19.999C17.39,19.999 16.97,20.006 16.749,19.728C16.527,19.449 16.509,19.024 16.509,19.024L16.557,18.951C16.557,18.951 16.601,19.378 16.8,19.648C17.004,19.922 17.44,19.938 17.433,19.949L17.39,19.999Z" style="fill:url(#_Radial20);"/>
        <path d="M25.447,12.012C25.44,12.037 25.471,12.75 25.476,12.774C25.486,13.166 25.579,13.19 25.589,13.26C25.665,13.231 25.614,13.267 25.681,13.225C25.675,13.191 25.579,12.952 25.539,12.866C25.543,12.672 25.543,12.126 25.544,12.074C25.507,12.049 25.493,12.039 25.447,12.012Z"/>
        <path d="M26.666,11.562L25.55,12.088L25.535,12.881L25.691,13.22C26.173,12.918 26.502,12.293 26.666,11.562Z" style="fill:url(#_Radial21);"/>
        <path d="M24.26,9.536C23.51,9.663 22.948,10.189 22.9,10.803L22.9,10.814C22.9,10.814 22.601,12.645 22.248,13.138C21.971,13.524 16.673,18.311 16.424,18.72C15.897,19.586 16.881,20.821 17.923,20.107C18.61,19.636 22.763,14.453 23.323,14.09C23.702,13.845 25.668,13.424 25.668,13.424C25.669,13.424 25.671,13.427 25.671,13.427L25.674,13.427C25.674,13.426 25.676,13.424 25.677,13.424C25.677,13.423 25.679,13.421 25.679,13.421L25.679,13.418C25.679,13.416 25.677,13.412 25.677,13.41C25.662,13.231 24.833,11.712 24.598,11.209C24.598,10.842 24.597,10.813 24.631,10.479C25.076,10.304 25.891,9.99 25.891,9.99C25.565,9.675 25.06,9.488 24.506,9.516C24.501,9.516 24.497,9.515 24.493,9.515C24.474,9.516 24.4,9.522 24.394,9.522C24.388,9.523 24.379,9.522 24.373,9.522C24.368,9.523 24.36,9.524 24.353,9.525C24.323,9.528 24.29,9.531 24.26,9.536ZM24.38,9.629C24.875,9.544 25.524,9.648 25.844,9.958C25.844,9.958 25.034,10.271 24.593,10.446C24.559,10.78 24.558,10.81 24.559,11.176C24.793,11.679 25.62,13.2 25.636,13.377L25.636,13.38C25.636,13.381 25.634,13.384 25.634,13.385L25.634,13.388C25.633,13.389 25.632,13.391 25.631,13.391L25.629,13.391L25.626,13.392C25.626,13.392 24.997,13.5 24.472,13.631L24.306,13.342L24.64,13.157L24.121,12.076L23.682,12.176L23.038,10.861C23.111,10.246 23.575,9.779 24.357,9.634C24.365,9.633 24.371,9.63 24.38,9.629ZM17.212,18.599C17.246,18.593 17.28,18.59 17.315,18.589C17.637,18.572 17.951,18.883 17.966,19.256C17.978,19.563 17.669,19.885 17.346,19.902C17.023,19.919 16.695,19.594 16.675,19.256C16.657,18.96 16.865,18.664 17.212,18.599Z" style="fill:url(#_Radial22);"/>
        <path d="M17.242,18.351C17.732,18.236 18.29,18.785 18.182,19.303C18.549,18.999 22.768,14.293 22.856,14.067C22.99,13.72 22.628,13.407 22.284,13.554C22.044,13.657 17.21,18.359 17.242,18.351Z" style="fill:rgb(136,138,133);"/>
        <path d="M17.242,18.351C17.732,18.236 18.29,18.785 18.182,19.303C18.549,18.999 22.768,14.293 22.856,14.067C22.99,13.72 22.628,13.407 22.284,13.554C22.044,13.657 17.21,18.359 17.242,18.351Z" style="fill-opacity:0.8;"/>
        <path d="M17.242,18.351C17.732,18.236 18.29,18.785 18.182,19.303C18.549,18.999 22.768,14.293 22.856,14.067C22.99,13.72 22.628,13.407 22.284,13.554C22.044,13.657 17.21,18.359 17.242,18.351Z" style="fill:url(#_Radial23);"/>
        <path d="M17.242,18.351C17.732,18.236 18.29,18.785 18.182,19.303C18.549,18.999 22.768,14.293 22.856,14.067C22.99,13.72 22.628,13.407 22.284,13.554C22.044,13.657 17.21,18.359 17.242,18.351Z" style="fill:url(#_Radial24);"/>
        <path d="M22.277,13.565C22.304,13.548 22.53,13.435 22.741,13.62C22.92,13.777 22.895,13.941 22.845,14.087C22.822,14.158 20.884,16.355 20.536,16.755C20.366,16.952 19.781,17.591 19.243,18.182C18.702,18.778 18.193,19.295 18.193,19.295C18.193,19.295 22.783,14.178 22.811,14.038C22.851,13.834 22.767,13.769 22.698,13.704C22.628,13.637 22.504,13.563 22.335,13.597C22.103,13.644 17.342,18.31 17.252,18.345C17.252,18.345 18.395,17.213 19.601,16.049C20.808,14.884 22.078,13.687 22.277,13.565Z" style="fill:rgb(46,52,54);fill-opacity:0.4;"/>
        <path id="O" d="M17.288,18.303C17.288,18.303 17.667,18.213 17.992,18.516C18.347,18.849 18.239,19.245 18.239,19.245L18.182,19.313C18.182,19.313 18.213,19.162 18.176,19.013C18.139,18.864 18.061,18.712 17.928,18.589C17.796,18.467 17.671,18.389 17.536,18.36C17.4,18.331 17.246,18.352 17.249,18.346L17.288,18.303Z" style="fill:url(#_Radial25);"/>
        <path id="O1" serif:id="O" d="M17.288,18.303C17.288,18.303 17.667,18.213 17.992,18.516C18.347,18.849 18.239,19.245 18.239,19.245L18.182,19.313C18.182,19.313 18.213,19.162 18.176,19.013C18.139,18.864 18.061,18.712 17.928,18.589C17.796,18.467 17.671,18.389 17.536,18.36C17.4,18.331 17.246,18.352 17.249,18.346L17.288,18.303Z" style="fill:url(#_Radial26);"/>
        <g>
            <g style="filter:url(#_Effect27);">
                <g>
                    <g>
                        <g>
                            <g>
                                <path d="M25.053,9.617C23.994,9.53 23.22,9.897 23.095,10.702C23.24,10.086 23.886,9.587 25.053,9.617Z" style="fill:white;"/>
                            </g>
                        </g>
                    </g>
                </g>
            </g>
            <g style="filter:url(#_Effect28);">
                <g>
                    <g>
                        <g>
                            <g>
                                <path d="M25.053,9.617C23.98,9.466 23.133,9.852 23.095,10.702C23.299,10.097 23.886,9.612 25.053,9.617Z" style="fill:white;fill-opacity:0.78;"/>
                            </g>
                        </g>
                    </g>
                </g>
            </g>
            <g style="filter:url(#_Effect29);">
                <g>
                    <g>
                        <g>
                            <g>
                                <path d="M24.63,9.614C24.207,9.611 23.84,9.7 23.574,9.879C23.349,10.032 23.195,10.248 23.141,10.525C23.361,10.067 23.828,9.704 24.63,9.614Z" style="fill:white;fill-opacity:0.78;"/>
                            </g>
                        </g>
                    </g>
                </g>
            </g>
        </g>
        <path d="M22.475,13.517C22.412,13.515 22.349,13.528 22.284,13.555C22.044,13.658 17.212,18.357 17.244,18.35C17.277,18.342 17.309,18.339 17.343,18.336C17.859,17.816 22.06,13.74 22.284,13.644C22.56,13.525 22.846,13.703 22.881,13.956C22.904,13.72 22.709,13.524 22.475,13.517ZM18.194,19.206C18.192,19.239 18.189,19.27 18.183,19.303C18.185,19.301 18.192,19.296 18.194,19.295L18.194,19.292C18.195,19.263 18.196,19.235 18.194,19.206Z" style="fill-opacity:0.5;"/>
    </g>
    <defs>
        <radialGradient id="_Radial1" cx="0" cy="0" r="1" gradientUnits="userSpaceOnUse" gradientTransform="matrix(0.990278,-0.0642077,0.065626,0.898973,24.7366,12.8076)"><stop offset="0" style="stop-color:black;stop-opacity:1"/><stop offset="1" style="stop-color:black;stop-opacity:0"/></radialGradient>
        <radialGradient id="_Radial2" cx="0" cy="0" r="1" gradientUnits="userSpaceOnUse" gradientTransform="matrix(0.990278,-0.0642077,0.0656254,0.898973,24.7387,12.6309)"><stop offset="0" style="stop-color:black;stop-opacity:1"/><stop offset="1" style="stop-color:black;stop-opacity:0"/></radialGradient>
        <radialGradient id="_Radial3" cx="0" cy="0" r="1" gradientUnits="userSpaceOnUse" gradientTransform="matrix(3.11367,-0.179695,0.178941,2.73236,25.8247,12.7256)"><stop offset="0" style="stop-color:white;stop-opacity:0.51"/><stop offset="1" style="stop-color:rgb(62,62,62);stop-opacity:0"/></radialGradient>
        <radialGradient id="_Radial4" cx="0" cy="0" r="1" gradientUnits="userSpaceOnUse" gradientTransform="matrix(3.17754,-0.258586,0.21612,2.38991,25.0472,13.0139)"><stop offset="0" style="stop-color:white;stop-opacity:0.51"/><stop offset="1" style="stop-color:rgb(62,62,62);stop-opacity:0"/></radialGradient>
        <radialGradient id="_Radial5" cx="0" cy="0" r="1" gradientUnits="userSpaceOnUse" gradientTransform="matrix(5.36727,-0.663419,0.68352,4.88108,22.5544,13.8306)"><stop offset="0" style="stop-color:white;stop-opacity:1"/><stop offset="1" style="stop-color:rgb(136,138,133);stop-opacity:0"/></radialGradient>
        <radialGradient id="_Radial6" cx="0" cy="0" r="1" gradientUnits="userSpaceOnUse" gradientTransform="matrix(3.44513,-0.445472,1.507,9.94932,24.0659,13.6739)"><stop offset="0" style="stop-color:white;stop-opacity:1"/><stop offset="1" style="stop-color:rgb(136,138,133);stop-opacity:0"/></radialGradient>
        <radialGradient id="_Radial7" cx="0" cy="0" r="1" gradientUnits="userSpaceOnUse" gradientTransform="matrix(1.4917,-0.506145,1.77709,4.56256,24.8906,12.7016)"><stop offset="0" style="stop-color:black;stop-opacity:1"/><stop offset="1" style="stop-color:black;stop-opacity:0"/></radialGradient>
        <radialGradient id="_Radial8" cx="0" cy="0" r="1" gradientUnits="userSpaceOnUse" gradientTransform="matrix(1.4917,-0.506145,1.77709,4.56256,24.9125,12.699)"><stop offset="0" style="stop-color:black;stop-opacity:1"/><stop offset="1" style="stop-color:black;stop-opacity:0"/></radialGradient>
        <radialGradient id="_Radial9" cx="0" cy="0" r="1" gradientUnits="userSpaceOnUse" gradientTransform="matrix(-1.08795,-2.69,2.90593,-2.38342,22.2842,14.2221)"><stop offset="0" style="stop-color:white;stop-opacity:1"/><stop offset="1" style="stop-color:black;stop-opacity:0"/></radialGradient>
        <radialGradient id="_Radial10" cx="0" cy="0" r="1" gradientUnits="userSpaceOnUse" gradientTransform="matrix(0.261361,-0.0792573,1.69094,3.21834,23.6745,12.9258)"><stop offset="0" style="stop-color:white;stop-opacity:1"/><stop offset="1" style="stop-color:rgb(85,87,83);stop-opacity:0"/></radialGradient>
        <radialGradient id="_Radial11" cx="0" cy="0" r="1" gradientUnits="userSpaceOnUse" gradientTransform="matrix(0.350864,-0.097116,1.22368,5.38011,23.6705,13.1058)"><stop offset="0" style="stop-color:white;stop-opacity:1"/><stop offset="1" style="stop-color:white;stop-opacity:0"/></radialGradient>
        <linearGradient id="_Linear12" x1="0" y1="0" x2="1" y2="0" gradientUnits="userSpaceOnUse" gradientTransform="matrix(0.997355,-0.235733,0.235733,0.997355,23.0891,12.758)"><stop offset="0" style="stop-color:black;stop-opacity:0.67"/><stop offset="1" style="stop-color:black;stop-opacity:0"/></linearGradient>
        <radialGradient id="_Radial13" cx="0" cy="0" r="1" gradientUnits="userSpaceOnUse" gradientTransform="matrix(0.343709,-0.0883996,1.10213,4.58928,23.9862,13.6611)"><stop offset="0" style="stop-color:white;stop-opacity:1"/><stop offset="1" style="stop-color:white;stop-opacity:0"/></radialGradient>
        <linearGradient id="_Linear14" x1="0" y1="0" x2="1" y2="0" gradientUnits="userSpaceOnUse" gradientTransform="matrix(0.969818,-0.24282,0.24282,0.969818,23.4253,13.3719)"><stop offset="0" style="stop-color:black;stop-opacity:0.67"/><stop offset="1" style="stop-color:black;stop-opacity:0"/></linearGradient>
        <radialGradient id="_Radial15" cx="0" cy="0" r="1" gradientUnits="userSpaceOnUse" gradientTransform="matrix(0.366962,-0.0910915,1.12948,4.56681,23.8114,13.3577)"><stop offset="0" style="stop-color:white;stop-opacity:1"/><stop offset="1" style="stop-color:white;stop-opacity:0"/></radialGradient>
        <linearGradient id="_Linear16" x1="0" y1="0" x2="1" y2="0" gradientUnits="userSpaceOnUse" gradientTransform="matrix(1.03125,-0.266362,0.266362,1.03125,23.2167,13.0742)"><stop offset="0" style="stop-color:black;stop-opacity:0.67"/><stop offset="1" style="stop-color:black;stop-opacity:0"/></linearGradient>
        <linearGradient id="_Linear17" x1="0" y1="0" x2="1" y2="0" gradientUnits="userSpaceOnUse" gradientTransform="matrix(1.36922,-0.169253,0.169253,1.36922,24.5425,10.4148)"><stop offset="0" style="stop-color:black;stop-opacity:1"/><stop offset="1" style="stop-color:black;stop-opacity:0"/></linearGradient>
        <linearGradient id="_Linear18" x1="0" y1="0" x2="1" y2="0" gradientUnits="userSpaceOnUse" gradientTransform="matrix(1.99772,-3.50947,3.50947,1.99772,25.8997,13.6742)"><stop offset="0" style="stop-color:black;stop-opacity:1"/><stop offset="1" style="stop-color:black;stop-opacity:0"/></linearGradient>
        <radialGradient id="_Radial19" cx="0" cy="0" r="1" gradientUnits="userSpaceOnUse" gradientTransform="matrix(3.44513,-0.445472,1.507,9.94932,23.9618,10.224)"><stop offset="0" style="stop-color:white;stop-opacity:1"/><stop offset="1" style="stop-color:rgb(136,138,133);stop-opacity:0"/></radialGradient>
        <radialGradient id="_Radial20" cx="0" cy="0" r="1" gradientUnits="userSpaceOnUse" gradientTransform="matrix(-0.420463,0.0321292,-0.0472234,-0.552374,16.9699,19.4756)"><stop offset="0" style="stop-color:white;stop-opacity:0.89"/><stop offset="1" style="stop-color:white;stop-opacity:0"/></radialGradient>
        <radialGradient id="_Radial21" cx="0" cy="0" r="1" gradientUnits="userSpaceOnUse" gradientTransform="matrix(3.11368,-0.179698,0.178955,2.73235,26.0967,12.1926)"><stop offset="0" style="stop-color:white;stop-opacity:0.51"/><stop offset="1" style="stop-color:rgb(62,62,62);stop-opacity:0"/></radialGradient>
        <radialGradient id="_Radial22" cx="0" cy="0" r="1" gradientUnits="userSpaceOnUse" gradientTransform="matrix(1.05471,-0.329108,3.70041,11.8592,20.2812,22.7299)"><stop offset="0" style="stop-color:white;stop-opacity:1"/><stop offset="1" style="stop-color:white;stop-opacity:0"/></radialGradient>
        <radialGradient id="_Radial23" cx="0" cy="0" r="1" gradientUnits="userSpaceOnUse" gradientTransform="matrix(1.39307,3.00705,-0.855,0.58676,22.5826,15.0016)"><stop offset="0" style="stop-color:white;stop-opacity:0.28"/><stop offset="1" style="stop-color:white;stop-opacity:0"/></radialGradient>
        <radialGradient id="_Radial24" cx="0" cy="0" r="1" gradientUnits="userSpaceOnUse" gradientTransform="matrix(3.08009,-0.380716,0.362021,2.58528,19.0015,17.453)"><stop offset="0" style="stop-color:white;stop-opacity:0.5"/><stop offset="1" style="stop-color:white;stop-opacity:0"/></radialGradient>
        <radialGradient id="_Radial25" cx="0" cy="0" r="1" gradientUnits="userSpaceOnUse" gradientTransform="matrix(0.446047,-0.0551339,0.0772102,0.551369,17.7667,18.8035)"><stop offset="0" style="stop-color:white;stop-opacity:1"/><stop offset="1" style="stop-color:white;stop-opacity:0"/></radialGradient>
        <radialGradient id="_Radial26" cx="0" cy="0" r="1" gradientUnits="userSpaceOnUse" gradientTransform="matrix(0.446047,-0.0551339,0.0772102,0.551369,17.7667,18.8035)"><stop offset="0" style="stop-color:white;stop-opacity:1"/><stop offset="1" style="stop-color:white;stop-opacity:0"/></radialGradient>
        <filter id="_Effect27" filterUnits="userSpaceOnUse" x="22.5764" y="9.08593" width="2.9951" height="2.13462">
            <feGaussianBlur in="SourceGraphic" stdDeviation="0.0864251"/>
        </filter>
        <filter id="_Effect28" filterUnits="userSpaceOnUse" x="22.0513" y="8.54121" width="4.04548" height="3.20453">
            <feGaussianBlur in="SourceGraphic" stdDeviation="0.173957"/>
        </filter>
        <filter id="_Effect29" filterUnits="userSpaceOnUse" x="22.0973" y="8.57018" width="3.57648" height="2.99856">
            <feGaussianBlur in="SourceGraphic" stdDeviation="0.173957"/>
        </filter>
    </defs>
</svg>
