<?xml version="1.0" encoding="UTF-8" standalone="no"?>
<!DOCTYPE svg PUBLIC "-//W3C//DTD SVG 1.1//EN" "http://www.w3.org/Graphics/SVG/1.1/DTD/svg11.dtd">
<svg width="30px" height="30px" version="1.1" xmlns="http://www.w3.org/2000/svg" xmlns:xlink="http://www.w3.org/1999/xlink" xml:space="preserve" xmlns:serif="http://www.serif.com/" style="fill-rule:evenodd;clip-rule:evenodd;stroke-linecap:round;stroke-linejoin:round;stroke-miterlimit:1.5;">
    <rect x="-0.113" y="21.091" width="30.113" height="8.909" style="fill:rgb(160,195,223);"/>
    <rect x="0" y="0" width="30.113" height="8.909" style="fill:rgb(160,195,223);"/>
    <rect x="0.255" y="8.45" width="29.5" height="13.101" style="fill:rgb(179,221,255);stroke:rgb(55,124,199);stroke-width:1px;"/>
    <path d="M16.112,18.047L14.657,18.047L14.657,12.102L15.208,12.102L15.208,16.961L16.112,16.961L16.112,18.047Z" style="fill-rule:nonzero;"/>
    <path d="M17.22,18.151C16.929,18.151 16.7,17.952 16.534,17.556C16.368,17.159 16.284,16.621 16.284,15.941C16.284,15.239 16.371,14.689 16.543,14.293C16.716,13.896 16.949,13.698 17.244,13.698C17.533,13.698 17.76,13.896 17.925,14.293C18.09,14.689 18.172,15.214 18.172,15.866C18.172,16.571 18.087,17.128 17.917,17.537C17.748,17.946 17.515,18.151 17.22,18.151ZM17.233,14.701C17.106,14.701 17.007,14.808 16.937,15.02C16.866,15.233 16.831,15.535 16.831,15.924C16.831,16.74 16.966,17.147 17.237,17.147C17.495,17.147 17.623,16.729 17.623,15.891C17.623,15.098 17.493,14.701 17.233,14.701Z" style="fill-rule:nonzero;"/>
    <path d="M19.659,14.983C19.595,14.897 19.519,14.855 19.433,14.855C19.316,14.855 19.224,14.959 19.159,15.168C19.093,15.376 19.06,15.66 19.06,16.02L19.06,18.047L18.521,18.047L18.521,13.801L19.06,13.801L19.06,14.589L19.067,14.589C19.152,14.014 19.305,13.727 19.527,13.727C19.583,13.727 19.628,13.743 19.659,13.777L19.659,14.983Z" style="fill-rule:nonzero;"/>
    <path d="M21.464,16.297L20.326,16.297C20.344,16.914 20.503,17.222 20.804,17.222C20.996,17.222 21.165,17.112 21.31,16.89L21.31,17.836C21.149,18.046 20.94,18.151 20.682,18.151C20.4,18.151 20.181,17.961 20.026,17.581C19.87,17.201 19.792,16.671 19.792,15.991C19.792,15.286 19.876,14.727 20.044,14.316C20.213,13.904 20.419,13.698 20.665,13.698C20.919,13.698 21.116,13.882 21.255,14.249C21.394,14.617 21.464,15.116 21.464,15.746L21.464,16.297ZM20.965,15.493C20.965,14.885 20.863,14.581 20.661,14.581C20.575,14.581 20.5,14.668 20.437,14.842C20.374,15.016 20.336,15.233 20.322,15.493L20.965,15.493Z" style="fill-rule:nonzero;"/>
    <path d="M24.554,18.047L24.018,18.047L24.018,15.626C24.018,15.009 23.924,14.701 23.738,14.701C23.65,14.701 23.577,14.794 23.522,14.979C23.466,15.164 23.438,15.395 23.438,15.671L23.438,18.047L22.9,18.047L22.9,15.601C22.9,15.001 22.809,14.701 22.626,14.701C22.534,14.701 22.46,14.79 22.405,14.967C22.35,15.143 22.322,15.384 22.322,15.688L22.322,18.047L21.784,18.047L21.784,13.801L22.322,13.801L22.322,14.465L22.329,14.465C22.385,14.238 22.463,14.054 22.563,13.911C22.664,13.769 22.774,13.698 22.893,13.698C23.14,13.698 23.308,13.962 23.399,14.49C23.532,13.962 23.727,13.698 23.985,13.698C24.365,13.698 24.554,14.267 24.554,15.406L24.554,18.047Z" style="fill-rule:nonzero;"/>
    <rect x="25.996" y="12.102" width="0.55" height="5.946" style="fill-rule:nonzero;"/>
    <path d="M27.594,17.554L27.587,17.554L27.587,20L27.049,20L27.049,13.801L27.587,13.801L27.587,14.44L27.594,14.44C27.727,13.945 27.913,13.698 28.154,13.698C28.38,13.698 28.555,13.886 28.678,14.264C28.801,14.641 28.863,15.155 28.863,15.804C28.863,16.512 28.791,17.08 28.648,17.508C28.504,17.937 28.313,18.151 28.074,18.151C27.864,18.151 27.704,17.952 27.594,17.554ZM27.578,15.812L27.578,16.152C27.578,16.445 27.61,16.684 27.674,16.87C27.737,17.055 27.821,17.147 27.924,17.147C28.047,17.147 28.142,17.032 28.21,16.801C28.277,16.57 28.311,16.244 28.311,15.821C28.311,15.074 28.192,14.701 27.953,14.701C27.843,14.701 27.753,14.803 27.683,15.006C27.613,15.209 27.578,15.478 27.578,15.812Z" style="fill-rule:nonzero;"/>
    <g id="button">
        <rect x="2" y="10.168" width="10.836" height="9.933" style="fill:none;stroke:rgb(136,136,136);stroke-width:1.16px;stroke-linecap:butt;stroke-miterlimit:4;"/>
        <rect x="2" y="10.168" width="10.836" height="9.933" style="fill:rgb(153,153,153);"/>
        <rect x="2.387" y="10.877" width="10.062" height="8.515" style="fill:rgb(191,191,191);"/>
        <g>
            <path d="M5.379,18.965C5.371,18.985 5.355,18.999 5.339,18.998C5.322,18.997 5.307,18.982 5.3,18.96L4.955,17.849C4.947,17.822 4.927,17.807 4.908,17.812L4.076,18.003C4.059,18.007 4.043,17.997 4.033,17.977C4.023,17.958 4.022,17.932 4.03,17.91L6.055,12.491C6.067,12.46 6.093,12.449 6.115,12.465L7.386,13.459C7.407,13.475 7.415,13.514 7.404,13.545L5.379,18.965Z" style="fill:rgb(232,61,58);fill-rule:nonzero;"/>
            <path d="M7.386,13.459L6.115,12.465C6.093,12.449 6.067,12.46 6.055,12.491L4.581,16.439L5.713,18.075L7.404,13.545C7.415,13.514 7.407,13.475 7.386,13.459Z" style="fill:rgb(189,34,33);fill-rule:nonzero;"/>
            <path d="M8.988,18.965C8.996,18.985 9.012,18.999 9.028,18.998C9.045,18.997 9.06,18.982 9.067,18.96L9.412,17.849C9.42,17.822 9.44,17.807 9.459,17.812L10.291,18.003C10.308,18.007 10.324,17.997 10.334,17.977C10.344,17.958 10.345,17.932 10.337,17.91L8.312,12.491C8.3,12.46 8.274,12.449 8.252,12.465L6.981,13.459C6.96,13.475 6.952,13.514 6.963,13.545L8.988,18.965Z" style="fill:rgb(189,34,33);fill-rule:nonzero;"/>
            <path d="M3.662,14.805C3.662,15.379 3.982,15.516 4.278,15.394C4.517,15.296 6.902,14.298 6.902,14.298L6.902,12.409C6.902,12.409 4.517,11.411 4.278,11.313C3.982,11.191 3.662,11.328 3.662,11.902L3.662,14.805Z" style="fill:rgb(232,61,58);fill-rule:nonzero;"/>
            <path d="M6.331,14.412C6.331,14.445 6.368,14.477 6.375,14.507C6.667,14.384 6.902,14.298 6.902,14.298L6.902,12.409C6.902,12.409 6.712,12.322 6.331,12.196L6.331,14.412Z" style="fill:rgb(206,39,28);fill-rule:nonzero;"/>
            <path d="M10.905,14.805C10.905,15.379 10.634,15.516 10.337,15.394C10.098,15.296 7.76,14.298 7.76,14.298L7.76,12.409C7.76,12.409 10.098,11.411 10.337,11.313C10.634,11.191 10.905,11.328 10.905,11.902L10.905,14.805Z" style="fill:rgb(232,61,58);fill-rule:nonzero;"/>
            <g>
                <path d="M7.76,12.409L7.76,14.298C7.76,14.298 9.156,14.9 9.903,15.215L7.924,12.333C7.813,12.38 7.76,12.409 7.76,12.409Z" style="fill:rgb(206,39,28);fill-rule:nonzero;"/>
            </g>
            <path d="M7.855,14.327C7.855,14.482 7.843,14.646 7.736,14.646L6.73,14.646C6.623,14.646 6.521,14.482 6.521,14.327L6.521,12.368C6.521,12.213 6.623,12.165 6.73,12.165L7.736,12.165C7.843,12.165 7.855,12.213 7.855,12.368L7.855,14.327Z" style="fill:rgb(232,61,58);fill-rule:nonzero;"/>
        </g>
    </g>
    <rect id="outer" x="0" y="0" width="30" height="30" style="fill:none;"/>
</svg>
