<?xml version="1.0" encoding="UTF-8" standalone="no"?>
<!DOCTYPE svg PUBLIC "-//W3C//DTD SVG 1.1//EN" "http://www.w3.org/Graphics/SVG/1.1/DTD/svg11.dtd">
<svg width="30px" height="30px" version="1.1" xmlns="http://www.w3.org/2000/svg" xmlns:xlink="http://www.w3.org/1999/xlink" xml:space="preserve" xmlns:serif="http://www.serif.com/" style="fill-rule:evenodd;clip-rule:evenodd;stroke-linecap:round;stroke-linejoin:round;stroke-miterlimit:1.5;">
    <rect x="-0.113" y="21.091" width="30.113" height="8.909" style="fill:rgb(160,195,223);"/>
    <rect x="0" y="0" width="30.113" height="8.909" style="fill:rgb(160,195,223);"/>
    <rect x="0.255" y="8.45" width="29.5" height="13.101" style="fill:rgb(179,221,255);stroke:rgb(55,124,199);stroke-width:1px;"/>
    <rect x="7.36" y="9.84" width="15.28" height="10.268" style="fill:white;stroke:rgb(153,153,153);stroke-width:1.5px;stroke-linecap:square;stroke-linejoin:miter;"/>
    <g id="open">
        <path d="M15.663,13.677C15.663,13.84 15.529,13.974 15.364,13.974L10.877,18.733C10.712,18.733 10.578,18.599 10.578,18.436L10.578,11.446C10.578,11.283 10.712,11.149 10.877,11.149L13.569,11.149C13.734,11.149 13.868,11.283 13.868,11.446L15.663,13.677Z" style="fill:rgb(211,172,81);fill-rule:nonzero;"/>
        <path d="M10.937,18.882L10.877,18.882C10.622,18.882 10.428,18.688 10.428,18.436L10.428,11.446C10.428,11.194 10.622,11 10.877,11L13.569,11C13.793,11 13.988,11.164 14.018,11.387L15.812,13.618L15.812,13.677C15.812,13.9 15.648,14.078 15.438,14.123L10.937,18.882ZM10.877,11.298C10.787,11.298 10.727,11.357 10.727,11.446L10.727,18.436C10.727,18.495 10.772,18.554 10.817,18.569L15.289,13.825L15.349,13.825C15.408,13.825 15.468,13.78 15.498,13.722L13.703,11.505L13.703,11.446C13.703,11.357 13.643,11.298 13.554,11.298L10.877,11.298Z" style="fill:rgb(35,28,28);fill-rule:nonzero;"/>
        <path d="M18.953,18.436C18.953,18.599 18.819,18.733 18.654,18.733L10.877,18.733C10.712,18.733 10.578,18.599 10.578,18.436L11.325,12.487C11.325,12.323 11.46,12.189 11.625,12.189L19.551,12.189C19.716,12.189 19.85,12.323 19.85,12.487L18.953,18.436Z" style="fill:rgb(250,197,70);fill-rule:nonzero;"/>
        <path d="M18.654,18.882L10.877,18.882C10.622,18.882 10.428,18.688 10.428,18.436L10.428,18.421L11.176,12.487C11.176,12.249 11.385,12.056 11.625,12.056L19.551,12.056C19.806,12.056 20,12.249 20,12.502L20,12.517L19.103,18.451C19.087,18.688 18.893,18.882 18.654,18.882ZM10.727,18.451C10.727,18.524 10.802,18.584 10.877,18.584L18.654,18.584C18.744,18.584 18.804,18.524 18.804,18.436L18.804,18.421L19.701,12.487C19.701,12.413 19.626,12.353 19.551,12.353L11.625,12.353C11.535,12.353 11.475,12.413 11.475,12.502L11.475,12.517L10.727,18.451Z" style="fill:rgb(35,28,28);fill-rule:nonzero;"/>
    </g>
    <rect id="outer" x="0" y="0" width="30" height="30" style="fill:none;"/>
</svg>
