<?xml version="1.0" encoding="UTF-8" standalone="no"?>
<!DOCTYPE svg PUBLIC "-//W3C//DTD SVG 1.1//EN" "http://www.w3.org/Graphics/SVG/1.1/DTD/svg11.dtd">
<svg width="30px" height="30px" version="1.1" xmlns="http://www.w3.org/2000/svg" xmlns:xlink="http://www.w3.org/1999/xlink" xml:space="preserve" xmlns:serif="http://www.serif.com/" style="fill-rule:evenodd;clip-rule:evenodd;stroke-linecap:round;stroke-linejoin:round;stroke-miterlimit:1.5;">
    <rect x="0" y="0" width="30.113" height="9.909" style="fill:rgb(160,195,223);"/>
    <rect x="-0.113" y="21.091" width="30.113" height="8.909" style="fill:rgb(160,195,223);"/>
    <path d="M24.5,2.554L24.5,7.458C24.5,8.811 23.401,9.909 22.048,9.909L8.452,9.909C7.099,9.909 6,8.811 6,7.458L6,2.554C6,1.201 7.099,0.102 8.452,0.102L22.048,0.102C23.401,0.102 24.5,1.201 24.5,2.554Z" style="fill:white;"/>
    <path d="M8.566,4.73L8.566,7.123L7.911,7.123L7.911,0.792L9.447,0.792C10.045,0.792 10.509,0.956 10.838,1.286C11.166,1.616 11.331,2.081 11.331,2.681C11.331,3.282 11.148,3.773 10.783,4.156C10.418,4.538 9.924,4.73 9.303,4.73L8.566,4.73ZM8.566,1.463L8.566,4.059L9.252,4.059C9.705,4.059 10.05,3.942 10.288,3.708C10.526,3.474 10.645,3.143 10.645,2.717C10.645,1.881 10.208,1.463 9.334,1.463L8.566,1.463Z" style="fill-rule:nonzero;"/>
    <path d="M14.883,7.123L14.244,7.123L14.244,6.416L14.228,6.416C13.95,6.958 13.54,7.229 13,7.229C12.602,7.229 12.291,7.109 12.066,6.871C11.841,6.633 11.729,6.316 11.729,5.922C11.729,5.077 12.168,4.585 13.047,4.447L14.244,4.257C14.244,3.489 13.969,3.105 13.421,3.105C12.94,3.105 12.506,3.29 12.119,3.661L12.119,2.92C12.511,2.637 12.963,2.496 13.476,2.496C14.414,2.496 14.883,3.058 14.883,4.182L14.883,7.123ZM14.244,4.836L13.281,4.986C12.984,5.033 12.761,5.116 12.61,5.235C12.459,5.354 12.384,5.566 12.384,5.869C12.384,6.089 12.453,6.27 12.592,6.41C12.731,6.549 12.917,6.619 13.148,6.619C13.465,6.619 13.727,6.493 13.934,6.242C14.14,5.99 14.244,5.672 14.244,5.286L14.244,4.836Z" style="fill-rule:nonzero;"/>
    <path d="M19.496,6.761C19.496,8.421 18.794,9.251 17.391,9.251C16.897,9.251 16.465,9.145 16.096,8.933L16.096,8.209C16.546,8.491 16.975,8.632 17.383,8.632C18.365,8.632 18.857,8.041 18.857,6.858L18.857,6.363L18.841,6.363C18.537,6.94 18.079,7.229 17.468,7.229C16.972,7.229 16.572,7.028 16.269,6.626C15.967,6.224 15.815,5.685 15.815,5.008C15.815,4.24 15.978,3.629 16.305,3.176C16.631,2.722 17.077,2.496 17.644,2.496C18.182,2.496 18.581,2.74 18.841,3.229L18.857,3.229L18.857,2.602L19.496,2.602L19.496,6.761ZM18.857,5.078L18.857,4.412C18.857,4.053 18.749,3.745 18.535,3.489C18.321,3.233 18.053,3.105 17.734,3.105C17.339,3.105 17.029,3.268 16.806,3.593C16.582,3.918 16.47,4.374 16.47,4.959C16.47,5.463 16.577,5.865 16.792,6.167C17.006,6.468 17.29,6.619 17.644,6.619C18.003,6.619 18.295,6.475 18.519,6.187C18.744,5.898 18.857,5.529 18.857,5.078Z" style="fill-rule:nonzero;"/>
    <path d="M24,5.043L21.181,5.043C21.191,5.546 21.311,5.935 21.539,6.209C21.768,6.482 22.083,6.619 22.483,6.619C22.933,6.619 23.346,6.452 23.723,6.116L23.723,6.796C23.372,7.084 22.908,7.229 22.331,7.229C21.767,7.229 21.324,7.023 21.001,6.613C20.679,6.202 20.518,5.624 20.518,4.88C20.518,4.176 20.694,3.603 21.046,3.16C21.398,2.717 21.836,2.496 22.358,2.496C22.881,2.496 23.285,2.687 23.571,3.07C23.857,3.452 24,3.984 24,4.663L24,5.043ZM23.345,4.43C23.342,4.012 23.253,3.686 23.078,3.454C22.902,3.221 22.659,3.105 22.347,3.105C22.045,3.105 21.789,3.227 21.578,3.471C21.368,3.716 21.238,4.035 21.189,4.43L23.345,4.43Z" style="fill-rule:nonzero;"/>
    <rect x="0.255" y="10.399" width="29.5" height="13.101" style="fill:rgb(179,221,255);stroke:rgb(55,124,199);stroke-width:1px;"/>
</svg>
