<?xml version="1.0" encoding="UTF-8" standalone="no"?>
<!DOCTYPE svg PUBLIC "-//W3C//DTD SVG 1.1//EN" "http://www.w3.org/Graphics/SVG/1.1/DTD/svg11.dtd">
<svg width="30px" height="30px" version="1.1" xmlns="http://www.w3.org/2000/svg" xmlns:xlink="http://www.w3.org/1999/xlink" xml:space="preserve" xmlns:serif="http://www.serif.com/" style="fill-rule:evenodd;clip-rule:evenodd;stroke-linejoin:round;stroke-miterlimit:2;">
    <g id="Image">
        <path id="dots" d="M29.984,0L29.982,3.002L26.984,3L26.986,-0.001L29.984,0ZM25.486,-0.002L25.484,3L22.486,2.998L22.488,-0.004L25.486,-0.002ZM20.989,-0.004L20.987,2.997L17.989,2.995L17.99,-0.006L20.989,-0.004ZM16.491,-0.007L16.489,2.994L13.49,2.993L13.492,-0.009L16.491,-0.007ZM11.994,-0.01L11.992,2.992L8.993,2.991L8.995,-0.012L11.994,-0.01ZM7.497,-0.012L7.494,2.989L4.495,2.988L4.498,-0.014L7.497,-0.012ZM2.998,-0.015L2.997,2.987L-0.002,2.985L0,-0.016L2.998,-0.015ZM2.995,4.488L2.993,7.49L-0.005,7.488L-0.003,4.486L2.995,4.488ZM2.993,8.99L2.991,11.992L-0.007,11.99L-0.006,8.989L2.993,8.99ZM2.99,13.493L2.988,16.495L-0.011,16.493L-0.009,13.491L2.99,13.493ZM2.986,17.995L2.984,20.997L-0.014,20.995L-0.012,17.994L2.986,17.995ZM2.984,22.497L2.982,25.5L-0.016,25.498L-0.014,22.496L2.984,22.497ZM29.966,27.016L29.964,30.017L26.966,30.016L26.968,27.014L29.966,27.016ZM25.468,27.013L25.467,30.015L22.468,30.013L22.47,27.011L25.468,27.013ZM20.971,27.011L20.969,30.012L17.971,30.011L17.973,27.009L20.971,27.011ZM16.473,27.008L16.471,30.01L13.473,30.008L13.475,27.007L16.473,27.008ZM11.976,27.005L11.974,30.008L8.976,30.005L8.978,27.004L11.976,27.005ZM7.478,27.003L7.476,30.005L4.478,30.003L4.481,27.001L7.478,27.003ZM2.981,27.001L2.979,30.002L-0.019,30L-0.018,26.999L2.981,27.001Z" style="fill:rgb(0,0,255);fill-rule:nonzero;"/>
        <path id="red" d="M29.954,4.499L30.006,25.495L27.049,25.501L26.997,4.504L29.954,4.499Z" style="fill:rgb(255,0,0);fill-rule:nonzero;"/>
    </g>
</svg>
