<?xml version="1.0" encoding="UTF-8" standalone="no"?><!DOCTYPE svg PUBLIC "-//W3C//DTD SVG 1.1//EN" "http://www.w3.org/Graphics/SVG/1.1/DTD/svg11.dtd"><svg width="100%" height="100%" viewBox="0 0 32 32" version="1.1" xmlns="http://www.w3.org/2000/svg" xmlns:xlink="http://www.w3.org/1999/xlink" xml:space="preserve" xmlns:serif="http://www.serif.com/" style="fill-rule:evenodd;clip-rule:evenodd;stroke-linejoin:round;stroke-miterlimit:2;"><g id="Image"><g id="g13833"><path id="dots" d="M30.974,0.976l0.005,3l-2.997,0.005l-0.005,-2.999l2.997,-0.006Zm-4.496,0.009l0.005,2.999l-2.997,0.005l-0.005,-2.999l2.997,-0.005Zm-4.496,0.008l0.005,2.999l-2.997,0.005l-0.006,-2.999l2.998,-0.005Zm-4.496,0.008l0.005,2.999l-2.998,0.006l-0.005,-3l2.998,-0.005Zm-4.496,0.008l0.005,2.999l-2.998,0.006l-0.005,-3l2.998,-0.005Zm-4.496,0.008l0.005,2.999l-2.998,0.006l-0.005,-3l2.998,-0.005Zm-4.497,0.008l0.006,3l-2.998,0.005l-0.005,-2.999l2.997,-0.006Zm0.008,4.499l0.005,3l-2.997,0.005l-0.005,-2.999l2.997,-0.006Zm0.008,4.499l0.005,3l-2.997,0.005l-0.006,-2.999l2.998,-0.006Zm0.008,4.499l0.005,3l-2.998,0.005l-0.005,-2.999l2.998,-0.006Zm0.007,4.499l0.005,3l-2.997,0.005l-0.005,-2.999l2.997,-0.006Zm0.008,4.499l0.005,3l-2.997,0.005l-0.005,-2.999l2.997,-0.006Zm26.984,4.451l0.006,2.999l-2.998,0.006l-0.005,-3l2.997,-0.005Zm-4.496,0.008l0.006,2.999l-2.998,0.006l-0.005,-3l2.997,-0.005Zm-4.496,0.008l0.005,2.999l-2.997,0.006l-0.005,-2.999l2.997,-0.006Zm-4.496,0.008l0.005,3l-2.997,0.005l-0.005,-2.999l2.997,-0.006Zm-4.496,0.008l0.005,3l-2.997,0.005l-0.005,-2.999l2.997,-0.006Zm-4.496,0.008l0.005,3l-2.997,0.005l-0.005,-2.999l2.997,-0.006Zm-4.496,0.009l0.005,2.999l-2.997,0.005l-0.006,-2.999l2.998,-0.005Z" style="fill:#00f;fill-rule:nonzero;"/><path id="red" d="M30.98,4.268l0.04,23.593l-2.585,0.005l-0.04,-23.593l2.585,-0.005Z" style="fill:#f00;fill-rule:nonzero;"/></g></g></svg>