<?xml version="1.0" encoding="UTF-8" standalone="no"?><!DOCTYPE svg PUBLIC "-//W3C//DTD SVG 1.1//EN" "http://www.w3.org/Graphics/SVG/1.1/DTD/svg11.dtd"><svg width="100%" height="100%" viewBox="0 0 342 242" version="1.1" xmlns="http://www.w3.org/2000/svg" xmlns:xlink="http://www.w3.org/1999/xlink" xml:space="preserve" xmlns:serif="http://www.serif.com/" style="fill-rule:evenodd;clip-rule:evenodd;stroke-linejoin:round;"><g><g><g><g id="id3"><rect x="-0" y="0" width="160.243" height="55.672" style="fill:none;"/><path d="M3.005,52.639l154.204,0l-24.548,-49.634l-105.165,-0l-24.491,49.634Z" style="fill:#f10d0c;"/><path d="M3.005,52.639l154.204,0l-24.548,-49.634l-105.165,-0l-24.491,49.634Z" style="fill:none;stroke:#333;stroke-width:6.01px;"/></g></g><g><g id="id4"><rect x="24.378" y="0" width="111.487" height="55.672" style="fill:none;"/><path d="M27.383,3.005l105.448,-0l-16.781,49.634l-71.915,0l-16.752,-49.634Z" style="fill:#f10d0c;"/><path d="M27.383,3.005l105.448,-0l-16.781,49.634l-71.915,0l-16.752,-49.634Z" style="fill:none;stroke:#333;stroke-width:6.01px;"/></g></g><g><g id="id5"><rect x="38.041" y="0" width="83.31" height="55.672" style="fill:none;"/><path d="M80.844,3.005l37.474,49.634l-77.272,0l39.798,-49.634Z" style="fill:#f10d0c;"/><path d="M80.844,3.005l37.474,49.634l-77.272,0l39.798,-49.634Z" style="fill:none;stroke:#333;stroke-width:6.01px;"/></g></g><g><g id="id6"><rect x="0.283" y="49.55" width="159.704" height="112.394" style="fill:none;"/><path d="M80.079,158.91l76.847,-106.327l-153.638,-0l76.791,106.327Z" style="fill:#f10d0c;"/><path d="M80.079,158.91l76.847,-106.327l-153.638,-0l76.791,106.327Z" style="fill:none;stroke:#333;stroke-width:6.01px;"/></g></g><g><g id="id7"><rect x="40.535" y="49.606" width="42.888" height="112.365" style="fill:none;"/><path d="M43.54,52.611l36.851,106.299l-36.851,-106.299Z" style="fill:#f10d0c;"/><path d="M43.54,52.611l36.851,106.299l-36.851,-106.299Z" style="fill:none;stroke:#333;stroke-width:6.01px;"/></g></g><g><g id="id8"><rect x="76.535" y="49.635" width="42.888" height="112.365" style="fill:none;"/><path d="M116.391,52.639l-36.851,106.3l36.851,-106.3Z" style="fill:#f10d0c;"/><path d="M116.391,52.639l-36.851,106.3l36.851,-106.3Z" style="fill:none;stroke:#333;stroke-width:6.01px;"/></g></g></g><g><g><g id="id9"><rect x="181.417" y="0.028" width="160.243" height="55.672" style="fill:none;"/><path d="M184.422,52.668l154.205,-0l-24.548,-49.635l-105.166,0l-24.491,49.635Z" style="fill:#ff0;"/><path d="M184.422,52.668l154.205,-0l-24.548,-49.635l-105.166,0l-24.491,49.635Z" style="fill:none;stroke:#333;stroke-width:6.01px;"/></g></g><g><g id="id10"><rect x="205.795" y="0.028" width="111.487" height="55.672" style="fill:none;"/><path d="M208.8,3.033l105.449,0l-16.781,49.635l-71.915,-0l-16.753,-49.635Z" style="fill:#ff0;"/><path d="M208.8,3.033l105.449,0l-16.781,49.635l-71.915,-0l-16.753,-49.635Z" style="fill:none;stroke:#333;stroke-width:6.01px;"/></g></g><g><g id="id11"><rect x="219.458" y="0.028" width="83.31" height="55.672" style="fill:none;"/><path d="M262.261,3.033l37.474,49.635l-77.272,-0l39.798,-49.635Z" style="fill:#ff0;"/><path d="M262.261,3.033l37.474,49.635l-77.272,-0l39.798,-49.635Z" style="fill:none;stroke:#333;stroke-width:6.01px;"/></g></g><g><g id="id12"><rect x="181.701" y="49.606" width="159.704" height="112.365" style="fill:none;"/><path d="M261.496,158.939l76.847,-106.328l-153.637,0l76.79,106.328Z" style="fill:#ff0;"/><path d="M261.496,158.939l76.847,-106.328l-153.637,0l76.79,106.328Z" style="fill:none;stroke:#333;stroke-width:6.01px;"/></g></g><g><g id="id13"><rect x="221.953" y="49.635" width="42.888" height="112.365" style="fill:none;"/><path d="M224.957,52.639l36.851,106.3l-36.851,-106.3Z" style="fill:#ff0;"/><path d="M224.957,52.639l36.851,106.3l-36.851,-106.3Z" style="fill:none;stroke:#333;stroke-width:6.01px;"/></g></g><g><g id="id14"><rect x="257.953" y="49.663" width="42.888" height="112.365" style="fill:none;"/><path d="M297.808,52.668l-36.851,106.299l36.851,-106.299Z" style="fill:#ff0;"/><path d="M297.808,52.668l-36.851,106.299l36.851,-106.299Z" style="fill:none;stroke:#333;stroke-width:6.01px;"/></g></g></g><g><g><g id="id15"><rect x="90.709" y="185.669" width="160.243" height="55.701" style="fill:none;"/><path d="M93.713,188.674l154.205,0l-24.548,49.635l-105.165,-0l-24.492,-49.635Z" style="fill:#2453ff;"/><path d="M93.713,188.674l154.205,0l-24.548,49.635l-105.165,-0l-24.492,-49.635Z" style="fill:none;stroke:#333;stroke-width:6.01px;"/></g></g><g><g id="id16"><rect x="115.087" y="185.669" width="111.487" height="55.701" style="fill:none;"/><path d="M118.091,238.309l105.449,-0l-16.781,-49.635l-71.915,0l-16.753,49.635Z" style="fill:#2453ff;"/><path d="M118.091,238.309l105.449,-0l-16.781,-49.635l-71.915,0l-16.753,49.635Z" style="fill:none;stroke:#333;stroke-width:6.01px;"/></g></g><g><g id="id17"><rect x="128.75" y="185.669" width="83.31" height="55.701" style="fill:none;"/><path d="M171.553,238.309l37.474,-49.635l-77.273,0l39.799,49.635Z" style="fill:#2453ff;"/><path d="M171.553,238.309l37.474,-49.635l-77.273,0l39.799,49.635Z" style="fill:none;stroke:#333;stroke-width:6.01px;"/></g></g><g><g id="id18"><rect x="90.992" y="79.398" width="159.676" height="112.365" style="fill:none;"/><path d="M170.787,82.403l76.848,106.328l-153.638,-0l76.79,-106.328Z" style="fill:#2453ff;"/><path d="M170.787,82.403l76.848,106.328l-153.638,-0l76.79,-106.328Z" style="fill:none;stroke:#333;stroke-width:6.01px;"/></g></g><g><g id="id19"><rect x="131.244" y="79.37" width="42.888" height="112.365" style="fill:none;"/><path d="M134.249,188.702l36.85,-106.299l-36.85,106.299Z" style="fill:#2453ff;"/><path d="M134.249,188.702l36.85,-106.299l-36.85,106.299Z" style="fill:none;stroke:#333;stroke-width:6.01px;"/></g></g><g><g id="id20"><rect x="167.244" y="79.342" width="42.888" height="112.365" style="fill:none;"/><path d="M207.099,188.674l-36.85,-106.299l36.85,106.299Z" style="fill:#2453ff;"/><path d="M207.099,188.674l-36.85,-106.299l36.85,106.299Z" style="fill:none;stroke:#333;stroke-width:6.01px;"/></g></g></g></g></svg>