<?xml version="1.0" encoding="UTF-8" standalone="no"?>
<!DOCTYPE svg PUBLIC "-//W3C//DTD SVG 1.1//EN" "http://www.w3.org/Graphics/SVG/1.1/DTD/svg11.dtd">
<svg width="30px" height="30px" version="1.1" xmlns="http://www.w3.org/2000/svg" xmlns:xlink="http://www.w3.org/1999/xlink" xml:space="preserve" xmlns:serif="http://www.serif.com/" style="fill-rule:evenodd;clip-rule:evenodd;stroke-linejoin:round;">
    <g>
        <g>
            <g>
                <g id="id3">
                    <rect x="0" y="4.934" width="14.056" height="4.643" style="fill:none;"/>
                    <path d="M0.264,9.325L13.79,9.325L11.637,5.185L2.412,5.185L0.264,9.325Z" style="fill:rgb(241,13,12);"/>
                    <path d="M0.264,9.325L13.79,9.325L11.637,5.185L2.412,5.185L0.264,9.325Z" style="fill:none;stroke:rgb(51,51,51);stroke-width:0.51px;"/>
                </g>
            </g>
            <g>
                <g id="id4">
                    <rect x="2.138" y="4.934" width="9.78" height="4.643" style="fill:none;"/>
                    <path d="M2.402,5.185L11.652,5.185L10.18,9.325L3.871,9.325L2.402,5.185Z" style="fill:rgb(241,13,12);"/>
                    <path d="M2.402,5.185L11.652,5.185L10.18,9.325L3.871,9.325L2.402,5.185Z" style="fill:none;stroke:rgb(51,51,51);stroke-width:0.51px;"/>
                </g>
            </g>
            <g>
                <g id="id5">
                    <rect x="3.337" y="4.934" width="7.308" height="4.643" style="fill:none;"/>
                    <path d="M7.092,5.185L10.379,9.325L3.601,9.325L7.092,5.185Z" style="fill:rgb(241,13,12);"/>
                    <path d="M7.092,5.185L10.379,9.325L3.601,9.325L7.092,5.185Z" style="fill:none;stroke:rgb(51,51,51);stroke-width:0.51px;"/>
                </g>
            </g>
            <g>
                <g id="id6">
                    <rect x="0.025" y="9.067" width="14.009" height="9.374" style="fill:none;"/>
                    <path d="M7.024,18.188L13.765,9.32L0.288,9.32L7.024,18.188Z" style="fill:rgb(241,13,12);"/>
                    <path d="M7.024,18.188L13.765,9.32L0.288,9.32L7.024,18.188Z" style="fill:none;stroke:rgb(51,51,51);stroke-width:0.51px;"/>
                </g>
            </g>
            <g>
                <g id="id7">
                    <rect x="3.556" y="9.072" width="3.762" height="9.372" style="fill:none;"/>
                    <path d="M3.819,9.322L7.052,18.188L3.819,9.322Z" style="fill:rgb(241,13,12);"/>
                    <path d="M3.819,9.322L7.052,18.188L3.819,9.322Z" style="fill:none;stroke:rgb(51,51,51);stroke-width:0.51px;"/>
                </g>
            </g>
            <g>
                <g id="id8">
                    <rect x="6.714" y="9.074" width="3.762" height="9.372" style="fill:none;"/>
                    <path d="M10.21,9.325L6.977,18.191L10.21,9.325Z" style="fill:rgb(241,13,12);"/>
                    <path d="M10.21,9.325L6.977,18.191L10.21,9.325Z" style="fill:none;stroke:rgb(51,51,51);stroke-width:0.51px;"/>
                </g>
            </g>
        </g>
        <g>
            <g>
                <g id="id9">
                    <rect x="15.914" y="4.937" width="14.056" height="4.643" style="fill:none;"/>
                    <path d="M16.177,9.327L29.704,9.327L27.551,5.187L18.326,5.187L16.177,9.327Z" style="fill:rgb(255,255,0);"/>
                    <path d="M16.177,9.327L29.704,9.327L27.551,5.187L18.326,5.187L16.177,9.327Z" style="fill:none;stroke:rgb(51,51,51);stroke-width:0.51px;"/>
                </g>
            </g>
            <g>
                <g id="id10">
                    <rect x="18.052" y="4.937" width="9.78" height="4.643" style="fill:none;"/>
                    <path d="M18.316,5.187L27.566,5.187L26.094,9.327L19.785,9.327L18.316,5.187Z" style="fill:rgb(255,255,0);"/>
                    <path d="M18.316,5.187L27.566,5.187L26.094,9.327L19.785,9.327L18.316,5.187Z" style="fill:none;stroke:rgb(51,51,51);stroke-width:0.51px;"/>
                </g>
            </g>
            <g>
                <g id="id11">
                    <rect x="19.251" y="4.937" width="7.308" height="4.643" style="fill:none;"/>
                    <path d="M23.005,5.187L26.293,9.327L19.514,9.327L23.005,5.187Z" style="fill:rgb(255,255,0);"/>
                    <path d="M23.005,5.187L26.293,9.327L19.514,9.327L23.005,5.187Z" style="fill:none;stroke:rgb(51,51,51);stroke-width:0.51px;"/>
                </g>
            </g>
            <g>
                <g id="id12">
                    <rect x="15.939" y="9.072" width="14.009" height="9.372" style="fill:none;"/>
                    <path d="M22.938,18.191L29.679,9.322L16.202,9.322L22.938,18.191Z" style="fill:rgb(255,255,0);"/>
                    <path d="M22.938,18.191L29.679,9.322L16.202,9.322L22.938,18.191Z" style="fill:none;stroke:rgb(51,51,51);stroke-width:0.51px;"/>
                </g>
            </g>
            <g>
                <g id="id13">
                    <rect x="19.47" y="9.074" width="3.762" height="9.372" style="fill:none;"/>
                    <path d="M19.733,9.325L22.966,18.191L19.733,9.325Z" style="fill:rgb(255,255,0);"/>
                    <path d="M19.733,9.325L22.966,18.191L19.733,9.325Z" style="fill:none;stroke:rgb(51,51,51);stroke-width:0.51px;"/>
                </g>
            </g>
            <g>
                <g id="id14">
                    <rect x="22.627" y="9.076" width="3.762" height="9.372" style="fill:none;"/>
                    <path d="M26.124,9.327L22.891,18.193L26.124,9.327Z" style="fill:rgb(255,255,0);"/>
                    <path d="M26.124,9.327L22.891,18.193L26.124,9.327Z" style="fill:none;stroke:rgb(51,51,51);stroke-width:0.51px;"/>
                </g>
            </g>
        </g>
        <g>
            <g>
                <g id="id15">
                    <rect x="7.957" y="20.42" width="14.056" height="4.646" style="fill:none;"/>
                    <path d="M8.22,20.671L21.747,20.671L19.594,24.81L10.369,24.81L8.22,20.671Z" style="fill:rgb(36,83,255);"/>
                    <path d="M8.22,20.671L21.747,20.671L19.594,24.81L10.369,24.81L8.22,20.671Z" style="fill:none;stroke:rgb(51,51,51);stroke-width:0.51px;"/>
                </g>
            </g>
            <g>
                <g id="id16">
                    <rect x="10.095" y="20.42" width="9.78" height="4.646" style="fill:none;"/>
                    <path d="M10.359,24.81L19.609,24.81L18.137,20.671L11.828,20.671L10.359,24.81Z" style="fill:rgb(36,83,255);"/>
                    <path d="M10.359,24.81L19.609,24.81L18.137,20.671L11.828,20.671L10.359,24.81Z" style="fill:none;stroke:rgb(51,51,51);stroke-width:0.51px;"/>
                </g>
            </g>
            <g>
                <g id="id17">
                    <rect x="11.294" y="20.42" width="7.308" height="4.646" style="fill:none;"/>
                    <path d="M15.049,24.81L18.336,20.671L11.557,20.671L15.049,24.81Z" style="fill:rgb(36,83,255);"/>
                    <path d="M15.049,24.81L18.336,20.671L11.557,20.671L15.049,24.81Z" style="fill:none;stroke:rgb(51,51,51);stroke-width:0.51px;"/>
                </g>
            </g>
            <g>
                <g id="id18">
                    <rect x="7.982" y="11.556" width="14.007" height="9.372" style="fill:none;"/>
                    <path d="M14.981,11.807L21.722,20.675L8.245,20.675L14.981,11.807Z" style="fill:rgb(36,83,255);"/>
                    <path d="M14.981,11.807L21.722,20.675L8.245,20.675L14.981,11.807Z" style="fill:none;stroke:rgb(51,51,51);stroke-width:0.51px;"/>
                </g>
            </g>
            <g>
                <g id="id19">
                    <rect x="11.513" y="11.554" width="3.762" height="9.372" style="fill:none;"/>
                    <path d="M11.776,20.673L15.009,11.807L11.776,20.673Z" style="fill:rgb(36,83,255);"/>
                    <path d="M11.776,20.673L15.009,11.807L11.776,20.673Z" style="fill:none;stroke:rgb(51,51,51);stroke-width:0.51px;"/>
                </g>
            </g>
            <g>
                <g id="id20">
                    <rect x="14.671" y="11.552" width="3.762" height="9.372" style="fill:none;"/>
                    <path d="M18.167,20.671L14.934,11.805L18.167,20.671Z" style="fill:rgb(36,83,255);"/>
                    <path d="M18.167,20.671L14.934,11.805L18.167,20.671Z" style="fill:none;stroke:rgb(51,51,51);stroke-width:0.51px;"/>
                </g>
            </g>
        </g>
        <rect id="outer" x="0" y="0" width="30" height="30" style="fill:none;"/>
    </g>
</svg>
