<?xml version="1.0" encoding="UTF-8" standalone="no"?>
<!-- Generator: Adobe Illustrator 19.0.0, SVG Export Plug-In . SVG Version: 6.00 Build 0)  -->

<svg
   version="1.1"
   id="Layer_1"
   x="0px"
   y="0px"
   viewBox="0 0 392.533 392.533"
   style="enable-background:new 0 0 392.533 392.533;"
   xml:space="preserve"
   sodipodi:docname="save.svg"
   inkscape:version="1.1.2 (b8e25be833, 2022-02-05)"
   xmlns:inkscape="http://www.inkscape.org/namespaces/inkscape"
   xmlns:sodipodi="http://sodipodi.sourceforge.net/DTD/sodipodi-0.dtd"
   xmlns="http://www.w3.org/2000/svg"
   xmlns:svg="http://www.w3.org/2000/svg"><defs
   id="defs58" /><sodipodi:namedview
   id="namedview56"
   pagecolor="#ffffff"
   bordercolor="#666666"
   borderopacity="1.0"
   inkscape:pageshadow="2"
   inkscape:pageopacity="0.0"
   inkscape:pagecheckerboard="0"
   showgrid="false"
   inkscape:zoom="1.7050199"
   inkscape:cx="196.47865"
   inkscape:cy="196.1854"
   inkscape:window-width="3840"
   inkscape:window-height="2102"
   inkscape:window-x="-8"
   inkscape:window-y="32"
   inkscape:window-maximized="1"
   inkscape:current-layer="Layer_1" />
<path
   style="display:inline;fill:#56ace0"
   d="m 359.822,21.786 h -29.673 v 103.305 c 0,6.012 -4.848,10.925 -10.925,10.925 h -236.8 c -6.012,0 -10.925,-4.848 -10.925,-10.925 V 21.786 H 53.527 L 21.786,53.527 v 306.23 c 0,6.012 4.848,10.925 10.925,10.925 H 71.564 V 213.657 c 0,-6.012 4.848,-10.925 10.925,-10.925 h 236.865 c 6.012,0 10.925,4.848 10.925,10.925 v 157.091 h 29.543 c 6.012,0 10.925,-4.848 10.925,-10.925 V 32.711 c 0,-6.012 -4.913,-10.925 -10.925,-10.925 z"
   id="path9" />

<path
   style="display:inline;fill:#ffc10d"
   d="m 93.349,224.582 v 146.23 H 308.428 V 224.582 Z M 260.008,334.998 H 141.64 c -6.012,0 -10.861,-4.848 -10.861,-10.925 0,-6.012 4.848,-10.925 10.861,-10.925 h 118.368 c 6.012,0 10.925,4.848 10.925,10.925 0,6.012 -4.913,10.925 -10.925,10.925 z m 0,-52.881 H 141.64 c -6.012,0 -10.861,-4.913 -10.861,-10.861 0,-6.012 4.848,-10.925 10.861,-10.925 h 118.368 c 6.012,0 10.925,4.848 10.925,10.925 0,6.013 -4.913,10.861 -10.925,10.861 z"
   id="path13" />
<g
   id="g23">
	<path
   style="display:inline;fill:#194f82"
   d="M 359.822,0 H 49.067 C 46.223,0 43.443,1.164 41.309,3.168 L 3.168,41.309 C 1.164,43.378 0,46.158 0,49.067 v 310.756 c 0,18.036 14.675,32.711 32.711,32.711 h 327.111 c 18.036,0 32.711,-14.675 32.711,-32.711 V 32.711 C 392.533,14.675 377.859,0 359.822,0 Z M 93.349,21.786 H 308.428 V 114.23 H 93.349 Z m 0,348.961 v -146.23 h 215.079 v 146.23 z m 277.398,-10.925 c 0,6.012 -4.848,10.925 -10.925,10.925 h -29.673 v -157.09 c 0,-6.012 -4.848,-10.925 -10.925,-10.925 h -236.8 c -6.012,0 -10.925,4.848 -10.925,10.925 V 370.748 H 32.711 c -6.012,0 -10.925,-4.848 -10.925,-10.925 V 53.527 L 53.527,21.786 h 18.036 v 103.305 c 0,6.012 4.848,10.925 10.925,10.925 h 236.865 c 6.012,0 10.925,-4.848 10.925,-10.925 V 21.786 h 29.543 c 6.012,0 10.925,4.848 10.925,10.925 v 327.111 z"
   id="path15" />
	<path
   style="display:inline;fill:#194f82"
   d="m 270.158,31.418 c -6.012,0 -10.925,4.848 -10.925,10.925 v 35.62 c 0,6.012 4.848,10.925 10.925,10.925 6.012,0 10.925,-4.848 10.925,-10.925 V 42.343 C 281.018,36.331 276.17,31.418 270.158,31.418 Z"
   id="path17" />
	<path
   style="display:inline;fill:#194f82"
   d="M 260.008,260.331 H 141.64 c -6.012,0 -10.925,4.848 -10.925,10.925 0,5.947 4.848,10.925 10.925,10.925 h 118.368 c 6.012,0 10.925,-4.848 10.925,-10.925 0,-6.076 -4.913,-10.925 -10.925,-10.925 z"
   id="path19" />
	<path
   style="display:inline;fill:#194f82"
   d="M 260.008,313.212 H 141.64 c -6.012,0 -10.925,4.848 -10.925,10.925 0,6.012 4.848,10.925 10.925,10.925 h 118.368 c 6.012,0 10.925,-4.849 10.925,-10.925 0,-6.076 -4.913,-10.925 -10.925,-10.925 z"
   id="path21" />
</g>















</svg>
