<?xml version="1.0" encoding="UTF-8" standalone="no"?>
<!DOCTYPE svg PUBLIC "-//W3C//DTD SVG 1.1//EN" "http://www.w3.org/Graphics/SVG/1.1/DTD/svg11.dtd">
<svg width="30px" height="30px" version="1.1" xmlns="http://www.w3.org/2000/svg" xmlns:xlink="http://www.w3.org/1999/xlink" xml:space="preserve" xmlns:serif="http://www.serif.com/" style="fill-rule:evenodd;clip-rule:evenodd;stroke-linejoin:round;stroke-miterlimit:2;">
    <path id="path9" d="M27.508,1.663L25.24,1.663L25.24,9.568C25.24,10.028 24.869,10.404 24.404,10.404L6.299,10.404C5.84,10.404 5.464,10.033 5.464,9.568L5.464,1.663L4.09,1.663L1.663,4.092L1.663,27.524C1.663,27.984 2.034,28.36 2.498,28.36L5.469,28.36L5.469,16.345C5.469,15.885 5.84,15.509 6.304,15.509L24.414,15.509C24.874,15.509 25.25,15.88 25.25,16.345L25.25,28.365L27.508,28.365C27.968,28.365 28.344,27.994 28.344,27.529L28.344,2.499C28.344,2.039 27.968,1.663 27.508,1.663Z" style="fill:rgb(86,172,224);fill-rule:nonzero;"/>
    <path id="path13" d="M7.126,17.144L7.126,28.37L23.544,28.37L23.544,17.144L7.126,17.144ZM19.848,25.62L10.812,25.62C10.353,25.62 9.983,25.248 9.983,24.782C9.983,24.32 10.353,23.943 10.812,23.943L19.848,23.943C20.307,23.943 20.682,24.315 20.682,24.782C20.682,25.243 20.307,25.62 19.848,25.62ZM19.848,21.561L10.812,21.561C10.353,21.561 9.983,21.184 9.983,20.727C9.983,20.265 10.353,19.888 10.812,19.888L19.848,19.888C20.307,19.888 20.682,20.26 20.682,20.727C20.682,21.189 20.307,21.561 19.848,21.561Z" style="fill:rgb(255,193,13);fill-rule:nonzero;"/>
    <g id="g23">
        <path id="path15" d="M27.5,0L3.75,0C3.533,0 3.32,0.089 3.157,0.242L0.242,3.157C0.089,3.315 0,3.528 0,3.75L0,27.5C0,28.878 1.122,30 2.5,30L27.5,30C28.878,30 30,28.878 30,27.5L30,2.5C30,1.122 28.879,-0 27.5,-0ZM7.134,1.665L23.572,1.665L23.572,8.73L7.134,8.73L7.134,1.665ZM7.134,28.335L7.134,17.159L23.572,17.159L23.572,28.335L7.134,28.335ZM28.335,27.5C28.335,27.959 27.964,28.335 27.5,28.335L25.232,28.335L25.232,16.329C25.232,15.87 24.862,15.494 24.397,15.494L6.299,15.494C5.84,15.494 5.464,15.865 5.464,16.329L5.464,28.335L2.5,28.335C2.041,28.335 1.665,27.964 1.665,27.5L1.665,4.091L4.091,1.665L5.469,1.665L5.469,9.56C5.469,10.02 5.84,10.395 6.304,10.395L24.407,10.395C24.867,10.395 25.242,10.025 25.242,9.56L25.242,1.665L27.5,1.665C27.959,1.665 28.335,2.036 28.335,2.5L28.335,27.5L28.335,27.5Z" style="fill:rgb(25,79,130);fill-rule:nonzero;"/>
        <path id="path17" d="M20.623,2.398C20.164,2.398 19.789,2.768 19.789,3.232L19.789,5.951C19.789,6.41 20.159,6.785 20.623,6.785C21.082,6.785 21.457,6.415 21.457,5.951L21.457,3.232C21.452,2.773 21.082,2.398 20.623,2.398Z" style="fill:rgb(25,79,130);fill-rule:nonzero;"/>
        <path id="path19" d="M19.848,19.873L10.812,19.873C10.353,19.873 9.978,20.243 9.978,20.707C9.978,21.161 10.348,21.541 10.812,21.541L19.848,21.541C20.307,21.541 20.682,21.17 20.682,20.707C20.682,20.243 20.307,19.873 19.848,19.873Z" style="fill:rgb(25,79,130);fill-rule:nonzero;"/>
        <path id="path21" d="M19.848,23.909L10.812,23.909C10.353,23.909 9.978,24.279 9.978,24.743C9.978,25.202 10.348,25.577 10.812,25.577L19.848,25.577C20.307,25.577 20.682,25.207 20.682,24.743C20.682,24.279 20.307,23.909 19.848,23.909Z" style="fill:rgb(25,79,130);fill-rule:nonzero;"/>
    </g>
</svg>
