<?xml version="1.0" encoding="UTF-8" standalone="no"?><!DOCTYPE svg PUBLIC "-//W3C//DTD SVG 1.1//EN" "http://www.w3.org/Graphics/SVG/1.1/DTD/svg11.dtd"><svg width="100%" height="100%" viewBox="0 0 393 393" version="1.1" xmlns="http://www.w3.org/2000/svg" xmlns:xlink="http://www.w3.org/1999/xlink" xml:space="preserve" xmlns:serif="http://www.serif.com/" style="fill-rule:evenodd;clip-rule:evenodd;stroke-linejoin:round;stroke-miterlimit:2;"><path id="path9" d="M359.822,21.786l-29.673,0l0,103.305c0,6.012 -4.848,10.925 -10.925,10.925l-236.8,0c-6.012,0 -10.925,-4.848 -10.925,-10.925l0,-103.305l-17.972,-0l-31.741,31.741l0,306.23c0,6.012 4.848,10.925 10.925,10.925l38.853,-0l0,-157.025c0,-6.012 4.848,-10.925 10.925,-10.925l236.865,-0c6.012,-0 10.925,4.848 10.925,10.925l0,157.091l29.543,0c6.012,0 10.925,-4.848 10.925,-10.925l0,-327.112c0,-6.012 -4.913,-10.925 -10.925,-10.925Z" style="fill:#56ace0;fill-rule:nonzero;"/><path id="path13" d="M93.349,224.582l0,146.23l215.079,0l0,-146.23l-215.079,-0Zm166.659,110.416l-118.368,-0c-6.012,-0 -10.861,-4.848 -10.861,-10.925c0,-6.012 4.848,-10.925 10.861,-10.925l118.368,-0c6.012,-0 10.925,4.848 10.925,10.925c0,6.012 -4.913,10.925 -10.925,10.925Zm0,-52.881l-118.368,-0c-6.012,-0 -10.861,-4.913 -10.861,-10.861c0,-6.012 4.848,-10.925 10.861,-10.925l118.368,-0c6.012,-0 10.925,4.848 10.925,10.925c0,6.013 -4.913,10.861 -10.925,10.861Z" style="fill:#ffc10d;fill-rule:nonzero;"/><g id="g23"><path id="path15" d="M359.822,0l-310.755,0c-2.844,0 -5.624,1.164 -7.758,3.168l-38.141,38.141c-2.004,2.069 -3.168,4.849 -3.168,7.758l-0,310.756c-0,18.036 14.675,32.711 32.711,32.711l327.111,-0c18.036,-0 32.711,-14.675 32.711,-32.711l0,-327.112c0,-18.036 -14.674,-32.711 -32.711,-32.711Zm-266.473,21.786l215.079,-0l0,92.444l-215.079,-0l0,-92.444Zm0,348.961l0,-146.23l215.079,0l0,146.23l-215.079,0Zm277.398,-10.925c0,6.012 -4.848,10.925 -10.925,10.925l-29.673,0l0,-157.09c0,-6.012 -4.848,-10.925 -10.925,-10.925l-236.8,0c-6.012,0 -10.925,4.848 -10.925,10.925l0,157.091l-38.788,-0c-6.012,-0 -10.925,-4.848 -10.925,-10.925l0,-306.296l31.741,-31.741l18.036,-0l0,103.305c0,6.012 4.848,10.925 10.925,10.925l236.865,-0c6.012,-0 10.925,-4.848 10.925,-10.925l0,-103.305l29.543,-0c6.012,-0 10.925,4.848 10.925,10.925l0,327.111l0.001,0Z" style="fill:#194f82;fill-rule:nonzero;"/><path id="path17" d="M270.158,31.418c-6.012,0 -10.925,4.848 -10.925,10.925l0,35.62c0,6.012 4.848,10.925 10.925,10.925c6.012,0 10.925,-4.848 10.925,-10.925l0,-35.62c-0.065,-6.012 -4.913,-10.925 -10.925,-10.925Z" style="fill:#194f82;fill-rule:nonzero;"/><path id="path19" d="M260.008,260.331l-118.368,0c-6.012,0 -10.925,4.848 -10.925,10.925c0,5.947 4.848,10.925 10.925,10.925l118.368,0c6.012,0 10.925,-4.848 10.925,-10.925c0,-6.076 -4.913,-10.925 -10.925,-10.925Z" style="fill:#194f82;fill-rule:nonzero;"/><path id="path21" d="M260.008,313.212l-118.368,0c-6.012,0 -10.925,4.848 -10.925,10.925c0,6.012 4.848,10.925 10.925,10.925l118.368,0c6.012,0 10.925,-4.849 10.925,-10.925c0,-6.076 -4.913,-10.925 -10.925,-10.925Z" style="fill:#194f82;fill-rule:nonzero;"/></g></svg>