<?xml version="1.0" encoding="UTF-8" standalone="no"?>
<!DOCTYPE svg PUBLIC "-//W3C//DTD SVG 1.1//EN" "http://www.w3.org/Graphics/SVG/1.1/DTD/svg11.dtd">
<svg width="30px" height="30px" version="1.1" xmlns="http://www.w3.org/2000/svg" xmlns:xlink="http://www.w3.org/1999/xlink" xml:space="preserve" xmlns:serif="http://www.serif.com/" style="fill-rule:evenodd;clip-rule:evenodd;stroke-linecap:square;stroke-linejoin:round;stroke-miterlimit:1.5;">
    <path d="M-0.052,15L29.823,15" style="fill:none;stroke:rgb(64,64,64);stroke-width:2px;"/>
    <g id="menuitem">
        <rect x="0.235" y="5.07" width="29.374" height="8.534" style="fill:white;"/>
        <rect x="0.235" y="4.837" width="29.588" height="9" style="fill:none;stroke:rgb(191,191,191);stroke-width:0.5px;"/>
        <path d="M2.593,10.444L1.199,10.444L1.199,7.147L1.514,7.147L1.514,10.095L2.593,10.095L2.593,10.444Z" style="fill-rule:nonzero;"/>
        <path d="M3.765,10.499C3.482,10.499 3.256,10.389 3.086,10.169C2.917,9.949 2.833,9.658 2.833,9.294C2.833,8.899 2.921,8.59 3.097,8.368C3.273,8.146 3.511,8.035 3.81,8.035C4.096,8.035 4.32,8.143 4.48,8.359C4.64,8.575 4.721,8.874 4.721,9.258C4.721,9.633 4.634,9.934 4.461,10.16C4.288,10.386 4.056,10.499 3.765,10.499ZM3.788,8.352C3.591,8.352 3.434,8.434 3.32,8.599C3.205,8.764 3.147,8.991 3.147,9.281C3.147,9.56 3.205,9.78 3.321,9.941C3.438,10.101 3.593,10.182 3.788,10.182C3.986,10.182 4.139,10.103 4.246,9.945C4.353,9.787 4.406,9.563 4.406,9.271C4.406,8.977 4.353,8.75 4.246,8.591C4.139,8.432 3.986,8.352 3.788,8.352Z" style="fill-rule:nonzero;"/>
        <path d="M6.212,8.471C6.158,8.421 6.081,8.395 5.979,8.395C5.848,8.395 5.739,8.471 5.651,8.623C5.563,8.775 5.519,8.982 5.519,9.244L5.519,10.444L5.211,10.444L5.211,8.09L5.519,8.09L5.519,8.575L5.526,8.575C5.57,8.409 5.637,8.28 5.727,8.187C5.817,8.095 5.917,8.048 6.028,8.048C6.108,8.048 6.169,8.059 6.212,8.081L6.212,8.471Z" style="fill-rule:nonzero;"/>
        <path d="M8.087,9.361L6.733,9.361C6.737,9.623 6.795,9.826 6.905,9.968C7.015,10.111 7.166,10.182 7.358,10.182C7.574,10.182 7.773,10.095 7.954,9.92L7.954,10.274C7.785,10.424 7.562,10.499 7.285,10.499C7.014,10.499 6.801,10.392 6.646,10.178C6.491,9.965 6.414,9.664 6.414,9.276C6.414,8.91 6.499,8.611 6.668,8.381C6.837,8.15 7.047,8.035 7.298,8.035C7.549,8.035 7.743,8.134 7.881,8.333C8.018,8.533 8.087,8.809 8.087,9.163L8.087,9.361ZM7.772,9.042C7.771,8.824 7.728,8.655 7.644,8.533C7.56,8.412 7.442,8.352 7.293,8.352C7.148,8.352 7.025,8.415 6.924,8.543C6.822,8.67 6.76,8.836 6.736,9.042L7.772,9.042Z" style="fill-rule:nonzero;"/>
        <path d="M11.275,10.444L10.968,10.444L10.968,9.092C10.968,8.832 10.935,8.643 10.869,8.527C10.804,8.41 10.694,8.352 10.539,8.352C10.408,8.352 10.296,8.425 10.204,8.573C10.113,8.72 10.067,8.896 10.067,9.101L10.067,10.444L9.76,10.444L9.76,9.046C9.76,8.583 9.614,8.352 9.323,8.352C9.188,8.352 9.077,8.421 8.99,8.56C8.902,8.699 8.859,8.879 8.859,9.101L8.859,10.444L8.551,10.444L8.551,8.09L8.859,8.09L8.859,8.462L8.866,8.462C9.002,8.177 9.201,8.035 9.462,8.035C9.593,8.035 9.707,8.079 9.805,8.169C9.902,8.259 9.969,8.376 10.005,8.522C10.147,8.197 10.36,8.035 10.642,8.035C11.064,8.035 11.275,8.354 11.275,8.993L11.275,10.444Z" style="fill-rule:nonzero;"/>
        <rect x="12.948" y="7.147" width="0.315" height="3.297"/>
        <path d="M14.242,10.104L14.235,10.104L14.235,11.527L13.927,11.527L13.927,8.09L14.235,8.09L14.235,8.504L14.242,8.504C14.393,8.191 14.614,8.035 14.905,8.035C15.153,8.035 15.345,8.14 15.484,8.351C15.623,8.561 15.692,8.844 15.692,9.198C15.692,9.592 15.614,9.907 15.458,10.144C15.302,10.381 15.088,10.499 14.817,10.499C14.569,10.499 14.377,10.367 14.242,10.104ZM14.235,9.154L14.235,9.483C14.235,9.678 14.286,9.843 14.389,9.978C14.492,10.114 14.623,10.182 14.782,10.182C14.968,10.182 15.113,10.095 15.219,9.92C15.325,9.745 15.377,9.502 15.377,9.191C15.377,8.929 15.328,8.724 15.229,8.575C15.131,8.426 14.997,8.352 14.828,8.352C14.65,8.352 14.506,8.428 14.398,8.581C14.289,8.733 14.235,8.924 14.235,9.154Z" style="fill-rule:nonzero;"/>
        <path d="M16.067,10.359L16.067,9.954C16.234,10.106 16.418,10.182 16.619,10.182C16.889,10.182 17.024,10.072 17.024,9.851C17.024,9.788 17.012,9.735 16.989,9.691C16.966,9.647 16.935,9.609 16.896,9.575C16.856,9.541 16.81,9.511 16.757,9.484C16.704,9.457 16.647,9.429 16.585,9.4C16.501,9.359 16.426,9.317 16.362,9.275C16.297,9.233 16.244,9.185 16.201,9.132C16.157,9.079 16.125,9.019 16.103,8.952C16.081,8.884 16.07,8.806 16.07,8.715C16.07,8.605 16.091,8.507 16.132,8.422C16.173,8.337 16.228,8.266 16.297,8.208C16.366,8.151 16.444,8.107 16.532,8.078C16.62,8.049 16.711,8.035 16.805,8.035C16.971,8.035 17.119,8.07 17.25,8.14L17.25,8.522C17.109,8.409 16.947,8.352 16.763,8.352C16.706,8.352 16.654,8.36 16.608,8.376C16.562,8.392 16.522,8.415 16.489,8.444C16.456,8.473 16.43,8.508 16.412,8.548C16.394,8.589 16.385,8.634 16.385,8.683C16.385,8.744 16.394,8.796 16.412,8.837C16.43,8.878 16.457,8.915 16.492,8.947C16.527,8.979 16.569,9.009 16.619,9.035C16.669,9.061 16.726,9.089 16.79,9.12C16.875,9.16 16.951,9.201 17.018,9.243C17.086,9.285 17.143,9.332 17.191,9.385C17.238,9.438 17.275,9.499 17.3,9.568C17.326,9.637 17.339,9.719 17.339,9.814C17.339,9.931 17.318,10.032 17.276,10.118C17.234,10.203 17.178,10.275 17.108,10.331C17.038,10.388 16.958,10.43 16.866,10.458C16.775,10.485 16.68,10.499 16.58,10.499C16.383,10.499 16.211,10.452 16.067,10.359Z" style="fill-rule:nonzero;"/>
        <path d="M19.362,10.444L19.054,10.444L19.054,10.072L19.047,10.072C18.919,10.357 18.722,10.499 18.455,10.499C17.998,10.499 17.769,10.165 17.769,9.497L17.769,8.09L18.075,8.09L18.075,9.437C18.075,9.934 18.23,10.182 18.539,10.182C18.689,10.182 18.812,10.114 18.909,9.978C19.006,9.843 19.054,9.665 19.054,9.446L19.054,8.09L19.362,8.09L19.362,10.444Z" style="fill-rule:nonzero;"/>
        <path d="M22.705,10.444L22.398,10.444L22.398,9.092C22.398,8.832 22.365,8.643 22.3,8.527C22.234,8.41 22.124,8.352 21.969,8.352C21.838,8.352 21.726,8.425 21.635,8.573C21.543,8.72 21.497,8.896 21.497,9.101L21.497,10.444L21.19,10.444L21.19,9.046C21.19,8.583 21.044,8.352 20.753,8.352C20.618,8.352 20.507,8.421 20.42,8.56C20.333,8.699 20.289,8.879 20.289,9.101L20.289,10.444L19.982,10.444L19.982,8.09L20.289,8.09L20.289,8.462L20.296,8.462C20.432,8.177 20.631,8.035 20.892,8.035C21.023,8.035 21.137,8.079 21.235,8.169C21.332,8.259 21.399,8.376 21.435,8.522C21.578,8.197 21.79,8.035 22.072,8.035C22.494,8.035 22.705,8.354 22.705,8.993L22.705,10.444Z" style="fill-rule:nonzero;"/>
        <path d="M24.794,8.09L24.03,10.444L23.728,10.444L23.001,8.09L23.338,8.09L23.825,9.8C23.862,9.926 23.884,10.036 23.893,10.129L23.9,10.129C23.913,10.011 23.933,9.905 23.96,9.809L24.47,8.09L24.794,8.09Z" style="fill-rule:nonzero;"/>
    </g>
    <g id="menuitem1" serif:id="menuitem">
        <rect x="0.235" y="16.4" width="29.374" height="8.534" style="fill:white;"/>
        <rect x="0.235" y="16.167" width="29.588" height="9" style="fill:none;stroke:rgb(191,191,191);stroke-width:0.5px;"/>
        <path d="M2.593,21.774L1.199,21.774L1.199,18.477L1.514,18.477L1.514,21.425L2.593,21.425L2.593,21.774Z" style="fill-rule:nonzero;"/>
        <path d="M3.765,21.829C3.482,21.829 3.256,21.719 3.086,21.499C2.917,21.279 2.833,20.988 2.833,20.624C2.833,20.229 2.921,19.92 3.097,19.698C3.273,19.476 3.511,19.365 3.81,19.365C4.096,19.365 4.32,19.473 4.48,19.689C4.64,19.905 4.721,20.204 4.721,20.588C4.721,20.963 4.634,21.264 4.461,21.49C4.288,21.716 4.056,21.829 3.765,21.829ZM3.788,19.682C3.591,19.682 3.434,19.764 3.32,19.929C3.205,20.094 3.147,20.321 3.147,20.611C3.147,20.89 3.205,21.11 3.321,21.271C3.438,21.431 3.593,21.512 3.788,21.512C3.986,21.512 4.139,21.433 4.246,21.275C4.353,21.117 4.406,20.893 4.406,20.601C4.406,20.307 4.353,20.08 4.246,19.921C4.139,19.762 3.986,19.682 3.788,19.682Z" style="fill-rule:nonzero;"/>
        <path d="M6.212,19.801C6.158,19.751 6.081,19.725 5.979,19.725C5.848,19.725 5.739,19.801 5.651,19.953C5.563,20.105 5.519,20.312 5.519,20.574L5.519,21.774L5.211,21.774L5.211,19.42L5.519,19.42L5.519,19.905L5.526,19.905C5.57,19.739 5.637,19.61 5.727,19.517C5.817,19.425 5.917,19.378 6.028,19.378C6.108,19.378 6.169,19.389 6.212,19.411L6.212,19.801Z" style="fill-rule:nonzero;"/>
        <path d="M8.087,20.691L6.733,20.691C6.737,20.953 6.795,21.156 6.905,21.298C7.015,21.441 7.166,21.512 7.358,21.512C7.574,21.512 7.773,21.425 7.954,21.25L7.954,21.604C7.785,21.754 7.562,21.829 7.285,21.829C7.014,21.829 6.801,21.722 6.646,21.508C6.491,21.295 6.414,20.994 6.414,20.606C6.414,20.24 6.499,19.941 6.668,19.711C6.837,19.48 7.047,19.365 7.298,19.365C7.549,19.365 7.743,19.464 7.881,19.663C8.018,19.863 8.087,20.139 8.087,20.493L8.087,20.691ZM7.772,20.372C7.771,20.154 7.728,19.985 7.644,19.863C7.56,19.742 7.442,19.682 7.293,19.682C7.148,19.682 7.025,19.745 6.924,19.873C6.822,20 6.76,20.166 6.736,20.372L7.772,20.372Z" style="fill-rule:nonzero;"/>
        <path d="M11.275,21.774L10.968,21.774L10.968,20.422C10.968,20.162 10.935,19.973 10.869,19.857C10.804,19.74 10.694,19.682 10.539,19.682C10.408,19.682 10.296,19.755 10.204,19.903C10.113,20.05 10.067,20.226 10.067,20.431L10.067,21.774L9.76,21.774L9.76,20.376C9.76,19.913 9.614,19.682 9.323,19.682C9.188,19.682 9.077,19.751 8.99,19.89C8.902,20.029 8.859,20.209 8.859,20.431L8.859,21.774L8.551,21.774L8.551,19.42L8.859,19.42L8.859,19.792L8.866,19.792C9.002,19.507 9.201,19.365 9.462,19.365C9.593,19.365 9.707,19.409 9.805,19.499C9.902,19.589 9.969,19.706 10.005,19.852C10.147,19.527 10.36,19.365 10.642,19.365C11.064,19.365 11.275,19.684 11.275,20.323L11.275,21.774Z" style="fill-rule:nonzero;"/>
        <rect x="12.948" y="18.477" width="0.315" height="3.297"/>
        <path d="M14.242,21.434L14.235,21.434L14.235,22.857L13.927,22.857L13.927,19.42L14.235,19.42L14.235,19.834L14.242,19.834C14.393,19.521 14.614,19.365 14.905,19.365C15.153,19.365 15.345,19.47 15.484,19.681C15.623,19.891 15.692,20.174 15.692,20.528C15.692,20.922 15.614,21.237 15.458,21.474C15.302,21.711 15.088,21.829 14.817,21.829C14.569,21.829 14.377,21.697 14.242,21.434ZM14.235,20.484L14.235,20.813C14.235,21.008 14.286,21.173 14.389,21.308C14.492,21.444 14.623,21.512 14.782,21.512C14.968,21.512 15.113,21.425 15.219,21.25C15.325,21.075 15.377,20.832 15.377,20.521C15.377,20.259 15.328,20.054 15.229,19.905C15.131,19.756 14.997,19.682 14.828,19.682C14.65,19.682 14.506,19.758 14.398,19.911C14.289,20.063 14.235,20.254 14.235,20.484Z" style="fill-rule:nonzero;"/>
        <path d="M16.067,21.689L16.067,21.284C16.234,21.436 16.418,21.512 16.619,21.512C16.889,21.512 17.024,21.402 17.024,21.181C17.024,21.118 17.012,21.065 16.989,21.021C16.966,20.977 16.935,20.939 16.896,20.905C16.856,20.871 16.81,20.841 16.757,20.814C16.704,20.787 16.647,20.759 16.585,20.73C16.501,20.689 16.426,20.647 16.362,20.605C16.297,20.563 16.244,20.515 16.201,20.462C16.157,20.409 16.125,20.349 16.103,20.282C16.081,20.214 16.07,20.136 16.07,20.045C16.07,19.935 16.091,19.837 16.132,19.752C16.173,19.667 16.228,19.596 16.297,19.538C16.366,19.481 16.444,19.437 16.532,19.408C16.62,19.379 16.711,19.365 16.805,19.365C16.971,19.365 17.119,19.4 17.25,19.47L17.25,19.852C17.109,19.739 16.947,19.682 16.763,19.682C16.706,19.682 16.654,19.69 16.608,19.706C16.562,19.722 16.522,19.745 16.489,19.774C16.456,19.803 16.43,19.838 16.412,19.878C16.394,19.919 16.385,19.964 16.385,20.013C16.385,20.074 16.394,20.126 16.412,20.167C16.43,20.208 16.457,20.245 16.492,20.277C16.527,20.309 16.569,20.339 16.619,20.365C16.669,20.391 16.726,20.419 16.79,20.45C16.875,20.49 16.951,20.531 17.018,20.573C17.086,20.615 17.143,20.662 17.191,20.715C17.238,20.768 17.275,20.829 17.3,20.898C17.326,20.967 17.339,21.049 17.339,21.144C17.339,21.261 17.318,21.362 17.276,21.448C17.234,21.533 17.178,21.605 17.108,21.661C17.038,21.718 16.958,21.76 16.866,21.788C16.775,21.815 16.68,21.829 16.58,21.829C16.383,21.829 16.211,21.782 16.067,21.689Z" style="fill-rule:nonzero;"/>
        <path d="M19.362,21.774L19.054,21.774L19.054,21.402L19.047,21.402C18.919,21.687 18.722,21.829 18.455,21.829C17.998,21.829 17.769,21.495 17.769,20.827L17.769,19.42L18.075,19.42L18.075,20.767C18.075,21.264 18.23,21.512 18.539,21.512C18.689,21.512 18.812,21.444 18.909,21.308C19.006,21.173 19.054,20.995 19.054,20.776L19.054,19.42L19.362,19.42L19.362,21.774Z" style="fill-rule:nonzero;"/>
        <path d="M22.705,21.774L22.398,21.774L22.398,20.422C22.398,20.162 22.365,19.973 22.3,19.857C22.234,19.74 22.124,19.682 21.969,19.682C21.838,19.682 21.726,19.755 21.635,19.903C21.543,20.05 21.497,20.226 21.497,20.431L21.497,21.774L21.19,21.774L21.19,20.376C21.19,19.913 21.044,19.682 20.753,19.682C20.618,19.682 20.507,19.751 20.42,19.89C20.333,20.029 20.289,20.209 20.289,20.431L20.289,21.774L19.982,21.774L19.982,19.42L20.289,19.42L20.289,19.792L20.296,19.792C20.432,19.507 20.631,19.365 20.892,19.365C21.023,19.365 21.137,19.409 21.235,19.499C21.332,19.589 21.399,19.706 21.435,19.852C21.578,19.527 21.79,19.365 22.072,19.365C22.494,19.365 22.705,19.684 22.705,20.323L22.705,21.774Z" style="fill-rule:nonzero;"/>
        <path d="M24.794,19.42L24.03,21.774L23.728,21.774L23.001,19.42L23.338,19.42L23.825,21.13C23.862,21.256 23.884,21.366 23.893,21.459L23.9,21.459C23.913,21.341 23.933,21.235 23.96,21.139L24.47,19.42L24.794,19.42Z" style="fill-rule:nonzero;"/>
    </g>
    <rect id="outer" x="0" y="0" width="30" height="30" style="fill:none;"/>
</svg>
