<?xml version="1.0" encoding="UTF-8" standalone="no"?>
<!-- Created with Inkscape (http://www.inkscape.org/) -->

<svg
   version="1.1"
   id="svg1751"
   width="29.333332"
   height="29.333332"
   viewBox="0 0 29.333332 29.333332"
   sodipodi:docname="sizer_horizontal.svg"
   inkscape:version="1.1.2 (b8e25be833, 2022-02-05)"
   xmlns:inkscape="http://www.inkscape.org/namespaces/inkscape"
   xmlns:sodipodi="http://sodipodi.sourceforge.net/DTD/sodipodi-0.dtd"
   xmlns="http://www.w3.org/2000/svg"
   xmlns:svg="http://www.w3.org/2000/svg">
  <defs
     id="defs1755" />
  <sodipodi:namedview
     id="namedview1753"
     pagecolor="#ffffff"
     bordercolor="#666666"
     borderopacity="1.0"
     inkscape:pageshadow="2"
     inkscape:pageopacity="0.0"
     inkscape:pagecheckerboard="0"
     showgrid="false"
     inkscape:zoom="63.988639"
     inkscape:cx="14.658852"
     inkscape:cy="14.666666"
     inkscape:window-width="2664"
     inkscape:window-height="2086"
     inkscape:window-x="503"
     inkscape:window-y="44"
     inkscape:window-maximized="1"
     inkscape:current-layer="g1757" />
  <g
     inkscape:groupmode="layer"
     inkscape:label="Image"
     id="g1757">
    <g
       id="g2086">
      <path
         style="fill:#d0d0d0;fill-opacity:1;stroke-width:1.33333"
         d="M 1.3333333,15.333333 V 9.3333329 H 13.999999 26.666665 v 6.0000001 5.999999 H 13.999999 1.3333333 Z m 7.9999996,0 V 10.666666 H 5.9999997 2.6666665 v 4.666667 4.666666 h 3.3333332 3.3333332 z m 8.0000001,0 v -4.666667 h -3.333334 -3.333333 v 4.666667 4.666666 h 3.333333 3.333334 z m 7.999999,0 v -4.666667 h -3.333333 -3.333333 v 4.666667 4.666666 h 3.333333 3.333333 z"
         id="path2098" />
      <path
         style="fill:#b9b9b9;fill-opacity:1;stroke-width:1.33333"
         d="M 1.3333333,15.333333 V 9.3333329 H 13.999999 26.666665 v 6.0000001 5.999999 H 13.999999 1.3333333 Z m 7.9999996,0 V 10.666666 H 5.9999997 2.6666665 v 4.666667 4.666666 h 3.3333332 3.3333332 z m 8.0000001,0 v -4.666667 h -3.333334 -3.333333 v 4.666667 4.666666 h 3.333333 3.333334 z m 7.999999,0 v -4.666667 h -3.333333 -3.333333 v 4.666667 4.666666 h 3.333333 3.333333 z"
         id="path2096" />
      <path
         style="fill:#a3a3a3;fill-opacity:1;stroke-width:1.33333"
         d="M 1.3333333,15.333333 V 9.3333329 H 13.999999 26.666665 v 6.0000001 5.999999 H 13.999999 1.3333333 Z m 7.9999996,0 V 10.666666 H 5.9999997 2.6666665 v 4.666667 4.666666 h 3.3333332 3.3333332 z m 8.0000001,0 v -4.666667 h -3.333334 -3.333333 v 4.666667 4.666666 h 3.333333 3.333334 z m 7.999999,0 v -4.666667 h -3.333333 -3.333333 v 4.666667 4.666666 h 3.333333 3.333333 z"
         id="path2094" />
      <path
         style="fill:#8c8c8c;fill-opacity:1;stroke-width:1.33333"
         d="M 1.3333333,15.333333 V 9.3333329 H 13.999999 26.666665 v 6.0000001 5.999999 H 13.999999 1.3333333 Z m 7.9999996,0 V 10.666666 H 5.9999997 2.6666665 v 4.666667 4.666666 h 3.3333332 3.3333332 z m 8.0000001,0 v -4.666667 h -3.333334 -3.333333 v 4.666667 4.666666 h 3.333333 3.333334 z m 7.999999,0 v -4.666667 h -3.333333 -3.333333 v 4.666667 4.666666 h 3.333333 3.333333 z"
         id="path2092" />
      <path
         style="fill:#767676;fill-opacity:1;stroke-width:1.33333"
         d="M 1.3333333,15.333333 V 9.3333329 H 13.999999 26.666665 v 6.0000001 5.999999 H 13.999999 1.3333333 Z m 7.9999996,0 V 10.666666 H 5.9999997 2.6666665 v 4.666667 4.666666 h 3.3333332 3.3333332 z m 8.0000001,0 v -4.666667 h -3.333334 -3.333333 v 4.666667 4.666666 h 3.333333 3.333334 z m 7.999999,0 v -4.666667 h -3.333333 -3.333333 v 4.666667 4.666666 h 3.333333 3.333333 z"
         id="path2090" />
      <path
         style="fill:#606060;fill-opacity:1;stroke-width:1.33333"
         d="M 1.3333333,15.333333 V 9.3333329 H 13.999999 26.666665 v 6.0000001 5.999999 H 13.999999 1.3333333 Z m 7.9999996,0 V 10.666666 H 5.9999997 2.6666665 v 4.666667 4.666666 h 3.3333332 3.3333332 z m 8.0000001,0 v -4.666667 h -3.333334 -3.333333 v 4.666667 4.666666 h 3.333333 3.333334 z m 7.999999,0 v -4.666667 h -3.333333 -3.333333 v 4.666667 4.666666 h 3.333333 3.333333 z"
         id="path2088" />
    </g>
    <path
       style="fill:#ff0000;stroke-width:0.0156524"
       d="M 1.3361747,15.330846 V 9.337595 H 13.994672 26.653169 v 5.993251 5.993252 H 13.994672 1.3361747 Z m 8.0014203,0.0078 v -4.67269 H 6.0010653 2.6645355 v 4.672704 4.672705 H 6.0010653 9.337595 Z m 8.00142,0 v -4.672704 h -3.336529 -3.33653 v 4.672704 4.672705 h 3.33653 3.336529 z m 8.001421,0 v -4.672704 h -3.33653 -3.33653 v 4.672704 4.672705 h 3.33653 3.33653 z"
       id="path2183" />
  </g>
</svg>
