<?xml version="1.0" encoding="UTF-8" standalone="no"?>
<!DOCTYPE svg PUBLIC "-//W3C//DTD SVG 1.1//EN" "http://www.w3.org/Graphics/SVG/1.1/DTD/svg11.dtd">
<svg width="30px" height="30px" version="1.1" xmlns="http://www.w3.org/2000/svg" xmlns:xlink="http://www.w3.org/1999/xlink" xml:space="preserve" xmlns:serif="http://www.serif.com/" style="fill-rule:evenodd;clip-rule:evenodd;stroke-linecap:round;stroke-linejoin:round;stroke-miterlimit:1.5;">
    <rect x="0.5" y="10.5" width="29" height="9.5" style="fill:rgb(247,247,247);stroke:black;stroke-width:0.49px;"/>
    <g id="arrow_box">
        <rect x="20" y="15" width="9.5" height="5" style="fill:rgb(134,230,249);stroke:black;stroke-width:0.39px;"/>
        <path d="M24.998,19L22,16.5L28.096,16.521L24.998,19Z" style="fill:none;stroke:black;stroke-width:0.38px;"/>
    </g>
    <g id="arrow_box1" serif:id="arrow_box">
        <rect x="20" y="10.5" width="9.5" height="5" style="fill:rgb(134,230,249);stroke:black;stroke-width:0.39px;"/>
        <path d="M25.098,12L28.096,14.5L22,14.479L25.098,12Z" style="fill:none;stroke:black;stroke-width:0.38px;"/>
    </g>
    <path d="M8.734,18.877L8.16,18.877L8.16,12.777C8.116,12.839 8.051,12.911 7.966,12.991C7.881,13.072 7.786,13.151 7.68,13.23C7.574,13.309 7.462,13.383 7.344,13.452C7.227,13.521 7.112,13.575 7,13.614L7,12.797C7.126,12.748 7.259,12.681 7.4,12.597C7.541,12.514 7.68,12.42 7.816,12.317C7.952,12.213 8.081,12.105 8.202,11.992C8.323,11.879 8.428,11.768 8.517,11.66L8.734,11.66L8.734,18.877Z" style="fill-rule:nonzero;"/>
    <path d="M10.841,18.985C10.734,18.985 10.642,18.931 10.567,18.823C10.491,18.714 10.453,18.585 10.453,18.434C10.453,18.283 10.491,18.152 10.567,18.042C10.642,17.932 10.734,17.878 10.841,17.878C10.95,17.878 11.044,17.932 11.121,18.042C11.197,18.152 11.236,18.283 11.236,18.434C11.236,18.585 11.197,18.714 11.121,18.823C11.044,18.931 10.95,18.985 10.841,18.985Z" style="fill-rule:nonzero;"/>
    <path d="M15,16.721C15,17.065 14.958,17.377 14.874,17.656C14.79,17.935 14.671,18.175 14.516,18.375C14.361,18.575 14.174,18.729 13.955,18.838C13.736,18.946 13.493,19 13.225,19C12.759,19 12.413,18.902 12.187,18.705L12.187,17.848C12.527,18.156 12.875,18.311 13.232,18.311C13.413,18.311 13.577,18.273 13.723,18.198C13.868,18.122 13.992,18.017 14.095,17.882C14.197,17.748 14.276,17.585 14.331,17.395C14.385,17.205 14.413,16.996 14.413,16.77C14.413,16.31 14.303,15.95 14.084,15.689C13.865,15.428 13.547,15.298 13.13,15.298C13.063,15.298 12.992,15.299 12.917,15.303C12.842,15.306 12.768,15.31 12.693,15.315C12.619,15.32 12.546,15.326 12.475,15.332C12.404,15.339 12.339,15.347 12.281,15.357L12.452,11.817L14.769,11.817L14.769,12.546L12.948,12.546L12.847,14.618C12.922,14.612 13.001,14.606 13.085,14.601C13.169,14.596 13.243,14.594 13.308,14.594C13.574,14.594 13.812,14.643 14.021,14.741C14.231,14.84 14.409,14.98 14.554,15.162C14.7,15.345 14.811,15.568 14.886,15.832C14.962,16.096 15,16.392 15,16.721Z" style="fill-rule:nonzero;"/>
    <rect id="outer" x="0" y="0" width="30" height="30" style="fill:none;"/>
</svg>
