<?xml version="1.0" encoding="UTF-8" standalone="no"?>
<!DOCTYPE svg PUBLIC "-//W3C//DTD SVG 1.1//EN" "http://www.w3.org/Graphics/SVG/1.1/DTD/svg11.dtd">
<svg width="30px" height="30px" version="1.1" xmlns="http://www.w3.org/2000/svg" xmlns:xlink="http://www.w3.org/1999/xlink" xml:space="preserve" xmlns:serif="http://www.serif.com/" style="fill-rule:evenodd;clip-rule:evenodd;stroke-linecap:round;stroke-linejoin:round;stroke-miterlimit:1.5;">
    <rect x="0.5" y="10.5" width="29" height="9.5" style="fill:rgb(247,247,247);stroke:black;stroke-width:0.49px;"/>
    <g id="arrow_box">
        <rect x="20" y="15" width="9.5" height="5" style="fill:rgb(134,230,249);stroke:black;stroke-width:0.39px;"/>
        <path d="M24.998,19L22,16.5L28.096,16.521L24.998,19Z" style="fill:none;stroke:black;stroke-width:0.38px;"/>
        <path d="M13.572,16.449C13.572,16.723 13.49,16.972 13.327,17.196C13.163,17.42 12.933,17.612 12.635,17.771C12.338,17.931 11.981,18.054 11.564,18.141C11.148,18.229 10.69,18.272 10.188,18.272C9.271,18.272 8.541,18.162 8,17.942L8,17.198C8.649,17.52 9.392,17.68 10.229,17.68C10.564,17.68 10.867,17.653 11.138,17.6C11.409,17.546 11.642,17.469 11.836,17.367C12.031,17.266 12.181,17.143 12.286,16.999C12.391,16.856 12.444,16.693 12.444,16.513C12.444,15.721 11.549,15.324 9.759,15.324L8.96,15.324L8.96,14.737L9.718,14.737C11.303,14.737 12.095,14.364 12.095,13.62C12.095,12.932 11.491,12.588 10.282,12.588C9.602,12.588 8.964,12.732 8.369,13.019L8.369,12.347C8.982,12.116 9.712,12 10.558,12C10.96,12 11.325,12.035 11.652,12.106C11.978,12.176 12.258,12.275 12.491,12.402C12.723,12.529 12.904,12.681 13.031,12.859C13.159,13.036 13.222,13.232 13.222,13.447C13.222,14.244 12.583,14.758 11.303,14.986L11.303,15.003C11.629,15.026 11.931,15.076 12.209,15.153C12.486,15.231 12.726,15.331 12.927,15.456C13.128,15.58 13.286,15.726 13.4,15.893C13.514,16.061 13.572,16.246 13.572,16.449Z" style="fill-rule:nonzero;"/>
    </g>
    <g id="arrow_box1" serif:id="arrow_box">
        <rect x="20" y="10.5" width="9.5" height="5" style="fill:rgb(134,230,249);stroke:black;stroke-width:0.39px;"/>
        <path d="M25.098,12L28.096,14.5L22,14.479L25.098,12Z" style="fill:none;stroke:black;stroke-width:0.38px;"/>
    </g>
    <rect id="outer" x="0" y="0" width="30" height="30" style="fill:none;"/>
</svg>
