<?xml version="1.0" encoding="UTF-8" standalone="no"?>
<!DOCTYPE svg PUBLIC "-//W3C//DTD SVG 1.1//EN" "http://www.w3.org/Graphics/SVG/1.1/DTD/svg11.dtd">
<svg width="30px" height="30px" version="1.1" xmlns="http://www.w3.org/2000/svg" xmlns:xlink="http://www.w3.org/1999/xlink" xml:space="preserve" xmlns:serif="http://www.serif.com/" style="fill-rule:evenodd;clip-rule:evenodd;stroke-linecap:round;stroke-linejoin:round;stroke-miterlimit:1.5;">
    <rect x="0" y="9" width="30" height="10" style="fill:rgb(204,204,204);stroke:rgb(128,128,128);stroke-width:0.5px;"/>
    <path d="M4.851,16.585L4.117,16.585L3.237,14.841C3.156,14.679 3.078,14.541 3.002,14.426C2.927,14.312 2.849,14.219 2.77,14.146C2.69,14.074 2.604,14.021 2.513,13.988C2.421,13.955 2.318,13.938 2.203,13.938L1.697,13.938L1.697,16.585L1.081,16.585L1.081,10.362L2.65,10.362C2.88,10.362 3.092,10.396 3.287,10.464C3.481,10.532 3.65,10.636 3.793,10.774C3.936,10.913 4.048,11.086 4.128,11.293C4.209,11.5 4.249,11.742 4.249,12.02C4.249,12.237 4.222,12.436 4.167,12.617C4.112,12.797 4.034,12.959 3.932,13.101C3.831,13.242 3.708,13.363 3.565,13.463C3.422,13.563 3.262,13.64 3.083,13.695L3.083,13.712C3.171,13.759 3.247,13.812 3.312,13.871C3.377,13.93 3.439,14 3.497,14.081C3.556,14.162 3.614,14.254 3.672,14.357C3.729,14.46 3.793,14.579 3.864,14.715L4.851,16.585ZM1.697,11.022L1.697,13.278L2.533,13.278C2.687,13.278 2.829,13.251 2.96,13.196C3.091,13.141 3.204,13.062 3.299,12.96C3.395,12.857 3.469,12.731 3.523,12.582C3.577,12.433 3.604,12.266 3.604,12.081C3.604,11.748 3.513,11.488 3.331,11.302C3.148,11.115 2.885,11.022 2.54,11.022L1.697,11.022Z" style="fill-rule:nonzero;"/>
    <path d="M8.291,14.541L5.639,14.541C5.649,15.036 5.761,15.418 5.977,15.687C6.192,15.956 6.488,16.091 6.864,16.091C7.287,16.091 7.676,15.926 8.03,15.596L8.03,16.264C7.7,16.548 7.264,16.689 6.721,16.689C6.191,16.689 5.774,16.488 5.471,16.084C5.167,15.68 5.016,15.113 5.016,14.381C5.016,13.689 5.181,13.126 5.513,12.69C5.844,12.255 6.255,12.037 6.747,12.037C7.238,12.037 7.618,12.225 7.887,12.601C8.156,12.978 8.291,13.5 8.291,14.168L8.291,14.541ZM7.675,13.938C7.672,13.527 7.588,13.208 7.423,12.979C7.258,12.75 7.029,12.636 6.736,12.636C6.452,12.636 6.211,12.756 6.013,12.996C5.815,13.237 5.693,13.55 5.647,13.938L7.675,13.938Z" style="fill-rule:nonzero;"/>
    <path d="M11.888,16.585L11.287,16.585L11.287,15.891L11.272,15.891C11.011,16.423 10.626,16.689 10.117,16.689C9.743,16.689 9.45,16.572 9.239,16.338C9.027,16.104 8.922,15.793 8.922,15.405C8.922,14.575 9.335,14.091 10.161,13.955L11.287,13.769C11.287,13.014 11.029,12.636 10.513,12.636C10.061,12.636 9.653,12.818 9.288,13.183L9.288,12.454C9.657,12.176 10.083,12.037 10.565,12.037C11.447,12.037 11.888,12.59 11.888,13.695L11.888,16.585ZM11.287,14.337L10.381,14.485C10.102,14.531 9.892,14.613 9.75,14.73C9.609,14.847 9.538,15.055 9.538,15.353C9.538,15.57 9.603,15.747 9.734,15.884C9.865,16.022 10.039,16.091 10.256,16.091C10.555,16.091 10.801,15.967 10.995,15.72C11.19,15.472 11.287,15.159 11.287,14.78L11.287,14.337Z" style="fill-rule:nonzero;"/>
    <path d="M16.227,16.585L15.626,16.585L15.626,15.83L15.611,15.83C15.332,16.403 14.902,16.689 14.32,16.689C13.848,16.689 13.471,16.491 13.189,16.093C12.906,15.695 12.765,15.153 12.765,14.468C12.765,13.733 12.921,13.144 13.234,12.701C13.547,12.259 13.964,12.037 14.485,12.037C15.001,12.037 15.376,12.277 15.611,12.758L15.626,12.758L15.626,10.006L16.227,10.006L16.227,16.585ZM15.626,14.576L15.626,13.921C15.626,13.562 15.525,13.258 15.325,13.009C15.124,12.761 14.87,12.636 14.562,12.636C14.195,12.636 13.907,12.795 13.696,13.114C13.486,13.432 13.381,13.872 13.381,14.433C13.381,14.945 13.482,15.349 13.684,15.646C13.885,15.942 14.156,16.091 14.496,16.091C14.831,16.091 15.103,15.947 15.312,15.661C15.521,15.375 15.626,15.013 15.626,14.576Z" style="fill-rule:nonzero;"/>
    <path d="M20.433,12.141L18.706,17.297C18.398,18.217 17.965,18.677 17.408,18.677C17.251,18.677 17.121,18.658 17.015,18.621L17.015,17.983C17.145,18.035 17.264,18.061 17.371,18.061C17.674,18.061 17.902,17.847 18.053,17.419L18.354,16.577L16.887,12.141L17.555,12.141L18.57,15.561C18.583,15.605 18.608,15.717 18.647,15.9L18.669,15.9C18.682,15.83 18.706,15.72 18.743,15.57L19.81,12.141L20.433,12.141Z" style="fill-rule:nonzero;"/>
    <path id="divider" d="M21.007,9.5L21.133,18.5" style="fill:none;stroke:rgb(128,128,128);stroke-width:1px;stroke-linecap:square;"/>
    <g id="grabber">
        <path d="M28.743,18.885L30,17.766" style="fill:none;stroke:rgb(128,128,128);stroke-width:0.3px;"/>
        <path d="M27.5,18.889L29.91,16.742" style="fill:none;stroke:rgb(128,128,128);stroke-width:0.3px;"/>
        <path d="M26.171,18.885L29.91,15.555" style="fill:none;stroke:rgb(128,128,128);stroke-width:0.3px;"/>
    </g>
    <rect id="outer" x="0" y="0" width="30" height="30" style="fill:none;"/>
</svg>
