<?xml version="1.0" encoding="UTF-8" standalone="no"?>
<!DOCTYPE svg PUBLIC "-//W3C//DTD SVG 1.1//EN" "http://www.w3.org/Graphics/SVG/1.1/DTD/svg11.dtd">
<svg width="30px" height="30px" version="1.1" xmlns="http://www.w3.org/2000/svg" xmlns:xlink="http://www.w3.org/1999/xlink" xml:space="preserve" xmlns:serif="http://www.serif.com/" style="fill-rule:evenodd;clip-rule:evenodd;stroke-linejoin:round;stroke-miterlimit:2;">
    <rect id="sizer" x="0.5" y="7" width="29" height="14" style="fill:none;stroke:rgb(255,0,0);stroke-width:1px;"/>
    <g>
        <g id="button">
            <rect x="16" y="8.5" width="12" height="11" style="fill:none;stroke:rgb(136,136,136);stroke-width:1.29px;stroke-miterlimit:4;"/>
            <rect x="16" y="8.5" width="12" height="11" style="fill:rgb(221,221,221);"/>
            <rect x="16.429" y="9.285" width="11.143" height="9.429" style="fill:white;"/>
        </g>
        <g id="button1" serif:id="button">
            <rect x="2" y="8.5" width="12" height="11" style="fill:none;stroke:rgb(136,136,136);stroke-width:1.29px;stroke-miterlimit:4;"/>
            <rect x="2" y="8.5" width="12" height="11" style="fill:rgb(221,221,221);"/>
            <rect x="2.429" y="9.285" width="11.143" height="9.429" style="fill:white;"/>
        </g>
        <path d="M19.452,16L17,16L17,11.995L19.348,11.995L19.348,12.419L17.542,12.419L17.542,13.752L19.213,13.752L19.213,14.173L17.542,14.173L17.542,15.575L19.452,15.575L19.452,16Z" style="fill-rule:nonzero;"/>
        <path d="M20.126,15.838L20.126,15.285C20.199,15.341 20.287,15.391 20.389,15.436C20.491,15.48 20.598,15.518 20.711,15.549C20.824,15.58 20.938,15.603 21.052,15.62C21.166,15.637 21.271,15.645 21.368,15.645C21.701,15.645 21.95,15.592 22.115,15.485C22.279,15.378 22.361,15.224 22.361,15.022C22.361,14.914 22.334,14.82 22.279,14.74C22.224,14.66 22.148,14.587 22.052,14.521C21.955,14.455 21.84,14.392 21.708,14.331C21.576,14.271 21.433,14.207 21.281,14.14C21.119,14.069 20.969,13.997 20.829,13.925C20.689,13.852 20.568,13.772 20.465,13.685C20.361,13.597 20.28,13.498 20.221,13.387C20.162,13.276 20.132,13.146 20.132,12.997C20.132,12.815 20.178,12.656 20.271,12.521C20.363,12.386 20.485,12.275 20.635,12.187C20.786,12.1 20.958,12.035 21.15,11.992C21.342,11.949 21.539,11.928 21.739,11.928C22.195,11.928 22.527,11.975 22.735,12.07L22.735,12.598C22.462,12.434 22.112,12.352 21.684,12.352C21.566,12.352 21.447,12.363 21.329,12.384C21.211,12.406 21.105,12.441 21.013,12.489C20.92,12.537 20.845,12.6 20.787,12.676C20.729,12.753 20.7,12.846 20.7,12.956C20.7,13.058 20.722,13.146 20.766,13.221C20.81,13.295 20.875,13.363 20.961,13.425C21.047,13.486 21.152,13.546 21.276,13.604C21.399,13.661 21.542,13.725 21.703,13.793C21.869,13.864 22.026,13.939 22.174,14.017C22.323,14.095 22.453,14.182 22.565,14.277C22.676,14.372 22.765,14.477 22.831,14.592C22.896,14.708 22.929,14.84 22.929,14.989C22.929,15.186 22.884,15.353 22.795,15.49C22.706,15.627 22.585,15.738 22.434,15.824C22.282,15.91 22.108,15.972 21.91,16.01C21.712,16.048 21.503,16.067 21.284,16.067C21.211,16.067 21.12,16.062 21.013,16.052C20.905,16.041 20.796,16.027 20.684,16.007C20.572,15.987 20.466,15.963 20.366,15.934C20.266,15.906 20.186,15.873 20.126,15.838Z" style="fill-rule:nonzero;"/>
        <path d="M27,15.832C26.658,15.989 26.232,16.067 25.723,16.067C25.065,16.067 24.538,15.884 24.142,15.517C23.746,15.15 23.548,14.669 23.548,14.073C23.548,13.432 23.771,12.915 24.216,12.52C24.661,12.125 25.226,11.928 25.91,11.928C26.348,11.928 26.712,11.983 27,12.092L27,12.592C26.669,12.432 26.303,12.352 25.903,12.352C25.372,12.352 24.941,12.506 24.611,12.813C24.281,13.12 24.116,13.531 24.116,14.045C24.116,14.533 24.27,14.921 24.579,15.211C24.888,15.501 25.292,15.645 25.794,15.645C26.258,15.645 26.66,15.556 27,15.377L27,15.832Z" style="fill-rule:nonzero;"/>
        <path d="M5.841,16.139C5.284,16.139 4.838,15.952 4.503,15.578C4.168,15.204 4,14.717 4,14.117C4,13.473 4.171,12.959 4.512,12.575C4.854,12.192 5.319,12 5.907,12C6.449,12 6.886,12.186 7.218,12.559C7.549,12.931 7.715,13.418 7.715,14.019C7.715,14.673 7.545,15.19 7.205,15.57C6.865,15.949 6.411,16.139 5.841,16.139ZM5.874,12.425C5.461,12.425 5.126,12.576 4.868,12.88C4.611,13.183 4.482,13.582 4.482,14.075C4.482,14.569 4.608,14.966 4.859,15.267C5.11,15.567 5.437,15.718 5.841,15.718C6.272,15.718 6.612,15.574 6.86,15.287C7.108,15.001 7.233,14.599 7.233,14.084C7.233,13.555 7.112,13.146 6.871,12.857C6.63,12.569 6.298,12.425 5.874,12.425Z" style="fill-rule:nonzero;"/>
        <path d="M11.221,16.072L10.58,16.072L9.063,14.24C9.006,14.171 8.971,14.125 8.958,14.1L8.947,14.1L8.947,16.072L8.487,16.072L8.487,12.067L8.947,12.067L8.947,13.95L8.958,13.95C8.984,13.909 9.019,13.863 9.063,13.813L10.531,12.067L11.103,12.067L9.419,13.989L11.221,16.072Z" style="fill-rule:nonzero;"/>
    </g>
    <rect id="outer" x="0" y="0" width="30" height="30" style="fill:none;"/>
</svg>
