<?xml version="1.0" encoding="UTF-8" standalone="no"?>
<!DOCTYPE svg PUBLIC "-//W3C//DTD SVG 1.1//EN" "http://www.w3.org/Graphics/SVG/1.1/DTD/svg11.dtd">
<svg width="30px" height="30px" version="1.1" xmlns="http://www.w3.org/2000/svg" xmlns:xlink="http://www.w3.org/1999/xlink" xml:space="preserve" xmlns:serif="http://www.serif.com/" style="fill-rule:evenodd;clip-rule:evenodd;stroke-linecap:square;stroke-linejoin:round;stroke-miterlimit:1.5;">
    <g id="menuitem">
        <rect x="5.25" y="9.733" width="24.396" height="8.534" style="fill:rgb(13,202,242);"/>
        <rect x="5.25" y="9.5" width="24.574" height="9" style="fill:none;stroke:rgb(128,128,128);stroke-width:0.5px;"/>
        <path d="M7.062,15.107L6.05,15.107L6.05,11.81L6.278,11.81L6.278,14.758L7.062,14.758L7.062,15.107Z" style="fill-rule:nonzero;"/>
        <path d="M7.913,15.162C7.707,15.162 7.543,15.052 7.42,14.832C7.297,14.612 7.236,14.321 7.236,13.957C7.236,13.562 7.3,13.253 7.428,13.031C7.556,12.809 7.728,12.698 7.946,12.698C8.154,12.698 8.316,12.806 8.432,13.022C8.549,13.238 8.607,13.537 8.607,13.921C8.607,14.296 8.544,14.597 8.419,14.823C8.293,15.049 8.125,15.162 7.913,15.162ZM7.93,13.015C7.786,13.015 7.673,13.097 7.59,13.262C7.506,13.427 7.464,13.654 7.464,13.944C7.464,14.223 7.507,14.443 7.591,14.604C7.675,14.764 7.788,14.845 7.93,14.845C8.074,14.845 8.185,14.766 8.262,14.608C8.34,14.45 8.378,14.226 8.378,13.934C8.378,13.64 8.34,13.413 8.262,13.254C8.185,13.095 8.074,13.015 7.93,13.015Z" style="fill-rule:nonzero;"/>
        <path d="M9.69,13.134C9.651,13.084 9.594,13.058 9.521,13.058C9.426,13.058 9.346,13.134 9.282,13.286C9.218,13.438 9.186,13.645 9.186,13.907L9.186,15.107L8.963,15.107L8.963,12.753L9.186,12.753L9.186,13.238L9.192,13.238C9.223,13.072 9.272,12.943 9.337,12.85C9.403,12.758 9.476,12.711 9.556,12.711C9.614,12.711 9.659,12.722 9.69,12.744L9.69,13.134Z" style="fill-rule:nonzero;"/>
        <path d="M11.051,14.024L10.068,14.024C10.071,14.286 10.113,14.489 10.193,14.631C10.273,14.774 10.382,14.845 10.522,14.845C10.679,14.845 10.823,14.758 10.954,14.583L10.954,14.937C10.832,15.087 10.67,15.162 10.469,15.162C10.272,15.162 10.118,15.055 10.005,14.841C9.893,14.628 9.836,14.327 9.836,13.939C9.836,13.573 9.898,13.274 10.021,13.044C10.144,12.813 10.296,12.698 10.478,12.698C10.661,12.698 10.802,12.797 10.901,12.996C11.001,13.196 11.051,13.472 11.051,13.826L11.051,14.024ZM10.822,13.705C10.822,13.487 10.791,13.318 10.729,13.196C10.668,13.075 10.583,13.015 10.474,13.015C10.369,13.015 10.28,13.078 10.206,13.206C10.133,13.333 10.088,13.499 10.07,13.705L10.822,13.705Z" style="fill-rule:nonzero;"/>
        <path d="M13.366,15.107L13.143,15.107L13.143,13.755C13.143,13.495 13.119,13.306 13.071,13.19C13.024,13.073 12.944,13.015 12.831,13.015C12.736,13.015 12.655,13.088 12.589,13.236C12.522,13.383 12.489,13.559 12.489,13.764L12.489,15.107L12.266,15.107L12.266,13.709C12.266,13.246 12.16,13.015 11.949,13.015C11.851,13.015 11.77,13.084 11.707,13.223C11.643,13.362 11.611,13.542 11.611,13.764L11.611,15.107L11.388,15.107L11.388,12.753L11.611,12.753L11.611,13.125L11.617,13.125C11.716,12.84 11.86,12.698 12.049,12.698C12.144,12.698 12.227,12.742 12.298,12.832C12.369,12.922 12.417,13.039 12.444,13.185C12.547,12.86 12.701,12.698 12.906,12.698C13.213,12.698 13.366,13.017 13.366,13.656L13.366,15.107Z" style="fill-rule:nonzero;"/>
        <rect x="14.58" y="11.81" width="0.228" height="3.297" style="fill-rule:nonzero;"/>
        <path d="M15.52,14.767L15.515,14.767L15.515,16.19L15.292,16.19L15.292,12.753L15.515,12.753L15.515,13.167L15.52,13.167C15.63,12.854 15.79,12.698 16.002,12.698C16.181,12.698 16.321,12.803 16.422,13.014C16.523,13.224 16.573,13.507 16.573,13.861C16.573,14.255 16.516,14.57 16.403,14.807C16.29,15.044 16.135,15.162 15.938,15.162C15.757,15.162 15.618,15.03 15.52,14.767ZM15.515,13.817L15.515,14.146C15.515,14.341 15.552,14.506 15.627,14.641C15.702,14.777 15.797,14.845 15.912,14.845C16.047,14.845 16.153,14.758 16.23,14.583C16.306,14.408 16.344,14.165 16.344,13.854C16.344,13.592 16.309,13.387 16.237,13.238C16.165,13.089 16.068,13.015 15.946,13.015C15.816,13.015 15.712,13.091 15.633,13.244C15.554,13.396 15.515,13.587 15.515,13.817Z" style="fill-rule:nonzero;"/>
        <path d="M16.845,15.022L16.845,14.617C16.966,14.769 17.1,14.845 17.246,14.845C17.442,14.845 17.54,14.735 17.54,14.514C17.54,14.451 17.532,14.398 17.515,14.354C17.498,14.31 17.475,14.272 17.447,14.238C17.418,14.204 17.385,14.174 17.346,14.147C17.308,14.12 17.266,14.092 17.222,14.063C17.16,14.022 17.106,13.98 17.059,13.938C17.012,13.896 16.973,13.848 16.942,13.795C16.911,13.742 16.887,13.682 16.871,13.615C16.856,13.547 16.848,13.469 16.848,13.378C16.848,13.268 16.863,13.17 16.893,13.085C16.922,13 16.962,12.929 17.012,12.871C17.062,12.814 17.119,12.77 17.183,12.741C17.247,12.712 17.313,12.698 17.381,12.698C17.501,12.698 17.609,12.733 17.705,12.803L17.705,13.185C17.602,13.072 17.484,13.015 17.351,13.015C17.309,13.015 17.272,13.023 17.238,13.039C17.204,13.055 17.176,13.078 17.152,13.107C17.128,13.136 17.109,13.171 17.096,13.211C17.083,13.252 17.076,13.297 17.076,13.346C17.076,13.407 17.083,13.459 17.096,13.5C17.109,13.541 17.128,13.578 17.154,13.61C17.179,13.642 17.21,13.672 17.246,13.698C17.282,13.724 17.324,13.752 17.37,13.783C17.432,13.823 17.487,13.864 17.536,13.906C17.585,13.948 17.627,13.995 17.661,14.048C17.695,14.101 17.722,14.162 17.741,14.231C17.759,14.3 17.768,14.382 17.768,14.477C17.768,14.594 17.753,14.695 17.723,14.781C17.693,14.866 17.652,14.938 17.601,14.994C17.55,15.051 17.492,15.093 17.426,15.121C17.36,15.148 17.29,15.162 17.218,15.162C17.074,15.162 16.95,15.115 16.845,15.022Z" style="fill-rule:nonzero;"/>
        <path d="M19.237,15.107L19.014,15.107L19.014,14.735L19.009,14.735C18.916,15.02 18.773,15.162 18.579,15.162C18.247,15.162 18.081,14.828 18.081,14.16L18.081,12.753L18.303,12.753L18.303,14.1C18.303,14.597 18.415,14.845 18.64,14.845C18.749,14.845 18.839,14.777 18.909,14.641C18.979,14.506 19.014,14.328 19.014,14.109L19.014,12.753L19.237,12.753L19.237,15.107Z" style="fill-rule:nonzero;"/>
        <path d="M21.665,15.107L21.442,15.107L21.442,13.755C21.442,13.495 21.418,13.306 21.371,13.19C21.323,13.073 21.243,13.015 21.131,13.015C21.035,13.015 20.954,13.088 20.888,13.236C20.821,13.383 20.788,13.559 20.788,13.764L20.788,15.107L20.565,15.107L20.565,13.709C20.565,13.246 20.459,13.015 20.248,13.015C20.15,13.015 20.069,13.084 20.006,13.223C19.942,13.362 19.911,13.542 19.911,13.764L19.911,15.107L19.688,15.107L19.688,12.753L19.911,12.753L19.911,13.125L19.916,13.125C20.015,12.84 20.159,12.698 20.349,12.698C20.444,12.698 20.527,12.742 20.597,12.832C20.668,12.922 20.717,13.039 20.743,13.185C20.846,12.86 21,12.698 21.205,12.698C21.512,12.698 21.665,13.017 21.665,13.656L21.665,15.107Z" style="fill-rule:nonzero;"/>
        <path d="M23.182,12.753L22.627,15.107L22.408,15.107L21.88,12.753L22.125,12.753L22.478,14.463C22.505,14.589 22.521,14.699 22.527,14.792L22.533,14.792C22.542,14.674 22.556,14.568 22.576,14.472L22.946,12.753L23.182,12.753Z" style="fill-rule:nonzero;"/>
        <path d="M28.909,14L25.756,16L25.756,12L28.909,14Z" style="stroke:black;stroke-width:0.24px;stroke-linecap:round;"/>
    </g>
    <g id="File">
        <rect x="0.235" y="0.205" width="18.717" height="8.534" style="fill:rgb(13,202,242);"/>
        <path d="M5.699,1.785L3.064,1.785L3.064,4.237L5.502,4.237L5.502,4.984L3.064,4.984L3.064,8.124L2.274,8.124L2.274,1.033L5.699,1.033L5.699,1.785Z" style="fill-rule:nonzero;"/>
        <path d="M7.271,1.775C7.133,1.775 7.015,1.726 6.918,1.627C6.821,1.528 6.772,1.403 6.772,1.251C6.772,1.099 6.821,0.973 6.918,0.873C7.015,0.772 7.133,0.722 7.271,0.722C7.412,0.722 7.532,0.772 7.631,0.873C7.73,0.973 7.779,1.099 7.779,1.251C7.779,1.396 7.73,1.52 7.631,1.622C7.532,1.724 7.412,1.775 7.271,1.775ZM7.647,8.124L6.876,8.124L6.876,3.061L7.647,3.061L7.647,8.124Z" style="fill-rule:nonzero;"/>
        <rect x="9.209" y="0.628" width="0.772" height="7.496"/>
        <path d="M15.415,5.795L12.014,5.795C12.026,6.359 12.17,6.794 12.447,7.1C12.723,7.407 13.102,7.56 13.585,7.56C14.128,7.56 14.627,7.372 15.081,6.997L15.081,7.758C14.658,8.081 14.098,8.243 13.402,8.243C12.721,8.243 12.186,8.013 11.797,7.553C11.408,7.093 11.214,6.446 11.214,5.612C11.214,4.824 11.426,4.182 11.851,3.686C12.276,3.19 12.804,2.942 13.435,2.942C14.065,2.942 14.553,3.156 14.898,3.585C15.243,4.013 15.415,4.608 15.415,5.37L15.415,5.795ZM14.625,5.108C14.622,4.64 14.514,4.275 14.303,4.015C14.091,3.755 13.797,3.624 13.42,3.624C13.057,3.624 12.748,3.761 12.494,4.035C12.239,4.308 12.083,4.666 12.023,5.108L14.625,5.108Z" style="fill-rule:nonzero;"/>
    </g>
    <rect x="0" y="0" width="29.824" height="9" style="fill:none;stroke:rgb(128,128,128);stroke-width:0.5px;"/>
    <g id="mouse">
        <path d="M24.418,21.007L26.532,19.829L17.239,15.116L21.488,25.296L22.479,23.007L24.771,25.774L26.684,23.777L24.418,21.007Z" style="fill:rgb(248,248,248);fill-rule:nonzero;"/>
        <path d="M17.123,15L21.375,25.434" style="fill:none;fill-rule:nonzero;stroke:black;stroke-width:0.62px;stroke-linecap:round;stroke-linejoin:miter;stroke-miterlimit:10;"/>
        <path d="M21.375,25.434L22.404,23.02" style="fill:none;fill-rule:nonzero;stroke:black;stroke-width:0.62px;stroke-linecap:round;stroke-linejoin:miter;stroke-miterlimit:10;"/>
        <path d="M17.165,15.021L26.527,19.785" style="fill:none;fill-rule:nonzero;stroke:black;stroke-width:0.62px;stroke-linecap:round;stroke-linejoin:miter;stroke-miterlimit:10;"/>
        <path d="M24.395,20.985L26.567,19.847" style="fill:none;fill-rule:nonzero;stroke:black;stroke-width:0.62px;stroke-linecap:round;stroke-linejoin:miter;stroke-miterlimit:10;"/>
        <path d="M24.65,25.754L22.458,23.061" style="fill:none;fill-rule:nonzero;stroke:black;stroke-width:0.62px;stroke-linecap:round;stroke-linejoin:miter;stroke-miterlimit:10;"/>
        <path d="M24.398,21.024L26.544,23.694" style="fill:none;fill-rule:nonzero;stroke:black;stroke-width:0.62px;stroke-linecap:round;stroke-linejoin:miter;stroke-miterlimit:10;"/>
        <path d="M24.688,25.746L26.622,23.77" style="fill:none;fill-rule:nonzero;stroke:black;stroke-width:0.62px;stroke-linecap:round;stroke-linejoin:miter;stroke-miterlimit:10;"/>
        <path d="M22.676,18.533L24.462,19.529" style="fill:none;fill-rule:nonzero;stroke:rgb(228,228,228);stroke-width:0.29px;stroke-linecap:round;stroke-linejoin:miter;stroke-miterlimit:10;"/>
        <path d="M18.491,17.076C18.491,17.076 18.101,16.15 18.141,16.098C18.149,16.087 19.365,16.721 19.365,16.721" style="fill:none;fill-rule:nonzero;stroke:rgb(228,228,228);stroke-width:0.29px;stroke-linecap:round;stroke-linejoin:miter;stroke-miterlimit:10;"/>
        <path d="M24.739,24.888L25.884,23.719" style="fill:none;fill-rule:nonzero;stroke:rgb(228,228,228);stroke-width:0.29px;stroke-linecap:round;stroke-linejoin:miter;stroke-miterlimit:10;"/>
        <path d="M19.865,20.345L21.379,23.964" style="fill:none;fill-rule:nonzero;stroke:white;stroke-width:0.27px;stroke-linecap:round;stroke-linejoin:miter;stroke-miterlimit:10;"/>
    </g>
    <rect id="outer" x="0" y="0" width="30" height="30" style="fill:none;"/>
</svg>
