<?xml version="1.0" encoding="UTF-8" standalone="no"?>
<!DOCTYPE svg PUBLIC "-//W3C//DTD SVG 1.1//EN" "http://www.w3.org/Graphics/SVG/1.1/DTD/svg11.dtd">
<svg width="30px" height="30px" version="1.1" xmlns="http://www.w3.org/2000/svg" xmlns:xlink="http://www.w3.org/1999/xlink" xml:space="preserve" xmlns:serif="http://www.serif.com/" style="fill-rule:evenodd;clip-rule:evenodd;">
    <g>
        <path id="path16181" d="M29.619,27.08C29.619,28.508 28.535,29.666 27.201,29.666L2.775,29.666C1.441,29.666 0.357,28.508 0.357,27.08L0.357,2.928C0.357,1.501 1.441,0.341 2.775,0.341L27.201,0.341C28.535,0.341 29.619,1.501 29.619,2.928L29.619,27.08Z" style="fill:url(#_Linear1);fill-rule:nonzero;stroke:rgb(100,100,100);stroke-width:0.71px;"/>
        <path id="path11975" d="M29.024,26.657C29.024,28.026 28.35,28.877 27.07,28.877L2.967,28.877C1.687,28.877 0.952,28.091 0.952,26.722L0.952,3.297C0.952,1.928 1.991,0.946 3.271,0.946L26.766,0.946C28.045,0.946 29.024,1.928 29.024,3.297L29.024,26.657Z" style="fill:none;fill-rule:nonzero;stroke:white;stroke-opacity:0.86;stroke-width:0.71px;"/>
        <rect id="path7644" x="2.277" y="3.5" width="25.451" height="23" style="fill:url(#_Linear2);stroke:rgb(100,100,100);stroke-width:0.94px;stroke-linejoin:round;stroke-miterlimit:2;"/>
        <g id="sky">
            <rect id="rect2160" x="2.718" y="4" width="24.544" height="13.856" style="fill:url(#_Radial3);"/>
        </g>
        <g id="boat">
            <path id="path16223" d="M16.772,17.777L23.436,17.777L24.714,18.176L22.523,18.176C22.523,18.176 24.714,18.375 25.809,19.867C26.905,21.261 24.531,22.952 24.531,22.952C24.44,22.654 23.892,20.265 22.797,19.27C21.975,18.474 21.062,18.275 21.062,18.275L16.772,18.275L16.772,17.777Z" style="fill-opacity:0.3;fill-rule:nonzero;"/>
            <path id="path16225" d="M21.154,18.375L17.32,18.375L24.44,22.753L21.154,18.375Z" style="fill-opacity:0.3;fill-rule:nonzero;"/>
            <path id="path16227" d="M22.249,17.18L20.697,17.18C20.697,17.18 21.519,16.882 21.793,15.489C22.432,13.896 21.519,9.717 21.427,9.12L21.427,9.02C21.427,9.02 24.805,11.807 24.531,14.294C24.257,16.782 22.249,17.18 22.249,17.18Z" style="fill:rgb(234,234,234);"/>
            <path id="path162271" serif:id="path16227" d="M20.697,17.18L24.412,17.2L23.436,17.877L16.68,17.877L16.498,17.18L20.697,17.18Z" style="fill:rgb(211,160,58);"/>
            <path id="path162272" serif:id="path16227" d="M24.412,17.2L20.697,17.18L24.44,17.18L24.412,17.2Z" style="fill:rgb(234,234,234);"/>
            <path id="path16229" d="M20.652,17.207L16.818,17.207L21.383,9.272L20.652,17.207Z" style="fill:rgb(230,230,230);fill-rule:nonzero;"/>
        </g>
        <g id="sun">
            <path id="path16209" d="M12.5,9.061C12.5,10.972 10.977,12.621 9.031,12.621C7.169,12.621 5.561,11.058 5.561,9.061C5.561,7.15 7.085,5.5 9.031,5.5C10.892,5.5 12.5,7.063 12.5,9.061Z" style="fill:rgb(232,245,47);fill-opacity:0.05;fill-rule:nonzero;"/>
            <path id="path16211" d="M12.162,9.061C12.162,10.798 10.807,12.274 9.031,12.274C7.338,12.274 5.9,10.885 5.9,9.061C5.9,7.324 7.253,5.848 9.031,5.848C10.723,5.848 12.162,7.237 12.162,9.061Z" style="fill:rgb(236,247,81);fill-opacity:0.21;fill-rule:nonzero;"/>
            <path id="path16213" d="M11.823,9.061C11.823,10.624 10.554,11.927 9.031,11.927C7.508,11.927 6.238,10.624 6.238,9.061C6.238,7.497 7.508,6.194 9.031,6.194C10.554,6.194 11.823,7.497 11.823,9.061Z" style="fill:rgb(240,249,114);fill-opacity:0.37;fill-rule:nonzero;"/>
            <path id="path16215" d="M11.484,9.061C11.484,10.45 10.384,11.579 9.031,11.579C7.677,11.579 6.577,10.45 6.577,9.061C6.577,7.671 7.677,6.542 9.031,6.542C10.384,6.542 11.484,7.671 11.484,9.061Z" style="fill:rgb(244,250,149);fill-opacity:0.52;fill-rule:nonzero;"/>
            <path id="path16217" d="M11.146,9.061C11.146,10.277 10.215,11.232 9.031,11.232C7.846,11.232 6.915,10.277 6.915,9.061C6.915,7.845 7.846,6.89 9.031,6.89C10.215,6.89 11.146,7.845 11.146,9.061Z" style="fill:rgb(247,252,183);fill-opacity:0.68;fill-rule:nonzero;"/>
            <path id="path16219" d="M10.807,9.061C10.807,10.103 9.961,10.885 9.031,10.885C8.1,10.885 7.253,10.016 7.253,9.061C7.253,8.105 8.1,7.237 9.031,7.237C9.961,7.237 10.807,8.105 10.807,9.061Z" style="fill:rgb(251,253,219);fill-opacity:0.84;fill-rule:nonzero;"/>
            <path id="path16221" d="M10.469,9.061C10.469,9.929 9.792,10.624 8.946,10.624C8.1,10.624 7.423,9.929 7.423,9.061C7.423,8.193 8.1,7.497 8.946,7.497C9.792,7.497 10.469,8.193 10.469,9.061Z" style="fill:white;fill-rule:nonzero;"/>
        </g>
    </g>
    <defs>
        <linearGradient id="_Linear1" x1="0" y1="0" x2="1" y2="0" gradientUnits="userSpaceOnUse" gradientTransform="matrix(18.3877,26.9167,-26.9167,18.3877,7.43267,1.17244)"><stop offset="0" style="stop-color:rgb(210,210,210);stop-opacity:1"/><stop offset="1" style="stop-color:rgb(237,237,237);stop-opacity:1"/></linearGradient>
        <linearGradient id="_Linear2" x1="0" y1="0" x2="1" y2="0" gradientUnits="userSpaceOnUse" gradientTransform="matrix(1.8975e-15,30.9885,-30.9885,1.8975e-15,14.6832,-0.824689)"><stop offset="0" style="stop-color:rgb(133,149,188);stop-opacity:1"/><stop offset="1" style="stop-color:rgb(4,26,59);stop-opacity:1"/></linearGradient>
        <radialGradient id="_Radial3" cx="0" cy="0" r="1" gradientUnits="userSpaceOnUse" gradientTransform="matrix(29.3024,0,0,15.4143,22.7116,18.5084)"><stop offset="0" style="stop-color:rgb(255,126,0);stop-opacity:1"/><stop offset="1" style="stop-color:rgb(255,0,123);stop-opacity:1"/></radialGradient>
    </defs>
</svg>
