<?xml version="1.0" encoding="UTF-8" standalone="no"?><!DOCTYPE svg PUBLIC "-//W3C//DTD SVG 1.1//EN" "http://www.w3.org/Graphics/SVG/1.1/DTD/svg11.dtd"><svg width="100%" height="100%" viewBox="0 0 48 48" version="1.1" xmlns="http://www.w3.org/2000/svg" xmlns:xlink="http://www.w3.org/1999/xlink" xml:space="preserve" xmlns:serif="http://www.serif.com/" style="fill-rule:evenodd;clip-rule:evenodd;"><g transform="matrix(1,0,0,1,0,0.707108)"><path d="M40.128,42.078c0,2.473 -7.142,4.508 -15.821,4.508c-8.68,-0 -15.822,-2.035 -15.822,-4.508c0,-2.473 7.142,-4.508 15.822,-4.508c8.679,0 15.821,2.035 15.821,4.508Z" style="fill:url(#_Radial1);fill-rule:nonzero;"/></g><path d="M11.506,5.494l-0,37.907" style="fill:none;fill-rule:nonzero;stroke:#000;stroke-opacity:0.02;stroke-width:1px;"/><g transform="matrix(1.00358,0,0,1.00194,-0.12722,-0.153534)"><path d="M41.479,4.789l-0,38.635c-0,0.631 -0.512,1.143 -1.141,1.143l-32.594,-0c-0.629,-0 -1.14,-0.512 -1.14,-1.143l-0,-38.635c-0,-0.631 0.511,-1.143 1.14,-1.143l32.594,0c0.629,0 1.141,0.512 1.141,1.143Z" style="fill:url(#_Radial2);stroke:url(#_Radial3);stroke-width:1px;stroke-linecap:round;stroke-linejoin:round;"/></g><g transform="matrix(1.00358,0,0,1.00194,-0.12722,-0.153534)"><path d="M40.442,4.732l-0,38.65c-0,0.082 -0.066,0.148 -0.148,0.148l-32.48,0c-0.082,0 -0.148,-0.066 -0.148,-0.148l0,-38.65c0,-0.082 0.066,-0.148 0.148,-0.148l32.48,-0c0.082,-0 0.148,0.066 0.148,0.148Z" style="fill:none;stroke:url(#_Radial4);stroke-width:1px;stroke-linecap:round;stroke-linejoin:round;"/></g><g transform="matrix(1,0,0,1,0.646447,-0.0379893)"><path d="M10.348,30.217c0,0.453 -0.367,0.821 -0.82,0.821c-0.454,-0 -0.821,-0.368 -0.821,-0.821c0,-0.453 0.368,-0.821 0.821,-0.821c0.453,0 0.82,0.368 0.82,0.821Zm0,-11.485c0,0.453 -0.367,0.821 -0.82,0.821c-0.454,-0 -0.821,-0.368 -0.821,-0.821c0,-0.453 0.368,-0.821 0.821,-0.821c0.453,0 0.82,0.368 0.82,0.821Z" style="fill:#fff;fill-rule:nonzero;"/><path d="M9.995,29.952c0,0.454 -0.368,0.821 -0.821,0.821c-0.453,-0 -0.82,-0.368 -0.82,-0.821c-0,-0.453 0.367,-0.82 0.82,-0.82c0.453,-0 0.821,0.367 0.821,0.82Z" style="fill:url(#_Radial5);fill-rule:nonzero;"/><path d="M9.995,18.467c0,0.453 -0.368,0.821 -0.821,0.821c-0.453,-0 -0.82,-0.368 -0.82,-0.821c-0,-0.453 0.367,-0.821 0.82,-0.821c0.453,0 0.821,0.368 0.821,0.821Z" style="fill:url(#_Radial6);fill-rule:nonzero;"/></g><path d="M12.5,5.021l0,38.017" style="fill:none;fill-rule:nonzero;stroke:#fff;stroke-opacity:0.2;stroke-width:1px;"/><g transform="matrix(0.9091,0,0,1,2.36363,0)"><path d="M37,9.152l0,0.696c0,0.084 -0.075,0.152 -0.167,0.152l-21.666,0c-0.092,0 -0.167,-0.068 -0.167,-0.152l0,-0.696c0,-0.084 0.075,-0.152 0.167,-0.152l21.666,-0c0.092,-0 0.167,0.068 0.167,0.152Z" style="fill:#9b9b9b;fill-opacity:0.55;"/><path d="M37,11.152l0,0.696c0,0.084 -0.075,0.152 -0.167,0.152l-21.666,0c-0.092,0 -0.167,-0.068 -0.167,-0.152l0,-0.696c0,-0.084 0.075,-0.152 0.167,-0.152l21.666,-0c0.092,-0 0.167,0.068 0.167,0.152Z" style="fill:#9b9b9b;fill-opacity:0.55;"/><path d="M37,13.152l0,0.696c0,0.084 -0.075,0.152 -0.167,0.152l-21.666,0c-0.092,0 -0.167,-0.068 -0.167,-0.152l0,-0.696c0,-0.084 0.075,-0.152 0.167,-0.152l21.666,-0c0.092,-0 0.167,0.068 0.167,0.152Z" style="fill:#9b9b9b;fill-opacity:0.55;"/><path d="M37,15.152l0,0.696c0,0.084 -0.075,0.152 -0.167,0.152l-21.666,0c-0.092,0 -0.167,-0.068 -0.167,-0.152l0,-0.696c0,-0.084 0.075,-0.152 0.167,-0.152l21.666,-0c0.092,-0 0.167,0.068 0.167,0.152Z" style="fill:#9b9b9b;fill-opacity:0.55;"/><path d="M37,17.152l0,0.696c0,0.084 -0.075,0.152 -0.167,0.152l-21.666,-0c-0.092,-0 -0.167,-0.068 -0.167,-0.152l0,-0.696c0,-0.084 0.075,-0.152 0.167,-0.152l21.666,0c0.092,0 0.167,0.068 0.167,0.152Z" style="fill:#9b9b9b;fill-opacity:0.55;"/><path d="M37,19.152l0,0.696c0,0.084 -0.075,0.152 -0.167,0.152l-21.666,-0c-0.092,-0 -0.167,-0.068 -0.167,-0.152l0,-0.696c0,-0.084 0.075,-0.152 0.167,-0.152l21.666,0c0.092,0 0.167,0.068 0.167,0.152Z" style="fill:#9b9b9b;fill-opacity:0.55;"/><path d="M37,21.152l0,0.696c0,0.084 -0.075,0.152 -0.167,0.152l-21.666,-0c-0.092,-0 -0.167,-0.068 -0.167,-0.152l0,-0.696c0,-0.084 0.075,-0.152 0.167,-0.152l21.666,0c0.092,0 0.167,0.068 0.167,0.152Z" style="fill:#9b9b9b;fill-opacity:0.55;"/><path d="M37,23.152l0,0.696c0,0.084 -0.075,0.152 -0.167,0.152l-21.666,-0c-0.092,-0 -0.167,-0.068 -0.167,-0.152l0,-0.696c0,-0.084 0.075,-0.152 0.167,-0.152l21.666,0c0.092,0 0.167,0.068 0.167,0.152Z" style="fill:#9b9b9b;fill-opacity:0.55;"/><path d="M24.9,25.068l-0,0.864c-0,0.037 -0.034,0.068 -0.075,0.068l-9.75,-0c-0.041,-0 -0.075,-0.031 -0.075,-0.068l-0,-0.864c-0,-0.037 0.034,-0.068 0.075,-0.068l9.75,0c0.041,0 0.075,0.031 0.075,0.068Z" style="fill:#9b9b9b;fill-opacity:0.55;"/><path d="M37,29.152l-0,0.696c-0,0.084 -0.075,0.152 -0.167,0.152l-21.666,-0c-0.092,-0 -0.167,-0.068 -0.167,-0.152l-0,-0.696c-0,-0.084 0.075,-0.152 0.167,-0.152l21.666,0c0.092,0 0.167,0.068 0.167,0.152Z" style="fill:#9b9b9b;fill-opacity:0.55;"/><path d="M37,31.152l-0,0.696c-0,0.084 -0.075,0.152 -0.167,0.152l-21.666,0c-0.092,0 -0.167,-0.068 -0.167,-0.152l-0,-0.696c-0,-0.084 0.075,-0.152 0.167,-0.152l21.666,0c0.092,0 0.167,0.068 0.167,0.152Z" style="fill:#9b9b9b;fill-opacity:0.55;"/><path d="M37,33.152l-0,0.696c-0,0.084 -0.075,0.152 -0.167,0.152l-21.666,0c-0.092,0 -0.167,-0.068 -0.167,-0.152l-0,-0.696c-0,-0.084 0.075,-0.152 0.167,-0.152l21.666,0c0.092,0 0.167,0.068 0.167,0.152Z" style="fill:#9b9b9b;fill-opacity:0.55;"/><path d="M37,35.152l-0,0.696c-0,0.084 -0.075,0.152 -0.167,0.152l-21.666,0c-0.092,0 -0.167,-0.068 -0.167,-0.152l-0,-0.696c-0,-0.084 0.075,-0.152 0.167,-0.152l21.666,0c0.092,0 0.167,0.068 0.167,0.152Z" style="fill:#9b9b9b;fill-opacity:0.55;"/><path d="M30.4,37.106l0,0.788c0,0.058 -0.052,0.106 -0.117,0.106l-15.166,0c-0.065,0 -0.117,-0.048 -0.117,-0.106l-0,-0.788c-0,-0.058 0.052,-0.106 0.117,-0.106l15.166,0c0.065,0 0.117,0.048 0.117,0.106Z" style="fill:#9b9b9b;fill-opacity:0.55;"/></g><g transform="matrix(0.75668,0,0,0.29358,12.1779,29.1285)"><path d="M43.125,40.438c0,3.737 -8.831,6.812 -19.563,6.812c-10.731,0 -19.562,-3.075 -19.562,-6.813c-0,-3.737 8.831,-6.812 19.562,-6.812c10.732,0 19.563,3.075 19.563,6.813Z" style="fill:url(#_Radial7);fill-rule:nonzero;"/></g><g transform="matrix(1.0337,-0.27698,0.27698,1.0337,16.0683,-14.5482)"><g transform="matrix(1,0,0,1,-29.7555,19)"><path d="M17.341,32.5l5.625,-5.625l20.094,-9.75c3.25,-1.25 5.187,3.375 2.312,5l-20.031,9.375l-8,1Z" style="fill:#cb9022;stroke:#5c410c;stroke-width:1px;"/></g><g transform="matrix(1,0,0,1,-29.7555,19)"><path d="M38.331,20c-0,0 1.437,0.094 2,1.344c0.579,1.288 -0,2.656 -0,2.656l5.031,-2.469c-0,0 1.452,-0.881 0.656,-2.843c-0.785,-1.936 -2.687,-1.157 -2.687,-1.157l-5,2.469Z" style="fill:url(#_Linear8);fill-rule:nonzero;"/></g><g transform="matrix(1,0,0,1,-29.7555,19)"><path d="M38.331,20c-0,0 1.437,0.094 2,1.344c0.579,1.288 -0,2.656 -0,2.656l2,-1c-0,0 0.827,-1.319 0.218,-2.688c-0.625,-1.406 -2.218,-1.312 -2.218,-1.312l-2,1Z" style="fill:url(#_Linear9);fill-rule:nonzero;"/></g><g transform="matrix(1,0,0,1,-29.7555,19)"><path d="M18.768,31.781l4.5,-4.5c1.5,0.813 2.281,2.156 1.875,3.719l-6.375,0.781Z" style="fill:url(#_Radial10);fill-rule:nonzero;"/></g><g transform="matrix(1,0,0,1,-29.7555,19)"><path d="M20.112,30.375l-1.625,1.594l2.344,-0.313c0.218,-0.719 -0.188,-1.062 -0.719,-1.281Z" style="fill:url(#_Linear11);fill-rule:nonzero;"/></g><path d="M-6.487,46.25l1.562,1.25l15.388,-7.319c-0.445,-0.856 -1.242,-1.084 -1.904,-1.162l-15.046,7.231Z" style="fill:#fff;fill-opacity:0.36;fill-rule:nonzero;"/><path d="M-4.612,50.063l0.187,-0.751l15.231,-7.129c0,-0 -0.11,0.614 -0.216,0.749l-15.202,7.13Z" style="fill-opacity:0.36;fill-rule:nonzero;"/></g><defs><radialGradient id="_Radial1" cx="0" cy="0" r="1" gradientUnits="userSpaceOnUse" gradientTransform="matrix(15.8215,0,0,4.50787,24.3068,42.0781)"><stop offset="0" style="stop-color:#000;stop-opacity:0.78"/><stop offset="1" style="stop-color:#000;stop-opacity:0"/></radialGradient><radialGradient id="_Radial2" cx="0" cy="0" r="1" gradientUnits="userSpaceOnUse" gradientTransform="matrix(83.2835,0,0,90.2748,32.625,37.2068)"><stop offset="0" style="stop-color:#fafafa;stop-opacity:1"/><stop offset="1" style="stop-color:#bbb;stop-opacity:1"/></radialGradient><radialGradient id="_Radial3" cx="0" cy="0" r="1" gradientUnits="userSpaceOnUse" gradientTransform="matrix(36.5539,0,0,38.9888,11.898,4.52566)"><stop offset="0" style="stop-color:#a3a3a3;stop-opacity:1"/><stop offset="1" style="stop-color:#4c4c4c;stop-opacity:1"/></radialGradient><radialGradient id="_Radial4" cx="0" cy="0" r="1" gradientUnits="userSpaceOnUse" gradientTransform="matrix(36.9479,0,0,39.4092,11.2387,8.15251)"><stop offset="0" style="stop-color:#fff;stop-opacity:1"/><stop offset="1" style="stop-color:#f8f8f8;stop-opacity:1"/></radialGradient><radialGradient id="_Radial5" cx="0" cy="0" r="1" gradientUnits="userSpaceOnUse" gradientTransform="matrix(1.2073,0,0,1.2073,9.41244,30.2962)"><stop offset="0" style="stop-color:#f0f0f0;stop-opacity:1"/><stop offset="1" style="stop-color:#9a9a9a;stop-opacity:1"/></radialGradient><radialGradient id="_Radial6" cx="0" cy="0" r="1" gradientUnits="userSpaceOnUse" gradientTransform="matrix(1.20753,0,0,1.20753,9.41244,18.8111)"><stop offset="0" style="stop-color:#f0f0f0;stop-opacity:1"/><stop offset="1" style="stop-color:#9a9a9a;stop-opacity:1"/></radialGradient><radialGradient id="_Radial7" cx="0" cy="0" r="1" gradientUnits="userSpaceOnUse" gradientTransform="matrix(19.5625,0,0,6.81245,20.5254,40.4374)"><stop offset="0" style="stop-color:#000;stop-opacity:0.2"/><stop offset="1" style="stop-color:#000;stop-opacity:0"/></radialGradient><linearGradient id="_Linear8" x1="0" y1="0" x2="1" y2="0" gradientUnits="userSpaceOnUse" gradientTransform="matrix(2.08208,4.87441,-4.87441,2.08208,43.237,17.3762)"><stop offset="0" style="stop-color:#ffd1d1;stop-opacity:1"/><stop offset="0.5" style="stop-color:#ff1d1d;stop-opacity:1"/><stop offset="1" style="stop-color:#6f0000;stop-opacity:1"/></linearGradient><linearGradient id="_Linear9" x1="0" y1="0" x2="1" y2="0" gradientUnits="userSpaceOnUse" gradientTransform="matrix(1.6875,2.8125,-2.8125,1.6875,40.3307,19.8125)"><stop offset="0" style="stop-color:#c1c1c1;stop-opacity:1"/><stop offset="1" style="stop-color:#acacac;stop-opacity:1"/></linearGradient><radialGradient id="_Radial10" cx="0" cy="0" r="1" gradientUnits="userSpaceOnUse" gradientTransform="matrix(9.47483,0,0,6.57803,23.3839,28.2188)"><stop offset="0" style="stop-color:#e7e2b8;stop-opacity:1"/><stop offset="1" style="stop-color:#e7e2b8;stop-opacity:0"/></radialGradient><linearGradient id="_Linear11" x1="0" y1="0" x2="1" y2="0" gradientUnits="userSpaceOnUse" gradientTransform="matrix(-0.204161,-0.34375,0.34375,-0.204161,19.8932,31.1719)"><stop offset="0" style="stop-color:#000;stop-opacity:1"/><stop offset="1" style="stop-color:#c9c9c9;stop-opacity:1"/></linearGradient></defs></svg>