<?xml version="1.0" encoding="UTF-8" standalone="no"?>
<!DOCTYPE svg PUBLIC "-//W3C//DTD SVG 1.1//EN" "http://www.w3.org/Graphics/SVG/1.1/DTD/svg11.dtd">
<svg width="30px" height="30px" version="1.1" xmlns="http://www.w3.org/2000/svg" xmlns:xlink="http://www.w3.org/1999/xlink" xml:space="preserve" xmlns:serif="http://www.serif.com/" style="fill-rule:evenodd;clip-rule:evenodd;">
    <g>
        <path d="M4.865,1.783L4.865,28.935" style="fill:none;fill-rule:nonzero;stroke:black;stroke-opacity:0.02;stroke-width:0.72px;"/>
        <g>
            <path d="M26.35,1.175L26.35,28.902C26.35,29.355 25.982,29.722 25.529,29.722L2.099,29.722C1.647,29.722 1.28,29.355 1.28,28.902L1.28,1.175C1.28,0.722 1.647,0.354 2.099,0.354L25.529,0.354C25.982,0.354 26.35,0.722 26.35,1.175Z" style="fill:url(#_Radial1);stroke:url(#_Radial2);stroke-width:0.72px;stroke-linecap:round;stroke-linejoin:round;"/>
        </g>
        <g>
            <path d="M25.604,1.134L25.604,28.872C25.604,28.931 25.557,28.978 25.498,28.978L2.15,28.978C2.091,28.978 2.043,28.931 2.043,28.872L2.043,1.134C2.043,1.075 2.091,1.028 2.15,1.028L25.498,1.028C25.557,1.028 25.604,1.075 25.604,1.134Z" style="fill:none;stroke:url(#_Radial3);stroke-width:0.72px;stroke-linecap:round;stroke-linejoin:round;"/>
        </g>
        <g>
            <path d="M4.499,19.464C4.499,19.789 4.236,20.052 3.912,20.052C3.586,20.052 3.323,19.789 3.323,19.464C3.323,19.14 3.587,18.876 3.912,18.876C4.236,18.876 4.499,19.14 4.499,19.464ZM4.499,11.238C4.499,11.562 4.236,11.826 3.912,11.826C3.586,11.826 3.323,11.562 3.323,11.238C3.323,10.913 3.587,10.65 3.912,10.65C4.236,10.65 4.499,10.913 4.499,11.238Z" style="fill:white;fill-rule:nonzero;"/>
            <path d="M4.246,19.275C4.246,19.6 3.982,19.863 3.658,19.863C3.334,19.863 3.071,19.599 3.071,19.275C3.071,18.95 3.334,18.687 3.658,18.687C3.982,18.687 4.246,18.95 4.246,19.275Z" style="fill:url(#_Radial4);fill-rule:nonzero;"/>
            <path d="M4.246,11.048C4.246,11.373 3.982,11.636 3.658,11.636C3.334,11.636 3.071,11.373 3.071,11.048C3.071,10.724 3.334,10.46 3.658,10.46C3.982,10.46 4.246,10.724 4.246,11.048Z" style="fill:url(#_Radial5);fill-rule:nonzero;"/>
        </g>
        <path d="M5.577,1.444L5.577,28.675" style="fill:none;fill-rule:nonzero;stroke:white;stroke-opacity:0.2;stroke-width:0.72px;"/>
        <g>
            <path d="M22.41,4.403L22.41,4.902C22.41,4.962 22.361,5.011 22.301,5.011L8.193,5.011C8.133,5.011 8.084,4.962 8.084,4.902L8.084,4.403C8.084,4.343 8.133,4.294 8.193,4.294L22.301,4.294C22.361,4.294 22.41,4.343 22.41,4.403Z" style="fill:rgb(155,155,155);fill-opacity:0.55;"/>
            <path d="M22.41,5.836L22.41,6.334C22.41,6.394 22.361,6.443 22.301,6.443L8.193,6.443C8.133,6.443 8.084,6.394 8.084,6.334L8.084,5.836C8.084,5.776 8.133,5.727 8.193,5.727L22.301,5.727C22.361,5.727 22.41,5.776 22.41,5.836Z" style="fill:rgb(155,155,155);fill-opacity:0.55;"/>
            <path d="M22.41,7.268L22.41,7.767C22.41,7.827 22.361,7.876 22.301,7.876L8.193,7.876C8.133,7.876 8.084,7.827 8.084,7.767L8.084,7.268C8.084,7.208 8.133,7.159 8.193,7.159L22.301,7.159C22.361,7.159 22.41,7.208 22.41,7.268Z" style="fill:rgb(155,155,155);fill-opacity:0.55;"/>
            <path d="M22.41,8.701L22.41,9.199C22.41,9.26 22.361,9.308 22.301,9.308L8.193,9.308C8.133,9.308 8.084,9.26 8.084,9.199L8.084,8.701C8.084,8.641 8.133,8.592 8.193,8.592L22.301,8.592C22.361,8.592 22.41,8.641 22.41,8.701Z" style="fill:rgb(155,155,155);fill-opacity:0.55;"/>
            <path d="M22.41,10.133L22.41,10.632C22.41,10.692 22.361,10.741 22.301,10.741L8.193,10.741C8.133,10.741 8.084,10.692 8.084,10.632L8.084,10.133C8.084,10.073 8.133,10.025 8.193,10.025L22.301,10.025C22.361,10.025 22.41,10.073 22.41,10.133Z" style="fill:rgb(155,155,155);fill-opacity:0.55;"/>
            <path d="M22.41,11.566L22.41,12.064C22.41,12.125 22.361,12.173 22.301,12.173L8.193,12.173C8.133,12.173 8.084,12.125 8.084,12.064L8.084,11.566C8.084,11.506 8.133,11.457 8.193,11.457L22.301,11.457C22.361,11.457 22.41,11.506 22.41,11.566Z" style="fill:rgb(155,155,155);fill-opacity:0.55;"/>
            <path d="M22.41,12.999L22.41,13.497C22.41,13.557 22.361,13.606 22.301,13.606L8.193,13.606C8.133,13.606 8.084,13.557 8.084,13.497L8.084,12.999C8.084,12.938 8.133,12.89 8.193,12.89L22.301,12.89C22.361,12.89 22.41,12.938 22.41,12.999Z" style="fill:rgb(155,155,155);fill-opacity:0.55;"/>
            <path d="M22.41,14.431L22.41,14.93C22.41,14.99 22.361,15.038 22.301,15.038L8.193,15.038C8.133,15.038 8.084,14.99 8.084,14.93L8.084,14.431C8.084,14.371 8.133,14.322 8.193,14.322L22.301,14.322C22.361,14.322 22.41,14.371 22.41,14.431Z" style="fill:rgb(155,155,155);fill-opacity:0.55;"/>
            <path d="M14.531,15.803L14.531,16.422C14.531,16.449 14.509,16.471 14.482,16.471L8.133,16.471C8.107,16.471 8.084,16.449 8.084,16.422L8.084,15.803C8.084,15.777 8.107,15.755 8.133,15.755L14.482,15.755C14.509,15.755 14.531,15.777 14.531,15.803Z" style="fill:rgb(155,155,155);fill-opacity:0.55;"/>
            <path d="M22.41,18.729L22.41,19.227C22.41,19.287 22.361,19.336 22.301,19.336L8.193,19.336C8.133,19.336 8.084,19.287 8.084,19.227L8.084,18.729C8.084,18.669 8.133,18.62 8.193,18.62L22.301,18.62C22.361,18.62 22.41,18.669 22.41,18.729Z" style="fill:rgb(155,155,155);fill-opacity:0.55;"/>
            <path d="M22.41,20.161L22.41,20.66C22.41,20.72 22.361,20.769 22.301,20.769L8.193,20.769C8.133,20.769 8.084,20.72 8.084,20.66L8.084,20.161C8.084,20.101 8.133,20.052 8.193,20.052L22.301,20.052C22.361,20.052 22.41,20.101 22.41,20.161Z" style="fill:rgb(155,155,155);fill-opacity:0.55;"/>
            <path d="M22.41,21.594L22.41,22.092C22.41,22.153 22.361,22.201 22.301,22.201L8.193,22.201C8.133,22.201 8.084,22.153 8.084,22.092L8.084,21.594C8.084,21.534 8.133,21.485 8.193,21.485L22.301,21.485C22.361,21.485 22.41,21.534 22.41,21.594Z" style="fill:rgb(155,155,155);fill-opacity:0.55;"/>
            <path d="M22.41,23.026L22.41,23.525C22.41,23.585 22.361,23.634 22.301,23.634L8.193,23.634C8.133,23.634 8.084,23.585 8.084,23.525L8.084,23.026C8.084,22.966 8.133,22.918 8.193,22.918L22.301,22.918C22.361,22.918 22.41,22.966 22.41,23.026Z" style="fill:rgb(155,155,155);fill-opacity:0.55;"/>
            <path d="M18.112,24.426L18.112,24.99C18.112,25.032 18.079,25.066 18.036,25.066L8.161,25.066C8.118,25.066 8.084,25.032 8.084,24.99L8.084,24.426C8.084,24.384 8.118,24.35 8.161,24.35L18.036,24.35C18.079,24.35 18.112,24.384 18.112,24.426Z" style="fill:rgb(155,155,155);fill-opacity:0.55;"/>
        </g>
        <g>
            <path d="M28.72,27.215C28.72,28.001 23.934,28.648 18.117,28.648C12.301,28.648 7.515,28.001 7.515,27.215C7.515,26.429 12.301,25.783 18.117,25.783C23.934,25.783 28.72,26.429 28.72,27.215Z" style="fill:url(#_Radial6);fill-rule:nonzero;"/>
        </g>
        <g>
            <g>
                <path d="M9.159,28.022L12.208,22.741L25.151,11.535C27.309,9.965 29.661,13.005 27.855,14.779L14.884,25.694L9.159,28.022Z" style="fill:rgb(203,144,34);stroke:rgb(92,65,12);stroke-width:0.77px;"/>
            </g>
            <g>
                <path d="M22.22,14.602C22.22,14.602 23.303,14.387 23.968,15.2C24.652,16.039 24.494,17.167 24.494,17.167L27.73,14.341C27.73,14.341 28.63,13.4 27.651,12.106C26.686,10.828 25.432,11.782 25.432,11.782L22.22,14.602Z" style="fill:url(#_Linear7);fill-rule:nonzero;"/>
            </g>
            <g>
                <path d="M22.22,14.602C22.22,14.602 23.303,14.387 23.968,15.2C24.652,16.039 24.494,17.167 24.494,17.167L25.777,16.03C25.777,16.03 26.128,14.889 25.405,13.996C24.663,13.079 23.502,13.465 23.502,13.465L22.22,14.602Z" style="fill:url(#_Linear8);fill-rule:nonzero;"/>
            </g>
            <g>
                <path d="M10.073,27.206L12.512,22.982C13.784,23.286 14.628,24.125 14.638,25.363L10.073,27.206Z" style="fill:url(#_Radial9);fill-rule:nonzero;"/>
            </g>
            <g>
                <path d="M10.789,25.899L9.902,27.401L11.575,26.704C11.594,26.129 11.225,25.955 10.789,25.899Z" style="fill:url(#_Linear10);fill-rule:nonzero;"/>
            </g>
            <path d="M12.506,22.959L13.91,23.574L23.852,15.102C23.353,14.557 22.717,14.546 22.212,14.62L12.506,22.959Z" style="fill:white;fill-opacity:0.36;fill-rule:nonzero;"/>
            <path d="M14.651,25.41L14.64,24.817L24.503,16.516C24.503,16.516 24.543,16.993 24.492,17.114L14.65,25.409L14.651,25.41Z" style="fill-opacity:0.36;fill-rule:nonzero;"/>
        </g>
    </g>
    <rect id="outer" x="0" y="0" width="30" height="30" style="fill:none;"/>
    <defs>
        <radialGradient id="_Radial1" cx="0" cy="0" r="1" gradientUnits="userSpaceOnUse" gradientTransform="matrix(59.8678,0,0,64.7874,19.9849,24.44)"><stop offset="0" style="stop-color:rgb(250,250,250);stop-opacity:1"/><stop offset="1" style="stop-color:rgb(187,187,187);stop-opacity:1"/></radialGradient>
        <radialGradient id="_Radial2" cx="0" cy="0" r="1" gradientUnits="userSpaceOnUse" gradientTransform="matrix(26.2765,0,0,27.981,5.08549,0.985742)"><stop offset="0" style="stop-color:rgb(163,163,163);stop-opacity:1"/><stop offset="1" style="stop-color:rgb(76,76,76);stop-opacity:1"/></radialGradient>
        <radialGradient id="_Radial3" cx="0" cy="0" r="1" gradientUnits="userSpaceOnUse" gradientTransform="matrix(26.5597,0,0,28.2827,4.61155,3.58862)"><stop offset="0" style="stop-color:white;stop-opacity:1"/><stop offset="1" style="stop-color:rgb(248,248,248);stop-opacity:1"/></radialGradient>
        <radialGradient id="_Radial4" cx="0" cy="0" r="1" gradientUnits="userSpaceOnUse" gradientTransform="matrix(0.864763,0,0,0.864763,3.82878,19.5211)"><stop offset="0" style="stop-color:rgb(240,240,240);stop-opacity:1"/><stop offset="1" style="stop-color:rgb(154,154,154);stop-opacity:1"/></radialGradient>
        <radialGradient id="_Radial5" cx="0" cy="0" r="1" gradientUnits="userSpaceOnUse" gradientTransform="matrix(0.864928,0,0,0.864928,3.82878,11.2946)"><stop offset="0" style="stop-color:rgb(240,240,240);stop-opacity:1"/><stop offset="1" style="stop-color:rgb(154,154,154);stop-opacity:1"/></radialGradient>
        <radialGradient id="_Radial6" cx="0" cy="0" r="1" gradientUnits="userSpaceOnUse" gradientTransform="matrix(10.6028,0,0,1.43256,16.4712,27.2153)"><stop offset="0" style="stop-color:black;stop-opacity:0.2"/><stop offset="1" style="stop-color:black;stop-opacity:0"/></radialGradient>
        <linearGradient id="_Linear7" x1="0" y1="0" x2="1" y2="0" gradientUnits="userSpaceOnUse" gradientTransform="matrix(2.50867,3.19602,-3.19602,2.50867,25.332,11.6861)"><stop offset="0" style="stop-color:rgb(255,209,209);stop-opacity:1"/><stop offset="0.5" style="stop-color:rgb(255,29,29);stop-opacity:1"/><stop offset="1" style="stop-color:rgb(111,0,0);stop-opacity:1"/></linearGradient>
        <linearGradient id="_Linear8" x1="0" y1="0" x2="1" y2="0" gradientUnits="userSpaceOnUse" gradientTransform="matrix(1.80744,1.74763,-1.74763,1.80744,23.6635,14.0666)"><stop offset="0" style="stop-color:rgb(193,193,193);stop-opacity:1"/><stop offset="1" style="stop-color:rgb(172,172,172);stop-opacity:1"/></linearGradient>
        <radialGradient id="_Radial9" cx="0" cy="0" r="1" gradientUnits="userSpaceOnUse" gradientTransform="matrix(7.01533,-1.87976,1.30505,4.87049,12.7835,23.6529)"><stop offset="0" style="stop-color:rgb(231,226,184);stop-opacity:1"/><stop offset="1" style="stop-color:rgb(231,226,184);stop-opacity:0"/></radialGradient>
        <linearGradient id="_Linear10" x1="0" y1="0" x2="1" y2="0" gradientUnits="userSpaceOnUse" gradientTransform="matrix(-0.219363,-0.214014,0.214014,-0.219363,10.7848,26.532)"><stop offset="0" style="stop-color:black;stop-opacity:1"/><stop offset="1" style="stop-color:rgb(201,201,201);stop-opacity:1"/></linearGradient>
    </defs>
</svg>
