<?xml version="1.0" encoding="UTF-8" standalone="no"?>
<!DOCTYPE svg PUBLIC "-//W3C//DTD SVG 1.1//EN" "http://www.w3.org/Graphics/SVG/1.1/DTD/svg11.dtd">
<svg width="30px" height="30px" version="1.1" xmlns="http://www.w3.org/2000/svg" xmlns:xlink="http://www.w3.org/1999/xlink" xml:space="preserve" xmlns:serif="http://www.serif.com/" style="fill-rule:evenodd;clip-rule:evenodd;stroke-linecap:round;stroke-linejoin:round;">
    <g id="clock">
        <path d="M14.916,-0.177C6.66,-0.233 -0.121,6.45 -0.178,14.709C-0.234,22.967 6.454,29.749 14.711,29.806C22.967,29.862 29.748,23.172 29.805,14.913C29.861,6.655 23.173,-0.12 14.916,-0.177Z" style="fill:url(#_Radial1);fill-rule:nonzero;"/>
        <path d="M15.07,6.361L14.408,13.858C14.052,14.005 13.794,14.357 13.784,14.763C13.774,15.169 14.014,15.514 14.362,15.651L14.307,17.94L15.016,17.93L15.071,15.641C15.427,15.494 15.684,15.142 15.693,14.736C15.703,14.329 15.463,13.985 15.113,13.848L15.07,6.361Z" style="fill:rgb(80,80,80);fill-rule:nonzero;"/>
        <path d="M14.896,27.057C14.896,27.057 14.898,27.057 14.899,27.057C21.615,27.011 27.104,21.447 27.058,14.731C27.012,8.014 21.448,2.526 14.732,2.572C14.731,2.572 14.729,2.572 14.728,2.572C8.012,2.618 2.523,8.182 2.569,14.899C2.615,21.615 8.179,27.103 14.896,27.057Z" style="fill:url(#_Linear2);fill-rule:nonzero;"/>
        <path d="M26.806,14.895C26.806,14.895 26.806,14.898 26.806,14.898C26.761,21.477 21.31,26.854 14.731,26.809C8.152,26.764 2.775,21.313 2.821,14.734C2.821,14.734 2.821,14.732 2.821,14.731C2.866,8.152 8.317,2.775 14.896,2.82C21.475,2.865 26.852,8.316 26.806,14.895Z" style="fill:url(#_Linear3);fill-rule:nonzero;"/>
        <path d="M15.071,6.731L14.409,14.228C14.053,14.375 13.795,14.727 13.785,15.133C13.775,15.538 14.016,15.883 14.364,16.021L14.308,18.31L15.017,18.299L15.073,16.011C15.428,15.864 15.685,15.512 15.695,15.106C15.705,14.699 15.464,14.355 15.114,14.218L15.071,6.731Z" style="fill:rgb(80,80,80);fill-opacity:0.14;fill-rule:nonzero;"/>
        <path d="M4.342,11.479L13.818,15.204C13.846,15.588 14.101,15.943 14.484,16.078C14.866,16.213 15.269,16.092 15.507,15.803L17.665,16.566L17.876,15.889L15.718,15.126C15.688,14.742 15.434,14.389 15.051,14.254C14.667,14.118 14.265,14.24 14.027,14.531L4.342,11.479Z" style="fill-opacity:0.09;fill-rule:nonzero;"/>
        <path d="M16.281,14.825C16.281,14.852 16.28,14.878 16.278,14.905C16.228,15.709 15.526,16.329 14.723,16.28C13.95,16.232 13.341,15.579 13.346,14.805C13.346,14.778 13.347,14.751 13.349,14.724C13.399,13.92 14.101,13.3 14.904,13.349C15.678,13.397 16.286,14.05 16.281,14.825Z" style="fill-rule:nonzero;"/>
        <path d="M15.13,6.87L14.437,13.669C14.064,13.823 13.794,14.191 13.784,14.616C13.773,15.04 14.025,15.401 14.389,15.545L14.331,17.94L15.073,17.929L15.131,15.534C15.503,15.38 15.772,15.012 15.782,14.587C15.792,14.162 15.54,13.801 15.174,13.659L15.13,6.87Z" style="fill:rgb(80,80,80);fill-rule:nonzero;"/>
        <path d="M4.341,11.109L13.817,14.834C13.845,15.218 14.1,15.573 14.483,15.708C14.865,15.843 15.268,15.722 15.506,15.433L17.664,16.197L17.875,15.519L15.717,14.756C15.687,14.372 15.432,14.019 15.05,13.884C14.666,13.748 14.264,13.87 14.026,14.161L4.341,11.109Z" style="fill:rgb(85,87,83);fill-rule:nonzero;"/>
        <path d="M14.666,3.821L14.889,3.822L14.876,5.697L14.653,5.695L14.666,3.821ZM9.189,5.368L9.383,5.257L10.309,6.887L10.115,6.998L9.189,5.368ZM24.408,20.183L24.295,20.376L22.678,19.427L22.791,19.235L24.408,20.183ZM5.219,9.446L5.332,9.253L6.949,10.202L6.836,10.395L5.219,9.446ZM20.439,24.261L20.244,24.372L19.318,22.742L19.512,22.631L20.439,24.261ZM5.367,20.44L5.256,20.246L6.886,19.319L6.997,19.514L5.367,20.44ZM24.26,9.189L24.371,9.383L22.741,10.31L22.63,10.116L24.26,9.189ZM9.445,24.41L9.252,24.297L10.201,22.679L10.393,22.792L9.445,24.41ZM20.182,5.22L20.375,5.333L19.427,6.95L19.234,6.837L20.182,5.22ZM14.962,25.808L14.738,25.807L14.751,23.932L14.974,23.934L14.962,25.808ZM25.807,14.666L25.806,14.89L23.931,14.877L23.933,14.653L25.807,14.666ZM3.82,14.963L3.821,14.739L5.696,14.752L5.695,14.976L3.82,14.963Z" style="fill-opacity:0.7;fill-rule:nonzero;"/>
        <path d="M1.08,14.867C2.06,6.788 8.282,2.625 14.27,1.471C7.537,1.803 1.24,7.379 1.08,14.867Z" style="fill:white;"/>
        <path d="M6.068,10.357C6.068,10.358 6.068,10.359 6.068,10.359C6.102,13.649 10.191,16.337 15.125,16.315C20.059,16.292 24.092,13.567 24.058,10.277C24.058,10.277 24.058,10.276 24.058,10.275C24.024,6.986 19.936,4.297 15.002,4.32C10.067,4.342 6.035,7.068 6.068,10.357Z" style="fill:url(#_Linear4);fill-rule:nonzero;"/>
        <path d="M5.457,20.58L14.245,15.44C14.565,15.655 15.001,15.675 15.345,15.458C15.687,15.241 15.841,14.85 15.762,14.484L17.697,13.261L17.295,12.676L15.36,13.899C15.04,13.685 14.605,13.667 14.262,13.884C13.918,14.101 13.765,14.493 13.846,14.859L5.457,20.58Z" style="fill:rgb(160,0,0);fill-rule:nonzero;"/>
        <clipPath id="_clip5">
            <path d="M14.916,-0.177C6.66,-0.233 -0.121,6.45 -0.178,14.709C-0.234,22.967 6.455,29.749 14.711,29.806C22.967,29.862 29.748,23.172 29.805,14.914C29.861,6.655 23.173,-0.12 14.916,-0.177Z"/>
        </clipPath>
        <g clip-path="url(#_clip5)">
            <path d="M14.916,-0.177C6.66,-0.233 -0.121,6.45 -0.178,14.709C-0.234,22.967 6.455,29.749 14.711,29.806C22.967,29.862 29.748,23.172 29.805,14.914C29.861,6.655 23.173,-0.12 14.916,-0.177Z" style="fill:none;fill-rule:nonzero;stroke:url(#_Linear6);stroke-width:1px;"/>
        </g>
    </g>
    <g>
        <g>
            <path d="M14.003,6.909C9.827,6.909 6.436,10.3 6.436,14.476C6.436,18.653 9.827,22.039 14.003,22.039C15.789,22.039 17.364,21.33 18.672,20.294C18.569,20.807 18.631,21.341 19.062,21.71L24.685,26.599C25.316,27.149 26.27,27.077 26.819,26.446C27.368,25.809 27.296,24.86 26.665,24.312L21.037,19.422C20.693,19.124 20.272,19.033 19.857,19.093C20.873,17.801 21.581,16.246 21.581,14.476C21.581,10.3 18.195,6.909 14.018,6.909L14.003,6.909ZM13.962,7.54C17.882,7.54 20.781,9.997 20.781,14.358C20.781,18.812 17.8,21.177 13.962,21.177C10.217,21.177 7.144,18.37 7.144,14.358C7.144,10.264 10.13,7.54 13.962,7.54Z" style="fill:rgb(220,220,220);fill-rule:nonzero;stroke:url(#_Linear7);stroke-width:1.03px;stroke-linejoin:miter;"/>
            <path d="M13.988,6.878C9.801,6.878 6.4,10.28 6.4,14.466C6.4,18.658 9.801,22.059 13.988,22.059C15.779,22.059 17.364,21.346 18.662,20.304C18.554,20.818 18.621,21.351 19.046,21.726L24.69,26.63C25.326,27.179 26.281,27.108 26.834,26.477C27.384,25.84 27.312,24.886 26.675,24.332L21.032,19.427C20.688,19.129 20.267,19.043 19.847,19.099C20.868,17.806 21.581,16.241 21.581,14.482C21.581,10.295 18.179,6.894 13.988,6.894M13.952,8.53C17.174,8.53 19.791,11.142 19.791,14.369C19.791,17.591 17.174,20.202 13.952,20.202C10.73,20.202 8.114,17.591 8.114,14.369C8.114,11.142 10.73,8.53 13.952,8.53" style="fill:rgb(220,220,220);fill-rule:nonzero;"/>
        </g>
        <path d="M24.716,26.63C24.469,25.46 25.428,24.163 26.552,24.173L21.032,19.422C19.524,19.391 18.841,20.587 19.092,21.782L24.716,26.63" style="fill:url(#_Linear8);fill-rule:nonzero;"/>
        <circle cx="13.875" cy="14.225" r="7.064" style="fill:none;stroke:url(#_Linear9);stroke-width:0.51px;stroke-linecap:butt;stroke-linejoin:miter;"/>
        <circle cx="13.875" cy="14.302" r="5.961" style="fill:url(#_Radial10);stroke:rgb(48,99,163);stroke-width:0.51px;stroke-linecap:butt;stroke-linejoin:miter;"/>
        <path d="M13.782,9.095C11.11,9.095 8.945,11.255 8.945,13.927C8.945,14.702 9.16,15.41 9.483,16.056C10.125,16.292 10.807,16.457 11.531,16.457C14.701,16.457 17.225,13.963 17.42,10.844C16.533,9.792 15.26,9.095 13.782,9.095" style="fill:url(#_Radial11);fill-rule:nonzero;"/>
        <path d="M26.642,26.31C26.183,26.848 25.377,26.907 24.845,26.442L19.436,21.715C18.902,21.25 18.843,20.434 19.302,19.895C19.762,19.357 20.567,19.297 21.1,19.763L26.509,24.489C27.042,24.955 27.102,25.771 26.642,26.31Z" style="fill:none;stroke:white;stroke-opacity:0.43;stroke-width:0.51px;stroke-linecap:butt;stroke-linejoin:miter;"/>
    </g>
    <rect id="outer" x="0" y="0" width="30" height="30" style="fill:none;"/>
    <defs>
        <radialGradient id="_Radial1" cx="0" cy="0" r="1" gradientUnits="userSpaceOnUse" gradientTransform="matrix(10.5912,-10.5937,10.5909,10.5933,14.8135,14.8127)"><stop offset="0" style="stop-color:rgb(0,67,138);stop-opacity:1"/><stop offset="0.7" style="stop-color:rgb(0,67,138);stop-opacity:1"/><stop offset="0.88" style="stop-color:rgb(204,246,255);stop-opacity:1"/><stop offset="1" style="stop-color:rgb(44,114,199);stop-opacity:1"/></radialGradient>
        <linearGradient id="_Linear2" x1="0" y1="0" x2="1" y2="2.93633e-05" gradientUnits="userSpaceOnUse" gradientTransform="matrix(0.16717,24.4856,24.4856,-0.167889,14.73,2.57179)"><stop offset="0" style="stop-color:rgb(0,67,138);stop-opacity:1"/><stop offset="1" style="stop-color:rgb(0,67,138);stop-opacity:0"/></linearGradient>
        <linearGradient id="_Linear3" x1="0" y1="0" x2="1" y2="-1.02621e-05" gradientUnits="userSpaceOnUse" gradientTransform="matrix(14.4917,20.8561,-20.8565,14.4923,7.32286,4.29933)"><stop offset="0" style="stop-color:white;stop-opacity:1"/><stop offset="0.51" style="stop-color:rgb(233,229,233);stop-opacity:1"/><stop offset="1" style="stop-color:white;stop-opacity:1"/></linearGradient>
        <linearGradient id="_Linear4" x1="0" y1="0" x2="1" y2="0.00292" gradientUnits="userSpaceOnUse" gradientTransform="matrix(-0.0884263,11.1818,16.7726,0.0591743,13.6341,4.3205)"><stop offset="0" style="stop-color:white;stop-opacity:0.5"/><stop offset="1" style="stop-color:white;stop-opacity:0"/></linearGradient>
        <linearGradient id="_Linear6" x1="0" y1="0" x2="1" y2="0.00615217" gradientUnits="userSpaceOnUse" gradientTransform="matrix(-4.40047,-25.587,25.5527,-4.23325,29.8053,29.8062)"><stop offset="0" style="stop-color:rgb(0,49,110);stop-opacity:1"/><stop offset="1" style="stop-color:rgb(0,49,110);stop-opacity:0"/></linearGradient>
        <linearGradient id="_Linear7" x1="0" y1="0" x2="1" y2="0" gradientUnits="userSpaceOnUse" gradientTransform="matrix(2.20095,3.71956,-3.71956,2.20095,18.3026,17.2776)"><stop offset="0" style="stop-color:rgb(138,138,138);stop-opacity:1"/><stop offset="1" style="stop-color:rgb(72,72,72);stop-opacity:1"/></linearGradient>
        <linearGradient id="_Linear8" x1="0" y1="0" x2="1" y2="0" gradientUnits="userSpaceOnUse" gradientTransform="matrix(1.78077,-1.94728,1.94728,1.78077,21.6263,23.7939)"><stop offset="0" style="stop-color:rgb(125,125,125);stop-opacity:1"/><stop offset="0.5" style="stop-color:rgb(177,177,177);stop-opacity:1"/><stop offset="1" style="stop-color:rgb(104,104,104);stop-opacity:1"/></linearGradient>
        <linearGradient id="_Linear9" x1="0" y1="0" x2="1" y2="0" gradientUnits="userSpaceOnUse" gradientTransform="matrix(-0.502783,7.76236,-7.76236,-0.502783,14.0956,10.803)"><stop offset="0" style="stop-color:white;stop-opacity:1"/><stop offset="0.5" style="stop-color:white;stop-opacity:0.22"/><stop offset="1" style="stop-color:white;stop-opacity:1"/></linearGradient>
        <radialGradient id="_Radial10" cx="0" cy="0" r="1" gradientUnits="userSpaceOnUse" gradientTransform="matrix(5.96448,0,0,-5.96448,14.3427,16.6781)"><stop offset="0" style="stop-color:rgb(114,159,207);stop-opacity:0.21"/><stop offset="1" style="stop-color:rgb(114,159,207);stop-opacity:0.68"/></radialGradient>
        <radialGradient id="_Radial11" cx="0" cy="0" r="1" gradientUnits="userSpaceOnUse" gradientTransform="matrix(8.85994,0,0,-7.69482,12.1397,10.7194)"><stop offset="0" style="stop-color:white;stop-opacity:0.83"/><stop offset="1" style="stop-color:white;stop-opacity:0.21"/></radialGradient>
    </defs>
</svg>
