<?xml version="1.0" encoding="UTF-8" standalone="no"?>
<!DOCTYPE svg PUBLIC "-//W3C//DTD SVG 1.1//EN" "http://www.w3.org/Graphics/SVG/1.1/DTD/svg11.dtd">
<svg width="30px" height="30px" version="1.1" xmlns="http://www.w3.org/2000/svg" xmlns:xlink="http://www.w3.org/1999/xlink" xml:space="preserve" xmlns:serif="http://www.serif.com/" style="fill-rule:evenodd;clip-rule:evenodd;stroke-linejoin:round;">
    <g id="button">
        <rect x="1" y="8.437" width="28" height="13.125" style="fill:none;stroke:rgb(136,136,136);stroke-width:1.94px;"/>
        <rect x="1" y="8.437" width="28" height="13.125" style="fill:rgb(221,221,221);"/>
        <rect x="2" y="9.374" width="26.001" height="11.25" style="fill:rgb(146,221,255);"/>
    </g>
    <path d="M8.5,12.474L7.212,12.474L7.212,17L6.192,17L6.192,12.474L4.91,12.474L4.91,11.458L8.5,11.458L8.5,12.474Z" style="fill-rule:nonzero;"/>
    <path d="M9.968,17.097C9.43,17.097 9.008,16.912 8.7,16.542C8.393,16.172 8.239,15.671 8.239,15.037C8.239,14.382 8.399,13.87 8.718,13.5C9.037,13.131 9.468,12.946 10.012,12.946C10.547,12.946 10.967,13.131 11.272,13.5C11.576,13.87 11.728,14.359 11.728,14.967C11.728,15.624 11.571,16.143 11.257,16.525C10.943,16.906 10.514,17.097 9.968,17.097ZM9.993,13.881C9.758,13.881 9.575,13.98 9.445,14.179C9.315,14.377 9.25,14.658 9.25,15.021C9.25,15.781 9.5,16.161 9.999,16.161C10.476,16.161 10.714,15.771 10.714,14.99C10.714,14.251 10.474,13.881 9.993,13.881Z" style="fill-rule:nonzero;"/>
    <path d="M15.535,16.548C15.535,17.282 15.362,17.851 15.016,18.254C14.669,18.658 14.168,18.859 13.51,18.859C13.076,18.859 12.732,18.783 12.478,18.631L12.478,17.603C12.809,17.84 13.144,17.959 13.482,17.959C13.818,17.959 14.078,17.85 14.263,17.632C14.448,17.414 14.54,17.119 14.54,16.745L14.54,16.432L14.528,16.432C14.301,16.875 13.966,17.097 13.523,17.097C13.112,17.097 12.785,16.919 12.544,16.563C12.302,16.208 12.182,15.731 12.182,15.133C12.182,14.463 12.316,13.931 12.585,13.537C12.853,13.143 13.207,12.946 13.646,12.946C14.038,12.946 14.332,13.131 14.528,13.502L14.54,13.502L14.54,13.042L15.535,13.042L15.535,16.548ZM14.553,15.099L14.553,14.785C14.553,14.536 14.492,14.322 14.372,14.146C14.251,13.969 14.094,13.881 13.901,13.881C13.681,13.881 13.507,13.987 13.381,14.198C13.255,14.409 13.192,14.707 13.192,15.091C13.192,15.421 13.252,15.682 13.372,15.874C13.492,16.065 13.655,16.161 13.863,16.161C14.069,16.161 14.235,16.064 14.362,15.87C14.489,15.675 14.553,15.418 14.553,15.099Z" style="fill-rule:nonzero;"/>
    <path d="M19.528,16.548C19.528,17.282 19.355,17.851 19.009,18.254C18.662,18.658 18.161,18.859 17.504,18.859C17.069,18.859 16.725,18.783 16.471,18.631L16.471,17.603C16.802,17.84 17.137,17.959 17.475,17.959C17.811,17.959 18.071,17.85 18.256,17.632C18.441,17.414 18.533,17.119 18.533,16.745L18.533,16.432L18.521,16.432C18.294,16.875 17.959,17.097 17.516,17.097C17.105,17.097 16.778,16.919 16.537,16.563C16.295,16.208 16.175,15.731 16.175,15.133C16.175,14.463 16.309,13.931 16.578,13.537C16.846,13.143 17.2,12.946 17.639,12.946C18.031,12.946 18.325,13.131 18.521,13.502L18.533,13.502L18.533,13.042L19.528,13.042L19.528,16.548ZM18.546,15.099L18.546,14.785C18.546,14.536 18.485,14.322 18.365,14.146C18.244,13.969 18.087,13.881 17.894,13.881C17.674,13.881 17.5,13.987 17.374,14.198C17.248,14.409 17.185,14.707 17.185,15.091C17.185,15.421 17.245,15.682 17.365,15.874C17.485,16.065 17.648,16.161 17.856,16.161C18.062,16.161 18.228,16.064 18.355,15.87C18.482,15.675 18.546,15.418 18.546,15.099Z" style="fill-rule:nonzero;"/>
    <rect x="20.36" y="11.141" width="0.995" height="5.86"/>
    <path d="M25.09,15.369L22.986,15.369C23.02,15.944 23.315,16.231 23.871,16.231C24.226,16.231 24.537,16.128 24.806,15.922L24.806,16.803C24.508,16.999 24.121,17.097 23.644,17.097C23.124,17.097 22.719,16.92 22.432,16.565C22.144,16.211 22,15.717 22,15.083C22,14.426 22.156,13.906 22.466,13.522C22.777,13.138 23.159,12.946 23.613,12.946C24.083,12.946 24.447,13.117 24.704,13.46C24.961,13.802 25.09,14.268 25.09,14.855L25.09,15.369ZM24.167,14.619C24.167,14.052 23.98,13.769 23.606,13.769C23.447,13.769 23.309,13.85 23.192,14.012C23.076,14.175 23.005,14.377 22.98,14.619L24.167,14.619Z" style="fill-rule:nonzero;"/>
    <rect id="outer" x="0" y="0" width="30" height="30" style="fill:none;"/>
</svg>
