<?xml version="1.0" encoding="UTF-8" standalone="no"?>
<!DOCTYPE svg PUBLIC "-//W3C//DTD SVG 1.1//EN" "http://www.w3.org/Graphics/SVG/1.1/DTD/svg11.dtd">
<svg width="30px" height="30px" version="1.1" xmlns="http://www.w3.org/2000/svg" xmlns:xlink="http://www.w3.org/1999/xlink" xml:space="preserve" xmlns:serif="http://www.serif.com/" style="fill-rule:evenodd;clip-rule:evenodd;stroke-linecap:round;stroke-linejoin:round;">
    <g>
        <rect x="-0" y="6.481" width="29.059" height="8.732" style="fill:url(#_Linear1);"/>
        <path d="M0.499,6.492C0.221,6.492 0,6.753 0,7.082L0,14.619C0,14.947 0.221,15.209 0.499,15.209L28.559,15.209C28.837,15.209 29.059,14.947 29.059,14.619L29.059,7.082C29.059,6.753 28.837,6.492 28.559,6.492L0.499,6.492ZM0.84,7.377L28.219,7.377C28.483,7.377 28.695,7.625 28.695,7.933L28.695,14.29C28.695,14.598 28.483,14.846 28.219,14.846L0.84,14.846C0.576,14.846 0.363,14.598 0.363,14.29L0.363,7.933C0.363,7.625 0.576,7.377 0.84,7.377Z" style="fill:url(#_Linear2);fill-rule:nonzero;"/>
        <path d="M14.045,7.701C13.767,7.701 13.546,7.962 13.546,8.291L13.546,13.648C13.546,13.977 13.767,14.239 14.045,14.239L19.826,14.239C20.105,14.239 20.326,13.977 20.326,13.648L20.326,8.291C20.326,7.962 20.105,7.701 19.826,7.701L14.045,7.701ZM14.317,8.382L19.539,8.382C19.817,8.382 20.038,8.643 20.038,8.972L20.038,13.482C20.038,13.81 19.817,14.072 19.539,14.072L14.317,14.072C14.039,14.072 13.818,13.81 13.818,13.482L13.818,8.972C13.818,8.643 14.039,8.382 14.317,8.382Z" style="fill-opacity:0.39;fill-rule:nonzero;"/>
        <g>
            <g>
                <path d="M29.307,6.244L26.273,7.674L24.37,6.415C24.156,6.735 24.294,11.112 25.394,11.004C27.408,10.805 28.741,8.769 29.307,6.244Z" style="fill:rgb(136,138,133);stroke:url(#_Radial3);stroke-width:0.36px;"/>
                <path d="M29.204,6.394L26.326,7.75L26.287,9.794L26.691,10.667C27.933,9.889 28.781,8.279 29.204,6.394Z" style="fill:url(#_Radial4);"/>
                <path d="M24.357,6.457C24.356,6.458 24.352,6.463 24.351,6.464C24.349,6.467 24.346,6.474 24.345,6.478C24.148,6.944 24.301,11.155 25.379,11.048C25.618,11.025 25.85,10.975 26.07,10.902L25.976,7.535L24.357,6.457Z" style="fill:url(#_Radial5);"/>
            </g>
            <path d="M23.149,1.104C21.098,1.356 19.538,2.75 19.41,4.398C19.409,4.406 19.406,4.422 19.405,4.429C19.405,4.429 18.636,9.149 17.726,10.418C17.012,11.414 3.362,23.753 2.719,24.809C1.361,27.039 3.894,30.22 6.581,28.381C8.353,27.169 19.05,13.808 20.494,12.873C21.471,12.242 26.544,11.161 26.544,11.161C26.839,11.227 24.43,6.835 23.782,5.445C23.782,4.502 23.78,4.425 23.867,3.565C25.012,3.114 27.12,2.309 27.12,2.309C26.277,1.497 24.973,1.008 23.543,1.083C23.534,1.084 23.522,1.084 23.513,1.085C23.461,1.088 23.272,1.097 23.255,1.098C23.241,1.1 23.217,1.1 23.202,1.101C23.186,1.103 23.166,1.102 23.149,1.104ZM5.013,24.466C5.845,24.422 6.65,25.23 6.689,26.188C6.721,26.981 5.928,27.808 5.096,27.852C4.264,27.895 3.416,27.059 3.364,26.189C3.314,25.354 3.962,24.521 5.013,24.466Z" style="fill:rgb(136,138,133);"/>
            <path d="M23.266,1.081C21.215,1.333 19.655,2.728 19.527,4.375C19.526,4.383 19.522,4.399 19.521,4.406C19.521,4.406 18.753,9.126 17.843,10.395C17.129,11.391 3.479,23.73 2.836,24.786C1.478,27.016 4.011,30.197 6.698,28.358C8.47,27.146 19.167,13.785 20.611,12.85C21.588,12.219 26.66,11.138 26.66,11.138C26.956,11.204 24.547,6.812 23.898,5.422C23.898,4.479 23.896,4.402 23.983,3.542C25.129,3.091 27.237,2.286 27.237,2.286C26.394,1.474 25.09,0.985 23.66,1.06C23.651,1.061 23.639,1.061 23.63,1.062C23.578,1.065 23.389,1.074 23.372,1.075C23.358,1.077 23.334,1.077 23.319,1.078C23.303,1.08 23.282,1.079 23.266,1.081ZM5.13,24.443C5.962,24.399 6.767,25.207 6.806,26.165C6.838,26.958 6.045,27.785 5.213,27.829C4.381,27.872 3.533,27.036 3.481,26.166C3.431,25.331 4.079,24.498 5.13,24.443Z" style="fill:url(#_Radial6);"/>
            <path d="M19.873,4.536L21.576,8.236L22.301,7.927L23.504,10.622L22.908,10.905L23.728,11.976C25.082,11.636 26.542,11.056 26.542,11.056C26.543,11.057 26.549,11.056 26.55,11.056C26.55,11.056 26.556,11.056 26.557,11.056C26.558,11.055 26.563,11.049 26.564,11.048C26.564,11.047 26.563,11.043 26.564,11.041C26.564,11.039 26.57,11.03 26.57,11.027C26.564,10.622 24.398,6.651 23.789,5.343C23.789,4.4 23.79,4.324 23.876,3.464C25.015,3.013 27.118,2.3 27.118,2.3C26.279,1.488 24.557,1.134 23.273,1.372C21.256,1.746 20.059,2.951 19.873,4.536Z" style="fill:url(#_Radial7);"/>
            <path d="M22.915,1.153C20.982,1.479 19.535,2.834 19.412,4.418C19.411,4.425 19.409,4.439 19.408,4.446C19.408,4.446 18.64,9.166 17.731,10.435C17.017,11.432 3.362,23.769 2.719,24.825C1.361,27.055 3.897,30.236 6.585,28.398C8.356,27.185 19.057,13.825 20.502,12.891C21.478,12.259 26.545,11.174 26.545,11.174C26.546,11.174 26.552,11.18 26.553,11.18C26.554,11.18 26.559,11.179 26.56,11.179C26.561,11.179 26.566,11.172 26.567,11.171C26.567,11.17 26.573,11.165 26.573,11.164C26.573,11.163 26.572,11.158 26.572,11.157C26.572,11.153 26.569,11.142 26.569,11.136C26.528,10.676 24.392,6.76 23.787,5.463C23.787,4.519 23.786,4.443 23.873,3.583C25.019,3.131 27.122,2.322 27.122,2.322C26.279,1.511 24.978,1.027 23.548,1.102C23.539,1.103 23.528,1.098 23.518,1.099C23.466,1.102 23.277,1.115 23.26,1.117C23.246,1.119 23.223,1.115 23.208,1.117C23.194,1.118 23.172,1.122 23.157,1.123C23.077,1.133 22.994,1.139 22.915,1.153ZM23.224,1.392C24.501,1.172 26.173,1.441 26.999,2.241C26.999,2.241 24.911,3.047 23.772,3.498C23.686,4.358 23.685,4.435 23.686,5.378C24.289,6.676 26.422,10.596 26.461,11.053C26.461,11.055 26.462,11.058 26.462,11.06C26.46,11.062 26.457,11.072 26.456,11.074C26.456,11.075 26.457,11.08 26.457,11.081C26.456,11.083 26.451,11.088 26.451,11.089C26.449,11.089 26.444,11.09 26.443,11.09C26.443,11.09 26.437,11.091 26.436,11.091C26.436,11.091 24.817,11.368 23.463,11.707L23.057,11.118L23.854,10.596L22.397,7.772L21.392,8.121L19.768,4.568C19.954,2.984 21.15,1.78 23.167,1.406C23.187,1.402 23.204,1.395 23.224,1.392ZM4.752,24.511C4.837,24.495 4.927,24.49 5.017,24.485C5.849,24.442 6.656,25.244 6.694,26.203C6.726,26.996 5.928,27.825 5.096,27.868C4.264,27.912 3.419,27.075 3.367,26.206C3.321,25.442 3.857,24.678 4.752,24.511Z" style="fill:url(#_Radial8);"/>
            <path d="M22.972,1.146C21.039,1.472 19.591,2.827 19.468,4.411C19.467,4.418 19.466,4.432 19.465,4.439C19.465,4.439 18.697,9.159 17.787,10.429C17.073,11.425 3.419,23.762 2.776,24.818C1.418,27.048 3.954,30.229 6.641,28.391C8.413,27.178 19.113,13.818 20.558,12.884C21.535,12.252 26.601,11.167 26.601,11.167C26.602,11.167 26.608,11.173 26.609,11.173C26.61,11.173 26.616,11.172 26.617,11.172C26.617,11.172 26.622,11.165 26.623,11.164C26.624,11.163 26.629,11.158 26.629,11.157C26.63,11.156 26.628,11.151 26.628,11.15C26.629,11.146 26.626,11.135 26.626,11.129C26.585,10.669 24.449,6.753 23.843,5.456C23.843,4.512 23.843,4.436 23.93,3.576C25.075,3.124 27.178,2.315 27.178,2.315C26.336,1.504 25.035,1.02 23.605,1.095C23.596,1.096 23.584,1.091 23.575,1.092C23.523,1.095 23.333,1.108 23.317,1.11C23.302,1.112 23.28,1.108 23.265,1.11C23.25,1.111 23.228,1.115 23.213,1.116C23.133,1.126 23.05,1.132 22.972,1.146ZM23.281,1.385C24.557,1.165 26.229,1.434 27.055,2.234C27.055,2.234 24.968,3.04 23.829,3.491C23.743,4.351 23.742,4.428 23.742,5.371C24.346,6.669 26.478,10.589 26.517,11.046C26.517,11.048 26.518,11.051 26.518,11.053C26.517,11.055 26.514,11.065 26.513,11.067C26.513,11.068 26.514,11.073 26.514,11.074C26.512,11.076 26.508,11.081 26.507,11.082C26.506,11.082 26.5,11.083 26.5,11.083C26.499,11.083 26.493,11.084 26.493,11.084C26.493,11.084 24.873,11.361 23.519,11.7L23.091,10.954L23.952,10.477L22.615,7.692L21.483,7.95L19.824,4.561C20.01,2.977 21.206,1.773 23.223,1.399C23.243,1.395 23.26,1.388 23.281,1.385ZM4.809,24.504C4.893,24.488 4.983,24.483 5.073,24.478C5.905,24.435 6.712,25.237 6.751,26.196C6.783,26.989 5.985,27.818 5.153,27.861C4.321,27.905 3.475,27.068 3.423,26.199C3.378,25.435 3.913,24.671 4.809,24.504Z" style="fill:url(#_Radial9);"/>
            <g>
                <path d="M19.413,9.217L22.294,7.992L23.624,10.587L20.742,11.811L19.413,9.217Z" style="fill:rgb(46,52,54);stroke:url(#_Radial10);stroke-width:0.36px;"/>
                <path d="M20.06,9.107L21.751,8.466L22.867,10.657L21.176,11.298L20.06,9.107Z" style="fill:url(#_Radial11);"/>
                <g>
                    <path d="M22.465,8.588L22.528,8.853L19.986,9.582L19.924,9.317L22.465,8.588Z" style="fill:url(#_Radial12);stroke:url(#_Linear13);stroke-width:0.09px;"/>
                    <path d="M23.283,10.257L23.34,10.482L20.849,11.145L20.793,10.919L23.283,10.257Z" style="fill:url(#_Radial14);stroke:url(#_Linear15);stroke-width:0.08px;"/>
                    <path d="M22.914,9.471L22.972,9.695L20.312,10.377L20.255,10.153L22.914,9.471Z" style="fill:url(#_Radial16);stroke:url(#_Linear17);stroke-width:0.08px;"/>
                </g>
            </g>
            <path d="M23.801,3.585L27.047,2.332L27.193,2.717L23.792,4.064L23.801,3.585Z" style="fill:url(#_Linear18);"/>
            <path d="M26.388,10.669C27.336,10.489 28.817,8.511 29.29,6.29C29.311,6.191 29.387,6.986 29.362,7.092C28.873,9.144 27.556,10.544 26.568,11.014C26.51,11.042 26.575,11.408 26.388,10.669Z" style="fill:url(#_Linear19);"/>
            <path d="M20.013,4.305L21.505,8.138L22.421,7.965L23.674,10.601L22.93,11.062L23.472,11.793C24.826,11.454 26.287,10.874 26.287,10.874C26.288,10.874 26.293,10.874 26.294,10.874C26.295,10.874 26.301,10.874 26.302,10.874C26.302,10.873 26.308,10.867 26.309,10.866C26.309,10.865 26.308,10.86 26.308,10.859C26.309,10.857 26.315,10.848 26.315,10.845C26.309,10.44 24.142,6.469 23.534,5.161C23.533,4.217 23.535,4.142 23.621,3.281C24.76,2.831 26.624,2.053 26.624,2.053C25.786,1.241 24.346,1.267 23.062,1.505C21.045,1.879 20.199,2.72 20.013,4.305Z" style="fill:url(#_Radial20);"/>
            <path d="M2.872,24.576C2.872,24.576 16.906,11.41 17.815,10.337C18.687,9.306 19.45,4.623 19.45,4.623C19.45,4.623 19.928,4.299 19.837,4.58C19.712,4.964 18.495,9.691 18.196,10.15C17.515,11.195 13.652,14.644 13.652,14.644L4.214,23.611L2.872,24.576Z" style="fill-opacity:0.39;"/>
            <path d="M5.268,28.113C5.268,28.113 4.184,28.13 3.613,27.413C3.042,26.695 2.994,25.599 2.994,25.599L3.12,25.412C3.12,25.412 3.232,26.511 3.747,27.206C4.271,27.913 5.396,27.954 5.378,27.983L5.268,28.113Z" style="fill:url(#_Radial21);"/>
            <path d="M26.034,7.528C26.015,7.59 26.094,9.427 26.105,9.492C26.132,10.501 26.372,10.562 26.398,10.743C26.593,10.669 26.461,10.762 26.636,10.653C26.619,10.565 26.371,9.95 26.269,9.729C26.277,9.227 26.279,7.82 26.281,7.686C26.186,7.623 26.15,7.597 26.034,7.528Z"/>
            <path d="M29.174,6.366L26.296,7.723L26.258,9.767L26.662,10.64C27.903,9.862 28.752,8.251 29.174,6.366Z" style="fill:url(#_Radial22);"/>
            <path d="M22.972,1.146C21.039,1.472 19.591,2.827 19.468,4.411C19.467,4.418 19.466,4.432 19.465,4.439C19.465,4.439 18.697,9.159 17.787,10.429C17.073,11.425 3.419,23.762 2.776,24.818C1.418,27.048 3.954,30.229 6.641,28.391C8.413,27.178 19.113,13.818 20.558,12.884C21.535,12.252 26.601,11.167 26.601,11.167C26.602,11.167 26.608,11.173 26.609,11.173C26.61,11.173 26.616,11.172 26.617,11.172C26.617,11.172 26.622,11.165 26.623,11.164C26.624,11.163 26.629,11.158 26.629,11.157C26.63,11.156 26.628,11.151 26.628,11.15C26.629,11.146 26.626,11.135 26.626,11.129C26.585,10.669 24.449,6.753 23.843,5.456C23.843,4.512 23.843,4.436 23.93,3.576C25.075,3.124 27.178,2.315 27.178,2.315C26.336,1.504 25.035,1.02 23.605,1.095C23.596,1.096 23.584,1.091 23.575,1.092C23.523,1.095 23.333,1.108 23.317,1.11C23.302,1.112 23.28,1.108 23.265,1.11C23.25,1.111 23.228,1.115 23.213,1.116C23.133,1.126 23.05,1.132 22.972,1.146ZM23.281,1.385C24.557,1.165 26.229,1.434 27.055,2.234C27.055,2.234 24.968,3.04 23.829,3.491C23.743,4.351 23.742,4.428 23.742,5.371C24.346,6.669 26.478,10.589 26.517,11.046C26.517,11.048 26.518,11.051 26.518,11.053C26.517,11.055 26.514,11.065 26.513,11.067C26.513,11.068 26.514,11.073 26.514,11.074C26.512,11.076 26.508,11.081 26.507,11.082C26.506,11.082 26.5,11.083 26.5,11.083C26.499,11.083 26.493,11.084 26.493,11.084C26.493,11.084 24.873,11.361 23.519,11.7L23.091,10.954L23.952,10.477L22.615,7.692L21.483,7.95L19.824,4.561C20.01,2.977 21.206,1.773 23.223,1.399C23.243,1.395 23.26,1.388 23.281,1.385ZM4.809,24.504C4.893,24.488 4.983,24.483 5.073,24.478C5.905,24.435 6.712,25.237 6.751,26.196C6.783,26.989 5.985,27.818 5.153,27.861C4.321,27.905 3.475,27.068 3.423,26.199C3.378,25.435 3.913,24.671 4.809,24.504Z" style="fill:url(#_Radial23);"/>
            <path d="M4.886,23.865C6.148,23.567 7.585,24.983 7.308,26.318C8.253,25.536 19.128,13.407 19.354,12.824C19.699,11.93 18.767,11.122 17.88,11.503C17.261,11.768 4.804,23.884 4.886,23.865Z" style="fill:rgb(136,138,133);"/>
            <path d="M4.886,23.865C6.148,23.567 7.585,24.983 7.308,26.318C8.253,25.536 19.128,13.407 19.354,12.824C19.699,11.93 18.767,11.122 17.88,11.503C17.261,11.768 4.804,23.884 4.886,23.865Z" style="fill-opacity:0.8;"/>
            <path d="M4.886,23.865C6.148,23.567 7.585,24.983 7.308,26.318C8.253,25.536 19.128,13.407 19.354,12.824C19.699,11.93 18.767,11.122 17.88,11.503C17.261,11.768 4.804,23.884 4.886,23.865Z" style="fill:url(#_Radial24);"/>
            <path d="M4.886,23.865C6.148,23.567 7.585,24.983 7.308,26.318C8.253,25.536 19.128,13.407 19.354,12.824C19.699,11.93 18.767,11.122 17.88,11.503C17.261,11.768 4.804,23.884 4.886,23.865Z" style="fill:url(#_Radial25);"/>
            <path d="M17.86,11.53C17.929,11.487 18.515,11.195 19.056,11.671C19.518,12.077 19.455,12.498 19.327,12.876C19.265,13.059 14.272,18.72 13.376,19.75C12.935,20.257 11.427,21.905 10.043,23.428C8.647,24.964 7.336,26.297 7.336,26.297C7.336,26.297 19.165,13.11 19.237,12.751C19.342,12.223 19.126,12.055 18.947,11.887C18.766,11.715 18.447,11.523 18.012,11.611C17.413,11.733 5.141,23.76 4.909,23.849C4.909,23.849 7.856,20.931 10.966,17.93C14.076,14.929 17.349,11.845 17.86,11.53Z" style="fill:rgb(46,52,54);fill-opacity:0.4;"/>
            <path id="O" d="M5.003,23.742C5.003,23.742 5.982,23.508 6.818,24.291C7.733,25.148 7.454,26.169 7.454,26.169L7.307,26.344C7.307,26.344 7.388,25.954 7.293,25.57C7.198,25.187 6.996,24.794 6.651,24.477C6.312,24.165 5.991,23.964 5.641,23.889C5.292,23.814 4.895,23.868 4.903,23.853L5.003,23.742Z" style="fill:url(#_Radial26);"/>
            <path id="O1" serif:id="O" d="M5.003,23.742C5.003,23.742 5.982,23.508 6.818,24.291C7.733,25.148 7.454,26.169 7.454,26.169L7.307,26.344C7.307,26.344 7.388,25.954 7.293,25.57C7.198,25.187 6.996,24.794 6.651,24.477C6.312,24.165 5.991,23.964 5.641,23.889C5.292,23.814 4.895,23.868 4.903,23.853L5.003,23.742Z" style="fill:url(#_Radial27);"/>
            <g>
                <path d="M25.018,1.355C22.286,1.129 20.293,2.076 19.97,4.15C20.345,2.565 22.009,1.278 25.018,1.355Z" style="fill:white;"/>
                <path d="M25.018,1.355C22.251,0.964 20.066,1.959 19.97,4.15C20.496,2.592 22.009,1.34 25.018,1.355Z" style="fill:white;fill-opacity:0.78;"/>
                <path d="M23.925,1.346C22.836,1.339 21.889,1.567 21.206,2.029C20.624,2.423 20.229,2.981 20.088,3.695C20.656,2.515 21.858,1.578 23.925,1.346Z" style="fill:white;fill-opacity:0.78;"/>
            </g>
            <path d="M18.372,11.405C18.211,11.4 18.047,11.433 17.881,11.504C17.262,11.77 4.807,23.882 4.889,23.862C4.975,23.842 5.059,23.832 5.145,23.827C6.474,22.486 17.301,11.981 17.881,11.732C18.591,11.427 19.329,11.884 19.418,12.537C19.477,11.93 18.976,11.423 18.372,11.405ZM7.338,26.069C7.334,26.153 7.327,26.235 7.31,26.318C7.315,26.314 7.332,26.302 7.338,26.297C7.338,26.295 7.338,26.292 7.338,26.29C7.342,26.216 7.344,26.143 7.338,26.069Z" style="fill-opacity:0.5;"/>
        </g>
        <path d="M2.853,10.388C2.853,10.908 2.425,11.337 1.904,11.337C1.384,11.337 0.955,10.908 0.955,10.388C0.955,9.867 1.384,9.439 1.904,9.439C2.425,9.439 2.853,9.867 2.853,10.388Z" style="fill:url(#_Linear28);fill-rule:nonzero;"/>
        <path id="R" d="M3.822,12.301C3.822,12.821 3.393,13.25 2.873,13.25C2.352,13.25 1.924,12.821 1.924,12.301C1.924,11.78 2.352,11.352 2.873,11.352C3.393,11.352 3.822,11.78 3.822,12.301Z" style="fill:url(#_Linear29);fill-rule:nonzero;"/>
        <path d="M2.873,14.227C2.873,14.748 2.444,15.176 1.924,15.176C1.403,15.176 0.975,14.748 0.975,14.227C0.975,13.706 1.403,13.278 1.924,13.278C2.444,13.278 2.873,13.706 2.873,14.227Z" style="fill:url(#_Linear30);fill-rule:nonzero;"/>
        <path id="R1" serif:id="R" d="M3.822,8.45C3.822,8.971 3.393,9.399 2.873,9.399C2.352,9.399 1.924,8.971 1.924,8.45C1.924,7.93 2.352,7.502 2.873,7.502C3.393,7.502 3.822,7.93 3.822,8.45Z" style="fill:url(#_Linear31);fill-rule:nonzero;"/>
        <path d="M5.327,7.701C5.049,7.701 4.828,7.962 4.828,8.291L4.828,13.648C4.828,13.977 5.049,14.239 5.327,14.239L11.109,14.239C11.387,14.239 11.608,13.977 11.608,13.648L11.608,8.291C11.608,7.962 11.387,7.701 11.109,7.701L5.327,7.701ZM5.6,8.382L10.821,8.382C11.1,8.382 11.321,8.643 11.321,8.972L11.321,13.482C11.321,13.81 11.1,14.072 10.821,14.072L5.6,14.072C5.322,14.072 5.1,13.81 5.1,13.482L5.1,8.972C5.1,8.643 5.322,8.382 5.6,8.382Z" style="fill-opacity:0.39;fill-rule:nonzero;"/>
    </g>
    <rect id="outer" x="0" y="0" width="30" height="30" style="fill:none;"/>
    <defs>
        <linearGradient id="_Linear1" x1="0" y1="0" x2="1" y2="0" gradientUnits="userSpaceOnUse" gradientTransform="matrix(6.41982e-16,-10.4844,10.4844,6.41982e-16,9.84937,15.9814)"><stop offset="0" style="stop-color:rgb(203,203,205);stop-opacity:1"/><stop offset="0.5" style="stop-color:rgb(224,224,226);stop-opacity:1"/><stop offset="1" style="stop-color:rgb(242,242,242);stop-opacity:1"/></linearGradient>
        <linearGradient id="_Linear2" x1="0" y1="0" x2="1" y2="0" gradientUnits="userSpaceOnUse" gradientTransform="matrix(4.47812e-16,7.31332,-7.31332,4.47812e-16,17.2197,8.41014)"><stop offset="0" style="stop-color:white;stop-opacity:1"/><stop offset="0.49" style="stop-color:white;stop-opacity:1"/><stop offset="1" style="stop-color:rgb(220,220,220);stop-opacity:1"/></linearGradient>
        <radialGradient id="_Radial3" cx="0" cy="0" r="1" gradientUnits="userSpaceOnUse" gradientTransform="matrix(2.55227,-0.165483,0.169138,2.31695,24.206,9.12202)"><stop offset="0" style="stop-color:black;stop-opacity:1"/><stop offset="1" style="stop-color:black;stop-opacity:0"/></radialGradient>
        <radialGradient id="_Radial4" cx="0" cy="0" r="1" gradientUnits="userSpaceOnUse" gradientTransform="matrix(8.0249,-0.463131,0.461187,7.04218,27.0052,9.36625)"><stop offset="0" style="stop-color:white;stop-opacity:0.51"/><stop offset="1" style="stop-color:rgb(62,62,62);stop-opacity:0"/></radialGradient>
        <radialGradient id="_Radial5" cx="0" cy="0" r="1" gradientUnits="userSpaceOnUse" gradientTransform="matrix(8.18952,-0.666459,0.55701,6.15956,25.0012,10.1092)"><stop offset="0" style="stop-color:white;stop-opacity:0.51"/><stop offset="1" style="stop-color:rgb(62,62,62);stop-opacity:0"/></radialGradient>
        <radialGradient id="_Radial6" cx="0" cy="0" r="1" gradientUnits="userSpaceOnUse" gradientTransform="matrix(13.8331,-1.70985,1.76165,12.5801,18.5763,12.2141)"><stop offset="0" style="stop-color:white;stop-opacity:1"/><stop offset="1" style="stop-color:rgb(136,138,133);stop-opacity:0"/></radialGradient>
        <radialGradient id="_Radial7" cx="0" cy="0" r="1" gradientUnits="userSpaceOnUse" gradientTransform="matrix(8.8792,-1.14812,3.88402,25.6425,22.4721,11.8102)"><stop offset="0" style="stop-color:white;stop-opacity:1"/><stop offset="1" style="stop-color:rgb(136,138,133);stop-opacity:0"/></radialGradient>
        <radialGradient id="_Radial8" cx="0" cy="0" r="1" gradientUnits="userSpaceOnUse" gradientTransform="matrix(3.84459,-1.3045,4.58013,11.7592,24.5977,9.30452)"><stop offset="0" style="stop-color:black;stop-opacity:1"/><stop offset="1" style="stop-color:black;stop-opacity:0"/></radialGradient>
        <radialGradient id="_Radial9" cx="0" cy="0" r="1" gradientUnits="userSpaceOnUse" gradientTransform="matrix(3.84459,-1.3045,4.58013,11.7592,24.6542,9.29754)"><stop offset="0" style="stop-color:black;stop-opacity:1"/><stop offset="1" style="stop-color:black;stop-opacity:0"/></radialGradient>
        <radialGradient id="_Radial10" cx="0" cy="0" r="1" gradientUnits="userSpaceOnUse" gradientTransform="matrix(-2.804,-6.93297,7.48949,-6.14284,17.8799,13.2232)"><stop offset="0" style="stop-color:white;stop-opacity:1"/><stop offset="1" style="stop-color:black;stop-opacity:0"/></radialGradient>
        <radialGradient id="_Radial11" cx="0" cy="0" r="1" gradientUnits="userSpaceOnUse" gradientTransform="matrix(0.673609,-0.204271,4.35809,8.29468,21.4635,9.88213)"><stop offset="0" style="stop-color:white;stop-opacity:1"/><stop offset="1" style="stop-color:rgb(85,87,83);stop-opacity:0"/></radialGradient>
        <radialGradient id="_Radial12" cx="0" cy="0" r="1" gradientUnits="userSpaceOnUse" gradientTransform="matrix(0.904286,-0.250298,3.15381,13.8663,21.4532,10.3461)"><stop offset="0" style="stop-color:white;stop-opacity:1"/><stop offset="1" style="stop-color:white;stop-opacity:0"/></radialGradient>
        <linearGradient id="_Linear13" x1="0" y1="0" x2="1" y2="0.0504244" gradientUnits="userSpaceOnUse" gradientTransform="matrix(2.54174,-0.729282,0.57056,2.41397,19.9549,9.44964)"><stop offset="0" style="stop-color:black;stop-opacity:0.67"/><stop offset="1" style="stop-color:black;stop-opacity:0"/></linearGradient>
        <radialGradient id="_Radial14" cx="0" cy="0" r="1" gradientUnits="userSpaceOnUse" gradientTransform="matrix(0.885849,-0.227833,2.84052,11.828,22.2667,11.7773)"><stop offset="0" style="stop-color:white;stop-opacity:1"/><stop offset="1" style="stop-color:white;stop-opacity:0"/></radialGradient>
        <linearGradient id="_Linear15" x1="0" y1="0" x2="1" y2="0.015626" gradientUnits="userSpaceOnUse" gradientTransform="matrix(2.49036,-0.662453,0.586921,2.34415,20.821,11.0319)"><stop offset="0" style="stop-color:black;stop-opacity:0.67"/><stop offset="1" style="stop-color:black;stop-opacity:0"/></linearGradient>
        <radialGradient id="_Radial16" cx="0" cy="0" r="1" gradientUnits="userSpaceOnUse" gradientTransform="matrix(0.945779,-0.234772,2.91104,11.7701,21.8161,10.9955)"><stop offset="0" style="stop-color:white;stop-opacity:1"/><stop offset="1" style="stop-color:white;stop-opacity:0"/></radialGradient>
        <linearGradient id="_Linear17" x1="0" y1="0" x2="1" y2="-0.0018546" gradientUnits="userSpaceOnUse" gradientTransform="matrix(2.65904,-0.681879,0.643702,2.49215,20.2835,10.2648)"><stop offset="0" style="stop-color:black;stop-opacity:0.67"/><stop offset="1" style="stop-color:black;stop-opacity:0"/></linearGradient>
        <linearGradient id="_Linear18" x1="0" y1="0" x2="1" y2="0" gradientUnits="userSpaceOnUse" gradientTransform="matrix(3.52892,-0.436218,0.436218,3.52892,23.7004,3.41042)"><stop offset="0" style="stop-color:black;stop-opacity:1"/><stop offset="1" style="stop-color:black;stop-opacity:0"/></linearGradient>
        <linearGradient id="_Linear19" x1="0" y1="0" x2="1" y2="0" gradientUnits="userSpaceOnUse" gradientTransform="matrix(5.14874,-9.04503,9.04503,5.14874,27.1983,11.8109)"><stop offset="0" style="stop-color:black;stop-opacity:1"/><stop offset="1" style="stop-color:black;stop-opacity:0"/></linearGradient>
        <radialGradient id="_Radial20" cx="0" cy="0" r="1" gradientUnits="userSpaceOnUse" gradientTransform="matrix(8.8792,-1.14812,3.88402,25.6425,22.2038,2.91882)"><stop offset="0" style="stop-color:white;stop-opacity:1"/><stop offset="1" style="stop-color:rgb(136,138,133);stop-opacity:0"/></radialGradient>
        <radialGradient id="_Radial21" cx="0" cy="0" r="1" gradientUnits="userSpaceOnUse" gradientTransform="matrix(-1.08367,0.0828072,-0.12171,-1.42365,4.18342,26.7631)"><stop offset="0" style="stop-color:white;stop-opacity:0.89"/><stop offset="1" style="stop-color:white;stop-opacity:0"/></radialGradient>
        <radialGradient id="_Radial22" cx="0" cy="0" r="1" gradientUnits="userSpaceOnUse" gradientTransform="matrix(8.02494,-0.463139,0.461224,7.04214,27.7061,7.9926)"><stop offset="0" style="stop-color:white;stop-opacity:0.51"/><stop offset="1" style="stop-color:rgb(62,62,62);stop-opacity:0"/></radialGradient>
        <radialGradient id="_Radial23" cx="0" cy="0" r="1" gradientUnits="userSpaceOnUse" gradientTransform="matrix(2.71832,-0.848215,9.53713,30.565,12.7178,35.1505)"><stop offset="0" style="stop-color:white;stop-opacity:1"/><stop offset="1" style="stop-color:white;stop-opacity:0"/></radialGradient>
        <radialGradient id="_Radial24" cx="0" cy="0" r="1" gradientUnits="userSpaceOnUse" gradientTransform="matrix(3.59039,7.75012,-2.20361,1.51226,18.6491,15.2322)"><stop offset="0" style="stop-color:white;stop-opacity:0.28"/><stop offset="1" style="stop-color:white;stop-opacity:0"/></radialGradient>
        <radialGradient id="_Radial25" cx="0" cy="0" r="1" gradientUnits="userSpaceOnUse" gradientTransform="matrix(7.93838,-0.981227,0.933042,6.6631,9.41949,21.5501)"><stop offset="0" style="stop-color:white;stop-opacity:0.5"/><stop offset="1" style="stop-color:white;stop-opacity:0"/></radialGradient>
        <radialGradient id="_Radial26" cx="0" cy="0" r="1" gradientUnits="userSpaceOnUse" gradientTransform="matrix(1.1496,-0.142097,0.198994,1.42105,6.23707,25.0307)"><stop offset="0" style="stop-color:white;stop-opacity:1"/><stop offset="1" style="stop-color:white;stop-opacity:0"/></radialGradient>
        <radialGradient id="_Radial27" cx="0" cy="0" r="1" gradientUnits="userSpaceOnUse" gradientTransform="matrix(1.1496,-0.142097,0.198994,1.42105,6.23707,25.0307)"><stop offset="0" style="stop-color:white;stop-opacity:1"/><stop offset="1" style="stop-color:white;stop-opacity:0"/></radialGradient>
        <linearGradient id="_Linear28" x1="0" y1="0" x2="1" y2="0" gradientUnits="userSpaceOnUse" gradientTransform="matrix(0.548753,0.950471,-0.950471,0.548753,1.45699,9.79842)"><stop offset="0" style="stop-color:rgb(111,111,111);stop-opacity:1"/><stop offset="1" style="stop-color:white;stop-opacity:1"/></linearGradient>
        <linearGradient id="_Linear29" x1="0" y1="0" x2="1" y2="0" gradientUnits="userSpaceOnUse" gradientTransform="matrix(0.555204,0.961635,-0.961635,0.555204,2.31411,11.7079)"><stop offset="0" style="stop-color:rgb(111,111,111);stop-opacity:1"/><stop offset="1" style="stop-color:white;stop-opacity:1"/></linearGradient>
        <linearGradient id="_Linear30" x1="0" y1="0" x2="1" y2="0" gradientUnits="userSpaceOnUse" gradientTransform="matrix(0.713699,1.23616,-1.23616,0.713699,1.67729,13.3776)"><stop offset="0" style="stop-color:rgb(111,111,111);stop-opacity:1"/><stop offset="1" style="stop-color:white;stop-opacity:1"/></linearGradient>
        <linearGradient id="_Linear31" x1="0" y1="0" x2="1" y2="0" gradientUnits="userSpaceOnUse" gradientTransform="matrix(0.555204,0.961635,-0.961635,0.555204,2.31411,7.85759)"><stop offset="0" style="stop-color:rgb(111,111,111);stop-opacity:1"/><stop offset="1" style="stop-color:white;stop-opacity:1"/></linearGradient>
    </defs>
</svg>
