<?xml version="1.0" encoding="UTF-8" standalone="no"?>
<!DOCTYPE svg PUBLIC "-//W3C//DTD SVG 1.1//EN" "http://www.w3.org/Graphics/SVG/1.1/DTD/svg11.dtd">
<svg width="30px" height="30px" version="1.1" xmlns="http://www.w3.org/2000/svg" xmlns:xlink="http://www.w3.org/1999/xlink" xml:space="preserve" xmlns:serif="http://www.serif.com/" style="fill-rule:evenodd;clip-rule:evenodd;stroke-linejoin:round;">
    <g>
        <rect x="1" y="8.437" width="28" height="13.125" style="fill:none;stroke:rgb(136,136,136);stroke-width:1.94px;"/>
        <rect x="1" y="8.437" width="28" height="13.125" style="fill:rgb(221,221,221);"/>
        <rect x="2" y="9.374" width="26.001" height="11.25" style="fill:white;"/>
    </g>
    <g id="save">
        <path id="path9" d="M12.071,10.999L11.405,10.999L11.405,13.371C11.405,13.509 11.297,13.621 11.16,13.621L5.848,13.621C5.714,13.621 5.603,13.51 5.603,13.371L5.603,10.999L5.2,10.999L4.488,11.728L4.488,18.757C4.488,18.895 4.597,19.008 4.733,19.008L5.605,19.008L5.605,15.404C5.605,15.266 5.714,15.153 5.85,15.153L11.163,15.153C11.298,15.153 11.408,15.264 11.408,15.404L11.408,19.01L12.071,19.01C12.206,19.01 12.316,18.898 12.316,18.759L12.316,11.25C12.316,11.112 12.206,10.999 12.071,10.999Z" style="fill:rgb(86,172,224);fill-rule:nonzero;"/>
        <path id="path13" d="M6.091,15.643L6.091,19.011L10.908,19.011L10.908,15.643L6.091,15.643ZM9.823,18.186L7.172,18.186C7.038,18.186 6.929,18.075 6.929,17.935C6.929,17.796 7.038,17.683 7.172,17.683L9.823,17.683C9.958,17.683 10.068,17.795 10.068,17.935C10.068,18.073 9.958,18.186 9.823,18.186ZM9.823,16.969L7.172,16.969C7.038,16.969 6.929,16.855 6.929,16.718C6.929,16.58 7.038,16.467 7.172,16.467L9.823,16.467C9.958,16.467 10.068,16.578 10.068,16.718C10.068,16.857 9.958,16.969 9.823,16.969Z" style="fill:rgb(255,193,13);fill-rule:nonzero;"/>
        <g id="g23">
            <path id="path15" d="M12.069,10.5L5.1,10.5C5.037,10.5 4.974,10.527 4.927,10.573L4.071,11.447C4.026,11.495 4,11.559 4,11.625L4,18.75C4,19.164 4.329,19.5 4.734,19.5L12.069,19.5C12.473,19.5 12.802,19.164 12.802,18.75L12.802,11.25C12.802,10.837 12.473,10.5 12.069,10.5ZM6.093,11L10.916,11L10.916,13.119L6.093,13.119L6.093,11ZM6.093,19.001L6.093,15.648L10.916,15.648L10.916,19.001L6.093,19.001ZM12.314,18.75C12.314,18.888 12.205,19.001 12.069,19.001L11.403,19.001L11.403,15.399C11.403,15.261 11.295,15.148 11.158,15.148L5.848,15.148C5.714,15.148 5.603,15.26 5.603,15.399L5.603,19.001L4.734,19.001C4.599,19.001 4.489,18.889 4.489,18.75L4.489,11.728L5.201,11L5.605,11L5.605,13.368C5.605,13.506 5.714,13.619 5.85,13.619L11.161,13.619C11.296,13.619 11.406,13.508 11.406,13.368L11.406,11L12.069,11C12.203,11 12.314,11.111 12.314,11.25L12.314,18.75Z" style="fill:rgb(25,79,130);fill-rule:nonzero;"/>
            <path id="path17" d="M10.051,11.22C9.916,11.22 9.806,11.331 9.806,11.47L9.806,12.286C9.806,12.423 9.915,12.536 10.051,12.536C10.186,12.536 10.296,12.425 10.296,12.286L10.296,11.47C10.294,11.332 10.186,11.22 10.051,11.22Z" style="fill:rgb(25,79,130);fill-rule:nonzero;"/>
            <path id="path19" d="M9.823,16.462L7.172,16.462C7.038,16.462 6.928,16.573 6.928,16.712C6.928,16.849 7.036,16.963 7.172,16.963L9.823,16.963C9.958,16.963 10.068,16.851 10.068,16.712C10.068,16.573 9.958,16.462 9.823,16.462Z" style="fill:rgb(25,79,130);fill-rule:nonzero;"/>
            <path id="path21" d="M9.823,17.673L7.172,17.673C7.038,17.673 6.928,17.784 6.928,17.923C6.928,18.061 7.036,18.173 7.172,18.173L9.823,18.173C9.958,18.173 10.068,18.062 10.068,17.923C10.068,17.784 9.958,17.673 9.823,17.673Z" style="fill:rgb(25,79,130);fill-rule:nonzero;"/>
        </g>
    </g>
    <g id="arrow_box">
        <rect x="15.822" y="10.5" width="9.5" height="9" style="fill:rgb(192,242,251);stroke:rgb(150,150,150);stroke-width:0.48px;stroke-linecap:round;stroke-miterlimit:1.5;"/>
        <path d="M20.547,17.443L17.549,12.577L23.645,12.618L20.547,17.443Z" style="fill:none;stroke:black;stroke-width:0.48px;stroke-linecap:round;stroke-miterlimit:1.5;"/>
    </g>
    <rect id="outer" x="0" y="0" width="30" height="30" style="fill:none;"/>
</svg>
