<?xml version="1.0" encoding="UTF-8" standalone="no"?>
<!DOCTYPE svg PUBLIC "-//W3C//DTD SVG 1.1//EN" "http://www.w3.org/Graphics/SVG/1.1/DTD/svg11.dtd">
<svg width="30px" height="30px" version="1.1" xmlns="http://www.w3.org/2000/svg" xmlns:xlink="http://www.w3.org/1999/xlink" xml:space="preserve" xmlns:serif="http://www.serif.com/" style="fill-rule:evenodd;clip-rule:evenodd;stroke-linejoin:round;">
    <g>
        <rect x="1" y="8.437" width="28" height="13.125" style="fill:none;stroke:rgb(136,136,136);stroke-width:1.94px;"/>
        <rect x="1" y="8.437" width="28" height="13.125" style="fill:rgb(221,221,221);"/>
        <rect x="2" y="9.374" width="26.001" height="11.25" style="fill:white;"/>
    </g>
    <g id="save">
        <path id="path9" d="M32.395,10.999L31.729,10.999L31.729,13.371C31.729,13.509 31.621,13.621 31.484,13.621L26.172,13.621C26.038,13.621 25.927,13.51 25.927,13.371L25.927,10.999L25.524,10.999L24.812,11.728L24.812,18.757C24.812,18.895 24.921,19.008 25.057,19.008L25.929,19.008L25.929,15.404C25.929,15.266 26.038,15.153 26.174,15.153L31.487,15.153C31.622,15.153 31.732,15.264 31.732,15.404L31.732,19.01L32.395,19.01C32.53,19.01 32.64,18.898 32.64,18.759L32.64,11.25C32.64,11.112 32.53,10.999 32.395,10.999Z" style="fill:rgb(86,172,224);fill-rule:nonzero;"/>
        <path id="path13" d="M26.415,15.643L26.415,19.011L31.232,19.011L31.232,15.643L26.415,15.643ZM30.147,18.186L27.496,18.186C27.362,18.186 27.253,18.075 27.253,17.935C27.253,17.796 27.362,17.683 27.496,17.683L30.147,17.683C30.282,17.683 30.392,17.795 30.392,17.935C30.392,18.073 30.282,18.186 30.147,18.186ZM30.147,16.969L27.496,16.969C27.362,16.969 27.253,16.855 27.253,16.718C27.253,16.58 27.362,16.467 27.496,16.467L30.147,16.467C30.282,16.467 30.392,16.578 30.392,16.718C30.392,16.857 30.282,16.969 30.147,16.969Z" style="fill:rgb(255,193,13);fill-rule:nonzero;"/>
        <g id="g23">
            <path id="path15" d="M32.393,10.5L25.424,10.5C25.361,10.5 25.298,10.527 25.251,10.573L24.395,11.447C24.35,11.495 24.324,11.559 24.324,11.625L24.324,18.75C24.324,19.164 24.653,19.5 25.058,19.5L32.393,19.5C32.797,19.5 33.126,19.164 33.126,18.75L33.126,11.25C33.126,10.837 32.797,10.5 32.393,10.5ZM26.417,11L31.24,11L31.24,13.119L26.417,13.119L26.417,11ZM26.417,19.001L26.417,15.648L31.24,15.648L31.24,19.001L26.417,19.001ZM32.638,18.75C32.638,18.888 32.529,19.001 32.393,19.001L31.727,19.001L31.727,15.399C31.727,15.261 31.619,15.148 31.482,15.148L26.172,15.148C26.038,15.148 25.927,15.26 25.927,15.399L25.927,19.001L25.058,19.001C24.923,19.001 24.813,18.889 24.813,18.75L24.813,11.728L25.525,11L25.929,11L25.929,13.368C25.929,13.506 26.038,13.619 26.174,13.619L31.485,13.619C31.62,13.619 31.73,13.508 31.73,13.368L31.73,11L32.393,11C32.527,11 32.638,11.111 32.638,11.25L32.638,18.75Z" style="fill:rgb(25,79,130);fill-rule:nonzero;"/>
            <path id="path17" d="M30.375,11.22C30.24,11.22 30.13,11.331 30.13,11.47L30.13,12.286C30.13,12.423 30.239,12.536 30.375,12.536C30.51,12.536 30.62,12.425 30.62,12.286L30.62,11.47C30.618,11.332 30.51,11.22 30.375,11.22Z" style="fill:rgb(25,79,130);fill-rule:nonzero;"/>
            <path id="path19" d="M30.147,16.462L27.496,16.462C27.362,16.462 27.252,16.573 27.252,16.712C27.252,16.849 27.36,16.963 27.496,16.963L30.147,16.963C30.282,16.963 30.392,16.851 30.392,16.712C30.392,16.573 30.282,16.462 30.147,16.462Z" style="fill:rgb(25,79,130);fill-rule:nonzero;"/>
            <path id="path21" d="M30.147,17.673L27.496,17.673C27.362,17.673 27.252,17.784 27.252,17.923C27.252,18.061 27.36,18.173 27.496,18.173L30.147,18.173C30.282,18.173 30.392,18.062 30.392,17.923C30.392,17.784 30.282,17.673 30.147,17.673Z" style="fill:rgb(25,79,130);fill-rule:nonzero;"/>
        </g>
    </g>
    <g id="open">
        <path d="M1.535,13.353C1.535,13.539 1.388,13.692 1.207,13.692L-3.715,19.126C-3.895,19.126 -4.043,18.973 -4.043,18.787L-4.043,10.805C-4.043,10.619 -3.895,10.466 -3.715,10.466L-0.762,10.466C-0.581,10.466 -0.434,10.619 -0.434,10.805L1.535,13.353Z" style="fill:rgb(211,172,81);fill-rule:nonzero;"/>
        <path d="M-3.649,19.296L-3.715,19.296C-3.994,19.296 -4.207,19.075 -4.207,18.787L-4.207,10.805C-4.207,10.517 -3.994,10.296 -3.715,10.296L-0.762,10.296C-0.516,10.296 -0.302,10.483 -0.269,10.738L1.699,13.285L1.699,13.353C1.699,13.607 1.519,13.811 1.289,13.862L-3.649,19.296ZM-3.715,10.636C-3.813,10.636 -3.879,10.704 -3.879,10.805L-3.879,18.787C-3.879,18.854 -3.83,18.922 -3.78,18.939L1.125,13.522L1.191,13.522C1.256,13.522 1.322,13.471 1.355,13.404L-0.614,10.873L-0.614,10.805C-0.614,10.704 -0.68,10.636 -0.778,10.636L-3.715,10.636Z" style="fill:rgb(35,28,28);fill-rule:nonzero;"/>
        <path d="M5.145,18.787C5.145,18.973 4.997,19.126 4.816,19.126L-3.715,19.126C-3.895,19.126 -4.043,18.973 -4.043,18.787L-3.223,11.994C-3.223,11.807 -3.075,11.654 -2.894,11.654L5.801,11.654C5.981,11.654 6.129,11.807 6.129,11.994L5.145,18.787Z" style="fill:rgb(250,197,70);fill-rule:nonzero;"/>
        <path d="M4.816,19.296L-3.715,19.296C-3.994,19.296 -4.207,19.075 -4.207,18.787L-4.207,18.77L-3.387,11.994C-3.387,11.722 -3.157,11.502 -2.894,11.502L5.801,11.502C6.08,11.502 6.293,11.722 6.293,12.011L6.293,12.028L5.309,18.804C5.292,19.075 5.079,19.296 4.816,19.296ZM-3.879,18.804C-3.879,18.888 -3.797,18.956 -3.715,18.956L4.816,18.956C4.915,18.956 4.981,18.888 4.981,18.787L4.981,18.77L5.965,11.994C5.965,11.909 5.883,11.841 5.801,11.841L-2.894,11.841C-2.993,11.841 -3.059,11.909 -3.059,12.011L-3.059,12.028L-3.879,18.804Z" style="fill:rgb(35,28,28);fill-rule:nonzero;"/>
    </g>
    <rect id="outer" x="0" y="0" width="30" height="30" style="fill:none;"/>
</svg>
