<?xml version="1.0" encoding="UTF-8" standalone="no"?>
<!DOCTYPE svg PUBLIC "-//W3C//DTD SVG 1.1//EN" "http://www.w3.org/Graphics/SVG/1.1/DTD/svg11.dtd">
<svg width="30px" height="30px" version="1.1" xmlns="http://www.w3.org/2000/svg" xmlns:xlink="http://www.w3.org/1999/xlink" xml:space="preserve" xmlns:serif="http://www.serif.com/" style="fill-rule:evenodd;clip-rule:evenodd;stroke-linejoin:round;">
    <g>
        <rect x="1" y="8.437" width="28" height="13.125" style="fill:none;stroke:rgb(136,136,136);stroke-width:1.94px;"/>
        <rect x="1" y="8.437" width="28" height="13.125" style="fill:rgb(221,221,221);"/>
        <rect x="2" y="9.374" width="26.001" height="11.25" style="fill:white;"/>
    </g>
    <g id="save">
        <path id="path9" d="M26.769,10.786L26.103,10.786L26.103,13.158C26.103,13.296 25.995,13.408 25.858,13.408L20.546,13.408C20.412,13.408 20.301,13.297 20.301,13.158L20.301,10.786L19.898,10.786L19.186,11.515L19.186,18.544C19.186,18.682 19.295,18.795 19.431,18.795L20.303,18.795L20.303,15.191C20.303,15.053 20.412,14.94 20.548,14.94L25.861,14.94C25.996,14.94 26.106,15.051 26.106,15.191L26.106,18.797L26.769,18.797C26.904,18.797 27.014,18.685 27.014,18.546L27.014,11.037C27.014,10.899 26.904,10.786 26.769,10.786Z" style="fill:rgb(86,172,224);fill-rule:nonzero;"/>
        <path id="path13" d="M20.789,15.43L20.789,18.798L25.606,18.798L25.606,15.43L20.789,15.43ZM24.521,17.973L21.87,17.973C21.736,17.973 21.627,17.862 21.627,17.722C21.627,17.583 21.736,17.47 21.87,17.47L24.521,17.47C24.656,17.47 24.766,17.582 24.766,17.722C24.766,17.86 24.656,17.973 24.521,17.973ZM24.521,16.756L21.87,16.756C21.736,16.756 21.627,16.642 21.627,16.505C21.627,16.367 21.736,16.254 21.87,16.254L24.521,16.254C24.656,16.254 24.766,16.365 24.766,16.505C24.766,16.644 24.656,16.756 24.521,16.756Z" style="fill:rgb(255,193,13);fill-rule:nonzero;"/>
        <g id="g23">
            <path id="path15" d="M26.767,10.287L19.798,10.287C19.735,10.287 19.672,10.314 19.625,10.36L18.769,11.234C18.724,11.282 18.698,11.346 18.698,11.412L18.698,18.537C18.698,18.951 19.027,19.287 19.432,19.287L26.767,19.287C27.171,19.287 27.5,18.951 27.5,18.537L27.5,11.037C27.5,10.624 27.171,10.287 26.767,10.287ZM20.791,10.787L25.614,10.787L25.614,12.906L20.791,12.906L20.791,10.787ZM20.791,18.788L20.791,15.435L25.614,15.435L25.614,18.788L20.791,18.788ZM27.012,18.537C27.012,18.675 26.903,18.788 26.767,18.788L26.101,18.788L26.101,15.186C26.101,15.048 25.993,14.935 25.856,14.935L20.546,14.935C20.412,14.935 20.301,15.047 20.301,15.186L20.301,18.788L19.432,18.788C19.297,18.788 19.187,18.676 19.187,18.537L19.187,11.515L19.899,10.787L20.303,10.787L20.303,13.155C20.303,13.293 20.412,13.406 20.548,13.406L25.859,13.406C25.994,13.406 26.104,13.295 26.104,13.155L26.104,10.787L26.767,10.787C26.901,10.787 27.012,10.898 27.012,11.037L27.012,18.537Z" style="fill:rgb(25,79,130);fill-rule:nonzero;"/>
            <path id="path17" d="M24.749,11.007C24.614,11.007 24.504,11.118 24.504,11.257L24.504,12.073C24.504,12.21 24.613,12.323 24.749,12.323C24.884,12.323 24.994,12.212 24.994,12.073L24.994,11.257C24.992,11.119 24.884,11.007 24.749,11.007Z" style="fill:rgb(25,79,130);fill-rule:nonzero;"/>
            <path id="path19" d="M24.521,16.249L21.87,16.249C21.736,16.249 21.626,16.36 21.626,16.499C21.626,16.636 21.734,16.75 21.87,16.75L24.521,16.75C24.656,16.75 24.766,16.638 24.766,16.499C24.766,16.36 24.656,16.249 24.521,16.249Z" style="fill:rgb(25,79,130);fill-rule:nonzero;"/>
            <path id="path21" d="M24.521,17.46L21.87,17.46C21.736,17.46 21.626,17.571 21.626,17.71C21.626,17.848 21.734,17.96 21.87,17.96L24.521,17.96C24.656,17.96 24.766,17.849 24.766,17.71C24.766,17.571 24.656,17.46 24.521,17.46Z" style="fill:rgb(25,79,130);fill-rule:nonzero;"/>
        </g>
    </g>
    <g id="open">
        <path d="M8.742,13.557C8.742,13.743 8.595,13.896 8.414,13.896L3.492,19.33C3.312,19.33 3.164,19.177 3.164,18.991L3.164,11.009C3.164,10.823 3.312,10.67 3.492,10.67L6.445,10.67C6.626,10.67 6.773,10.823 6.773,11.009L8.742,13.557Z" style="fill:rgb(211,172,81);fill-rule:nonzero;"/>
        <path d="M3.558,19.5L3.492,19.5C3.213,19.5 3,19.279 3,18.991L3,11.009C3,10.721 3.213,10.5 3.492,10.5L6.445,10.5C6.691,10.5 6.905,10.687 6.938,10.942L8.906,13.489L8.906,13.557C8.906,13.811 8.726,14.015 8.496,14.066L3.558,19.5ZM3.492,10.84C3.394,10.84 3.328,10.908 3.328,11.009L3.328,18.991C3.328,19.058 3.377,19.126 3.427,19.143L8.332,13.726L8.398,13.726C8.463,13.726 8.529,13.675 8.562,13.608L6.593,11.077L6.593,11.009C6.593,10.908 6.527,10.84 6.429,10.84L3.492,10.84Z" style="fill:rgb(35,28,28);fill-rule:nonzero;"/>
        <path d="M12.352,18.991C12.352,19.177 12.204,19.33 12.023,19.33L3.492,19.33C3.312,19.33 3.164,19.177 3.164,18.991L3.984,12.198C3.984,12.011 4.132,11.858 4.313,11.858L13.008,11.858C13.188,11.858 13.336,12.011 13.336,12.198L12.352,18.991Z" style="fill:rgb(250,197,70);fill-rule:nonzero;"/>
        <path d="M12.023,19.5L3.492,19.5C3.213,19.5 3,19.279 3,18.991L3,18.974L3.82,12.198C3.82,11.926 4.05,11.706 4.313,11.706L13.008,11.706C13.287,11.706 13.5,11.926 13.5,12.215L13.5,12.232L12.516,19.008C12.499,19.279 12.286,19.5 12.023,19.5ZM3.328,19.008C3.328,19.092 3.41,19.16 3.492,19.16L12.023,19.16C12.122,19.16 12.188,19.092 12.188,18.991L12.188,18.974L13.172,12.198C13.172,12.113 13.09,12.045 13.008,12.045L4.313,12.045C4.214,12.045 4.148,12.113 4.148,12.215L4.148,12.232L3.328,19.008Z" style="fill:rgb(35,28,28);fill-rule:nonzero;"/>
        <path d="M16,9.212L16,20.601" style="fill:none;stroke:black;stroke-width:3.11px;stroke-linecap:square;stroke-miterlimit:1.5;"/>
    </g>
    <rect id="outer" x="0" y="0" width="30" height="30" style="fill:none;"/>
</svg>
