<?xml version="1.0" encoding="UTF-8" standalone="no"?>
<!DOCTYPE svg PUBLIC "-//W3C//DTD SVG 1.1//EN" "http://www.w3.org/Graphics/SVG/1.1/DTD/svg11.dtd">
<svg width="30px" height="30px" version="1.1" xmlns="http://www.w3.org/2000/svg" xmlns:xlink="http://www.w3.org/1999/xlink" xml:space="preserve" xmlns:serif="http://www.serif.com/" style="fill-rule:evenodd;clip-rule:evenodd;stroke-linejoin:round;stroke-miterlimit:2;">
    <g id="Image">
        <path id="dots" d="M0,0L3,0L3,3L0,3L0,0ZM0,4.5L3,4.5L3,7.5L0,7.5L0,4.5ZM0,9L3,9L3,12L0,12L0,9ZM0,13.5L3,13.5L3,16.5L0,16.5L0,13.5ZM0,18L3,18L3,21L0,21L0,18ZM0,22.5L3,22.5L3,25.5L0,25.5L0,22.5ZM0,27L3,27L3,30L0,30L0,27ZM4.5,27L7.5,27L7.5,30L4.5,30L4.5,27ZM9,27L12,27L12,30L9,30L9,27ZM13.5,27L16.5,27L16.5,30L13.5,30L13.5,27ZM18,27L21,27L21,30L18,30L18,27ZM22.5,27L25.5,27L25.5,30L22.5,30L22.5,27ZM27,0L30,0L30,3L27,3L27,0ZM27,4.5L30,4.5L30,7.5L27,7.5L27,4.5ZM27,9L30,9L30,12L27,12L27,9ZM27,13.5L30,13.5L30,16.5L27,16.5L27,13.5ZM27,18L30,18L30,21L27,21L27,18ZM27,22.5L30,22.5L30,25.5L27,25.5L27,22.5ZM27,27L30,27L30,30L27,30L27,27Z" style="fill:rgb(0,0,255);fill-rule:nonzero;"/>
        <rect id="red" x="4.5" y="0" width="21" height="3" style="fill:rgb(255,0,0);"/>
    </g>
</svg>
