<?xml version="1.0" encoding="UTF-8" standalone="no"?><!DOCTYPE svg PUBLIC "-//W3C//DTD SVG 1.1//EN" "http://www.w3.org/Graphics/SVG/1.1/DTD/svg11.dtd"><svg width="100%" height="100%" viewBox="0 0 32 32" version="1.1" xmlns="http://www.w3.org/2000/svg" xmlns:xlink="http://www.w3.org/1999/xlink" xml:space="preserve" xmlns:serif="http://www.serif.com/" style="fill-rule:evenodd;clip-rule:evenodd;stroke-linejoin:round;stroke-miterlimit:2;"><g id="Image"><g id="g13833"><path id="dots" d="M1,1l3,0l-0,3l-3,0l-0,-3Zm-0,4.5l3,0l-0,3l-3,0l-0,-3Zm-0,4.5l3,0l-0,3l-3,0l-0,-3Zm-0,4.5l3,0l-0,3l-3,0l-0,-3Zm-0,4.5l3,0l-0,3l-3,0l-0,-3Zm-0,4.5l3,0l-0,3l-3,0l-0,-3Zm-0,4.5l3,0l-0,3l-3,0l-0,-3Zm4.5,0l3,0l-0,3l-3,0l-0,-3Zm4.5,0l3,0l-0,3l-3,0l-0,-3Zm4.5,0l3,0l-0,3l-3,0l-0,-3Zm4.5,0l3,0l-0,3l-3,0l-0,-3Zm4.5,0l3,0l-0,3l-3,0l-0,-3Zm4.5,-27l3,0l-0,3l-3,0l-0,-3Zm-0,4.5l3,0l-0,3l-3,0l-0,-3Zm-0,4.5l3,0l-0,3l-3,0l-0,-3Zm-0,4.5l3,0l-0,3l-3,0l-0,-3Zm-0,4.5l3,0l-0,3l-3,0l-0,-3Zm-0,4.5l3,0l-0,3l-3,0l-0,-3Zm-0,4.5l3,0l-0,3l-3,0l-0,-3Z" style="fill:#00f;fill-rule:nonzero;"/><path id="red" d="M4.293,1l23.597,0l0,2.587l-23.597,0l-0,-2.587Z" style="fill:#f00;fill-rule:nonzero;"/></g></g></svg>