<?xml version="1.0" encoding="UTF-8" standalone="no"?>
<!DOCTYPE svg PUBLIC "-//W3C//DTD SVG 1.1//EN" "http://www.w3.org/Graphics/SVG/1.1/DTD/svg11.dtd">
<svg width="30px" height="30px" version="1.1" xmlns="http://www.w3.org/2000/svg" xmlns:xlink="http://www.w3.org/1999/xlink" xml:space="preserve" xmlns:serif="http://www.serif.com/" style="fill-rule:evenodd;clip-rule:evenodd;stroke-linejoin:round;stroke-miterlimit:2;">
    <rect id="outer" x="0" y="0" width="30" height="30" style="fill:white;stroke:rgb(126,126,126);stroke-width:0.54px;"/>
    <rect x="0.255" y="0.255" width="29.473" height="6.245" style="fill:rgb(88,115,242);"/>
    <rect x="13.583" y="6.707" width="16.244" height="4.157" style="fill:none;stroke:rgb(129,129,129);stroke-width:0.32px;stroke-linecap:round;stroke-miterlimit:1.5;"/>
    <path d="M1.729,1.216L3.762,5.192L5.795,1.216" style="fill:none;stroke:black;stroke-width:0.45px;stroke-linecap:round;stroke-miterlimit:1.5;"/>
    <path d="M9.708,4.499L8.513,4.499L8.513,1.331L8.782,1.331L8.782,4.163L9.708,4.163L9.708,4.499Z" style="fill-rule:nonzero;"/>
    <path d="M10.713,4.552C10.47,4.552 10.276,4.446 10.131,4.235C9.986,4.024 9.913,3.743 9.913,3.394C9.913,3.014 9.989,2.718 10.14,2.504C10.291,2.291 10.495,2.184 10.752,2.184C10.997,2.184 11.188,2.288 11.326,2.495C11.464,2.703 11.532,2.991 11.532,3.359C11.532,3.72 11.458,4.009 11.31,4.226C11.162,4.443 10.963,4.552 10.713,4.552ZM10.733,2.489C10.563,2.489 10.429,2.568 10.331,2.726C10.232,2.884 10.183,3.103 10.183,3.381C10.183,3.649 10.233,3.86 10.333,4.015C10.432,4.17 10.565,4.247 10.733,4.247C10.903,4.247 11.034,4.171 11.125,4.019C11.217,3.868 11.263,3.652 11.263,3.372C11.263,3.089 11.217,2.872 11.125,2.718C11.034,2.565 10.903,2.489 10.733,2.489Z" style="fill-rule:nonzero;"/>
    <path d="M12.811,2.604C12.765,2.555 12.699,2.531 12.612,2.531C12.499,2.531 12.405,2.604 12.33,2.749C12.254,2.895 12.217,3.094 12.217,3.346L12.217,4.499L11.953,4.499L11.953,2.237L12.217,2.237L12.217,2.703L12.223,2.703C12.261,2.544 12.318,2.42 12.395,2.331C12.472,2.242 12.558,2.197 12.654,2.197C12.722,2.197 12.775,2.207 12.811,2.228L12.811,2.604Z" style="fill-rule:nonzero;"/>
    <path d="M14.419,3.458L13.258,3.458C13.262,3.71 13.311,3.905 13.405,4.042C13.5,4.179 13.629,4.247 13.794,4.247C13.979,4.247 14.15,4.163 14.305,3.995L14.305,4.335C14.16,4.48 13.969,4.552 13.731,4.552C13.499,4.552 13.317,4.449 13.184,4.244C13.051,4.038 12.985,3.749 12.985,3.377C12.985,3.025 13.057,2.738 13.202,2.516C13.347,2.295 13.527,2.184 13.743,2.184C13.958,2.184 14.124,2.28 14.242,2.471C14.36,2.662 14.419,2.928 14.419,3.268L14.419,3.458ZM14.149,3.151C14.148,2.942 14.111,2.779 14.039,2.663C13.967,2.547 13.866,2.489 13.738,2.489C13.614,2.489 13.508,2.55 13.421,2.672C13.335,2.794 13.281,2.954 13.261,3.151L14.149,3.151Z" style="fill-rule:nonzero;"/>
    <path d="M17.153,4.499L16.889,4.499L16.889,3.2C16.889,2.95 16.861,2.768 16.805,2.657C16.749,2.545 16.654,2.489 16.522,2.489C16.409,2.489 16.314,2.559 16.235,2.701C16.156,2.842 16.117,3.011 16.117,3.209L16.117,4.499L15.853,4.499L15.853,3.156C15.853,2.711 15.729,2.489 15.479,2.489C15.363,2.489 15.268,2.555 15.193,2.689C15.118,2.822 15.081,2.995 15.081,3.209L15.081,4.499L14.817,4.499L14.817,2.237L15.081,2.237L15.081,2.595L15.087,2.595C15.204,2.321 15.374,2.184 15.598,2.184C15.71,2.184 15.808,2.227 15.892,2.313C15.975,2.399 16.033,2.512 16.064,2.652C16.186,2.34 16.368,2.184 16.61,2.184C16.972,2.184 17.153,2.491 17.153,3.105L17.153,4.499Z" style="fill-rule:nonzero;"/>
    <rect x="18.587" y="1.331" width="0.27" height="3.168"/>
    <path d="M19.697,4.172L19.691,4.172L19.691,5.539L19.427,5.539L19.427,2.237L19.691,2.237L19.691,2.634L19.697,2.634C19.827,2.334 20.016,2.184 20.266,2.184C20.478,2.184 20.643,2.285 20.762,2.488C20.881,2.69 20.941,2.961 20.941,3.302C20.941,3.68 20.874,3.983 20.74,4.211C20.606,4.438 20.423,4.552 20.19,4.552C19.977,4.552 19.813,4.425 19.697,4.172ZM19.691,3.26L19.691,3.575C19.691,3.762 19.735,3.921 19.823,4.051C19.912,4.182 20.024,4.247 20.16,4.247C20.319,4.247 20.444,4.163 20.535,3.995C20.625,3.827 20.671,3.594 20.671,3.295C20.671,3.043 20.628,2.846 20.544,2.703C20.459,2.56 20.345,2.489 20.2,2.489C20.047,2.489 19.924,2.562 19.831,2.708C19.737,2.855 19.691,3.039 19.691,3.26Z" style="fill-rule:nonzero;"/>
    <path d="M21.262,4.417L21.262,4.028C21.405,4.174 21.563,4.247 21.736,4.247C21.967,4.247 22.083,4.141 22.083,3.929C22.083,3.869 22.073,3.817 22.053,3.775C22.033,3.733 22.006,3.696 21.973,3.664C21.939,3.631 21.899,3.602 21.854,3.577C21.808,3.551 21.759,3.524 21.707,3.496C21.634,3.456 21.57,3.416 21.515,3.376C21.46,3.335 21.414,3.289 21.377,3.239C21.34,3.188 21.312,3.13 21.293,3.065C21.274,3 21.265,2.925 21.265,2.838C21.265,2.732 21.283,2.638 21.318,2.556C21.353,2.474 21.401,2.406 21.459,2.351C21.518,2.295 21.586,2.254 21.661,2.226C21.736,2.198 21.814,2.184 21.895,2.184C22.037,2.184 22.165,2.218 22.277,2.285L22.277,2.652C22.156,2.543 22.017,2.489 21.859,2.489C21.81,2.489 21.766,2.496 21.726,2.512C21.686,2.527 21.652,2.549 21.624,2.577C21.596,2.605 21.574,2.638 21.558,2.678C21.543,2.717 21.535,2.76 21.535,2.807C21.535,2.866 21.543,2.915 21.558,2.955C21.574,2.994 21.596,3.03 21.626,3.061C21.656,3.092 21.693,3.12 21.736,3.145C21.779,3.17 21.827,3.197 21.882,3.226C21.955,3.265 22.02,3.304 22.078,3.345C22.136,3.385 22.185,3.431 22.226,3.482C22.266,3.532 22.298,3.591 22.32,3.657C22.342,3.723 22.353,3.802 22.353,3.894C22.353,4.005 22.335,4.103 22.299,4.185C22.263,4.268 22.215,4.336 22.155,4.391C22.095,4.445 22.026,4.486 21.948,4.512C21.87,4.539 21.788,4.552 21.702,4.552C21.533,4.552 21.386,4.507 21.262,4.417Z" style="fill-rule:nonzero;"/>
    <path d="M24.087,4.499L23.824,4.499L23.824,4.141L23.817,4.141C23.708,4.415 23.539,4.552 23.31,4.552C22.918,4.552 22.722,4.231 22.722,3.589L22.722,2.237L22.984,2.237L22.984,3.531C22.984,4.008 23.117,4.247 23.382,4.247C23.511,4.247 23.616,4.182 23.699,4.051C23.782,3.921 23.824,3.751 23.824,3.54L23.824,2.237L24.087,2.237L24.087,4.499Z" style="fill-rule:nonzero;"/>
    <path d="M26.955,4.499L26.691,4.499L26.691,3.2C26.691,2.95 26.663,2.768 26.607,2.657C26.551,2.545 26.456,2.489 26.323,2.489C26.211,2.489 26.115,2.559 26.037,2.701C25.958,2.842 25.919,3.011 25.919,3.209L25.919,4.499L25.655,4.499L25.655,3.156C25.655,2.711 25.53,2.489 25.281,2.489C25.165,2.489 25.07,2.555 24.995,2.689C24.92,2.822 24.882,2.995 24.882,3.209L24.882,4.499L24.619,4.499L24.619,2.237L24.882,2.237L24.882,2.595L24.889,2.595C25.006,2.321 25.176,2.184 25.4,2.184C25.512,2.184 25.61,2.227 25.694,2.313C25.777,2.399 25.834,2.512 25.866,2.652C25.988,2.34 26.17,2.184 26.412,2.184C26.774,2.184 26.955,2.491 26.955,3.105L26.955,4.499Z" style="fill-rule:nonzero;"/>
    <path d="M28.746,2.237L28.09,4.499L27.832,4.499L27.208,2.237L27.498,2.237L27.915,3.88C27.946,4.001 27.965,4.106 27.973,4.196L27.979,4.196C27.99,4.083 28.007,3.98 28.031,3.889L28.468,2.237L28.746,2.237Z" style="fill-rule:nonzero;"/>
    <path d="M8.375,11L9.907,14.976L11.44,11" style="fill:none;stroke:black;stroke-width:0.45px;stroke-linecap:round;stroke-miterlimit:1.5;"/>
    <path d="M14.391,14.283L13.49,14.283L13.49,11.115L13.693,11.115L13.693,13.947L14.391,13.947L14.391,14.283Z" style="fill-rule:nonzero;"/>
    <path d="M15.149,14.336C14.966,14.336 14.819,14.23 14.71,14.019C14.601,13.808 14.546,13.528 14.546,13.179C14.546,12.799 14.603,12.502 14.717,12.288C14.83,12.075 14.984,11.968 15.178,11.968C15.363,11.968 15.507,12.072 15.611,12.28C15.715,12.487 15.767,12.775 15.767,13.143C15.767,13.504 15.711,13.793 15.599,14.01C15.487,14.227 15.337,14.336 15.149,14.336ZM15.164,12.273C15.036,12.273 14.935,12.352 14.861,12.51C14.786,12.669 14.749,12.887 14.749,13.165C14.749,13.433 14.787,13.645 14.862,13.799C14.937,13.954 15.038,14.031 15.164,14.031C15.292,14.031 15.391,13.955 15.46,13.804C15.529,13.652 15.563,13.436 15.563,13.156C15.563,12.874 15.529,12.656 15.46,12.503C15.391,12.349 15.292,12.273 15.164,12.273Z" style="fill-rule:nonzero;"/>
    <path d="M16.731,12.388C16.696,12.339 16.646,12.315 16.581,12.315C16.496,12.315 16.425,12.388 16.368,12.534C16.311,12.679 16.283,12.878 16.283,13.13L16.283,14.283L16.084,14.283L16.084,12.021L16.283,12.021L16.283,12.487L16.288,12.487C16.316,12.328 16.359,12.204 16.417,12.115C16.475,12.026 16.54,11.981 16.612,11.981C16.664,11.981 16.703,11.992 16.731,12.012L16.731,12.388Z" style="fill-rule:nonzero;"/>
    <path d="M17.943,13.243L17.067,13.243C17.071,13.494 17.108,13.689 17.179,13.826C17.25,13.963 17.348,14.031 17.472,14.031C17.612,14.031 17.74,13.947 17.857,13.779L17.857,14.12C17.748,14.264 17.604,14.336 17.425,14.336C17.25,14.336 17.112,14.233 17.012,14.028C16.912,13.822 16.862,13.533 16.862,13.161C16.862,12.809 16.916,12.522 17.026,12.301C17.135,12.079 17.271,11.968 17.433,11.968C17.596,11.968 17.721,12.064 17.81,12.255C17.899,12.447 17.943,12.712 17.943,13.053L17.943,13.243ZM17.74,12.936C17.739,12.726 17.711,12.564 17.657,12.447C17.602,12.331 17.527,12.273 17.43,12.273C17.336,12.273 17.256,12.334 17.191,12.456C17.126,12.578 17.085,12.738 17.07,12.936L17.74,12.936Z" style="fill-rule:nonzero;"/>
    <path d="M20.005,14.283L19.806,14.283L19.806,12.984C19.806,12.734 19.785,12.553 19.742,12.441C19.7,12.329 19.629,12.273 19.529,12.273C19.444,12.273 19.372,12.344 19.312,12.485C19.253,12.626 19.223,12.796 19.223,12.993L19.223,14.283L19.025,14.283L19.025,12.94C19.025,12.495 18.931,12.273 18.743,12.273C18.655,12.273 18.583,12.34 18.527,12.473C18.47,12.606 18.442,12.779 18.442,12.993L18.442,14.283L18.244,14.283L18.244,12.021L18.442,12.021L18.442,12.379L18.447,12.379C18.535,12.105 18.663,11.968 18.832,11.968C18.917,11.968 18.991,12.011 19.054,12.097C19.117,12.183 19.16,12.296 19.183,12.436C19.275,12.124 19.413,11.968 19.595,11.968C19.868,11.968 20.005,12.275 20.005,12.889L20.005,14.283Z" style="fill-rule:nonzero;"/>
    <rect x="21.086" y="11.115" width="0.203" height="3.168"/>
    <path d="M21.923,13.956L21.918,13.956L21.918,15.323L21.72,15.323L21.72,12.021L21.918,12.021L21.918,12.419L21.923,12.419C22.021,12.118 22.164,11.968 22.352,11.968C22.512,11.968 22.636,12.069 22.726,12.272C22.816,12.474 22.861,12.746 22.861,13.086C22.861,13.464 22.81,13.767 22.709,13.995C22.608,14.222 22.47,14.336 22.295,14.336C22.134,14.336 22.01,14.209 21.923,13.956ZM21.918,13.044L21.918,13.36C21.918,13.547 21.952,13.705 22.018,13.836C22.085,13.966 22.169,14.031 22.272,14.031C22.392,14.031 22.486,13.947 22.555,13.779C22.623,13.612 22.657,13.378 22.657,13.079C22.657,12.827 22.625,12.63 22.561,12.487C22.498,12.344 22.411,12.273 22.302,12.273C22.187,12.273 22.094,12.346 22.024,12.493C21.953,12.639 21.918,12.823 21.918,13.044Z" style="fill-rule:nonzero;"/>
    <path d="M23.103,14.201L23.103,13.813C23.211,13.958 23.33,14.031 23.46,14.031C23.634,14.031 23.722,13.925 23.722,13.713C23.722,13.653 23.714,13.602 23.699,13.56C23.684,13.518 23.664,13.48 23.639,13.448C23.613,13.416 23.583,13.387 23.549,13.361C23.515,13.335 23.478,13.308 23.438,13.28C23.383,13.24 23.335,13.2 23.294,13.16C23.252,13.119 23.217,13.074 23.189,13.023C23.162,12.972 23.141,12.914 23.126,12.849C23.112,12.785 23.105,12.709 23.105,12.622C23.105,12.516 23.119,12.422 23.145,12.34C23.172,12.259 23.207,12.19 23.252,12.135C23.296,12.08 23.347,12.038 23.404,12.01C23.461,11.982 23.519,11.968 23.58,11.968C23.687,11.968 23.783,12.002 23.868,12.07L23.868,12.436C23.777,12.327 23.672,12.273 23.553,12.273C23.516,12.273 23.483,12.281 23.453,12.296C23.423,12.312 23.397,12.333 23.376,12.361C23.354,12.389 23.338,12.423 23.326,12.462C23.315,12.501 23.309,12.544 23.309,12.591C23.309,12.65 23.315,12.699 23.326,12.739C23.338,12.779 23.355,12.814 23.378,12.845C23.4,12.876 23.428,12.904 23.46,12.929C23.492,12.954 23.529,12.981 23.57,13.011C23.625,13.049 23.674,13.088 23.718,13.129C23.762,13.169 23.799,13.215 23.829,13.266C23.86,13.317 23.884,13.375 23.9,13.441C23.917,13.508 23.925,13.587 23.925,13.678C23.925,13.79 23.912,13.887 23.885,13.969C23.858,14.052 23.821,14.12 23.776,14.175C23.731,14.229 23.679,14.27 23.62,14.296C23.561,14.323 23.499,14.336 23.435,14.336C23.307,14.336 23.196,14.291 23.103,14.201Z" style="fill-rule:nonzero;"/>
    <path d="M25.233,14.283L25.035,14.283L25.035,13.925L25.03,13.925C24.947,14.199 24.82,14.336 24.647,14.336C24.351,14.336 24.204,14.015 24.204,13.373L24.204,12.021L24.401,12.021L24.401,13.316C24.401,13.793 24.501,14.031 24.702,14.031C24.798,14.031 24.878,13.966 24.941,13.836C25.003,13.705 25.035,13.535 25.035,13.324L25.035,12.021L25.233,12.021L25.233,14.283Z" style="fill-rule:nonzero;"/>
    <path d="M27.395,14.283L27.197,14.283L27.197,12.984C27.197,12.734 27.175,12.553 27.133,12.441C27.091,12.329 27.019,12.273 26.919,12.273C26.834,12.273 26.762,12.344 26.703,12.485C26.644,12.626 26.614,12.796 26.614,12.993L26.614,14.283L26.415,14.283L26.415,12.94C26.415,12.495 26.321,12.273 26.133,12.273C26.046,12.273 25.974,12.34 25.918,12.473C25.861,12.606 25.833,12.779 25.833,12.993L25.833,14.283L25.634,14.283L25.634,12.021L25.833,12.021L25.833,12.379L25.838,12.379C25.926,12.105 26.054,11.968 26.223,11.968C26.308,11.968 26.381,12.011 26.444,12.097C26.507,12.183 26.551,12.296 26.574,12.436C26.666,12.124 26.803,11.968 26.986,11.968C27.259,11.968 27.395,12.275 27.395,12.889L27.395,14.283Z" style="fill-rule:nonzero;"/>
    <path d="M28.746,12.021L28.251,14.283L28.056,14.283L27.587,12.021L27.805,12.021L28.119,13.665C28.143,13.785 28.157,13.891 28.163,13.98L28.168,13.98C28.176,13.867 28.189,13.765 28.207,13.673L28.536,12.021L28.746,12.021Z" style="fill-rule:nonzero;"/>
    <path d="M8.261,23.398L12.237,21.865L8.261,20.332" style="fill:none;stroke:black;stroke-width:0.45px;stroke-linecap:round;stroke-miterlimit:1.5;"/>
    <path d="M15.268,10.365L14.5,10.365L14.5,7.197L14.673,7.197L14.673,10.029L15.268,10.029L15.268,10.365Z" style="fill-rule:nonzero;"/>
    <path d="M15.914,10.418C15.758,10.418 15.633,10.312 15.54,10.101C15.446,9.89 15.4,9.61 15.4,9.261C15.4,8.881 15.448,8.584 15.545,8.37C15.642,8.157 15.773,8.05 15.939,8.05C16.096,8.05 16.219,8.154 16.307,8.361C16.396,8.569 16.44,8.857 16.44,9.225C16.44,9.586 16.393,9.875 16.297,10.092C16.202,10.309 16.074,10.418 15.914,10.418ZM15.926,8.355C15.818,8.355 15.732,8.434 15.668,8.592C15.605,8.751 15.574,8.969 15.574,9.247C15.574,9.515 15.605,9.727 15.669,9.881C15.734,10.036 15.819,10.113 15.926,10.113C16.036,10.113 16.12,10.037 16.179,9.886C16.237,9.734 16.267,9.518 16.267,9.238C16.267,8.956 16.237,8.738 16.179,8.585C16.12,8.431 16.036,8.355 15.926,8.355Z" style="fill-rule:nonzero;"/>
    <path d="M17.261,8.47C17.232,8.421 17.189,8.397 17.134,8.397C17.062,8.397 17.001,8.47 16.952,8.616C16.904,8.761 16.88,8.96 16.88,9.212L16.88,10.365L16.711,10.365L16.711,8.103L16.88,8.103L16.88,8.569L16.884,8.569C16.908,8.41 16.945,8.286 16.994,8.197C17.044,8.108 17.099,8.063 17.16,8.063C17.205,8.063 17.238,8.074 17.261,8.094L17.261,8.47Z" style="fill-rule:nonzero;"/>
    <path d="M18.294,9.325L17.549,9.325C17.551,9.576 17.583,9.771 17.644,9.908C17.704,10.045 17.788,10.113 17.894,10.113C18.012,10.113 18.122,10.029 18.221,9.861L18.221,10.202C18.129,10.346 18.006,10.418 17.853,10.418C17.704,10.418 17.586,10.315 17.501,10.11C17.416,9.904 17.373,9.615 17.373,9.243C17.373,8.891 17.42,8.604 17.513,8.382C17.606,8.161 17.722,8.05 17.86,8.05C17.998,8.05 18.106,8.146 18.181,8.337C18.257,8.529 18.294,8.794 18.294,9.135L18.294,9.325ZM18.122,9.018C18.12,8.808 18.097,8.646 18.05,8.529C18.004,8.413 17.94,8.355 17.857,8.355C17.777,8.355 17.71,8.416 17.654,8.538C17.598,8.66 17.564,8.82 17.55,9.018L18.122,9.018Z" style="fill-rule:nonzero;"/>
    <path d="M20.051,10.365L19.882,10.365L19.882,9.066C19.882,8.816 19.864,8.635 19.828,8.523C19.791,8.411 19.731,8.355 19.646,8.355C19.574,8.355 19.512,8.426 19.461,8.567C19.411,8.708 19.385,8.878 19.385,9.075L19.385,10.365L19.216,10.365L19.216,9.022C19.216,8.577 19.136,8.355 18.976,8.355C18.902,8.355 18.841,8.422 18.792,8.555C18.744,8.688 18.72,8.861 18.72,9.075L18.72,10.365L18.551,10.365L18.551,8.103L18.72,8.103L18.72,8.461L18.724,8.461C18.799,8.187 18.909,8.05 19.052,8.05C19.125,8.05 19.188,8.093 19.241,8.179C19.295,8.265 19.331,8.378 19.351,8.518C19.43,8.206 19.547,8.05 19.702,8.05C19.935,8.05 20.051,8.357 20.051,8.971L20.051,10.365Z" style="fill-rule:nonzero;"/>
    <rect x="13.583" y="11.167" width="16.244" height="4.157" style="fill:rgb(67,171,241);stroke:rgb(129,129,129);stroke-width:0.32px;stroke-linecap:round;stroke-miterlimit:1.5;"/>
    <g id="text">
        <path d="M14.849,14.501L14.125,14.501L14.125,12.043L14.289,12.043L14.289,14.24L14.849,14.24L14.849,14.501Z" style="fill-rule:nonzero;"/>
        <path d="M15.459,14.542C15.312,14.542 15.193,14.46 15.106,14.296C15.018,14.132 14.974,13.914 14.974,13.644C14.974,13.348 15.02,13.119 15.111,12.953C15.203,12.787 15.326,12.704 15.482,12.704C15.631,12.704 15.747,12.785 15.83,12.946C15.914,13.107 15.956,13.331 15.956,13.616C15.956,13.896 15.91,14.12 15.82,14.289C15.731,14.457 15.61,14.542 15.459,14.542ZM15.47,12.941C15.368,12.941 15.287,13.002 15.227,13.125C15.167,13.248 15.137,13.418 15.137,13.633C15.137,13.841 15.168,14.005 15.228,14.125C15.289,14.245 15.369,14.305 15.47,14.305C15.573,14.305 15.653,14.246 15.709,14.128C15.764,14.011 15.792,13.844 15.792,13.627C15.792,13.407 15.764,13.238 15.709,13.119C15.653,13 15.573,12.941 15.47,12.941Z" style="fill-rule:nonzero;"/>
        <rect x="16.189" y="13.412" width="0.532" height="0.221"/>
        <path d="M17.528,13.03C17.5,12.992 17.46,12.974 17.407,12.974C17.339,12.974 17.282,13.03 17.236,13.143C17.191,13.256 17.167,13.41 17.167,13.606L17.167,14.501L17.008,14.501L17.008,12.745L17.167,12.745L17.167,13.107L17.171,13.107C17.195,12.983 17.229,12.888 17.275,12.819C17.323,12.75 17.375,12.715 17.432,12.715C17.474,12.715 17.506,12.723 17.528,12.738L17.528,13.03Z" style="fill-rule:nonzero;"/>
        <path d="M18.502,13.693L17.799,13.693C17.801,13.889 17.831,14.04 17.888,14.146C17.946,14.252 18.024,14.305 18.124,14.305C18.236,14.305 18.339,14.24 18.434,14.11L18.434,14.374C18.346,14.486 18.23,14.542 18.086,14.542C17.945,14.542 17.835,14.462 17.754,14.303C17.674,14.144 17.633,13.919 17.633,13.63C17.633,13.357 17.677,13.135 17.765,12.963C17.853,12.791 17.962,12.704 18.093,12.704C18.223,12.704 18.324,12.778 18.395,12.927C18.467,13.076 18.502,13.282 18.502,13.546L18.502,13.693ZM18.339,13.455C18.338,13.293 18.316,13.167 18.272,13.076C18.229,12.986 18.168,12.941 18.09,12.941C18.014,12.941 17.951,12.988 17.898,13.083C17.846,13.178 17.813,13.302 17.801,13.455L18.339,13.455Z" style="fill-rule:nonzero;"/>
        <path d="M20.16,14.501L20.001,14.501L20.001,13.493C20.001,13.299 19.983,13.158 19.949,13.071C19.915,12.984 19.858,12.941 19.777,12.941C19.709,12.941 19.651,12.996 19.604,13.106C19.556,13.215 19.532,13.347 19.532,13.5L19.532,14.501L19.372,14.501L19.372,13.459C19.372,13.114 19.297,12.941 19.145,12.941C19.075,12.941 19.018,12.992 18.972,13.096C18.926,13.2 18.904,13.334 18.904,13.5L18.904,14.501L18.744,14.501L18.744,12.745L18.904,12.745L18.904,13.023L18.908,13.023C18.978,12.811 19.081,12.704 19.217,12.704C19.285,12.704 19.345,12.737 19.396,12.805C19.446,12.872 19.481,12.959 19.5,13.068C19.573,12.825 19.684,12.704 19.831,12.704C20.05,12.704 20.16,12.942 20.16,13.419L20.16,14.501Z" style="fill-rule:nonzero;"/>
        <path d="M22.843,14.248L22.151,14.248L22.151,11.954L22.307,11.954L22.307,14.004L22.843,14.004L22.843,14.248Z" style="fill-rule:nonzero;"/>
        <path d="M23.425,14.287C23.285,14.287 23.172,14.21 23.088,14.057C23.004,13.904 22.962,13.701 22.962,13.448C22.962,13.173 23.006,12.958 23.094,12.803C23.181,12.648 23.299,12.571 23.448,12.571C23.59,12.571 23.701,12.647 23.781,12.797C23.861,12.947 23.9,13.156 23.9,13.422C23.9,13.684 23.857,13.893 23.771,14.05C23.685,14.208 23.57,14.287 23.425,14.287ZM23.437,12.792C23.339,12.792 23.262,12.849 23.204,12.964C23.147,13.078 23.118,13.237 23.118,13.439C23.118,13.632 23.147,13.786 23.205,13.898C23.263,14.009 23.34,14.066 23.437,14.066C23.535,14.066 23.611,14.011 23.665,13.901C23.717,13.791 23.744,13.635 23.744,13.432C23.744,13.227 23.717,13.069 23.665,12.959C23.611,12.848 23.535,12.792 23.437,12.792Z" style="fill-rule:nonzero;"/>
        <path d="M24.641,12.875C24.614,12.84 24.576,12.823 24.525,12.823C24.46,12.823 24.406,12.875 24.362,12.981C24.318,13.086 24.297,13.23 24.297,13.413L24.297,14.248L24.144,14.248L24.144,12.61L24.297,12.61L24.297,12.947L24.301,12.947C24.322,12.832 24.355,12.742 24.4,12.678C24.445,12.613 24.494,12.581 24.549,12.581C24.589,12.581 24.62,12.589 24.641,12.603L24.641,12.875Z" style="fill-rule:nonzero;"/>
        <path d="M25.572,13.495L24.9,13.495C24.902,13.676 24.931,13.817 24.985,13.917C25.04,14.016 25.115,14.066 25.211,14.066C25.318,14.066 25.416,14.004 25.506,13.883L25.506,14.13C25.423,14.234 25.312,14.287 25.174,14.287C25.04,14.287 24.934,14.212 24.856,14.063C24.78,13.914 24.741,13.705 24.741,13.435C24.741,13.18 24.784,12.972 24.868,12.812C24.952,12.651 25.056,12.571 25.18,12.571C25.305,12.571 25.402,12.641 25.47,12.779C25.538,12.918 25.572,13.11 25.572,13.357L25.572,13.495ZM25.416,13.272C25.416,13.121 25.394,13.003 25.352,12.918C25.311,12.834 25.252,12.792 25.178,12.792C25.106,12.792 25.044,12.836 24.995,12.925C24.944,13.013 24.913,13.129 24.901,13.272L25.416,13.272Z" style="fill-rule:nonzero;"/>
        <path d="M27.156,14.248L27.003,14.248L27.003,13.307C27.003,13.126 26.987,12.995 26.954,12.914C26.922,12.832 26.867,12.792 26.79,12.792C26.726,12.792 26.67,12.844 26.624,12.946C26.579,13.048 26.556,13.171 26.556,13.314L26.556,14.248L26.403,14.248L26.403,13.275C26.403,12.953 26.331,12.792 26.187,12.792C26.119,12.792 26.064,12.84 26.021,12.937C25.978,13.033 25.955,13.159 25.955,13.314L25.955,14.248L25.803,14.248L25.803,12.61L25.955,12.61L25.955,12.868L25.959,12.868C26.027,12.671 26.126,12.571 26.255,12.571C26.32,12.571 26.377,12.602 26.426,12.665C26.474,12.727 26.507,12.809 26.525,12.91C26.596,12.684 26.702,12.571 26.842,12.571C27.051,12.571 27.156,12.794 27.156,13.238L27.156,14.248Z" style="fill-rule:nonzero;"/>
    </g>
    <path d="M21.012,11.773L21.071,14.796" style="fill:none;stroke:rgb(128,128,128);stroke-width:1px;stroke-linecap:square;stroke-miterlimit:1.5;"/>
    <path d="M20.941,7.342L21,10.365" style="fill:none;stroke:rgb(128,128,128);stroke-width:1px;stroke-linecap:square;stroke-miterlimit:1.5;"/>
    <path d="M24.034,7.59L23.334,7.59L23.334,10.248L23.051,10.248L23.051,7.59L22.353,7.59L22.353,7.275L24.034,7.275L24.034,7.59Z" style="fill-rule:nonzero;"/>
    <path d="M25.429,9.272L24.208,9.272C24.212,9.508 24.264,9.69 24.363,9.819C24.462,9.947 24.598,10.012 24.772,10.012C24.966,10.012 25.146,9.933 25.309,9.775L25.309,10.095C25.157,10.23 24.956,10.298 24.706,10.298C24.461,10.298 24.269,10.201 24.13,10.009C23.99,9.816 23.92,9.544 23.92,9.195C23.92,8.864 23.997,8.595 24.149,8.387C24.302,8.179 24.491,8.075 24.718,8.075C24.944,8.075 25.119,8.165 25.243,8.345C25.367,8.525 25.429,8.774 25.429,9.093L25.429,9.272ZM25.145,8.983C25.144,8.787 25.105,8.634 25.029,8.525C24.953,8.416 24.848,8.361 24.713,8.361C24.582,8.361 24.471,8.419 24.38,8.533C24.289,8.648 24.232,8.798 24.211,8.983L25.145,8.983Z" style="fill-rule:nonzero;"/>
    <path d="M27.111,8.125L26.53,9.199L27.101,10.248L26.778,10.248L26.439,9.56C26.417,9.517 26.392,9.463 26.363,9.398L26.356,9.398C26.35,9.41 26.324,9.464 26.277,9.56L25.93,10.248L25.611,10.248L26.201,9.207L25.636,8.125L25.959,8.125L26.294,8.851C26.318,8.905 26.342,8.96 26.366,9.017L26.373,9.017L26.805,8.125L27.111,8.125Z" style="fill-rule:nonzero;"/>
    <path d="M28.238,10.227C28.172,10.271 28.086,10.294 27.979,10.294C27.676,10.294 27.525,10.086 27.525,9.672L27.525,8.415L27.228,8.415L27.228,8.125L27.525,8.125L27.525,7.607L27.802,7.497L27.802,8.125L28.238,8.125L28.238,8.415L27.802,8.415L27.802,9.612C27.802,9.754 27.822,9.855 27.861,9.916C27.9,9.977 27.966,10.007 28.057,10.007C28.127,10.007 28.187,9.984 28.238,9.937L28.238,10.227Z" style="fill-rule:nonzero;"/>
    <g id="row">
        <rect x="13.583" y="15.749" width="16.244" height="4.157" style="fill:none;stroke:rgb(129,129,129);stroke-width:0.32px;stroke-linecap:round;stroke-miterlimit:1.5;"/>
        <path d="M15.268,19.407L14.5,19.407L14.5,16.239L14.673,16.239L14.673,19.071L15.268,19.071L15.268,19.407Z" style="fill-rule:nonzero;"/>
        <path d="M15.914,19.46C15.758,19.46 15.633,19.354 15.54,19.143C15.446,18.932 15.4,18.652 15.4,18.303C15.4,17.923 15.448,17.626 15.545,17.412C15.642,17.199 15.773,17.092 15.939,17.092C16.096,17.092 16.219,17.196 16.307,17.403C16.396,17.611 16.44,17.899 16.44,18.267C16.44,18.628 16.393,18.917 16.297,19.134C16.202,19.351 16.074,19.46 15.914,19.46ZM15.926,17.397C15.818,17.397 15.732,17.476 15.668,17.634C15.605,17.793 15.574,18.011 15.574,18.289C15.574,18.557 15.605,18.769 15.669,18.923C15.734,19.078 15.819,19.155 15.926,19.155C16.036,19.155 16.12,19.079 16.179,18.928C16.237,18.776 16.267,18.56 16.267,18.28C16.267,17.998 16.237,17.78 16.179,17.627C16.12,17.473 16.036,17.397 15.926,17.397Z" style="fill-rule:nonzero;"/>
        <path d="M17.261,17.512C17.232,17.463 17.189,17.439 17.134,17.439C17.062,17.439 17.001,17.512 16.952,17.658C16.904,17.803 16.88,18.002 16.88,18.254L16.88,19.407L16.711,19.407L16.711,17.145L16.88,17.145L16.88,17.611L16.884,17.611C16.908,17.452 16.945,17.328 16.994,17.239C17.044,17.15 17.099,17.105 17.16,17.105C17.205,17.105 17.238,17.116 17.261,17.136L17.261,17.512Z" style="fill-rule:nonzero;"/>
        <path d="M18.294,18.367L17.549,18.367C17.551,18.618 17.583,18.813 17.644,18.95C17.704,19.087 17.788,19.155 17.894,19.155C18.012,19.155 18.122,19.071 18.221,18.903L18.221,19.244C18.129,19.388 18.006,19.46 17.853,19.46C17.704,19.46 17.586,19.357 17.501,19.152C17.416,18.946 17.373,18.657 17.373,18.285C17.373,17.933 17.42,17.646 17.513,17.424C17.606,17.203 17.722,17.092 17.86,17.092C17.998,17.092 18.106,17.188 18.181,17.379C18.257,17.571 18.294,17.836 18.294,18.177L18.294,18.367ZM18.122,18.06C18.12,17.85 18.097,17.688 18.05,17.571C18.004,17.455 17.94,17.397 17.857,17.397C17.777,17.397 17.71,17.458 17.654,17.58C17.598,17.702 17.564,17.862 17.55,18.06L18.122,18.06Z" style="fill-rule:nonzero;"/>
        <path d="M20.051,19.407L19.882,19.407L19.882,18.108C19.882,17.858 19.864,17.677 19.828,17.565C19.791,17.453 19.731,17.397 19.646,17.397C19.574,17.397 19.512,17.468 19.461,17.609C19.411,17.75 19.385,17.92 19.385,18.117L19.385,19.407L19.216,19.407L19.216,18.064C19.216,17.619 19.136,17.397 18.976,17.397C18.902,17.397 18.841,17.464 18.792,17.597C18.744,17.73 18.72,17.903 18.72,18.117L18.72,19.407L18.551,19.407L18.551,17.145L18.72,17.145L18.72,17.503L18.724,17.503C18.799,17.229 18.909,17.092 19.052,17.092C19.125,17.092 19.188,17.135 19.241,17.221C19.295,17.307 19.331,17.42 19.351,17.56C19.43,17.248 19.547,17.092 19.702,17.092C19.935,17.092 20.051,17.399 20.051,18.013L20.051,19.407Z" style="fill-rule:nonzero;"/>
        <path d="M20.941,16.385L21,19.407" style="fill:none;stroke:rgb(128,128,128);stroke-width:1px;stroke-linecap:square;stroke-miterlimit:1.5;"/>
        <path d="M24.034,16.632L23.334,16.632L23.334,19.29L23.051,19.29L23.051,16.632L22.353,16.632L22.353,16.317L24.034,16.317L24.034,16.632Z" style="fill-rule:nonzero;"/>
        <path d="M25.429,18.314L24.208,18.314C24.212,18.55 24.264,18.732 24.363,18.861C24.462,18.99 24.598,19.054 24.772,19.054C24.966,19.054 25.146,18.975 25.309,18.817L25.309,19.137C25.157,19.272 24.956,19.34 24.706,19.34C24.461,19.34 24.269,19.243 24.13,19.051C23.99,18.858 23.92,18.587 23.92,18.237C23.92,17.907 23.997,17.638 24.149,17.429C24.302,17.221 24.491,17.117 24.718,17.117C24.944,17.117 25.119,17.207 25.243,17.387C25.367,17.567 25.429,17.816 25.429,18.135L25.429,18.314ZM25.145,18.026C25.144,17.829 25.105,17.677 25.029,17.567C24.953,17.458 24.848,17.404 24.713,17.404C24.582,17.404 24.471,17.461 24.38,17.576C24.289,17.69 24.232,17.84 24.211,18.026L25.145,18.026Z" style="fill-rule:nonzero;"/>
        <path d="M27.111,17.167L26.53,18.241L27.101,19.29L26.778,19.29L26.439,18.602C26.417,18.559 26.392,18.505 26.363,18.44L26.356,18.44C26.35,18.453 26.324,18.506 26.277,18.602L25.93,19.29L25.611,19.29L26.201,18.249L25.636,17.167L25.959,17.167L26.294,17.893C26.318,17.947 26.342,18.002 26.366,18.059L26.373,18.059L26.805,17.167L27.111,17.167Z" style="fill-rule:nonzero;"/>
        <path d="M28.238,19.269C28.172,19.314 28.086,19.336 27.979,19.336C27.676,19.336 27.525,19.128 27.525,18.714L27.525,17.457L27.228,17.457L27.228,17.167L27.525,17.167L27.525,16.649L27.802,16.539L27.802,17.167L28.238,17.167L28.238,17.457L27.802,17.457L27.802,18.654C27.802,18.796 27.822,18.898 27.861,18.958C27.9,19.019 27.966,19.05 28.057,19.05C28.127,19.05 28.187,19.026 28.238,18.979L28.238,19.269Z" style="fill-rule:nonzero;"/>
    </g>
    <g id="row1" serif:id="row">
        <rect x="13.583" y="20.157" width="16.244" height="4.157" style="fill:none;stroke:rgb(129,129,129);stroke-width:0.32px;stroke-linecap:round;stroke-miterlimit:1.5;"/>
        <path d="M15.268,23.815L14.5,23.815L14.5,20.647L14.673,20.647L14.673,23.479L15.268,23.479L15.268,23.815Z" style="fill-rule:nonzero;"/>
        <path d="M15.914,23.868C15.758,23.868 15.633,23.762 15.54,23.551C15.446,23.34 15.4,23.06 15.4,22.711C15.4,22.331 15.448,22.034 15.545,21.82C15.642,21.607 15.773,21.5 15.939,21.5C16.096,21.5 16.219,21.604 16.307,21.811C16.396,22.019 16.44,22.307 16.44,22.675C16.44,23.036 16.393,23.325 16.297,23.542C16.202,23.759 16.074,23.868 15.914,23.868ZM15.926,21.805C15.818,21.805 15.732,21.884 15.668,22.042C15.605,22.201 15.574,22.419 15.574,22.697C15.574,22.965 15.605,23.177 15.669,23.331C15.734,23.486 15.819,23.563 15.926,23.563C16.036,23.563 16.12,23.487 16.179,23.336C16.237,23.184 16.267,22.968 16.267,22.688C16.267,22.406 16.237,22.188 16.179,22.035C16.12,21.881 16.036,21.805 15.926,21.805Z" style="fill-rule:nonzero;"/>
        <path d="M17.261,21.92C17.232,21.871 17.189,21.847 17.134,21.847C17.062,21.847 17.001,21.92 16.952,22.066C16.904,22.211 16.88,22.41 16.88,22.662L16.88,23.815L16.711,23.815L16.711,21.553L16.88,21.553L16.88,22.019L16.884,22.019C16.908,21.86 16.945,21.736 16.994,21.647C17.044,21.558 17.099,21.513 17.16,21.513C17.205,21.513 17.238,21.524 17.261,21.544L17.261,21.92Z" style="fill-rule:nonzero;"/>
        <path d="M18.294,22.775L17.549,22.775C17.551,23.026 17.583,23.221 17.644,23.358C17.704,23.495 17.788,23.563 17.894,23.563C18.012,23.563 18.122,23.479 18.221,23.311L18.221,23.652C18.129,23.796 18.006,23.868 17.853,23.868C17.704,23.868 17.586,23.765 17.501,23.56C17.416,23.354 17.373,23.065 17.373,22.693C17.373,22.341 17.42,22.054 17.513,21.832C17.606,21.611 17.722,21.5 17.86,21.5C17.998,21.5 18.106,21.596 18.181,21.787C18.257,21.979 18.294,22.244 18.294,22.585L18.294,22.775ZM18.122,22.468C18.12,22.258 18.097,22.096 18.05,21.979C18.004,21.863 17.94,21.805 17.857,21.805C17.777,21.805 17.71,21.866 17.654,21.988C17.598,22.11 17.564,22.27 17.55,22.468L18.122,22.468Z" style="fill-rule:nonzero;"/>
        <path d="M20.051,23.815L19.882,23.815L19.882,22.516C19.882,22.266 19.864,22.085 19.828,21.973C19.791,21.861 19.731,21.805 19.646,21.805C19.574,21.805 19.512,21.876 19.461,22.017C19.411,22.158 19.385,22.328 19.385,22.525L19.385,23.815L19.216,23.815L19.216,22.472C19.216,22.027 19.136,21.805 18.976,21.805C18.902,21.805 18.841,21.872 18.792,22.005C18.744,22.138 18.72,22.311 18.72,22.525L18.72,23.815L18.551,23.815L18.551,21.553L18.72,21.553L18.72,21.911L18.724,21.911C18.799,21.637 18.909,21.5 19.052,21.5C19.125,21.5 19.188,21.543 19.241,21.629C19.295,21.715 19.331,21.828 19.351,21.968C19.43,21.656 19.547,21.5 19.702,21.5C19.935,21.5 20.051,21.807 20.051,22.421L20.051,23.815Z" style="fill-rule:nonzero;"/>
        <path d="M20.941,20.792L21,23.815" style="fill:none;stroke:rgb(128,128,128);stroke-width:1px;stroke-linecap:square;stroke-miterlimit:1.5;"/>
        <path d="M24.034,21.04L23.334,21.04L23.334,23.698L23.051,23.698L23.051,21.04L22.353,21.04L22.353,20.725L24.034,20.725L24.034,21.04Z" style="fill-rule:nonzero;"/>
        <path d="M25.429,22.722L24.208,22.722C24.212,22.958 24.264,23.14 24.363,23.269C24.462,23.397 24.598,23.462 24.772,23.462C24.966,23.462 25.146,23.383 25.309,23.225L25.309,23.545C25.157,23.68 24.956,23.748 24.706,23.748C24.461,23.748 24.269,23.651 24.13,23.459C23.99,23.266 23.92,22.995 23.92,22.645C23.92,22.315 23.997,22.045 24.149,21.837C24.302,21.629 24.491,21.525 24.718,21.525C24.944,21.525 25.119,21.615 25.243,21.795C25.367,21.975 25.429,22.224 25.429,22.543L25.429,22.722ZM25.145,22.433C25.144,22.237 25.105,22.084 25.029,21.975C24.953,21.866 24.848,21.812 24.713,21.812C24.582,21.812 24.471,21.869 24.38,21.984C24.289,22.098 24.232,22.248 24.211,22.433L25.145,22.433Z" style="fill-rule:nonzero;"/>
        <path d="M27.111,21.575L26.53,22.649L27.101,23.698L26.778,23.698L26.439,23.01C26.417,22.967 26.392,22.913 26.363,22.848L26.356,22.848C26.35,22.86 26.324,22.914 26.277,23.01L25.93,23.698L25.611,23.698L26.201,22.657L25.636,21.575L25.959,21.575L26.294,22.301C26.318,22.355 26.342,22.41 26.366,22.467L26.373,22.467L26.805,21.575L27.111,21.575Z" style="fill-rule:nonzero;"/>
        <path d="M28.238,23.677C28.172,23.722 28.086,23.744 27.979,23.744C27.676,23.744 27.525,23.536 27.525,23.122L27.525,21.865L27.228,21.865L27.228,21.575L27.525,21.575L27.525,21.057L27.802,20.947L27.802,21.575L28.238,21.575L28.238,21.865L27.802,21.865L27.802,23.062C27.802,23.204 27.822,23.306 27.861,23.366C27.9,23.427 27.966,23.458 28.057,23.458C28.127,23.458 28.187,23.434 28.238,23.387L28.238,23.677Z" style="fill-rule:nonzero;"/>
    </g>
</svg>
