<?xml version="1.0" encoding="UTF-8" standalone="no"?>
<!DOCTYPE svg PUBLIC "-//W3C//DTD SVG 1.1//EN" "http://www.w3.org/Graphics/SVG/1.1/DTD/svg11.dtd">
<svg width="30px" height="30px" version="1.1" xmlns="http://www.w3.org/2000/svg" xmlns:xlink="http://www.w3.org/1999/xlink" xml:space="preserve" xmlns:serif="http://www.serif.com/" style="fill-rule:evenodd;clip-rule:evenodd;stroke-linejoin:round;stroke-miterlimit:2;">
    <rect id="outer" x="0" y="0" width="30" height="30" style="fill:white;stroke:rgb(126,126,126);stroke-width:0.54px;"/>
    <rect x="0.255" y="0.255" width="29.473" height="6.245" style="fill:rgb(88,115,242);"/>
    <path d="M1.729,1.216L3.762,5.192L5.795,1.216" style="fill:none;stroke:black;stroke-width:0.45px;stroke-linecap:round;stroke-miterlimit:1.5;"/>
    <path d="M9.708,4.499L8.513,4.499L8.513,1.331L8.782,1.331L8.782,4.163L9.708,4.163L9.708,4.499Z" style="fill-rule:nonzero;"/>
    <path d="M10.713,4.552C10.47,4.552 10.276,4.446 10.131,4.235C9.986,4.024 9.913,3.743 9.913,3.394C9.913,3.014 9.989,2.718 10.14,2.504C10.291,2.291 10.495,2.184 10.752,2.184C10.997,2.184 11.188,2.288 11.326,2.495C11.464,2.703 11.532,2.991 11.532,3.359C11.532,3.72 11.458,4.009 11.31,4.226C11.162,4.443 10.963,4.552 10.713,4.552ZM10.733,2.489C10.563,2.489 10.429,2.568 10.331,2.726C10.232,2.884 10.183,3.103 10.183,3.381C10.183,3.649 10.233,3.86 10.333,4.015C10.432,4.17 10.565,4.247 10.733,4.247C10.903,4.247 11.034,4.171 11.125,4.019C11.217,3.868 11.263,3.652 11.263,3.372C11.263,3.089 11.217,2.872 11.125,2.718C11.034,2.565 10.903,2.489 10.733,2.489Z" style="fill-rule:nonzero;"/>
    <path d="M12.811,2.604C12.765,2.555 12.699,2.531 12.612,2.531C12.499,2.531 12.405,2.604 12.33,2.749C12.254,2.895 12.217,3.094 12.217,3.346L12.217,4.499L11.953,4.499L11.953,2.237L12.217,2.237L12.217,2.703L12.223,2.703C12.261,2.544 12.318,2.42 12.395,2.331C12.472,2.242 12.558,2.197 12.654,2.197C12.722,2.197 12.775,2.207 12.811,2.228L12.811,2.604Z" style="fill-rule:nonzero;"/>
    <path d="M14.419,3.458L13.258,3.458C13.262,3.71 13.311,3.905 13.405,4.042C13.5,4.179 13.629,4.247 13.794,4.247C13.979,4.247 14.15,4.163 14.305,3.995L14.305,4.335C14.16,4.48 13.969,4.552 13.731,4.552C13.499,4.552 13.317,4.449 13.184,4.244C13.051,4.038 12.985,3.749 12.985,3.377C12.985,3.025 13.057,2.738 13.202,2.516C13.347,2.295 13.527,2.184 13.743,2.184C13.958,2.184 14.124,2.28 14.242,2.471C14.36,2.662 14.419,2.928 14.419,3.268L14.419,3.458ZM14.149,3.151C14.148,2.942 14.111,2.779 14.039,2.663C13.967,2.547 13.866,2.489 13.738,2.489C13.614,2.489 13.508,2.55 13.421,2.672C13.335,2.794 13.281,2.954 13.261,3.151L14.149,3.151Z" style="fill-rule:nonzero;"/>
    <path d="M17.153,4.499L16.889,4.499L16.889,3.2C16.889,2.95 16.861,2.768 16.805,2.657C16.749,2.545 16.654,2.489 16.522,2.489C16.409,2.489 16.314,2.559 16.235,2.701C16.156,2.842 16.117,3.011 16.117,3.209L16.117,4.499L15.853,4.499L15.853,3.156C15.853,2.711 15.729,2.489 15.479,2.489C15.363,2.489 15.268,2.555 15.193,2.689C15.118,2.822 15.081,2.995 15.081,3.209L15.081,4.499L14.817,4.499L14.817,2.237L15.081,2.237L15.081,2.595L15.087,2.595C15.204,2.321 15.374,2.184 15.598,2.184C15.71,2.184 15.808,2.227 15.892,2.313C15.975,2.399 16.033,2.512 16.064,2.652C16.186,2.34 16.368,2.184 16.61,2.184C16.972,2.184 17.153,2.491 17.153,3.105L17.153,4.499Z" style="fill-rule:nonzero;"/>
    <rect x="18.587" y="1.331" width="0.27" height="3.168" style="fill-rule:nonzero;"/>
    <path d="M19.697,4.172L19.691,4.172L19.691,5.539L19.427,5.539L19.427,2.237L19.691,2.237L19.691,2.634L19.697,2.634C19.827,2.334 20.016,2.184 20.266,2.184C20.478,2.184 20.643,2.285 20.762,2.488C20.881,2.69 20.941,2.961 20.941,3.302C20.941,3.68 20.874,3.983 20.74,4.211C20.606,4.438 20.423,4.552 20.19,4.552C19.977,4.552 19.813,4.425 19.697,4.172ZM19.691,3.26L19.691,3.575C19.691,3.762 19.735,3.921 19.823,4.051C19.912,4.182 20.024,4.247 20.16,4.247C20.319,4.247 20.444,4.163 20.535,3.995C20.625,3.827 20.671,3.594 20.671,3.295C20.671,3.043 20.628,2.846 20.544,2.703C20.459,2.56 20.345,2.489 20.2,2.489C20.047,2.489 19.924,2.562 19.831,2.708C19.737,2.855 19.691,3.039 19.691,3.26Z" style="fill-rule:nonzero;"/>
    <path d="M21.262,4.417L21.262,4.028C21.405,4.174 21.563,4.247 21.736,4.247C21.967,4.247 22.083,4.141 22.083,3.929C22.083,3.869 22.073,3.817 22.053,3.775C22.033,3.733 22.006,3.696 21.973,3.664C21.939,3.631 21.899,3.602 21.854,3.577C21.808,3.551 21.759,3.524 21.707,3.496C21.634,3.456 21.57,3.416 21.515,3.376C21.46,3.335 21.414,3.289 21.377,3.239C21.34,3.188 21.312,3.13 21.293,3.065C21.274,3 21.265,2.925 21.265,2.838C21.265,2.732 21.283,2.638 21.318,2.556C21.353,2.474 21.401,2.406 21.459,2.351C21.518,2.295 21.586,2.254 21.661,2.226C21.736,2.198 21.814,2.184 21.895,2.184C22.037,2.184 22.165,2.218 22.277,2.285L22.277,2.652C22.156,2.543 22.017,2.489 21.859,2.489C21.81,2.489 21.766,2.496 21.726,2.512C21.686,2.527 21.652,2.549 21.624,2.577C21.596,2.605 21.574,2.638 21.558,2.678C21.543,2.717 21.535,2.76 21.535,2.807C21.535,2.866 21.543,2.915 21.558,2.955C21.574,2.994 21.596,3.03 21.626,3.061C21.656,3.092 21.693,3.12 21.736,3.145C21.779,3.17 21.827,3.197 21.882,3.226C21.955,3.265 22.02,3.304 22.078,3.345C22.136,3.385 22.185,3.431 22.226,3.482C22.266,3.532 22.298,3.591 22.32,3.657C22.342,3.723 22.353,3.802 22.353,3.894C22.353,4.005 22.335,4.103 22.299,4.185C22.263,4.268 22.215,4.336 22.155,4.391C22.095,4.445 22.026,4.486 21.948,4.512C21.87,4.539 21.788,4.552 21.702,4.552C21.533,4.552 21.386,4.507 21.262,4.417Z" style="fill-rule:nonzero;"/>
    <path d="M24.087,4.499L23.824,4.499L23.824,4.141L23.817,4.141C23.708,4.415 23.539,4.552 23.31,4.552C22.918,4.552 22.722,4.231 22.722,3.589L22.722,2.237L22.984,2.237L22.984,3.531C22.984,4.008 23.117,4.247 23.382,4.247C23.511,4.247 23.616,4.182 23.699,4.051C23.782,3.921 23.824,3.751 23.824,3.54L23.824,2.237L24.087,2.237L24.087,4.499Z" style="fill-rule:nonzero;"/>
    <path d="M26.955,4.499L26.691,4.499L26.691,3.2C26.691,2.95 26.663,2.768 26.607,2.657C26.551,2.545 26.456,2.489 26.323,2.489C26.211,2.489 26.115,2.559 26.037,2.701C25.958,2.842 25.919,3.011 25.919,3.209L25.919,4.499L25.655,4.499L25.655,3.156C25.655,2.711 25.53,2.489 25.281,2.489C25.165,2.489 25.07,2.555 24.995,2.689C24.92,2.822 24.882,2.995 24.882,3.209L24.882,4.499L24.619,4.499L24.619,2.237L24.882,2.237L24.882,2.595L24.889,2.595C25.006,2.321 25.176,2.184 25.4,2.184C25.512,2.184 25.61,2.227 25.694,2.313C25.777,2.399 25.834,2.512 25.866,2.652C25.988,2.34 26.17,2.184 26.412,2.184C26.774,2.184 26.955,2.491 26.955,3.105L26.955,4.499Z" style="fill-rule:nonzero;"/>
    <path d="M28.746,2.237L28.09,4.499L27.832,4.499L27.208,2.237L27.498,2.237L27.915,3.88C27.946,4.001 27.965,4.106 27.973,4.196L27.979,4.196C27.99,4.083 28.007,3.98 28.031,3.889L28.468,2.237L28.746,2.237Z" style="fill-rule:nonzero;"/>
    <path d="M8.375,11L9.907,14.976L11.44,11" style="fill:none;stroke:black;stroke-width:0.45px;stroke-linecap:round;stroke-miterlimit:1.5;"/>
    <path d="M14.391,14.283L13.49,14.283L13.49,11.115L13.693,11.115L13.693,13.947L14.391,13.947L14.391,14.283Z" style="fill-rule:nonzero;"/>
    <path d="M15.149,14.336C14.966,14.336 14.819,14.23 14.71,14.019C14.601,13.808 14.546,13.528 14.546,13.179C14.546,12.799 14.603,12.502 14.717,12.288C14.83,12.075 14.984,11.968 15.178,11.968C15.363,11.968 15.507,12.072 15.611,12.28C15.715,12.487 15.767,12.775 15.767,13.143C15.767,13.504 15.711,13.793 15.599,14.01C15.487,14.227 15.337,14.336 15.149,14.336ZM15.164,12.273C15.036,12.273 14.935,12.352 14.861,12.51C14.786,12.669 14.749,12.887 14.749,13.165C14.749,13.433 14.787,13.645 14.862,13.799C14.937,13.954 15.038,14.031 15.164,14.031C15.292,14.031 15.391,13.955 15.46,13.804C15.529,13.652 15.563,13.436 15.563,13.156C15.563,12.874 15.529,12.656 15.46,12.503C15.391,12.349 15.292,12.273 15.164,12.273Z" style="fill-rule:nonzero;"/>
    <path d="M16.731,12.388C16.696,12.339 16.646,12.315 16.581,12.315C16.496,12.315 16.425,12.388 16.368,12.534C16.311,12.679 16.283,12.878 16.283,13.13L16.283,14.283L16.084,14.283L16.084,12.021L16.283,12.021L16.283,12.487L16.288,12.487C16.316,12.328 16.359,12.204 16.417,12.115C16.475,12.026 16.54,11.981 16.612,11.981C16.664,11.981 16.703,11.992 16.731,12.012L16.731,12.388Z" style="fill-rule:nonzero;"/>
    <path d="M17.943,13.243L17.067,13.243C17.071,13.494 17.108,13.689 17.179,13.826C17.25,13.963 17.348,14.031 17.472,14.031C17.612,14.031 17.74,13.947 17.857,13.779L17.857,14.12C17.748,14.264 17.604,14.336 17.425,14.336C17.25,14.336 17.112,14.233 17.012,14.028C16.912,13.822 16.862,13.533 16.862,13.161C16.862,12.809 16.916,12.522 17.026,12.301C17.135,12.079 17.271,11.968 17.433,11.968C17.596,11.968 17.721,12.064 17.81,12.255C17.899,12.447 17.943,12.712 17.943,13.053L17.943,13.243ZM17.74,12.936C17.739,12.726 17.711,12.564 17.657,12.447C17.602,12.331 17.527,12.273 17.43,12.273C17.336,12.273 17.256,12.334 17.191,12.456C17.126,12.578 17.085,12.738 17.07,12.936L17.74,12.936Z" style="fill-rule:nonzero;"/>
    <path d="M20.005,14.283L19.806,14.283L19.806,12.984C19.806,12.734 19.785,12.553 19.742,12.441C19.7,12.329 19.629,12.273 19.529,12.273C19.444,12.273 19.372,12.344 19.312,12.485C19.253,12.626 19.223,12.796 19.223,12.993L19.223,14.283L19.025,14.283L19.025,12.94C19.025,12.495 18.931,12.273 18.743,12.273C18.655,12.273 18.583,12.34 18.527,12.473C18.47,12.606 18.442,12.779 18.442,12.993L18.442,14.283L18.244,14.283L18.244,12.021L18.442,12.021L18.442,12.379L18.447,12.379C18.535,12.105 18.663,11.968 18.832,11.968C18.917,11.968 18.991,12.011 19.054,12.097C19.117,12.183 19.16,12.296 19.183,12.436C19.275,12.124 19.413,11.968 19.595,11.968C19.868,11.968 20.005,12.275 20.005,12.889L20.005,14.283Z" style="fill-rule:nonzero;"/>
    <rect x="21.086" y="11.115" width="0.203" height="3.168" style="fill-rule:nonzero;"/>
    <path d="M21.923,13.956L21.918,13.956L21.918,15.323L21.72,15.323L21.72,12.021L21.918,12.021L21.918,12.419L21.923,12.419C22.021,12.118 22.164,11.968 22.352,11.968C22.512,11.968 22.636,12.069 22.726,12.272C22.816,12.474 22.861,12.746 22.861,13.086C22.861,13.464 22.81,13.767 22.709,13.995C22.608,14.222 22.47,14.336 22.295,14.336C22.134,14.336 22.01,14.209 21.923,13.956ZM21.918,13.044L21.918,13.36C21.918,13.547 21.952,13.705 22.018,13.836C22.085,13.966 22.169,14.031 22.272,14.031C22.392,14.031 22.486,13.947 22.555,13.779C22.623,13.612 22.657,13.378 22.657,13.079C22.657,12.827 22.625,12.63 22.561,12.487C22.498,12.344 22.411,12.273 22.302,12.273C22.187,12.273 22.094,12.346 22.024,12.493C21.953,12.639 21.918,12.823 21.918,13.044Z" style="fill-rule:nonzero;"/>
    <path d="M23.103,14.201L23.103,13.813C23.211,13.958 23.33,14.031 23.46,14.031C23.634,14.031 23.722,13.925 23.722,13.713C23.722,13.653 23.714,13.602 23.699,13.56C23.684,13.518 23.664,13.48 23.639,13.448C23.613,13.416 23.583,13.387 23.549,13.361C23.515,13.335 23.478,13.308 23.438,13.28C23.383,13.24 23.335,13.2 23.294,13.16C23.252,13.119 23.217,13.074 23.189,13.023C23.162,12.972 23.141,12.914 23.126,12.849C23.112,12.785 23.105,12.709 23.105,12.622C23.105,12.516 23.119,12.422 23.145,12.34C23.172,12.259 23.207,12.19 23.252,12.135C23.296,12.08 23.347,12.038 23.404,12.01C23.461,11.982 23.519,11.968 23.58,11.968C23.687,11.968 23.783,12.002 23.868,12.07L23.868,12.436C23.777,12.327 23.672,12.273 23.553,12.273C23.516,12.273 23.483,12.281 23.453,12.296C23.423,12.312 23.397,12.333 23.376,12.361C23.354,12.389 23.338,12.423 23.326,12.462C23.315,12.501 23.309,12.544 23.309,12.591C23.309,12.65 23.315,12.699 23.326,12.739C23.338,12.779 23.355,12.814 23.378,12.845C23.4,12.876 23.428,12.904 23.46,12.929C23.492,12.954 23.529,12.981 23.57,13.011C23.625,13.049 23.674,13.088 23.718,13.129C23.762,13.169 23.799,13.215 23.829,13.266C23.86,13.317 23.884,13.375 23.9,13.441C23.917,13.508 23.925,13.587 23.925,13.678C23.925,13.79 23.912,13.887 23.885,13.969C23.858,14.052 23.821,14.12 23.776,14.175C23.731,14.229 23.679,14.27 23.62,14.296C23.561,14.323 23.499,14.336 23.435,14.336C23.307,14.336 23.196,14.291 23.103,14.201Z" style="fill-rule:nonzero;"/>
    <path d="M25.233,14.283L25.035,14.283L25.035,13.925L25.03,13.925C24.947,14.199 24.82,14.336 24.647,14.336C24.351,14.336 24.204,14.015 24.204,13.373L24.204,12.021L24.401,12.021L24.401,13.316C24.401,13.793 24.501,14.031 24.702,14.031C24.798,14.031 24.878,13.966 24.941,13.836C25.003,13.705 25.035,13.535 25.035,13.324L25.035,12.021L25.233,12.021L25.233,14.283Z" style="fill-rule:nonzero;"/>
    <path d="M27.395,14.283L27.197,14.283L27.197,12.984C27.197,12.734 27.175,12.553 27.133,12.441C27.091,12.329 27.019,12.273 26.919,12.273C26.834,12.273 26.762,12.344 26.703,12.485C26.644,12.626 26.614,12.796 26.614,12.993L26.614,14.283L26.415,14.283L26.415,12.94C26.415,12.495 26.321,12.273 26.133,12.273C26.046,12.273 25.974,12.34 25.918,12.473C25.861,12.606 25.833,12.779 25.833,12.993L25.833,14.283L25.634,14.283L25.634,12.021L25.833,12.021L25.833,12.379L25.838,12.379C25.926,12.105 26.054,11.968 26.223,11.968C26.308,11.968 26.381,12.011 26.444,12.097C26.507,12.183 26.551,12.296 26.574,12.436C26.666,12.124 26.803,11.968 26.986,11.968C27.259,11.968 27.395,12.275 27.395,12.889L27.395,14.283Z" style="fill-rule:nonzero;"/>
    <path d="M28.746,12.021L28.251,14.283L28.056,14.283L27.587,12.021L27.805,12.021L28.119,13.665C28.143,13.785 28.157,13.891 28.163,13.98L28.168,13.98C28.176,13.867 28.189,13.765 28.207,13.673L28.536,12.021L28.746,12.021Z" style="fill-rule:nonzero;"/>
    <path d="M8.261,23.398L12.237,21.865L8.261,20.332" style="fill:none;stroke:black;stroke-width:0.45px;stroke-linecap:round;stroke-miterlimit:1.5;"/>
    <path d="M14.645,23.5L13.744,23.5L13.744,20.332L13.948,20.332L13.948,23.164L14.645,23.164L14.645,23.5Z" style="fill-rule:nonzero;"/>
    <path d="M15.403,23.553C15.22,23.553 15.074,23.447 14.964,23.236C14.855,23.025 14.8,22.745 14.8,22.396C14.8,22.016 14.857,21.719 14.971,21.505C15.085,21.292 15.239,21.185 15.432,21.185C15.617,21.185 15.762,21.289 15.865,21.496C15.969,21.704 16.021,21.992 16.021,22.36C16.021,22.721 15.965,23.01 15.853,23.227C15.742,23.444 15.592,23.553 15.403,23.553ZM15.418,21.49C15.29,21.49 15.189,21.569 15.115,21.727C15.041,21.886 15.004,22.104 15.004,22.382C15.004,22.65 15.041,22.862 15.116,23.016C15.191,23.171 15.292,23.248 15.418,23.248C15.546,23.248 15.645,23.172 15.714,23.021C15.783,22.869 15.818,22.653 15.818,22.373C15.818,22.091 15.783,21.873 15.714,21.72C15.645,21.566 15.546,21.49 15.418,21.49Z" style="fill-rule:nonzero;"/>
    <path d="M16.985,21.605C16.95,21.556 16.9,21.532 16.835,21.532C16.75,21.532 16.679,21.605 16.622,21.75C16.566,21.896 16.537,22.095 16.537,22.347L16.537,23.5L16.338,23.5L16.338,21.238L16.537,21.238L16.537,21.704L16.542,21.704C16.57,21.545 16.613,21.421 16.671,21.332C16.73,21.243 16.795,21.198 16.866,21.198C16.918,21.198 16.958,21.209 16.985,21.229L16.985,21.605Z" style="fill-rule:nonzero;"/>
    <path d="M18.198,22.46L17.322,22.46C17.325,22.711 17.362,22.906 17.433,23.043C17.504,23.18 17.602,23.248 17.726,23.248C17.866,23.248 17.994,23.164 18.112,22.996L18.112,23.337C18.003,23.481 17.858,23.553 17.679,23.553C17.504,23.553 17.366,23.45 17.266,23.245C17.166,23.039 17.116,22.75 17.116,22.378C17.116,22.026 17.171,21.739 17.28,21.517C17.39,21.296 17.525,21.185 17.688,21.185C17.85,21.185 17.976,21.281 18.064,21.472C18.153,21.664 18.198,21.929 18.198,22.27L18.198,22.46ZM17.994,22.153C17.993,21.943 17.966,21.781 17.911,21.664C17.857,21.548 17.781,21.49 17.684,21.49C17.59,21.49 17.511,21.551 17.445,21.673C17.38,21.795 17.34,21.955 17.324,22.153L17.994,22.153Z" style="fill-rule:nonzero;"/>
    <path d="M20.259,23.5L20.06,23.5L20.06,22.201C20.06,21.951 20.039,21.77 19.997,21.658C19.954,21.546 19.883,21.49 19.783,21.49C19.698,21.49 19.626,21.561 19.567,21.702C19.507,21.843 19.478,22.013 19.478,22.21L19.478,23.5L19.279,23.5L19.279,22.157C19.279,21.712 19.185,21.49 18.997,21.49C18.91,21.49 18.838,21.556 18.781,21.69C18.725,21.823 18.697,21.996 18.697,22.21L18.697,23.5L18.498,23.5L18.498,21.238L18.697,21.238L18.697,21.596L18.701,21.596C18.789,21.322 18.918,21.185 19.087,21.185C19.171,21.185 19.245,21.228 19.308,21.314C19.371,21.4 19.414,21.513 19.438,21.653C19.53,21.341 19.667,21.185 19.85,21.185C20.123,21.185 20.259,21.492 20.259,22.106L20.259,23.5Z" style="fill-rule:nonzero;"/>
    <rect x="21.341" y="20.332" width="0.203" height="3.168" style="fill-rule:nonzero;"/>
    <path d="M22.177,23.173L22.173,23.173L22.173,24.54L21.974,24.54L21.974,21.238L22.173,21.238L22.173,21.636L22.177,21.636C22.275,21.335 22.418,21.185 22.606,21.185C22.766,21.185 22.891,21.286 22.98,21.489C23.07,21.691 23.115,21.963 23.115,22.303C23.115,22.681 23.064,22.984 22.964,23.212C22.863,23.439 22.725,23.553 22.549,23.553C22.389,23.553 22.265,23.426 22.177,23.173ZM22.173,22.261L22.173,22.577C22.173,22.764 22.206,22.922 22.273,23.053C22.339,23.183 22.424,23.248 22.526,23.248C22.647,23.248 22.741,23.164 22.809,22.996C22.877,22.828 22.911,22.595 22.911,22.296C22.911,22.044 22.88,21.847 22.816,21.704C22.752,21.561 22.666,21.49 22.557,21.49C22.441,21.49 22.348,21.563 22.278,21.71C22.208,21.856 22.173,22.04 22.173,22.261Z" style="fill-rule:nonzero;"/>
    <path d="M23.357,23.418L23.357,23.029C23.465,23.175 23.584,23.248 23.714,23.248C23.889,23.248 23.976,23.142 23.976,22.93C23.976,22.87 23.969,22.819 23.954,22.777C23.939,22.735 23.919,22.697 23.893,22.665C23.868,22.633 23.838,22.604 23.803,22.578C23.769,22.552 23.732,22.525 23.693,22.497C23.638,22.457 23.589,22.417 23.548,22.377C23.506,22.336 23.472,22.291 23.444,22.24C23.416,22.189 23.395,22.131 23.381,22.066C23.367,22.002 23.36,21.926 23.36,21.839C23.36,21.733 23.373,21.639 23.4,21.557C23.426,21.475 23.462,21.407 23.506,21.352C23.551,21.297 23.601,21.255 23.658,21.227C23.715,21.199 23.774,21.185 23.834,21.185C23.942,21.185 24.038,21.219 24.123,21.287L24.123,21.653C24.031,21.544 23.926,21.49 23.808,21.49C23.771,21.49 23.737,21.498 23.707,21.513C23.677,21.528 23.652,21.55 23.63,21.578C23.609,21.606 23.592,21.64 23.581,21.679C23.569,21.718 23.563,21.761 23.563,21.808C23.563,21.867 23.569,21.916 23.581,21.956C23.592,21.996 23.609,22.031 23.632,22.062C23.655,22.093 23.682,22.121 23.714,22.146C23.747,22.171 23.783,22.198 23.825,22.228C23.88,22.266 23.929,22.305 23.972,22.346C24.016,22.386 24.053,22.432 24.084,22.483C24.115,22.534 24.138,22.592 24.155,22.658C24.171,22.725 24.18,22.803 24.18,22.895C24.18,23.007 24.166,23.104 24.139,23.186C24.112,23.269 24.076,23.337 24.031,23.392C23.985,23.446 23.933,23.487 23.874,23.513C23.815,23.54 23.754,23.553 23.689,23.553C23.561,23.553 23.451,23.508 23.357,23.418Z" style="fill-rule:nonzero;"/>
    <path d="M25.488,23.5L25.289,23.5L25.289,23.142L25.284,23.142C25.202,23.416 25.074,23.553 24.901,23.553C24.606,23.553 24.458,23.232 24.458,22.59L24.458,21.238L24.656,21.238L24.656,22.532C24.656,23.01 24.756,23.248 24.956,23.248C25.053,23.248 25.133,23.183 25.195,23.053C25.258,22.922 25.289,22.752 25.289,22.541L25.289,21.238L25.488,21.238L25.488,23.5Z" style="fill-rule:nonzero;"/>
    <path d="M27.65,23.5L27.451,23.5L27.451,22.201C27.451,21.951 27.43,21.77 27.387,21.658C27.345,21.546 27.274,21.49 27.174,21.49C27.089,21.49 27.017,21.561 26.957,21.702C26.898,21.843 26.868,22.013 26.868,22.21L26.868,23.5L26.67,23.5L26.67,22.157C26.67,21.712 26.576,21.49 26.388,21.49C26.3,21.49 26.228,21.556 26.172,21.69C26.115,21.823 26.087,21.996 26.087,22.21L26.087,23.5L25.889,23.5L25.889,21.238L26.087,21.238L26.087,21.596L26.092,21.596C26.18,21.322 26.308,21.185 26.477,21.185C26.562,21.185 26.636,21.228 26.699,21.314C26.762,21.4 26.805,21.513 26.828,21.653C26.92,21.341 27.058,21.185 27.24,21.185C27.513,21.185 27.65,21.492 27.65,22.106L27.65,23.5Z" style="fill-rule:nonzero;"/>
    <path d="M29,21.238L28.506,23.5L28.311,23.5L27.841,21.238L28.059,21.238L28.374,22.881C28.397,23.002 28.412,23.108 28.417,23.197L28.422,23.197C28.43,23.084 28.443,22.982 28.461,22.89L28.79,21.238L29,21.238Z" style="fill-rule:nonzero;"/>
    <path d="M14.695,10.365L13.5,10.365L13.5,7.197L13.77,7.197L13.77,10.029L14.695,10.029L14.695,10.365Z" style="fill-rule:nonzero;"/>
    <path d="M15.701,10.418C15.458,10.418 15.263,10.312 15.118,10.101C14.973,9.89 14.901,9.61 14.901,9.261C14.901,8.881 14.976,8.584 15.127,8.37C15.278,8.157 15.482,8.05 15.739,8.05C15.984,8.05 16.176,8.154 16.313,8.361C16.451,8.569 16.52,8.857 16.52,9.225C16.52,9.586 16.446,9.875 16.297,10.092C16.149,10.309 15.95,10.418 15.701,10.418ZM15.72,8.355C15.551,8.355 15.417,8.434 15.318,8.592C15.22,8.751 15.171,8.969 15.171,9.247C15.171,9.515 15.22,9.727 15.32,9.881C15.42,10.036 15.553,10.113 15.72,10.113C15.89,10.113 16.021,10.037 16.113,9.886C16.204,9.734 16.25,9.518 16.25,9.238C16.25,8.956 16.204,8.738 16.113,8.585C16.021,8.431 15.89,8.355 15.72,8.355Z" style="fill-rule:nonzero;"/>
    <path d="M17.798,8.47C17.752,8.421 17.686,8.397 17.599,8.397C17.487,8.397 17.393,8.47 17.317,8.616C17.242,8.761 17.204,8.96 17.204,9.212L17.204,10.365L16.941,10.365L16.941,8.103L17.204,8.103L17.204,8.569L17.211,8.569C17.248,8.41 17.305,8.286 17.382,8.197C17.46,8.108 17.546,8.063 17.641,8.063C17.71,8.063 17.762,8.074 17.798,8.094L17.798,8.47Z" style="fill-rule:nonzero;"/>
    <path d="M19.406,9.325L18.245,9.325C18.249,9.576 18.299,9.771 18.393,9.908C18.487,10.045 18.617,10.113 18.782,10.113C18.967,10.113 19.137,10.029 19.292,9.861L19.292,10.202C19.148,10.346 18.957,10.418 18.719,10.418C18.487,10.418 18.304,10.315 18.171,10.11C18.038,9.904 17.972,9.615 17.972,9.243C17.972,8.891 18.045,8.604 18.19,8.382C18.335,8.161 18.515,8.05 18.73,8.05C18.945,8.05 19.112,8.146 19.23,8.337C19.347,8.529 19.406,8.794 19.406,9.135L19.406,9.325ZM19.137,9.018C19.135,8.808 19.099,8.646 19.026,8.529C18.954,8.413 18.854,8.355 18.725,8.355C18.601,8.355 18.496,8.416 18.409,8.538C18.322,8.66 18.269,8.82 18.248,9.018L19.137,9.018Z" style="fill-rule:nonzero;"/>
    <path d="M22.14,10.365L21.877,10.365L21.877,9.066C21.877,8.816 21.849,8.635 21.793,8.523C21.736,8.411 21.642,8.355 21.509,8.355C21.397,8.355 21.301,8.426 21.222,8.567C21.144,8.708 21.104,8.878 21.104,9.075L21.104,10.365L20.841,10.365L20.841,9.022C20.841,8.577 20.716,8.355 20.467,8.355C20.351,8.355 20.256,8.422 20.181,8.555C20.106,8.688 20.068,8.861 20.068,9.075L20.068,10.365L19.805,10.365L19.805,8.103L20.068,8.103L20.068,8.461L20.075,8.461C20.191,8.187 20.362,8.05 20.585,8.05C20.698,8.05 20.796,8.093 20.879,8.179C20.963,8.265 21.02,8.378 21.051,8.518C21.173,8.206 21.355,8.05 21.597,8.05C21.959,8.05 22.14,8.357 22.14,8.971L22.14,10.365Z" style="fill-rule:nonzero;"/>
    <path d="M17.806,19.189L16.61,19.189L16.61,16.021L16.88,16.021L16.88,18.853L17.806,18.853L17.806,19.189Z" style="fill-rule:nonzero;"/>
    <path d="M18.811,19.242C18.568,19.242 18.374,19.136 18.229,18.925C18.084,18.713 18.011,18.433 18.011,18.084C18.011,17.704 18.087,17.407 18.238,17.194C18.389,16.98 18.593,16.874 18.85,16.874C19.095,16.874 19.286,16.977 19.424,17.185C19.562,17.393 19.63,17.681 19.63,18.049C19.63,18.409 19.556,18.698 19.408,18.916C19.26,19.133 19.061,19.242 18.811,19.242ZM18.83,17.178C18.661,17.178 18.527,17.258 18.429,17.416C18.33,17.574 18.281,17.792 18.281,18.071C18.281,18.339 18.331,18.55 18.43,18.705C18.53,18.859 18.663,18.937 18.83,18.937C19.001,18.937 19.132,18.861 19.223,18.709C19.315,18.557 19.36,18.342 19.36,18.062C19.36,17.779 19.315,17.561 19.223,17.408C19.132,17.255 19.001,17.178 18.83,17.178Z" style="fill-rule:nonzero;"/>
    <path d="M20.909,17.293C20.863,17.245 20.797,17.22 20.71,17.22C20.597,17.22 20.503,17.293 20.428,17.439C20.352,17.585 20.315,17.784 20.315,18.035L20.315,19.189L20.051,19.189L20.051,16.927L20.315,16.927L20.315,17.393L20.321,17.393C20.359,17.234 20.416,17.11 20.493,17.02C20.57,16.931 20.656,16.887 20.752,16.887C20.82,16.887 20.873,16.897 20.909,16.918L20.909,17.293Z" style="fill-rule:nonzero;"/>
    <path d="M22.517,18.148L21.356,18.148C21.36,18.4 21.409,18.594 21.503,18.731C21.598,18.868 21.727,18.937 21.892,18.937C22.077,18.937 22.248,18.853 22.403,18.685L22.403,19.025C22.258,19.169 22.067,19.242 21.829,19.242C21.597,19.242 21.414,19.139 21.282,18.933C21.149,18.728 21.082,18.439 21.082,18.066C21.082,17.714 21.155,17.428 21.3,17.206C21.445,16.984 21.625,16.874 21.841,16.874C22.056,16.874 22.222,16.969 22.34,17.161C22.458,17.352 22.517,17.618 22.517,17.958L22.517,18.148ZM22.247,17.841C22.246,17.632 22.209,17.469 22.137,17.353C22.065,17.237 21.964,17.178 21.836,17.178C21.712,17.178 21.606,17.239 21.519,17.362C21.433,17.484 21.379,17.644 21.359,17.841L22.247,17.841Z" style="fill-rule:nonzero;"/>
    <path d="M25.251,19.189L24.987,19.189L24.987,17.89C24.987,17.639 24.959,17.458 24.903,17.346C24.847,17.234 24.752,17.178 24.62,17.178C24.507,17.178 24.412,17.249 24.333,17.39C24.254,17.532 24.215,17.701 24.215,17.898L24.215,19.189L23.951,19.189L23.951,17.845C23.951,17.401 23.827,17.178 23.577,17.178C23.461,17.178 23.366,17.245 23.291,17.378C23.216,17.512 23.179,17.685 23.179,17.898L23.179,19.189L22.915,19.189L22.915,16.927L23.179,16.927L23.179,17.284L23.185,17.284C23.302,17.01 23.472,16.874 23.696,16.874C23.808,16.874 23.906,16.917 23.99,17.003C24.073,17.089 24.131,17.202 24.162,17.342C24.284,17.03 24.466,16.874 24.708,16.874C25.07,16.874 25.251,17.181 25.251,17.795L25.251,19.189Z" style="fill-rule:nonzero;"/>
</svg>
