<?xml version="1.0" encoding="UTF-8" standalone="no"?><!DOCTYPE svg PUBLIC "-//W3C//DTD SVG 1.1//EN" "http://www.w3.org/Graphics/SVG/1.1/DTD/svg11.dtd"><svg width="100%" height="100%" viewBox="0 0 48 48" version="1.1" xmlns="http://www.w3.org/2000/svg" xmlns:xlink="http://www.w3.org/1999/xlink" xml:space="preserve" xmlns:serif="http://www.serif.com/" style="fill-rule:evenodd;clip-rule:evenodd;stroke-linejoin:round;stroke-miterlimit:2;"><g id="layer1"><path id="path8660" d="M0.297,38.846c0,-4.612 10.521,-8.408 23.307,-8.408c12.785,0 23.306,3.796 23.306,8.408c0,4.612 -10.521,8.407 -23.306,8.407c-12.786,0 -23.307,-3.795 -23.307,-8.407Z" style="fill:none;"/><path id="path1432" d="M9.582,45.034c40.026,1.322 33.7,-32.74 12.88,-32.536l0,-9.376l-16.648,14.587l16.648,15.297l0,-9.668c14.064,-0.586 18.178,21.433 -12.88,21.696Z" style="fill:#f1d600;fill-rule:nonzero;"/><path id="path2177" d="M21.449,5.451l-14.049,12.264l14.049,12.943l0,-8.277c14.84,-0.348 14.161,12.758 9.584,16.935c11.723,-6.079 8.188,-26.228 -9.584,-25.765l0,-8.1Z" style="fill:none;fill-rule:nonzero;"/><path id="path2324" d="M6.629,17.683l5.657,5.391c6.276,-0.176 3.447,-6.363 14.672,-9.457l-4.949,-0.619l-0.089,-8.662l-15.291,13.347Z" style="fill:none;"/></g></svg>