<?xml version="1.0" encoding="UTF-8" standalone="no"?>
<!DOCTYPE svg PUBLIC "-//W3C//DTD SVG 1.1//EN" "http://www.w3.org/Graphics/SVG/1.1/DTD/svg11.dtd">
<svg width="30px" height="30px" version="1.1" xmlns="http://www.w3.org/2000/svg" xmlns:xlink="http://www.w3.org/1999/xlink" xml:space="preserve" xmlns:serif="http://www.serif.com/" style="fill-rule:evenodd;clip-rule:evenodd;">
    <g id="Layer-1" serif:id="Layer 1">
        <g id="empty-rectangle" serif:id="empty rectangle">
            <rect x="28.279" y="-0.115" width="1.721" height="30.229" style="fill:none;"/>
        </g>
        <g id="path1432">
            <path d="M21.008,29.19C34.092,22.054 26.724,6.927 14.14,7.046L14.14,0.955L1.867,11.57L14.14,22.703L14.14,16.112C21.952,15.798 25.392,21.599 18.546,26.202C16.587,27.52 17.944,30.862 21.008,29.19Z" style="fill:url(#_Linear1);fill-rule:nonzero;stroke:black;stroke-width:0.76px;"/>
        </g>
        <g id="path4920">
            <path d="M2.48,11.602C14.162,9.631 20.677,12.956 23.133,18.175C23.23,10.212 14.969,7.897 11.74,8.141L11.75,3.413L2.48,11.602Z" style="fill:url(#_Linear2);"/>
        </g>
    </g>
    <rect id="outer" x="0" y="0" width="30" height="30" style="fill:none;"/>
    <defs>
        <linearGradient id="_Linear1" x1="0" y1="0" x2="1" y2="0" gradientUnits="userSpaceOnUse" gradientTransform="matrix(-2.01571e-16,-3.25625,-3.29191,1.99388e-16,14.8854,13.1781)"><stop offset="0" style="stop-color:rgb(237,212,0);stop-opacity:1"/><stop offset="1" style="stop-color:rgb(252,233,79);stop-opacity:1"/></linearGradient>
        <linearGradient id="_Linear2" x1="0" y1="0" x2="1" y2="0" gradientUnits="userSpaceOnUse" gradientTransform="matrix(9.10369,4.31603,4.31603,-9.10369,10.7467,9.23525)"><stop offset="0" style="stop-color:white;stop-opacity:0.45"/><stop offset="1" style="stop-color:white;stop-opacity:0"/></linearGradient>
    </defs>
</svg>
