<?xml version="1.0" encoding="UTF-8" standalone="no"?><!DOCTYPE svg PUBLIC "-//W3C//DTD SVG 1.1//EN" "http://www.w3.org/Graphics/SVG/1.1/DTD/svg11.dtd"><svg width="100%" height="100%" viewBox="0 0 30 30" version="1.1" xmlns="http://www.w3.org/2000/svg" xmlns:xlink="http://www.w3.org/1999/xlink" xml:space="preserve" xmlns:serif="http://www.serif.com/" style="fill-rule:evenodd;clip-rule:evenodd;"><g id="Layer-1" serif:id="Layer 1" transform="matrix(0.625,0,0,0.625,0,0)"><g id="empty-rectangle" serif:id="empty rectangle" transform="matrix(1.07559,0,0,1.6,15.7324,0)"><rect x="27.459" y="0" width="2.541" height="30" style="fill:none;"/></g><g id="path1432" transform="matrix(-1.21209,0,0,1.19896,54.8422,-3.69644)"><path d="M17.425,41.893c-17.141,-9.451 -7.489,-29.484 8.997,-29.327l0,-8.066l16.078,14.058l-16.078,14.744l0,-8.729c-10.234,-0.416 -14.741,7.267 -5.772,13.363c2.567,1.745 0.789,6.171 -3.225,3.957Z" style="fill:url(#_Linear1);fill-rule:nonzero;stroke:#000;stroke-width:1px;"/></g><g id="path4920" transform="matrix(-1,0,0,1,45.9611,0)"><path d="M41.66,18.605c-18.55,-3.13 -28.895,2.15 -32.795,10.436c-0.154,-12.643 12.963,-16.32 18.09,-15.932l-0.016,-7.507l14.721,13.003Z" style="fill:url(#_Linear2);"/></g></g><defs><linearGradient id="_Linear1" x1="0" y1="0" x2="1" y2="0" gradientUnits="userSpaceOnUse" gradientTransform="matrix(2.64064e-16,-4.3125,4.3125,2.64064e-16,25.4455,20.6875)"><stop offset="0" style="stop-color:#edd400;stop-opacity:1"/><stop offset="1" style="stop-color:#fce94f;stop-opacity:1"/></linearGradient><linearGradient id="_Linear2" x1="0" y1="0" x2="1" y2="0" gradientUnits="userSpaceOnUse" gradientTransform="matrix(-14.4555,6.85331,-6.85331,-14.4555,28.5329,14.8463)"><stop offset="0" style="stop-color:#fff;stop-opacity:0.45"/><stop offset="1" style="stop-color:#fff;stop-opacity:0"/></linearGradient></defs></svg>