<?xml version="1.0" encoding="UTF-8" standalone="no"?>
<!-- Created with Inkscape (http://www.inkscape.org/) -->

<svg
   width="128.24001"
   height="214.2"
   id="svg2"
   sodipodi:version="0.32"
   version="1.0"
   sodipodi:docname="unknown.svg"
   xmlns:sodipodi="http://sodipodi.sourceforge.net/DTD/sodipodi-0.dtd"
   xmlns="http://www.w3.org/2000/svg"
   xmlns:svg="http://www.w3.org/2000/svg"
   xmlns:rdf="http://www.w3.org/1999/02/22-rdf-syntax-ns#"
   xmlns:cc="http://creativecommons.org/ns#"
   xmlns:dc="http://purl.org/dc/elements/1.1/">
  <defs
     id="defs4">
    <inkscape:perspective
       sodipodi:type="inkscape:persp3d"
       inkscape:vp_x="0 : 107.1 : 1"
       inkscape:vp_y="0 : 1000 : 0"
       inkscape:vp_z="128.24001 : 107.1 : 1"
       inkscape:persp3d-origin="64.120003 : 71.399999 : 1"
       id="perspective8" />
  </defs>
  <g
     inkscape:label="Ebene 1"
     inkscape:groupmode="layer"
     id="layer1"
     transform="translate(-342.6193,-188.937)">
    <path
       style="fill:#001d9e;fill-opacity:1"
       d="M 390.07941,381.98241 C 375.23983,374.05251 375.51494,351.93498 390.53804,345.11093 C 397.99095,341.72555 408.16262,343.21072 413.94768,348.529 C 420.08875,354.17455 421.83957,365.32746 417.82941,373.25601 C 412.84601,383.10877 399.84057,387.19853 390.07941,381.98241 z M 396.07941,315.44137 C 396.07941,304.67809 398.09273,297.63886 405.0361,284.12585 C 414.50684,265.69412 417.07941,257.06545 417.07941,243.73127 C 417.07941,226.44886 411.5655,215.24644 400.86153,210.78195 C 394.43446,208.1013 386.43664,209.31732 381.71516,213.69304 C 378.25483,216.89997 378.38357,219.0289 382.6366,228.93099 C 388.36697,242.27268 387.1323,251.4002 379.04539,255.47972 C 371.18625,259.44433 361.30328,256.4836 356.96001,248.86338 C 355.06639,245.54105 354.6355,243.42068 354.76128,238.04363 C 355.15782,221.09182 369.52008,206.28604 389.51148,202.22031 C 397.15962,200.66487 413.06157,200.67308 420.64734,202.23637 C 441.22919,206.47793 455.09282,221.06298 455.93058,239.35565 C 456.32537,247.97617 454.43622,256.05991 450.42873,262.89817 C 446.99893,268.75069 435.83999,278.99657 424.85934,286.37541 C 407.97587,297.72086 403.01669,304.40511 401.4231,317.96407 C 400.87128,322.65918 400.54747,323.23127 398.44173,323.23127 C 396.16081,323.23127 396.07941,322.96286 396.07941,315.44137 z "
       id="path1882" />
    <path
       style="fill:#001d9e;fill-opacity:1;stroke-width:0.787815"
       d="m 450.29319,403.75009 c -8.67359,-10.08521 -2.74037,-26.82802 9.89108,-27.91139 6.26643,-0.53749 13.23585,3.37156 16.03982,8.99647 2.9765,5.97109 1.35086,14.93011 -3.6042,19.86303 -6.15765,6.13006 -16.62139,5.68574 -22.3267,-0.94811 z m 21.58996,-48.95752 c 2.79054,-8.1843 6.07125,-12.98669 14.59503,-21.36438 11.62635,-11.4271 15.72353,-17.28523 19.18063,-27.42446 4.48071,-13.14139 3.39834,-23.16645 -3.18354,-29.48638 -3.95199,-3.79475 -10.04995,-5.05576 -14.59823,-3.01883 -3.33335,1.4929 -3.79225,3.14686 -3.2844,11.83861 0.6842,11.71092 -2.57495,18.31403 -9.47974,19.20601 -6.71031,0.8669 -13.08843,-4.08522 -14.25312,-11.06655 -0.50779,-3.04375 -0.26959,-4.77384 1.21539,-8.8281 4.68175,-12.78164 18.90478,-20.11485 34.41336,-17.74311 5.93316,0.90736 17.42869,5.25927 22.50799,8.52163 13.78168,8.8499 20.02419,23.7289 15.8873,37.86744 -1.94956,6.66283 -5.41131,12.2934 -10.08178,16.39801 -3.99723,3.5129 -14.72194,8.25418 -24.57438,10.86418 -15.14883,4.01306 -20.46748,7.74045 -25.13505,17.61506 -1.61628,3.41929 -1.9987,3.76587 -3.52124,3.1904 -1.6492,-0.62335 -1.63845,-0.84969 0.3116,-6.569 z"
       id="path1" />
    <path
       style="fill:#001d9e;fill-opacity:1;stroke-width:0.534673"
       d="m 516.41078,424.3996 c -7.50473,-5.3688 -2.37108,-14.28174 8.55814,-14.85847 5.42196,-0.28613 11.45217,1.79483 13.87828,4.78922 2.57538,3.17867 1.16881,7.94796 -3.1185,10.57397 -5.32783,3.2633 -14.38147,3.02677 -19.31792,-0.50472 z m 18.68047,-26.06226 c 2.41448,-4.35686 5.25308,-6.91339 12.62818,-11.3732 10.05957,-6.08315 13.60461,-9.20169 16.59583,-14.59925 3.87688,-6.99575 2.94037,-12.33253 -2.75452,-15.69691 -3.41942,-2.02011 -8.69561,-2.6914 -12.63096,-1.60706 -2.88414,0.79474 -3.2812,1.67522 -2.84179,6.30222 0.592,6.23424 -2.22795,9.74937 -8.20224,10.22421 -5.80602,0.46149 -11.32461,-2.17475 -12.33235,-5.89122 -0.43936,-1.62032 -0.23326,-2.54132 1.0516,-4.69958 4.05083,-6.80424 16.35715,-10.70803 29.77578,-9.44544 5.1336,0.48303 15.07997,2.79974 19.47478,4.53643 11.92444,4.7112 17.32571,12.63195 13.74631,20.15852 -1.68684,3.54692 -4.68208,6.54432 -8.72315,8.72939 -3.45856,1.87007 -12.73799,4.39406 -21.2627,5.78348 -13.10736,2.13633 -17.70926,4.12058 -21.74782,9.37727 -1.39847,1.82025 -1.72936,2.00475 -3.04672,1.6984 -1.42695,-0.33184 -1.41765,-0.45233 0.26961,-3.49697 z"
       id="path2" />
  </g>
</svg>
