<?xml version="1.0" encoding="UTF-8" standalone="no"?><!DOCTYPE svg PUBLIC "-//W3C//DTD SVG 1.1//EN" "http://www.w3.org/Graphics/SVG/1.1/DTD/svg11.dtd"><svg width="100%" height="100%" viewBox="0 0 256 256" version="1.1" xmlns="http://www.w3.org/2000/svg" xmlns:xlink="http://www.w3.org/1999/xlink" xml:space="preserve" xmlns:serif="http://www.serif.com/" style="fill-rule:evenodd;clip-rule:evenodd;stroke-linejoin:round;stroke-miterlimit:2;"><g id="Ebene-1" serif:id="Ebene 1"><path id="path1882" d="M54.851,148.706c-16.651,-6.037 -16.342,-22.872 0.515,-28.067c8.363,-2.577 19.777,-1.446 26.268,2.602c6.891,4.297 8.856,12.787 4.356,18.822c-5.592,7.5 -20.186,10.613 -31.139,6.643Zm6.733,-50.651c0,-8.193 2.259,-13.551 10.05,-23.837c10.628,-14.031 13.514,-20.599 13.514,-30.749c0,-13.155 -6.187,-21.682 -18.198,-25.08c-7.212,-2.041 -16.186,-1.115 -21.484,2.215c-3.883,2.442 -3.738,4.062 1.034,11.6c6.43,10.155 5.044,17.103 -4.03,20.208c-8.819,3.018 -19.908,0.764 -24.782,-5.036c-2.125,-2.529 -2.608,-4.143 -2.467,-8.236c0.445,-12.904 16.561,-24.174 38.993,-27.269c8.582,-1.184 26.426,-1.177 34.938,0.013c23.095,3.228 38.651,14.33 39.591,28.255c0.443,6.562 -1.677,12.715 -6.173,17.92c-3.849,4.455 -16.37,12.254 -28.692,17.871c-18.945,8.636 -24.51,13.724 -26.298,24.045c-0.619,3.574 -0.982,4.01 -3.345,4.01c-2.56,-0 -2.651,-0.205 -2.651,-5.93Z" style="fill:#001d9e;fill-rule:nonzero;"/><path id="path1" d="M96.526,192.078c-10.117,-9.364 -1.356,-22.504 14.605,-21.905c7.919,0.298 16.375,4.354 19.462,9.336c3.276,5.289 0.535,12.503 -6.077,15.995c-8.217,4.339 -21.335,2.734 -27.99,-3.426Zm30.949,-37.92c4.144,-6.436 8.642,-10.018 20.008,-15.935c15.503,-8.072 21.109,-12.43 26.244,-20.403c6.655,-10.335 6.074,-18.751 -1.707,-24.754c-4.672,-3.605 -12.239,-5.37 -18.114,-4.224c-4.306,0.84 -5.012,2.153 -5.05,9.399c-0.052,9.763 -4.662,14.836 -13.411,14.756c-8.502,-0.077 -16.133,-4.926 -17.054,-10.835c-0.401,-2.577 0.033,-3.979 2.215,-7.155c6.88,-10.013 25.328,-14.393 44.637,-10.597c7.387,1.453 21.498,6.411 27.629,9.709c16.634,8.948 23.322,21.987 17.022,33.187c-2.969,5.277 -7.759,9.523 -13.949,12.363c-5.298,2.432 -19.147,5.082 -31.734,6.074c-19.354,1.525 -26.33,3.977 -32.965,11.589c-2.298,2.635 -2.806,2.876 -4.675,2.221c-2.024,-0.711 -1.993,-0.897 0.903,-5.394l0.001,-0.001Z" style="fill:#001d9e;fill-rule:nonzero;"/><path id="path2" d="M152.061,241.842c-8.282,-6.061 -0.598,-11.699 12.809,-9.4c6.652,1.141 13.664,4.275 16.14,7.212c2.627,3.119 0.149,6.473 -5.496,7.436c-7.014,1.198 -18.006,-1.262 -23.453,-5.248Zm26.938,-15.565c3.641,-2.78 7.509,-4.054 17.209,-5.666c13.232,-2.2 18.051,-3.734 22.561,-7.178c5.845,-4.463 5.56,-8.848 -0.838,-12.895c-3.842,-2.43 -10.162,-4.278 -15.13,-4.424c-3.641,-0.108 -4.266,0.477 -4.473,4.185c-0.279,4.995 -4.278,7.018 -11.633,5.886c-7.147,-1.101 -13.447,-4.538 -14.079,-7.68c-0.275,-1.37 0.123,-2.035 2.035,-3.389c6.027,-4.272 21.645,-4.213 37.79,0.142c6.177,1.666 17.922,5.968 22.998,8.423c13.771,6.66 19.081,14.175 13.513,19.126c-2.624,2.334 -6.754,3.911 -12.028,4.594c-4.513,0.584 -16.223,0.213 -26.831,-0.85c-16.311,-1.634 -22.236,-1.248 -27.999,1.823c-1.996,1.063 -2.428,1.123 -3.984,0.554c-1.685,-0.617 -1.655,-0.708 0.889,-2.651l0,0Z" style="fill:#001d9e;fill-rule:nonzero;"/></g></svg>