<?xml version="1.0" encoding="UTF-8" standalone="no"?>
<!DOCTYPE svg PUBLIC "-//W3C//DTD SVG 1.1//EN" "http://www.w3.org/Graphics/SVG/1.1/DTD/svg11.dtd">
<svg width="30px" height="30px" version="1.1" xmlns="http://www.w3.org/2000/svg" xmlns:xlink="http://www.w3.org/1999/xlink" xml:space="preserve" xmlns:serif="http://www.serif.com/" style="fill-rule:evenodd;clip-rule:evenodd;stroke-linejoin:round;stroke-miterlimit:2;">
    <g id="Ebene-1" serif:id="Ebene 1">
        <path id="path1882" d="M5.042,17.478C2.925,16.712 2.964,14.576 5.107,13.917C6.171,13.59 7.622,13.733 8.448,14.247C9.324,14.792 9.574,15.869 9.001,16.635C8.29,17.587 6.435,17.982 5.042,17.478ZM5.898,11.051C5.898,10.012 6.185,9.332 7.176,8.027C8.527,6.247 8.894,5.413 8.894,4.125C8.894,2.456 8.108,1.374 6.58,0.943C5.663,0.684 4.522,0.802 3.849,1.224C3.355,1.534 3.373,1.74 3.98,2.696C4.798,3.984 4.622,4.866 3.468,5.26C2.346,5.643 0.936,5.357 0.317,4.621C0.046,4.3 -0.015,4.095 0.003,3.576C0.059,1.939 2.109,0.509 4.961,0.116C6.052,-0.034 8.321,-0.033 9.404,0.118C12.34,0.527 14.318,1.936 14.438,3.703C14.494,4.535 14.224,5.316 13.653,5.977C13.163,6.542 11.571,7.531 10.004,8.244C7.596,9.34 6.888,9.985 6.661,11.295C6.582,11.748 6.536,11.804 6.235,11.804C5.91,11.804 5.898,11.778 5.898,11.051Z" style="fill:rgb(0,29,158);fill-rule:nonzero;"/>
        <path id="path1" d="M10.341,22.981C9.055,21.793 10.169,20.126 12.198,20.202C13.205,20.24 14.28,20.754 14.673,21.386C15.089,22.058 14.741,22.973 13.9,23.416C12.855,23.967 11.187,23.763 10.341,22.981ZM14.276,18.17C14.803,17.353 15.375,16.899 16.821,16.148C18.792,15.124 19.505,14.571 20.158,13.559C21.004,12.248 20.93,11.18 19.941,10.418C19.347,9.961 18.384,9.737 17.637,9.882C17.09,9.989 17,10.156 16.995,11.075C16.989,12.314 16.402,12.957 15.29,12.947C14.209,12.937 13.239,12.322 13.121,11.572C13.07,11.245 13.126,11.068 13.403,10.665C14.278,9.394 16.624,8.838 19.079,9.32C20.018,9.504 21.812,10.133 22.592,10.552C24.707,11.687 25.557,13.342 24.756,14.763C24.379,15.432 23.77,15.971 22.983,16.331C22.309,16.64 20.548,16.976 18.948,17.102C16.487,17.296 15.6,17.607 14.756,18.573C14.464,18.907 14.399,18.938 14.162,18.854C13.904,18.764 13.908,18.741 14.276,18.17L14.276,18.17Z" style="fill:rgb(0,29,158);fill-rule:nonzero;"/>
        <path id="path2" d="M17.403,29.295C16.35,28.526 17.327,27.811 19.031,28.103C19.877,28.248 20.769,28.645 21.084,29.018C21.418,29.414 21.103,29.839 20.385,29.961C19.493,30.113 18.095,29.801 17.403,29.295ZM20.828,27.321C21.291,26.968 21.783,26.806 23.016,26.602C24.699,26.323 25.311,26.128 25.885,25.691C26.628,25.125 26.592,24.568 25.778,24.055C25.29,23.746 24.486,23.512 23.855,23.493C23.392,23.48 23.312,23.554 23.286,24.024C23.25,24.658 22.742,24.915 21.807,24.771C20.898,24.632 20.097,24.195 20.016,23.797C19.981,23.623 20.032,23.539 20.275,23.367C21.041,22.825 23.027,22.832 25.08,23.385C25.866,23.596 27.359,24.142 28.005,24.454C29.756,25.299 30.431,26.252 29.723,26.88C29.389,27.176 28.864,27.377 28.193,27.463C27.62,27.537 26.131,27.49 24.782,27.355C22.708,27.148 21.954,27.197 21.222,27.587C20.968,27.722 20.913,27.729 20.715,27.657C20.501,27.579 20.505,27.567 20.828,27.321Z" style="fill:rgb(0,29,158);fill-rule:nonzero;"/>
    </g>
</svg>
