<?xml version="1.0" encoding="UTF-8" standalone="no"?>
<!DOCTYPE svg PUBLIC "-//W3C//DTD SVG 1.1//EN" "http://www.w3.org/Graphics/SVG/1.1/DTD/svg11.dtd">
<svg width="800px" height="800px" version="1.1" xmlns="http://www.w3.org/2000/svg" xmlns:xlink="http://www.w3.org/1999/xlink" xml:space="preserve" xmlns:serif="http://www.serif.com/" style="fill-rule:evenodd;clip-rule:evenodd;stroke-linejoin:round;stroke-miterlimit:2;">
    <g id="www">
        <path d="M787.364,467.2C778.297,464.967 769.364,470.367 767.164,479.333L745.831,564.665L715.332,493.465C710.064,481.198 689.932,481.198 684.665,493.465L654.165,564.665L632.832,479.333C630.632,470.365 621.399,464.933 612.632,467.2C603.699,469.433 598.299,478.467 600.499,487.4L633.832,620.732C635.565,627.665 641.532,632.732 648.665,633.299C656.432,633.932 662.497,629.799 665.332,623.232L699.997,542.334L734.664,623.234C737.331,629.401 743.364,633.333 749.997,633.333C750.43,633.333 750.864,633.333 751.33,633.301C758.463,632.733 764.397,627.668 766.163,620.734L799.495,487.401C801.73,478.467 796.33,469.434 787.364,467.2Z" style="fill-rule:nonzero;"/>
        <path d="M554.031,467.2C544.931,464.967 536.031,470.367 533.831,479.333L512.498,564.667L481.998,493.467C476.731,481.2 456.598,481.2 451.331,493.467L420.831,564.667L399.498,479.334C397.266,470.367 388.066,464.934 379.299,467.201C370.366,469.434 364.966,478.468 367.166,487.401L400.498,620.734C402.231,627.666 408.198,632.733 415.331,633.301C423.064,633.933 429.164,629.801 431.998,623.234L466.665,542.334L501.332,623.234C504,629.401 510.032,633.333 516.665,633.333C517.098,633.333 517.532,633.333 517.998,633.301C525.131,632.733 531.065,627.668 532.831,620.734L566.163,487.401C568.398,478.467 562.998,469.434 554.031,467.2Z" style="fill-rule:nonzero;"/>
        <path d="M320.699,467.2C311.599,464.967 302.699,470.367 300.499,479.333L279.166,564.665L248.666,493.465C243.399,481.198 223.266,481.198 217.999,493.465L187.499,564.667L166.167,479.334C163.967,470.367 154.734,464.934 145.967,467.201C137.034,469.434 131.634,478.468 133.834,487.401L167.167,620.734C168.899,627.666 174.867,632.733 181.999,633.301C189.666,633.933 195.832,629.801 198.666,623.234L233.333,542.334L268.001,623.234C270.668,629.401 276.7,633.333 283.333,633.333C283.766,633.333 284.2,633.333 284.666,633.301C291.799,632.733 297.733,627.668 299.499,620.734L332.832,487.401C335.066,478.467 329.666,469.434 320.699,467.2Z" style="fill-rule:nonzero;"/>
    </g>
    <path id="page" d="M583.331,433.334C592.53,433.334 599.998,425.867 599.998,416.667L599.998,16.669C599.998,7.469 592.53,0.002 583.331,0.002L216.666,0.002C214.434,0.002 212.234,0.469 210.199,1.302C209.566,1.569 209.099,2.069 208.532,2.434C207.265,3.167 205.932,3.834 204.865,4.867L4.866,204.866C4.098,205.634 3.666,206.666 3.066,207.566C2.466,208.466 1.698,209.234 1.298,210.234C0.467,212.268 0,214.435 0,216.668L0,783.333C0,792.533 7.467,800 16.667,800L583.332,800C592.532,800 599.999,792.533 599.999,783.333L599.999,683.333C599.999,674.133 592.532,666.666 583.332,666.666C574.132,666.666 566.665,674.133 566.665,683.333L566.665,766.666L33.333,766.666L33.333,233.333L216.665,233.333C225.865,233.333 233.332,225.866 233.332,216.666L233.332,33.334L566.663,33.334L566.663,416.666C566.665,425.867 574.131,433.334 583.331,433.334ZM199.999,200.001L56.9,200.001L199.999,56.901L199.999,200.001Z" style="fill-rule:nonzero;"/>
</svg>
