<?xml version="1.0" encoding="UTF-8" standalone="no"?>
<!DOCTYPE svg PUBLIC "-//W3C//DTD SVG 1.1//EN" "http://www.w3.org/Graphics/SVG/1.1/DTD/svg11.dtd">
<svg width="30px" height="30px" version="1.1" xmlns="http://www.w3.org/2000/svg" xmlns:xlink="http://www.w3.org/1999/xlink" xml:space="preserve" xmlns:serif="http://www.serif.com/" style="fill-rule:evenodd;clip-rule:evenodd;stroke-linejoin:round;stroke-miterlimit:2;">
    <path d="M15.095,2.579C15.124,2.578 15.153,2.577 15.182,2.578C16.009,2.589 16.672,3.271 16.66,4.099C16.649,4.926 15.967,5.589 15.139,5.577C15.117,5.577 15.095,5.576 15.073,5.575C15.051,5.576 15.029,5.577 15.007,5.576L14.993,5.576C14.165,5.577 13.493,4.905 13.492,4.077C13.492,3.25 14.163,2.577 14.991,2.576L15.009,2.576C15.038,2.577 15.066,2.577 15.095,2.579ZM21.836,4.578C21.861,4.592 21.886,4.607 21.91,4.623C22.604,5.075 22.8,6.006 22.347,6.699C21.895,7.393 20.965,7.588 20.272,7.136C20.253,7.124 20.235,7.112 20.217,7.099C20.198,7.088 20.179,7.077 20.16,7.065L20.149,7.058C19.449,6.616 19.239,5.689 19.681,4.989C20.122,4.289 21.049,4.079 21.75,4.52L21.764,4.529C21.789,4.545 21.813,4.561 21.836,4.578ZM26.456,9.89C26.469,9.916 26.482,9.942 26.494,9.969C26.833,10.724 26.495,11.612 25.74,11.951C24.985,12.29 24.096,11.953 23.757,11.197C23.748,11.177 23.739,11.157 23.731,11.137C23.721,11.117 23.712,11.098 23.702,11.078L23.697,11.066C23.346,10.316 23.67,9.422 24.42,9.072C25.169,8.721 26.063,9.045 26.414,9.794L26.421,9.81C26.434,9.837 26.445,9.863 26.456,9.89ZM24.463,16.421C24.465,16.399 24.468,16.377 24.471,16.355L24.473,16.342C24.591,15.523 25.353,14.954 26.172,15.073C26.992,15.192 27.56,15.953 27.442,16.772L27.439,16.79C27.435,16.819 27.43,16.847 27.424,16.875C27.421,16.904 27.417,16.933 27.413,16.962C27.281,17.779 26.511,18.336 25.694,18.205C24.876,18.073 24.319,17.303 24.451,16.485C24.454,16.463 24.458,16.442 24.463,16.421ZM22.17,21.24C22.184,21.223 22.198,21.207 22.212,21.19L22.221,21.18C22.769,20.56 23.718,20.501 24.339,21.049C24.959,21.597 25.018,22.546 24.469,23.166L24.458,23.179C24.439,23.201 24.419,23.222 24.399,23.243C24.38,23.265 24.362,23.287 24.342,23.309C23.784,23.921 22.835,23.965 22.223,23.407C21.611,22.85 21.567,21.9 22.124,21.288C22.139,21.272 22.154,21.256 22.17,21.24ZM17.616,24.069C17.637,24.062 17.658,24.055 17.679,24.049L17.692,24.045C18.487,23.816 19.319,24.275 19.549,25.071C19.778,25.866 19.319,26.698 18.523,26.928L18.507,26.932C18.479,26.941 18.45,26.948 18.422,26.954C18.395,26.963 18.367,26.972 18.339,26.979C17.541,27.197 16.716,26.725 16.498,25.926C16.281,25.127 16.753,24.302 17.552,24.084C17.573,24.079 17.594,24.073 17.616,24.069ZM12.245,24.028C12.266,24.033 12.287,24.039 12.308,24.045L12.321,24.049C13.117,24.277 13.577,25.109 13.349,25.905C13.121,26.7 12.289,27.161 11.494,26.933L11.477,26.928C11.449,26.92 11.421,26.911 11.394,26.901C11.366,26.895 11.338,26.887 11.31,26.878C10.518,26.638 10.07,25.8 10.311,25.007C10.551,24.215 11.389,23.767 12.182,24.008C12.203,24.014 12.224,24.021 12.245,24.028ZM7.734,21.132C7.749,21.147 7.764,21.163 7.779,21.18L7.788,21.19C8.337,21.81 8.279,22.758 7.66,23.307C7.04,23.856 6.091,23.799 5.542,23.179L5.531,23.166C5.511,23.145 5.493,23.122 5.475,23.1C5.455,23.079 5.436,23.058 5.417,23.036C4.877,22.408 4.949,21.46 5.577,20.92C6.205,20.381 7.153,20.453 7.692,21.08C7.706,21.097 7.72,21.114 7.734,21.132ZM5.516,16.277C5.521,16.299 5.524,16.32 5.527,16.342L5.529,16.355C5.649,17.174 5.081,17.937 4.262,18.057C3.443,18.177 2.681,17.609 2.561,16.79L2.558,16.772C2.554,16.744 2.551,16.715 2.548,16.686C2.543,16.658 2.538,16.629 2.535,16.6C2.427,15.779 3.007,15.026 3.828,14.919C4.649,14.811 5.402,15.391 5.509,16.212C5.512,16.234 5.515,16.256 5.516,16.277ZM3.625,9.717C3.636,9.69 3.648,9.664 3.661,9.637C4.022,8.892 4.92,8.581 5.665,8.943C6.41,9.304 6.721,10.202 6.36,10.947C6.35,10.967 6.34,10.986 6.33,11.006C6.322,11.026 6.313,11.046 6.303,11.066L6.298,11.078C5.948,11.828 5.055,12.153 4.304,11.804C3.554,11.454 3.229,10.561 3.579,9.81L3.586,9.794C3.598,9.768 3.611,9.742 3.625,9.717ZM8.325,4.476C8.349,4.46 8.373,4.444 8.398,4.429C9.104,3.997 10.028,4.219 10.46,4.926C10.892,5.632 10.669,6.556 9.963,6.988C9.944,6.999 9.925,7.011 9.906,7.021C9.888,7.034 9.87,7.046 9.851,7.058L9.84,7.065C9.14,7.507 8.213,7.299 7.77,6.599C7.327,5.899 7.536,4.972 8.236,4.529L8.25,4.52C8.275,4.505 8.3,4.49 8.325,4.476Z" style="fill:url(#_Radial1);"/>
    <rect id="outer" x="0" y="0" width="30" height="30" style="fill:none;"/>
    <defs>
        <radialGradient id="_Radial1" cx="0" cy="0" r="1" gradientUnits="userSpaceOnUse" gradientTransform="matrix(22.1381,0,0,21.847,3.93095,15)"><stop offset="0" style="stop-color:rgb(191,191,191);stop-opacity:1"/><stop offset="0.48" style="stop-color:rgb(140,140,140);stop-opacity:1"/><stop offset="1" style="stop-color:black;stop-opacity:1"/></radialGradient>
    </defs>
</svg>
