<?xml version="1.0" encoding="UTF-8" standalone="no"?>
<!DOCTYPE svg PUBLIC "-//W3C//DTD SVG 1.1//EN" "http://www.w3.org/Graphics/SVG/1.1/DTD/svg11.dtd">
<svg width="30px" height="30px" version="1.1" xmlns="http://www.w3.org/2000/svg" xmlns:xlink="http://www.w3.org/1999/xlink" xml:space="preserve" xmlns:serif="http://www.serif.com/" style="fill-rule:evenodd;clip-rule:evenodd;stroke-linejoin:round;stroke-miterlimit:20;">
    <g id="bottom">
        <rect x="0" y="24.089" width="30" height="5.911" style="fill:url(#_Linear1);"/>
        <path d="M2.299,28.597L0.905,28.597L0.905,25.3L1.22,25.3L1.22,28.248L2.299,28.248L2.299,28.597Z" style="fill-rule:nonzero;"/>
        <path d="M3.472,28.652C3.188,28.652 2.962,28.542 2.792,28.322C2.623,28.102 2.539,27.811 2.539,27.447C2.539,27.052 2.627,26.743 2.803,26.521C2.979,26.299 3.217,26.187 3.516,26.187C3.802,26.187 4.026,26.296 4.186,26.512C4.347,26.728 4.427,27.027 4.427,27.411C4.427,27.786 4.34,28.087 4.167,28.313C3.994,28.539 3.763,28.652 3.472,28.652ZM3.494,26.505C3.297,26.505 3.141,26.587 3.026,26.752C2.911,26.917 2.853,27.144 2.853,27.434C2.853,27.713 2.911,27.933 3.028,28.093C3.144,28.254 3.299,28.335 3.494,28.335C3.693,28.335 3.845,28.256 3.952,28.098C4.059,27.94 4.112,27.716 4.112,27.424C4.112,27.13 4.059,26.903 3.952,26.744C3.845,26.584 3.693,26.505 3.494,26.505Z" style="fill-rule:nonzero;"/>
        <path d="M5.918,26.624C5.864,26.574 5.787,26.548 5.686,26.548C5.555,26.548 5.445,26.624 5.357,26.776C5.269,26.928 5.225,27.135 5.225,27.397L5.225,28.597L4.918,28.597L4.918,26.243L5.225,26.243L5.225,26.728L5.232,26.728C5.276,26.562 5.343,26.433 5.433,26.34C5.523,26.248 5.623,26.201 5.734,26.201C5.814,26.201 5.875,26.212 5.918,26.233L5.918,26.624Z" style="fill-rule:nonzero;"/>
        <path d="M7.793,27.514L6.439,27.514C6.444,27.776 6.501,27.979 6.611,28.121C6.721,28.264 6.872,28.335 7.064,28.335C7.28,28.335 7.479,28.248 7.66,28.073L7.66,28.427C7.491,28.577 7.268,28.652 6.991,28.652C6.72,28.652 6.507,28.545 6.353,28.331C6.198,28.118 6.12,27.817 6.12,27.429C6.12,27.063 6.205,26.764 6.374,26.534C6.543,26.303 6.753,26.187 7.004,26.187C7.255,26.187 7.45,26.287 7.587,26.486C7.724,26.686 7.793,26.962 7.793,27.316L7.793,27.514ZM7.478,27.195C7.477,26.977 7.434,26.807 7.35,26.686C7.266,26.565 7.149,26.505 6.999,26.505C6.854,26.505 6.731,26.568 6.63,26.696C6.529,26.823 6.466,26.989 6.442,27.195L7.478,27.195Z" style="fill-rule:nonzero;"/>
        <path d="M10.981,28.597L10.674,28.597L10.674,27.245C10.674,26.985 10.641,26.796 10.576,26.68C10.51,26.563 10.4,26.505 10.245,26.505C10.114,26.505 10.002,26.578 9.911,26.725C9.819,26.873 9.773,27.049 9.773,27.254L9.773,28.597L9.466,28.597L9.466,27.199C9.466,26.736 9.32,26.505 9.029,26.505C8.894,26.505 8.783,26.574 8.696,26.713C8.608,26.852 8.565,27.032 8.565,27.254L8.565,28.597L8.258,28.597L8.258,26.243L8.565,26.243L8.565,26.615L8.572,26.615C8.708,26.33 8.907,26.187 9.168,26.187C9.299,26.187 9.413,26.232 9.511,26.322C9.608,26.412 9.675,26.529 9.711,26.675C9.854,26.35 10.066,26.187 10.348,26.187C10.77,26.187 10.981,26.507 10.981,27.146L10.981,28.597Z" style="fill-rule:nonzero;"/>
        <rect x="12.654" y="25.3" width="0.315" height="3.297" style="fill-rule:nonzero;"/>
        <path d="M13.948,28.257L13.941,28.257L13.941,29.68L13.634,29.68L13.634,26.243L13.941,26.243L13.941,26.657L13.948,26.657C14.099,26.344 14.32,26.187 14.611,26.187C14.859,26.187 15.052,26.293 15.19,26.504C15.329,26.714 15.398,26.997 15.398,27.351C15.398,27.745 15.32,28.06 15.164,28.297C15.008,28.534 14.794,28.652 14.523,28.652C14.275,28.652 14.083,28.52 13.948,28.257ZM13.941,27.307L13.941,27.636C13.941,27.831 13.992,27.996 14.095,28.131C14.198,28.267 14.329,28.335 14.488,28.335C14.674,28.335 14.82,28.248 14.925,28.073C15.031,27.898 15.083,27.655 15.083,27.344C15.083,27.082 15.034,26.876 14.935,26.728C14.837,26.579 14.703,26.505 14.535,26.505C14.356,26.505 14.212,26.581 14.104,26.734C13.995,26.886 13.941,27.077 13.941,27.307Z" style="fill-rule:nonzero;"/>
        <path d="M15.773,28.512L15.773,28.107C15.94,28.259 16.124,28.335 16.325,28.335C16.595,28.335 16.73,28.225 16.73,28.004C16.73,27.941 16.718,27.888 16.695,27.844C16.672,27.8 16.641,27.762 16.602,27.728C16.562,27.694 16.516,27.664 16.463,27.637C16.41,27.61 16.353,27.582 16.292,27.553C16.207,27.512 16.132,27.47 16.068,27.428C16.004,27.386 15.95,27.338 15.907,27.285C15.864,27.232 15.831,27.172 15.809,27.105C15.787,27.037 15.777,26.958 15.777,26.868C15.777,26.758 15.797,26.66 15.838,26.575C15.88,26.49 15.935,26.419 16.003,26.361C16.072,26.304 16.15,26.26 16.238,26.231C16.326,26.202 16.417,26.187 16.511,26.187C16.677,26.187 16.826,26.223 16.957,26.293L16.957,26.675C16.816,26.561 16.653,26.505 16.47,26.505C16.412,26.505 16.36,26.513 16.314,26.529C16.268,26.545 16.228,26.568 16.195,26.597C16.162,26.626 16.137,26.661 16.118,26.701C16.1,26.742 16.091,26.787 16.091,26.836C16.091,26.897 16.1,26.949 16.118,26.99C16.137,27.031 16.163,27.068 16.198,27.1C16.233,27.132 16.275,27.162 16.325,27.188C16.375,27.214 16.432,27.242 16.496,27.273C16.581,27.313 16.657,27.354 16.724,27.396C16.792,27.438 16.849,27.485 16.897,27.538C16.944,27.591 16.981,27.652 17.006,27.721C17.032,27.79 17.045,27.872 17.045,27.967C17.045,28.084 17.024,28.185 16.982,28.271C16.94,28.356 16.884,28.428 16.814,28.484C16.744,28.541 16.664,28.583 16.573,28.611C16.481,28.638 16.386,28.652 16.286,28.652C16.089,28.652 15.918,28.605 15.773,28.512Z" style="fill-rule:nonzero;"/>
        <path d="M19.068,28.597L18.761,28.597L18.761,28.225L18.753,28.225C18.626,28.51 18.428,28.652 18.161,28.652C17.704,28.652 17.476,28.318 17.476,27.65L17.476,26.243L17.781,26.243L17.781,27.59C17.781,28.087 17.936,28.335 18.245,28.335C18.395,28.335 18.519,28.267 18.615,28.131C18.712,27.996 18.761,27.818 18.761,27.599L18.761,26.243L19.068,26.243L19.068,28.597Z" style="fill-rule:nonzero;"/>
        <path d="M22.411,28.597L22.104,28.597L22.104,27.245C22.104,26.985 22.071,26.796 22.006,26.68C21.94,26.563 21.83,26.505 21.675,26.505C21.544,26.505 21.433,26.578 21.341,26.725C21.249,26.873 21.203,27.049 21.203,27.254L21.203,28.597L20.896,28.597L20.896,27.199C20.896,26.736 20.75,26.505 20.46,26.505C20.325,26.505 20.214,26.574 20.126,26.713C20.039,26.852 19.995,27.032 19.995,27.254L19.995,28.597L19.688,28.597L19.688,26.243L19.995,26.243L19.995,26.615L20.002,26.615C20.139,26.33 20.337,26.187 20.598,26.187C20.729,26.187 20.844,26.232 20.941,26.322C21.038,26.412 21.105,26.529 21.141,26.675C21.284,26.35 21.496,26.187 21.778,26.187C22.2,26.187 22.411,26.507 22.411,27.146L22.411,28.597Z" style="fill-rule:nonzero;"/>
        <path d="M24.5,26.243L23.736,28.597L23.434,28.597L22.707,26.243L23.045,26.243L23.532,27.953C23.568,28.079 23.59,28.189 23.599,28.282L23.606,28.282C23.619,28.164 23.639,28.057 23.666,27.962L24.176,26.243L24.5,26.243Z" style="fill-rule:nonzero;"/>
    </g>
    <g id="bottom1" serif:id="bottom">
        <g id="side">
            <path d="M0,1.793L5.911,1.793L5.911,22.793L0,22.793L0,1.793Z" style="fill:url(#_Linear2);"/>
            <path d="M4.084,21.307L4.084,22.439L0.697,22.439L0.697,22.183L3.725,22.183L3.725,21.307L4.084,21.307Z" style="fill-rule:nonzero;"/>
            <path d="M4.141,20.356C4.141,20.586 4.028,20.77 3.802,20.907C3.576,21.044 3.276,21.113 2.903,21.113C2.497,21.113 2.18,21.041 1.951,20.898C1.723,20.756 1.609,20.562 1.609,20.319C1.609,20.087 1.72,19.906 1.942,19.776C2.164,19.646 2.472,19.58 2.865,19.58C3.251,19.58 3.56,19.651 3.793,19.791C4.025,19.931 4.141,20.12 4.141,20.356ZM1.935,20.337C1.935,20.498 2.019,20.624 2.189,20.718C2.358,20.811 2.591,20.857 2.889,20.857C3.176,20.857 3.402,20.81 3.567,20.716C3.732,20.622 3.815,20.496 3.815,20.337C3.815,20.176 3.734,20.052 3.572,19.966C3.409,19.879 3.179,19.836 2.88,19.836C2.577,19.836 2.344,19.879 2.18,19.966C2.017,20.052 1.935,20.176 1.935,20.337Z" style="fill-rule:nonzero;"/>
            <path d="M2.058,18.37C2.006,18.414 1.98,18.477 1.98,18.559C1.98,18.665 2.058,18.754 2.213,18.826C2.369,18.897 2.582,18.933 2.851,18.933L4.084,18.933L4.084,19.182L1.665,19.182L1.665,18.933L2.164,18.933L2.164,18.927C1.994,18.891 1.861,18.837 1.766,18.764C1.671,18.691 1.623,18.609 1.623,18.519C1.623,18.454 1.634,18.405 1.656,18.37L2.058,18.37Z" style="fill-rule:nonzero;"/>
            <path d="M2.972,16.848L2.972,17.948C3.241,17.944 3.449,17.897 3.595,17.808C3.742,17.719 3.815,17.596 3.815,17.44C3.815,17.264 3.725,17.103 3.546,16.956L3.909,16.956C4.064,17.093 4.141,17.274 4.141,17.499C4.141,17.719 4.031,17.892 3.811,18.018C3.592,18.143 3.283,18.206 2.884,18.206C2.508,18.206 2.201,18.137 1.964,18C1.727,17.863 1.609,17.692 1.609,17.488C1.609,17.285 1.711,17.127 1.916,17.016C2.121,16.904 2.405,16.848 2.769,16.848L2.972,16.848ZM2.643,17.104C2.42,17.105 2.246,17.14 2.121,17.208C1.997,17.276 1.935,17.371 1.935,17.493C1.935,17.611 2,17.71 2.131,17.793C2.261,17.875 2.432,17.925 2.643,17.945L2.643,17.104Z" style="fill-rule:nonzero;"/>
            <path d="M4.084,14.261L4.084,14.51L2.695,14.51C2.428,14.51 2.234,14.537 2.114,14.59C1.995,14.643 1.935,14.733 1.935,14.858C1.935,14.965 2.01,15.055 2.161,15.13C2.313,15.204 2.494,15.241 2.705,15.241L4.084,15.241L4.084,15.491L2.648,15.491C2.172,15.491 1.935,15.609 1.935,15.845C1.935,15.954 2.006,16.045 2.148,16.116C2.291,16.187 2.476,16.222 2.705,16.222L4.084,16.222L4.084,16.471L1.665,16.471L1.665,16.222L2.048,16.222L2.048,16.216C1.755,16.106 1.609,15.944 1.609,15.733C1.609,15.626 1.655,15.533 1.747,15.454C1.839,15.375 1.96,15.321 2.109,15.292C1.776,15.176 1.609,15.004 1.609,14.775C1.609,14.432 1.937,14.261 2.594,14.261L4.084,14.261Z" style="fill-rule:nonzero;"/>
            <path d="M4.084,12.648L4.084,12.903L0.697,12.903L0.697,12.648L4.084,12.648Z" style="fill-rule:nonzero;"/>
            <path d="M3.735,11.853L3.735,11.859L5.197,11.859L5.197,12.108L1.665,12.108L1.665,11.859L2.091,11.859L2.091,11.853C1.769,11.73 1.609,11.551 1.609,11.315C1.609,11.114 1.717,10.957 1.933,10.845C2.15,10.732 2.44,10.676 2.804,10.676C3.209,10.676 3.533,10.739 3.776,10.866C4.019,10.993 4.141,11.166 4.141,11.386C4.141,11.588 4.006,11.743 3.735,11.853ZM2.759,11.859L3.097,11.859C3.297,11.859 3.467,11.817 3.606,11.733C3.745,11.65 3.815,11.544 3.815,11.415C3.815,11.264 3.725,11.146 3.546,11.06C3.366,10.974 3.117,10.931 2.797,10.931C2.528,10.931 2.317,10.971 2.164,11.052C2.011,11.132 1.935,11.24 1.935,11.377C1.935,11.522 2.013,11.638 2.17,11.727C2.326,11.815 2.523,11.859 2.759,11.859Z" style="fill-rule:nonzero;"/>
            <path d="M3.997,10.372L3.581,10.372C3.737,10.236 3.815,10.087 3.815,9.923C3.815,9.705 3.702,9.595 3.475,9.595C3.41,9.595 3.356,9.604 3.311,9.623C3.266,9.642 3.226,9.667 3.191,9.699C3.157,9.731 3.126,9.769 3.098,9.812C3.071,9.855 3.042,9.901 3.012,9.951C2.969,10.02 2.926,10.08 2.883,10.133C2.84,10.185 2.791,10.228 2.737,10.263C2.682,10.298 2.621,10.325 2.551,10.342C2.482,10.36 2.401,10.369 2.308,10.369C2.195,10.369 2.094,10.352 2.007,10.319C1.919,10.285 1.846,10.241 1.787,10.185C1.728,10.129 1.683,10.066 1.654,9.994C1.624,9.923 1.609,9.849 1.609,9.773C1.609,9.638 1.645,9.518 1.717,9.411L2.109,9.411C1.993,9.526 1.935,9.657 1.935,9.806C1.935,9.853 1.943,9.895 1.959,9.933C1.976,9.97 1.999,10.002 2.029,10.029C2.059,10.056 2.095,10.077 2.137,10.091C2.178,10.106 2.224,10.114 2.275,10.114C2.338,10.114 2.391,10.106 2.433,10.091C2.476,10.077 2.513,10.055 2.546,10.027C2.58,9.998 2.609,9.964 2.636,9.923C2.663,9.883 2.692,9.837 2.724,9.785C2.765,9.716 2.807,9.654 2.85,9.6C2.893,9.545 2.942,9.498 2.996,9.46C3.051,9.421 3.113,9.392 3.184,9.371C3.255,9.35 3.339,9.34 3.437,9.34C3.557,9.34 3.661,9.357 3.749,9.391C3.837,9.425 3.91,9.47 3.969,9.527C4.027,9.583 4.07,9.649 4.098,9.723C4.127,9.797 4.141,9.874 4.141,9.955C4.141,10.116 4.093,10.254 3.997,10.372Z" style="fill-rule:nonzero;"/>
            <path d="M4.084,7.698L4.084,7.947L3.702,7.947L3.702,7.953C3.995,8.057 4.141,8.217 4.141,8.434C4.141,8.805 3.798,8.99 3.111,8.99L1.665,8.99L1.665,8.742L3.05,8.742C3.56,8.742 3.815,8.617 3.815,8.365C3.815,8.244 3.745,8.143 3.606,8.065C3.467,7.986 3.284,7.947 3.059,7.947L1.665,7.947L1.665,7.698L4.084,7.698Z" style="fill-rule:nonzero;"/>
            <path d="M4.084,4.984L4.084,5.233L2.695,5.233C2.428,5.233 2.234,5.26 2.114,5.313C1.995,5.366 1.935,5.456 1.935,5.582C1.935,5.688 2.01,5.778 2.161,5.853C2.313,5.927 2.494,5.965 2.705,5.965L4.084,5.965L4.084,6.214L2.648,6.214C2.172,6.214 1.935,6.332 1.935,6.568C1.935,6.678 2.006,6.768 2.148,6.839C2.291,6.91 2.476,6.945 2.705,6.945L4.084,6.945L4.084,7.195L1.665,7.195L1.665,6.945L2.048,6.945L2.048,6.939C1.755,6.829 1.609,6.668 1.609,6.456C1.609,6.349 1.655,6.257 1.747,6.178C1.839,6.098 1.96,6.044 2.109,6.015C1.776,5.899 1.609,5.727 1.609,5.498C1.609,5.155 1.937,4.984 2.594,4.984L4.084,4.984Z" style="fill-rule:nonzero;"/>
            <path d="M1.665,3.289L4.084,3.909L4.084,4.154L1.665,4.744L1.665,4.47L3.423,4.075C3.552,4.046 3.665,4.027 3.761,4.02L3.761,4.014C3.639,4.004 3.53,3.988 3.432,3.965L1.665,3.552L1.665,3.289Z" style="fill-rule:nonzero;"/>
        </g>
        <rect x="5.911" y="0" width="24.089" height="8.363" style="fill:rgb(78,76,218);"/>
        <path d="M15.969,1.783L15.481,4.251L15.211,4.251L14.875,2.484C14.863,2.417 14.854,2.341 14.85,2.255L14.844,2.255C14.84,2.313 14.829,2.388 14.81,2.48L14.446,4.251L14.186,4.251L13.693,1.783L13.966,1.783L14.303,3.639C14.314,3.695 14.321,3.769 14.325,3.86L14.338,3.86C14.341,3.79 14.351,3.714 14.367,3.634L14.742,1.783L14.98,1.783L15.317,3.643C15.328,3.703 15.336,3.777 15.341,3.865L15.354,3.865C15.356,3.803 15.365,3.729 15.381,3.643L15.711,1.783L15.969,1.783Z" style="fill:rgb(146,228,135);fill-rule:nonzero;"/>
        <path d="M17.46,1.783L16.913,3.031L17.45,4.251L17.147,4.251L16.827,3.451C16.807,3.401 16.783,3.338 16.756,3.263L16.749,3.263C16.744,3.277 16.719,3.34 16.675,3.451L16.349,4.251L16.048,4.251L16.603,3.041L16.072,1.783L16.376,1.783L16.69,2.627C16.714,2.689 16.737,2.753 16.759,2.819L16.765,2.819L17.172,1.783L17.46,1.783Z" style="fill:rgb(146,228,135);fill-rule:nonzero;"/>
        <path d="M20.502,0.795L19.858,4.251L19.545,4.251L19.076,1.725C19.056,1.618 19.044,1.5 19.04,1.374L19.033,1.374C19.027,1.492 19.013,1.608 18.992,1.721L18.52,4.251L18.21,4.251L17.542,0.795L17.836,0.795L18.321,3.446C18.341,3.557 18.354,3.672 18.359,3.793L18.367,3.793C18.373,3.708 18.389,3.592 18.417,3.446L18.92,0.795L19.176,0.795L19.66,3.465C19.677,3.557 19.689,3.664 19.698,3.788L19.704,3.788C19.708,3.705 19.723,3.594 19.747,3.456L20.213,0.795L20.502,0.795Z" style="fill:rgb(146,228,135);fill-rule:nonzero;"/>
        <path d="M20.939,1.157C20.892,1.157 20.853,1.133 20.82,1.084C20.787,1.036 20.771,0.975 20.771,0.901C20.771,0.827 20.787,0.766 20.82,0.717C20.853,0.668 20.892,0.643 20.939,0.643C20.987,0.643 21.027,0.668 21.061,0.717C21.094,0.766 21.111,0.827 21.111,0.901C21.111,0.972 21.094,1.032 21.061,1.082C21.027,1.132 20.987,1.157 20.939,1.157ZM21.066,4.251L20.806,4.251L20.806,1.783L21.066,1.783L21.066,4.251Z" style="fill:rgb(146,228,135);fill-rule:nonzero;"/>
        <path d="M22.983,4.251L22.722,4.251L22.722,3.831L22.716,3.831C22.595,4.15 22.409,4.309 22.157,4.309C21.952,4.309 21.789,4.198 21.666,3.977C21.544,3.756 21.483,3.456 21.483,3.075C21.483,2.667 21.551,2.34 21.686,2.094C21.822,1.848 22.002,1.725 22.228,1.725C22.452,1.725 22.614,1.859 22.716,2.125L22.722,2.125L22.722,0.598L22.983,0.598L22.983,4.251ZM22.722,3.135L22.722,2.771C22.722,2.572 22.679,2.403 22.592,2.265C22.505,2.127 22.395,2.058 22.262,2.058C22.103,2.058 21.978,2.146 21.886,2.323C21.795,2.5 21.75,2.744 21.75,3.055C21.75,3.34 21.793,3.564 21.881,3.729C21.968,3.894 22.086,3.976 22.233,3.976C22.378,3.976 22.496,3.896 22.587,3.737C22.677,3.578 22.722,3.378 22.722,3.135Z" style="fill:rgb(146,228,135);fill-rule:nonzero;"/>
        <path d="M24.9,4.053C24.9,4.959 24.614,5.412 24.042,5.412C23.84,5.412 23.664,5.354 23.514,5.239L23.514,4.843C23.697,4.998 23.872,5.075 24.039,5.075C24.439,5.075 24.639,4.752 24.639,4.106L24.639,3.836L24.633,3.836C24.509,4.151 24.323,4.309 24.073,4.309C23.871,4.309 23.708,4.199 23.585,3.98C23.461,3.76 23.4,3.466 23.4,3.096C23.4,2.677 23.466,2.344 23.599,2.096C23.732,1.849 23.914,1.725 24.145,1.725C24.364,1.725 24.527,1.859 24.633,2.125L24.639,2.125L24.639,1.783L24.9,1.783L24.9,4.053ZM24.639,3.135L24.639,2.771C24.639,2.575 24.596,2.407 24.508,2.268C24.421,2.128 24.312,2.058 24.182,2.058C24.021,2.058 23.894,2.147 23.803,2.324C23.712,2.502 23.667,2.75 23.667,3.07C23.667,3.345 23.71,3.564 23.798,3.729C23.885,3.894 24.001,3.976 24.145,3.976C24.291,3.976 24.41,3.897 24.502,3.74C24.594,3.582 24.639,3.381 24.639,3.135Z" style="fill:rgb(146,228,135);fill-rule:nonzero;"/>
        <path d="M26.736,3.116L25.587,3.116C25.591,3.39 25.64,3.602 25.733,3.752C25.826,3.901 25.954,3.976 26.118,3.976C26.301,3.976 26.469,3.884 26.623,3.701L26.623,4.072C26.48,4.23 26.291,4.309 26.056,4.309C25.826,4.309 25.645,4.196 25.514,3.972C25.382,3.748 25.316,3.433 25.316,3.027C25.316,2.643 25.388,2.33 25.532,2.088C25.675,1.846 25.854,1.725 26.067,1.725C26.28,1.725 26.444,1.83 26.561,2.039C26.678,2.247 26.736,2.537 26.736,2.908L26.736,3.116ZM26.469,2.781C26.468,2.553 26.431,2.375 26.36,2.248C26.288,2.121 26.189,2.058 26.062,2.058C25.939,2.058 25.835,2.125 25.749,2.258C25.663,2.391 25.61,2.566 25.59,2.781L26.469,2.781Z" style="fill:rgb(146,228,135);fill-rule:nonzero;"/>
        <path d="M27.885,4.227C27.824,4.278 27.742,4.304 27.642,4.304C27.357,4.304 27.214,4.063 27.214,3.581L27.214,2.121L26.934,2.121L26.934,1.783L27.214,1.783L27.214,1.181L27.475,1.053L27.475,1.783L27.885,1.783L27.885,2.121L27.475,2.121L27.475,3.511C27.475,3.676 27.493,3.794 27.531,3.865C27.568,3.936 27.629,3.971 27.715,3.971C27.781,3.971 27.837,3.944 27.885,3.889L27.885,4.227Z" style="fill:rgb(146,228,135);fill-rule:nonzero;"/>
        <path d="M28.135,4.162L28.135,3.737C28.277,3.896 28.433,3.976 28.603,3.976C28.832,3.976 28.947,3.86 28.947,3.629C28.947,3.563 28.937,3.507 28.917,3.462C28.898,3.416 28.871,3.375 28.838,3.34C28.804,3.304 28.765,3.273 28.72,3.245C28.675,3.217 28.627,3.187 28.575,3.157C28.503,3.113 28.439,3.07 28.385,3.025C28.33,2.981 28.285,2.931 28.248,2.876C28.212,2.821 28.184,2.757 28.166,2.687C28.147,2.616 28.138,2.533 28.138,2.439C28.138,2.323 28.155,2.221 28.19,2.131C28.225,2.042 28.272,1.968 28.33,1.907C28.388,1.847 28.455,1.802 28.53,1.771C28.604,1.741 28.681,1.725 28.761,1.725C28.902,1.725 29.028,1.762 29.139,1.836L29.139,2.236C29.019,2.117 28.882,2.058 28.726,2.058C28.677,2.058 28.633,2.066 28.594,2.083C28.555,2.1 28.521,2.124 28.493,2.154C28.465,2.185 28.443,2.221 28.428,2.264C28.412,2.306 28.405,2.353 28.405,2.405C28.405,2.469 28.412,2.523 28.428,2.566C28.443,2.61 28.466,2.648 28.495,2.682C28.525,2.716 28.561,2.746 28.603,2.774C28.646,2.801 28.694,2.831 28.748,2.863C28.82,2.904 28.885,2.947 28.942,2.992C28.999,3.036 29.048,3.086 29.088,3.141C29.128,3.196 29.159,3.26 29.181,3.333C29.203,3.405 29.214,3.491 29.214,3.59C29.214,3.713 29.196,3.819 29.161,3.909C29.125,3.998 29.078,4.073 29.018,4.133C28.959,4.192 28.891,4.236 28.813,4.265C28.736,4.294 28.655,4.309 28.57,4.309C28.403,4.309 28.257,4.26 28.135,4.162Z" style="fill:rgb(146,228,135);fill-rule:nonzero;"/>
        <g>
            <g>
                <path d="M7.355,3.279L8.878,3.279C9.214,3.279 9.485,3.549 9.485,3.886L9.485,5.409C9.485,5.745 9.214,6.016 8.878,6.016L7.355,6.016C7.018,6.016 6.748,5.745 6.748,5.409L6.748,3.886C6.748,3.549 7.018,3.279 7.355,3.279Z" style="fill:url(#_Linear3);fill-rule:nonzero;"/>
                <path d="M8.897,4.305C8.233,4.313 8.051,5.081 7.462,5.089C7.207,5.092 6.989,4.917 6.748,4.71L6.748,5.416C6.748,5.748 7.019,6.016 7.355,6.016L8.878,6.016C9.214,6.016 9.485,5.748 9.485,5.416L9.485,4.455C9.32,4.365 9.129,4.303 8.897,4.305Z" style="fill:rgb(255,0,0);fill-opacity:0.25;"/>
                <rect x="7.09" y="3.621" width="0.452" height="2.053" style="fill:url(#_Linear4);"/>
                <path d="M7.356,3.366L8.878,3.366C9.167,3.366 9.398,3.597 9.398,3.886L9.398,5.409C9.398,5.698 9.167,5.929 8.878,5.929L7.355,5.929C7.066,5.929 6.835,5.698 6.835,5.409L6.835,3.885C6.835,3.596 7.067,3.366 7.356,3.366Z" style="fill:none;fill-rule:nonzero;stroke:rgb(128,0,0);stroke-opacity:0.5;stroke-width:0.17px;"/>
            </g>
            <g>
                <path d="M9.134,1.5L10.657,1.5C10.993,1.5 11.264,1.771 11.264,2.107L11.264,3.63C11.264,3.966 10.993,4.237 10.657,4.237L9.134,4.237C8.797,4.237 8.527,3.966 8.527,3.63L8.527,2.107C8.527,1.771 8.797,1.5 9.134,1.5Z" style="fill:url(#_Linear5);fill-rule:nonzero;"/>
                <path d="M10.676,2.526C10.012,2.534 9.83,3.302 9.241,3.31C8.986,3.313 8.768,3.138 8.527,2.931L8.527,3.638C8.527,3.969 8.798,4.237 9.134,4.237L10.657,4.237C10.993,4.237 11.264,3.969 11.264,3.638L11.264,2.676C11.099,2.586 10.908,2.524 10.676,2.526Z" style="fill:rgb(0,0,255);fill-opacity:0.25;"/>
                <rect x="8.869" y="1.842" width="0.452" height="2.053" style="fill:url(#_Linear6);"/>
                <path d="M9.135,1.587L10.657,1.587C10.946,1.587 11.177,1.818 11.177,2.107L11.177,3.63C11.177,3.92 10.946,4.15 10.657,4.15L9.134,4.15C8.844,4.15 8.614,3.919 8.614,3.63L8.614,2.106C8.614,1.817 8.846,1.587 9.135,1.587Z" style="fill:none;fill-rule:nonzero;stroke:rgb(0,0,128);stroke-opacity:0.5;stroke-width:0.17px;"/>
            </g>
            <g>
                <path d="M11.118,2.8L12.641,2.8C12.977,2.8 13.248,3.071 13.248,3.407L13.248,4.93C13.248,5.266 12.977,5.537 12.641,5.537L11.118,5.537C10.782,5.537 10.511,5.266 10.511,4.93L10.511,3.407C10.511,3.071 10.782,2.8 11.118,2.8Z" style="fill:url(#_Linear7);fill-rule:nonzero;"/>
                <path d="M12.66,3.826C11.996,3.834 11.815,4.602 11.225,4.61C10.97,4.613 10.752,4.438 10.511,4.231L10.511,4.938C10.511,5.269 10.782,5.537 11.118,5.537L12.641,5.537C12.977,5.537 13.248,5.269 13.248,4.938L13.248,3.976C13.083,3.886 12.893,3.824 12.66,3.826Z" style="fill:rgb(192,192,0);fill-opacity:0.25;"/>
                <rect x="10.853" y="3.142" width="0.452" height="2.053" style="fill:url(#_Linear8);"/>
                <path d="M11.12,2.887L12.641,2.887C12.93,2.887 13.161,3.118 13.161,3.407L13.161,4.93C13.161,5.22 12.93,5.45 12.641,5.45L11.118,5.45C10.829,5.45 10.598,5.219 10.598,4.93L10.598,3.406C10.598,3.117 10.83,2.887 11.12,2.887Z" style="fill:none;fill-rule:nonzero;stroke:rgb(128,128,0);stroke-opacity:0.5;stroke-width:0.17px;"/>
            </g>
        </g>
    </g>
    <path d="M15.461,6.743C15.461,6.781 15.455,6.816 15.443,6.848C15.432,6.88 15.415,6.907 15.393,6.929C15.372,6.952 15.346,6.969 15.316,6.981C15.286,6.994 15.252,7 15.216,7C15.149,7 15.097,6.984 15.057,6.953L15.057,6.848C15.104,6.894 15.158,6.916 15.219,6.916C15.243,6.916 15.265,6.913 15.285,6.905C15.304,6.897 15.321,6.887 15.335,6.872C15.35,6.858 15.36,6.841 15.368,6.82C15.376,6.8 15.379,6.777 15.379,6.752C15.379,6.64 15.315,6.584 15.185,6.584L15.127,6.584L15.127,6.501L15.182,6.501C15.297,6.501 15.354,6.448 15.354,6.343C15.354,6.246 15.31,6.197 15.223,6.197C15.173,6.197 15.127,6.218 15.084,6.258L15.084,6.163C15.129,6.131 15.181,6.114 15.243,6.114C15.272,6.114 15.298,6.119 15.322,6.129C15.346,6.139 15.366,6.153 15.383,6.171C15.4,6.189 15.413,6.211 15.422,6.236C15.431,6.261 15.436,6.288 15.436,6.319C15.436,6.431 15.389,6.504 15.297,6.536L15.297,6.538C15.32,6.542 15.342,6.549 15.362,6.56C15.383,6.571 15.4,6.585 15.414,6.602C15.429,6.62 15.44,6.64 15.449,6.664C15.457,6.688 15.461,6.714 15.461,6.743Z" style="fill:rgb(246,246,246);fill-rule:nonzero;"/>
    <path d="M15.643,6.998C15.628,6.998 15.615,6.992 15.605,6.979C15.594,6.965 15.589,6.95 15.589,6.931C15.589,6.913 15.594,6.897 15.605,6.884C15.615,6.871 15.628,6.864 15.643,6.864C15.658,6.864 15.671,6.871 15.682,6.884C15.693,6.897 15.698,6.913 15.698,6.931C15.698,6.95 15.693,6.965 15.682,6.979C15.671,6.992 15.658,6.998 15.643,6.998Z" style="fill:rgb(246,246,246);fill-rule:nonzero;"/>
    <path d="M16.214,6.743C16.214,6.781 16.208,6.816 16.197,6.848C16.185,6.88 16.168,6.907 16.146,6.929C16.125,6.952 16.099,6.969 16.069,6.981C16.039,6.994 16.005,7 15.969,7C15.903,7 15.85,6.984 15.81,6.953L15.81,6.848C15.858,6.894 15.911,6.916 15.972,6.916C15.996,6.916 16.018,6.913 16.038,6.905C16.058,6.897 16.074,6.887 16.089,6.872C16.103,6.858 16.113,6.841 16.121,6.82C16.129,6.8 16.133,6.777 16.133,6.752C16.133,6.64 16.068,6.584 15.938,6.584L15.88,6.584L15.88,6.501L15.935,6.501C16.05,6.501 16.107,6.448 16.107,6.343C16.107,6.246 16.063,6.197 15.976,6.197C15.927,6.197 15.88,6.218 15.837,6.258L15.837,6.163C15.882,6.131 15.935,6.114 15.996,6.114C16.025,6.114 16.051,6.119 16.075,6.129C16.099,6.139 16.119,6.153 16.136,6.171C16.153,6.189 16.166,6.211 16.175,6.236C16.184,6.261 16.189,6.288 16.189,6.319C16.189,6.431 16.143,6.504 16.05,6.536L16.05,6.538C16.074,6.542 16.095,6.549 16.116,6.56C16.136,6.571 16.153,6.585 16.168,6.602C16.182,6.62 16.194,6.64 16.202,6.664C16.21,6.688 16.214,6.714 16.214,6.743Z" style="fill:rgb(246,246,246);fill-rule:nonzero;"/>
    <path d="M16.396,6.998C16.381,6.998 16.369,6.992 16.358,6.979C16.348,6.965 16.342,6.95 16.342,6.931C16.342,6.913 16.348,6.897 16.358,6.884C16.369,6.871 16.381,6.864 16.396,6.864C16.411,6.864 16.424,6.871 16.435,6.884C16.446,6.897 16.451,6.913 16.451,6.931C16.451,6.95 16.446,6.965 16.435,6.979C16.424,6.992 16.411,6.998 16.396,6.998Z" style="fill:rgb(246,246,246);fill-rule:nonzero;"/>
    <path d="M17,6.553C17,6.625 16.995,6.688 16.984,6.744C16.974,6.799 16.958,6.846 16.938,6.884C16.919,6.922 16.894,6.951 16.865,6.97C16.836,6.99 16.803,7 16.766,7C16.731,7 16.7,6.991 16.672,6.972C16.645,6.953 16.622,6.925 16.603,6.889C16.584,6.853 16.57,6.808 16.56,6.755C16.55,6.703 16.546,6.642 16.546,6.574C16.546,6.499 16.551,6.433 16.561,6.376C16.571,6.319 16.586,6.271 16.606,6.232C16.626,6.193 16.65,6.164 16.68,6.144C16.709,6.124 16.743,6.114 16.781,6.114C16.927,6.114 17,6.261 17,6.553ZM16.918,6.563C16.918,6.319 16.871,6.197 16.777,6.197C16.677,6.197 16.627,6.321 16.627,6.569C16.627,6.801 16.676,6.916 16.774,6.916C16.87,6.916 16.918,6.799 16.918,6.563Z" style="fill:rgb(246,246,246);fill-rule:nonzero;"/>
    <rect id="outer" x="0" y="0" width="30" height="30" style="fill:none;"/>
    <defs>
        <linearGradient id="_Linear1" x1="0" y1="0" x2="1" y2="0" gradientUnits="userSpaceOnUse" gradientTransform="matrix(30,0,0,5.91132,0,27.0443)"><stop offset="0" style="stop-color:rgb(32,49,185);stop-opacity:1"/><stop offset="0.49" style="stop-color:rgb(85,97,198);stop-opacity:1"/><stop offset="1" style="stop-color:rgb(235,235,235);stop-opacity:1"/></linearGradient>
        <linearGradient id="_Linear2" x1="0" y1="0" x2="1" y2="0" gradientUnits="userSpaceOnUse" gradientTransform="matrix(1.28588e-15,-21,5.91132,3.61964e-16,2.95566,22.7932)"><stop offset="0" style="stop-color:rgb(32,49,185);stop-opacity:1"/><stop offset="0.49" style="stop-color:rgb(85,97,198);stop-opacity:1"/><stop offset="1" style="stop-color:rgb(235,235,235);stop-opacity:1"/></linearGradient>
        <linearGradient id="_Linear3" x1="0" y1="0" x2="1" y2="0" gradientUnits="userSpaceOnUse" gradientTransform="matrix(-1.38342,-2.73685,2.73685,-1.38342,8.81438,6.01577)"><stop offset="0" style="stop-color:rgb(255,0,0);stop-opacity:1"/><stop offset="1" style="stop-color:rgb(255,224,224);stop-opacity:1"/></linearGradient>
        <linearGradient id="_Linear4" x1="0" y1="0" x2="1" y2="0" gradientUnits="userSpaceOnUse" gradientTransform="matrix(0.621942,0,1.32681e-32,0.621942,7.044,4.71845)"><stop offset="0" style="stop-color:white;stop-opacity:1"/><stop offset="1" style="stop-color:white;stop-opacity:0"/></linearGradient>
        <linearGradient id="_Linear5" x1="0" y1="0" x2="1" y2="0" gradientUnits="userSpaceOnUse" gradientTransform="matrix(-1.37581,-2.73683,2.73683,-1.37581,10.4866,4.20021)"><stop offset="0" style="stop-color:rgb(0,0,255);stop-opacity:1"/><stop offset="1" style="stop-color:rgb(224,224,255);stop-opacity:1"/></linearGradient>
        <linearGradient id="_Linear6" x1="0" y1="0" x2="1" y2="0" gradientUnits="userSpaceOnUse" gradientTransform="matrix(0.620447,0,1.32362e-32,0.620447,8.82443,2.93949)"><stop offset="0" style="stop-color:white;stop-opacity:1"/><stop offset="1" style="stop-color:white;stop-opacity:0"/></linearGradient>
        <linearGradient id="_Linear7" x1="0" y1="0" x2="1" y2="0" gradientUnits="userSpaceOnUse" gradientTransform="matrix(1.38212,2.73683,-2.73683,1.38212,11.0983,2.76338)"><stop offset="0" style="stop-color:rgb(255,255,224);stop-opacity:1"/><stop offset="1" style="stop-color:rgb(255,255,0);stop-opacity:1"/></linearGradient>
        <linearGradient id="_Linear8" x1="0" y1="0" x2="1" y2="0" gradientUnits="userSpaceOnUse" gradientTransform="matrix(0.621933,0,1.32679e-32,0.621933,10.8071,4.23949)"><stop offset="0" style="stop-color:white;stop-opacity:1"/><stop offset="1" style="stop-color:white;stop-opacity:0"/></linearGradient>
    </defs>
</svg>
