<?xml version="1.0" encoding="UTF-8" standalone="no"?>
<!DOCTYPE svg PUBLIC "-//W3C//DTD SVG 1.1//EN" "http://www.w3.org/Graphics/SVG/1.1/DTD/svg11.dtd">
<svg width="30px" height="30px" version="1.1" xmlns="http://www.w3.org/2000/svg" xmlns:xlink="http://www.w3.org/1999/xlink" xml:space="preserve" xmlns:serif="http://www.serif.com/" style="fill-rule:evenodd;clip-rule:evenodd;stroke-linejoin:round;">
    <g>
        <rect x="0.82" y="8.437" width="28.359" height="13.125" style="fill:none;stroke:rgb(136,136,136);stroke-width:1.95px;"/>
        <rect x="0.82" y="8.437" width="28.359" height="13.125" style="fill:rgb(221,221,221);"/>
        <rect x="1.833" y="9.374" width="26.334" height="11.25" style="fill:white;"/>
        <path d="M11.193,18.916C10.109,18.916 9.226,18.563 8.544,17.858C7.861,17.152 7.52,16.233 7.52,15.1C7.52,13.904 7.866,12.937 8.559,12.198C9.252,11.459 10.171,11.09 11.314,11.09C12.394,11.09 13.267,11.443 13.934,12.15C14.601,12.858 14.934,13.79 14.934,14.947C14.934,16.136 14.588,17.095 13.897,17.823C13.206,18.551 12.304,18.916 11.193,18.916ZM11.266,12.557C10.668,12.557 10.193,12.781 9.842,13.23C9.49,13.678 9.314,14.272 9.314,15.011C9.314,15.76 9.49,16.353 9.842,16.789C10.193,17.225 10.654,17.443 11.224,17.443C11.812,17.443 12.278,17.231 12.623,16.807C12.967,16.383 13.14,15.795 13.14,15.042C13.14,14.258 12.973,13.647 12.639,13.211C12.304,12.775 11.847,12.557 11.266,12.557Z" style="fill-rule:nonzero;"/>
        <path d="M22.48,18.784L20.327,18.784L18.121,15.496C18.079,15.433 18.012,15.294 17.921,15.079L17.894,15.079L17.894,18.784L16.19,18.784L16.19,11.216L17.894,11.216L17.894,14.794L17.921,14.794C17.963,14.696 18.033,14.555 18.132,14.372L20.222,11.216L22.253,11.216L19.615,14.826L22.48,18.784Z" style="fill-rule:nonzero;"/>
    </g>
    <rect id="outer" x="0" y="0" width="30" height="30" style="fill:none;"/>
</svg>
