<?xml version="1.0" encoding="UTF-8" standalone="no"?>
<!DOCTYPE svg PUBLIC "-//W3C//DTD SVG 1.1//EN" "http://www.w3.org/Graphics/SVG/1.1/DTD/svg11.dtd">
<svg width="30px" height="30px" version="1.1" xmlns="http://www.w3.org/2000/svg" xmlns:xlink="http://www.w3.org/1999/xlink" xml:space="preserve" xmlns:serif="http://www.serif.com/" style="fill-rule:evenodd;clip-rule:evenodd;stroke-linecap:round;stroke-linejoin:round;stroke-miterlimit:1.5;">
    <g id="Layer1">
        <rect x="1" y="10" width="10" height="10" style="fill:rgb(30,140,188);stroke:black;stroke-width:0.89px;"/>
        <path id="path1542" d="M7.851,11.462C7.748,11.449 7.646,11.501 7.595,11.604L5.414,15.992L3.941,14.728C3.811,14.65 3.65,14.695 3.582,14.833L2.946,15.717C2.878,15.854 2.928,16.028 3.059,16.106C3.059,16.106 5.75,18.503 5.753,18.505C5.784,18.523 5.815,18.532 5.848,18.537C5.953,18.554 6.06,18.503 6.112,18.397L9.054,12.479C9.122,12.342 9.072,12.168 8.941,12.09L7.954,11.497C7.922,11.477 7.886,11.466 7.851,11.462L7.851,11.462Z" style="fill:white;fill-rule:nonzero;"/>
    </g>
    <path d="M20.134,10.641L17.582,10.641L17.582,20.342L16.546,20.342L16.546,10.641L14,10.641L14,9.491L20.134,9.491L20.134,10.641Z" style="fill-rule:nonzero;"/>
    <path d="M24.888,12.594L22.767,16.513L24.851,20.342L23.673,20.342L22.434,17.83C22.356,17.674 22.263,17.477 22.157,17.24L22.132,17.24C22.111,17.285 22.015,17.482 21.842,17.83L20.578,20.342L19.413,20.342L21.565,16.544L19.506,12.594L20.683,12.594L21.904,15.242C21.994,15.439 22.083,15.641 22.169,15.848L22.194,15.848L23.772,12.594L24.888,12.594Z" style="fill-rule:nonzero;"/>
    <path d="M29,20.267C28.762,20.428 28.447,20.509 28.057,20.509C26.951,20.509 26.398,19.752 26.398,18.239L26.398,13.653L25.313,13.653L25.313,12.594L26.398,12.594L26.398,10.702L27.409,10.301L27.409,12.594L29,12.594L29,13.653L27.409,13.653L27.409,18.019C27.409,18.539 27.481,18.91 27.625,19.132C27.769,19.354 28.007,19.465 28.34,19.465C28.595,19.465 28.815,19.379 29,19.207L29,20.267Z" style="fill-rule:nonzero;"/>
</svg>
