<?xml version="1.0" encoding="UTF-8" standalone="no"?>
<!DOCTYPE svg PUBLIC "-//W3C//DTD SVG 1.1//EN" "http://www.w3.org/Graphics/SVG/1.1/DTD/svg11.dtd">
<svg width="30px" height="30px" version="1.1" xmlns="http://www.w3.org/2000/svg" xmlns:xlink="http://www.w3.org/1999/xlink" xml:space="preserve" xmlns:serif="http://www.serif.com/" style="fill-rule:evenodd;clip-rule:evenodd;stroke-linejoin:round;stroke-miterlimit:2;">
    <rect id="outer" x="0" y="0" width="30" height="30" style="fill:white;stroke:rgb(128,128,128);stroke-width:1px;"/>
    <g id="scrollbar">
        <path d="M28.725,2.722L28.725,27.526C28.725,28.615 27.945,29.5 26.984,29.5L23.501,29.5C22.54,29.5 21.76,28.615 21.76,27.526L21.76,2.722C21.76,1.632 22.54,0.748 23.501,0.748L26.984,0.748C27.945,0.748 28.725,1.632 28.725,2.722Z" style="fill:rgb(128,128,128);"/>
        <path d="M28.725,2.425L28.725,5.779C28.725,6.705 28.063,7.457 27.246,7.457L23.239,7.457C22.423,7.457 21.76,6.705 21.76,5.779L21.76,2.425C21.76,1.499 22.423,0.748 23.239,0.748L27.246,0.748C28.063,0.748 28.725,1.499 28.725,2.425Z" style="fill:rgb(191,191,191);"/>
        <path d="M28.725,25.187L28.725,28.062C28.725,28.856 28.157,29.5 27.457,29.5L23.028,29.5C22.328,29.5 21.76,28.856 21.76,28.062L21.76,25.187C21.76,24.394 22.328,23.75 23.028,23.75L27.457,23.75C28.157,23.75 28.725,24.394 28.725,25.187Z" style="fill:rgb(191,191,191);"/>
        <path d="M28.624,12.285L28.624,15.948C28.624,16.959 27.9,17.78 27.008,17.78L23.375,17.78C22.484,17.78 21.76,16.959 21.76,15.948L21.76,12.285C21.76,11.275 22.484,10.454 23.375,10.454L27.008,10.454C27.9,10.454 28.624,11.275 28.624,12.285Z" style="fill:rgb(139,173,243);"/>
        <path d="M25.243,28.339L23.552,25.318L26.933,25.318L25.243,28.339Z" style="stroke:black;stroke-width:0.22px;stroke-linecap:round;stroke-miterlimit:1.5;"/>
        <path d="M25.243,2.3L26.933,5.321L23.552,5.321L25.243,2.3Z" style="stroke:black;stroke-width:0.22px;stroke-linecap:round;stroke-miterlimit:1.5;"/>
    </g>
    <g id="text">
        <path d="M6.421,4.608L5.5,4.608L5.5,1.311L5.708,1.311L5.708,4.259L6.421,4.259L6.421,4.608Z" style="fill-rule:nonzero;"/>
        <path d="M7.196,4.664C7.009,4.664 6.859,4.554 6.747,4.334C6.636,4.114 6.58,3.822 6.58,3.459C6.58,3.063 6.638,2.755 6.754,2.532C6.871,2.31 7.028,2.199 7.226,2.199C7.415,2.199 7.562,2.307 7.668,2.523C7.775,2.739 7.828,3.039 7.828,3.422C7.828,3.798 7.77,4.098 7.656,4.325C7.542,4.551 7.388,4.664 7.196,4.664ZM7.211,2.516C7.081,2.516 6.977,2.599 6.901,2.763C6.826,2.928 6.788,3.155 6.788,3.445C6.788,3.724 6.826,3.944 6.903,4.105C6.979,4.266 7.082,4.346 7.211,4.346C7.342,4.346 7.443,4.267 7.514,4.11C7.584,3.952 7.62,3.727 7.62,3.436C7.62,3.142 7.584,2.915 7.514,2.755C7.443,2.596 7.342,2.516 7.211,2.516Z" style="fill-rule:nonzero;"/>
        <path d="M8.813,2.636C8.778,2.585 8.726,2.56 8.66,2.56C8.573,2.56 8.5,2.636 8.442,2.788C8.384,2.939 8.355,3.146 8.355,3.408L8.355,4.608L8.152,4.608L8.152,2.254L8.355,2.254L8.355,2.739L8.36,2.739C8.389,2.574 8.433,2.445 8.492,2.352C8.552,2.259 8.618,2.213 8.692,2.213C8.745,2.213 8.785,2.223 8.813,2.245L8.813,2.636Z" style="fill-rule:nonzero;"/>
        <path d="M10.052,3.526L9.157,3.526C9.161,3.788 9.199,3.99 9.271,4.133C9.344,4.275 9.444,4.346 9.571,4.346C9.714,4.346 9.845,4.259 9.964,4.084L9.964,4.438C9.853,4.589 9.706,4.664 9.522,4.664C9.343,4.664 9.203,4.557 9.1,4.343C8.998,4.129 8.947,3.828 8.947,3.44C8.947,3.074 9.003,2.776 9.115,2.545C9.226,2.314 9.365,2.199 9.531,2.199C9.697,2.199 9.825,2.299 9.916,2.498C10.007,2.697 10.052,2.974 10.052,3.328L10.052,3.526ZM9.844,3.206C9.844,2.988 9.815,2.819 9.76,2.698C9.704,2.577 9.626,2.516 9.527,2.516C9.432,2.516 9.35,2.58 9.284,2.707C9.217,2.834 9.175,3.001 9.16,3.206L9.844,3.206Z" style="fill-rule:nonzero;"/>
        <path d="M12.16,4.608L11.957,4.608L11.957,3.257C11.957,2.996 11.935,2.807 11.892,2.691C11.848,2.574 11.775,2.516 11.673,2.516C11.586,2.516 11.513,2.59 11.452,2.737C11.391,2.884 11.361,3.06 11.361,3.266L11.361,4.608L11.158,4.608L11.158,3.211C11.158,2.748 11.062,2.516 10.87,2.516C10.78,2.516 10.707,2.586 10.649,2.724C10.591,2.863 10.562,3.044 10.562,3.266L10.562,4.608L10.359,4.608L10.359,2.254L10.562,2.254L10.562,2.627L10.567,2.627C10.657,2.341 10.789,2.199 10.961,2.199C11.048,2.199 11.123,2.244 11.188,2.333C11.252,2.423 11.296,2.541 11.32,2.686C11.414,2.361 11.555,2.199 11.741,2.199C12.02,2.199 12.16,2.519 12.16,3.158L12.16,4.608Z" style="fill-rule:nonzero;"/>
        <rect x="13.265" y="1.311" width="0.208" height="3.297" style="fill-rule:nonzero;"/>
        <path d="M14.121,4.268L14.116,4.268L14.116,5.691L13.913,5.691L13.913,2.254L14.116,2.254L14.116,2.668L14.121,2.668C14.221,2.355 14.367,2.199 14.559,2.199C14.722,2.199 14.85,2.304 14.942,2.515C15.033,2.726 15.079,3.008 15.079,3.362C15.079,3.756 15.027,4.072 14.924,4.308C14.821,4.545 14.68,4.664 14.501,4.664C14.337,4.664 14.21,4.532 14.121,4.268ZM14.116,3.319L14.116,3.647C14.116,3.842 14.15,4.007 14.218,4.143C14.286,4.279 14.372,4.346 14.477,4.346C14.6,4.346 14.697,4.259 14.766,4.084C14.836,3.91 14.871,3.667 14.871,3.355C14.871,3.093 14.838,2.888 14.773,2.739C14.708,2.591 14.62,2.516 14.508,2.516C14.39,2.516 14.295,2.592 14.223,2.745C14.152,2.898 14.116,3.089 14.116,3.319Z" style="fill-rule:nonzero;"/>
        <path d="M15.327,4.523L15.327,4.119C15.437,4.27 15.559,4.346 15.692,4.346C15.87,4.346 15.959,4.236 15.959,4.015C15.959,3.952 15.952,3.899 15.936,3.855C15.921,3.812 15.9,3.773 15.874,3.739C15.848,3.706 15.818,3.675 15.783,3.649C15.748,3.622 15.71,3.594 15.67,3.565C15.613,3.523 15.564,3.481 15.522,3.439C15.479,3.397 15.444,3.35 15.415,3.297C15.387,3.244 15.365,3.184 15.351,3.116C15.336,3.049 15.329,2.97 15.329,2.879C15.329,2.769 15.343,2.671 15.37,2.586C15.397,2.501 15.433,2.43 15.479,2.373C15.524,2.315 15.576,2.272 15.634,2.243C15.692,2.214 15.752,2.199 15.814,2.199C15.924,2.199 16.022,2.234 16.109,2.305L16.109,2.686C16.016,2.573 15.908,2.516 15.787,2.516C15.749,2.516 15.715,2.524 15.684,2.54C15.654,2.556 15.628,2.579 15.606,2.608C15.584,2.637 15.567,2.672 15.555,2.713C15.543,2.753 15.537,2.798 15.537,2.847C15.537,2.909 15.543,2.96 15.555,3.001C15.567,3.043 15.585,3.08 15.608,3.112C15.631,3.144 15.659,3.173 15.692,3.199C15.725,3.225 15.762,3.253 15.804,3.284C15.861,3.324 15.911,3.365 15.956,3.407C16,3.449 16.038,3.497 16.069,3.55C16.101,3.603 16.125,3.664 16.142,3.732C16.159,3.801 16.167,3.883 16.167,3.978C16.167,4.095 16.153,4.196 16.126,4.282C16.098,4.368 16.061,4.439 16.015,4.496C15.969,4.553 15.915,4.595 15.855,4.622C15.795,4.65 15.732,4.664 15.666,4.664C15.535,4.664 15.422,4.617 15.327,4.523Z" style="fill-rule:nonzero;"/>
        <path d="M17.504,4.608L17.301,4.608L17.301,4.236L17.296,4.236C17.212,4.521 17.082,4.664 16.905,4.664C16.603,4.664 16.452,4.329 16.452,3.661L16.452,2.254L16.654,2.254L16.654,3.601C16.654,4.098 16.756,4.346 16.961,4.346C17.06,4.346 17.141,4.279 17.205,4.143C17.269,4.007 17.301,3.83 17.301,3.611L17.301,2.254L17.504,2.254L17.504,4.608Z" style="fill-rule:nonzero;"/>
        <path d="M19.714,4.608L19.511,4.608L19.511,3.257C19.511,2.996 19.49,2.807 19.446,2.691C19.403,2.574 19.33,2.516 19.228,2.516C19.141,2.516 19.067,2.59 19.007,2.737C18.946,2.884 18.916,3.06 18.916,3.266L18.916,4.608L18.713,4.608L18.713,3.211C18.713,2.748 18.617,2.516 18.424,2.516C18.335,2.516 18.262,2.586 18.204,2.724C18.146,2.863 18.117,3.044 18.117,3.266L18.117,4.608L17.914,4.608L17.914,2.254L18.117,2.254L18.117,2.627L18.122,2.627C18.212,2.341 18.343,2.199 18.516,2.199C18.603,2.199 18.678,2.244 18.742,2.333C18.807,2.423 18.851,2.541 18.875,2.686C18.969,2.361 19.109,2.199 19.296,2.199C19.575,2.199 19.714,2.519 19.714,3.158L19.714,4.608Z" style="fill-rule:nonzero;"/>
        <path d="M21.095,2.254L20.59,4.608L20.39,4.608L19.91,2.254L20.133,2.254L20.455,3.965C20.479,4.09 20.493,4.2 20.499,4.293L20.504,4.293C20.512,4.175 20.526,4.069 20.544,3.974L20.881,2.254L21.095,2.254Z" style="fill-rule:nonzero;"/>
        <path d="M6.421,10.608L5.5,10.608L5.5,7.311L5.708,7.311L5.708,10.259L6.421,10.259L6.421,10.608Z" style="fill-rule:nonzero;"/>
        <path d="M7.196,10.664C7.009,10.664 6.859,10.554 6.747,10.334C6.636,10.114 6.58,9.822 6.58,9.459C6.58,9.063 6.638,8.755 6.754,8.532C6.871,8.31 7.028,8.199 7.226,8.199C7.415,8.199 7.562,8.307 7.668,8.523C7.775,8.739 7.828,9.039 7.828,9.422C7.828,9.798 7.77,10.098 7.656,10.325C7.542,10.551 7.388,10.664 7.196,10.664ZM7.211,8.516C7.081,8.516 6.977,8.599 6.901,8.763C6.826,8.928 6.788,9.155 6.788,9.445C6.788,9.724 6.826,9.944 6.903,10.105C6.979,10.266 7.082,10.346 7.211,10.346C7.342,10.346 7.443,10.267 7.514,10.11C7.584,9.952 7.62,9.727 7.62,9.436C7.62,9.142 7.584,8.915 7.514,8.755C7.443,8.596 7.342,8.516 7.211,8.516Z" style="fill-rule:nonzero;"/>
        <path d="M8.813,8.636C8.778,8.585 8.726,8.56 8.66,8.56C8.573,8.56 8.5,8.636 8.442,8.788C8.384,8.939 8.355,9.146 8.355,9.408L8.355,10.608L8.152,10.608L8.152,8.254L8.355,8.254L8.355,8.739L8.36,8.739C8.389,8.574 8.433,8.445 8.492,8.352C8.552,8.259 8.618,8.213 8.692,8.213C8.745,8.213 8.785,8.223 8.813,8.245L8.813,8.636Z" style="fill-rule:nonzero;"/>
        <path d="M10.052,9.526L9.157,9.526C9.161,9.788 9.199,9.99 9.271,10.133C9.344,10.275 9.444,10.346 9.571,10.346C9.714,10.346 9.845,10.259 9.964,10.084L9.964,10.438C9.853,10.589 9.706,10.664 9.522,10.664C9.343,10.664 9.203,10.557 9.1,10.343C8.998,10.129 8.947,9.828 8.947,9.44C8.947,9.074 9.003,8.776 9.115,8.545C9.226,8.314 9.365,8.199 9.531,8.199C9.697,8.199 9.825,8.299 9.916,8.498C10.007,8.697 10.052,8.974 10.052,9.328L10.052,9.526ZM9.844,9.206C9.844,8.988 9.815,8.819 9.76,8.698C9.704,8.577 9.626,8.516 9.527,8.516C9.432,8.516 9.35,8.58 9.284,8.707C9.217,8.834 9.175,9.001 9.16,9.206L9.844,9.206Z" style="fill-rule:nonzero;"/>
        <path d="M12.16,10.608L11.957,10.608L11.957,9.257C11.957,8.996 11.935,8.807 11.892,8.691C11.848,8.574 11.775,8.516 11.673,8.516C11.586,8.516 11.513,8.59 11.452,8.737C11.391,8.884 11.361,9.06 11.361,9.266L11.361,10.608L11.158,10.608L11.158,9.211C11.158,8.748 11.062,8.516 10.87,8.516C10.78,8.516 10.707,8.586 10.649,8.724C10.591,8.863 10.562,9.044 10.562,9.266L10.562,10.608L10.359,10.608L10.359,8.254L10.562,8.254L10.562,8.627L10.567,8.627C10.657,8.341 10.789,8.199 10.961,8.199C11.048,8.199 11.123,8.244 11.188,8.333C11.252,8.423 11.296,8.541 11.32,8.686C11.414,8.361 11.555,8.199 11.741,8.199C12.02,8.199 12.16,8.519 12.16,9.158L12.16,10.608Z" style="fill-rule:nonzero;"/>
        <rect x="13.265" y="7.311" width="0.208" height="3.297" style="fill-rule:nonzero;"/>
        <path d="M14.121,10.268L14.116,10.268L14.116,11.691L13.913,11.691L13.913,8.254L14.116,8.254L14.116,8.668L14.121,8.668C14.221,8.355 14.367,8.199 14.559,8.199C14.722,8.199 14.85,8.304 14.942,8.515C15.033,8.726 15.079,9.008 15.079,9.362C15.079,9.756 15.027,10.072 14.924,10.308C14.821,10.545 14.68,10.664 14.501,10.664C14.337,10.664 14.21,10.532 14.121,10.268ZM14.116,9.319L14.116,9.647C14.116,9.842 14.15,10.007 14.218,10.143C14.286,10.279 14.372,10.346 14.477,10.346C14.6,10.346 14.697,10.259 14.766,10.084C14.836,9.91 14.871,9.667 14.871,9.355C14.871,9.093 14.838,8.888 14.773,8.739C14.708,8.591 14.62,8.516 14.508,8.516C14.39,8.516 14.295,8.592 14.223,8.745C14.152,8.898 14.116,9.089 14.116,9.319Z" style="fill-rule:nonzero;"/>
        <path d="M15.327,10.523L15.327,10.119C15.437,10.27 15.559,10.346 15.692,10.346C15.87,10.346 15.959,10.236 15.959,10.015C15.959,9.952 15.952,9.899 15.936,9.855C15.921,9.812 15.9,9.773 15.874,9.739C15.848,9.706 15.818,9.675 15.783,9.649C15.748,9.622 15.71,9.594 15.67,9.565C15.613,9.523 15.564,9.481 15.522,9.439C15.479,9.397 15.444,9.35 15.415,9.297C15.387,9.244 15.365,9.184 15.351,9.116C15.336,9.049 15.329,8.97 15.329,8.879C15.329,8.769 15.343,8.671 15.37,8.586C15.397,8.501 15.433,8.43 15.479,8.373C15.524,8.315 15.576,8.272 15.634,8.243C15.692,8.214 15.752,8.199 15.814,8.199C15.924,8.199 16.022,8.234 16.109,8.305L16.109,8.686C16.016,8.573 15.908,8.516 15.787,8.516C15.749,8.516 15.715,8.524 15.684,8.54C15.654,8.556 15.628,8.579 15.606,8.608C15.584,8.637 15.567,8.672 15.555,8.713C15.543,8.753 15.537,8.798 15.537,8.847C15.537,8.909 15.543,8.96 15.555,9.001C15.567,9.043 15.585,9.08 15.608,9.112C15.631,9.144 15.659,9.173 15.692,9.199C15.725,9.225 15.762,9.253 15.804,9.284C15.861,9.324 15.911,9.365 15.956,9.407C16,9.449 16.038,9.497 16.069,9.55C16.101,9.603 16.125,9.664 16.142,9.732C16.159,9.801 16.167,9.883 16.167,9.978C16.167,10.095 16.153,10.196 16.126,10.282C16.098,10.368 16.061,10.439 16.015,10.496C15.969,10.553 15.915,10.595 15.855,10.622C15.795,10.65 15.732,10.664 15.666,10.664C15.535,10.664 15.422,10.617 15.327,10.523Z" style="fill-rule:nonzero;"/>
        <path d="M17.504,10.608L17.301,10.608L17.301,10.236L17.296,10.236C17.212,10.521 17.082,10.664 16.905,10.664C16.603,10.664 16.452,10.329 16.452,9.661L16.452,8.254L16.654,8.254L16.654,9.601C16.654,10.098 16.756,10.346 16.961,10.346C17.06,10.346 17.141,10.279 17.205,10.143C17.269,10.007 17.301,9.83 17.301,9.611L17.301,8.254L17.504,8.254L17.504,10.608Z" style="fill-rule:nonzero;"/>
        <path d="M19.714,10.608L19.511,10.608L19.511,9.257C19.511,8.996 19.49,8.807 19.446,8.691C19.403,8.574 19.33,8.516 19.228,8.516C19.141,8.516 19.067,8.59 19.007,8.737C18.946,8.884 18.916,9.06 18.916,9.266L18.916,10.608L18.713,10.608L18.713,9.211C18.713,8.748 18.617,8.516 18.424,8.516C18.335,8.516 18.262,8.586 18.204,8.724C18.146,8.863 18.117,9.044 18.117,9.266L18.117,10.608L17.914,10.608L17.914,8.254L18.117,8.254L18.117,8.627L18.122,8.627C18.212,8.341 18.343,8.199 18.516,8.199C18.603,8.199 18.678,8.244 18.742,8.333C18.807,8.423 18.851,8.541 18.875,8.686C18.969,8.361 19.109,8.199 19.296,8.199C19.575,8.199 19.714,8.519 19.714,9.158L19.714,10.608Z" style="fill-rule:nonzero;"/>
        <path d="M21.095,8.254L20.59,10.608L20.39,10.608L19.91,8.254L20.133,8.254L20.455,9.965C20.479,10.09 20.493,10.2 20.499,10.293L20.504,10.293C20.512,10.175 20.526,10.069 20.544,9.974L20.881,8.254L21.095,8.254Z" style="fill-rule:nonzero;"/>
        <path d="M6.421,16.608L5.5,16.608L5.5,13.311L5.708,13.311L5.708,16.259L6.421,16.259L6.421,16.608Z" style="fill-rule:nonzero;"/>
        <path d="M7.196,16.664C7.009,16.664 6.859,16.554 6.747,16.334C6.636,16.114 6.58,15.822 6.58,15.459C6.58,15.063 6.638,14.755 6.754,14.532C6.871,14.31 7.028,14.199 7.226,14.199C7.415,14.199 7.562,14.307 7.668,14.523C7.775,14.739 7.828,15.039 7.828,15.422C7.828,15.798 7.77,16.098 7.656,16.325C7.542,16.551 7.388,16.664 7.196,16.664ZM7.211,14.516C7.081,14.516 6.977,14.599 6.901,14.763C6.826,14.928 6.788,15.155 6.788,15.445C6.788,15.724 6.826,15.944 6.903,16.105C6.979,16.266 7.082,16.346 7.211,16.346C7.342,16.346 7.443,16.267 7.514,16.11C7.584,15.952 7.62,15.727 7.62,15.436C7.62,15.142 7.584,14.915 7.514,14.755C7.443,14.596 7.342,14.516 7.211,14.516Z" style="fill-rule:nonzero;"/>
        <path d="M8.813,14.636C8.778,14.585 8.726,14.56 8.66,14.56C8.573,14.56 8.5,14.636 8.442,14.788C8.384,14.939 8.355,15.146 8.355,15.408L8.355,16.608L8.152,16.608L8.152,14.254L8.355,14.254L8.355,14.739L8.36,14.739C8.389,14.574 8.433,14.445 8.492,14.352C8.552,14.259 8.618,14.213 8.692,14.213C8.745,14.213 8.785,14.223 8.813,14.245L8.813,14.636Z" style="fill-rule:nonzero;"/>
        <path d="M10.052,15.526L9.157,15.526C9.161,15.788 9.199,15.99 9.271,16.133C9.344,16.275 9.444,16.346 9.571,16.346C9.714,16.346 9.845,16.259 9.964,16.084L9.964,16.438C9.853,16.589 9.706,16.664 9.522,16.664C9.343,16.664 9.203,16.557 9.1,16.343C8.998,16.129 8.947,15.828 8.947,15.44C8.947,15.074 9.003,14.776 9.115,14.545C9.226,14.314 9.365,14.199 9.531,14.199C9.697,14.199 9.825,14.299 9.916,14.498C10.007,14.697 10.052,14.974 10.052,15.328L10.052,15.526ZM9.844,15.206C9.844,14.988 9.815,14.819 9.76,14.698C9.704,14.577 9.626,14.516 9.527,14.516C9.432,14.516 9.35,14.58 9.284,14.707C9.217,14.834 9.175,15.001 9.16,15.206L9.844,15.206Z" style="fill-rule:nonzero;"/>
        <path d="M12.16,16.608L11.957,16.608L11.957,15.257C11.957,14.996 11.935,14.807 11.892,14.691C11.848,14.574 11.775,14.516 11.673,14.516C11.586,14.516 11.513,14.59 11.452,14.737C11.391,14.884 11.361,15.06 11.361,15.266L11.361,16.608L11.158,16.608L11.158,15.211C11.158,14.748 11.062,14.516 10.87,14.516C10.78,14.516 10.707,14.586 10.649,14.724C10.591,14.863 10.562,15.044 10.562,15.266L10.562,16.608L10.359,16.608L10.359,14.254L10.562,14.254L10.562,14.627L10.567,14.627C10.657,14.341 10.789,14.199 10.961,14.199C11.048,14.199 11.123,14.244 11.188,14.333C11.252,14.423 11.296,14.541 11.32,14.686C11.414,14.361 11.555,14.199 11.741,14.199C12.02,14.199 12.16,14.519 12.16,15.158L12.16,16.608Z" style="fill-rule:nonzero;"/>
        <rect x="13.265" y="13.311" width="0.208" height="3.297" style="fill-rule:nonzero;"/>
        <path d="M14.121,16.268L14.116,16.268L14.116,17.691L13.913,17.691L13.913,14.254L14.116,14.254L14.116,14.668L14.121,14.668C14.221,14.355 14.367,14.199 14.559,14.199C14.722,14.199 14.85,14.304 14.942,14.515C15.033,14.726 15.079,15.008 15.079,15.362C15.079,15.756 15.027,16.072 14.924,16.308C14.821,16.545 14.68,16.664 14.501,16.664C14.337,16.664 14.21,16.532 14.121,16.268ZM14.116,15.319L14.116,15.647C14.116,15.842 14.15,16.007 14.218,16.143C14.286,16.279 14.372,16.346 14.477,16.346C14.6,16.346 14.697,16.259 14.766,16.084C14.836,15.91 14.871,15.667 14.871,15.355C14.871,15.093 14.838,14.888 14.773,14.739C14.708,14.591 14.62,14.516 14.508,14.516C14.39,14.516 14.295,14.592 14.223,14.745C14.152,14.898 14.116,15.089 14.116,15.319Z" style="fill-rule:nonzero;"/>
        <path d="M15.327,16.523L15.327,16.119C15.437,16.27 15.559,16.346 15.692,16.346C15.87,16.346 15.959,16.236 15.959,16.015C15.959,15.952 15.952,15.899 15.936,15.855C15.921,15.812 15.9,15.773 15.874,15.739C15.848,15.706 15.818,15.675 15.783,15.649C15.748,15.622 15.71,15.594 15.67,15.565C15.613,15.523 15.564,15.481 15.522,15.439C15.479,15.397 15.444,15.35 15.415,15.297C15.387,15.244 15.365,15.184 15.351,15.116C15.336,15.049 15.329,14.97 15.329,14.879C15.329,14.769 15.343,14.671 15.37,14.586C15.397,14.501 15.433,14.43 15.479,14.373C15.524,14.315 15.576,14.272 15.634,14.243C15.692,14.214 15.752,14.199 15.814,14.199C15.924,14.199 16.022,14.234 16.109,14.305L16.109,14.686C16.016,14.573 15.908,14.516 15.787,14.516C15.749,14.516 15.715,14.524 15.684,14.54C15.654,14.556 15.628,14.579 15.606,14.608C15.584,14.637 15.567,14.672 15.555,14.713C15.543,14.753 15.537,14.798 15.537,14.847C15.537,14.909 15.543,14.96 15.555,15.001C15.567,15.043 15.585,15.08 15.608,15.112C15.631,15.144 15.659,15.173 15.692,15.199C15.725,15.225 15.762,15.253 15.804,15.284C15.861,15.324 15.911,15.365 15.956,15.407C16,15.449 16.038,15.497 16.069,15.55C16.101,15.603 16.125,15.664 16.142,15.732C16.159,15.801 16.167,15.883 16.167,15.978C16.167,16.095 16.153,16.196 16.126,16.282C16.098,16.368 16.061,16.439 16.015,16.496C15.969,16.553 15.915,16.595 15.855,16.622C15.795,16.65 15.732,16.664 15.666,16.664C15.535,16.664 15.422,16.617 15.327,16.523Z" style="fill-rule:nonzero;"/>
        <path d="M17.504,16.608L17.301,16.608L17.301,16.236L17.296,16.236C17.212,16.521 17.082,16.664 16.905,16.664C16.603,16.664 16.452,16.329 16.452,15.661L16.452,14.254L16.654,14.254L16.654,15.601C16.654,16.098 16.756,16.346 16.961,16.346C17.06,16.346 17.141,16.279 17.205,16.143C17.269,16.007 17.301,15.83 17.301,15.611L17.301,14.254L17.504,14.254L17.504,16.608Z" style="fill-rule:nonzero;"/>
        <path d="M19.714,16.608L19.511,16.608L19.511,15.257C19.511,14.996 19.49,14.807 19.446,14.691C19.403,14.574 19.33,14.516 19.228,14.516C19.141,14.516 19.067,14.59 19.007,14.737C18.946,14.884 18.916,15.06 18.916,15.266L18.916,16.608L18.713,16.608L18.713,15.211C18.713,14.748 18.617,14.516 18.424,14.516C18.335,14.516 18.262,14.586 18.204,14.724C18.146,14.863 18.117,15.044 18.117,15.266L18.117,16.608L17.914,16.608L17.914,14.254L18.117,14.254L18.117,14.627L18.122,14.627C18.212,14.341 18.343,14.199 18.516,14.199C18.603,14.199 18.678,14.244 18.742,14.333C18.807,14.423 18.851,14.541 18.875,14.686C18.969,14.361 19.109,14.199 19.296,14.199C19.575,14.199 19.714,14.519 19.714,15.158L19.714,16.608Z" style="fill-rule:nonzero;"/>
        <path d="M21.095,14.254L20.59,16.608L20.39,16.608L19.91,14.254L20.133,14.254L20.455,15.965C20.479,16.09 20.493,16.2 20.499,16.293L20.504,16.293C20.512,16.175 20.526,16.069 20.544,15.974L20.881,14.254L21.095,14.254Z" style="fill-rule:nonzero;"/>
        <path d="M6.421,22.608L5.5,22.608L5.5,19.311L5.708,19.311L5.708,22.259L6.421,22.259L6.421,22.608Z" style="fill-rule:nonzero;"/>
        <path d="M7.196,22.664C7.009,22.664 6.859,22.554 6.747,22.334C6.636,22.114 6.58,21.822 6.58,21.459C6.58,21.063 6.638,20.755 6.754,20.532C6.871,20.31 7.028,20.199 7.226,20.199C7.415,20.199 7.562,20.307 7.668,20.523C7.775,20.739 7.828,21.039 7.828,21.422C7.828,21.798 7.77,22.098 7.656,22.325C7.542,22.551 7.388,22.664 7.196,22.664ZM7.211,20.516C7.081,20.516 6.977,20.599 6.901,20.763C6.826,20.928 6.788,21.155 6.788,21.445C6.788,21.724 6.826,21.944 6.903,22.105C6.979,22.266 7.082,22.346 7.211,22.346C7.342,22.346 7.443,22.267 7.514,22.11C7.584,21.952 7.62,21.727 7.62,21.436C7.62,21.142 7.584,20.915 7.514,20.755C7.443,20.596 7.342,20.516 7.211,20.516Z" style="fill-rule:nonzero;"/>
        <path d="M8.813,20.636C8.778,20.585 8.726,20.56 8.66,20.56C8.573,20.56 8.5,20.636 8.442,20.788C8.384,20.939 8.355,21.146 8.355,21.408L8.355,22.608L8.152,22.608L8.152,20.254L8.355,20.254L8.355,20.739L8.36,20.739C8.389,20.574 8.433,20.445 8.492,20.352C8.552,20.259 8.618,20.213 8.692,20.213C8.745,20.213 8.785,20.223 8.813,20.245L8.813,20.636Z" style="fill-rule:nonzero;"/>
        <path d="M10.052,21.526L9.157,21.526C9.161,21.788 9.199,21.99 9.271,22.133C9.344,22.275 9.444,22.346 9.571,22.346C9.714,22.346 9.845,22.259 9.964,22.084L9.964,22.438C9.853,22.589 9.706,22.664 9.522,22.664C9.343,22.664 9.203,22.557 9.1,22.343C8.998,22.129 8.947,21.828 8.947,21.44C8.947,21.074 9.003,20.776 9.115,20.545C9.226,20.314 9.365,20.199 9.531,20.199C9.697,20.199 9.825,20.299 9.916,20.498C10.007,20.697 10.052,20.974 10.052,21.328L10.052,21.526ZM9.844,21.206C9.844,20.988 9.815,20.819 9.76,20.698C9.704,20.577 9.626,20.516 9.527,20.516C9.432,20.516 9.35,20.58 9.284,20.707C9.217,20.834 9.175,21.001 9.16,21.206L9.844,21.206Z" style="fill-rule:nonzero;"/>
        <path d="M12.16,22.608L11.957,22.608L11.957,21.257C11.957,20.996 11.935,20.807 11.892,20.691C11.848,20.574 11.775,20.516 11.673,20.516C11.586,20.516 11.513,20.59 11.452,20.737C11.391,20.884 11.361,21.06 11.361,21.266L11.361,22.608L11.158,22.608L11.158,21.211C11.158,20.748 11.062,20.516 10.87,20.516C10.78,20.516 10.707,20.586 10.649,20.724C10.591,20.863 10.562,21.044 10.562,21.266L10.562,22.608L10.359,22.608L10.359,20.254L10.562,20.254L10.562,20.627L10.567,20.627C10.657,20.341 10.789,20.199 10.961,20.199C11.048,20.199 11.123,20.244 11.188,20.333C11.252,20.423 11.296,20.541 11.32,20.686C11.414,20.361 11.555,20.199 11.741,20.199C12.02,20.199 12.16,20.519 12.16,21.158L12.16,22.608Z" style="fill-rule:nonzero;"/>
        <rect x="13.265" y="19.311" width="0.208" height="3.297" style="fill-rule:nonzero;"/>
        <path d="M14.121,22.268L14.116,22.268L14.116,23.691L13.913,23.691L13.913,20.254L14.116,20.254L14.116,20.668L14.121,20.668C14.221,20.355 14.367,20.199 14.559,20.199C14.722,20.199 14.85,20.304 14.942,20.515C15.033,20.726 15.079,21.008 15.079,21.362C15.079,21.756 15.027,22.072 14.924,22.308C14.821,22.545 14.68,22.664 14.501,22.664C14.337,22.664 14.21,22.532 14.121,22.268ZM14.116,21.319L14.116,21.647C14.116,21.842 14.15,22.007 14.218,22.143C14.286,22.279 14.372,22.346 14.477,22.346C14.6,22.346 14.697,22.259 14.766,22.084C14.836,21.91 14.871,21.667 14.871,21.355C14.871,21.093 14.838,20.888 14.773,20.739C14.708,20.591 14.62,20.516 14.508,20.516C14.39,20.516 14.295,20.592 14.223,20.745C14.152,20.898 14.116,21.089 14.116,21.319Z" style="fill-rule:nonzero;"/>
        <path d="M15.327,22.523L15.327,22.119C15.437,22.27 15.559,22.346 15.692,22.346C15.87,22.346 15.959,22.236 15.959,22.015C15.959,21.952 15.952,21.899 15.936,21.855C15.921,21.812 15.9,21.773 15.874,21.739C15.848,21.706 15.818,21.675 15.783,21.649C15.748,21.622 15.71,21.594 15.67,21.565C15.613,21.523 15.564,21.481 15.522,21.439C15.479,21.397 15.444,21.35 15.415,21.297C15.387,21.244 15.365,21.184 15.351,21.116C15.336,21.049 15.329,20.97 15.329,20.879C15.329,20.769 15.343,20.671 15.37,20.586C15.397,20.501 15.433,20.43 15.479,20.373C15.524,20.315 15.576,20.272 15.634,20.243C15.692,20.214 15.752,20.199 15.814,20.199C15.924,20.199 16.022,20.234 16.109,20.305L16.109,20.686C16.016,20.573 15.908,20.516 15.787,20.516C15.749,20.516 15.715,20.524 15.684,20.54C15.654,20.556 15.628,20.579 15.606,20.608C15.584,20.637 15.567,20.672 15.555,20.713C15.543,20.753 15.537,20.798 15.537,20.847C15.537,20.909 15.543,20.96 15.555,21.001C15.567,21.043 15.585,21.08 15.608,21.112C15.631,21.144 15.659,21.173 15.692,21.199C15.725,21.225 15.762,21.253 15.804,21.284C15.861,21.324 15.911,21.365 15.956,21.407C16,21.449 16.038,21.497 16.069,21.55C16.101,21.603 16.125,21.664 16.142,21.732C16.159,21.801 16.167,21.883 16.167,21.978C16.167,22.095 16.153,22.196 16.126,22.282C16.098,22.368 16.061,22.439 16.015,22.496C15.969,22.553 15.915,22.595 15.855,22.622C15.795,22.65 15.732,22.664 15.666,22.664C15.535,22.664 15.422,22.617 15.327,22.523Z" style="fill-rule:nonzero;"/>
        <path d="M17.504,22.608L17.301,22.608L17.301,22.236L17.296,22.236C17.212,22.521 17.082,22.664 16.905,22.664C16.603,22.664 16.452,22.329 16.452,21.661L16.452,20.254L16.654,20.254L16.654,21.601C16.654,22.098 16.756,22.346 16.961,22.346C17.06,22.346 17.141,22.279 17.205,22.143C17.269,22.007 17.301,21.83 17.301,21.611L17.301,20.254L17.504,20.254L17.504,22.608Z" style="fill-rule:nonzero;"/>
        <path d="M19.714,22.608L19.511,22.608L19.511,21.257C19.511,20.996 19.49,20.807 19.446,20.691C19.403,20.574 19.33,20.516 19.228,20.516C19.141,20.516 19.067,20.59 19.007,20.737C18.946,20.884 18.916,21.06 18.916,21.266L18.916,22.608L18.713,22.608L18.713,21.211C18.713,20.748 18.617,20.516 18.424,20.516C18.335,20.516 18.262,20.586 18.204,20.724C18.146,20.863 18.117,21.044 18.117,21.266L18.117,22.608L17.914,22.608L17.914,20.254L18.117,20.254L18.117,20.627L18.122,20.627C18.212,20.341 18.343,20.199 18.516,20.199C18.603,20.199 18.678,20.244 18.742,20.333C18.807,20.423 18.851,20.541 18.875,20.686C18.969,20.361 19.109,20.199 19.296,20.199C19.575,20.199 19.714,20.519 19.714,21.158L19.714,22.608Z" style="fill-rule:nonzero;"/>
        <path d="M21.095,20.254L20.59,22.608L20.39,22.608L19.91,20.254L20.133,20.254L20.455,21.965C20.479,22.09 20.493,22.2 20.499,22.293L20.504,22.293C20.512,22.175 20.526,22.069 20.544,21.974L20.881,20.254L21.095,20.254Z" style="fill-rule:nonzero;"/>
        <path d="M6.421,28.608L5.5,28.608L5.5,25.311L5.708,25.311L5.708,28.259L6.421,28.259L6.421,28.608Z" style="fill-rule:nonzero;"/>
        <path d="M7.196,28.664C7.009,28.664 6.859,28.554 6.747,28.334C6.636,28.114 6.58,27.822 6.58,27.459C6.58,27.063 6.638,26.755 6.754,26.532C6.871,26.31 7.028,26.199 7.226,26.199C7.415,26.199 7.562,26.307 7.668,26.523C7.775,26.739 7.828,27.039 7.828,27.422C7.828,27.798 7.77,28.098 7.656,28.325C7.542,28.551 7.388,28.664 7.196,28.664ZM7.211,26.516C7.081,26.516 6.977,26.599 6.901,26.763C6.826,26.928 6.788,27.155 6.788,27.445C6.788,27.724 6.826,27.944 6.903,28.105C6.979,28.266 7.082,28.346 7.211,28.346C7.342,28.346 7.443,28.267 7.514,28.11C7.584,27.952 7.62,27.727 7.62,27.436C7.62,27.142 7.584,26.915 7.514,26.755C7.443,26.596 7.342,26.516 7.211,26.516Z" style="fill-rule:nonzero;"/>
        <path d="M8.813,26.636C8.778,26.585 8.726,26.56 8.66,26.56C8.573,26.56 8.5,26.636 8.442,26.788C8.384,26.939 8.355,27.146 8.355,27.408L8.355,28.608L8.152,28.608L8.152,26.254L8.355,26.254L8.355,26.739L8.36,26.739C8.389,26.574 8.433,26.445 8.492,26.352C8.552,26.259 8.618,26.213 8.692,26.213C8.745,26.213 8.785,26.223 8.813,26.245L8.813,26.636Z" style="fill-rule:nonzero;"/>
        <path d="M10.052,27.526L9.157,27.526C9.161,27.788 9.199,27.99 9.271,28.133C9.344,28.275 9.444,28.346 9.571,28.346C9.714,28.346 9.845,28.259 9.964,28.084L9.964,28.438C9.853,28.589 9.706,28.664 9.522,28.664C9.343,28.664 9.203,28.557 9.1,28.343C8.998,28.129 8.947,27.828 8.947,27.44C8.947,27.074 9.003,26.776 9.115,26.545C9.226,26.314 9.365,26.199 9.531,26.199C9.697,26.199 9.825,26.299 9.916,26.498C10.007,26.697 10.052,26.974 10.052,27.328L10.052,27.526ZM9.844,27.206C9.844,26.988 9.815,26.819 9.76,26.698C9.704,26.577 9.626,26.516 9.527,26.516C9.432,26.516 9.35,26.58 9.284,26.707C9.217,26.834 9.175,27.001 9.16,27.206L9.844,27.206Z" style="fill-rule:nonzero;"/>
        <path d="M12.16,28.608L11.957,28.608L11.957,27.257C11.957,26.996 11.935,26.807 11.892,26.691C11.848,26.574 11.775,26.516 11.673,26.516C11.586,26.516 11.513,26.59 11.452,26.737C11.391,26.884 11.361,27.06 11.361,27.266L11.361,28.608L11.158,28.608L11.158,27.211C11.158,26.748 11.062,26.516 10.87,26.516C10.78,26.516 10.707,26.586 10.649,26.724C10.591,26.863 10.562,27.044 10.562,27.266L10.562,28.608L10.359,28.608L10.359,26.254L10.562,26.254L10.562,26.627L10.567,26.627C10.657,26.341 10.789,26.199 10.961,26.199C11.048,26.199 11.123,26.244 11.188,26.333C11.252,26.423 11.296,26.541 11.32,26.686C11.414,26.361 11.555,26.199 11.741,26.199C12.02,26.199 12.16,26.519 12.16,27.158L12.16,28.608Z" style="fill-rule:nonzero;"/>
        <rect x="13.265" y="25.311" width="0.208" height="3.297" style="fill-rule:nonzero;"/>
        <path d="M14.121,28.268L14.116,28.268L14.116,29.691L13.913,29.691L13.913,26.254L14.116,26.254L14.116,26.668L14.121,26.668C14.221,26.355 14.367,26.199 14.559,26.199C14.722,26.199 14.85,26.304 14.942,26.515C15.033,26.726 15.079,27.008 15.079,27.362C15.079,27.756 15.027,28.072 14.924,28.308C14.821,28.545 14.68,28.664 14.501,28.664C14.337,28.664 14.21,28.532 14.121,28.268ZM14.116,27.319L14.116,27.647C14.116,27.842 14.15,28.007 14.218,28.143C14.286,28.279 14.372,28.346 14.477,28.346C14.6,28.346 14.697,28.259 14.766,28.084C14.836,27.91 14.871,27.667 14.871,27.355C14.871,27.093 14.838,26.888 14.773,26.739C14.708,26.591 14.62,26.516 14.508,26.516C14.39,26.516 14.295,26.592 14.223,26.745C14.152,26.898 14.116,27.089 14.116,27.319Z" style="fill-rule:nonzero;"/>
        <path d="M15.327,28.523L15.327,28.119C15.437,28.27 15.559,28.346 15.692,28.346C15.87,28.346 15.959,28.236 15.959,28.015C15.959,27.952 15.952,27.899 15.936,27.855C15.921,27.812 15.9,27.773 15.874,27.739C15.848,27.706 15.818,27.675 15.783,27.649C15.748,27.622 15.71,27.594 15.67,27.565C15.613,27.523 15.564,27.481 15.522,27.439C15.479,27.397 15.444,27.35 15.415,27.297C15.387,27.244 15.365,27.184 15.351,27.116C15.336,27.049 15.329,26.97 15.329,26.879C15.329,26.769 15.343,26.671 15.37,26.586C15.397,26.501 15.433,26.43 15.479,26.373C15.524,26.315 15.576,26.272 15.634,26.243C15.692,26.214 15.752,26.199 15.814,26.199C15.924,26.199 16.022,26.234 16.109,26.305L16.109,26.686C16.016,26.573 15.908,26.516 15.787,26.516C15.749,26.516 15.715,26.524 15.684,26.54C15.654,26.556 15.628,26.579 15.606,26.608C15.584,26.637 15.567,26.672 15.555,26.713C15.543,26.753 15.537,26.798 15.537,26.847C15.537,26.909 15.543,26.96 15.555,27.001C15.567,27.043 15.585,27.08 15.608,27.112C15.631,27.144 15.659,27.173 15.692,27.199C15.725,27.225 15.762,27.253 15.804,27.284C15.861,27.324 15.911,27.365 15.956,27.407C16,27.449 16.038,27.497 16.069,27.55C16.101,27.603 16.125,27.664 16.142,27.732C16.159,27.801 16.167,27.883 16.167,27.978C16.167,28.095 16.153,28.196 16.126,28.282C16.098,28.368 16.061,28.439 16.015,28.496C15.969,28.553 15.915,28.595 15.855,28.622C15.795,28.65 15.732,28.664 15.666,28.664C15.535,28.664 15.422,28.617 15.327,28.523Z" style="fill-rule:nonzero;"/>
        <path d="M17.504,28.608L17.301,28.608L17.301,28.236L17.296,28.236C17.212,28.521 17.082,28.664 16.905,28.664C16.603,28.664 16.452,28.329 16.452,27.661L16.452,26.254L16.654,26.254L16.654,27.601C16.654,28.098 16.756,28.346 16.961,28.346C17.06,28.346 17.141,28.279 17.205,28.143C17.269,28.007 17.301,27.83 17.301,27.611L17.301,26.254L17.504,26.254L17.504,28.608Z" style="fill-rule:nonzero;"/>
        <path d="M19.714,28.608L19.511,28.608L19.511,27.257C19.511,26.996 19.49,26.807 19.446,26.691C19.403,26.574 19.33,26.516 19.228,26.516C19.141,26.516 19.067,26.59 19.007,26.737C18.946,26.884 18.916,27.06 18.916,27.266L18.916,28.608L18.713,28.608L18.713,27.211C18.713,26.748 18.617,26.516 18.424,26.516C18.335,26.516 18.262,26.586 18.204,26.724C18.146,26.863 18.117,27.044 18.117,27.266L18.117,28.608L17.914,28.608L17.914,26.254L18.117,26.254L18.117,26.627L18.122,26.627C18.212,26.341 18.343,26.199 18.516,26.199C18.603,26.199 18.678,26.244 18.742,26.333C18.807,26.423 18.851,26.541 18.875,26.686C18.969,26.361 19.109,26.199 19.296,26.199C19.575,26.199 19.714,26.519 19.714,27.158L19.714,28.608Z" style="fill-rule:nonzero;"/>
        <path d="M21.095,26.254L20.59,28.608L20.39,28.608L19.91,26.254L20.133,26.254L20.455,27.965C20.479,28.09 20.493,28.2 20.499,28.293L20.504,28.293C20.512,28.175 20.526,28.069 20.544,27.974L20.881,26.254L21.095,26.254Z" style="fill-rule:nonzero;"/>
    </g>
    <rect id="outer1" serif:id="outer" x="0" y="0" width="30" height="30" style="fill:none;"/>
    <g id="checkbox">
        <rect x="1.183" y="7.426" width="3.074" height="3.074" style="fill:rgb(30,140,188);stroke:black;stroke-width:0.27px;stroke-linecap:round;stroke-miterlimit:1.5;"/>
        <rect x="1.183" y="13.426" width="3.074" height="3.074" style="fill:none;stroke:black;stroke-width:0.27px;stroke-linecap:round;stroke-miterlimit:1.5;"/>
        <rect x="1.183" y="19.426" width="3.074" height="3.074" style="fill:none;stroke:black;stroke-width:0.27px;stroke-linecap:round;stroke-miterlimit:1.5;"/>
        <rect x="1.183" y="25.426" width="3.074" height="3.074" style="fill:none;stroke:black;stroke-width:0.27px;stroke-linecap:round;stroke-miterlimit:1.5;"/>
        <rect x="1.183" y="1.426" width="3.074" height="3.074" style="fill:none;stroke:black;stroke-width:0.27px;stroke-linecap:round;stroke-miterlimit:1.5;"/>
        <path id="path1542" d="M3.289,7.875C3.256,7.871 3.226,7.887 3.209,7.92L2.539,9.268L2.086,8.879C2.047,8.855 1.998,8.869 1.976,8.912L1.781,9.184C1.761,9.225 1.775,9.279 1.816,9.303C1.816,9.303 2.642,10.039 2.644,10.041C2.654,10.045 2.662,10.049 2.672,10.051C2.705,10.055 2.738,10.039 2.754,10.008L3.658,8.189C3.679,8.146 3.664,8.092 3.623,8.068L3.32,7.887C3.31,7.881 3.299,7.877 3.289,7.875Z" style="fill:white;fill-rule:nonzero;"/>
    </g>
</svg>
