<?xml version="1.0" encoding="UTF-8" standalone="no"?>
<!DOCTYPE svg PUBLIC "-//W3C//DTD SVG 1.1//EN" "http://www.w3.org/Graphics/SVG/1.1/DTD/svg11.dtd">
<svg width="30px" height="30px" version="1.1" xmlns="http://www.w3.org/2000/svg" xmlns:xlink="http://www.w3.org/1999/xlink" xml:space="preserve" xmlns:serif="http://www.serif.com/" style="fill-rule:evenodd;clip-rule:evenodd;stroke-linecap:round;stroke-linejoin:round;stroke-miterlimit:1.5;">
    <rect x="0.5" y="10.5" width="29" height="9" style="fill:rgb(247,247,247);stroke:black;stroke-width:0.48px;"/>
    <g id="arrow_box">
        <rect x="20" y="10.5" width="9.5" height="9" style="fill:rgb(134,230,249);stroke:black;stroke-width:0.48px;"/>
        <path d="M24.725,17.443L21.727,12.577L27.823,12.618L24.725,17.443Z" style="fill:none;stroke:black;stroke-width:0.48px;"/>
        <path d="M3.658,17.673C3.481,17.891 3.261,18 2.997,18C2.657,18 2.384,17.744 2.18,17.232C1.975,16.721 1.872,16.049 1.872,15.218C1.872,14.325 1.988,13.603 2.218,13.052C2.448,12.501 2.74,12.226 3.094,12.226C3.321,12.226 3.509,12.303 3.658,12.456L3.658,13.153C3.487,12.93 3.298,12.818 3.091,12.818C2.816,12.818 2.593,13.032 2.422,13.461C2.252,13.89 2.166,14.462 2.166,15.179C2.166,15.86 2.246,16.402 2.406,16.806C2.565,17.21 2.775,17.412 3.034,17.412C3.274,17.412 3.482,17.287 3.658,17.038L3.658,17.673Z" style="fill-rule:nonzero;"/>
        <path d="M5.527,17.906L5.253,17.906L5.253,15.608C5.253,14.777 5.121,14.361 4.856,14.361C4.723,14.361 4.61,14.481 4.519,14.721C4.428,14.962 4.382,15.27 4.382,15.647L4.382,17.906L4.108,17.906L4.108,12L4.382,12L4.382,14.579L4.389,14.579C4.52,14.075 4.707,13.823 4.949,13.823C5.334,13.823 5.527,14.365 5.527,15.448L5.527,17.906Z" style="fill-rule:nonzero;"/>
        <path d="M6.757,18C6.504,18 6.302,17.814 6.152,17.441C6.001,17.068 5.926,16.574 5.926,15.958C5.926,15.288 6.004,14.765 6.161,14.388C6.318,14.012 6.53,13.823 6.797,13.823C7.051,13.823 7.25,14.006 7.393,14.373C7.536,14.739 7.608,15.247 7.608,15.896C7.608,16.532 7.531,17.042 7.377,17.425C7.222,17.808 7.016,18 6.757,18ZM6.777,14.361C6.601,14.361 6.462,14.501 6.359,14.78C6.257,15.059 6.206,15.444 6.206,15.935C6.206,16.408 6.258,16.781 6.361,17.053C6.465,17.326 6.603,17.462 6.777,17.462C6.954,17.462 7.09,17.329 7.185,17.061C7.28,16.794 7.327,16.413 7.327,15.919C7.327,15.421 7.28,15.036 7.185,14.766C7.09,14.496 6.954,14.361 6.777,14.361Z" style="fill-rule:nonzero;"/>
        <path d="M8.759,18C8.506,18 8.305,17.814 8.154,17.441C8.003,17.068 7.928,16.574 7.928,15.958C7.928,15.288 8.006,14.765 8.163,14.388C8.32,14.012 8.532,13.823 8.799,13.823C9.054,13.823 9.253,14.006 9.396,14.373C9.539,14.739 9.61,15.247 9.61,15.896C9.61,16.532 9.533,17.042 9.379,17.425C9.225,17.808 9.018,18 8.759,18ZM8.779,14.361C8.603,14.361 8.464,14.501 8.362,14.78C8.26,15.059 8.208,15.444 8.208,15.935C8.208,16.408 8.26,16.781 8.364,17.053C8.467,17.326 8.605,17.462 8.779,17.462C8.956,17.462 9.092,17.329 9.187,17.061C9.282,16.794 9.33,16.413 9.33,15.919C9.33,15.421 9.282,15.036 9.187,14.766C9.092,14.496 8.956,14.361 8.779,14.361Z" style="fill-rule:nonzero;"/>
        <path d="M9.944,17.762L9.944,17.077C10.093,17.334 10.257,17.462 10.436,17.462C10.676,17.462 10.796,17.275 10.796,16.901C10.796,16.795 10.786,16.705 10.766,16.631C10.745,16.556 10.717,16.491 10.682,16.434C10.647,16.377 10.606,16.325 10.559,16.28C10.511,16.234 10.46,16.187 10.406,16.138C10.33,16.068 10.264,15.997 10.207,15.925C10.149,15.854 10.101,15.773 10.063,15.684C10.025,15.594 9.996,15.492 9.976,15.378C9.957,15.264 9.947,15.13 9.947,14.977C9.947,14.79 9.965,14.624 10.002,14.48C10.039,14.336 10.088,14.215 10.149,14.118C10.21,14.02 10.28,13.947 10.358,13.897C10.437,13.848 10.518,13.823 10.601,13.823C10.749,13.823 10.882,13.883 10.998,14.003L10.998,14.649C10.873,14.457 10.728,14.361 10.564,14.361C10.513,14.361 10.467,14.375 10.426,14.402C10.385,14.429 10.35,14.468 10.32,14.517C10.291,14.566 10.268,14.625 10.252,14.694C10.235,14.763 10.227,14.839 10.227,14.922C10.227,15.026 10.235,15.113 10.252,15.183C10.268,15.253 10.291,15.316 10.323,15.37C10.354,15.425 10.392,15.474 10.436,15.518C10.481,15.562 10.531,15.61 10.588,15.662C10.664,15.73 10.731,15.799 10.791,15.871C10.852,15.942 10.903,16.023 10.945,16.112C10.987,16.202 11.02,16.305 11.043,16.422C11.065,16.539 11.077,16.678 11.077,16.839C11.077,17.036 11.058,17.208 11.021,17.353C10.984,17.499 10.934,17.619 10.872,17.716C10.809,17.812 10.737,17.883 10.656,17.93C10.575,17.977 10.49,18 10.401,18C10.225,18 10.073,17.921 9.944,17.762Z" style="fill-rule:nonzero;"/>
        <path d="M12.871,16.071L11.664,16.071C11.669,16.516 11.72,16.858 11.818,17.1C11.916,17.342 12.05,17.462 12.221,17.462C12.414,17.462 12.591,17.314 12.752,17.018L12.752,17.618C12.602,17.873 12.403,18 12.156,18C11.915,18 11.725,17.819 11.587,17.456C11.449,17.094 11.38,16.584 11.38,15.927C11.38,15.306 11.456,14.801 11.607,14.41C11.757,14.019 11.944,13.823 12.168,13.823C12.392,13.823 12.565,13.992 12.687,14.33C12.809,14.668 12.871,15.136 12.871,15.736L12.871,16.071ZM12.59,15.53C12.589,15.161 12.551,14.874 12.476,14.669C12.401,14.464 12.297,14.361 12.163,14.361C12.034,14.361 11.924,14.469 11.834,14.684C11.744,14.9 11.689,15.182 11.667,15.53L12.59,15.53Z" style="fill-rule:nonzero;"/>
        <path d="M16.647,17.906L16.373,17.906L16.373,15.616C16.373,15.174 16.344,14.855 16.285,14.657C16.227,14.46 16.129,14.361 15.991,14.361C15.874,14.361 15.775,14.486 15.693,14.735C15.611,14.984 15.57,15.283 15.57,15.631L15.57,17.906L15.297,17.906L15.297,15.538C15.297,14.753 15.167,14.361 14.908,14.361C14.788,14.361 14.689,14.479 14.611,14.714C14.533,14.949 14.494,15.255 14.494,15.631L14.494,17.906L14.221,17.906L14.221,13.917L14.494,13.917L14.494,14.548L14.501,14.548C14.622,14.065 14.799,13.823 15.031,13.823C15.148,13.823 15.25,13.899 15.337,14.051C15.424,14.203 15.483,14.403 15.515,14.649C15.642,14.099 15.831,13.823 16.083,13.823C16.459,13.823 16.647,14.365 16.647,15.448L16.647,17.906Z" style="fill-rule:nonzero;"/>
        <path d="M18.537,16.071L17.331,16.071C17.335,16.516 17.386,16.858 17.484,17.1C17.582,17.342 17.717,17.462 17.888,17.462C18.081,17.462 18.258,17.314 18.419,17.018L18.419,17.618C18.269,17.873 18.07,18 17.823,18C17.582,18 17.392,17.819 17.254,17.456C17.116,17.094 17.047,16.584 17.047,15.927C17.047,15.306 17.123,14.801 17.273,14.41C17.424,14.019 17.611,13.823 17.835,13.823C18.058,13.823 18.231,13.992 18.354,14.33C18.476,14.668 18.537,15.136 18.537,15.736L18.537,16.071ZM18.257,15.53C18.256,15.161 18.218,14.874 18.143,14.669C18.068,14.464 17.963,14.361 17.83,14.361C17.701,14.361 17.591,14.469 17.501,14.684C17.411,14.9 17.355,15.182 17.334,15.53L18.257,15.53Z" style="fill-rule:nonzero;"/>
    </g>
    <rect id="outer" x="0" y="0" width="30" height="30" style="fill:none;"/>
</svg>
