<?xml version="1.0" encoding="UTF-8" standalone="no"?>
<!DOCTYPE svg PUBLIC "-//W3C//DTD SVG 1.1//EN" "http://www.w3.org/Graphics/SVG/1.1/DTD/svg11.dtd">
<svg width="30px" height="30px" version="1.1" xmlns="http://www.w3.org/2000/svg" xmlns:xlink="http://www.w3.org/1999/xlink" xml:space="preserve" xmlns:serif="http://www.serif.com/" style="fill-rule:evenodd;clip-rule:evenodd;stroke-linecap:round;stroke-linejoin:round;stroke-miterlimit:1.5;">
    <g id="Layer1">
        <rect x="-0" y="-0" width="30" height="30" style="fill:rgb(30,140,188);stroke:black;stroke-width:2.67px;"/>
        <path id="path1542" d="M20.554,4.385C20.243,4.346 19.939,4.502 19.785,4.812L13.242,17.977L8.824,14.183C8.432,13.949 7.95,14.086 7.746,14.498L5.838,17.151C5.635,17.563 5.784,18.085 6.177,18.319C6.177,18.319 14.249,25.508 14.259,25.514C14.351,25.569 14.446,25.597 14.543,25.612C14.859,25.661 15.18,25.508 15.336,25.192L24.162,7.436C24.366,7.025 24.215,6.503 23.823,6.269L20.863,4.49C20.765,4.431 20.657,4.398 20.553,4.385L20.554,4.385Z" style="fill:white;fill-rule:nonzero;"/>
    </g>
</svg>
