<?xml version="1.0" encoding="UTF-8" standalone="no"?>
<!DOCTYPE svg PUBLIC "-//W3C//DTD SVG 1.1//EN" "http://www.w3.org/Graphics/SVG/1.1/DTD/svg11.dtd">
<svg width="30px" height="30px" version="1.1" xmlns="http://www.w3.org/2000/svg" xmlns:xlink="http://www.w3.org/1999/xlink" xml:space="preserve" xmlns:serif="http://www.serif.com/" style="fill-rule:evenodd;clip-rule:evenodd;stroke-linecap:square;stroke-miterlimit:1;">
    <g>
        <rect x="2.5" y="2.5" width="25" height="25" style="fill:rgb(204,204,204);"/>
        <path d="M2,28L2,2" style="fill:none;stroke:rgb(217,217,217);stroke-width:0.92px;"/>
        <path d="M2.085,27.983L2.085,1.983" style="fill:none;stroke:rgb(217,217,217);stroke-width:0.92px;"/>
        <path d="M28,2L2,2" style="fill:none;stroke:rgb(217,217,217);stroke-width:0.92px;"/>
        <path d="M28.034,2.068L2.034,2.068" style="fill:none;stroke:rgb(217,217,217);stroke-width:0.92px;"/>
        <path d="M28,3L28,27.5" style="fill:none;stroke:rgb(115,115,115);stroke-width:0.92px;"/>
        <path d="M27.949,2.966L27.949,27.721" style="fill:none;stroke:rgb(115,115,115);stroke-width:0.92px;"/>
        <path d="M28,28L3,28" style="fill:none;stroke:rgb(115,115,115);stroke-width:0.92px;"/>
        <path d="M28,27.847L3,27.847" style="fill:none;stroke:rgb(115,115,115);stroke-width:0.92px;"/>
    </g>
    <rect id="outer" x="0" y="0" width="30" height="30" style="fill:none;"/>
    <g id="arrows">
        <g id="arrow_box">
            <path d="M6.422,9.842L4.331,5.5L8.583,5.537L6.422,9.842Z" style="fill:none;stroke:black;stroke-width:0.39px;stroke-linecap:round;stroke-linejoin:round;stroke-miterlimit:1.5;"/>
        </g>
        <path d="M10.786,8.797L9.8,8.797L9.8,5.5L10.022,5.5L10.022,8.448L10.786,8.448L10.786,8.797Z" style="fill-rule:nonzero;"/>
        <path d="M11.616,8.852C11.415,8.852 11.255,8.742 11.135,8.522C11.016,8.302 10.956,8.011 10.956,7.647C10.956,7.252 11.018,6.943 11.143,6.721C11.267,6.499 11.436,6.387 11.648,6.387C11.85,6.387 12.008,6.496 12.122,6.712C12.235,6.928 12.292,7.227 12.292,7.611C12.292,7.986 12.231,8.287 12.109,8.513C11.986,8.739 11.822,8.852 11.616,8.852ZM11.632,6.705C11.492,6.705 11.382,6.787 11.301,6.952C11.219,7.117 11.179,7.344 11.179,7.634C11.179,7.913 11.22,8.133 11.302,8.293C11.384,8.454 11.494,8.535 11.632,8.535C11.773,8.535 11.881,8.456 11.956,8.298C12.032,8.14 12.069,7.916 12.069,7.624C12.069,7.33 12.032,7.103 11.956,6.944C11.881,6.784 11.773,6.705 11.632,6.705Z" style="fill-rule:nonzero;"/>
        <path d="M13.348,6.824C13.31,6.774 13.255,6.748 13.183,6.748C13.09,6.748 13.013,6.824 12.951,6.976C12.888,7.128 12.857,7.335 12.857,7.597L12.857,8.797L12.64,8.797L12.64,6.443L12.857,6.443L12.857,6.928L12.862,6.928C12.893,6.762 12.941,6.633 13.004,6.54C13.068,6.448 13.139,6.401 13.218,6.401C13.274,6.401 13.318,6.412 13.348,6.433L13.348,6.824Z" style="fill-rule:nonzero;"/>
        <path d="M14.675,7.714L13.716,7.714C13.72,7.976 13.76,8.179 13.838,8.321C13.916,8.464 14.023,8.535 14.159,8.535C14.312,8.535 14.452,8.448 14.581,8.273L14.581,8.627C14.461,8.777 14.304,8.852 14.107,8.852C13.916,8.852 13.765,8.745 13.655,8.531C13.546,8.318 13.491,8.017 13.491,7.629C13.491,7.263 13.551,6.964 13.67,6.733C13.79,6.503 13.939,6.387 14.117,6.387C14.294,6.387 14.432,6.487 14.529,6.686C14.626,6.886 14.675,7.162 14.675,7.516L14.675,7.714ZM14.452,7.394C14.451,7.177 14.421,7.007 14.361,6.886C14.302,6.765 14.219,6.705 14.113,6.705C14.01,6.705 13.923,6.768 13.851,6.896C13.78,7.023 13.736,7.189 13.719,7.394L14.452,7.394Z" style="fill-rule:nonzero;"/>
        <path d="M16.931,8.797L16.714,8.797L16.714,7.445C16.714,7.185 16.691,6.996 16.644,6.879C16.598,6.763 16.52,6.705 16.41,6.705C16.318,6.705 16.239,6.778 16.174,6.925C16.109,7.073 16.076,7.249 16.076,7.454L16.076,8.797L15.859,8.797L15.859,7.399C15.859,6.936 15.756,6.705 15.55,6.705C15.454,6.705 15.376,6.774 15.314,6.913C15.252,7.052 15.221,7.232 15.221,7.454L15.221,8.797L15.004,8.797L15.004,6.443L15.221,6.443L15.221,6.815L15.226,6.815C15.323,6.53 15.463,6.387 15.648,6.387C15.741,6.387 15.822,6.432 15.891,6.522C15.96,6.612 16.007,6.729 16.032,6.875C16.133,6.55 16.283,6.387 16.483,6.387C16.782,6.387 16.931,6.707 16.931,7.346L16.931,8.797Z" style="fill-rule:nonzero;"/>
        <rect x="18.115" y="5.5" width="0.223" height="3.297" style="fill-rule:nonzero;"/>
        <path d="M19.032,8.457L19.026,8.457L19.026,9.88L18.809,9.88L18.809,6.443L19.026,6.443L19.026,6.856L19.032,6.856C19.138,6.544 19.295,6.387 19.501,6.387C19.676,6.387 19.812,6.493 19.911,6.704C20.009,6.914 20.058,7.197 20.058,7.551C20.058,7.945 20.002,8.26 19.892,8.497C19.781,8.734 19.63,8.852 19.439,8.852C19.263,8.852 19.127,8.72 19.032,8.457ZM19.026,7.507L19.026,7.836C19.026,8.031 19.063,8.196 19.136,8.331C19.209,8.467 19.301,8.535 19.413,8.535C19.545,8.535 19.648,8.448 19.723,8.273C19.798,8.098 19.835,7.855 19.835,7.544C19.835,7.282 19.8,7.076 19.73,6.928C19.66,6.779 19.566,6.705 19.447,6.705C19.32,6.705 19.218,6.781 19.142,6.934C19.065,7.086 19.026,7.277 19.026,7.507Z" style="fill-rule:nonzero;"/>
        <path d="M20.323,8.712L20.323,8.307C20.441,8.459 20.572,8.535 20.714,8.535C20.905,8.535 21,8.425 21,8.204C21,8.141 20.992,8.088 20.976,8.044C20.96,8 20.937,7.962 20.91,7.928C20.882,7.894 20.849,7.864 20.811,7.837C20.774,7.81 20.733,7.782 20.69,7.753C20.63,7.712 20.577,7.67 20.532,7.628C20.486,7.586 20.448,7.538 20.418,7.485C20.387,7.432 20.364,7.372 20.349,7.305C20.333,7.237 20.326,7.158 20.326,7.068C20.326,6.958 20.34,6.86 20.369,6.775C20.398,6.69 20.437,6.619 20.486,6.561C20.535,6.504 20.59,6.46 20.652,6.431C20.715,6.402 20.779,6.387 20.845,6.387C20.963,6.387 21.068,6.423 21.161,6.493L21.161,6.875C21.061,6.761 20.946,6.705 20.816,6.705C20.775,6.705 20.739,6.713 20.706,6.729C20.673,6.745 20.645,6.768 20.622,6.797C20.598,6.826 20.58,6.861 20.568,6.901C20.555,6.942 20.548,6.987 20.548,7.036C20.548,7.097 20.555,7.148 20.568,7.19C20.58,7.231 20.599,7.268 20.624,7.3C20.649,7.332 20.679,7.362 20.714,7.388C20.749,7.414 20.79,7.442 20.835,7.473C20.895,7.513 20.949,7.554 20.996,7.596C21.044,7.638 21.085,7.685 21.118,7.738C21.152,7.791 21.178,7.852 21.196,7.921C21.214,7.99 21.223,8.072 21.223,8.167C21.223,8.284 21.208,8.385 21.179,8.47C21.149,8.556 21.11,8.628 21.06,8.684C21.011,8.741 20.954,8.783 20.889,8.811C20.824,8.838 20.757,8.852 20.686,8.852C20.547,8.852 20.425,8.805 20.323,8.712Z" style="fill-rule:nonzero;"/>
        <path d="M22.655,8.797L22.438,8.797L22.438,8.425L22.432,8.425C22.342,8.71 22.202,8.852 22.013,8.852C21.69,8.852 21.528,8.518 21.528,7.85L21.528,6.443L21.744,6.443L21.744,7.79C21.744,8.287 21.854,8.535 22.073,8.535C22.179,8.535 22.266,8.467 22.335,8.331C22.403,8.196 22.438,8.018 22.438,7.799L22.438,6.443L22.655,6.443L22.655,8.797Z" style="fill-rule:nonzero;"/>
        <path d="M25.022,8.797L24.804,8.797L24.804,7.445C24.804,7.185 24.781,6.996 24.735,6.879C24.688,6.763 24.61,6.705 24.501,6.705C24.408,6.705 24.329,6.778 24.264,6.925C24.199,7.073 24.167,7.249 24.167,7.454L24.167,8.797L23.949,8.797L23.949,7.399C23.949,6.936 23.846,6.705 23.64,6.705C23.545,6.705 23.466,6.774 23.404,6.913C23.342,7.052 23.311,7.232 23.311,7.454L23.311,8.797L23.094,8.797L23.094,6.443L23.311,6.443L23.311,6.815L23.317,6.815C23.413,6.53 23.554,6.387 23.738,6.387C23.831,6.387 23.912,6.432 23.981,6.522C24.05,6.612 24.097,6.729 24.123,6.875C24.224,6.55 24.374,6.387 24.574,6.387C24.872,6.387 25.022,6.707 25.022,7.346L25.022,8.797Z" style="fill-rule:nonzero;"/>
        <path d="M26.5,6.443L25.959,8.797L25.746,8.797L25.231,6.443L25.47,6.443L25.815,8.153C25.84,8.279 25.856,8.388 25.862,8.482L25.868,8.482C25.876,8.364 25.891,8.257 25.91,8.162L26.271,6.443L26.5,6.443Z" style="fill-rule:nonzero;"/>
        <path d="M15.749,21.945C15.549,21.937 15.373,21.866 15.246,21.757C15.12,21.649 15.046,21.503 15.054,21.346C15.052,21.341 15.052,21.337 15.052,21.332L15.052,21.318C15.052,21.165 15.129,21.025 15.255,20.922C15.382,20.819 15.556,20.752 15.749,20.746L19.877,20.746C20.075,20.755 20.253,20.827 20.379,20.935C20.504,21.044 20.58,21.189 20.574,21.346C20.574,21.351 20.575,21.369 20.575,21.374C20.575,21.526 20.497,21.666 20.371,21.769C20.244,21.873 20.07,21.939 19.877,21.945L15.749,21.945"/>
        <path d="M11.792,20.107C12.208,20.107 12.588,20.242 12.864,20.459C13.14,20.676 13.311,20.975 13.311,21.304C13.311,21.632 13.14,21.931 12.864,22.148C12.588,22.365 12.208,22.5 11.792,22.5C11.375,22.5 10.995,22.365 10.719,22.148C10.444,21.931 10.271,21.632 10.271,21.304C10.271,20.975 10.444,20.676 10.719,20.459C10.995,20.242 11.375,20.107 11.792,20.107"/>
        <path d="M12.328,16.185C12.378,16.144 12.437,16.112 12.502,16.091C12.567,16.07 12.638,16.059 12.709,16.059C12.782,16.059 12.851,16.07 12.916,16.091C12.981,16.113 13.04,16.144 13.09,16.185C13.196,16.269 13.247,16.379 13.247,16.49C13.247,16.6 13.196,16.71 13.09,16.794L12.555,17.216L13.09,17.639C13.143,17.679 13.184,17.726 13.211,17.777C13.24,17.829 13.255,17.885 13.255,17.942C13.255,17.999 13.24,18.055 13.211,18.106C13.184,18.158 13.143,18.205 13.09,18.244C13.04,18.285 12.981,18.316 12.916,18.337C12.853,18.359 12.782,18.37 12.711,18.37C12.64,18.37 12.569,18.358 12.505,18.337C12.44,18.316 12.38,18.285 12.33,18.244L11.795,17.822L11.258,18.244C11.208,18.285 11.148,18.317 11.083,18.338C11.018,18.36 10.947,18.371 10.874,18.371C10.803,18.371 10.732,18.36 10.667,18.338C10.602,18.317 10.542,18.285 10.492,18.244C10.388,18.16 10.335,18.05 10.335,17.94C10.335,17.829 10.388,17.719 10.492,17.635L11.029,17.213L10.492,16.78C10.441,16.739 10.401,16.692 10.374,16.641C10.348,16.59 10.333,16.534 10.333,16.478C10.333,16.361 10.395,16.254 10.493,16.176C10.592,16.098 10.728,16.05 10.877,16.05C10.948,16.05 11.019,16.061 11.084,16.083C11.149,16.104 11.21,16.136 11.261,16.176L11.796,16.598L12.333,16.176L12.328,16.185"/>
        <path d="M10.294,12.57C10.433,12.498 10.598,12.476 10.752,12.501C10.905,12.525 11.047,12.594 11.14,12.704L11.443,12.991L12.516,11.925C12.573,11.869 12.646,11.825 12.726,11.795C12.806,11.765 12.894,11.749 12.986,11.749C13.152,11.749 13.305,11.803 13.415,11.89C13.526,11.977 13.594,12.097 13.594,12.228C13.594,12.284 13.581,12.338 13.559,12.39C13.535,12.441 13.5,12.49 13.455,12.532L11.886,14.082C11.864,14.103 11.842,14.123 11.818,14.141C11.793,14.16 11.766,14.177 11.739,14.192C11.598,14.265 11.434,14.286 11.279,14.262C11.127,14.238 10.985,14.168 10.891,14.059L10.131,13.237C10.037,13.128 10.01,12.998 10.04,12.877C10.07,12.756 10.159,12.644 10.298,12.57L10.294,12.57"/>
        <path d="M15.741,13.609C15.542,13.6 15.365,13.529 15.24,13.421C15.113,13.312 15.039,13.167 15.045,13.01C15.045,13.005 15.043,12.986 15.043,12.981C15.043,12.828 15.122,12.689 15.247,12.585C15.374,12.482 15.548,12.416 15.741,12.41L22.892,12.41C23.092,12.418 23.269,12.489 23.396,12.598C23.521,12.707 23.595,12.852 23.588,13.01C23.588,13.014 23.589,13.019 23.589,13.024L23.589,13.037C23.589,13.19 23.512,13.33 23.385,13.433C23.26,13.536 23.086,13.603 22.892,13.609L15.741,13.609"/>
        <path d="M15.741,17.776C15.543,17.768 15.365,17.697 15.24,17.589C15.113,17.48 15.039,17.335 15.045,17.178C15.045,17.174 15.043,17.155 15.043,17.151C15.043,16.998 15.122,16.858 15.247,16.755C15.374,16.652 15.548,16.585 15.741,16.579L22.892,16.579C23.09,16.587 23.269,16.658 23.396,16.767C23.521,16.875 23.595,17.021 23.588,17.178C23.588,17.183 23.589,17.188 23.589,17.193L23.589,17.207C23.589,17.359 23.511,17.499 23.385,17.601C23.26,17.704 23.086,17.771 22.892,17.776L15.741,17.776"/>
    </g>
</svg>
