<?xml version="1.0" encoding="UTF-8" standalone="no"?>
<!DOCTYPE svg PUBLIC "-//W3C//DTD SVG 1.1//EN" "http://www.w3.org/Graphics/SVG/1.1/DTD/svg11.dtd">
<svg width="30px" height="30px" version="1.1" xmlns="http://www.w3.org/2000/svg" xmlns:xlink="http://www.w3.org/1999/xlink" xml:space="preserve" xmlns:serif="http://www.serif.com/" style="fill-rule:evenodd;clip-rule:evenodd;stroke-linejoin:round;">
    <path d="M-0.515,14.031L-0.515,16.849L-4.851,12.513L-0.515,8.177L-0.515,10.995L5.516,10.995L5.516,8.177L9.852,12.513L5.516,16.849L5.516,14.031L-0.515,14.031Z" style="fill:rgb(52,168,83);"/>
    <g id="text">
        <rect x="11.656" y="17.941" width="0.239" height="3.097" style="fill:rgb(4,161,233);fill-rule:nonzero;"/>
        <path d="M13.003,21.087C12.782,21.087 12.606,20.989 12.474,20.794C12.343,20.598 12.277,20.339 12.277,20.016C12.277,19.665 12.345,19.39 12.482,19.193C12.619,18.996 12.805,18.897 13.038,18.897C13.261,18.897 13.434,18.993 13.559,19.185C13.684,19.377 13.747,19.643 13.747,19.984C13.747,20.317 13.679,20.585 13.545,20.785C13.41,20.986 13.229,21.087 13.003,21.087ZM13.02,19.179C12.867,19.179 12.745,19.252 12.656,19.398C12.566,19.545 12.522,19.747 12.522,20.004C12.522,20.252 12.567,20.447 12.657,20.59C12.748,20.733 12.869,20.805 13.02,20.805C13.175,20.805 13.294,20.735 13.377,20.594C13.46,20.454 13.502,20.255 13.502,19.996C13.502,19.734 13.46,19.533 13.377,19.391C13.294,19.25 13.175,19.179 13.02,19.179Z" style="fill:rgb(4,161,233);fill-rule:nonzero;"/>
        <path d="M14.907,19.285C14.866,19.24 14.805,19.218 14.727,19.218C14.625,19.218 14.539,19.285 14.471,19.42C14.402,19.555 14.368,19.738 14.368,19.971L14.368,21.038L14.129,21.038L14.129,18.946L14.368,18.946L14.368,19.377L14.374,19.377C14.408,19.23 14.46,19.115 14.53,19.033C14.6,18.95 14.678,18.909 14.765,18.909C14.827,18.909 14.874,18.919 14.907,18.938L14.907,19.285Z" style="fill:rgb(4,161,233);fill-rule:nonzero;"/>
        <path d="M16.367,20.076L15.313,20.076C15.317,20.308 15.361,20.488 15.447,20.615C15.533,20.742 15.65,20.805 15.8,20.805C15.968,20.805 16.123,20.727 16.264,20.572L16.264,20.887C16.132,21.02 15.959,21.087 15.743,21.087C15.532,21.087 15.366,20.992 15.246,20.802C15.125,20.612 15.065,20.345 15.065,20C15.065,19.674 15.131,19.409 15.263,19.204C15.394,18.999 15.558,18.897 15.753,18.897C15.949,18.897 16.1,18.985 16.207,19.162C16.314,19.339 16.367,19.585 16.367,19.9L16.367,20.076ZM16.122,19.792C16.121,19.598 16.088,19.448 16.022,19.34C15.957,19.232 15.866,19.179 15.749,19.179C15.636,19.179 15.54,19.235 15.462,19.348C15.383,19.461 15.334,19.609 15.316,19.792L16.122,19.792Z" style="fill:rgb(4,161,233);fill-rule:nonzero;"/>
        <path d="M18.849,21.038L18.61,21.038L18.61,19.837C18.61,19.605 18.584,19.437 18.533,19.334C18.482,19.23 18.397,19.179 18.276,19.179C18.174,19.179 18.087,19.244 18.016,19.375C17.944,19.506 17.909,19.662 17.909,19.845L17.909,21.038L17.669,21.038L17.669,19.796C17.669,19.384 17.556,19.179 17.33,19.179C17.225,19.179 17.138,19.24 17.07,19.364C17.002,19.487 16.968,19.647 16.968,19.845L16.968,21.038L16.729,21.038L16.729,18.946L16.968,18.946L16.968,19.277L16.974,19.277C17.08,19.023 17.234,18.897 17.438,18.897C17.54,18.897 17.629,18.937 17.704,19.016C17.78,19.096 17.832,19.2 17.86,19.33C17.971,19.041 18.136,18.897 18.356,18.897C18.685,18.897 18.849,19.181 18.849,19.749L18.849,21.038Z" style="fill:rgb(4,161,233);fill-rule:nonzero;"/>
        <rect x="20.151" y="18.108" width="0.245" height="2.93" style="fill:rgb(4,161,233);fill-rule:nonzero;"/>
        <path d="M21.159,20.735L21.153,20.735L21.153,22L20.914,22L20.914,18.946L21.153,18.946L21.153,19.314L21.159,19.314C21.277,19.036 21.449,18.897 21.675,18.897C21.868,18.897 22.018,18.99 22.126,19.178C22.234,19.365 22.288,19.616 22.288,19.93C22.288,20.281 22.227,20.561 22.105,20.771C21.984,20.982 21.818,21.087 21.607,21.087C21.413,21.087 21.264,20.97 21.159,20.735ZM21.153,19.892L21.153,20.184C21.153,20.357 21.193,20.504 21.273,20.624C21.354,20.745 21.455,20.805 21.579,20.805C21.724,20.805 21.837,20.727 21.919,20.572C22.002,20.417 22.043,20.201 22.043,19.924C22.043,19.691 22.004,19.509 21.927,19.377C21.851,19.245 21.747,19.179 21.615,19.179C21.476,19.179 21.365,19.246 21.28,19.382C21.195,19.517 21.153,19.687 21.153,19.892Z" style="fill:rgb(4,161,233);fill-rule:nonzero;"/>
        <path d="M22.579,20.962L22.579,20.603C22.71,20.737 22.853,20.805 23.01,20.805C23.219,20.805 23.324,20.707 23.324,20.511C23.324,20.455 23.315,20.408 23.298,20.369C23.28,20.33 23.255,20.295 23.225,20.266C23.194,20.236 23.158,20.209 23.117,20.185C23.075,20.161 23.031,20.136 22.983,20.11C22.917,20.073 22.859,20.036 22.809,19.999C22.759,19.961 22.717,19.919 22.684,19.872C22.65,19.825 22.625,19.772 22.608,19.712C22.591,19.652 22.582,19.582 22.582,19.501C22.582,19.403 22.598,19.317 22.63,19.241C22.662,19.165 22.705,19.102 22.759,19.051C22.812,19 22.873,18.961 22.942,18.936C23.01,18.91 23.081,18.897 23.154,18.897C23.283,18.897 23.399,18.928 23.501,18.991L23.501,19.33C23.391,19.229 23.265,19.179 23.122,19.179C23.077,19.179 23.037,19.186 23.001,19.2C22.965,19.214 22.934,19.235 22.908,19.26C22.882,19.286 22.862,19.317 22.848,19.353C22.834,19.389 22.827,19.429 22.827,19.473C22.827,19.527 22.834,19.573 22.848,19.61C22.862,19.647 22.883,19.679 22.91,19.708C22.938,19.736 22.971,19.762 23.01,19.785C23.048,19.809 23.093,19.834 23.142,19.861C23.208,19.896 23.268,19.933 23.32,19.97C23.373,20.008 23.417,20.05 23.454,20.097C23.491,20.144 23.52,20.198 23.54,20.259C23.56,20.321 23.569,20.394 23.569,20.478C23.569,20.582 23.553,20.671 23.521,20.748C23.488,20.824 23.445,20.887 23.39,20.938C23.336,20.988 23.273,21.026 23.202,21.05C23.131,21.075 23.057,21.087 22.979,21.087C22.825,21.087 22.692,21.045 22.579,20.962Z" style="fill:rgb(4,161,233);fill-rule:nonzero;"/>
        <path d="M25.144,21.038L24.905,21.038L24.905,20.707L24.899,20.707C24.8,20.96 24.647,21.087 24.439,21.087C24.083,21.087 23.905,20.79 23.905,20.196L23.905,18.946L24.143,18.946L24.143,20.143C24.143,20.584 24.263,20.805 24.504,20.805C24.621,20.805 24.717,20.745 24.792,20.624C24.868,20.504 24.905,20.346 24.905,20.151L24.905,18.946L25.144,18.946L25.144,21.038Z" style="fill:rgb(4,161,233);fill-rule:nonzero;"/>
        <path d="M27.747,21.038L27.508,21.038L27.508,19.837C27.508,19.605 27.483,19.437 27.432,19.334C27.381,19.23 27.295,19.179 27.174,19.179C27.072,19.179 26.985,19.244 26.914,19.375C26.843,19.506 26.807,19.662 26.807,19.845L26.807,21.038L26.568,21.038L26.568,19.796C26.568,19.384 26.454,19.179 26.228,19.179C26.123,19.179 26.036,19.24 25.968,19.364C25.9,19.487 25.866,19.647 25.866,19.845L25.866,21.038L25.627,21.038L25.627,18.946L25.866,18.946L25.866,19.277L25.872,19.277C25.978,19.023 26.133,18.897 26.336,18.897C26.438,18.897 26.527,18.937 26.603,19.016C26.678,19.096 26.73,19.2 26.759,19.33C26.87,19.041 27.035,18.897 27.254,18.897C27.583,18.897 27.747,19.181 27.747,19.749L27.747,21.038Z" style="fill:rgb(4,161,233);fill-rule:nonzero;"/>
        <path d="M29.373,18.946L28.778,21.038L28.544,21.038L27.978,18.946L28.24,18.946L28.619,20.466C28.648,20.577 28.665,20.675 28.672,20.758L28.678,20.758C28.687,20.653 28.703,20.558 28.724,20.474L29.121,18.946L29.373,18.946Z" style="fill:rgb(4,161,233);fill-rule:nonzero;"/>
        <path d="M13.786,15.446L11.584,15.446L11.584,7.711L12.081,7.711L12.081,14.626L13.786,14.626L13.786,15.446Z" style="fill:rgb(4,161,233);fill-rule:nonzero;"/>
        <path d="M15.638,15.576C15.19,15.576 14.833,15.318 14.565,14.802C14.298,14.286 14.164,13.602 14.164,12.749C14.164,11.822 14.304,11.097 14.582,10.576C14.86,10.054 15.236,9.794 15.709,9.794C16.161,9.794 16.513,10.047 16.767,10.554C17.02,11.061 17.147,11.764 17.147,12.663C17.147,13.544 17.01,14.25 16.737,14.78C16.464,15.311 16.098,15.576 15.638,15.576ZM15.673,10.538C15.362,10.538 15.115,10.731 14.934,11.118C14.752,11.504 14.662,12.037 14.662,12.717C14.662,13.371 14.753,13.887 14.937,14.265C15.12,14.643 15.366,14.831 15.673,14.831C15.987,14.831 16.228,14.646 16.397,14.276C16.566,13.905 16.65,13.379 16.65,12.695C16.65,12.005 16.566,11.473 16.397,11.099C16.228,10.725 15.987,10.538 15.673,10.538Z" style="fill:rgb(4,161,233);fill-rule:nonzero;"/>
        <path d="M19.502,10.818C19.417,10.7 19.295,10.64 19.135,10.64C18.928,10.64 18.755,10.818 18.616,11.174C18.477,11.53 18.407,12.016 18.407,12.631L18.407,15.446L17.922,15.446L17.922,9.923L18.407,9.923L18.407,11.061L18.419,11.061C18.488,10.673 18.594,10.37 18.736,10.152C18.878,9.935 19.037,9.826 19.212,9.826C19.339,9.826 19.435,9.851 19.502,9.901L19.502,10.818Z" style="fill:rgb(4,161,233);fill-rule:nonzero;"/>
        <path d="M22.464,12.906L20.325,12.906C20.333,13.521 20.423,13.995 20.597,14.33C20.771,14.664 21.009,14.831 21.313,14.831C21.654,14.831 21.968,14.626 22.254,14.217L22.254,15.047C21.988,15.4 21.636,15.576 21.198,15.576C20.77,15.576 20.433,15.325 20.189,14.823C19.944,14.322 19.822,13.616 19.822,12.706C19.822,11.847 19.955,11.146 20.223,10.605C20.49,10.064 20.822,9.794 21.218,9.794C21.615,9.794 21.922,10.027 22.139,10.495C22.356,10.962 22.464,11.611 22.464,12.442L22.464,12.906ZM21.967,12.156C21.965,11.645 21.897,11.248 21.764,10.964C21.631,10.68 21.446,10.538 21.209,10.538C20.981,10.538 20.786,10.687 20.627,10.986C20.467,11.284 20.368,11.674 20.331,12.156L21.967,12.156Z" style="fill:rgb(4,161,233);fill-rule:nonzero;"/>
        <path d="M27.5,15.446L27.015,15.446L27.015,12.275C27.015,11.663 26.963,11.221 26.859,10.948C26.756,10.675 26.582,10.538 26.337,10.538C26.13,10.538 25.954,10.71 25.809,11.056C25.664,11.401 25.592,11.814 25.592,12.296L25.592,15.446L25.106,15.446L25.106,12.167C25.106,11.081 24.876,10.538 24.417,10.538C24.204,10.538 24.028,10.701 23.89,11.026C23.752,11.351 23.683,11.775 23.683,12.296L23.683,15.446L23.198,15.446L23.198,9.923L23.683,9.923L23.683,10.797L23.695,10.797C23.91,10.128 24.224,9.794 24.636,9.794C24.843,9.794 25.023,9.899 25.177,10.109C25.331,10.319 25.437,10.595 25.494,10.937C25.719,10.175 26.054,9.794 26.5,9.794C27.167,9.794 27.5,10.543 27.5,12.043L27.5,15.446Z" style="fill:rgb(4,161,233);fill-rule:nonzero;"/>
    </g>
    <g>
        <rect x="0.126" y="6.9" width="29.736" height="15.928" style="fill:none;stroke:rgb(136,136,136);stroke-width:0.2px;"/>
    </g>
    <rect id="outer" x="0" y="0" width="30" height="30" style="fill:none;"/>
</svg>
