<?xml version="1.0" encoding="UTF-8" standalone="no"?>
<!DOCTYPE svg PUBLIC "-//W3C//DTD SVG 1.1//EN" "http://www.w3.org/Graphics/SVG/1.1/DTD/svg11.dtd">
<svg width="30px" height="30px" version="1.1" xmlns="http://www.w3.org/2000/svg" xmlns:xlink="http://www.w3.org/1999/xlink" xml:space="preserve" xmlns:serif="http://www.serif.com/" style="fill-rule:evenodd;clip-rule:evenodd;">
    <g id="window">
        <path d="M30,29.532C30,29.79 29.87,30 29.71,30L0.338,30C0.178,30 0.048,29.79 0.048,29.532L0.048,0.468C0.048,0.21 0.178,0 0.338,0L29.71,0C29.87,0 30,0.21 30,0.468L30,29.532Z" style="fill:url(#_Linear1);fill-rule:nonzero;stroke:rgb(7,0,1);stroke-width:0.06px;"/>
        <rect x="0.435" y="6.272" width="29.179" height="23.26" style="fill:rgb(230,230,230);stroke:rgb(35,24,21);stroke-width:0.12px;"/>
        <path d="M29.024,4.974L28.456,4.974L27.541,3.449C27.514,3.402 27.483,3.337 27.45,3.251L27.439,3.251C27.42,3.294 27.389,3.36 27.345,3.449L26.402,4.974L25.832,4.974L27.162,2.971L25.937,0.99L26.508,0.99L27.32,2.39C27.373,2.483 27.42,2.575 27.461,2.668L27.472,2.668C27.531,2.546 27.583,2.449 27.627,2.379L28.473,0.99L29.007,0.99L27.758,2.965L29.024,4.974Z" style="fill:white;fill-rule:nonzero;"/>
        <g id="title-text" serif:id="title text">
            <path d="M2.134,4.414L0.741,4.414L0.741,1.109L1.055,1.109L1.055,4.064L2.134,4.064L2.134,4.414Z" style="fill:white;fill-rule:nonzero;"/>
            <path d="M3.307,4.469C3.023,4.469 2.797,4.359 2.628,4.139C2.459,3.918 2.374,3.626 2.374,3.262C2.374,2.865 2.462,2.555 2.638,2.333C2.814,2.11 3.052,1.998 3.352,1.998C3.638,1.998 3.861,2.107 4.021,2.323C4.182,2.54 4.262,2.84 4.262,3.225C4.262,3.601 4.176,3.903 4.003,4.129C3.83,4.356 3.598,4.469 3.307,4.469ZM3.329,2.316C3.132,2.316 2.976,2.399 2.861,2.564C2.746,2.729 2.689,2.957 2.689,3.248C2.689,3.527 2.747,3.748 2.863,3.909C2.979,4.071 3.135,4.151 3.329,4.151C3.528,4.151 3.681,4.072 3.787,3.914C3.894,3.756 3.947,3.53 3.947,3.238C3.947,2.943 3.894,2.716 3.787,2.556C3.681,2.396 3.528,2.316 3.329,2.316Z" style="fill:white;fill-rule:nonzero;"/>
            <path d="M5.753,2.436C5.7,2.386 5.622,2.36 5.521,2.36C5.39,2.36 5.28,2.436 5.192,2.588C5.104,2.741 5.06,2.948 5.06,3.211L5.06,4.414L4.753,4.414L4.753,2.054L5.06,2.054L5.06,2.54L5.068,2.54C5.111,2.374 5.178,2.245 5.268,2.152C5.358,2.059 5.459,2.012 5.57,2.012C5.65,2.012 5.711,2.023 5.753,2.044L5.753,2.436Z" style="fill:white;fill-rule:nonzero;"/>
            <path d="M7.628,3.328L6.274,3.328C6.279,3.591 6.336,3.794 6.446,3.937C6.556,4.08 6.707,4.151 6.9,4.151C7.116,4.151 7.314,4.064 7.495,3.889L7.495,4.243C7.327,4.394 7.104,4.469 6.827,4.469C6.556,4.469 6.343,4.362 6.188,4.148C6.033,3.933 5.956,3.632 5.956,3.243C5.956,2.876 6.04,2.576 6.209,2.345C6.379,2.114 6.589,1.998 6.84,1.998C7.091,1.998 7.285,2.098 7.422,2.298C7.56,2.498 7.628,2.775 7.628,3.13L7.628,3.328ZM7.314,3.008C7.312,2.79 7.27,2.62 7.185,2.499C7.101,2.377 6.984,2.316 6.834,2.316C6.689,2.316 6.566,2.38 6.465,2.508C6.364,2.635 6.301,2.802 6.278,3.008L7.314,3.008Z" style="fill:white;fill-rule:nonzero;"/>
            <path d="M10.816,4.414L10.509,4.414L10.509,3.059C10.509,2.797 10.477,2.608 10.411,2.492C10.345,2.375 10.235,2.316 10.08,2.316C9.949,2.316 9.838,2.39 9.746,2.538C9.654,2.685 9.608,2.862 9.608,3.068L9.608,4.414L9.301,4.414L9.301,3.013C9.301,2.548 9.156,2.316 8.865,2.316C8.73,2.316 8.619,2.386 8.531,2.525C8.444,2.664 8.4,2.845 8.4,3.068L8.4,4.414L8.093,4.414L8.093,2.054L8.4,2.054L8.4,2.427L8.408,2.427C8.544,2.141 8.742,1.998 9.003,1.998C9.134,1.998 9.249,2.043 9.346,2.133C9.443,2.223 9.51,2.341 9.546,2.487C9.689,2.161 9.901,1.998 10.183,1.998C10.605,1.998 10.816,2.319 10.816,2.96L10.816,4.414Z" style="fill:white;fill-rule:nonzero;"/>
            <rect x="12.489" y="1.109" width="0.315" height="3.306" style="fill:white;"/>
            <path d="M13.784,4.073L13.776,4.073L13.776,5.5L13.469,5.5L13.469,2.054L13.776,2.054L13.776,2.469L13.784,2.469C13.935,2.155 14.156,1.998 14.447,1.998C14.694,1.998 14.887,2.104 15.026,2.315C15.164,2.527 15.233,2.81 15.233,3.165C15.233,3.56 15.155,3.876 14.999,4.113C14.843,4.351 14.63,4.469 14.359,4.469C14.11,4.469 13.918,4.337 13.784,4.073ZM13.776,3.121L13.776,3.451C13.776,3.646 13.828,3.811 13.931,3.947C14.034,4.083 14.165,4.151 14.323,4.151C14.509,4.151 14.655,4.064 14.76,3.889C14.866,3.713 14.919,3.47 14.919,3.158C14.919,2.895 14.869,2.689 14.771,2.54C14.672,2.391 14.539,2.316 14.37,2.316C14.191,2.316 14.048,2.393 13.939,2.546C13.83,2.699 13.776,2.89 13.776,3.121Z" style="fill:white;fill-rule:nonzero;"/>
            <path d="M15.608,4.329L15.608,3.923C15.775,4.075 15.96,4.151 16.161,4.151C16.43,4.151 16.565,4.041 16.565,3.819C16.565,3.756 16.554,3.703 16.531,3.659C16.508,3.615 16.476,3.577 16.437,3.543C16.398,3.509 16.351,3.479 16.298,3.452C16.245,3.425 16.188,3.397 16.127,3.368C16.042,3.326 15.967,3.284 15.903,3.242C15.839,3.2 15.785,3.152 15.742,3.099C15.699,3.046 15.666,2.986 15.645,2.918C15.623,2.85 15.612,2.771 15.612,2.681C15.612,2.57 15.632,2.472 15.674,2.387C15.715,2.301 15.77,2.23 15.839,2.172C15.907,2.115 15.986,2.071 16.074,2.042C16.162,2.013 16.252,1.998 16.346,1.998C16.512,1.998 16.661,2.034 16.792,2.104L16.792,2.487C16.651,2.373 16.489,2.316 16.305,2.316C16.247,2.316 16.196,2.324 16.149,2.341C16.103,2.357 16.064,2.379 16.031,2.409C15.997,2.438 15.972,2.473 15.954,2.513C15.936,2.554 15.927,2.599 15.927,2.648C15.927,2.71 15.936,2.761 15.954,2.803C15.972,2.844 15.998,2.881 16.033,2.913C16.068,2.946 16.111,2.975 16.161,3.001C16.211,3.027 16.267,3.056 16.331,3.086C16.416,3.126 16.492,3.167 16.56,3.21C16.627,3.252 16.685,3.3 16.732,3.353C16.779,3.406 16.816,3.467 16.842,3.536C16.867,3.605 16.88,3.687 16.88,3.782C16.88,3.899 16.859,4.001 16.817,4.087C16.775,4.173 16.72,4.244 16.65,4.301C16.58,4.358 16.499,4.4 16.408,4.428C16.317,4.456 16.221,4.469 16.121,4.469C15.924,4.469 15.753,4.423 15.608,4.329Z" style="fill:white;fill-rule:nonzero;"/>
            <path d="M18.903,4.414L18.596,4.414L18.596,4.041L18.588,4.041C18.461,4.326 18.264,4.469 17.996,4.469C17.539,4.469 17.311,4.134 17.311,3.464L17.311,2.054L17.616,2.054L17.616,3.404C17.616,3.902 17.771,4.151 18.081,4.151C18.231,4.151 18.354,4.083 18.451,3.947C18.547,3.811 18.596,3.633 18.596,3.414L18.596,2.054L18.903,2.054L18.903,4.414Z" style="fill:white;fill-rule:nonzero;"/>
            <path d="M22.247,4.414L21.94,4.414L21.94,3.059C21.94,2.797 21.907,2.608 21.841,2.492C21.776,2.375 21.665,2.316 21.511,2.316C21.379,2.316 21.268,2.39 21.176,2.538C21.084,2.685 21.039,2.862 21.039,3.068L21.039,4.414L20.731,4.414L20.731,3.013C20.731,2.548 20.586,2.316 20.295,2.316C20.16,2.316 20.049,2.386 19.961,2.525C19.874,2.664 19.83,2.845 19.83,3.068L19.83,4.414L19.523,4.414L19.523,2.054L19.83,2.054L19.83,2.427L19.838,2.427C19.974,2.141 20.172,1.998 20.433,1.998C20.565,1.998 20.679,2.043 20.776,2.133C20.874,2.223 20.94,2.341 20.977,2.487C21.119,2.161 21.331,1.998 21.614,1.998C22.036,1.998 22.247,2.319 22.247,2.96L22.247,4.414Z" style="fill:white;fill-rule:nonzero;"/>
            <path d="M24.335,2.054L23.571,4.414L23.269,4.414L22.543,2.054L22.88,2.054L23.367,3.769C23.403,3.895 23.426,4.005 23.434,4.098L23.442,4.098C23.454,3.98 23.474,3.873 23.502,3.778L24.011,2.054L24.335,2.054Z" style="fill:white;fill-rule:nonzero;"/>
        </g>
    </g>
    <g id="ok-cancel">
        <g id="button">
            <rect x="23.115" y="24" width="4.385" height="4.019" style="fill:none;stroke:rgb(136,136,136);stroke-width:0.47px;stroke-linejoin:round;"/>
            <rect x="23.115" y="24" width="4.385" height="4.019" style="fill:rgb(221,221,221);"/>
            <rect x="23.272" y="24.287" width="4.071" height="3.445" style="fill:white;"/>
        </g>
        <g id="button1" serif:id="button">
            <rect x="18" y="24" width="4.385" height="4.019" style="fill:none;stroke:rgb(136,136,136);stroke-width:0.47px;stroke-linejoin:round;"/>
            <rect x="18" y="24" width="4.385" height="4.019" style="fill:rgb(221,221,221);"/>
            <rect x="18.157" y="24.287" width="4.071" height="3.445" style="fill:white;"/>
        </g>
        <path d="M24.377,26.74L23.481,26.74L23.481,25.277L24.339,25.277L24.339,25.432L23.679,25.432L23.679,25.919L24.289,25.919L24.289,26.073L23.679,26.073L23.679,26.585L24.377,26.585L24.377,26.74Z" style="fill-rule:nonzero;"/>
        <path d="M24.623,26.681L24.623,26.479C24.65,26.5 24.682,26.518 24.719,26.534C24.756,26.55 24.795,26.564 24.837,26.576C24.878,26.587 24.92,26.595 24.961,26.602C25.003,26.608 25.041,26.611 25.077,26.611C25.198,26.611 25.289,26.591 25.35,26.552C25.41,26.513 25.44,26.457 25.44,26.383C25.44,26.344 25.43,26.309 25.41,26.28C25.39,26.251 25.362,26.224 25.327,26.2C25.291,26.176 25.249,26.153 25.201,26.131C25.153,26.109 25.101,26.085 25.045,26.061C24.986,26.035 24.931,26.009 24.88,25.982C24.829,25.956 24.784,25.926 24.747,25.895C24.709,25.862 24.679,25.826 24.658,25.786C24.636,25.745 24.625,25.698 24.625,25.643C24.625,25.577 24.642,25.519 24.676,25.469C24.71,25.42 24.754,25.379 24.809,25.347C24.864,25.315 24.927,25.292 24.997,25.276C25.067,25.26 25.139,25.253 25.212,25.253C25.379,25.253 25.5,25.27 25.576,25.304L25.576,25.497C25.477,25.437 25.349,25.407 25.192,25.407C25.149,25.407 25.106,25.411 25.063,25.419C25.019,25.427 24.981,25.44 24.947,25.458C24.913,25.475 24.886,25.498 24.864,25.526C24.843,25.554 24.833,25.588 24.833,25.628C24.833,25.665 24.841,25.698 24.857,25.725C24.873,25.752 24.897,25.777 24.928,25.8C24.959,25.822 24.998,25.844 25.043,25.865C25.088,25.886 25.14,25.909 25.199,25.934C25.26,25.96 25.317,25.987 25.371,26.016C25.426,26.044 25.473,26.076 25.514,26.111C25.555,26.146 25.587,26.184 25.611,26.226C25.635,26.268 25.647,26.317 25.647,26.371C25.647,26.443 25.631,26.504 25.598,26.554C25.566,26.604 25.521,26.645 25.466,26.676C25.411,26.708 25.347,26.73 25.275,26.744C25.202,26.758 25.126,26.765 25.046,26.765C25.019,26.765 24.986,26.763 24.947,26.759C24.908,26.755 24.868,26.75 24.827,26.743C24.786,26.736 24.747,26.727 24.711,26.716C24.674,26.706 24.645,26.694 24.623,26.681Z" style="fill-rule:nonzero;"/>
        <path d="M27.135,26.679C27.01,26.736 26.854,26.765 26.668,26.765C26.428,26.765 26.235,26.698 26.09,26.564C25.946,26.43 25.873,26.254 25.873,26.036C25.873,25.802 25.955,25.613 26.117,25.469C26.28,25.325 26.486,25.253 26.736,25.253C26.896,25.253 27.029,25.273 27.135,25.312L27.135,25.495C27.014,25.437 26.88,25.407 26.734,25.407C26.54,25.407 26.382,25.464 26.262,25.576C26.141,25.688 26.081,25.838 26.081,26.026C26.081,26.204 26.137,26.346 26.25,26.452C26.363,26.558 26.511,26.611 26.694,26.611C26.864,26.611 27.01,26.578 27.135,26.513L27.135,26.679Z" style="fill-rule:nonzero;"/>
        <path d="M19.403,26.791C19.2,26.791 19.037,26.723 18.915,26.586C18.792,26.45 18.731,26.272 18.731,26.052C18.731,25.817 18.793,25.629 18.918,25.489C19.043,25.349 19.213,25.279 19.428,25.279C19.626,25.279 19.785,25.347 19.907,25.483C20.028,25.619 20.088,25.797 20.088,26.017C20.088,26.256 20.026,26.444 19.902,26.583C19.778,26.722 19.612,26.791 19.403,26.791ZM19.416,25.434C19.265,25.434 19.142,25.489 19.048,25.6C18.954,25.711 18.907,25.857 18.907,26.037C18.907,26.218 18.953,26.363 19.045,26.473C19.136,26.582 19.256,26.637 19.403,26.637C19.561,26.637 19.685,26.585 19.776,26.48C19.866,26.375 19.912,26.228 19.912,26.04C19.912,25.847 19.868,25.698 19.78,25.592C19.692,25.487 19.57,25.434 19.416,25.434Z" style="fill-rule:nonzero;"/>
        <path d="M21.369,26.767L21.135,26.767L20.581,26.097C20.56,26.072 20.547,26.055 20.542,26.046L20.538,26.046L20.538,26.767L20.37,26.767L20.37,25.303L20.538,25.303L20.538,25.991L20.542,25.991C20.552,25.976 20.565,25.96 20.581,25.941L21.117,25.303L21.326,25.303L20.711,26.006L21.369,26.767Z" style="fill-rule:nonzero;"/>
    </g>
    <path d="M0.5,22.5C29.96,22.5 19.5,22.5 19.5,22.5L30,22.5L0,22.5" style="fill:none;stroke:black;stroke-width:0.05px;stroke-linecap:round;stroke-linejoin:round;stroke-miterlimit:1.5;"/>
    <path d="M2.066,8.813C2.066,8.364 2.649,8 3.367,8L26.699,8C27.417,8 28,8.364 28,8.813L28,12.604C28,13.053 27.417,13.417 26.699,13.417L3.367,13.417C2.649,13.417 2.066,13.053 2.066,12.604L2.066,8.813ZM4.667,9.625L4.667,11.792L25.399,11.792L25.399,9.625L4.667,9.625Z" style="fill:rgb(77,77,77);fill-rule:nonzero;"/>
    <path d="M2.066,16.396C2.066,15.947 2.649,15.583 3.367,15.583L13.729,15.583C14.447,15.583 15.03,15.947 15.03,16.396C15.03,16.844 14.447,17.208 13.729,17.208L3.367,17.208C2.649,17.208 2.066,16.844 2.066,16.396Z" style="fill:rgb(89,89,89);fill-rule:nonzero;"/>
    <path d="M3.367,19.375C2.649,19.375 2.066,19.739 2.066,20.188C2.066,20.636 2.649,21 3.367,21L13.729,21C14.447,21 15.03,20.636 15.03,20.188C15.03,19.739 14.447,19.375 13.729,19.375L3.367,19.375Z" style="fill:rgb(89,89,89);fill-rule:nonzero;"/>
    <defs>
        <linearGradient id="_Linear1" x1="0" y1="0" x2="1" y2="0" gradientUnits="userSpaceOnUse" gradientTransform="matrix(1.83698e-15,-30.0001,30.0001,1.83698e-15,15.024,30)"><stop offset="0" style="stop-color:rgb(62,77,151);stop-opacity:1"/><stop offset="0.11" style="stop-color:rgb(39,68,146);stop-opacity:1"/><stop offset="0.2" style="stop-color:rgb(21,64,143);stop-opacity:1"/><stop offset="0.25" style="stop-color:rgb(26,67,145);stop-opacity:1"/><stop offset="0.4" style="stop-color:rgb(35,74,149);stop-opacity:1"/><stop offset="0.71" style="stop-color:rgb(33,81,154);stop-opacity:1"/><stop offset="0.77" style="stop-color:rgb(33,82,155);stop-opacity:1"/><stop offset="0.81" style="stop-color:rgb(35,83,156);stop-opacity:1"/><stop offset="0.85" style="stop-color:rgb(59,96,165);stop-opacity:1"/><stop offset="0.89" style="stop-color:rgb(44,88,159);stop-opacity:1"/><stop offset="0.94" style="stop-color:rgb(77,108,172);stop-opacity:1"/><stop offset="0.98" style="stop-color:rgb(97,125,183);stop-opacity:1"/><stop offset="0.99" style="stop-color:rgb(123,150,199);stop-opacity:1"/><stop offset="1" style="stop-color:rgb(154,178,217);stop-opacity:1"/><stop offset="1" style="stop-color:rgb(155,179,217);stop-opacity:1"/></linearGradient>
    </defs>
</svg>
