<?xml version="1.0" encoding="UTF-8" standalone="no"?>
<!DOCTYPE svg PUBLIC "-//W3C//DTD SVG 1.1//EN" "http://www.w3.org/Graphics/SVG/1.1/DTD/svg11.dtd">
<svg width="30px" height="30px" version="1.1" xmlns="http://www.w3.org/2000/svg" xmlns:xlink="http://www.w3.org/1999/xlink" xml:space="preserve" xmlns:serif="http://www.serif.com/" style="fill-rule:evenodd;clip-rule:evenodd;">
    <g id="window">
        <path d="M30,29.532C30,29.79 29.87,30 29.71,30L0.338,30C0.178,30 0.048,29.79 0.048,29.532L0.048,0.468C0.048,0.21 0.178,0 0.338,0L29.71,0C29.87,0 30,0.21 30,0.468L30,29.532Z" style="fill:url(#_Linear1);fill-rule:nonzero;stroke:rgb(7,0,1);stroke-width:0.06px;"/>
        <rect x="0.435" y="6.272" width="29.179" height="23.26" style="fill:white;stroke:rgb(35,24,21);stroke-width:0.12px;"/>
        <path d="M29.024,4.974L28.456,4.974L27.541,3.449C27.514,3.402 27.483,3.337 27.45,3.251L27.439,3.251C27.42,3.294 27.389,3.36 27.345,3.449L26.402,4.974L25.832,4.974L27.162,2.971L25.937,0.99L26.508,0.99L27.32,2.39C27.373,2.483 27.42,2.575 27.461,2.668L27.472,2.668C27.531,2.546 27.583,2.449 27.627,2.379L28.473,0.99L29.007,0.99L27.758,2.965L29.024,4.974Z" style="fill:white;fill-rule:nonzero;"/>
        <g id="title-text" serif:id="title text">
            <path d="M1.9,4.414L0.741,4.414L0.741,1.109L1.002,1.109L1.002,4.064L1.9,4.064L1.9,4.414Z" style="fill:white;fill-rule:nonzero;"/>
            <path d="M2.876,4.469C2.64,4.469 2.452,4.359 2.311,4.139C2.171,3.918 2.1,3.626 2.1,3.262C2.1,2.865 2.173,2.555 2.32,2.333C2.466,2.11 2.664,1.998 2.914,1.998C3.152,1.998 3.337,2.107 3.47,2.323C3.604,2.54 3.671,2.84 3.671,3.225C3.671,3.601 3.599,3.903 3.455,4.129C3.311,4.356 3.118,4.469 2.876,4.469ZM2.895,2.316C2.731,2.316 2.601,2.399 2.505,2.564C2.409,2.729 2.362,2.957 2.362,3.248C2.362,3.527 2.41,3.748 2.507,3.909C2.603,4.071 2.733,4.151 2.895,4.151C3.06,4.151 3.188,4.072 3.276,3.914C3.365,3.756 3.409,3.53 3.409,3.238C3.409,2.943 3.365,2.716 3.276,2.556C3.188,2.396 3.06,2.316 2.895,2.316Z" style="fill:white;fill-rule:nonzero;"/>
            <path d="M4.912,2.436C4.868,2.386 4.803,2.36 4.719,2.36C4.61,2.36 4.518,2.436 4.445,2.588C4.372,2.741 4.335,2.948 4.335,3.211L4.335,4.414L4.08,4.414L4.08,2.054L4.335,2.054L4.335,2.54L4.342,2.54C4.377,2.374 4.433,2.245 4.508,2.152C4.583,2.059 4.667,2.012 4.759,2.012C4.826,2.012 4.877,2.023 4.912,2.044L4.912,2.436Z" style="fill:white;fill-rule:nonzero;"/>
            <path d="M6.472,3.328L5.345,3.328C5.349,3.591 5.397,3.794 5.488,3.937C5.58,4.08 5.706,4.151 5.866,4.151C6.046,4.151 6.211,4.064 6.361,3.889L6.361,4.243C6.222,4.394 6.036,4.469 5.805,4.469C5.58,4.469 5.403,4.362 5.274,4.148C5.145,3.933 5.081,3.632 5.081,3.243C5.081,2.876 5.151,2.576 5.291,2.345C5.433,2.114 5.607,1.998 5.816,1.998C6.025,1.998 6.187,2.098 6.301,2.298C6.415,2.498 6.472,2.775 6.472,3.13L6.472,3.328ZM6.211,3.008C6.209,2.79 6.174,2.62 6.103,2.499C6.033,2.377 5.936,2.316 5.811,2.316C5.691,2.316 5.588,2.38 5.504,2.508C5.42,2.635 5.368,2.802 5.349,3.008L6.211,3.008Z" style="fill:white;fill-rule:nonzero;"/>
            <path d="M9.125,4.414L8.869,4.414L8.869,3.059C8.869,2.797 8.843,2.608 8.788,2.492C8.733,2.375 8.641,2.316 8.512,2.316C8.403,2.316 8.311,2.39 8.234,2.538C8.158,2.685 8.12,2.862 8.12,3.068L8.12,4.414L7.864,4.414L7.864,3.013C7.864,2.548 7.744,2.316 7.501,2.316C7.389,2.316 7.297,2.386 7.223,2.525C7.151,2.664 7.114,2.845 7.114,3.068L7.114,4.414L6.859,4.414L6.859,2.054L7.114,2.054L7.114,2.427L7.121,2.427C7.234,2.141 7.399,1.998 7.616,1.998C7.725,1.998 7.821,2.043 7.902,2.133C7.982,2.223 8.038,2.341 8.068,2.487C8.187,2.161 8.363,1.998 8.598,1.998C8.949,1.998 9.125,2.319 9.125,2.96L9.125,4.414Z" style="fill:white;fill-rule:nonzero;"/>
            <rect x="10.517" y="1.109" width="0.262" height="3.306" style="fill:white;"/>
            <path d="M11.595,4.073L11.588,4.073L11.588,5.5L11.333,5.5L11.333,2.054L11.588,2.054L11.588,2.469L11.595,2.469C11.72,2.155 11.904,1.998 12.146,1.998C12.352,1.998 12.513,2.104 12.628,2.315C12.743,2.527 12.8,2.81 12.8,3.165C12.8,3.56 12.736,3.876 12.606,4.113C12.476,4.351 12.299,4.469 12.073,4.469C11.866,4.469 11.706,4.337 11.595,4.073ZM11.588,3.121L11.588,3.451C11.588,3.646 11.631,3.811 11.717,3.947C11.803,4.083 11.912,4.151 12.043,4.151C12.198,4.151 12.319,4.064 12.407,3.889C12.495,3.713 12.539,3.47 12.539,3.158C12.539,2.895 12.498,2.689 12.416,2.54C12.334,2.391 12.223,2.316 12.082,2.316C11.933,2.316 11.814,2.393 11.724,2.546C11.633,2.699 11.588,2.89 11.588,3.121Z" style="fill:white;fill-rule:nonzero;"/>
            <path d="M13.113,4.329L13.113,3.923C13.251,4.075 13.405,4.151 13.573,4.151C13.797,4.151 13.909,4.041 13.909,3.819C13.909,3.756 13.9,3.703 13.881,3.659C13.861,3.615 13.835,3.577 13.802,3.543C13.77,3.509 13.731,3.479 13.687,3.452C13.643,3.425 13.595,3.397 13.544,3.368C13.474,3.326 13.411,3.284 13.358,3.242C13.305,3.2 13.26,3.152 13.224,3.099C13.188,3.046 13.161,2.986 13.143,2.918C13.125,2.85 13.116,2.771 13.116,2.681C13.116,2.57 13.132,2.472 13.167,2.387C13.202,2.301 13.247,2.23 13.305,2.172C13.361,2.115 13.427,2.071 13.5,2.042C13.574,2.013 13.648,1.998 13.727,1.998C13.865,1.998 13.989,2.034 14.098,2.104L14.098,2.487C13.98,2.373 13.846,2.316 13.693,2.316C13.644,2.316 13.602,2.324 13.563,2.341C13.524,2.357 13.492,2.379 13.465,2.409C13.436,2.438 13.415,2.473 13.4,2.513C13.385,2.554 13.378,2.599 13.378,2.648C13.378,2.71 13.385,2.761 13.4,2.803C13.415,2.844 13.437,2.881 13.466,2.913C13.495,2.946 13.531,2.975 13.573,3.001C13.614,3.027 13.661,3.056 13.714,3.086C13.785,3.126 13.848,3.167 13.905,3.21C13.96,3.252 14.009,3.3 14.048,3.353C14.087,3.406 14.118,3.467 14.139,3.536C14.16,3.605 14.171,3.687 14.171,3.782C14.171,3.899 14.154,4.001 14.119,4.087C14.084,4.173 14.038,4.244 13.98,4.301C13.921,4.358 13.854,4.4 13.778,4.428C13.703,4.456 13.623,4.469 13.539,4.469C13.375,4.469 13.233,4.423 13.113,4.329Z" style="fill:white;fill-rule:nonzero;"/>
            <path d="M15.854,4.414L15.599,4.414L15.599,4.041L15.592,4.041C15.487,4.326 15.323,4.469 15.1,4.469C14.719,4.469 14.53,4.134 14.53,3.464L14.53,2.054L14.783,2.054L14.783,3.404C14.783,3.902 14.912,4.151 15.17,4.151C15.295,4.151 15.398,4.083 15.478,3.947C15.558,3.811 15.599,3.633 15.599,3.414L15.599,2.054L15.854,2.054L15.854,4.414Z" style="fill:white;fill-rule:nonzero;"/>
            <path d="M18.637,4.414L18.382,4.414L18.382,3.059C18.382,2.797 18.354,2.608 18.299,2.492C18.245,2.375 18.153,2.316 18.025,2.316C17.915,2.316 17.822,2.39 17.746,2.538C17.669,2.685 17.632,2.862 17.632,3.068L17.632,4.414L17.376,4.414L17.376,3.013C17.376,2.548 17.255,2.316 17.013,2.316C16.9,2.316 16.808,2.386 16.735,2.525C16.662,2.664 16.626,2.845 16.626,3.068L16.626,4.414L16.37,4.414L16.37,2.054L16.626,2.054L16.626,2.427L16.632,2.427C16.746,2.141 16.91,1.998 17.128,1.998C17.237,1.998 17.332,2.043 17.413,2.133C17.495,2.223 17.55,2.341 17.58,2.487C17.698,2.161 17.875,1.998 18.11,1.998C18.462,1.998 18.637,2.319 18.637,2.96L18.637,4.414Z" style="fill:white;fill-rule:nonzero;"/>
            <path d="M20.375,2.054L19.739,4.414L19.488,4.414L18.883,2.054L19.164,2.054L19.569,3.769C19.599,3.895 19.618,4.005 19.625,4.098L19.632,4.098C19.642,3.98 19.658,3.873 19.681,3.778L20.105,2.054L20.375,2.054Z" style="fill:white;fill-rule:nonzero;"/>
        </g>
    </g>
    <g id="ok-cancel">
        <g id="button">
            <rect x="20.814" y="23" width="7.829" height="5.039" style="fill:none;stroke:black;stroke-width:0.73px;stroke-linejoin:round;"/>
            <rect x="20.814" y="23" width="7.829" height="5.039" style="fill:rgb(191,191,191);"/>
            <rect x="21.094" y="23.36" width="7.269" height="4.319" style="fill:white;"/>
        </g>
        <g id="button1" serif:id="button">
            <rect x="11" y="22.83" width="8.748" height="5.311" style="fill:none;stroke:black;stroke-width:0.8px;stroke-linejoin:round;"/>
            <rect x="11.131" y="22.966" width="8.392" height="5.039" style="fill:rgb(128,128,128);"/>
            <rect x="11.432" y="23.326" width="7.791" height="4.319" style="fill:white;"/>
        </g>
        <path d="M23.067,26.435L21.467,26.435L21.467,24.601L22.999,24.601L22.999,24.795L21.821,24.795L21.821,25.406L22.91,25.406L22.91,25.599L21.821,25.599L21.821,26.241L23.067,26.241L23.067,26.435Z" style="fill-rule:nonzero;"/>
        <path d="M23.506,26.361L23.506,26.108C23.555,26.135 23.612,26.157 23.678,26.177C23.744,26.197 23.813,26.215 23.888,26.23C23.962,26.244 24.037,26.254 24.11,26.262C24.185,26.27 24.253,26.274 24.317,26.274C24.533,26.274 24.695,26.249 24.804,26.2C24.911,26.151 24.965,26.081 24.965,25.988C24.965,25.939 24.947,25.895 24.911,25.859C24.876,25.822 24.826,25.788 24.763,25.758C24.699,25.728 24.624,25.699 24.538,25.672C24.453,25.644 24.36,25.614 24.26,25.584C24.154,25.552 24.056,25.519 23.965,25.485C23.874,25.452 23.794,25.415 23.728,25.376C23.66,25.335 23.606,25.289 23.569,25.239C23.53,25.188 23.51,25.129 23.51,25.06C23.51,24.977 23.54,24.905 23.601,24.842C23.662,24.78 23.74,24.729 23.838,24.689C23.937,24.649 24.049,24.62 24.174,24.6C24.299,24.58 24.428,24.571 24.558,24.571C24.856,24.571 25.072,24.592 25.208,24.635L25.208,24.877C25.031,24.802 24.803,24.764 24.522,24.764C24.445,24.764 24.369,24.769 24.292,24.779C24.213,24.789 24.146,24.805 24.085,24.828C24.024,24.849 23.976,24.878 23.937,24.913C23.899,24.948 23.881,24.991 23.881,25.041C23.881,25.088 23.896,25.129 23.924,25.163C23.953,25.197 23.996,25.228 24.051,25.257C24.106,25.284 24.176,25.312 24.256,25.338C24.337,25.365 24.429,25.394 24.535,25.425C24.644,25.457 24.745,25.491 24.842,25.528C24.94,25.563 25.024,25.603 25.097,25.647C25.17,25.691 25.228,25.738 25.27,25.791C25.313,25.844 25.335,25.905 25.335,25.973C25.335,26.063 25.306,26.14 25.247,26.202C25.19,26.265 25.11,26.316 25.011,26.355C24.913,26.395 24.799,26.423 24.67,26.44C24.54,26.458 24.404,26.467 24.262,26.467C24.213,26.467 24.154,26.464 24.085,26.459C24.015,26.454 23.944,26.448 23.871,26.439C23.797,26.43 23.728,26.419 23.663,26.405C23.597,26.393 23.546,26.378 23.506,26.361Z" style="fill-rule:nonzero;"/>
        <path d="M27.991,26.359C27.768,26.43 27.49,26.467 27.158,26.467C26.729,26.467 26.384,26.383 26.126,26.215C25.868,26.047 25.738,25.826 25.738,25.553C25.738,25.259 25.885,25.022 26.174,24.842C26.465,24.661 26.833,24.571 27.279,24.571C27.565,24.571 27.802,24.596 27.991,24.645L27.991,24.874C27.775,24.802 27.536,24.764 27.275,24.764C26.929,24.764 26.647,24.836 26.433,24.976C26.217,25.116 26.11,25.305 26.11,25.54C26.11,25.763 26.21,25.941 26.411,26.074C26.613,26.207 26.877,26.274 27.204,26.274C27.508,26.274 27.768,26.232 27.991,26.151L27.991,26.359Z" style="fill-rule:nonzero;"/>
        <path d="M14.186,26.499C13.824,26.499 13.533,26.414 13.315,26.242C13.095,26.072 12.987,25.849 12.987,25.573C12.987,25.278 13.097,25.042 13.32,24.867C13.544,24.691 13.847,24.604 14.231,24.604C14.585,24.604 14.868,24.689 15.086,24.859C15.302,25.03 15.409,25.253 15.409,25.529C15.409,25.829 15.299,26.064 15.077,26.239C14.856,26.413 14.56,26.499 14.186,26.499ZM14.21,24.798C13.94,24.798 13.72,24.867 13.553,25.006C13.385,25.145 13.301,25.328 13.301,25.554C13.301,25.781 13.383,25.963 13.547,26.101C13.71,26.237 13.924,26.306 14.186,26.306C14.468,26.306 14.69,26.241 14.852,26.109C15.013,25.978 15.095,25.793 15.095,25.558C15.095,25.316 15.017,25.129 14.859,24.996C14.702,24.864 14.485,24.798 14.21,24.798Z" style="fill-rule:nonzero;"/>
        <path d="M17.697,26.469L17.279,26.469L16.29,25.629C16.252,25.598 16.229,25.577 16.22,25.565L16.213,25.565L16.213,26.469L15.913,26.469L15.913,24.634L16.213,24.634L16.213,25.496L16.22,25.496C16.238,25.478 16.261,25.457 16.29,25.434L17.247,24.634L17.62,24.634L16.522,25.515L17.697,26.469Z" style="fill-rule:nonzero;"/>
    </g>
    <path d="M0.619,21C30.079,21 19.619,21 19.619,21L30.119,21L0.119,21" style="fill:none;stroke:black;stroke-width:0.23px;stroke-linecap:round;stroke-linejoin:round;stroke-miterlimit:1.5;"/>
    <rect x="2.506" y="9.5" width="5.994" height="1.135" style="fill:rgb(64,64,64);stroke:rgb(64,64,64);stroke-width:0.48px;stroke-linecap:square;stroke-miterlimit:1.5;"/>
    <rect x="10.506" y="9.5" width="12.283" height="1.135" style="fill:rgb(64,64,64);stroke:rgb(64,64,64);stroke-width:0.48px;stroke-linecap:square;stroke-miterlimit:1.5;"/>
    <rect x="2.506" y="13.5" width="13.592" height="1" style="fill:rgb(64,64,64);stroke:rgb(64,64,64);stroke-width:0.48px;stroke-linecap:square;stroke-miterlimit:1.5;"/>
    <rect x="2.506" y="16.5" width="13.592" height="1" style="fill:rgb(64,64,64);stroke:rgb(64,64,64);stroke-width:0.48px;stroke-linecap:square;stroke-miterlimit:1.5;"/>
    <defs>
        <linearGradient id="_Linear1" x1="0" y1="0" x2="1" y2="0" gradientUnits="userSpaceOnUse" gradientTransform="matrix(1.83698e-15,-30.0001,30.0001,1.83698e-15,15.024,30)"><stop offset="0" style="stop-color:rgb(62,77,151);stop-opacity:1"/><stop offset="0.11" style="stop-color:rgb(39,68,146);stop-opacity:1"/><stop offset="0.2" style="stop-color:rgb(21,64,143);stop-opacity:1"/><stop offset="0.25" style="stop-color:rgb(26,67,145);stop-opacity:1"/><stop offset="0.4" style="stop-color:rgb(35,74,149);stop-opacity:1"/><stop offset="0.71" style="stop-color:rgb(33,81,154);stop-opacity:1"/><stop offset="0.77" style="stop-color:rgb(33,82,155);stop-opacity:1"/><stop offset="0.81" style="stop-color:rgb(35,83,156);stop-opacity:1"/><stop offset="0.85" style="stop-color:rgb(59,96,165);stop-opacity:1"/><stop offset="0.89" style="stop-color:rgb(44,88,159);stop-opacity:1"/><stop offset="0.94" style="stop-color:rgb(77,108,172);stop-opacity:1"/><stop offset="0.98" style="stop-color:rgb(97,125,183);stop-opacity:1"/><stop offset="0.99" style="stop-color:rgb(123,150,199);stop-opacity:1"/><stop offset="1" style="stop-color:rgb(154,178,217);stop-opacity:1"/><stop offset="1" style="stop-color:rgb(155,179,217);stop-opacity:1"/></linearGradient>
    </defs>
</svg>
