<?xml version="1.0" encoding="UTF-8" standalone="no"?>
<!DOCTYPE svg PUBLIC "-//W3C//DTD SVG 1.1//EN" "http://www.w3.org/Graphics/SVG/1.1/DTD/svg11.dtd">
<svg width="30px" height="30px" version="1.1" xmlns="http://www.w3.org/2000/svg" xmlns:xlink="http://www.w3.org/1999/xlink" xml:space="preserve" xmlns:serif="http://www.serif.com/" style="fill-rule:evenodd;clip-rule:evenodd;">
    <g id="window">
        <path d="M30,29.532C30,29.79 29.87,30 29.71,30L0.338,30C0.178,30 0.048,29.79 0.048,29.532L0.048,0.468C0.048,0.21 0.178,0 0.338,0L29.71,0C29.87,0 30,0.21 30,0.468L30,29.532Z" style="fill:url(#_Linear1);fill-rule:nonzero;stroke:rgb(7,0,1);stroke-width:0.06px;"/>
        <rect x="0.435" y="6.272" width="29.179" height="23.26" style="fill:rgb(204,204,204);stroke:rgb(35,24,21);stroke-width:0.12px;"/>
        <path d="M29.024,4.974L28.456,4.974L27.541,3.449C27.514,3.402 27.483,3.337 27.45,3.251L27.439,3.251C27.42,3.294 27.389,3.36 27.345,3.449L26.402,4.974L25.832,4.974L27.162,2.971L25.937,0.99L26.508,0.99L27.32,2.39C27.373,2.483 27.42,2.575 27.461,2.668L27.472,2.668C27.531,2.546 27.583,2.449 27.627,2.379L28.473,0.99L29.007,0.99L27.758,2.965L29.024,4.974Z" style="fill:white;fill-rule:nonzero;"/>
        <path d="M2.063,4.269L0.67,4.269L0.67,0.964L0.984,0.964L0.984,3.919L2.063,3.919L2.063,4.269Z" style="fill-rule:nonzero;"/>
        <path d="M3.236,4.324C2.952,4.324 2.726,4.214 2.557,3.994C2.388,3.773 2.303,3.481 2.303,3.117C2.303,2.72 2.391,2.41 2.567,2.188C2.743,1.965 2.981,1.853 3.281,1.853C3.567,1.853 3.79,1.962 3.95,2.178C4.111,2.395 4.191,2.695 4.191,3.08C4.191,3.456 4.105,3.758 3.932,3.984C3.759,4.211 3.527,4.324 3.236,4.324ZM3.258,2.171C3.061,2.171 2.905,2.254 2.79,2.419C2.675,2.584 2.618,2.812 2.618,3.103C2.618,3.382 2.676,3.603 2.792,3.764C2.908,3.926 3.064,4.006 3.258,4.006C3.457,4.006 3.61,3.927 3.716,3.769C3.823,3.611 3.876,3.385 3.876,3.093C3.876,2.798 3.823,2.571 3.716,2.411C3.61,2.251 3.457,2.171 3.258,2.171Z" style="fill-rule:nonzero;"/>
        <path d="M5.682,2.291C5.629,2.241 5.551,2.215 5.45,2.215C5.319,2.215 5.209,2.291 5.121,2.443C5.033,2.596 4.989,2.803 4.989,3.066L4.989,4.269L4.682,4.269L4.682,1.909L4.989,1.909L4.989,2.395L4.997,2.395C5.04,2.229 5.107,2.1 5.197,2.007C5.287,1.914 5.388,1.867 5.499,1.867C5.579,1.867 5.64,1.878 5.682,1.899L5.682,2.291Z" style="fill-rule:nonzero;"/>
        <path d="M7.557,3.183L6.203,3.183C6.208,3.446 6.265,3.649 6.375,3.792C6.485,3.935 6.636,4.006 6.829,4.006C7.045,4.006 7.243,3.919 7.424,3.744L7.424,4.098C7.256,4.249 7.033,4.324 6.756,4.324C6.485,4.324 6.272,4.217 6.117,4.003C5.962,3.788 5.885,3.487 5.885,3.098C5.885,2.731 5.969,2.431 6.138,2.2C6.308,1.969 6.518,1.853 6.769,1.853C7.02,1.853 7.214,1.953 7.351,2.153C7.489,2.353 7.557,2.63 7.557,2.985L7.557,3.183ZM7.243,2.863C7.241,2.645 7.199,2.475 7.114,2.354C7.03,2.232 6.913,2.171 6.763,2.171C6.618,2.171 6.495,2.235 6.394,2.363C6.293,2.49 6.23,2.657 6.207,2.863L7.243,2.863Z" style="fill-rule:nonzero;"/>
        <path d="M10.745,4.269L10.438,4.269L10.438,2.914C10.438,2.652 10.406,2.463 10.34,2.347C10.274,2.23 10.164,2.171 10.009,2.171C9.878,2.171 9.767,2.245 9.675,2.393C9.583,2.54 9.537,2.717 9.537,2.923L9.537,4.269L9.23,4.269L9.23,2.868C9.23,2.403 9.085,2.171 8.794,2.171C8.659,2.171 8.548,2.241 8.46,2.38C8.373,2.519 8.329,2.7 8.329,2.923L8.329,4.269L8.022,4.269L8.022,1.909L8.329,1.909L8.329,2.282L8.337,2.282C8.473,1.996 8.671,1.853 8.932,1.853C9.063,1.853 9.178,1.898 9.275,1.988C9.372,2.078 9.439,2.196 9.475,2.342C9.618,2.016 9.83,1.853 10.112,1.853C10.534,1.853 10.745,2.174 10.745,2.815L10.745,4.269Z" style="fill-rule:nonzero;"/>
        <rect x="12.418" y="0.964" width="0.315" height="3.306"/>
        <path d="M13.713,3.928L13.705,3.928L13.705,5.355L13.398,5.355L13.398,1.909L13.705,1.909L13.705,2.324L13.713,2.324C13.864,2.01 14.085,1.853 14.376,1.853C14.623,1.853 14.816,1.959 14.955,2.17C15.093,2.382 15.162,2.665 15.162,3.02C15.162,3.415 15.084,3.731 14.928,3.968C14.772,4.206 14.559,4.324 14.288,4.324C14.039,4.324 13.847,4.192 13.713,3.928ZM13.705,2.976L13.705,3.306C13.705,3.501 13.757,3.666 13.86,3.802C13.963,3.938 14.094,4.006 14.252,4.006C14.438,4.006 14.584,3.919 14.689,3.744C14.795,3.568 14.848,3.325 14.848,3.013C14.848,2.75 14.798,2.544 14.7,2.395C14.601,2.246 14.468,2.171 14.299,2.171C14.12,2.171 13.977,2.248 13.868,2.401C13.759,2.554 13.705,2.745 13.705,2.976Z" style="fill-rule:nonzero;"/>
        <path d="M15.537,4.184L15.537,3.778C15.704,3.93 15.889,4.006 16.09,4.006C16.359,4.006 16.494,3.896 16.494,3.674C16.494,3.611 16.483,3.558 16.46,3.514C16.437,3.47 16.405,3.432 16.366,3.398C16.327,3.364 16.28,3.334 16.227,3.307C16.174,3.28 16.117,3.252 16.056,3.223C15.971,3.181 15.896,3.139 15.832,3.097C15.768,3.055 15.714,3.007 15.671,2.954C15.628,2.901 15.595,2.841 15.574,2.773C15.552,2.705 15.541,2.626 15.541,2.536C15.541,2.425 15.561,2.327 15.603,2.242C15.644,2.156 15.699,2.085 15.768,2.027C15.836,1.97 15.915,1.926 16.003,1.897C16.091,1.868 16.181,1.853 16.275,1.853C16.441,1.853 16.59,1.889 16.721,1.959L16.721,2.342C16.58,2.228 16.418,2.171 16.234,2.171C16.176,2.171 16.125,2.179 16.078,2.196C16.032,2.212 15.993,2.234 15.96,2.264C15.926,2.293 15.901,2.328 15.883,2.368C15.865,2.409 15.856,2.454 15.856,2.503C15.856,2.565 15.865,2.616 15.883,2.658C15.901,2.699 15.927,2.736 15.962,2.768C15.997,2.801 16.04,2.83 16.09,2.856C16.14,2.882 16.196,2.911 16.26,2.941C16.345,2.981 16.421,3.022 16.489,3.065C16.556,3.107 16.614,3.155 16.661,3.208C16.708,3.261 16.745,3.322 16.771,3.391C16.796,3.46 16.809,3.542 16.809,3.637C16.809,3.754 16.788,3.856 16.746,3.942C16.704,4.028 16.649,4.099 16.579,4.156C16.509,4.213 16.428,4.255 16.337,4.283C16.246,4.311 16.15,4.324 16.05,4.324C15.853,4.324 15.682,4.278 15.537,4.184Z" style="fill-rule:nonzero;"/>
        <path d="M18.832,4.269L18.525,4.269L18.525,3.896L18.517,3.896C18.39,4.181 18.193,4.324 17.925,4.324C17.468,4.324 17.24,3.989 17.24,3.319L17.24,1.909L17.545,1.909L17.545,3.259C17.545,3.757 17.7,4.006 18.01,4.006C18.16,4.006 18.283,3.938 18.38,3.802C18.476,3.666 18.525,3.488 18.525,3.269L18.525,1.909L18.832,1.909L18.832,4.269Z" style="fill-rule:nonzero;"/>
        <path d="M22.176,4.269L21.869,4.269L21.869,2.914C21.869,2.652 21.836,2.463 21.77,2.347C21.705,2.23 21.594,2.171 21.44,2.171C21.308,2.171 21.197,2.245 21.105,2.393C21.013,2.54 20.968,2.717 20.968,2.923L20.968,4.269L20.66,4.269L20.66,2.868C20.66,2.403 20.515,2.171 20.224,2.171C20.089,2.171 19.978,2.241 19.89,2.38C19.803,2.519 19.759,2.7 19.759,2.923L19.759,4.269L19.452,4.269L19.452,1.909L19.759,1.909L19.759,2.282L19.767,2.282C19.903,1.996 20.101,1.853 20.362,1.853C20.494,1.853 20.608,1.898 20.705,1.988C20.803,2.078 20.869,2.196 20.906,2.342C21.048,2.016 21.26,1.853 21.543,1.853C21.965,1.853 22.176,2.174 22.176,2.815L22.176,4.269Z" style="fill-rule:nonzero;"/>
        <path d="M24.264,1.909L23.5,4.269L23.198,4.269L22.472,1.909L22.809,1.909L23.296,3.624C23.332,3.75 23.355,3.86 23.363,3.953L23.371,3.953C23.383,3.835 23.403,3.728 23.431,3.633L23.94,1.909L24.264,1.909Z" style="fill-rule:nonzero;"/>
    </g>
    <g id="ok-cancel">
        <g id="button">
            <rect x="23.115" y="24" width="4.385" height="4.019" style="fill:none;stroke:rgb(136,136,136);stroke-width:0.47px;stroke-linejoin:round;"/>
            <rect x="23.115" y="24" width="4.385" height="4.019" style="fill:rgb(221,221,221);"/>
            <rect x="23.272" y="24.287" width="4.071" height="3.445" style="fill:white;"/>
        </g>
        <g id="button1" serif:id="button">
            <rect x="18" y="24" width="4.385" height="4.019" style="fill:none;stroke:rgb(136,136,136);stroke-width:0.47px;stroke-linejoin:round;"/>
            <rect x="18" y="24" width="4.385" height="4.019" style="fill:rgb(221,221,221);"/>
            <rect x="18.157" y="24.287" width="4.071" height="3.445" style="fill:white;"/>
        </g>
        <path d="M24.377,26.74L23.481,26.74L23.481,25.277L24.339,25.277L24.339,25.432L23.679,25.432L23.679,25.919L24.289,25.919L24.289,26.073L23.679,26.073L23.679,26.585L24.377,26.585L24.377,26.74Z" style="fill-rule:nonzero;"/>
        <path d="M24.623,26.681L24.623,26.479C24.65,26.5 24.682,26.518 24.719,26.534C24.756,26.55 24.795,26.564 24.837,26.576C24.878,26.587 24.92,26.595 24.961,26.602C25.003,26.608 25.041,26.611 25.077,26.611C25.198,26.611 25.289,26.591 25.35,26.552C25.41,26.513 25.44,26.457 25.44,26.383C25.44,26.344 25.43,26.309 25.41,26.28C25.39,26.251 25.362,26.224 25.327,26.2C25.291,26.176 25.249,26.153 25.201,26.131C25.153,26.109 25.101,26.085 25.045,26.061C24.986,26.035 24.931,26.009 24.88,25.982C24.829,25.956 24.784,25.926 24.747,25.895C24.709,25.862 24.679,25.826 24.658,25.786C24.636,25.745 24.625,25.698 24.625,25.643C24.625,25.577 24.642,25.519 24.676,25.469C24.71,25.42 24.754,25.379 24.809,25.347C24.864,25.315 24.927,25.292 24.997,25.276C25.067,25.26 25.139,25.253 25.212,25.253C25.379,25.253 25.5,25.27 25.576,25.304L25.576,25.497C25.477,25.437 25.349,25.407 25.192,25.407C25.149,25.407 25.106,25.411 25.063,25.419C25.019,25.427 24.981,25.44 24.947,25.458C24.913,25.475 24.886,25.498 24.864,25.526C24.843,25.554 24.833,25.588 24.833,25.628C24.833,25.665 24.841,25.698 24.857,25.725C24.873,25.752 24.897,25.777 24.928,25.8C24.959,25.822 24.998,25.844 25.043,25.865C25.088,25.886 25.14,25.909 25.199,25.934C25.26,25.96 25.317,25.987 25.371,26.016C25.426,26.044 25.473,26.076 25.514,26.111C25.555,26.146 25.587,26.184 25.611,26.226C25.635,26.268 25.647,26.317 25.647,26.371C25.647,26.443 25.631,26.504 25.598,26.554C25.566,26.604 25.521,26.645 25.466,26.676C25.411,26.708 25.347,26.73 25.275,26.744C25.202,26.758 25.126,26.765 25.046,26.765C25.019,26.765 24.986,26.763 24.947,26.759C24.908,26.755 24.868,26.75 24.827,26.743C24.786,26.736 24.747,26.727 24.711,26.716C24.674,26.706 24.645,26.694 24.623,26.681Z" style="fill-rule:nonzero;"/>
        <path d="M27.135,26.679C27.01,26.736 26.854,26.765 26.668,26.765C26.428,26.765 26.235,26.698 26.09,26.564C25.946,26.43 25.873,26.254 25.873,26.036C25.873,25.802 25.955,25.613 26.117,25.469C26.28,25.325 26.486,25.253 26.736,25.253C26.896,25.253 27.029,25.273 27.135,25.312L27.135,25.495C27.014,25.437 26.88,25.407 26.734,25.407C26.54,25.407 26.382,25.464 26.262,25.576C26.141,25.688 26.081,25.838 26.081,26.026C26.081,26.204 26.137,26.346 26.25,26.452C26.363,26.558 26.511,26.611 26.694,26.611C26.864,26.611 27.01,26.578 27.135,26.513L27.135,26.679Z" style="fill-rule:nonzero;"/>
        <path d="M19.403,26.791C19.2,26.791 19.037,26.723 18.915,26.586C18.792,26.45 18.731,26.272 18.731,26.052C18.731,25.817 18.793,25.629 18.918,25.489C19.043,25.349 19.213,25.279 19.428,25.279C19.626,25.279 19.785,25.347 19.907,25.483C20.028,25.619 20.088,25.797 20.088,26.017C20.088,26.256 20.026,26.444 19.902,26.583C19.778,26.722 19.612,26.791 19.403,26.791ZM19.416,25.434C19.265,25.434 19.142,25.489 19.048,25.6C18.954,25.711 18.907,25.857 18.907,26.037C18.907,26.218 18.953,26.363 19.045,26.473C19.136,26.582 19.256,26.637 19.403,26.637C19.561,26.637 19.685,26.585 19.776,26.48C19.866,26.375 19.912,26.228 19.912,26.04C19.912,25.847 19.868,25.698 19.78,25.592C19.692,25.487 19.57,25.434 19.416,25.434Z" style="fill-rule:nonzero;"/>
        <path d="M21.369,26.767L21.135,26.767L20.581,26.097C20.56,26.072 20.547,26.055 20.542,26.046L20.538,26.046L20.538,26.767L20.37,26.767L20.37,25.303L20.538,25.303L20.538,25.991L20.542,25.991C20.552,25.976 20.565,25.96 20.581,25.941L21.117,25.303L21.326,25.303L20.711,26.006L21.369,26.767Z" style="fill-rule:nonzero;"/>
    </g>
    <path d="M0.5,22.5C29.96,22.5 19.5,22.5 19.5,22.5L30,22.5L0,22.5" style="fill:none;stroke:black;stroke-width:0.05px;stroke-linecap:round;stroke-linejoin:round;stroke-miterlimit:1.5;"/>
    <path d="M2.066,8.813C2.066,8.364 2.649,8 3.367,8L26.699,8C27.417,8 28,8.364 28,8.813L28,12.604C28,13.053 27.417,13.417 26.699,13.417L3.367,13.417C2.649,13.417 2.066,13.053 2.066,12.604L2.066,8.813ZM4.667,9.625L4.667,11.792L25.399,11.792L25.399,9.625L4.667,9.625Z" style="fill:rgb(77,77,77);fill-rule:nonzero;"/>
    <path d="M2.066,16.396C2.066,15.947 2.649,15.583 3.367,15.583L13.729,15.583C14.447,15.583 15.03,15.947 15.03,16.396C15.03,16.844 14.447,17.208 13.729,17.208L3.367,17.208C2.649,17.208 2.066,16.844 2.066,16.396Z" style="fill:rgb(89,89,89);fill-rule:nonzero;"/>
    <path d="M3.367,19.375C2.649,19.375 2.066,19.739 2.066,20.188C2.066,20.636 2.649,21 3.367,21L13.729,21C14.447,21 15.03,20.636 15.03,20.188C15.03,19.739 14.447,19.375 13.729,19.375L3.367,19.375Z" style="fill:rgb(89,89,89);fill-rule:nonzero;"/>
    <defs>
        <linearGradient id="_Linear1" x1="0" y1="0" x2="1" y2="0" gradientUnits="userSpaceOnUse" gradientTransform="matrix(1.83698e-15,-30.0001,30.0001,1.83698e-15,15.024,30)"><stop offset="0" style="stop-color:rgb(62,77,151);stop-opacity:1"/><stop offset="0.11" style="stop-color:rgb(39,68,146);stop-opacity:1"/><stop offset="0.2" style="stop-color:rgb(21,64,143);stop-opacity:1"/><stop offset="0.25" style="stop-color:rgb(26,67,145);stop-opacity:1"/><stop offset="0.4" style="stop-color:rgb(35,74,149);stop-opacity:1"/><stop offset="0.71" style="stop-color:rgb(33,81,154);stop-opacity:1"/><stop offset="0.77" style="stop-color:rgb(33,82,155);stop-opacity:1"/><stop offset="0.81" style="stop-color:rgb(35,83,156);stop-opacity:1"/><stop offset="0.85" style="stop-color:rgb(59,96,165);stop-opacity:1"/><stop offset="0.89" style="stop-color:rgb(44,88,159);stop-opacity:1"/><stop offset="0.94" style="stop-color:rgb(77,108,172);stop-opacity:1"/><stop offset="0.98" style="stop-color:rgb(97,125,183);stop-opacity:1"/><stop offset="0.99" style="stop-color:rgb(123,150,199);stop-opacity:1"/><stop offset="1" style="stop-color:rgb(154,178,217);stop-opacity:1"/><stop offset="1" style="stop-color:rgb(155,179,217);stop-opacity:1"/></linearGradient>
    </defs>
</svg>
