<?xml version="1.0" encoding="UTF-8" standalone="no"?>
<!DOCTYPE svg PUBLIC "-//W3C//DTD SVG 1.1//EN" "http://www.w3.org/Graphics/SVG/1.1/DTD/svg11.dtd">
<svg width="30px" height="30px" version="1.1" xmlns="http://www.w3.org/2000/svg" xmlns:xlink="http://www.w3.org/1999/xlink" xml:space="preserve" xmlns:serif="http://www.serif.com/" style="fill-rule:evenodd;clip-rule:evenodd;stroke-linecap:round;stroke-linejoin:round;stroke-miterlimit:2;">
    <rect id="outer" x="0" y="0" width="30" height="30" style="fill:white;stroke:rgb(128,128,128);stroke-width:1px;"/>
    <rect x="0.745" y="0.748" width="28.51" height="5.252" style="fill:rgb(235,235,235);stroke:rgb(191,191,191);stroke-width:0.5px;stroke-linecap:square;stroke-linejoin:miter;stroke-miterlimit:1.5;"/>
    <path id="arrow" d="M24.028,2.729L24.914,3.815L23.734,3.103L23.719,5.561L22.298,5.549L22.313,3.091L21.718,3.437L21.124,3.784L22.006,2.73L22.763,1.757L23.033,1.364L23.294,1.727L24.028,2.728L24.028,2.729Z" style="fill:rgb(68,170,0);fill-rule:nonzero;"/>
    <path id="arrow1" serif:id="arrow" d="M25.995,4.195L25.11,3.11L26.29,3.821L26.305,1.364L27.726,1.375L27.711,3.834L28.305,3.487L28.899,3.141L28.017,4.195L27.26,5.167L26.99,5.561L26.729,5.197L25.995,4.196L25.995,4.195Z" style="fill:rgb(68,170,0);fill-rule:nonzero;"/>
    <path d="M20.621,5.36L20.055,5.36L19.143,3.884C19.116,3.838 19.085,3.775 19.053,3.692L19.042,3.692C19.023,3.734 18.992,3.798 18.948,3.884L18.008,5.36L17.44,5.36L18.766,3.421L17.545,1.503L18.114,1.503L18.923,2.858C18.976,2.948 19.023,3.038 19.063,3.128L19.074,3.128C19.133,3.009 19.185,2.916 19.229,2.848L20.072,1.503L20.604,1.503L19.359,3.415L20.621,5.36Z" style="fill:rgb(229,65,69);fill-rule:nonzero;"/>
    <g id="Text">
        <g id="g2334">
            <g id="Base">
                <path id="path2236" d="M13.578,1.661L15.296,1.659C15.296,1.659 16.049,2.474 16.049,2.528L16.049,5.054C16.049,5.108 16.012,5.152 15.965,5.152L13.578,5.152C13.532,5.152 13.494,5.108 13.494,5.054L13.494,1.759C13.494,1.704 13.532,1.661 13.578,1.661Z" style="fill:white;fill-rule:nonzero;"/>
                <path id="path2238" d="M13.583,1.741L15.405,1.741C15.405,1.741 15.973,2.425 15.973,2.432L15.973,5.051C15.973,5.058 15.968,5.063 15.962,5.063L13.583,5.063C13.577,5.063 13.572,5.058 13.572,5.051L13.572,1.753C13.572,1.746 13.577,1.741 13.583,1.741Z" style="fill:none;fill-rule:nonzero;stroke:url(#_Radial1);stroke-width:0.08px;stroke-miterlimit:4;"/>
            </g>
            <path id="path2242" d="M16.013,2.532C15.96,2.417 15.566,2.214 15.361,2.146C15.373,2.28 15.352,2.685 15.352,2.685C15.503,2.567 15.956,2.518 16.013,2.532Z" style="fill:url(#_Radial2);"/>
            <path id="path2244" d="M16.044,2.522C16.045,2.401 15.579,1.651 15.294,1.66C15.366,1.68 15.423,2.186 15.321,2.426C15.522,2.426 15.974,2.363 16.044,2.522Z" style="fill:url(#_Radial3);fill-rule:nonzero;stroke:url(#_Radial4);stroke-width:0.08px;stroke-linecap:butt;stroke-miterlimit:4;"/>
            <path id="path2246" d="M15.876,2.338C15.823,2.223 15.572,1.906 15.431,1.8C15.449,1.922 15.47,2.114 15.425,2.333C15.425,2.333 15.819,2.324 15.876,2.338Z" style="fill:none;stroke:url(#_Linear5);stroke-width:0.08px;stroke-linecap:butt;stroke-linejoin:miter;stroke-miterlimit:4;"/>
        </g>
        <path id="rect2870" d="M15.062,2.416C15.062,2.44 15.025,2.459 14.979,2.459L13.848,2.459C13.802,2.459 13.765,2.44 13.765,2.416C13.765,2.393 13.802,2.373 13.848,2.373L14.979,2.373C15.025,2.373 15.062,2.393 15.062,2.416Z" style="fill:rgb(128,128,128);"/>
        <path id="rect2874" d="M15.794,2.928C15.794,2.951 15.778,2.971 15.757,2.971L13.781,2.971C13.76,2.971 13.743,2.951 13.743,2.928C13.743,2.904 13.76,2.885 13.781,2.885L15.757,2.885C15.778,2.885 15.794,2.904 15.794,2.928Z" style="fill:rgb(128,128,128);"/>
        <path id="rect2890" d="M15.794,3.184C15.794,3.207 15.778,3.227 15.757,3.227L13.781,3.227C13.76,3.227 13.743,3.207 13.743,3.184C13.743,3.16 13.76,3.141 13.781,3.141L15.757,3.141C15.778,3.141 15.794,3.16 15.794,3.184Z" style="fill:rgb(128,128,128);"/>
        <path id="rect2892" d="M15.794,3.44C15.794,3.463 15.778,3.482 15.757,3.482L13.781,3.482C13.76,3.482 13.743,3.463 13.743,3.44C13.743,3.416 13.76,3.397 13.781,3.397L15.757,3.397C15.778,3.397 15.794,3.416 15.794,3.44Z" style="fill:rgb(128,128,128);"/>
        <path id="rect2894" d="M15.794,3.952C15.794,3.975 15.778,3.994 15.757,3.994L13.781,3.994C13.76,3.994 13.743,3.975 13.743,3.952C13.743,3.928 13.76,3.909 13.781,3.909L15.757,3.909C15.778,3.909 15.794,3.928 15.794,3.952Z" style="fill:rgb(128,128,128);"/>
        <path id="rect2898" d="M15.794,4.208C15.794,4.231 15.778,4.25 15.757,4.25L13.781,4.25C13.76,4.25 13.743,4.231 13.743,4.208C13.743,4.184 13.76,4.165 13.781,4.165L15.757,4.165C15.778,4.165 15.794,4.184 15.794,4.208Z" style="fill:rgb(128,128,128);"/>
        <path id="rect28981" serif:id="rect2898" d="M15.794,4.569C15.794,4.592 15.778,4.612 15.757,4.612L13.781,4.612C13.76,4.612 13.743,4.592 13.743,4.569C13.743,4.545 13.76,4.526 13.781,4.526L15.757,4.526C15.778,4.526 15.794,4.545 15.794,4.569Z" style="fill:rgb(128,128,128);"/>
        <path id="rect28982" serif:id="rect2898" d="M15.794,4.93C15.794,4.954 15.778,4.973 15.757,4.973L13.781,4.973C13.76,4.973 13.743,4.954 13.743,4.93C13.743,4.907 13.76,4.888 13.781,4.888L15.757,4.888C15.778,4.888 15.794,4.907 15.794,4.93Z" style="fill:rgb(128,128,128);"/>
        <path id="rect1984" d="M15.794,3.696C15.794,3.719 15.778,3.739 15.757,3.739L13.781,3.739C13.76,3.739 13.743,3.719 13.743,3.696C13.743,3.672 13.76,3.653 13.781,3.653L15.757,3.653C15.778,3.653 15.794,3.672 15.794,3.696Z" style="fill:rgb(128,128,128);"/>
        <path id="rect1986" d="M15.062,2.16C15.062,2.184 15.024,2.203 14.977,2.203L13.828,2.203C13.781,2.203 13.743,2.184 13.743,2.16C13.743,2.137 13.781,2.118 13.828,2.118L14.977,2.118C15.024,2.118 15.062,2.137 15.062,2.16Z" style="fill:rgb(128,128,128);"/>
        <path id="rect1988" d="M15.062,2.672C15.062,2.696 15.025,2.715 14.979,2.715L13.859,2.715C13.813,2.715 13.777,2.696 13.777,2.672C13.777,2.648 13.813,2.629 13.859,2.629L14.979,2.629C15.025,2.629 15.062,2.648 15.062,2.672Z" style="fill:rgb(128,128,128);"/>
        <rect id="outer1" serif:id="outer" x="13.181" y="1.599" width="3.181" height="3.613" style="fill:none;stroke:rgb(128,128,128);stroke-width:0.2px;stroke-linecap:butt;"/>
        <g id="cursor">
            <g id="cursor1" serif:id="cursor">
                <rect id="rect3789" x="10.36" y="2.359" width="0.379" height="2.095" style="fill:rgb(128,128,128);"/>
                <rect id="rect3791" x="9.981" y="4.454" width="1.138" height="0.698" style="fill:rgb(128,128,128);"/>
                <rect id="rect3795" x="9.981" y="1.66" width="1.138" height="0.698" style="fill:rgb(128,128,128);"/>
            </g>
            <rect id="rect37891" serif:id="rect3789" x="10.276" y="2.192" width="0.379" height="2.095"/>
            <rect id="rect37911" serif:id="rect3791" x="9.897" y="4.286" width="1.138" height="0.698"/>
            <rect id="rect37951" serif:id="rect3795" x="9.897" y="1.493" width="1.138" height="0.698"/>
        </g>
        <g id="ae">
            <path d="M9.807,4.635L9.559,4.635L9.559,4.228L9.553,4.228C9.445,4.54 9.287,4.696 9.077,4.696C8.923,4.696 8.802,4.627 8.715,4.49C8.628,4.353 8.584,4.171 8.584,3.944C8.584,3.458 8.755,3.175 9.095,3.095L9.559,2.986C9.559,2.544 9.453,2.323 9.24,2.323C9.054,2.323 8.886,2.43 8.735,2.643L8.735,2.217C8.888,2.054 9.063,1.973 9.261,1.973C9.625,1.973 9.807,2.296 9.807,2.943L9.807,4.635ZM9.559,3.319L9.186,3.405C9.071,3.432 8.984,3.48 8.926,3.549C8.867,3.617 8.838,3.739 8.838,3.913C8.838,4.04 8.865,4.144 8.919,4.224C8.973,4.305 9.045,4.345 9.135,4.345C9.257,4.345 9.359,4.273 9.439,4.128C9.519,3.983 9.559,3.8 9.559,3.578L9.559,3.319Z" style="fill-rule:nonzero;"/>
            <path d="M12.688,3.438L11.595,3.438C11.599,3.728 11.646,3.951 11.734,4.109C11.823,4.266 11.945,4.345 12.1,4.345C12.274,4.345 12.435,4.249 12.581,4.056L12.581,4.447C12.445,4.613 12.265,4.696 12.041,4.696C11.822,4.696 11.651,4.578 11.526,4.341C11.401,4.105 11.338,3.773 11.338,3.344C11.338,2.94 11.407,2.61 11.543,2.355C11.68,2.1 11.849,1.973 12.052,1.973C12.254,1.973 12.411,2.083 12.522,2.303C12.633,2.523 12.688,2.829 12.688,3.22L12.688,3.438ZM12.434,3.085C12.433,2.845 12.399,2.658 12.331,2.524C12.263,2.39 12.168,2.323 12.047,2.323C11.93,2.323 11.831,2.394 11.749,2.534C11.668,2.675 11.617,2.858 11.598,3.085L12.434,3.085Z" style="fill-rule:nonzero;"/>
        </g>
        <path d="M16.6,2.432C16.6,3.217 16.023,3.863 15.322,3.863C14.622,3.863 14.045,3.217 14.045,2.432C14.045,1.647 14.622,1.001 15.322,1.001C16.023,1.001 16.6,1.647 16.6,2.432Z" style="fill:url(#_Radial6);fill-rule:nonzero;"/>
        <path d="M2.394,10.297L1,10.297L1,7L1.315,7L1.315,9.948L2.394,9.948L2.394,10.297Z" style="fill-rule:nonzero;"/>
        <path d="M3.566,10.352C3.283,10.352 3.056,10.242 2.887,10.022C2.718,9.802 2.633,9.511 2.633,9.147C2.633,8.752 2.721,8.443 2.898,8.221C3.074,7.999 3.312,7.887 3.611,7.887C3.897,7.887 4.12,7.996 4.281,8.212C4.441,8.428 4.522,8.727 4.522,9.111C4.522,9.486 4.435,9.787 4.262,10.013C4.089,10.239 3.857,10.352 3.566,10.352ZM3.589,8.205C3.391,8.205 3.235,8.287 3.12,8.452C3.006,8.617 2.948,8.844 2.948,9.134C2.948,9.413 3.006,9.633 3.122,9.793C3.238,9.954 3.394,10.035 3.589,10.035C3.787,10.035 3.94,9.956 4.047,9.798C4.154,9.64 4.207,9.416 4.207,9.124C4.207,8.83 4.154,8.603 4.047,8.444C3.94,8.284 3.787,8.205 3.589,8.205Z" style="fill-rule:nonzero;"/>
        <path d="M6.013,8.324C5.959,8.274 5.882,8.248 5.78,8.248C5.649,8.248 5.54,8.324 5.452,8.476C5.364,8.628 5.32,8.835 5.32,9.097L5.32,10.297L5.012,10.297L5.012,7.943L5.32,7.943L5.32,8.428L5.327,8.428C5.371,8.262 5.438,8.133 5.528,8.04C5.617,7.948 5.718,7.901 5.829,7.901C5.909,7.901 5.97,7.912 6.013,7.933L6.013,8.324Z" style="fill-rule:nonzero;"/>
        <path d="M7.888,9.214L6.533,9.214C6.538,9.476 6.596,9.679 6.706,9.821C6.816,9.964 6.967,10.035 7.159,10.035C7.375,10.035 7.574,9.948 7.755,9.773L7.755,10.127C7.586,10.277 7.363,10.352 7.086,10.352C6.815,10.352 6.602,10.245 6.447,10.031C6.292,9.818 6.215,9.517 6.215,9.129C6.215,8.763 6.3,8.464 6.469,8.233C6.638,8.003 6.848,7.887 7.099,7.887C7.35,7.887 7.544,7.987 7.682,8.186C7.819,8.386 7.888,8.662 7.888,9.016L7.888,9.214ZM7.573,8.894C7.572,8.677 7.529,8.507 7.445,8.386C7.36,8.265 7.243,8.205 7.093,8.205C6.949,8.205 6.826,8.268 6.724,8.396C6.623,8.523 6.561,8.689 6.537,8.894L7.573,8.894Z" style="fill-rule:nonzero;"/>
        <path d="M11.076,10.297L10.769,10.297L10.769,8.945C10.769,8.685 10.736,8.496 10.67,8.379C10.605,8.263 10.495,8.205 10.34,8.205C10.209,8.205 10.097,8.278 10.005,8.425C9.914,8.573 9.868,8.749 9.868,8.954L9.868,10.297L9.56,10.297L9.56,8.899C9.56,8.436 9.415,8.205 9.124,8.205C8.989,8.205 8.878,8.274 8.791,8.413C8.703,8.552 8.659,8.732 8.659,8.954L8.659,10.297L8.352,10.297L8.352,7.943L8.659,7.943L8.659,8.315L8.667,8.315C8.803,8.03 9.002,7.887 9.263,7.887C9.394,7.887 9.508,7.932 9.605,8.022C9.703,8.112 9.77,8.229 9.806,8.375C9.948,8.05 10.161,7.887 10.443,7.887C10.865,7.887 11.076,8.207 11.076,8.846L11.076,10.297Z" style="fill-rule:nonzero;"/>
        <rect x="12.749" y="7" width="0.315" height="3.297" style="fill-rule:nonzero;"/>
        <path d="M14.043,9.957L14.036,9.957L14.036,11.38L13.728,11.38L13.728,7.943L14.036,7.943L14.036,8.356L14.043,8.356C14.194,8.044 14.415,7.887 14.706,7.887C14.953,7.887 15.146,7.993 15.285,8.204C15.424,8.414 15.493,8.697 15.493,9.051C15.493,9.445 15.415,9.76 15.259,9.997C15.103,10.234 14.889,10.352 14.618,10.352C14.37,10.352 14.178,10.22 14.043,9.957ZM14.036,9.007L14.036,9.336C14.036,9.531 14.087,9.696 14.19,9.831C14.293,9.967 14.424,10.035 14.583,10.035C14.769,10.035 14.914,9.948 15.02,9.773C15.125,9.598 15.178,9.355 15.178,9.044C15.178,8.782 15.129,8.576 15.03,8.428C14.932,8.279 14.798,8.205 14.629,8.205C14.451,8.205 14.307,8.281 14.199,8.434C14.09,8.586 14.036,8.777 14.036,9.007Z" style="fill-rule:nonzero;"/>
        <path d="M15.868,10.212L15.868,9.807C16.035,9.959 16.219,10.035 16.42,10.035C16.69,10.035 16.825,9.925 16.825,9.704C16.825,9.641 16.813,9.588 16.79,9.544C16.767,9.5 16.736,9.462 16.696,9.428C16.657,9.394 16.611,9.364 16.558,9.337C16.505,9.31 16.448,9.282 16.386,9.253C16.301,9.212 16.227,9.17 16.163,9.128C16.098,9.086 16.045,9.038 16.001,8.985C15.958,8.932 15.926,8.872 15.904,8.805C15.882,8.737 15.871,8.658 15.871,8.568C15.871,8.458 15.892,8.36 15.933,8.275C15.974,8.19 16.029,8.119 16.098,8.061C16.167,8.004 16.245,7.96 16.333,7.931C16.421,7.902 16.512,7.887 16.606,7.887C16.772,7.887 16.92,7.923 17.051,7.993L17.051,8.375C16.91,8.261 16.748,8.205 16.564,8.205C16.507,8.205 16.455,8.213 16.409,8.229C16.363,8.245 16.323,8.268 16.29,8.297C16.257,8.326 16.231,8.361 16.213,8.401C16.195,8.442 16.186,8.487 16.186,8.536C16.186,8.597 16.195,8.648 16.213,8.69C16.231,8.731 16.258,8.768 16.293,8.8C16.328,8.832 16.37,8.862 16.42,8.888C16.47,8.914 16.527,8.942 16.591,8.973C16.676,9.013 16.752,9.054 16.819,9.096C16.887,9.138 16.944,9.185 16.991,9.238C17.039,9.291 17.075,9.352 17.101,9.421C17.127,9.49 17.139,9.572 17.139,9.667C17.139,9.784 17.119,9.885 17.077,9.97C17.035,10.056 16.979,10.128 16.909,10.184C16.839,10.241 16.759,10.283 16.667,10.311C16.576,10.338 16.481,10.352 16.381,10.352C16.183,10.352 16.012,10.305 15.868,10.212Z" style="fill-rule:nonzero;"/>
        <path d="M19.162,10.297L18.855,10.297L18.855,9.925L18.848,9.925C18.72,10.21 18.523,10.352 18.256,10.352C17.799,10.352 17.57,10.018 17.57,9.35L17.57,7.943L17.876,7.943L17.876,9.29C17.876,9.787 18.03,10.035 18.34,10.035C18.49,10.035 18.613,9.967 18.71,9.831C18.807,9.696 18.855,9.518 18.855,9.299L18.855,7.943L19.162,7.943L19.162,10.297Z" style="fill-rule:nonzero;"/>
        <path d="M22.506,10.297L22.199,10.297L22.199,8.945C22.199,8.685 22.166,8.496 22.101,8.379C22.035,8.263 21.925,8.205 21.77,8.205C21.639,8.205 21.527,8.278 21.436,8.425C21.344,8.573 21.298,8.749 21.298,8.954L21.298,10.297L20.991,10.297L20.991,8.899C20.991,8.436 20.845,8.205 20.554,8.205C20.419,8.205 20.308,8.274 20.221,8.413C20.133,8.552 20.09,8.732 20.09,8.954L20.09,10.297L19.783,10.297L19.783,7.943L20.09,7.943L20.09,8.315L20.097,8.315C20.233,8.03 20.432,7.887 20.693,7.887C20.824,7.887 20.938,7.932 21.036,8.022C21.133,8.112 21.2,8.229 21.236,8.375C21.378,8.05 21.591,7.887 21.873,7.887C22.295,7.887 22.506,8.207 22.506,8.846L22.506,10.297Z" style="fill-rule:nonzero;"/>
        <path d="M24.595,7.943L23.83,10.297L23.529,10.297L22.802,7.943L23.139,7.943L23.626,9.653C23.663,9.779 23.685,9.888 23.694,9.982L23.701,9.982C23.714,9.864 23.734,9.757 23.761,9.662L24.271,7.943L24.595,7.943Z" style="fill-rule:nonzero;"/>
        <rect x="10.243" y="12" width="16.028" height="5.099" style="fill:rgb(117,198,215);"/>
        <rect x="1.204" y="12" width="9" height="5.099" style="fill:rgb(253,253,253);stroke:rgb(191,191,191);stroke-width:0.5px;stroke-linejoin:miter;stroke-miterlimit:1.5;"/>
    </g>
    <defs>
        <radialGradient id="_Radial1" cx="0" cy="0" r="1" gradientUnits="userSpaceOnUse" gradientTransform="matrix(2.70679,0,0,3.36221,13.8339,2.04517)"><stop offset="0" style="stop-color:white;stop-opacity:1"/><stop offset="1" style="stop-color:rgb(248,248,248);stop-opacity:1"/></radialGradient>
        <radialGradient id="_Radial2" cx="0" cy="0" r="1" gradientUnits="userSpaceOnUse" gradientTransform="matrix(0.548687,0,0,0.470207,15.796,2.47559)"><stop offset="0" style="stop-color:black;stop-opacity:0.36"/><stop offset="1" style="stop-color:black;stop-opacity:0"/></radialGradient>
        <radialGradient id="_Radial3" cx="0" cy="0" r="1" gradientUnits="userSpaceOnUse" gradientTransform="matrix(0.942381,0.0746518,-0.0701562,1.20111,15.1675,2.67643)"><stop offset="0" style="stop-color:rgb(250,250,250);stop-opacity:1"/><stop offset="1" style="stop-color:rgb(187,187,187);stop-opacity:1"/></radialGradient>
        <radialGradient id="_Radial4" cx="0" cy="0" r="1" gradientUnits="userSpaceOnUse" gradientTransform="matrix(0.917469,0,0,1.13962,15.2578,2.2386)"><stop offset="0" style="stop-color:rgb(163,163,163);stop-opacity:1"/><stop offset="1" style="stop-color:rgb(138,138,138);stop-opacity:1"/></radialGradient>
        <linearGradient id="_Linear5" x1="0" y1="0" x2="1" y2="0.114482" gradientUnits="userSpaceOnUse" gradientTransform="matrix(0.083669,-0.066968,0.058955,0.095041,15.5817,2.24326)"><stop offset="0" style="stop-color:white;stop-opacity:1"/><stop offset="1" style="stop-color:white;stop-opacity:0"/></linearGradient>
        <radialGradient id="_Radial6" cx="0" cy="0" r="1" gradientUnits="userSpaceOnUse" gradientTransform="matrix(1.27744,0,0,1.43117,15.3224,2.43175)"><stop offset="0" style="stop-color:white;stop-opacity:1"/><stop offset="0.5" style="stop-color:rgb(248,237,0);stop-opacity:0.89"/><stop offset="1" style="stop-color:rgb(255,243,0);stop-opacity:0"/></radialGradient>
    </defs>
</svg>
