<?xml version="1.0" encoding="UTF-8" standalone="no"?>
<!DOCTYPE svg PUBLIC "-//W3C//DTD SVG 1.1//EN" "http://www.w3.org/Graphics/SVG/1.1/DTD/svg11.dtd">
<svg width="30px" height="30px" version="1.1" xmlns="http://www.w3.org/2000/svg" xmlns:xlink="http://www.w3.org/1999/xlink" xml:space="preserve" xmlns:serif="http://www.serif.com/" style="fill-rule:evenodd;clip-rule:evenodd;">
    <g id="row">
        <path d="M8.14,19.613L7.494,19.613L7.494,17.055L7.64,17.055L7.64,19.342L8.14,19.342L8.14,19.613Z" style="fill-rule:nonzero;"/>
        <path d="M8.683,19.656C8.551,19.656 8.447,19.571 8.368,19.4C8.29,19.229 8.251,19.003 8.251,18.721C8.251,18.415 8.291,18.175 8.373,18.002C8.454,17.83 8.565,17.744 8.703,17.744C8.836,17.744 8.939,17.828 9.014,17.995C9.088,18.163 9.125,18.395 9.125,18.693C9.125,18.984 9.085,19.217 9.005,19.393C8.925,19.568 8.817,19.656 8.683,19.656ZM8.693,17.99C8.602,17.99 8.529,18.054 8.476,18.182C8.423,18.31 8.396,18.486 8.396,18.711C8.396,18.927 8.423,19.098 8.477,19.223C8.531,19.347 8.603,19.41 8.693,19.41C8.785,19.41 8.856,19.349 8.905,19.226C8.955,19.104 8.979,18.929 8.979,18.703C8.979,18.475 8.955,18.299 8.905,18.175C8.856,18.052 8.785,17.99 8.693,17.99Z" style="fill-rule:nonzero;"/>
        <path d="M9.816,18.083C9.791,18.043 9.755,18.024 9.708,18.024C9.648,18.024 9.597,18.083 9.556,18.2C9.515,18.318 9.495,18.479 9.495,18.682L9.495,19.613L9.353,19.613L9.353,17.787L9.495,17.787L9.495,18.163L9.498,18.163C9.519,18.035 9.549,17.934 9.591,17.862C9.633,17.791 9.679,17.755 9.731,17.755C9.768,17.755 9.796,17.763 9.816,17.78L9.816,18.083Z" style="fill-rule:nonzero;"/>
        <path d="M10.684,18.773L10.057,18.773C10.059,18.976 10.086,19.133 10.137,19.244C10.188,19.355 10.258,19.41 10.347,19.41C10.447,19.41 10.539,19.342 10.623,19.206L10.623,19.481C10.545,19.598 10.441,19.656 10.313,19.656C10.187,19.656 10.089,19.573 10.017,19.407C9.945,19.241 9.91,19.008 9.91,18.707C9.91,18.423 9.949,18.191 10.027,18.012C10.105,17.833 10.203,17.744 10.319,17.744C10.435,17.744 10.525,17.821 10.589,17.976C10.653,18.13 10.684,18.345 10.684,18.62L10.684,18.773ZM10.539,18.525C10.538,18.356 10.518,18.225 10.479,18.131C10.44,18.037 10.386,17.99 10.316,17.99C10.249,17.99 10.192,18.039 10.146,18.138C10.099,18.237 10.07,18.366 10.059,18.525L10.539,18.525Z" style="fill-rule:nonzero;"/>
        <path d="M12.161,19.613L12.019,19.613L12.019,18.564C12.019,18.362 12.004,18.216 11.973,18.126C11.943,18.035 11.892,17.99 11.82,17.99C11.759,17.99 11.708,18.047 11.665,18.161C11.623,18.275 11.601,18.412 11.601,18.571L11.601,19.613L11.459,19.613L11.459,18.529C11.459,18.17 11.392,17.99 11.257,17.99C11.195,17.99 11.143,18.044 11.103,18.151C11.062,18.259 11.042,18.399 11.042,18.571L11.042,19.613L10.9,19.613L10.9,17.787L11.042,17.787L11.042,18.076L11.045,18.076C11.108,17.854 11.2,17.744 11.321,17.744C11.382,17.744 11.435,17.779 11.48,17.848C11.525,17.918 11.556,18.009 11.573,18.122C11.639,17.87 11.737,17.744 11.868,17.744C12.063,17.744 12.161,17.992 12.161,18.488L12.161,19.613Z" style="fill-rule:nonzero;"/>
        <path d="M1,19.772C1.017,19.865 1.099,19.934 1.195,19.934C1.291,19.934 1.374,19.863 1.389,19.768C1.392,19.748 1.394,19.727 1.394,19.707L1.394,17.382C1.394,17.172 1.567,17 1.777,17L5.349,17C5.558,17 5.73,17.17 5.732,17.379L5.732,19.707C5.73,19.916 5.558,20.086 5.349,20.086L1.381,20.086C1.195,20.089 1.033,19.955 1,19.772Z" style="fill:rgb(251,193,25);"/>
    </g>
    <g id="row1" serif:id="row">
        <path d="M8.14,14.613L7.494,14.613L7.494,12.055L7.64,12.055L7.64,14.342L8.14,14.342L8.14,14.613Z" style="fill-rule:nonzero;"/>
        <path d="M8.683,14.656C8.551,14.656 8.447,14.571 8.368,14.4C8.29,14.229 8.251,14.003 8.251,13.721C8.251,13.415 8.291,13.175 8.373,13.002C8.454,12.83 8.565,12.744 8.703,12.744C8.836,12.744 8.939,12.828 9.014,12.995C9.088,13.163 9.125,13.395 9.125,13.693C9.125,13.984 9.085,14.217 9.005,14.393C8.925,14.568 8.817,14.656 8.683,14.656ZM8.693,12.99C8.602,12.99 8.529,13.054 8.476,13.182C8.423,13.31 8.396,13.486 8.396,13.711C8.396,13.927 8.423,14.098 8.477,14.223C8.531,14.347 8.603,14.41 8.693,14.41C8.785,14.41 8.856,14.349 8.905,14.226C8.955,14.104 8.979,13.929 8.979,13.703C8.979,13.475 8.955,13.299 8.905,13.175C8.856,13.052 8.785,12.99 8.693,12.99Z" style="fill-rule:nonzero;"/>
        <path d="M9.816,13.083C9.791,13.043 9.755,13.024 9.708,13.024C9.648,13.024 9.597,13.083 9.556,13.2C9.515,13.318 9.495,13.479 9.495,13.682L9.495,14.613L9.353,14.613L9.353,12.787L9.495,12.787L9.495,13.163L9.498,13.163C9.519,13.035 9.549,12.934 9.591,12.862C9.633,12.791 9.679,12.755 9.731,12.755C9.768,12.755 9.796,12.763 9.816,12.78L9.816,13.083Z" style="fill-rule:nonzero;"/>
        <path d="M10.684,13.773L10.057,13.773C10.059,13.976 10.086,14.133 10.137,14.244C10.188,14.355 10.258,14.41 10.347,14.41C10.447,14.41 10.539,14.342 10.623,14.206L10.623,14.481C10.545,14.598 10.441,14.656 10.313,14.656C10.187,14.656 10.089,14.573 10.017,14.407C9.945,14.241 9.91,14.008 9.91,13.707C9.91,13.423 9.949,13.191 10.027,13.012C10.105,12.833 10.203,12.744 10.319,12.744C10.435,12.744 10.525,12.821 10.589,12.976C10.653,13.13 10.684,13.345 10.684,13.62L10.684,13.773ZM10.539,13.525C10.538,13.356 10.518,13.225 10.479,13.131C10.44,13.037 10.386,12.99 10.316,12.99C10.249,12.99 10.192,13.039 10.146,13.138C10.099,13.237 10.07,13.366 10.059,13.525L10.539,13.525Z" style="fill-rule:nonzero;"/>
        <path d="M12.161,14.613L12.019,14.613L12.019,13.564C12.019,13.362 12.004,13.216 11.973,13.126C11.943,13.035 11.892,12.99 11.82,12.99C11.759,12.99 11.708,13.047 11.665,13.161C11.623,13.275 11.601,13.412 11.601,13.571L11.601,14.613L11.459,14.613L11.459,13.529C11.459,13.17 11.392,12.99 11.257,12.99C11.195,12.99 11.143,13.044 11.103,13.151C11.062,13.259 11.042,13.399 11.042,13.571L11.042,14.613L10.9,14.613L10.9,12.787L11.042,12.787L11.042,13.076L11.045,13.076C11.108,12.854 11.2,12.744 11.321,12.744C11.382,12.744 11.435,12.779 11.48,12.848C11.525,12.918 11.556,13.009 11.573,13.122C11.639,12.87 11.737,12.744 11.868,12.744C12.063,12.744 12.161,12.992 12.161,13.488L12.161,14.613Z" style="fill-rule:nonzero;"/>
        <path d="M1,14.772C1.017,14.865 1.099,14.934 1.195,14.934C1.291,14.934 1.374,14.863 1.389,14.768C1.392,14.748 1.394,14.727 1.394,14.707L1.394,12.382C1.394,12.172 1.567,12 1.777,12L5.349,12C5.558,12 5.73,12.17 5.732,12.379L5.732,14.707C5.73,14.916 5.558,15.086 5.349,15.086L1.381,15.086C1.195,15.089 1.033,14.955 1,14.772Z" style="fill:rgb(251,193,25);"/>
    </g>
    <g id="row2" serif:id="row">
        <path d="M8.14,9.527L7.494,9.527L7.494,6.969L7.64,6.969L7.64,9.256L8.14,9.256L8.14,9.527Z" style="fill-rule:nonzero;"/>
        <path d="M8.683,9.57C8.551,9.57 8.447,9.485 8.368,9.314C8.29,9.143 8.251,8.917 8.251,8.635C8.251,8.329 8.291,8.089 8.373,7.916C8.454,7.744 8.565,7.658 8.703,7.658C8.836,7.658 8.939,7.742 9.014,7.909C9.088,8.077 9.125,8.309 9.125,8.607C9.125,8.898 9.085,9.131 9.005,9.307C8.925,9.482 8.817,9.57 8.683,9.57ZM8.693,7.904C8.602,7.904 8.529,7.968 8.476,8.096C8.423,8.224 8.396,8.4 8.396,8.625C8.396,8.841 8.423,9.012 8.477,9.137C8.531,9.261 8.603,9.324 8.693,9.324C8.785,9.324 8.856,9.263 8.905,9.14C8.955,9.018 8.979,8.843 8.979,8.617C8.979,8.389 8.955,8.213 8.905,8.089C8.856,7.966 8.785,7.904 8.693,7.904Z" style="fill-rule:nonzero;"/>
        <path d="M9.816,7.997C9.791,7.957 9.755,7.938 9.708,7.938C9.648,7.938 9.597,7.997 9.556,8.114C9.515,8.232 9.495,8.393 9.495,8.596L9.495,9.527L9.353,9.527L9.353,7.701L9.495,7.701L9.495,8.077L9.498,8.077C9.519,7.949 9.549,7.848 9.591,7.776C9.633,7.705 9.679,7.669 9.731,7.669C9.768,7.669 9.796,7.677 9.816,7.694L9.816,7.997Z" style="fill-rule:nonzero;"/>
        <path d="M10.684,8.687L10.057,8.687C10.059,8.89 10.086,9.047 10.137,9.158C10.188,9.269 10.258,9.324 10.347,9.324C10.447,9.324 10.539,9.256 10.623,9.12L10.623,9.395C10.545,9.512 10.441,9.57 10.313,9.57C10.187,9.57 10.089,9.487 10.017,9.321C9.945,9.155 9.91,8.922 9.91,8.621C9.91,8.337 9.949,8.105 10.027,7.926C10.105,7.747 10.203,7.658 10.319,7.658C10.435,7.658 10.525,7.735 10.589,7.89C10.653,8.044 10.684,8.259 10.684,8.534L10.684,8.687ZM10.539,8.439C10.538,8.27 10.518,8.139 10.479,8.045C10.44,7.951 10.386,7.904 10.316,7.904C10.249,7.904 10.192,7.953 10.146,8.052C10.099,8.151 10.07,8.28 10.059,8.439L10.539,8.439Z" style="fill-rule:nonzero;"/>
        <path d="M12.161,9.527L12.019,9.527L12.019,8.478C12.019,8.276 12.004,8.13 11.973,8.04C11.943,7.949 11.892,7.904 11.82,7.904C11.759,7.904 11.708,7.961 11.665,8.075C11.623,8.189 11.601,8.326 11.601,8.485L11.601,9.527L11.459,9.527L11.459,8.443C11.459,8.084 11.392,7.904 11.257,7.904C11.195,7.904 11.143,7.958 11.103,8.065C11.062,8.173 11.042,8.313 11.042,8.485L11.042,9.527L10.9,9.527L10.9,7.701L11.042,7.701L11.042,7.99L11.045,7.99C11.108,7.768 11.2,7.658 11.321,7.658C11.382,7.658 11.435,7.693 11.48,7.762C11.525,7.832 11.556,7.923 11.573,8.036C11.639,7.784 11.737,7.658 11.868,7.658C12.063,7.658 12.161,7.906 12.161,8.402L12.161,9.527Z" style="fill-rule:nonzero;"/>
        <path d="M1,9.686C1.017,9.779 1.099,9.848 1.195,9.848C1.291,9.848 1.374,9.777 1.389,9.682C1.392,9.662 1.394,9.641 1.394,9.621L1.394,7.296C1.394,7.086 1.567,6.914 1.777,6.914L5.349,6.914C5.558,6.914 5.73,7.084 5.732,7.293L5.732,9.621C5.73,9.83 5.558,10 5.349,10L1.381,10C1.195,10.003 1.033,9.869 1,9.686Z" style="fill:rgb(251,193,25);"/>
    </g>
    <g id="row3" serif:id="row">
        <path d="M8.268,4.527L7.622,4.527L7.622,1.969L7.768,1.969L7.768,4.256L8.268,4.256L8.268,4.527Z" style="fill-rule:nonzero;"/>
        <path d="M8.811,4.57C8.679,4.57 8.575,4.485 8.496,4.314C8.418,4.143 8.379,3.917 8.379,3.635C8.379,3.329 8.419,3.089 8.501,2.916C8.582,2.744 8.693,2.658 8.831,2.658C8.964,2.658 9.067,2.742 9.142,2.909C9.216,3.077 9.253,3.309 9.253,3.607C9.253,3.898 9.213,4.131 9.133,4.307C9.053,4.482 8.945,4.57 8.811,4.57ZM8.821,2.904C8.73,2.904 8.657,2.968 8.604,3.096C8.551,3.224 8.524,3.4 8.524,3.625C8.524,3.841 8.551,4.012 8.605,4.137C8.659,4.261 8.731,4.324 8.821,4.324C8.913,4.324 8.984,4.263 9.033,4.14C9.083,4.018 9.107,3.843 9.107,3.617C9.107,3.389 9.083,3.213 9.033,3.089C8.984,2.966 8.913,2.904 8.821,2.904Z" style="fill-rule:nonzero;"/>
        <path d="M9.944,2.997C9.919,2.957 9.883,2.938 9.836,2.938C9.776,2.938 9.725,2.997 9.684,3.114C9.643,3.232 9.623,3.393 9.623,3.596L9.623,4.527L9.481,4.527L9.481,2.701L9.623,2.701L9.623,3.077L9.626,3.077C9.647,2.949 9.677,2.848 9.719,2.776C9.761,2.705 9.807,2.669 9.859,2.669C9.896,2.669 9.924,2.677 9.944,2.694L9.944,2.997Z" style="fill-rule:nonzero;"/>
        <path d="M10.812,3.687L10.185,3.687C10.187,3.89 10.214,4.047 10.265,4.158C10.316,4.269 10.386,4.324 10.475,4.324C10.575,4.324 10.667,4.256 10.751,4.12L10.751,4.395C10.673,4.512 10.569,4.57 10.441,4.57C10.315,4.57 10.217,4.487 10.145,4.321C10.073,4.155 10.038,3.922 10.038,3.621C10.038,3.337 10.077,3.105 10.155,2.926C10.233,2.747 10.331,2.658 10.447,2.658C10.563,2.658 10.653,2.735 10.717,2.89C10.781,3.044 10.812,3.259 10.812,3.534L10.812,3.687ZM10.667,3.439C10.666,3.27 10.646,3.139 10.607,3.045C10.568,2.951 10.514,2.904 10.444,2.904C10.377,2.904 10.32,2.953 10.274,3.052C10.227,3.151 10.198,3.28 10.187,3.439L10.667,3.439Z" style="fill-rule:nonzero;"/>
        <path d="M12.289,4.527L12.147,4.527L12.147,3.478C12.147,3.276 12.132,3.13 12.101,3.04C12.071,2.949 12.02,2.904 11.948,2.904C11.887,2.904 11.836,2.961 11.793,3.075C11.751,3.189 11.729,3.326 11.729,3.485L11.729,4.527L11.587,4.527L11.587,3.443C11.587,3.084 11.52,2.904 11.385,2.904C11.323,2.904 11.271,2.958 11.231,3.065C11.19,3.173 11.17,3.313 11.17,3.485L11.17,4.527L11.028,4.527L11.028,2.701L11.17,2.701L11.17,2.99L11.173,2.99C11.236,2.768 11.328,2.658 11.449,2.658C11.51,2.658 11.563,2.693 11.608,2.762C11.653,2.832 11.684,2.923 11.701,3.036C11.767,2.784 11.865,2.658 11.996,2.658C12.191,2.658 12.289,2.906 12.289,3.402L12.289,4.527Z" style="fill-rule:nonzero;"/>
        <path d="M1.128,4.686C1.145,4.779 1.227,4.848 1.323,4.848C1.419,4.848 1.502,4.777 1.517,4.682C1.52,4.662 1.522,4.641 1.522,4.621L1.522,2.296C1.522,2.086 1.695,1.914 1.905,1.914L5.477,1.914C5.686,1.914 5.858,2.084 5.86,2.293L5.86,4.621C5.858,4.83 5.686,5 5.477,5L1.509,5C1.323,5.003 1.161,4.869 1.128,4.686Z" style="fill:rgb(251,193,25);"/>
    </g>
    <g id="row4" serif:id="row">
        <g id="text">
            <path d="M20.974,4.764L20.087,4.764L20.087,2.173L20.287,2.173L20.287,4.49L20.974,4.49L20.974,4.764Z" style="fill-rule:nonzero;"/>
            <path d="M21.72,4.808C21.539,4.808 21.396,4.722 21.288,4.549C21.18,4.375 21.127,4.146 21.127,3.861C21.127,3.551 21.182,3.308 21.294,3.132C21.406,2.958 21.558,2.871 21.748,2.871C21.931,2.871 22.072,2.956 22.175,3.125C22.277,3.295 22.328,3.53 22.328,3.832C22.328,4.127 22.273,4.363 22.163,4.541C22.053,4.719 21.905,4.808 21.72,4.808ZM21.734,3.12C21.609,3.12 21.509,3.185 21.436,3.315C21.363,3.444 21.326,3.623 21.326,3.851C21.326,4.069 21.363,4.243 21.437,4.369C21.512,4.495 21.611,4.559 21.734,4.559C21.861,4.559 21.958,4.497 22.026,4.372C22.094,4.249 22.127,4.071 22.127,3.842C22.127,3.611 22.094,3.433 22.026,3.308C21.958,3.183 21.861,3.12 21.734,3.12Z" style="fill-rule:nonzero;"/>
            <path d="M23.277,3.214C23.243,3.174 23.194,3.155 23.129,3.155C23.047,3.155 22.977,3.214 22.92,3.333C22.864,3.452 22.836,3.616 22.836,3.821L22.836,4.764L22.641,4.764L22.641,2.914L22.836,2.914L22.836,3.295L22.84,3.295C22.869,3.166 22.911,3.063 22.968,2.99C23.026,2.919 23.089,2.882 23.161,2.882C23.211,2.882 23.25,2.89 23.277,2.907L23.277,3.214Z" style="fill-rule:nonzero;"/>
            <path d="M24.47,3.913L23.609,3.913C23.611,4.119 23.648,4.278 23.719,4.391C23.789,4.503 23.885,4.559 24.007,4.559C24.145,4.559 24.271,4.49 24.386,4.352L24.386,4.631C24.279,4.749 24.136,4.808 23.96,4.808C23.787,4.808 23.653,4.724 23.554,4.556C23.455,4.387 23.407,4.151 23.407,3.847C23.407,3.559 23.46,3.324 23.567,3.142C23.675,2.961 23.809,2.871 23.969,2.871C24.128,2.871 24.252,2.949 24.34,3.106C24.428,3.262 24.47,3.48 24.47,3.758L24.47,3.913ZM24.271,3.662C24.27,3.491 24.242,3.358 24.189,3.263C24.135,3.168 24.061,3.12 23.965,3.12C23.872,3.12 23.794,3.17 23.731,3.27C23.666,3.37 23.627,3.501 23.611,3.662L24.271,3.662Z" style="fill-rule:nonzero;"/>
            <path d="M26.5,4.764L26.305,4.764L26.305,3.702C26.305,3.497 26.284,3.349 26.242,3.258C26.2,3.166 26.13,3.12 26.031,3.12C25.948,3.12 25.877,3.178 25.818,3.293C25.761,3.409 25.73,3.548 25.73,3.709L25.73,4.764L25.535,4.764L25.535,3.666C25.535,3.302 25.443,3.12 25.258,3.12C25.173,3.12 25.101,3.175 25.046,3.283C24.99,3.393 24.962,3.534 24.962,3.709L24.962,4.764L24.767,4.764L24.767,2.914L24.962,2.914L24.962,3.207L24.966,3.207C25.053,2.982 25.179,2.871 25.346,2.871C25.429,2.871 25.502,2.906 25.564,2.976C25.626,3.047 25.669,3.139 25.692,3.254C25.783,2.999 25.917,2.871 26.097,2.871C26.365,2.871 26.5,3.122 26.5,3.625L26.5,4.764Z" style="fill-rule:nonzero;"/>
        </g>
        <g id="g13370">
            <path id="path5166" d="M16.385,1.969L17.788,1.969C18.075,1.974 18.268,2.154 18.453,2.339C18.638,2.523 18.794,2.727 18.823,3.004L18.823,4.85C18.823,4.933 18.756,5 18.673,5L16.385,5C16.302,5 16.236,4.933 16.236,4.85L16.236,2.119C16.236,2.036 16.302,1.969 16.385,1.969Z" style="fill:url(#_Radial1);fill-rule:nonzero;stroke:black;stroke-width:0.07px;"/>
            <g id="path5168">
                <path d="M16.386,2.006C16.322,2.006 16.273,2.056 16.273,2.119L16.273,4.85C16.273,4.913 16.322,4.963 16.386,4.963L18.673,4.963C18.736,4.963 18.786,4.913 18.786,4.85L18.786,3.004C18.786,2.901 18.75,2.686 18.613,2.549C18.465,2.401 18.391,2.327 18.243,2.179C18.106,2.042 17.891,2.006 17.788,2.006L16.386,2.006Z" style="fill:url(#_Radial2);fill-rule:nonzero;"/>
            </g>
            <g id="path5174">
                <path d="M16.386,2.043C16.343,2.043 16.309,2.076 16.309,2.119L16.309,4.85C16.309,4.893 16.343,4.926 16.386,4.926L18.673,4.926C18.716,4.926 18.749,4.893 18.749,4.85L18.749,3.004C18.749,2.909 18.714,2.7 18.587,2.574C18.439,2.426 18.365,2.352 18.218,2.205C18.091,2.078 17.883,2.043 17.788,2.043L16.386,2.043Z" style="fill:none;fill-rule:nonzero;stroke:url(#_Linear3);stroke-width:0.07px;"/>
            </g>
            <path id="path5170" d="M17.788,2.006C17.685,2.006 17.785,2.043 17.887,2.089C17.99,2.136 18.255,2.327 18.195,2.597C18.514,2.565 18.688,2.828 18.712,2.914C18.736,2.999 18.786,3.107 18.786,3.004C18.788,2.723 18.576,2.528 18.428,2.364C18.28,2.199 18.058,2.041 17.788,2.006Z" style="fill:url(#_Radial4);fill-rule:nonzero;"/>
            <path id="path5172" d="M17.869,2.081C17.938,2.081 18.092,2.539 18.024,2.845C18.341,2.813 18.678,2.851 18.712,2.914C18.688,2.828 18.514,2.565 18.195,2.597C18.259,2.311 17.959,2.108 17.869,2.081Z" style="fill:url(#_Linear5);fill-rule:nonzero;"/>
        </g>
    </g>
    <g id="row5" serif:id="row">
        <g id="text1" serif:id="text">
            <path d="M20.855,9.764L19.968,9.764L19.968,7.173L20.168,7.173L20.168,9.49L20.855,9.49L20.855,9.764Z" style="fill-rule:nonzero;"/>
            <path d="M21.601,9.808C21.42,9.808 21.277,9.722 21.169,9.549C21.061,9.375 21.008,9.146 21.008,8.861C21.008,8.551 21.063,8.308 21.175,8.132C21.287,7.958 21.439,7.871 21.629,7.871C21.812,7.871 21.953,7.956 22.056,8.125C22.158,8.295 22.209,8.53 22.209,8.832C22.209,9.127 22.154,9.363 22.044,9.541C21.934,9.719 21.786,9.808 21.601,9.808ZM21.615,8.12C21.49,8.12 21.39,8.185 21.317,8.315C21.244,8.444 21.207,8.623 21.207,8.851C21.207,9.069 21.244,9.243 21.318,9.369C21.393,9.495 21.492,9.559 21.615,9.559C21.742,9.559 21.839,9.497 21.907,9.372C21.975,9.249 22.008,9.071 22.008,8.842C22.008,8.611 21.975,8.433 21.907,8.308C21.839,8.183 21.742,8.12 21.615,8.12Z" style="fill-rule:nonzero;"/>
            <path d="M23.158,8.214C23.124,8.174 23.075,8.155 23.01,8.155C22.928,8.155 22.858,8.214 22.801,8.333C22.745,8.452 22.717,8.616 22.717,8.821L22.717,9.764L22.522,9.764L22.522,7.914L22.717,7.914L22.717,8.295L22.721,8.295C22.75,8.166 22.792,8.063 22.849,7.99C22.907,7.919 22.97,7.882 23.042,7.882C23.093,7.882 23.131,7.89 23.158,7.907L23.158,8.214Z" style="fill-rule:nonzero;"/>
            <path d="M24.351,8.913L23.49,8.913C23.492,9.119 23.53,9.278 23.6,9.391C23.67,9.503 23.766,9.559 23.888,9.559C24.026,9.559 24.152,9.49 24.267,9.352L24.267,9.631C24.16,9.749 24.017,9.808 23.841,9.808C23.668,9.808 23.534,9.724 23.435,9.556C23.336,9.387 23.288,9.151 23.288,8.847C23.288,8.559 23.341,8.324 23.448,8.142C23.556,7.961 23.69,7.871 23.85,7.871C24.009,7.871 24.133,7.949 24.221,8.106C24.309,8.262 24.351,8.48 24.351,8.758L24.351,8.913ZM24.152,8.662C24.151,8.491 24.123,8.358 24.07,8.263C24.016,8.168 23.942,8.12 23.846,8.12C23.754,8.12 23.675,8.17 23.612,8.27C23.547,8.37 23.508,8.501 23.492,8.662L24.152,8.662Z" style="fill-rule:nonzero;"/>
            <path d="M26.381,9.764L26.186,9.764L26.186,8.702C26.186,8.497 26.165,8.349 26.123,8.258C26.081,8.166 26.011,8.12 25.912,8.12C25.829,8.12 25.758,8.178 25.699,8.293C25.642,8.409 25.611,8.548 25.611,8.709L25.611,9.764L25.416,9.764L25.416,8.666C25.416,8.302 25.324,8.12 25.139,8.12C25.054,8.12 24.982,8.175 24.927,8.283C24.871,8.393 24.843,8.534 24.843,8.709L24.843,9.764L24.648,9.764L24.648,7.914L24.843,7.914L24.843,8.207L24.847,8.207C24.934,7.982 25.06,7.871 25.227,7.871C25.311,7.871 25.383,7.906 25.445,7.976C25.507,8.047 25.55,8.139 25.573,8.254C25.664,7.999 25.798,7.871 25.978,7.871C26.246,7.871 26.381,8.122 26.381,8.625L26.381,9.764Z" style="fill-rule:nonzero;"/>
        </g>
        <g id="g133701" serif:id="g13370">
            <path id="path51661" serif:id="path5166" d="M16.266,6.969L17.669,6.969C17.956,6.974 18.15,7.154 18.334,7.339C18.519,7.523 18.675,7.727 18.704,8.004L18.704,9.85C18.704,9.933 18.637,10 18.554,10L16.266,10C16.183,10 16.117,9.933 16.117,9.85L16.117,7.119C16.117,7.036 16.183,6.969 16.266,6.969Z" style="fill:url(#_Radial6);fill-rule:nonzero;stroke:black;stroke-width:0.07px;"/>
            <g id="path51681" serif:id="path5168">
                <path d="M16.267,7.006C16.203,7.006 16.154,7.056 16.154,7.119L16.154,9.85C16.154,9.913 16.203,9.963 16.267,9.963L18.554,9.963C18.617,9.963 18.667,9.913 18.667,9.85L18.667,8.004C18.667,7.901 18.631,7.686 18.494,7.549C18.346,7.401 18.272,7.327 18.124,7.179C17.987,7.042 17.772,7.006 17.669,7.006L16.267,7.006Z" style="fill:url(#_Radial7);fill-rule:nonzero;"/>
            </g>
            <g id="path51741" serif:id="path5174">
                <path d="M16.267,7.043C16.224,7.043 16.19,7.076 16.19,7.119L16.19,9.85C16.19,9.893 16.224,9.926 16.267,9.926L18.554,9.926C18.597,9.926 18.63,9.893 18.63,9.85L18.63,8.004C18.63,7.909 18.595,7.7 18.468,7.574C18.32,7.426 18.247,7.352 18.099,7.205C17.972,7.078 17.764,7.043 17.669,7.043L16.267,7.043Z" style="fill:none;fill-rule:nonzero;stroke:url(#_Linear8);stroke-width:0.07px;"/>
            </g>
            <path id="path51701" serif:id="path5170" d="M17.669,7.006C17.566,7.006 17.666,7.043 17.768,7.089C17.871,7.136 18.136,7.327 18.076,7.597C18.395,7.565 18.569,7.828 18.593,7.914C18.617,7.999 18.667,8.107 18.667,8.004C18.669,7.723 18.457,7.528 18.309,7.364C18.161,7.199 17.939,7.041 17.669,7.006Z" style="fill:url(#_Radial9);fill-rule:nonzero;"/>
            <path id="path51721" serif:id="path5172" d="M17.75,7.081C17.819,7.081 17.973,7.539 17.905,7.845C18.222,7.813 18.559,7.851 18.593,7.914C18.569,7.828 18.395,7.565 18.076,7.597C18.14,7.311 17.84,7.108 17.75,7.081Z" style="fill:url(#_Linear10);fill-rule:nonzero;"/>
        </g>
    </g>
    <g id="row6" serif:id="row">
        <g id="text2" serif:id="text">
            <path d="M20.739,14.878L19.851,14.878L19.851,12.286L20.052,12.286L20.052,14.603L20.739,14.603L20.739,14.878Z" style="fill-rule:nonzero;"/>
            <path d="M21.485,14.921C21.304,14.921 21.161,14.835 21.052,14.662C20.945,14.489 20.891,14.26 20.891,13.974C20.891,13.664 20.946,13.421 21.059,13.246C21.17,13.071 21.323,12.984 21.512,12.984C21.695,12.984 21.837,13.069 21.94,13.239C22.041,13.409 22.092,13.644 22.092,13.946C22.092,14.24 22.037,14.476 21.927,14.655C21.817,14.832 21.669,14.921 21.485,14.921ZM21.499,13.233C21.374,13.233 21.273,13.298 21.2,13.428C21.128,13.558 21.091,13.736 21.091,13.964C21.091,14.183 21.128,14.356 21.202,14.483C21.276,14.608 21.375,14.672 21.499,14.672C21.625,14.672 21.723,14.61 21.79,14.486C21.859,14.362 21.892,14.185 21.892,13.956C21.892,13.725 21.859,13.546 21.79,13.421C21.723,13.296 21.625,13.233 21.499,13.233Z" style="fill-rule:nonzero;"/>
            <path d="M23.042,13.328C23.008,13.287 22.958,13.268 22.894,13.268C22.811,13.268 22.741,13.328 22.685,13.446C22.628,13.566 22.601,13.729 22.601,13.934L22.601,14.878L22.406,14.878L22.406,13.028L22.601,13.028L22.601,13.409L22.605,13.409C22.634,13.279 22.675,13.177 22.733,13.104C22.79,13.032 22.854,12.995 22.925,12.995C22.976,12.995 23.014,13.003 23.042,13.021L23.042,13.328Z" style="fill-rule:nonzero;"/>
            <path d="M24.235,14.027L23.373,14.027C23.376,14.232 23.413,14.391 23.483,14.504C23.553,14.616 23.649,14.672 23.772,14.672C23.909,14.672 24.035,14.603 24.151,14.465L24.151,14.744C24.044,14.862 23.901,14.921 23.725,14.921C23.552,14.921 23.417,14.837 23.318,14.669C23.219,14.501 23.171,14.265 23.171,13.96C23.171,13.672 23.225,13.437 23.332,13.256C23.439,13.074 23.574,12.984 23.733,12.984C23.893,12.984 24.016,13.062 24.104,13.219C24.192,13.375 24.235,13.593 24.235,13.872L24.235,14.027ZM24.035,13.775C24.034,13.604 24.007,13.472 23.953,13.376C23.899,13.281 23.825,13.233 23.729,13.233C23.637,13.233 23.559,13.283 23.495,13.383C23.431,13.484 23.391,13.614 23.376,13.775L24.035,13.775Z" style="fill-rule:nonzero;"/>
            <path d="M26.264,14.878L26.069,14.878L26.069,13.815C26.069,13.61 26.049,13.462 26.006,13.371C25.965,13.279 25.895,13.233 25.796,13.233C25.712,13.233 25.642,13.291 25.583,13.407C25.525,13.522 25.495,13.661 25.495,13.822L25.495,14.878L25.3,14.878L25.3,13.779C25.3,13.416 25.208,13.233 25.022,13.233C24.937,13.233 24.866,13.288 24.811,13.397C24.754,13.506 24.727,13.648 24.727,13.822L24.727,14.878L24.532,14.878L24.532,13.028L24.727,13.028L24.727,13.321L24.731,13.321C24.817,13.096 24.944,12.984 25.11,12.984C25.194,12.984 25.267,13.02 25.329,13.09C25.39,13.161 25.433,13.253 25.456,13.367C25.547,13.112 25.682,12.984 25.862,12.984C26.13,12.984 26.264,13.235 26.264,13.738L26.264,14.878Z" style="fill-rule:nonzero;"/>
        </g>
        <g id="g133702" serif:id="g13370">
            <path id="path51662" serif:id="path5166" d="M16.15,12.082L17.552,12.082C17.839,12.088 18.033,12.267 18.218,12.452C18.403,12.637 18.559,12.84 18.588,13.117L18.588,14.964C18.588,15.047 18.521,15.113 18.438,15.113L16.15,15.113C16.067,15.113 16,15.047 16,14.964L16,12.232C16,12.149 16.067,12.082 16.15,12.082Z" style="fill:url(#_Radial11);fill-rule:nonzero;stroke:black;stroke-width:0.07px;"/>
            <g id="path51682" serif:id="path5168">
                <path d="M16.15,12.119C16.087,12.119 16.037,12.169 16.037,12.232L16.037,14.963C16.037,15.027 16.087,15.076 16.15,15.076L18.437,15.076C18.501,15.076 18.551,15.027 18.551,14.963L18.551,13.117C18.551,13.014 18.515,12.799 18.377,12.662C18.229,12.514 18.155,12.44 18.008,12.292C17.87,12.155 17.655,12.119 17.552,12.119L16.15,12.119Z" style="fill:url(#_Radial12);fill-rule:nonzero;"/>
            </g>
            <g id="path51742" serif:id="path5174">
                <path d="M16.15,12.156C16.107,12.156 16.074,12.189 16.074,12.232L16.074,14.963C16.074,15.006 16.107,15.039 16.15,15.039L18.437,15.039C18.48,15.039 18.514,15.006 18.514,14.963L18.514,13.117C18.514,13.023 18.478,12.814 18.352,12.687C18.204,12.54 18.13,12.466 17.982,12.318C17.856,12.192 17.647,12.156 17.552,12.156L16.15,12.156Z" style="fill:none;fill-rule:nonzero;stroke:url(#_Linear13);stroke-width:0.07px;"/>
            </g>
            <path id="path51702" serif:id="path5170" d="M17.552,12.119C17.45,12.119 17.549,12.156 17.652,12.202C17.754,12.249 18.019,12.44 17.959,12.711C18.279,12.679 18.453,12.941 18.477,13.027C18.5,13.113 18.551,13.22 18.551,13.117C18.553,12.836 18.34,12.642 18.192,12.477C18.045,12.313 17.823,12.154 17.552,12.119Z" style="fill:url(#_Radial14);fill-rule:nonzero;"/>
            <path id="path51722" serif:id="path5172" d="M17.634,12.194C17.702,12.194 17.856,12.652 17.788,12.958C18.106,12.926 18.443,12.964 18.477,13.027C18.453,12.941 18.279,12.679 17.959,12.711C18.023,12.424 17.723,12.221 17.634,12.194Z" style="fill:url(#_Linear15);fill-rule:nonzero;"/>
        </g>
    </g>
    <g id="row7" serif:id="row">
        <g id="text3" serif:id="text">
            <path d="M20.739,19.875L19.851,19.875L19.851,17.283L20.052,17.283L20.052,19.6L20.739,19.6L20.739,19.875Z" style="fill-rule:nonzero;"/>
            <path d="M21.485,19.918C21.304,19.918 21.161,19.832 21.052,19.659C20.945,19.486 20.891,19.257 20.891,18.971C20.891,18.661 20.946,18.418 21.059,18.243C21.17,18.069 21.323,17.981 21.512,17.981C21.695,17.981 21.837,18.067 21.94,18.236C22.041,18.406 22.092,18.641 22.092,18.943C22.092,19.238 22.037,19.474 21.927,19.652C21.817,19.829 21.669,19.918 21.485,19.918ZM21.499,18.231C21.374,18.231 21.273,18.295 21.2,18.425C21.128,18.555 21.091,18.733 21.091,18.961C21.091,19.18 21.128,19.353 21.202,19.48C21.276,19.605 21.375,19.669 21.499,19.669C21.625,19.669 21.723,19.607 21.79,19.483C21.859,19.359 21.892,19.182 21.892,18.953C21.892,18.722 21.859,18.544 21.79,18.418C21.723,18.293 21.625,18.231 21.499,18.231Z" style="fill-rule:nonzero;"/>
            <path d="M23.042,18.325C23.008,18.284 22.958,18.265 22.894,18.265C22.811,18.265 22.741,18.325 22.685,18.443C22.628,18.563 22.601,18.726 22.601,18.932L22.601,19.875L22.406,19.875L22.406,18.025L22.601,18.025L22.601,18.406L22.605,18.406C22.634,18.276 22.675,18.174 22.733,18.101C22.79,18.029 22.854,17.993 22.925,17.993C22.976,17.993 23.014,18.001 23.042,18.018L23.042,18.325Z" style="fill-rule:nonzero;"/>
            <path d="M24.235,19.024L23.373,19.024C23.376,19.23 23.413,19.389 23.483,19.501C23.553,19.613 23.649,19.669 23.772,19.669C23.909,19.669 24.035,19.6 24.151,19.463L24.151,19.741C24.044,19.86 23.901,19.918 23.725,19.918C23.552,19.918 23.417,19.834 23.318,19.666C23.219,19.498 23.171,19.262 23.171,18.957C23.171,18.669 23.225,18.434 23.332,18.253C23.439,18.072 23.574,17.981 23.733,17.981C23.893,17.981 24.016,18.059 24.104,18.216C24.192,18.372 24.235,18.59 24.235,18.869L24.235,19.024ZM24.035,18.773C24.034,18.601 24.007,18.469 23.953,18.373C23.899,18.278 23.825,18.231 23.729,18.231C23.637,18.231 23.559,18.28 23.495,18.381C23.431,18.481 23.391,18.612 23.376,18.773L24.035,18.773Z" style="fill-rule:nonzero;"/>
            <path d="M26.264,19.875L26.069,19.875L26.069,18.812C26.069,18.607 26.049,18.46 26.006,18.368C25.965,18.276 25.895,18.231 25.796,18.231C25.712,18.231 25.642,18.288 25.583,18.404C25.525,18.519 25.495,18.658 25.495,18.819L25.495,19.875L25.3,19.875L25.3,18.777C25.3,18.413 25.208,18.231 25.022,18.231C24.937,18.231 24.866,18.285 24.811,18.394C24.754,18.503 24.727,18.645 24.727,18.819L24.727,19.875L24.532,19.875L24.532,18.025L24.727,18.025L24.727,18.318L24.731,18.318C24.817,18.093 24.944,17.981 25.11,17.981C25.194,17.981 25.267,18.017 25.329,18.087C25.39,18.158 25.433,18.25 25.456,18.364C25.547,18.109 25.682,17.981 25.862,17.981C26.13,17.981 26.264,18.233 26.264,18.735L26.264,19.875Z" style="fill-rule:nonzero;"/>
        </g>
        <g id="g133703" serif:id="g13370">
            <path id="path51663" serif:id="path5166" d="M16.15,17.079L17.552,17.079C17.839,17.085 18.033,17.264 18.218,17.449C18.403,17.634 18.559,17.837 18.588,18.114L18.588,19.961C18.588,20.044 18.521,20.11 18.438,20.11L16.15,20.11C16.067,20.11 16,20.044 16,19.961L16,17.229C16,17.146 16.067,17.079 16.15,17.079Z" style="fill:url(#_Radial16);fill-rule:nonzero;stroke:black;stroke-width:0.07px;"/>
            <g id="path51683" serif:id="path5168">
                <path d="M16.15,17.116C16.087,17.116 16.037,17.166 16.037,17.23L16.037,19.96C16.037,20.024 16.087,20.074 16.15,20.074L18.437,20.074C18.501,20.074 18.551,20.024 18.551,19.96L18.551,18.114C18.551,18.011 18.515,17.797 18.377,17.659C18.229,17.511 18.155,17.438 18.008,17.29C17.87,17.152 17.655,17.116 17.552,17.116L16.15,17.116Z" style="fill:url(#_Radial17);fill-rule:nonzero;"/>
            </g>
            <g id="path51743" serif:id="path5174">
                <path d="M16.15,17.153C16.107,17.153 16.074,17.187 16.074,17.23L16.074,19.96C16.074,20.003 16.107,20.037 16.15,20.037L18.437,20.037C18.48,20.037 18.514,20.003 18.514,19.96L18.514,18.114C18.514,18.02 18.478,17.811 18.352,17.685C18.204,17.537 18.13,17.463 17.982,17.315C17.856,17.189 17.647,17.153 17.552,17.153L16.15,17.153Z" style="fill:none;fill-rule:nonzero;stroke:url(#_Linear18);stroke-width:0.07px;"/>
            </g>
            <path id="path51703" serif:id="path5170" d="M17.552,17.116C17.45,17.116 17.549,17.153 17.652,17.2C17.754,17.246 18.019,17.437 17.959,17.708C18.279,17.676 18.453,17.939 18.477,18.024C18.5,18.11 18.551,18.217 18.551,18.114C18.553,17.833 18.34,17.639 18.192,17.474C18.045,17.31 17.823,17.152 17.552,17.116Z" style="fill:url(#_Radial19);fill-rule:nonzero;"/>
            <path id="path51723" serif:id="path5172" d="M17.634,17.191C17.702,17.191 17.856,17.649 17.788,17.955C18.106,17.923 18.443,17.962 18.477,18.024C18.453,17.939 18.279,17.676 17.959,17.708C18.023,17.421 17.723,17.219 17.634,17.191Z" style="fill:url(#_Linear20);fill-rule:nonzero;"/>
        </g>
    </g>
    <g id="scrollbar">
        <path d="M2.198,22.5L27.911,22.5C28.848,22.5 29.609,23.284 29.609,24.25L29.609,27.75C29.609,28.716 28.848,29.5 27.911,29.5L2.198,29.5C1.261,29.5 0.5,28.716 0.5,27.75L0.5,24.25C0.5,23.284 1.261,22.5 2.198,22.5Z" style="fill:rgb(128,128,128);"/>
        <path d="M2.198,22.5L5.594,22.5C6.531,22.5 7.292,23.284 7.292,24.25L7.292,27.75C7.292,28.716 6.531,29.5 5.594,29.5L2.198,29.5C1.261,29.5 0.5,28.716 0.5,27.75L0.5,24.25C0.5,23.284 1.261,22.5 2.198,22.5Z" style="fill:rgb(191,191,191);"/>
        <path d="M25.243,22.5L28.154,22.5C28.957,22.5 29.609,23.172 29.609,24L29.609,28C29.609,28.828 28.957,29.5 28.154,29.5L25.243,29.5C24.439,29.5 23.787,28.828 23.787,28L23.787,24C23.787,23.172 24.439,22.5 25.243,22.5Z" style="fill:rgb(191,191,191);"/>
        <path d="M12,22.602L16.07,22.602C16.993,22.602 17.743,23.375 17.743,24.326L17.743,27.775C17.743,28.727 16.993,29.5 16.07,29.5L12,29.5C11.076,29.5 10.326,28.727 10.326,27.775L10.326,24.326C10.326,23.375 11.076,22.602 12,22.602Z" style="fill:rgb(139,173,243);"/>
        <path d="M2.071,26L5.13,24.301L5.13,27.699L2.071,26Z" style="stroke:black;stroke-width:0.24px;stroke-linecap:round;stroke-linejoin:round;stroke-miterlimit:1.5;"/>
        <path d="M28.302,26L25.243,27.699L25.243,24.301L28.302,26Z" style="stroke:black;stroke-width:0.24px;stroke-linecap:round;stroke-linejoin:round;stroke-miterlimit:1.5;"/>
    </g>
    <rect id="outer" x="0" y="0" width="30" height="30" style="fill:none;stroke:rgb(191,191,191);stroke-width:1px;stroke-linejoin:round;stroke-miterlimit:2;"/>
    <defs>
        <radialGradient id="_Radial1" cx="0" cy="0" r="1" gradientUnits="userSpaceOnUse" gradientTransform="matrix(5.31721,0,0,2.57498,17.9543,4.46402)"><stop offset="0" style="stop-color:rgb(246,246,245);stop-opacity:1"/><stop offset="1" style="stop-color:rgb(211,215,207);stop-opacity:1"/></radialGradient>
        <radialGradient id="_Radial2" cx="0" cy="0" r="1" gradientUnits="userSpaceOnUse" gradientTransform="matrix(2.37033,0,0,1.47858,16.0507,1.85804)"><stop offset="0" style="stop-color:white;stop-opacity:0.68"/><stop offset="1" style="stop-color:white;stop-opacity:0"/></radialGradient>
        <linearGradient id="_Linear3" x1="0" y1="0" x2="1" y2="0" gradientUnits="userSpaceOnUse" gradientTransform="matrix(0.148135,-0.138894,0.138894,0.148135,18.2128,2.56526)"><stop offset="0" style="stop-color:white;stop-opacity:1"/><stop offset="1" style="stop-color:white;stop-opacity:0"/></linearGradient>
        <radialGradient id="_Radial4" cx="0" cy="0" r="1" gradientUnits="userSpaceOnUse" gradientTransform="matrix(0.212064,-0.145682,0.390996,0.56916,18.0978,2.44755)"><stop offset="0" style="stop-color:white;stop-opacity:1"/><stop offset="0.48" style="stop-color:white;stop-opacity:1"/><stop offset="1" style="stop-color:white;stop-opacity:0"/></radialGradient>
        <linearGradient id="_Linear5" x1="0" y1="0" x2="1" y2="0" gradientUnits="userSpaceOnUse" gradientTransform="matrix(-0.695542,0.204881,-0.204881,-0.695542,18.7423,2.55881)"><stop offset="0" style="stop-color:black;stop-opacity:0.36"/><stop offset="1" style="stop-color:black;stop-opacity:0"/></linearGradient>
        <radialGradient id="_Radial6" cx="0" cy="0" r="1" gradientUnits="userSpaceOnUse" gradientTransform="matrix(5.31721,0,0,2.57498,17.8354,9.46402)"><stop offset="0" style="stop-color:rgb(246,246,245);stop-opacity:1"/><stop offset="1" style="stop-color:rgb(211,215,207);stop-opacity:1"/></radialGradient>
        <radialGradient id="_Radial7" cx="0" cy="0" r="1" gradientUnits="userSpaceOnUse" gradientTransform="matrix(2.37033,0,0,1.47858,15.9317,6.85804)"><stop offset="0" style="stop-color:white;stop-opacity:0.68"/><stop offset="1" style="stop-color:white;stop-opacity:0"/></radialGradient>
        <linearGradient id="_Linear8" x1="0" y1="0" x2="1" y2="0" gradientUnits="userSpaceOnUse" gradientTransform="matrix(0.148135,-0.138894,0.138894,0.148135,18.0938,7.56526)"><stop offset="0" style="stop-color:white;stop-opacity:1"/><stop offset="1" style="stop-color:white;stop-opacity:0"/></linearGradient>
        <radialGradient id="_Radial9" cx="0" cy="0" r="1" gradientUnits="userSpaceOnUse" gradientTransform="matrix(0.212064,-0.145682,0.390996,0.56916,17.9789,7.44755)"><stop offset="0" style="stop-color:white;stop-opacity:1"/><stop offset="0.48" style="stop-color:white;stop-opacity:1"/><stop offset="1" style="stop-color:white;stop-opacity:0"/></radialGradient>
        <linearGradient id="_Linear10" x1="0" y1="0" x2="1" y2="0" gradientUnits="userSpaceOnUse" gradientTransform="matrix(-0.695542,0.204881,-0.204881,-0.695542,18.6233,7.55881)"><stop offset="0" style="stop-color:black;stop-opacity:0.36"/><stop offset="1" style="stop-color:black;stop-opacity:0"/></linearGradient>
        <radialGradient id="_Radial11" cx="0" cy="0" r="1" gradientUnits="userSpaceOnUse" gradientTransform="matrix(5.31721,0,0,2.57498,17.7188,14.5773)"><stop offset="0" style="stop-color:rgb(246,246,245);stop-opacity:1"/><stop offset="1" style="stop-color:rgb(211,215,207);stop-opacity:1"/></radialGradient>
        <radialGradient id="_Radial12" cx="0" cy="0" r="1" gradientUnits="userSpaceOnUse" gradientTransform="matrix(2.37033,0,0,1.47858,15.8151,11.9714)"><stop offset="0" style="stop-color:white;stop-opacity:0.68"/><stop offset="1" style="stop-color:white;stop-opacity:0"/></radialGradient>
        <linearGradient id="_Linear13" x1="0" y1="0" x2="1" y2="0" gradientUnits="userSpaceOnUse" gradientTransform="matrix(0.148135,-0.138894,0.138894,0.148135,17.9773,12.6786)"><stop offset="0" style="stop-color:white;stop-opacity:1"/><stop offset="1" style="stop-color:white;stop-opacity:0"/></linearGradient>
        <radialGradient id="_Radial14" cx="0" cy="0" r="1" gradientUnits="userSpaceOnUse" gradientTransform="matrix(0.212064,-0.145682,0.390996,0.56916,17.8623,12.5609)"><stop offset="0" style="stop-color:white;stop-opacity:1"/><stop offset="0.48" style="stop-color:white;stop-opacity:1"/><stop offset="1" style="stop-color:white;stop-opacity:0"/></radialGradient>
        <linearGradient id="_Linear15" x1="0" y1="0" x2="1" y2="0" gradientUnits="userSpaceOnUse" gradientTransform="matrix(-0.695542,0.204881,-0.204881,-0.695542,18.5067,12.6721)"><stop offset="0" style="stop-color:black;stop-opacity:0.36"/><stop offset="1" style="stop-color:black;stop-opacity:0"/></linearGradient>
        <radialGradient id="_Radial16" cx="0" cy="0" r="1" gradientUnits="userSpaceOnUse" gradientTransform="matrix(5.31721,0,0,2.57498,17.7188,19.5745)"><stop offset="0" style="stop-color:rgb(246,246,245);stop-opacity:1"/><stop offset="1" style="stop-color:rgb(211,215,207);stop-opacity:1"/></radialGradient>
        <radialGradient id="_Radial17" cx="0" cy="0" r="1" gradientUnits="userSpaceOnUse" gradientTransform="matrix(2.37033,0,0,1.47858,15.8151,16.9685)"><stop offset="0" style="stop-color:white;stop-opacity:0.68"/><stop offset="1" style="stop-color:white;stop-opacity:0"/></radialGradient>
        <linearGradient id="_Linear18" x1="0" y1="0" x2="1" y2="0" gradientUnits="userSpaceOnUse" gradientTransform="matrix(0.148135,-0.138894,0.138894,0.148135,17.9773,17.6757)"><stop offset="0" style="stop-color:white;stop-opacity:1"/><stop offset="1" style="stop-color:white;stop-opacity:0"/></linearGradient>
        <radialGradient id="_Radial19" cx="0" cy="0" r="1" gradientUnits="userSpaceOnUse" gradientTransform="matrix(0.212064,-0.145682,0.390996,0.56916,17.8623,17.558)"><stop offset="0" style="stop-color:white;stop-opacity:1"/><stop offset="0.48" style="stop-color:white;stop-opacity:1"/><stop offset="1" style="stop-color:white;stop-opacity:0"/></radialGradient>
        <linearGradient id="_Linear20" x1="0" y1="0" x2="1" y2="0" gradientUnits="userSpaceOnUse" gradientTransform="matrix(-0.695542,0.204881,-0.204881,-0.695542,18.5067,17.6693)"><stop offset="0" style="stop-color:black;stop-opacity:0.36"/><stop offset="1" style="stop-color:black;stop-opacity:0"/></linearGradient>
    </defs>
</svg>
