<?xml version="1.0" encoding="UTF-8" standalone="no"?>
<!DOCTYPE svg PUBLIC "-//W3C//DTD SVG 1.1//EN" "http://www.w3.org/Graphics/SVG/1.1/DTD/svg11.dtd">
<svg width="30px" height="30px" version="1.1" xmlns="http://www.w3.org/2000/svg" xmlns:xlink="http://www.w3.org/1999/xlink" xml:space="preserve" xmlns:serif="http://www.serif.com/" style="fill-rule:evenodd;clip-rule:evenodd;">
    <g id="window">
        <path d="M29.952,29.532C29.952,29.79 29.822,30 29.662,30L0.29,30C0.13,30 0,29.79 0,29.532L0,0.468C0,0.21 0.13,0 0.29,0L29.662,0C29.822,0 29.952,0.21 29.952,0.468L29.952,29.532Z" style="fill:url(#_Linear1);fill-rule:nonzero;stroke:rgb(7,0,1);stroke-width:0.06px;"/>
        <rect x="0.387" y="6.272" width="29.179" height="23.26" style="fill:rgb(244,242,241);stroke:rgb(35,24,21);stroke-width:0.12px;"/>
        <path d="M28.976,4.974L28.408,4.974L27.493,3.449C27.466,3.402 27.435,3.337 27.402,3.251L27.391,3.251C27.372,3.294 27.341,3.36 27.297,3.449L26.354,4.974L25.784,4.974L27.114,2.971L25.889,0.99L26.46,0.99L27.272,2.39C27.325,2.483 27.372,2.575 27.413,2.668L27.424,2.668C27.483,2.546 27.535,2.449 27.579,2.379L28.425,0.99L28.959,0.99L27.71,2.965L28.976,4.974Z" style="fill:white;fill-rule:nonzero;"/>
        <path d="M2.015,4.269L0.622,4.269L0.622,0.964L0.936,0.964L0.936,3.919L2.015,3.919L2.015,4.269Z" style="fill-rule:nonzero;"/>
        <path d="M3.188,4.324C2.904,4.324 2.678,4.214 2.509,3.994C2.34,3.773 2.255,3.481 2.255,3.117C2.255,2.72 2.343,2.41 2.519,2.188C2.695,1.965 2.933,1.853 3.233,1.853C3.519,1.853 3.742,1.962 3.902,2.178C4.063,2.395 4.143,2.695 4.143,3.08C4.143,3.456 4.057,3.758 3.884,3.984C3.711,4.211 3.479,4.324 3.188,4.324ZM3.21,2.171C3.013,2.171 2.857,2.254 2.742,2.419C2.627,2.584 2.57,2.812 2.57,3.103C2.57,3.382 2.628,3.603 2.744,3.764C2.86,3.926 3.016,4.006 3.21,4.006C3.409,4.006 3.562,3.927 3.668,3.769C3.775,3.611 3.828,3.385 3.828,3.093C3.828,2.798 3.775,2.571 3.668,2.411C3.562,2.251 3.409,2.171 3.21,2.171Z" style="fill-rule:nonzero;"/>
        <path d="M5.634,2.291C5.581,2.241 5.503,2.215 5.402,2.215C5.271,2.215 5.161,2.291 5.073,2.443C4.985,2.596 4.941,2.803 4.941,3.066L4.941,4.269L4.634,4.269L4.634,1.909L4.941,1.909L4.941,2.395L4.949,2.395C4.992,2.229 5.059,2.1 5.149,2.007C5.239,1.914 5.34,1.867 5.451,1.867C5.531,1.867 5.592,1.878 5.634,1.899L5.634,2.291Z" style="fill-rule:nonzero;"/>
        <path d="M7.509,3.183L6.155,3.183C6.16,3.446 6.217,3.649 6.327,3.792C6.437,3.935 6.588,4.006 6.781,4.006C6.997,4.006 7.195,3.919 7.376,3.744L7.376,4.098C7.208,4.249 6.985,4.324 6.708,4.324C6.437,4.324 6.224,4.217 6.069,4.003C5.914,3.788 5.837,3.487 5.837,3.098C5.837,2.731 5.921,2.431 6.09,2.2C6.26,1.969 6.47,1.853 6.721,1.853C6.972,1.853 7.166,1.953 7.303,2.153C7.441,2.353 7.509,2.63 7.509,2.985L7.509,3.183ZM7.195,2.863C7.193,2.645 7.151,2.475 7.066,2.354C6.982,2.232 6.865,2.171 6.715,2.171C6.57,2.171 6.447,2.235 6.346,2.363C6.245,2.49 6.182,2.657 6.159,2.863L7.195,2.863Z" style="fill-rule:nonzero;"/>
        <path d="M10.697,4.269L10.39,4.269L10.39,2.914C10.39,2.652 10.358,2.463 10.292,2.347C10.226,2.23 10.116,2.171 9.961,2.171C9.83,2.171 9.719,2.245 9.627,2.393C9.535,2.54 9.489,2.717 9.489,2.923L9.489,4.269L9.182,4.269L9.182,2.868C9.182,2.403 9.037,2.171 8.746,2.171C8.611,2.171 8.5,2.241 8.412,2.38C8.325,2.519 8.281,2.7 8.281,2.923L8.281,4.269L7.974,4.269L7.974,1.909L8.281,1.909L8.281,2.282L8.289,2.282C8.425,1.996 8.623,1.853 8.884,1.853C9.015,1.853 9.13,1.898 9.227,1.988C9.324,2.078 9.391,2.196 9.427,2.342C9.57,2.016 9.782,1.853 10.064,1.853C10.486,1.853 10.697,2.174 10.697,2.815L10.697,4.269Z" style="fill-rule:nonzero;"/>
        <rect x="12.37" y="0.964" width="0.315" height="3.306" style="fill-rule:nonzero;"/>
        <path d="M13.665,3.928L13.657,3.928L13.657,5.355L13.35,5.355L13.35,1.909L13.657,1.909L13.657,2.324L13.665,2.324C13.816,2.01 14.037,1.853 14.328,1.853C14.575,1.853 14.768,1.959 14.907,2.17C15.045,2.382 15.114,2.665 15.114,3.02C15.114,3.415 15.036,3.731 14.88,3.968C14.724,4.206 14.511,4.324 14.24,4.324C13.991,4.324 13.799,4.192 13.665,3.928ZM13.657,2.976L13.657,3.306C13.657,3.501 13.709,3.666 13.812,3.802C13.915,3.938 14.046,4.006 14.204,4.006C14.39,4.006 14.536,3.919 14.641,3.744C14.747,3.568 14.8,3.325 14.8,3.013C14.8,2.75 14.75,2.544 14.652,2.395C14.553,2.246 14.42,2.171 14.251,2.171C14.072,2.171 13.929,2.248 13.82,2.401C13.711,2.554 13.657,2.745 13.657,2.976Z" style="fill-rule:nonzero;"/>
        <path d="M15.489,4.184L15.489,3.778C15.656,3.93 15.841,4.006 16.042,4.006C16.311,4.006 16.446,3.896 16.446,3.674C16.446,3.611 16.435,3.558 16.412,3.514C16.389,3.47 16.357,3.432 16.318,3.398C16.279,3.364 16.232,3.334 16.179,3.307C16.126,3.28 16.069,3.252 16.008,3.223C15.923,3.181 15.848,3.139 15.784,3.097C15.72,3.055 15.666,3.007 15.623,2.954C15.58,2.901 15.547,2.841 15.526,2.773C15.504,2.705 15.493,2.626 15.493,2.536C15.493,2.425 15.513,2.327 15.555,2.242C15.596,2.156 15.651,2.085 15.72,2.027C15.788,1.97 15.867,1.926 15.955,1.897C16.043,1.868 16.133,1.853 16.227,1.853C16.393,1.853 16.542,1.889 16.673,1.959L16.673,2.342C16.532,2.228 16.37,2.171 16.186,2.171C16.128,2.171 16.077,2.179 16.03,2.196C15.984,2.212 15.945,2.234 15.912,2.264C15.878,2.293 15.853,2.328 15.835,2.368C15.817,2.409 15.808,2.454 15.808,2.503C15.808,2.565 15.817,2.616 15.835,2.658C15.853,2.699 15.879,2.736 15.914,2.768C15.949,2.801 15.992,2.83 16.042,2.856C16.092,2.882 16.148,2.911 16.212,2.941C16.297,2.981 16.373,3.022 16.441,3.065C16.508,3.107 16.566,3.155 16.613,3.208C16.66,3.261 16.697,3.322 16.723,3.391C16.748,3.46 16.761,3.542 16.761,3.637C16.761,3.754 16.74,3.856 16.698,3.942C16.656,4.028 16.601,4.099 16.531,4.156C16.461,4.213 16.38,4.255 16.289,4.283C16.198,4.311 16.102,4.324 16.002,4.324C15.805,4.324 15.634,4.278 15.489,4.184Z" style="fill-rule:nonzero;"/>
        <path d="M18.784,4.269L18.477,4.269L18.477,3.896L18.469,3.896C18.342,4.181 18.145,4.324 17.877,4.324C17.42,4.324 17.192,3.989 17.192,3.319L17.192,1.909L17.497,1.909L17.497,3.259C17.497,3.757 17.652,4.006 17.962,4.006C18.112,4.006 18.235,3.938 18.332,3.802C18.428,3.666 18.477,3.488 18.477,3.269L18.477,1.909L18.784,1.909L18.784,4.269Z" style="fill-rule:nonzero;"/>
        <path d="M22.128,4.269L21.821,4.269L21.821,2.914C21.821,2.652 21.788,2.463 21.722,2.347C21.657,2.23 21.546,2.171 21.392,2.171C21.26,2.171 21.149,2.245 21.057,2.393C20.965,2.54 20.92,2.717 20.92,2.923L20.92,4.269L20.612,4.269L20.612,2.868C20.612,2.403 20.467,2.171 20.176,2.171C20.041,2.171 19.93,2.241 19.842,2.38C19.755,2.519 19.711,2.7 19.711,2.923L19.711,4.269L19.404,4.269L19.404,1.909L19.711,1.909L19.711,2.282L19.719,2.282C19.855,1.996 20.053,1.853 20.314,1.853C20.446,1.853 20.56,1.898 20.657,1.988C20.755,2.078 20.821,2.196 20.858,2.342C21,2.016 21.212,1.853 21.495,1.853C21.917,1.853 22.128,2.174 22.128,2.815L22.128,4.269Z" style="fill-rule:nonzero;"/>
        <path d="M24.216,1.909L23.452,4.269L23.15,4.269L22.424,1.909L22.761,1.909L23.248,3.624C23.284,3.75 23.307,3.86 23.315,3.953L23.323,3.953C23.335,3.835 23.355,3.728 23.383,3.633L23.892,1.909L24.216,1.909Z" style="fill-rule:nonzero;"/>
    </g>
    <defs>
        <linearGradient id="_Linear1" x1="0" y1="0" x2="1" y2="0" gradientUnits="userSpaceOnUse" gradientTransform="matrix(1.8322e-15,-30.0001,29.9221,1.83698e-15,14.976,30)"><stop offset="0" style="stop-color:rgb(62,77,151);stop-opacity:1"/><stop offset="0.11" style="stop-color:rgb(39,68,146);stop-opacity:1"/><stop offset="0.2" style="stop-color:rgb(21,64,143);stop-opacity:1"/><stop offset="0.25" style="stop-color:rgb(26,67,145);stop-opacity:1"/><stop offset="0.4" style="stop-color:rgb(35,74,149);stop-opacity:1"/><stop offset="0.71" style="stop-color:rgb(33,81,154);stop-opacity:1"/><stop offset="0.77" style="stop-color:rgb(33,82,155);stop-opacity:1"/><stop offset="0.81" style="stop-color:rgb(35,83,156);stop-opacity:1"/><stop offset="0.85" style="stop-color:rgb(59,96,165);stop-opacity:1"/><stop offset="0.89" style="stop-color:rgb(44,88,159);stop-opacity:1"/><stop offset="0.94" style="stop-color:rgb(77,108,172);stop-opacity:1"/><stop offset="0.98" style="stop-color:rgb(97,125,183);stop-opacity:1"/><stop offset="0.99" style="stop-color:rgb(123,150,199);stop-opacity:1"/><stop offset="1" style="stop-color:rgb(154,178,217);stop-opacity:1"/><stop offset="1" style="stop-color:rgb(155,179,217);stop-opacity:1"/></linearGradient>
    </defs>
</svg>
