<?xml version="1.0" encoding="UTF-8" standalone="no"?>
<!DOCTYPE svg PUBLIC "-//W3C//DTD SVG 1.1//EN" "http://www.w3.org/Graphics/SVG/1.1/DTD/svg11.dtd">
<svg width="30px" height="30px" version="1.1" xmlns="http://www.w3.org/2000/svg" xmlns:xlink="http://www.w3.org/1999/xlink" xml:space="preserve" xmlns:serif="http://www.serif.com/" style="fill-rule:evenodd;clip-rule:evenodd;">
    <g id="window">
        <path d="M29.952,29.532C29.952,29.79 29.822,30 29.662,30L0.29,30C0.13,30 0,29.79 0,29.532L0,0.468C0,0.21 0.13,0 0.29,0L29.662,0C29.822,0 29.952,0.21 29.952,0.468L29.952,29.532Z" style="fill:url(#_Linear1);fill-rule:nonzero;stroke:rgb(7,0,1);stroke-width:0.06px;"/>
        <rect x="0.387" y="6.272" width="29.179" height="23.26" style="fill:rgb(244,242,241);stroke:rgb(35,24,21);stroke-width:0.12px;"/>
        <path d="M28.976,4.974L28.408,4.974L27.493,3.449C27.466,3.402 27.435,3.337 27.402,3.251L27.391,3.251C27.372,3.294 27.341,3.36 27.297,3.449L26.354,4.974L25.784,4.974L27.114,2.971L25.889,0.99L26.46,0.99L27.272,2.39C27.325,2.483 27.372,2.575 27.413,2.668L27.424,2.668C27.483,2.546 27.535,2.449 27.579,2.379L28.425,0.99L28.959,0.99L27.71,2.965L28.976,4.974Z" style="fill:white;fill-rule:nonzero;"/>
        <g id="title-text" serif:id="title text">
            <path d="M2.393,4.414L1,4.414L1,1.109L1.314,1.109L1.314,4.064L2.393,4.064L2.393,4.414Z" style="fill:white;fill-rule:nonzero;"/>
            <path d="M3.566,4.469C3.282,4.469 3.056,4.359 2.887,4.139C2.718,3.918 2.633,3.626 2.633,3.262C2.633,2.865 2.721,2.555 2.897,2.333C3.073,2.11 3.311,1.998 3.611,1.998C3.897,1.998 4.12,2.107 4.28,2.323C4.441,2.54 4.521,2.84 4.521,3.225C4.521,3.601 4.435,3.903 4.262,4.129C4.089,4.356 3.857,4.469 3.566,4.469ZM3.588,2.316C3.391,2.316 3.235,2.399 3.12,2.564C3.005,2.729 2.948,2.957 2.948,3.248C2.948,3.527 3.006,3.748 3.122,3.909C3.238,4.071 3.394,4.151 3.588,4.151C3.787,4.151 3.94,4.072 4.046,3.914C4.153,3.756 4.206,3.53 4.206,3.238C4.206,2.943 4.153,2.716 4.046,2.556C3.94,2.396 3.787,2.316 3.588,2.316Z" style="fill:white;fill-rule:nonzero;"/>
            <path d="M6.012,2.436C5.959,2.386 5.881,2.36 5.78,2.36C5.649,2.36 5.539,2.436 5.451,2.588C5.363,2.741 5.319,2.948 5.319,3.211L5.319,4.414L5.012,4.414L5.012,2.054L5.319,2.054L5.319,2.54L5.327,2.54C5.37,2.374 5.437,2.245 5.527,2.152C5.617,2.059 5.718,2.012 5.829,2.012C5.909,2.012 5.97,2.023 6.012,2.044L6.012,2.436Z" style="fill:white;fill-rule:nonzero;"/>
            <path d="M7.887,3.328L6.533,3.328C6.538,3.591 6.595,3.794 6.705,3.937C6.815,4.08 6.966,4.151 7.159,4.151C7.375,4.151 7.573,4.064 7.754,3.889L7.754,4.243C7.586,4.394 7.363,4.469 7.086,4.469C6.815,4.469 6.602,4.362 6.447,4.148C6.292,3.933 6.215,3.632 6.215,3.243C6.215,2.876 6.299,2.576 6.468,2.345C6.638,2.114 6.848,1.998 7.099,1.998C7.35,1.998 7.544,2.098 7.681,2.298C7.819,2.498 7.887,2.775 7.887,3.13L7.887,3.328ZM7.573,3.008C7.571,2.79 7.529,2.62 7.444,2.499C7.36,2.377 7.243,2.316 7.093,2.316C6.948,2.316 6.825,2.38 6.724,2.508C6.623,2.635 6.56,2.802 6.537,3.008L7.573,3.008Z" style="fill:white;fill-rule:nonzero;"/>
            <path d="M11.075,4.414L10.768,4.414L10.768,3.059C10.768,2.797 10.736,2.608 10.67,2.492C10.604,2.375 10.494,2.316 10.339,2.316C10.208,2.316 10.097,2.39 10.005,2.538C9.913,2.685 9.867,2.862 9.867,3.068L9.867,4.414L9.56,4.414L9.56,3.013C9.56,2.548 9.415,2.316 9.124,2.316C8.989,2.316 8.878,2.386 8.79,2.525C8.703,2.664 8.659,2.845 8.659,3.068L8.659,4.414L8.352,4.414L8.352,2.054L8.659,2.054L8.659,2.427L8.667,2.427C8.803,2.141 9.001,1.998 9.262,1.998C9.393,1.998 9.508,2.043 9.605,2.133C9.702,2.223 9.769,2.341 9.805,2.487C9.948,2.161 10.16,1.998 10.442,1.998C10.864,1.998 11.075,2.319 11.075,2.96L11.075,4.414Z" style="fill:white;fill-rule:nonzero;"/>
            <rect x="12.748" y="1.109" width="0.315" height="3.306" style="fill:white;"/>
            <path d="M14.043,4.073L14.035,4.073L14.035,5.5L13.728,5.5L13.728,2.054L14.035,2.054L14.035,2.469L14.043,2.469C14.194,2.155 14.415,1.998 14.706,1.998C14.953,1.998 15.146,2.104 15.285,2.315C15.423,2.527 15.492,2.81 15.492,3.165C15.492,3.56 15.414,3.876 15.258,4.113C15.102,4.351 14.889,4.469 14.618,4.469C14.369,4.469 14.177,4.337 14.043,4.073ZM14.035,3.121L14.035,3.451C14.035,3.646 14.087,3.811 14.19,3.947C14.293,4.083 14.424,4.151 14.582,4.151C14.768,4.151 14.914,4.064 15.019,3.889C15.125,3.713 15.178,3.47 15.178,3.158C15.178,2.895 15.128,2.689 15.03,2.54C14.931,2.391 14.798,2.316 14.629,2.316C14.45,2.316 14.307,2.393 14.198,2.546C14.089,2.699 14.035,2.89 14.035,3.121Z" style="fill:white;fill-rule:nonzero;"/>
            <path d="M15.867,4.329L15.867,3.923C16.034,4.075 16.219,4.151 16.42,4.151C16.689,4.151 16.824,4.041 16.824,3.819C16.824,3.756 16.813,3.703 16.79,3.659C16.767,3.615 16.735,3.577 16.696,3.543C16.657,3.509 16.61,3.479 16.557,3.452C16.504,3.425 16.447,3.397 16.386,3.368C16.301,3.326 16.226,3.284 16.162,3.242C16.098,3.2 16.044,3.152 16.001,3.099C15.958,3.046 15.925,2.986 15.904,2.918C15.882,2.85 15.871,2.771 15.871,2.681C15.871,2.57 15.891,2.472 15.933,2.387C15.974,2.301 16.029,2.23 16.098,2.172C16.166,2.115 16.245,2.071 16.333,2.042C16.421,2.013 16.511,1.998 16.605,1.998C16.771,1.998 16.92,2.034 17.051,2.104L17.051,2.487C16.91,2.373 16.748,2.316 16.564,2.316C16.506,2.316 16.455,2.324 16.408,2.341C16.362,2.357 16.323,2.379 16.29,2.409C16.256,2.438 16.231,2.473 16.213,2.513C16.195,2.554 16.186,2.599 16.186,2.648C16.186,2.71 16.195,2.761 16.213,2.803C16.231,2.844 16.257,2.881 16.292,2.913C16.327,2.946 16.37,2.975 16.42,3.001C16.47,3.027 16.526,3.056 16.59,3.086C16.675,3.126 16.751,3.167 16.819,3.21C16.886,3.252 16.944,3.3 16.991,3.353C17.038,3.406 17.075,3.467 17.101,3.536C17.126,3.605 17.139,3.687 17.139,3.782C17.139,3.899 17.118,4.001 17.076,4.087C17.034,4.173 16.979,4.244 16.909,4.301C16.839,4.358 16.758,4.4 16.667,4.428C16.576,4.456 16.48,4.469 16.38,4.469C16.183,4.469 16.012,4.423 15.867,4.329Z" style="fill:white;fill-rule:nonzero;"/>
            <path d="M19.162,4.414L18.855,4.414L18.855,4.041L18.847,4.041C18.72,4.326 18.523,4.469 18.255,4.469C17.798,4.469 17.57,4.134 17.57,3.464L17.57,2.054L17.875,2.054L17.875,3.404C17.875,3.902 18.03,4.151 18.34,4.151C18.49,4.151 18.613,4.083 18.71,3.947C18.806,3.811 18.855,3.633 18.855,3.414L18.855,2.054L19.162,2.054L19.162,4.414Z" style="fill:white;fill-rule:nonzero;"/>
            <path d="M22.506,4.414L22.199,4.414L22.199,3.059C22.199,2.797 22.166,2.608 22.1,2.492C22.035,2.375 21.924,2.316 21.77,2.316C21.638,2.316 21.527,2.39 21.435,2.538C21.343,2.685 21.298,2.862 21.298,3.068L21.298,4.414L20.99,4.414L20.99,3.013C20.99,2.548 20.845,2.316 20.554,2.316C20.419,2.316 20.308,2.386 20.22,2.525C20.133,2.664 20.089,2.845 20.089,3.068L20.089,4.414L19.782,4.414L19.782,2.054L20.089,2.054L20.089,2.427L20.097,2.427C20.233,2.141 20.431,1.998 20.692,1.998C20.824,1.998 20.938,2.043 21.035,2.133C21.133,2.223 21.199,2.341 21.236,2.487C21.378,2.161 21.59,1.998 21.873,1.998C22.295,1.998 22.506,2.319 22.506,2.96L22.506,4.414Z" style="fill:white;fill-rule:nonzero;"/>
            <path d="M24.594,2.054L23.83,4.414L23.528,4.414L22.802,2.054L23.139,2.054L23.626,3.769C23.662,3.895 23.685,4.005 23.693,4.098L23.701,4.098C23.713,3.98 23.733,3.873 23.761,3.778L24.27,2.054L24.594,2.054Z" style="fill:white;fill-rule:nonzero;"/>
        </g>
    </g>
    <defs>
        <linearGradient id="_Linear1" x1="0" y1="0" x2="1" y2="0" gradientUnits="userSpaceOnUse" gradientTransform="matrix(1.83698e-15,-30.0001,30.0001,1.83698e-15,14.976,30)"><stop offset="0" style="stop-color:rgb(62,77,151);stop-opacity:1"/><stop offset="0.11" style="stop-color:rgb(39,68,146);stop-opacity:1"/><stop offset="0.2" style="stop-color:rgb(21,64,143);stop-opacity:1"/><stop offset="0.25" style="stop-color:rgb(26,67,145);stop-opacity:1"/><stop offset="0.4" style="stop-color:rgb(35,74,149);stop-opacity:1"/><stop offset="0.71" style="stop-color:rgb(33,81,154);stop-opacity:1"/><stop offset="0.77" style="stop-color:rgb(33,82,155);stop-opacity:1"/><stop offset="0.81" style="stop-color:rgb(35,83,156);stop-opacity:1"/><stop offset="0.85" style="stop-color:rgb(59,96,165);stop-opacity:1"/><stop offset="0.89" style="stop-color:rgb(44,88,159);stop-opacity:1"/><stop offset="0.94" style="stop-color:rgb(77,108,172);stop-opacity:1"/><stop offset="0.98" style="stop-color:rgb(97,125,183);stop-opacity:1"/><stop offset="0.99" style="stop-color:rgb(123,150,199);stop-opacity:1"/><stop offset="1" style="stop-color:rgb(154,178,217);stop-opacity:1"/><stop offset="1" style="stop-color:rgb(155,179,217);stop-opacity:1"/></linearGradient>
    </defs>
</svg>
