<?xml version="1.0" encoding="UTF-8" standalone="no"?>
<!DOCTYPE svg PUBLIC "-//W3C//DTD SVG 1.1//EN" "http://www.w3.org/Graphics/SVG/1.1/DTD/svg11.dtd">
<svg width="30px" height="30px" version="1.1" xmlns="http://www.w3.org/2000/svg" xmlns:xlink="http://www.w3.org/1999/xlink" xml:space="preserve" xmlns:serif="http://www.serif.com/" style="fill-rule:evenodd;clip-rule:evenodd;stroke-linejoin:round;stroke-miterlimit:2;">
    <rect id="outer" x="0" y="0" width="30" height="30" style="fill:white;stroke:rgb(128,128,128);stroke-width:1px;"/>
    <g id="scrollbar">
        <path d="M28.725,2.722L28.725,27.526C28.725,28.615 27.945,29.5 26.984,29.5L23.501,29.5C22.54,29.5 21.76,28.615 21.76,27.526L21.76,2.722C21.76,1.632 22.54,0.748 23.501,0.748L26.984,0.748C27.945,0.748 28.725,1.632 28.725,2.722Z" style="fill:rgb(128,128,128);"/>
        <path d="M28.725,2.425L28.725,5.779C28.725,6.705 28.063,7.457 27.246,7.457L23.239,7.457C22.423,7.457 21.76,6.705 21.76,5.779L21.76,2.425C21.76,1.499 22.423,0.748 23.239,0.748L27.246,0.748C28.063,0.748 28.725,1.499 28.725,2.425Z" style="fill:rgb(191,191,191);"/>
        <path d="M28.725,25.187L28.725,28.062C28.725,28.856 28.157,29.5 27.457,29.5L23.028,29.5C22.328,29.5 21.76,28.856 21.76,28.062L21.76,25.187C21.76,24.394 22.328,23.75 23.028,23.75L27.457,23.75C28.157,23.75 28.725,24.394 28.725,25.187Z" style="fill:rgb(191,191,191);"/>
        <path d="M28.624,12.285L28.624,15.948C28.624,16.959 27.9,17.78 27.008,17.78L23.375,17.78C22.484,17.78 21.76,16.959 21.76,15.948L21.76,12.285C21.76,11.275 22.484,10.454 23.375,10.454L27.008,10.454C27.9,10.454 28.624,11.275 28.624,12.285Z" style="fill:rgb(139,173,243);"/>
        <path d="M25.243,28.339L23.552,25.318L26.933,25.318L25.243,28.339Z" style="stroke:black;stroke-width:0.22px;stroke-linecap:round;stroke-miterlimit:1.5;"/>
        <path d="M25.243,2.3L26.933,5.321L23.552,5.321L25.243,2.3Z" style="stroke:black;stroke-width:0.22px;stroke-linecap:round;stroke-miterlimit:1.5;"/>
    </g>
    <g id="text">
        <path d="M2.012,4.608L0.814,4.608L0.814,1.311L1.085,1.311L1.085,4.259L2.012,4.259L2.012,4.608Z" style="fill-rule:nonzero;"/>
        <path d="M3.02,4.664C2.777,4.664 2.582,4.554 2.437,4.334C2.291,4.114 2.218,3.822 2.218,3.459C2.218,3.063 2.294,2.755 2.445,2.532C2.597,2.31 2.801,2.199 3.059,2.199C3.305,2.199 3.497,2.307 3.634,2.523C3.772,2.739 3.841,3.039 3.841,3.422C3.841,3.798 3.767,4.098 3.618,4.325C3.47,4.551 3.27,4.664 3.02,4.664ZM3.04,2.516C2.87,2.516 2.736,2.599 2.637,2.763C2.538,2.928 2.489,3.155 2.489,3.445C2.489,3.724 2.539,3.944 2.639,4.105C2.738,4.266 2.872,4.346 3.04,4.346C3.21,4.346 3.341,4.267 3.433,4.11C3.525,3.952 3.571,3.727 3.571,3.436C3.571,3.142 3.525,2.915 3.433,2.755C3.341,2.596 3.21,2.516 3.04,2.516Z" style="fill-rule:nonzero;"/>
        <path d="M5.123,2.636C5.077,2.585 5.01,2.56 4.923,2.56C4.811,2.56 4.716,2.636 4.641,2.788C4.565,2.939 4.527,3.146 4.527,3.408L4.527,4.608L4.263,4.608L4.263,2.254L4.527,2.254L4.527,2.739L4.534,2.739C4.571,2.574 4.629,2.445 4.706,2.352C4.783,2.259 4.87,2.213 4.965,2.213C5.034,2.213 5.086,2.223 5.123,2.245L5.123,2.636Z" style="fill-rule:nonzero;"/>
        <path d="M6.735,3.526L5.571,3.526C5.575,3.788 5.624,3.99 5.719,4.133C5.813,4.275 5.943,4.346 6.108,4.346C6.294,4.346 6.465,4.259 6.62,4.084L6.62,4.438C6.475,4.589 6.284,4.664 6.046,4.664C5.813,4.664 5.63,4.557 5.496,4.343C5.363,4.129 5.297,3.828 5.297,3.44C5.297,3.074 5.37,2.776 5.515,2.545C5.66,2.314 5.841,2.199 6.057,2.199C6.273,2.199 6.439,2.299 6.558,2.498C6.676,2.697 6.735,2.974 6.735,3.328L6.735,3.526ZM6.464,3.206C6.463,2.988 6.426,2.819 6.354,2.698C6.281,2.577 6.181,2.516 6.052,2.516C5.927,2.516 5.822,2.58 5.735,2.707C5.648,2.834 5.594,3.001 5.574,3.206L6.464,3.206Z" style="fill-rule:nonzero;"/>
        <path d="M9.475,4.608L9.211,4.608L9.211,3.257C9.211,2.996 9.183,2.807 9.126,2.691C9.07,2.574 8.975,2.516 8.842,2.516C8.729,2.516 8.634,2.59 8.555,2.737C8.476,2.884 8.436,3.06 8.436,3.266L8.436,4.608L8.172,4.608L8.172,3.211C8.172,2.748 8.047,2.516 7.797,2.516C7.681,2.516 7.586,2.586 7.511,2.724C7.436,2.863 7.398,3.044 7.398,3.266L7.398,4.608L7.134,4.608L7.134,2.254L7.398,2.254L7.398,2.627L7.404,2.627C7.521,2.341 7.692,2.199 7.916,2.199C8.029,2.199 8.127,2.244 8.211,2.333C8.295,2.423 8.352,2.541 8.383,2.686C8.506,2.361 8.688,2.199 8.931,2.199C9.294,2.199 9.475,2.519 9.475,3.158L9.475,4.608Z" style="fill-rule:nonzero;"/>
        <rect x="10.913" y="1.311" width="0.27" height="3.297" style="fill-rule:nonzero;"/>
        <path d="M12.025,4.268L12.019,4.268L12.019,5.691L11.755,5.691L11.755,2.254L12.019,2.254L12.019,2.668L12.025,2.668C12.155,2.355 12.345,2.199 12.595,2.199C12.808,2.199 12.974,2.304 13.093,2.515C13.212,2.726 13.271,3.008 13.271,3.362C13.271,3.756 13.204,4.072 13.07,4.308C12.936,4.545 12.752,4.664 12.52,4.664C12.306,4.664 12.141,4.532 12.025,4.268ZM12.019,3.319L12.019,3.647C12.019,3.842 12.063,4.007 12.152,4.143C12.24,4.279 12.353,4.346 12.489,4.346C12.649,4.346 12.774,4.259 12.865,4.084C12.956,3.91 13.001,3.667 13.001,3.355C13.001,3.093 12.959,2.888 12.874,2.739C12.789,2.591 12.674,2.516 12.529,2.516C12.376,2.516 12.252,2.592 12.159,2.745C12.066,2.898 12.019,3.089 12.019,3.319Z" style="fill-rule:nonzero;"/>
        <path d="M13.593,4.523L13.593,4.119C13.737,4.27 13.896,4.346 14.068,4.346C14.3,4.346 14.416,4.236 14.416,4.015C14.416,3.952 14.406,3.899 14.386,3.855C14.367,3.812 14.34,3.773 14.306,3.739C14.272,3.706 14.232,3.675 14.187,3.649C14.141,3.622 14.092,3.594 14.039,3.565C13.966,3.523 13.902,3.481 13.847,3.439C13.792,3.397 13.746,3.35 13.709,3.297C13.672,3.244 13.644,3.184 13.625,3.116C13.606,3.049 13.597,2.97 13.597,2.879C13.597,2.769 13.614,2.671 13.65,2.586C13.685,2.501 13.732,2.43 13.792,2.373C13.851,2.315 13.918,2.272 13.994,2.243C14.069,2.214 14.147,2.199 14.228,2.199C14.371,2.199 14.498,2.234 14.611,2.305L14.611,2.686C14.49,2.573 14.35,2.516 14.192,2.516C14.143,2.516 14.099,2.524 14.059,2.54C14.019,2.556 13.985,2.579 13.957,2.608C13.928,2.637 13.906,2.672 13.891,2.713C13.875,2.753 13.867,2.798 13.867,2.847C13.867,2.909 13.875,2.96 13.891,3.001C13.906,3.043 13.929,3.08 13.959,3.112C13.989,3.144 14.026,3.173 14.068,3.199C14.111,3.225 14.16,3.253 14.215,3.284C14.288,3.324 14.353,3.365 14.411,3.407C14.469,3.449 14.519,3.497 14.56,3.55C14.6,3.603 14.632,3.664 14.654,3.732C14.676,3.801 14.687,3.883 14.687,3.978C14.687,4.095 14.669,4.196 14.633,4.282C14.597,4.368 14.549,4.439 14.489,4.496C14.429,4.553 14.359,4.595 14.281,4.622C14.203,4.65 14.121,4.664 14.035,4.664C13.865,4.664 13.718,4.617 13.593,4.523Z" style="fill-rule:nonzero;"/>
        <path d="M16.426,4.608L16.162,4.608L16.162,4.236L16.155,4.236C16.046,4.521 15.876,4.664 15.646,4.664C15.253,4.664 15.057,4.329 15.057,3.661L15.057,2.254L15.319,2.254L15.319,3.601C15.319,4.098 15.453,4.346 15.719,4.346C15.848,4.346 15.954,4.279 16.037,4.143C16.12,4.007 16.162,3.83 16.162,3.611L16.162,2.254L16.426,2.254L16.426,4.608Z" style="fill-rule:nonzero;"/>
        <path d="M19.3,4.608L19.035,4.608L19.035,3.257C19.035,2.996 19.007,2.807 18.951,2.691C18.895,2.574 18.8,2.516 18.667,2.516C18.554,2.516 18.458,2.59 18.379,2.737C18.3,2.884 18.261,3.06 18.261,3.266L18.261,4.608L17.997,4.608L17.997,3.211C17.997,2.748 17.872,2.516 17.622,2.516C17.506,2.516 17.41,2.586 17.335,2.724C17.26,2.863 17.223,3.044 17.223,3.266L17.223,4.608L16.959,4.608L16.959,2.254L17.223,2.254L17.223,2.627L17.229,2.627C17.346,2.341 17.517,2.199 17.741,2.199C17.854,2.199 17.952,2.244 18.036,2.333C18.119,2.423 18.177,2.541 18.208,2.686C18.33,2.361 18.513,2.199 18.755,2.199C19.118,2.199 19.3,2.519 19.3,3.158L19.3,4.608Z" style="fill-rule:nonzero;"/>
        <path d="M21.095,2.254L20.438,4.608L20.179,4.608L19.554,2.254L19.844,2.254L20.262,3.965C20.293,4.09 20.313,4.2 20.32,4.293L20.327,4.293C20.337,4.175 20.355,4.069 20.378,3.974L20.816,2.254L21.095,2.254Z" style="fill-rule:nonzero;"/>
        <path d="M2.012,10.608L0.814,10.608L0.814,7.311L1.085,7.311L1.085,10.259L2.012,10.259L2.012,10.608Z" style="fill-rule:nonzero;"/>
        <path d="M3.02,10.664C2.777,10.664 2.582,10.554 2.437,10.334C2.291,10.114 2.218,9.822 2.218,9.459C2.218,9.063 2.294,8.755 2.445,8.532C2.597,8.31 2.801,8.199 3.059,8.199C3.305,8.199 3.497,8.307 3.634,8.523C3.772,8.739 3.841,9.039 3.841,9.422C3.841,9.798 3.767,10.098 3.618,10.325C3.47,10.551 3.27,10.664 3.02,10.664ZM3.04,8.516C2.87,8.516 2.736,8.599 2.637,8.763C2.538,8.928 2.489,9.155 2.489,9.445C2.489,9.724 2.539,9.944 2.639,10.105C2.738,10.266 2.872,10.346 3.04,10.346C3.21,10.346 3.341,10.267 3.433,10.11C3.525,9.952 3.571,9.727 3.571,9.436C3.571,9.142 3.525,8.915 3.433,8.755C3.341,8.596 3.21,8.516 3.04,8.516Z" style="fill-rule:nonzero;"/>
        <path d="M5.123,8.636C5.077,8.585 5.01,8.56 4.923,8.56C4.811,8.56 4.716,8.636 4.641,8.788C4.565,8.939 4.527,9.146 4.527,9.408L4.527,10.608L4.263,10.608L4.263,8.254L4.527,8.254L4.527,8.739L4.534,8.739C4.571,8.574 4.629,8.445 4.706,8.352C4.783,8.259 4.87,8.213 4.965,8.213C5.034,8.213 5.086,8.223 5.123,8.245L5.123,8.636Z" style="fill-rule:nonzero;"/>
        <path d="M6.735,9.526L5.571,9.526C5.575,9.788 5.624,9.99 5.719,10.133C5.813,10.275 5.943,10.346 6.108,10.346C6.294,10.346 6.465,10.259 6.62,10.084L6.62,10.438C6.475,10.589 6.284,10.664 6.046,10.664C5.813,10.664 5.63,10.557 5.496,10.343C5.363,10.129 5.297,9.828 5.297,9.44C5.297,9.074 5.37,8.776 5.515,8.545C5.66,8.314 5.841,8.199 6.057,8.199C6.273,8.199 6.439,8.299 6.558,8.498C6.676,8.697 6.735,8.974 6.735,9.328L6.735,9.526ZM6.464,9.206C6.463,8.988 6.426,8.819 6.354,8.698C6.281,8.577 6.181,8.516 6.052,8.516C5.927,8.516 5.822,8.58 5.735,8.707C5.648,8.834 5.594,9.001 5.574,9.206L6.464,9.206Z" style="fill-rule:nonzero;"/>
        <path d="M9.475,10.608L9.211,10.608L9.211,9.257C9.211,8.996 9.183,8.807 9.126,8.691C9.07,8.574 8.975,8.516 8.842,8.516C8.729,8.516 8.634,8.59 8.555,8.737C8.476,8.884 8.436,9.06 8.436,9.266L8.436,10.608L8.172,10.608L8.172,9.211C8.172,8.748 8.047,8.516 7.797,8.516C7.681,8.516 7.586,8.586 7.511,8.724C7.436,8.863 7.398,9.044 7.398,9.266L7.398,10.608L7.134,10.608L7.134,8.254L7.398,8.254L7.398,8.627L7.404,8.627C7.521,8.341 7.692,8.199 7.916,8.199C8.029,8.199 8.127,8.244 8.211,8.333C8.295,8.423 8.352,8.541 8.383,8.686C8.506,8.361 8.688,8.199 8.931,8.199C9.294,8.199 9.475,8.519 9.475,9.158L9.475,10.608Z" style="fill-rule:nonzero;"/>
        <rect x="10.913" y="7.311" width="0.27" height="3.297" style="fill-rule:nonzero;"/>
        <path d="M12.025,10.268L12.019,10.268L12.019,11.691L11.755,11.691L11.755,8.254L12.019,8.254L12.019,8.668L12.025,8.668C12.155,8.355 12.345,8.199 12.595,8.199C12.808,8.199 12.974,8.304 13.093,8.515C13.212,8.726 13.271,9.008 13.271,9.362C13.271,9.756 13.204,10.072 13.07,10.308C12.936,10.545 12.752,10.664 12.52,10.664C12.306,10.664 12.141,10.532 12.025,10.268ZM12.019,9.319L12.019,9.647C12.019,9.842 12.063,10.007 12.152,10.143C12.24,10.279 12.353,10.346 12.489,10.346C12.649,10.346 12.774,10.259 12.865,10.084C12.956,9.91 13.001,9.667 13.001,9.355C13.001,9.093 12.959,8.888 12.874,8.739C12.789,8.591 12.674,8.516 12.529,8.516C12.376,8.516 12.252,8.592 12.159,8.745C12.066,8.898 12.019,9.089 12.019,9.319Z" style="fill-rule:nonzero;"/>
        <path d="M13.593,10.523L13.593,10.119C13.737,10.27 13.896,10.346 14.068,10.346C14.3,10.346 14.416,10.236 14.416,10.015C14.416,9.952 14.406,9.899 14.386,9.855C14.367,9.812 14.34,9.773 14.306,9.739C14.272,9.706 14.232,9.675 14.187,9.649C14.141,9.622 14.092,9.594 14.039,9.565C13.966,9.523 13.902,9.481 13.847,9.439C13.792,9.397 13.746,9.35 13.709,9.297C13.672,9.244 13.644,9.184 13.625,9.116C13.606,9.049 13.597,8.97 13.597,8.879C13.597,8.769 13.614,8.671 13.65,8.586C13.685,8.501 13.732,8.43 13.792,8.373C13.851,8.315 13.918,8.272 13.994,8.243C14.069,8.214 14.147,8.199 14.228,8.199C14.371,8.199 14.498,8.234 14.611,8.305L14.611,8.686C14.49,8.573 14.35,8.516 14.192,8.516C14.143,8.516 14.099,8.524 14.059,8.54C14.019,8.556 13.985,8.579 13.957,8.608C13.928,8.637 13.906,8.672 13.891,8.713C13.875,8.753 13.867,8.798 13.867,8.847C13.867,8.909 13.875,8.96 13.891,9.001C13.906,9.043 13.929,9.08 13.959,9.112C13.989,9.144 14.026,9.173 14.068,9.199C14.111,9.225 14.16,9.253 14.215,9.284C14.288,9.324 14.353,9.365 14.411,9.407C14.469,9.449 14.519,9.497 14.56,9.55C14.6,9.603 14.632,9.664 14.654,9.732C14.676,9.801 14.687,9.883 14.687,9.978C14.687,10.095 14.669,10.196 14.633,10.282C14.597,10.368 14.549,10.439 14.489,10.496C14.429,10.553 14.359,10.595 14.281,10.622C14.203,10.65 14.121,10.664 14.035,10.664C13.865,10.664 13.718,10.617 13.593,10.523Z" style="fill-rule:nonzero;"/>
        <path d="M16.426,10.608L16.162,10.608L16.162,10.236L16.155,10.236C16.046,10.521 15.876,10.664 15.646,10.664C15.253,10.664 15.057,10.329 15.057,9.661L15.057,8.254L15.319,8.254L15.319,9.601C15.319,10.098 15.453,10.346 15.719,10.346C15.848,10.346 15.954,10.279 16.037,10.143C16.12,10.007 16.162,9.83 16.162,9.611L16.162,8.254L16.426,8.254L16.426,10.608Z" style="fill-rule:nonzero;"/>
        <path d="M19.3,10.608L19.035,10.608L19.035,9.257C19.035,8.996 19.007,8.807 18.951,8.691C18.895,8.574 18.8,8.516 18.667,8.516C18.554,8.516 18.458,8.59 18.379,8.737C18.3,8.884 18.261,9.06 18.261,9.266L18.261,10.608L17.997,10.608L17.997,9.211C17.997,8.748 17.872,8.516 17.622,8.516C17.506,8.516 17.41,8.586 17.335,8.724C17.26,8.863 17.223,9.044 17.223,9.266L17.223,10.608L16.959,10.608L16.959,8.254L17.223,8.254L17.223,8.627L17.229,8.627C17.346,8.341 17.517,8.199 17.741,8.199C17.854,8.199 17.952,8.244 18.036,8.333C18.119,8.423 18.177,8.541 18.208,8.686C18.33,8.361 18.513,8.199 18.755,8.199C19.118,8.199 19.3,8.519 19.3,9.158L19.3,10.608Z" style="fill-rule:nonzero;"/>
        <path d="M21.095,8.254L20.438,10.608L20.179,10.608L19.554,8.254L19.844,8.254L20.262,9.965C20.293,10.09 20.313,10.2 20.32,10.293L20.327,10.293C20.337,10.175 20.355,10.069 20.378,9.974L20.816,8.254L21.095,8.254Z" style="fill-rule:nonzero;"/>
        <path d="M2.012,16.608L0.814,16.608L0.814,13.311L1.085,13.311L1.085,16.259L2.012,16.259L2.012,16.608Z" style="fill-rule:nonzero;"/>
        <path d="M3.02,16.664C2.777,16.664 2.582,16.554 2.437,16.334C2.291,16.114 2.218,15.822 2.218,15.459C2.218,15.063 2.294,14.755 2.445,14.532C2.597,14.31 2.801,14.199 3.059,14.199C3.305,14.199 3.497,14.307 3.634,14.523C3.772,14.739 3.841,15.039 3.841,15.422C3.841,15.798 3.767,16.098 3.618,16.325C3.47,16.551 3.27,16.664 3.02,16.664ZM3.04,14.516C2.87,14.516 2.736,14.599 2.637,14.763C2.538,14.928 2.489,15.155 2.489,15.445C2.489,15.724 2.539,15.944 2.639,16.105C2.738,16.266 2.872,16.346 3.04,16.346C3.21,16.346 3.341,16.267 3.433,16.11C3.525,15.952 3.571,15.727 3.571,15.436C3.571,15.142 3.525,14.915 3.433,14.755C3.341,14.596 3.21,14.516 3.04,14.516Z" style="fill-rule:nonzero;"/>
        <path d="M5.123,14.636C5.077,14.585 5.01,14.56 4.923,14.56C4.811,14.56 4.716,14.636 4.641,14.788C4.565,14.939 4.527,15.146 4.527,15.408L4.527,16.608L4.263,16.608L4.263,14.254L4.527,14.254L4.527,14.739L4.534,14.739C4.571,14.574 4.629,14.445 4.706,14.352C4.783,14.259 4.87,14.213 4.965,14.213C5.034,14.213 5.086,14.223 5.123,14.245L5.123,14.636Z" style="fill-rule:nonzero;"/>
        <path d="M6.735,15.526L5.571,15.526C5.575,15.788 5.624,15.99 5.719,16.133C5.813,16.275 5.943,16.346 6.108,16.346C6.294,16.346 6.465,16.259 6.62,16.084L6.62,16.438C6.475,16.589 6.284,16.664 6.046,16.664C5.813,16.664 5.63,16.557 5.496,16.343C5.363,16.129 5.297,15.828 5.297,15.44C5.297,15.074 5.37,14.776 5.515,14.545C5.66,14.314 5.841,14.199 6.057,14.199C6.273,14.199 6.439,14.299 6.558,14.498C6.676,14.697 6.735,14.974 6.735,15.328L6.735,15.526ZM6.464,15.206C6.463,14.988 6.426,14.819 6.354,14.698C6.281,14.577 6.181,14.516 6.052,14.516C5.927,14.516 5.822,14.58 5.735,14.707C5.648,14.834 5.594,15.001 5.574,15.206L6.464,15.206Z" style="fill-rule:nonzero;"/>
        <path d="M9.475,16.608L9.211,16.608L9.211,15.257C9.211,14.996 9.183,14.807 9.126,14.691C9.07,14.574 8.975,14.516 8.842,14.516C8.729,14.516 8.634,14.59 8.555,14.737C8.476,14.884 8.436,15.06 8.436,15.266L8.436,16.608L8.172,16.608L8.172,15.211C8.172,14.748 8.047,14.516 7.797,14.516C7.681,14.516 7.586,14.586 7.511,14.724C7.436,14.863 7.398,15.044 7.398,15.266L7.398,16.608L7.134,16.608L7.134,14.254L7.398,14.254L7.398,14.627L7.404,14.627C7.521,14.341 7.692,14.199 7.916,14.199C8.029,14.199 8.127,14.244 8.211,14.333C8.295,14.423 8.352,14.541 8.383,14.686C8.506,14.361 8.688,14.199 8.931,14.199C9.294,14.199 9.475,14.519 9.475,15.158L9.475,16.608Z" style="fill-rule:nonzero;"/>
        <rect x="10.913" y="13.311" width="0.27" height="3.297" style="fill-rule:nonzero;"/>
        <path d="M12.025,16.268L12.019,16.268L12.019,17.691L11.755,17.691L11.755,14.254L12.019,14.254L12.019,14.668L12.025,14.668C12.155,14.355 12.345,14.199 12.595,14.199C12.808,14.199 12.974,14.304 13.093,14.515C13.212,14.726 13.271,15.008 13.271,15.362C13.271,15.756 13.204,16.072 13.07,16.308C12.936,16.545 12.752,16.664 12.52,16.664C12.306,16.664 12.141,16.532 12.025,16.268ZM12.019,15.319L12.019,15.647C12.019,15.842 12.063,16.007 12.152,16.143C12.24,16.279 12.353,16.346 12.489,16.346C12.649,16.346 12.774,16.259 12.865,16.084C12.956,15.91 13.001,15.667 13.001,15.355C13.001,15.093 12.959,14.888 12.874,14.739C12.789,14.591 12.674,14.516 12.529,14.516C12.376,14.516 12.252,14.592 12.159,14.745C12.066,14.898 12.019,15.089 12.019,15.319Z" style="fill-rule:nonzero;"/>
        <path d="M13.593,16.523L13.593,16.119C13.737,16.27 13.896,16.346 14.068,16.346C14.3,16.346 14.416,16.236 14.416,16.015C14.416,15.952 14.406,15.899 14.386,15.855C14.367,15.812 14.34,15.773 14.306,15.739C14.272,15.706 14.232,15.675 14.187,15.649C14.141,15.622 14.092,15.594 14.039,15.565C13.966,15.523 13.902,15.481 13.847,15.439C13.792,15.397 13.746,15.35 13.709,15.297C13.672,15.244 13.644,15.184 13.625,15.116C13.606,15.049 13.597,14.97 13.597,14.879C13.597,14.769 13.614,14.671 13.65,14.586C13.685,14.501 13.732,14.43 13.792,14.373C13.851,14.315 13.918,14.272 13.994,14.243C14.069,14.214 14.147,14.199 14.228,14.199C14.371,14.199 14.498,14.234 14.611,14.305L14.611,14.686C14.49,14.573 14.35,14.516 14.192,14.516C14.143,14.516 14.099,14.524 14.059,14.54C14.019,14.556 13.985,14.579 13.957,14.608C13.928,14.637 13.906,14.672 13.891,14.713C13.875,14.753 13.867,14.798 13.867,14.847C13.867,14.909 13.875,14.96 13.891,15.001C13.906,15.043 13.929,15.08 13.959,15.112C13.989,15.144 14.026,15.173 14.068,15.199C14.111,15.225 14.16,15.253 14.215,15.284C14.288,15.324 14.353,15.365 14.411,15.407C14.469,15.449 14.519,15.497 14.56,15.55C14.6,15.603 14.632,15.664 14.654,15.732C14.676,15.801 14.687,15.883 14.687,15.978C14.687,16.095 14.669,16.196 14.633,16.282C14.597,16.368 14.549,16.439 14.489,16.496C14.429,16.553 14.359,16.595 14.281,16.622C14.203,16.65 14.121,16.664 14.035,16.664C13.865,16.664 13.718,16.617 13.593,16.523Z" style="fill-rule:nonzero;"/>
        <path d="M16.426,16.608L16.162,16.608L16.162,16.236L16.155,16.236C16.046,16.521 15.876,16.664 15.646,16.664C15.253,16.664 15.057,16.329 15.057,15.661L15.057,14.254L15.319,14.254L15.319,15.601C15.319,16.098 15.453,16.346 15.719,16.346C15.848,16.346 15.954,16.279 16.037,16.143C16.12,16.007 16.162,15.83 16.162,15.611L16.162,14.254L16.426,14.254L16.426,16.608Z" style="fill-rule:nonzero;"/>
        <path d="M19.3,16.608L19.035,16.608L19.035,15.257C19.035,14.996 19.007,14.807 18.951,14.691C18.895,14.574 18.8,14.516 18.667,14.516C18.554,14.516 18.458,14.59 18.379,14.737C18.3,14.884 18.261,15.06 18.261,15.266L18.261,16.608L17.997,16.608L17.997,15.211C17.997,14.748 17.872,14.516 17.622,14.516C17.506,14.516 17.41,14.586 17.335,14.724C17.26,14.863 17.223,15.044 17.223,15.266L17.223,16.608L16.959,16.608L16.959,14.254L17.223,14.254L17.223,14.627L17.229,14.627C17.346,14.341 17.517,14.199 17.741,14.199C17.854,14.199 17.952,14.244 18.036,14.333C18.119,14.423 18.177,14.541 18.208,14.686C18.33,14.361 18.513,14.199 18.755,14.199C19.118,14.199 19.3,14.519 19.3,15.158L19.3,16.608Z" style="fill-rule:nonzero;"/>
        <path d="M21.095,14.254L20.438,16.608L20.179,16.608L19.554,14.254L19.844,14.254L20.262,15.965C20.293,16.09 20.313,16.2 20.32,16.293L20.327,16.293C20.337,16.175 20.355,16.069 20.378,15.974L20.816,14.254L21.095,14.254Z" style="fill-rule:nonzero;"/>
        <path d="M2.012,22.608L0.814,22.608L0.814,19.311L1.085,19.311L1.085,22.259L2.012,22.259L2.012,22.608Z" style="fill-rule:nonzero;"/>
        <path d="M3.02,22.664C2.777,22.664 2.582,22.554 2.437,22.334C2.291,22.114 2.218,21.822 2.218,21.459C2.218,21.063 2.294,20.755 2.445,20.532C2.597,20.31 2.801,20.199 3.059,20.199C3.305,20.199 3.497,20.307 3.634,20.523C3.772,20.739 3.841,21.039 3.841,21.422C3.841,21.798 3.767,22.098 3.618,22.325C3.47,22.551 3.27,22.664 3.02,22.664ZM3.04,20.516C2.87,20.516 2.736,20.599 2.637,20.763C2.538,20.928 2.489,21.155 2.489,21.445C2.489,21.724 2.539,21.944 2.639,22.105C2.738,22.266 2.872,22.346 3.04,22.346C3.21,22.346 3.341,22.267 3.433,22.11C3.525,21.952 3.571,21.727 3.571,21.436C3.571,21.142 3.525,20.915 3.433,20.755C3.341,20.596 3.21,20.516 3.04,20.516Z" style="fill-rule:nonzero;"/>
        <path d="M5.123,20.636C5.077,20.585 5.01,20.56 4.923,20.56C4.811,20.56 4.716,20.636 4.641,20.788C4.565,20.939 4.527,21.146 4.527,21.408L4.527,22.608L4.263,22.608L4.263,20.254L4.527,20.254L4.527,20.739L4.534,20.739C4.571,20.574 4.629,20.445 4.706,20.352C4.783,20.259 4.87,20.213 4.965,20.213C5.034,20.213 5.086,20.223 5.123,20.245L5.123,20.636Z" style="fill-rule:nonzero;"/>
        <path d="M6.735,21.526L5.571,21.526C5.575,21.788 5.624,21.99 5.719,22.133C5.813,22.275 5.943,22.346 6.108,22.346C6.294,22.346 6.465,22.259 6.62,22.084L6.62,22.438C6.475,22.589 6.284,22.664 6.046,22.664C5.813,22.664 5.63,22.557 5.496,22.343C5.363,22.129 5.297,21.828 5.297,21.44C5.297,21.074 5.37,20.776 5.515,20.545C5.66,20.314 5.841,20.199 6.057,20.199C6.273,20.199 6.439,20.299 6.558,20.498C6.676,20.697 6.735,20.974 6.735,21.328L6.735,21.526ZM6.464,21.206C6.463,20.988 6.426,20.819 6.354,20.698C6.281,20.577 6.181,20.516 6.052,20.516C5.927,20.516 5.822,20.58 5.735,20.707C5.648,20.834 5.594,21.001 5.574,21.206L6.464,21.206Z" style="fill-rule:nonzero;"/>
        <path d="M9.475,22.608L9.211,22.608L9.211,21.257C9.211,20.996 9.183,20.807 9.126,20.691C9.07,20.574 8.975,20.516 8.842,20.516C8.729,20.516 8.634,20.59 8.555,20.737C8.476,20.884 8.436,21.06 8.436,21.266L8.436,22.608L8.172,22.608L8.172,21.211C8.172,20.748 8.047,20.516 7.797,20.516C7.681,20.516 7.586,20.586 7.511,20.724C7.436,20.863 7.398,21.044 7.398,21.266L7.398,22.608L7.134,22.608L7.134,20.254L7.398,20.254L7.398,20.627L7.404,20.627C7.521,20.341 7.692,20.199 7.916,20.199C8.029,20.199 8.127,20.244 8.211,20.333C8.295,20.423 8.352,20.541 8.383,20.686C8.506,20.361 8.688,20.199 8.931,20.199C9.294,20.199 9.475,20.519 9.475,21.158L9.475,22.608Z" style="fill-rule:nonzero;"/>
        <rect x="10.913" y="19.311" width="0.27" height="3.297" style="fill-rule:nonzero;"/>
        <path d="M12.025,22.268L12.019,22.268L12.019,23.691L11.755,23.691L11.755,20.254L12.019,20.254L12.019,20.668L12.025,20.668C12.155,20.355 12.345,20.199 12.595,20.199C12.808,20.199 12.974,20.304 13.093,20.515C13.212,20.726 13.271,21.008 13.271,21.362C13.271,21.756 13.204,22.072 13.07,22.308C12.936,22.545 12.752,22.664 12.52,22.664C12.306,22.664 12.141,22.532 12.025,22.268ZM12.019,21.319L12.019,21.647C12.019,21.842 12.063,22.007 12.152,22.143C12.24,22.279 12.353,22.346 12.489,22.346C12.649,22.346 12.774,22.259 12.865,22.084C12.956,21.91 13.001,21.667 13.001,21.355C13.001,21.093 12.959,20.888 12.874,20.739C12.789,20.591 12.674,20.516 12.529,20.516C12.376,20.516 12.252,20.592 12.159,20.745C12.066,20.898 12.019,21.089 12.019,21.319Z" style="fill-rule:nonzero;"/>
        <path d="M13.593,22.523L13.593,22.119C13.737,22.27 13.896,22.346 14.068,22.346C14.3,22.346 14.416,22.236 14.416,22.015C14.416,21.952 14.406,21.899 14.386,21.855C14.367,21.812 14.34,21.773 14.306,21.739C14.272,21.706 14.232,21.675 14.187,21.649C14.141,21.622 14.092,21.594 14.039,21.565C13.966,21.523 13.902,21.481 13.847,21.439C13.792,21.397 13.746,21.35 13.709,21.297C13.672,21.244 13.644,21.184 13.625,21.116C13.606,21.049 13.597,20.97 13.597,20.879C13.597,20.769 13.614,20.671 13.65,20.586C13.685,20.501 13.732,20.43 13.792,20.373C13.851,20.315 13.918,20.272 13.994,20.243C14.069,20.214 14.147,20.199 14.228,20.199C14.371,20.199 14.498,20.234 14.611,20.305L14.611,20.686C14.49,20.573 14.35,20.516 14.192,20.516C14.143,20.516 14.099,20.524 14.059,20.54C14.019,20.556 13.985,20.579 13.957,20.608C13.928,20.637 13.906,20.672 13.891,20.713C13.875,20.753 13.867,20.798 13.867,20.847C13.867,20.909 13.875,20.96 13.891,21.001C13.906,21.043 13.929,21.08 13.959,21.112C13.989,21.144 14.026,21.173 14.068,21.199C14.111,21.225 14.16,21.253 14.215,21.284C14.288,21.324 14.353,21.365 14.411,21.407C14.469,21.449 14.519,21.497 14.56,21.55C14.6,21.603 14.632,21.664 14.654,21.732C14.676,21.801 14.687,21.883 14.687,21.978C14.687,22.095 14.669,22.196 14.633,22.282C14.597,22.368 14.549,22.439 14.489,22.496C14.429,22.553 14.359,22.595 14.281,22.622C14.203,22.65 14.121,22.664 14.035,22.664C13.865,22.664 13.718,22.617 13.593,22.523Z" style="fill-rule:nonzero;"/>
        <path d="M16.426,22.608L16.162,22.608L16.162,22.236L16.155,22.236C16.046,22.521 15.876,22.664 15.646,22.664C15.253,22.664 15.057,22.329 15.057,21.661L15.057,20.254L15.319,20.254L15.319,21.601C15.319,22.098 15.453,22.346 15.719,22.346C15.848,22.346 15.954,22.279 16.037,22.143C16.12,22.007 16.162,21.83 16.162,21.611L16.162,20.254L16.426,20.254L16.426,22.608Z" style="fill-rule:nonzero;"/>
        <path d="M19.3,22.608L19.035,22.608L19.035,21.257C19.035,20.996 19.007,20.807 18.951,20.691C18.895,20.574 18.8,20.516 18.667,20.516C18.554,20.516 18.458,20.59 18.379,20.737C18.3,20.884 18.261,21.06 18.261,21.266L18.261,22.608L17.997,22.608L17.997,21.211C17.997,20.748 17.872,20.516 17.622,20.516C17.506,20.516 17.41,20.586 17.335,20.724C17.26,20.863 17.223,21.044 17.223,21.266L17.223,22.608L16.959,22.608L16.959,20.254L17.223,20.254L17.223,20.627L17.229,20.627C17.346,20.341 17.517,20.199 17.741,20.199C17.854,20.199 17.952,20.244 18.036,20.333C18.119,20.423 18.177,20.541 18.208,20.686C18.33,20.361 18.513,20.199 18.755,20.199C19.118,20.199 19.3,20.519 19.3,21.158L19.3,22.608Z" style="fill-rule:nonzero;"/>
        <path d="M21.095,20.254L20.438,22.608L20.179,22.608L19.554,20.254L19.844,20.254L20.262,21.965C20.293,22.09 20.313,22.2 20.32,22.293L20.327,22.293C20.337,22.175 20.355,22.069 20.378,21.974L20.816,20.254L21.095,20.254Z" style="fill-rule:nonzero;"/>
        <path d="M2.012,28.608L0.814,28.608L0.814,25.311L1.085,25.311L1.085,28.259L2.012,28.259L2.012,28.608Z" style="fill-rule:nonzero;"/>
        <path d="M3.02,28.664C2.777,28.664 2.582,28.554 2.437,28.334C2.291,28.114 2.218,27.822 2.218,27.459C2.218,27.063 2.294,26.755 2.445,26.532C2.597,26.31 2.801,26.199 3.059,26.199C3.305,26.199 3.497,26.307 3.634,26.523C3.772,26.739 3.841,27.039 3.841,27.422C3.841,27.798 3.767,28.098 3.618,28.325C3.47,28.551 3.27,28.664 3.02,28.664ZM3.04,26.516C2.87,26.516 2.736,26.599 2.637,26.763C2.538,26.928 2.489,27.155 2.489,27.445C2.489,27.724 2.539,27.944 2.639,28.105C2.738,28.266 2.872,28.346 3.04,28.346C3.21,28.346 3.341,28.267 3.433,28.11C3.525,27.952 3.571,27.727 3.571,27.436C3.571,27.142 3.525,26.915 3.433,26.755C3.341,26.596 3.21,26.516 3.04,26.516Z" style="fill-rule:nonzero;"/>
        <path d="M5.123,26.636C5.077,26.585 5.01,26.56 4.923,26.56C4.811,26.56 4.716,26.636 4.641,26.788C4.565,26.939 4.527,27.146 4.527,27.408L4.527,28.608L4.263,28.608L4.263,26.254L4.527,26.254L4.527,26.739L4.534,26.739C4.571,26.574 4.629,26.445 4.706,26.352C4.783,26.259 4.87,26.213 4.965,26.213C5.034,26.213 5.086,26.223 5.123,26.245L5.123,26.636Z" style="fill-rule:nonzero;"/>
        <path d="M6.735,27.526L5.571,27.526C5.575,27.788 5.624,27.99 5.719,28.133C5.813,28.275 5.943,28.346 6.108,28.346C6.294,28.346 6.465,28.259 6.62,28.084L6.62,28.438C6.475,28.589 6.284,28.664 6.046,28.664C5.813,28.664 5.63,28.557 5.496,28.343C5.363,28.129 5.297,27.828 5.297,27.44C5.297,27.074 5.37,26.776 5.515,26.545C5.66,26.314 5.841,26.199 6.057,26.199C6.273,26.199 6.439,26.299 6.558,26.498C6.676,26.697 6.735,26.974 6.735,27.328L6.735,27.526ZM6.464,27.206C6.463,26.988 6.426,26.819 6.354,26.698C6.281,26.577 6.181,26.516 6.052,26.516C5.927,26.516 5.822,26.58 5.735,26.707C5.648,26.834 5.594,27.001 5.574,27.206L6.464,27.206Z" style="fill-rule:nonzero;"/>
        <path d="M9.475,28.608L9.211,28.608L9.211,27.257C9.211,26.996 9.183,26.807 9.126,26.691C9.07,26.574 8.975,26.516 8.842,26.516C8.729,26.516 8.634,26.59 8.555,26.737C8.476,26.884 8.436,27.06 8.436,27.266L8.436,28.608L8.172,28.608L8.172,27.211C8.172,26.748 8.047,26.516 7.797,26.516C7.681,26.516 7.586,26.586 7.511,26.724C7.436,26.863 7.398,27.044 7.398,27.266L7.398,28.608L7.134,28.608L7.134,26.254L7.398,26.254L7.398,26.627L7.404,26.627C7.521,26.341 7.692,26.199 7.916,26.199C8.029,26.199 8.127,26.244 8.211,26.333C8.295,26.423 8.352,26.541 8.383,26.686C8.506,26.361 8.688,26.199 8.931,26.199C9.294,26.199 9.475,26.519 9.475,27.158L9.475,28.608Z" style="fill-rule:nonzero;"/>
        <rect x="10.913" y="25.311" width="0.27" height="3.297" style="fill-rule:nonzero;"/>
        <path d="M12.025,28.268L12.019,28.268L12.019,29.691L11.755,29.691L11.755,26.254L12.019,26.254L12.019,26.668L12.025,26.668C12.155,26.355 12.345,26.199 12.595,26.199C12.808,26.199 12.974,26.304 13.093,26.515C13.212,26.726 13.271,27.008 13.271,27.362C13.271,27.756 13.204,28.072 13.07,28.308C12.936,28.545 12.752,28.664 12.52,28.664C12.306,28.664 12.141,28.532 12.025,28.268ZM12.019,27.319L12.019,27.647C12.019,27.842 12.063,28.007 12.152,28.143C12.24,28.279 12.353,28.346 12.489,28.346C12.649,28.346 12.774,28.259 12.865,28.084C12.956,27.91 13.001,27.667 13.001,27.355C13.001,27.093 12.959,26.888 12.874,26.739C12.789,26.591 12.674,26.516 12.529,26.516C12.376,26.516 12.252,26.592 12.159,26.745C12.066,26.898 12.019,27.089 12.019,27.319Z" style="fill-rule:nonzero;"/>
        <path d="M13.593,28.523L13.593,28.119C13.737,28.27 13.896,28.346 14.068,28.346C14.3,28.346 14.416,28.236 14.416,28.015C14.416,27.952 14.406,27.899 14.386,27.855C14.367,27.812 14.34,27.773 14.306,27.739C14.272,27.706 14.232,27.675 14.187,27.649C14.141,27.622 14.092,27.594 14.039,27.565C13.966,27.523 13.902,27.481 13.847,27.439C13.792,27.397 13.746,27.35 13.709,27.297C13.672,27.244 13.644,27.184 13.625,27.116C13.606,27.049 13.597,26.97 13.597,26.879C13.597,26.769 13.614,26.671 13.65,26.586C13.685,26.501 13.732,26.43 13.792,26.373C13.851,26.315 13.918,26.272 13.994,26.243C14.069,26.214 14.147,26.199 14.228,26.199C14.371,26.199 14.498,26.234 14.611,26.305L14.611,26.686C14.49,26.573 14.35,26.516 14.192,26.516C14.143,26.516 14.099,26.524 14.059,26.54C14.019,26.556 13.985,26.579 13.957,26.608C13.928,26.637 13.906,26.672 13.891,26.713C13.875,26.753 13.867,26.798 13.867,26.847C13.867,26.909 13.875,26.96 13.891,27.001C13.906,27.043 13.929,27.08 13.959,27.112C13.989,27.144 14.026,27.173 14.068,27.199C14.111,27.225 14.16,27.253 14.215,27.284C14.288,27.324 14.353,27.365 14.411,27.407C14.469,27.449 14.519,27.497 14.56,27.55C14.6,27.603 14.632,27.664 14.654,27.732C14.676,27.801 14.687,27.883 14.687,27.978C14.687,28.095 14.669,28.196 14.633,28.282C14.597,28.368 14.549,28.439 14.489,28.496C14.429,28.553 14.359,28.595 14.281,28.622C14.203,28.65 14.121,28.664 14.035,28.664C13.865,28.664 13.718,28.617 13.593,28.523Z" style="fill-rule:nonzero;"/>
        <path d="M16.426,28.608L16.162,28.608L16.162,28.236L16.155,28.236C16.046,28.521 15.876,28.664 15.646,28.664C15.253,28.664 15.057,28.329 15.057,27.661L15.057,26.254L15.319,26.254L15.319,27.601C15.319,28.098 15.453,28.346 15.719,28.346C15.848,28.346 15.954,28.279 16.037,28.143C16.12,28.007 16.162,27.83 16.162,27.611L16.162,26.254L16.426,26.254L16.426,28.608Z" style="fill-rule:nonzero;"/>
        <path d="M19.3,28.608L19.035,28.608L19.035,27.257C19.035,26.996 19.007,26.807 18.951,26.691C18.895,26.574 18.8,26.516 18.667,26.516C18.554,26.516 18.458,26.59 18.379,26.737C18.3,26.884 18.261,27.06 18.261,27.266L18.261,28.608L17.997,28.608L17.997,27.211C17.997,26.748 17.872,26.516 17.622,26.516C17.506,26.516 17.41,26.586 17.335,26.724C17.26,26.863 17.223,27.044 17.223,27.266L17.223,28.608L16.959,28.608L16.959,26.254L17.223,26.254L17.223,26.627L17.229,26.627C17.346,26.341 17.517,26.199 17.741,26.199C17.854,26.199 17.952,26.244 18.036,26.333C18.119,26.423 18.177,26.541 18.208,26.686C18.33,26.361 18.513,26.199 18.755,26.199C19.118,26.199 19.3,26.519 19.3,27.158L19.3,28.608Z" style="fill-rule:nonzero;"/>
        <path d="M21.095,26.254L20.438,28.608L20.179,28.608L19.554,26.254L19.844,26.254L20.262,27.965C20.293,28.09 20.313,28.2 20.32,28.293L20.327,28.293C20.337,28.175 20.355,28.069 20.378,27.974L20.816,26.254L21.095,26.254Z" style="fill-rule:nonzero;"/>
    </g>
    <rect id="outer1" serif:id="outer" x="0" y="0" width="30" height="30" style="fill:none;"/>
</svg>
