<?xml version="1.0" encoding="UTF-8" standalone="no"?>
<!DOCTYPE svg PUBLIC "-//W3C//DTD SVG 1.1//EN" "http://www.w3.org/Graphics/SVG/1.1/DTD/svg11.dtd">
<svg width="30px" height="30px" version="1.1" xmlns="http://www.w3.org/2000/svg" xmlns:xlink="http://www.w3.org/1999/xlink" xml:space="preserve" xmlns:serif="http://www.serif.com/" style="fill-rule:evenodd;clip-rule:evenodd;stroke-linecap:round;stroke-linejoin:round;stroke-miterlimit:1.5;">
    <g id="grid">
        <rect x="0" y="0.255" width="23.5" height="5.068" style="fill:white;stroke:rgb(129,129,129);stroke-width:0.47px;"/>
        <rect x="0" y="5.323" width="23.5" height="5.068" style="fill:white;stroke:rgb(129,129,129);stroke-width:0.47px;"/>
        <rect x="0" y="10.096" width="23.5" height="5.068" style="fill:white;stroke:rgb(129,129,129);stroke-width:0.47px;"/>
        <rect x="0" y="15.164" width="23.5" height="5.068" style="fill:white;stroke:rgb(129,129,129);stroke-width:0.47px;"/>
        <rect x="0" y="19.976" width="23.5" height="5.068" style="fill:white;stroke:rgb(129,129,129);stroke-width:0.47px;"/>
        <rect x="0" y="24.722" width="23.5" height="5.068" style="fill:white;stroke:rgb(129,129,129);stroke-width:0.47px;"/>
        <path d="M7.833,0.357L7.833,29.363" style="fill:none;stroke:rgb(191,191,191);stroke-width:0.47px;"/>
    </g>
    <g id="text">
        <path d="M1.493,4.202L0.783,4.202L0.783,1.205L0.944,1.205L0.944,3.884L1.493,3.884L1.493,4.202Z" style="fill-rule:nonzero;"/>
        <path d="M2.09,4.252C1.946,4.252 1.83,4.152 1.744,3.951C1.658,3.752 1.615,3.487 1.615,3.157C1.615,2.797 1.66,2.516 1.749,2.314C1.839,2.112 1.96,2.011 2.113,2.011C2.258,2.011 2.372,2.11 2.453,2.306C2.536,2.502 2.576,2.775 2.576,3.123C2.576,3.464 2.532,3.738 2.444,3.943C2.356,4.149 2.238,4.252 2.09,4.252ZM2.101,2.3C2.001,2.3 1.922,2.375 1.863,2.524C1.804,2.674 1.775,2.88 1.775,3.144C1.775,3.398 1.805,3.597 1.864,3.744C1.923,3.89 2.002,3.963 2.101,3.963C2.202,3.963 2.28,3.892 2.334,3.748C2.388,3.604 2.416,3.4 2.416,3.136C2.416,2.869 2.388,2.662 2.334,2.517C2.28,2.372 2.202,2.3 2.101,2.3Z" style="fill-rule:nonzero;"/>
        <path d="M3.335,2.408C3.308,2.363 3.268,2.34 3.217,2.34C3.151,2.34 3.094,2.408 3.05,2.546C3.005,2.684 2.982,2.872 2.982,3.11L2.982,4.202L2.826,4.202L2.826,2.061L2.982,2.061L2.982,2.502L2.986,2.502C3.009,2.353 3.042,2.234 3.088,2.151C3.134,2.066 3.185,2.024 3.241,2.024C3.282,2.024 3.314,2.033 3.335,2.053L3.335,2.408Z" style="fill-rule:nonzero;"/>
        <path d="M4.29,3.217L3.6,3.217C3.603,3.456 3.632,3.639 3.688,3.769C3.744,3.899 3.821,3.963 3.919,3.963C4.029,3.963 4.13,3.884 4.222,3.725L4.222,4.046C4.136,4.183 4.022,4.252 3.881,4.252C3.744,4.252 3.635,4.154 3.556,3.961C3.478,3.766 3.438,3.492 3.438,3.14C3.438,2.807 3.481,2.536 3.567,2.326C3.653,2.116 3.761,2.011 3.888,2.011C4.016,2.011 4.115,2.102 4.185,2.283C4.255,2.464 4.29,2.716 4.29,3.037L4.29,3.217ZM4.13,2.927C4.129,2.728 4.107,2.575 4.064,2.465C4.022,2.355 3.962,2.3 3.885,2.3C3.812,2.3 3.749,2.357 3.697,2.473C3.646,2.589 3.614,2.74 3.603,2.927L4.13,2.927Z" style="fill-rule:nonzero;"/>
        <path d="M5.913,4.202L5.757,4.202L5.757,2.973C5.757,2.735 5.739,2.565 5.707,2.458C5.673,2.353 5.616,2.3 5.538,2.3C5.472,2.3 5.414,2.366 5.368,2.501C5.321,2.634 5.298,2.795 5.298,2.981L5.298,4.202L5.141,4.202L5.141,2.931C5.141,2.51 5.067,2.3 4.919,2.3C4.85,2.3 4.794,2.363 4.749,2.489C4.705,2.615 4.683,2.779 4.683,2.981L4.683,4.202L4.526,4.202L4.526,2.061L4.683,2.061L4.683,2.4L4.687,2.4C4.756,2.141 4.857,2.011 4.99,2.011C5.056,2.011 5.114,2.052 5.165,2.133C5.214,2.216 5.248,2.322 5.266,2.455C5.338,2.159 5.447,2.011 5.591,2.011C5.805,2.011 5.913,2.301 5.913,2.883L5.913,4.202Z" style="fill-rule:nonzero;"/>
        <path d="M1.493,9.155L0.783,9.155L0.783,6.158L0.944,6.158L0.944,8.837L1.493,8.837L1.493,9.155Z" style="fill-rule:nonzero;"/>
        <path d="M2.09,9.205C1.946,9.205 1.83,9.105 1.744,8.906C1.658,8.705 1.615,8.44 1.615,8.11C1.615,7.751 1.66,7.47 1.749,7.267C1.839,7.065 1.96,6.965 2.113,6.965C2.258,6.965 2.372,7.063 2.453,7.259C2.536,7.456 2.576,7.728 2.576,8.077C2.576,8.418 2.532,8.691 2.444,8.897C2.356,9.103 2.238,9.205 2.09,9.205ZM2.101,7.253C2.001,7.253 1.922,7.328 1.863,7.477C1.804,7.628 1.775,7.835 1.775,8.098C1.775,8.351 1.805,8.551 1.864,8.697C1.923,8.844 2.002,8.917 2.101,8.917C2.202,8.917 2.28,8.845 2.334,8.701C2.388,8.558 2.416,8.353 2.416,8.089C2.416,7.822 2.388,7.615 2.334,7.47C2.28,7.325 2.202,7.253 2.101,7.253Z" style="fill-rule:nonzero;"/>
        <path d="M3.335,7.362C3.308,7.316 3.268,7.293 3.217,7.293C3.151,7.293 3.094,7.362 3.05,7.499C3.005,7.637 2.982,7.825 2.982,8.064L2.982,9.155L2.826,9.155L2.826,7.016L2.982,7.016L2.982,7.456L2.986,7.456C3.009,7.306 3.042,7.188 3.088,7.104C3.134,7.019 3.185,6.977 3.241,6.977C3.282,6.977 3.314,6.987 3.335,7.006L3.335,7.362Z" style="fill-rule:nonzero;"/>
        <path d="M4.29,8.171L3.6,8.171C3.603,8.409 3.632,8.592 3.688,8.722C3.744,8.852 3.821,8.917 3.919,8.917C4.029,8.917 4.13,8.837 4.222,8.678L4.222,9.001C4.136,9.136 4.022,9.205 3.881,9.205C3.744,9.205 3.635,9.107 3.556,8.914C3.478,8.719 3.438,8.446 3.438,8.093C3.438,7.76 3.481,7.489 3.567,7.279C3.653,7.07 3.761,6.965 3.888,6.965C4.016,6.965 4.115,7.055 4.185,7.236C4.255,7.418 4.29,7.669 4.29,7.991L4.29,8.171ZM4.13,7.88C4.129,7.683 4.107,7.528 4.064,7.418C4.022,7.308 3.962,7.253 3.885,7.253C3.812,7.253 3.749,7.311 3.697,7.426C3.646,7.542 3.614,7.693 3.603,7.88L4.13,7.88Z" style="fill-rule:nonzero;"/>
        <path d="M5.226,9.155L5.069,9.155L5.069,8.821L5.065,8.821C4.997,9.077 4.897,9.205 4.765,9.205C4.667,9.205 4.591,9.149 4.536,9.036C4.481,8.923 4.454,8.773 4.454,8.587C4.454,8.186 4.561,7.954 4.776,7.888L5.069,7.799C5.069,7.436 5.002,7.253 4.868,7.253C4.75,7.253 4.644,7.34 4.549,7.517L4.549,7.165C4.645,7.032 4.756,6.965 4.881,6.965C5.11,6.965 5.226,7.231 5.226,7.763L5.226,9.155ZM5.069,8.073L4.833,8.143C4.761,8.165 4.706,8.205 4.669,8.262C4.633,8.319 4.614,8.418 4.614,8.561C4.614,8.665 4.631,8.751 4.665,8.817C4.699,8.884 4.745,8.917 4.801,8.917C4.879,8.917 4.943,8.857 4.993,8.739C5.044,8.619 5.069,8.468 5.069,8.286L5.069,8.073Z" style="fill-rule:nonzero;"/>
        <path d="M6.907,9.155L6.75,9.155L6.75,7.926C6.75,7.69 6.734,7.518 6.7,7.412C6.667,7.306 6.611,7.253 6.531,7.253C6.465,7.253 6.408,7.32 6.361,7.454C6.314,7.588 6.292,7.748 6.292,7.934L6.292,9.155L6.135,9.155L6.135,7.885C6.135,7.463 6.061,7.253 5.913,7.253C5.844,7.253 5.787,7.316 5.743,7.443C5.699,7.569 5.676,7.733 5.676,7.934L5.676,9.155L5.52,9.155L5.52,7.016L5.676,7.016L5.676,7.353L5.68,7.353C5.75,7.094 5.851,6.965 5.983,6.965C6.05,6.965 6.108,7.005 6.158,7.087C6.207,7.169 6.242,7.275 6.26,7.408C6.332,7.113 6.441,6.965 6.584,6.965C6.799,6.965 6.907,7.256 6.907,7.836L6.907,9.155Z" style="fill-rule:nonzero;"/>
        <path d="M1.493,14.108L0.783,14.108L0.783,11.111L0.944,11.111L0.944,13.79L1.493,13.79L1.493,14.108Z" style="fill-rule:nonzero;"/>
        <path d="M2.09,14.158C1.946,14.158 1.83,14.058 1.744,13.859C1.658,13.659 1.615,13.393 1.615,13.064C1.615,12.704 1.66,12.423 1.749,12.222C1.839,12.02 1.96,11.919 2.113,11.919C2.258,11.919 2.372,12.016 2.453,12.213C2.536,12.41 2.576,12.682 2.576,13.03C2.576,13.371 2.532,13.645 2.444,13.851C2.356,14.056 2.238,14.158 2.09,14.158ZM2.101,12.207C2.001,12.207 1.922,12.282 1.863,12.432C1.804,12.581 1.775,12.788 1.775,13.051C1.775,13.304 1.805,13.505 1.864,13.651C1.923,13.797 2.002,13.87 2.101,13.87C2.202,13.87 2.28,13.798 2.334,13.655C2.388,13.512 2.416,13.308 2.416,13.043C2.416,12.775 2.388,12.569 2.334,12.423C2.28,12.28 2.202,12.207 2.101,12.207Z" style="fill-rule:nonzero;"/>
        <path d="M3.335,12.316C3.308,12.269 3.268,12.246 3.217,12.246C3.151,12.246 3.094,12.316 3.05,12.454C3.005,12.592 2.982,12.78 2.982,13.018L2.982,14.108L2.826,14.108L2.826,11.969L2.982,11.969L2.982,12.41L2.986,12.41C3.009,12.259 3.042,12.142 3.088,12.057C3.134,11.973 3.185,11.93 3.241,11.93C3.282,11.93 3.314,11.941 3.335,11.961L3.335,12.316Z" style="fill-rule:nonzero;"/>
        <path d="M4.891,14.108L4.735,14.108L4.735,12.879C4.735,12.643 4.719,12.471 4.685,12.365C4.651,12.26 4.596,12.207 4.517,12.207C4.45,12.207 4.393,12.274 4.347,12.407C4.3,12.541 4.276,12.701 4.276,12.888L4.276,14.108L4.12,14.108L4.12,12.838C4.12,12.417 4.046,12.207 3.898,12.207C3.829,12.207 3.773,12.269 3.728,12.396C3.683,12.522 3.661,12.686 3.661,12.888L3.661,14.108L3.505,14.108L3.505,11.969L3.661,11.969L3.661,12.307L3.665,12.307C3.734,12.048 3.835,11.919 3.968,11.919C4.035,11.919 4.094,11.959 4.143,12.041C4.192,12.122 4.227,12.229 4.245,12.361C4.318,12.066 4.426,11.919 4.569,11.919C4.784,11.919 4.891,12.209 4.891,12.79L4.891,14.108Z" style="fill-rule:nonzero;"/>
        <path d="M1.493,19.23L0.783,19.23L0.783,16.233L0.944,16.233L0.944,18.912L1.493,18.912L1.493,19.23Z" style="fill-rule:nonzero;"/>
        <path d="M2.09,19.279C1.946,19.279 1.83,19.18 1.744,18.979C1.658,18.779 1.615,18.515 1.615,18.184C1.615,17.824 1.66,17.544 1.749,17.342C1.839,17.14 1.96,17.039 2.113,17.039C2.258,17.039 2.372,17.138 2.453,17.334C2.536,17.53 2.576,17.802 2.576,18.15C2.576,18.492 2.532,18.765 2.444,18.971C2.356,19.176 2.238,19.279 2.09,19.279ZM2.101,17.327C2.001,17.327 1.922,17.402 1.863,17.552C1.804,17.701 1.775,17.908 1.775,18.171C1.775,18.425 1.805,18.625 1.864,18.771C1.923,18.917 2.002,18.99 2.101,18.99C2.202,18.99 2.28,18.919 2.334,18.776C2.388,18.632 2.416,18.428 2.416,18.163C2.416,17.895 2.388,17.69 2.334,17.545C2.28,17.4 2.202,17.327 2.101,17.327Z" style="fill-rule:nonzero;"/>
        <rect x="2.805" y="17.902" width="0.521" height="0.269"/>
        <path d="M4.116,17.436C4.089,17.389 4.05,17.367 3.998,17.367C3.932,17.367 3.875,17.436 3.83,17.574C3.786,17.712 3.763,17.9 3.763,18.138L3.763,19.23L3.607,19.23L3.607,17.089L3.763,17.089L3.763,17.53L3.767,17.53C3.79,17.379 3.823,17.262 3.869,17.178C3.915,17.093 3.966,17.052 4.022,17.052C4.063,17.052 4.094,17.061 4.116,17.081L4.116,17.436Z" style="fill-rule:nonzero;"/>
        <path d="M5.071,18.244L4.381,18.244C4.384,18.483 4.413,18.667 4.469,18.797C4.525,18.926 4.602,18.99 4.7,18.99C4.81,18.99 4.911,18.912 5.003,18.753L5.003,19.074C4.917,19.211 4.803,19.279 4.662,19.279C4.525,19.279 4.416,19.182 4.337,18.988C4.259,18.793 4.219,18.519 4.219,18.168C4.219,17.835 4.262,17.563 4.348,17.353C4.434,17.143 4.542,17.039 4.669,17.039C4.797,17.039 4.896,17.129 4.966,17.31C5.036,17.491 5.071,17.743 5.071,18.065L5.071,18.244ZM4.911,17.954C4.91,17.756 4.888,17.603 4.845,17.493C4.803,17.382 4.743,17.327 4.666,17.327C4.593,17.327 4.53,17.385 4.478,17.501C4.427,17.617 4.395,17.768 4.384,17.954L4.911,17.954Z" style="fill-rule:nonzero;"/>
        <path d="M6.694,19.23L6.538,19.23L6.538,18C6.538,17.763 6.52,17.592 6.488,17.486C6.454,17.38 6.398,17.327 6.319,17.327C6.253,17.327 6.195,17.394 6.149,17.527C6.102,17.662 6.079,17.822 6.079,18.009L6.079,19.23L5.922,19.23L5.922,17.958C5.922,17.538 5.848,17.327 5.7,17.327C5.631,17.327 5.575,17.391 5.53,17.516C5.486,17.642 5.464,17.807 5.464,18.009L5.464,19.23L5.307,19.23L5.307,17.089L5.464,17.089L5.464,17.428L5.468,17.428C5.537,17.169 5.638,17.039 5.771,17.039C5.837,17.039 5.895,17.08 5.945,17.161C5.995,17.242 6.029,17.35 6.047,17.482C6.119,17.186 6.227,17.039 6.372,17.039C6.586,17.039 6.694,17.329 6.694,17.91L6.694,19.23Z" style="fill-rule:nonzero;"/>
        <path d="M1.493,23.982L0.783,23.982L0.783,20.985L0.944,20.985L0.944,23.664L1.493,23.664L1.493,23.982Z" style="fill-rule:nonzero;"/>
        <path d="M2.09,24.032C1.946,24.032 1.83,23.932 1.744,23.732C1.658,23.532 1.615,23.267 1.615,22.937C1.615,22.577 1.66,22.296 1.749,22.094C1.839,21.892 1.96,21.791 2.113,21.791C2.258,21.791 2.372,21.89 2.453,22.086C2.536,22.282 2.576,22.555 2.576,22.903C2.576,23.245 2.532,23.518 2.444,23.723C2.356,23.93 2.238,24.032 2.09,24.032ZM2.101,22.08C2.001,22.08 1.922,22.154 1.863,22.304C1.804,22.454 1.775,22.66 1.775,22.924C1.775,23.178 1.805,23.377 1.864,23.524C1.923,23.67 2.002,23.744 2.101,23.744C2.202,23.744 2.28,23.672 2.334,23.528C2.388,23.384 2.416,23.18 2.416,22.916C2.416,22.649 2.388,22.442 2.334,22.297C2.28,22.152 2.202,22.08 2.101,22.08Z" style="fill-rule:nonzero;"/>
        <path d="M3.279,23.961C3.242,24.005 3.194,24.027 3.133,24.027C2.962,24.027 2.876,23.818 2.876,23.401L2.876,22.135L2.709,22.135L2.709,21.841L2.876,21.841L2.876,21.319L3.033,21.209L3.033,21.841L3.279,21.841L3.279,22.135L3.033,22.135L3.033,23.34C3.033,23.484 3.044,23.586 3.066,23.648C3.089,23.709 3.125,23.739 3.177,23.739C3.216,23.739 3.25,23.716 3.279,23.669L3.279,23.961Z" style="fill-rule:nonzero;"/>
        <path d="M3.941,23.961C3.904,24.005 3.856,24.027 3.794,24.027C3.624,24.027 3.538,23.818 3.538,23.401L3.538,22.135L3.371,22.135L3.371,21.841L3.538,21.841L3.538,21.319L3.695,21.209L3.695,21.841L3.941,21.841L3.941,22.135L3.695,22.135L3.695,23.34C3.695,23.484 3.706,23.586 3.728,23.648C3.751,23.709 3.787,23.739 3.838,23.739C3.878,23.739 3.912,23.716 3.941,23.669L3.941,23.961Z" style="fill-rule:nonzero;"/>
        <path d="M4.934,22.997L4.245,22.997C4.247,23.236 4.277,23.419 4.333,23.549C4.389,23.679 4.466,23.744 4.564,23.744C4.673,23.744 4.774,23.664 4.867,23.505L4.867,23.828C4.781,23.963 4.667,24.032 4.526,24.032C4.388,24.032 4.28,23.934 4.201,23.741C4.122,23.546 4.083,23.273 4.083,22.92C4.083,22.587 4.126,22.316 4.212,22.106C4.298,21.897 4.405,21.791 4.533,21.791C4.661,21.791 4.76,21.882 4.829,22.063C4.9,22.244 4.934,22.496 4.934,22.818L4.934,22.997ZM4.774,22.707C4.774,22.51 4.752,22.355 4.709,22.245C4.666,22.135 4.606,22.08 4.53,22.08C4.456,22.08 4.394,22.138 4.342,22.253C4.291,22.369 4.259,22.52 4.247,22.707L4.774,22.707Z" style="fill-rule:nonzero;"/>
        <path d="M6.557,23.982L6.401,23.982L6.401,22.753C6.401,22.516 6.384,22.345 6.351,22.239C6.318,22.132 6.261,22.08 6.183,22.08C6.116,22.08 6.059,22.146 6.013,22.281C5.966,22.414 5.942,22.575 5.942,22.761L5.942,23.982L5.786,23.982L5.786,22.711C5.786,22.29 5.712,22.08 5.564,22.08C5.495,22.08 5.439,22.143 5.394,22.269C5.349,22.395 5.327,22.559 5.327,22.761L5.327,23.982L5.171,23.982L5.171,21.841L5.327,21.841L5.327,22.18L5.331,22.18C5.4,21.921 5.501,21.791 5.635,21.791C5.701,21.791 5.759,21.832 5.809,21.914C5.859,21.996 5.892,22.102 5.911,22.235C5.983,21.939 6.091,21.791 6.235,21.791C6.45,21.791 6.557,22.083 6.557,22.663L6.557,23.982Z" style="fill-rule:nonzero;"/>
        <path d="M1.455,28.879L0.746,28.879L0.746,25.882L0.906,25.882L0.906,28.561L1.455,28.561L1.455,28.879Z" style="fill-rule:nonzero;"/>
        <path d="M2.052,28.929C1.907,28.929 1.792,28.829 1.706,28.63C1.62,28.429 1.577,28.165 1.577,27.834C1.577,27.475 1.621,27.195 1.712,26.992C1.801,26.79 1.922,26.689 2.075,26.689C2.221,26.689 2.334,26.787 2.416,26.983C2.497,27.181 2.538,27.452 2.538,27.801C2.538,28.143 2.494,28.415 2.406,28.622C2.318,28.827 2.2,28.929 2.052,28.929ZM2.063,26.978C1.963,26.978 1.883,27.052 1.825,27.202C1.766,27.352 1.737,27.559 1.737,27.822C1.737,28.075 1.767,28.275 1.826,28.421C1.885,28.568 1.965,28.641 2.063,28.641C2.164,28.641 2.242,28.57 2.297,28.426C2.351,28.282 2.378,28.078 2.378,27.813C2.378,27.546 2.351,27.34 2.297,27.195C2.242,27.05 2.164,26.978 2.063,26.978Z" style="fill-rule:nonzero;"/>
        <path d="M3.297,27.087C3.27,27.04 3.23,27.017 3.179,27.017C3.112,27.017 3.057,27.087 3.012,27.224C2.967,27.362 2.945,27.55 2.945,27.789L2.945,28.879L2.788,28.879L2.788,26.74L2.945,26.74L2.945,27.181L2.948,27.181C2.97,27.03 3.005,26.913 3.05,26.828C3.097,26.743 3.147,26.702 3.204,26.702C3.245,26.702 3.276,26.711 3.297,26.731L3.297,27.087Z" style="fill-rule:nonzero;"/>
        <path d="M4.257,28.879L4.1,28.879L4.1,28.541L4.097,28.541C4.032,28.8 3.932,28.929 3.795,28.929C3.563,28.929 3.446,28.625 3.446,28.018L3.446,26.74L3.602,26.74L3.602,27.964C3.602,28.415 3.68,28.641 3.838,28.641C3.914,28.641 3.977,28.579 4.026,28.456C4.076,28.333 4.1,28.172 4.1,27.972L4.1,26.74L4.257,26.74L4.257,28.879Z" style="fill-rule:nonzero;"/>
        <path d="M4.652,26.196C4.625,26.196 4.601,26.175 4.581,26.133C4.561,26.091 4.551,26.038 4.551,25.974C4.551,25.91 4.561,25.857 4.581,25.814C4.601,25.772 4.625,25.751 4.652,25.751C4.681,25.751 4.705,25.772 4.725,25.814C4.745,25.857 4.756,25.91 4.756,25.974C4.756,26.036 4.745,26.088 4.725,26.131C4.705,26.175 4.681,26.196 4.652,26.196ZM4.729,28.879L4.572,28.879L4.572,26.74L4.729,26.74L4.729,28.879Z" style="fill-rule:nonzero;"/>
        <path d="M6.432,28.879L6.275,28.879L6.275,27.651C6.275,27.414 6.259,27.242 6.225,27.137C6.192,27.03 6.136,26.978 6.058,26.978C5.99,26.978 5.934,27.044 5.887,27.178C5.841,27.312 5.817,27.472 5.817,27.659L5.817,28.879L5.66,28.879L5.66,27.609C5.66,27.188 5.587,26.978 5.438,26.978C5.37,26.978 5.313,27.04 5.269,27.167C5.224,27.293 5.202,27.457 5.202,27.659L5.202,28.879L5.045,28.879L5.045,26.74L5.202,26.74L5.202,27.077L5.205,27.077C5.275,26.819 5.376,26.689 5.509,26.689C5.576,26.689 5.634,26.729 5.683,26.812C5.733,26.893 5.767,27 5.786,27.132C5.858,26.837 5.966,26.689 6.109,26.689C6.325,26.689 6.432,26.98 6.432,27.56L6.432,28.879Z" style="fill-rule:nonzero;"/>
        <path d="M9.322,4.314L8.643,4.314L8.643,1.517L8.797,1.517L8.797,4.017L9.322,4.017L9.322,4.314Z" style="fill-rule:nonzero;"/>
        <path d="M9.892,4.361C9.754,4.361 9.644,4.268 9.561,4.081C9.479,3.894 9.438,3.647 9.438,3.339C9.438,3.003 9.481,2.741 9.567,2.553C9.652,2.364 9.768,2.27 9.914,2.27C10.053,2.27 10.161,2.362 10.24,2.545C10.318,2.728 10.356,2.983 10.356,3.307C10.356,3.626 10.315,3.882 10.23,4.073C10.147,4.266 10.034,4.361 9.892,4.361ZM9.903,2.539C9.807,2.539 9.731,2.609 9.675,2.749C9.619,2.889 9.591,3.081 9.591,3.327C9.591,3.564 9.619,3.751 9.676,3.888C9.733,4.023 9.808,4.092 9.903,4.092C9.999,4.092 10.074,4.026 10.126,3.891C10.178,3.758 10.204,3.566 10.204,3.32C10.204,3.07 10.178,2.877 10.126,2.742C10.074,2.607 9.999,2.539 9.903,2.539Z" style="fill-rule:nonzero;"/>
        <path d="M11.083,2.64C11.056,2.597 11.018,2.576 10.969,2.576C10.906,2.576 10.852,2.64 10.809,2.769C10.766,2.898 10.745,3.074 10.745,3.296L10.745,4.314L10.595,4.314L10.595,2.317L10.745,2.317L10.745,2.728L10.749,2.728C10.77,2.588 10.802,2.479 10.846,2.4C10.89,2.321 10.938,2.282 10.993,2.282C11.032,2.282 11.061,2.291 11.083,2.31L11.083,2.64Z" style="fill-rule:nonzero;"/>
        <path d="M11.994,3.396L11.336,3.396C11.338,3.618 11.366,3.79 11.419,3.911C11.473,4.031 11.546,4.092 11.64,4.092C11.745,4.092 11.842,4.017 11.929,3.87L11.929,4.171C11.848,4.297 11.739,4.361 11.604,4.361C11.473,4.361 11.369,4.27 11.293,4.089C11.218,3.907 11.181,3.652 11.181,3.324C11.181,3.013 11.222,2.76 11.304,2.564C11.387,2.368 11.488,2.27 11.611,2.27C11.733,2.27 11.828,2.355 11.894,2.524C11.961,2.692 11.994,2.928 11.994,3.227L11.994,3.396ZM11.842,3.124C11.841,2.94 11.82,2.796 11.779,2.694C11.738,2.59 11.681,2.539 11.608,2.539C11.538,2.539 11.477,2.594 11.429,2.702C11.379,2.81 11.349,2.95 11.337,3.124L11.842,3.124Z" style="fill-rule:nonzero;"/>
        <path d="M13.545,4.314L13.396,4.314L13.396,3.167C13.396,2.947 13.38,2.786 13.348,2.688C13.317,2.589 13.263,2.539 13.187,2.539C13.124,2.539 13.069,2.602 13.024,2.726C12.98,2.851 12.958,3.001 12.958,3.175L12.958,4.314L12.808,4.314L12.808,3.129C12.808,2.735 12.738,2.539 12.596,2.539C12.53,2.539 12.476,2.598 12.434,2.716C12.392,2.834 12.37,2.987 12.37,3.175L12.37,4.314L12.221,4.314L12.221,2.317L12.37,2.317L12.37,2.633L12.374,2.633C12.44,2.391 12.536,2.27 12.663,2.27C12.727,2.27 12.782,2.308 12.83,2.384C12.877,2.46 12.91,2.56 12.927,2.683C12.997,2.408 13.1,2.27 13.238,2.27C13.443,2.27 13.545,2.542 13.545,3.083L13.545,4.314Z" style="fill-rule:nonzero;"/>
        <rect x="14.359" y="1.517" width="0.153" height="2.797"/>
        <path d="M15.504,4.314L15.355,4.314L15.355,4.002L15.351,4.002C15.286,4.241 15.19,4.361 15.063,4.361C14.971,4.361 14.898,4.309 14.846,4.203C14.793,4.098 14.767,3.958 14.767,3.784C14.767,3.411 14.869,3.194 15.074,3.132L15.355,3.049C15.355,2.709 15.291,2.539 15.162,2.539C15.05,2.539 14.948,2.622 14.857,2.785L14.857,2.457C14.95,2.333 15.056,2.27 15.175,2.27C15.394,2.27 15.504,2.518 15.504,3.015L15.504,4.314ZM15.355,3.304L15.129,3.37C15.06,3.391 15.008,3.428 14.973,3.48C14.937,3.534 14.92,3.626 14.92,3.76C14.92,3.859 14.936,3.937 14.969,3.999C15.001,4.062 15.045,4.092 15.099,4.092C15.172,4.092 15.233,4.036 15.282,3.926C15.331,3.814 15.355,3.673 15.355,3.503L15.355,3.304Z" style="fill-rule:nonzero;"/>
        <path d="M15.729,4.243L15.729,3.899C15.811,4.028 15.9,4.092 15.998,4.092C16.129,4.092 16.195,3.999 16.195,3.811C16.195,3.758 16.189,3.712 16.178,3.675C16.166,3.638 16.152,3.606 16.133,3.577C16.113,3.549 16.09,3.523 16.065,3.5C16.039,3.477 16.011,3.454 15.982,3.429C15.94,3.393 15.904,3.358 15.873,3.322C15.841,3.287 15.815,3.246 15.794,3.202C15.773,3.157 15.758,3.106 15.747,3.049C15.736,2.991 15.731,2.925 15.731,2.848C15.731,2.754 15.741,2.67 15.761,2.598C15.781,2.527 15.808,2.466 15.841,2.417C15.874,2.369 15.913,2.332 15.956,2.307C15.998,2.283 16.043,2.27 16.088,2.27C16.169,2.27 16.242,2.3 16.305,2.359L16.305,2.683C16.236,2.587 16.158,2.539 16.068,2.539C16.04,2.539 16.015,2.546 15.993,2.56C15.97,2.573 15.951,2.593 15.935,2.617C15.918,2.643 15.906,2.672 15.897,2.706C15.888,2.74 15.884,2.778 15.884,2.82C15.884,2.872 15.888,2.915 15.897,2.951C15.906,2.986 15.919,3.017 15.936,3.044C15.953,3.072 15.974,3.096 15.998,3.118C16.022,3.14 16.05,3.165 16.081,3.191C16.123,3.225 16.159,3.26 16.192,3.295C16.225,3.331 16.253,3.371 16.276,3.416C16.299,3.461 16.317,3.513 16.329,3.571C16.342,3.63 16.348,3.7 16.348,3.78C16.348,3.878 16.338,3.964 16.318,4.037C16.297,4.11 16.27,4.171 16.236,4.219C16.202,4.267 16.163,4.303 16.118,4.326C16.074,4.349 16.028,4.361 15.978,4.361C15.883,4.361 15.8,4.321 15.729,4.243Z" style="fill-rule:nonzero;"/>
        <path d="M17.332,4.314L17.182,4.314L17.182,3.999L17.179,3.999C17.117,4.24 17.021,4.361 16.891,4.361C16.669,4.361 16.557,4.078 16.557,3.51L16.557,2.317L16.706,2.317L16.706,3.461C16.706,3.882 16.781,4.092 16.932,4.092C17.005,4.092 17.065,4.035 17.112,3.919C17.159,3.804 17.182,3.654 17.182,3.468L17.182,2.317L17.332,2.317L17.332,4.314Z" style="fill-rule:nonzero;"/>
        <path d="M18.959,4.314L18.809,4.314L18.809,3.167C18.809,2.947 18.794,2.786 18.762,2.688C18.729,2.589 18.676,2.539 18.601,2.539C18.537,2.539 18.483,2.602 18.438,2.726C18.393,2.851 18.371,3.001 18.371,3.175L18.371,4.314L18.222,4.314L18.222,3.129C18.222,2.735 18.151,2.539 18.01,2.539C17.944,2.539 17.89,2.598 17.847,2.716C17.804,2.834 17.783,2.987 17.783,3.175L17.783,4.314L17.634,4.314L17.634,2.317L17.783,2.317L17.783,2.633L17.787,2.633C17.853,2.391 17.95,2.27 18.077,2.27C18.14,2.27 18.196,2.308 18.244,2.384C18.291,2.46 18.324,2.56 18.341,2.683C18.41,2.408 18.513,2.27 18.651,2.27C18.856,2.27 18.959,2.542 18.959,3.083L18.959,4.314Z" style="fill-rule:nonzero;"/>
        <path d="M19.975,2.317L19.603,4.314L19.456,4.314L19.103,2.317L19.267,2.317L19.504,3.768C19.521,3.875 19.532,3.968 19.536,4.048L19.54,4.048C19.547,3.947 19.556,3.856 19.569,3.776L19.818,2.317L19.975,2.317Z" style="fill-rule:nonzero;"/>
        <path d="M9.485,9.059L8.643,9.059L8.643,6.261L8.834,6.261L8.834,8.762L9.485,8.762L9.485,9.059Z" style="fill-rule:nonzero;"/>
        <path d="M10.194,9.105C10.023,9.105 9.886,9.012 9.784,8.826C9.681,8.639 9.63,8.392 9.63,8.083C9.63,7.748 9.684,7.485 9.79,7.297C9.897,7.108 10.04,7.014 10.221,7.014C10.394,7.014 10.529,7.106 10.626,7.289C10.723,7.473 10.772,7.727 10.772,8.052C10.772,8.371 10.719,8.626 10.615,8.817C10.51,9.01 10.37,9.105 10.194,9.105ZM10.208,7.284C10.089,7.284 9.994,7.353 9.925,7.494C9.855,7.633 9.821,7.825 9.821,8.071C9.821,8.308 9.856,8.495 9.926,8.632C9.996,8.768 10.09,8.836 10.208,8.836C10.327,8.836 10.42,8.77 10.484,8.635C10.549,8.502 10.581,8.312 10.581,8.064C10.581,7.814 10.549,7.621 10.484,7.487C10.42,7.351 10.327,7.284 10.208,7.284Z" style="fill-rule:nonzero;"/>
        <path d="M11.672,7.385C11.64,7.342 11.593,7.321 11.532,7.321C11.452,7.321 11.387,7.385 11.333,7.513C11.28,7.642 11.253,7.818 11.253,8.04L11.253,9.059L11.068,9.059L11.068,7.061L11.253,7.061L11.253,7.473L11.258,7.473C11.285,7.332 11.325,7.223 11.379,7.144C11.434,7.065 11.494,7.026 11.561,7.026C11.61,7.026 11.647,7.035 11.672,7.054L11.672,7.385Z" style="fill-rule:nonzero;"/>
        <path d="M12.805,8.14L11.987,8.14C11.99,8.363 12.025,8.534 12.091,8.655C12.157,8.776 12.249,8.836 12.365,8.836C12.496,8.836 12.616,8.762 12.725,8.614L12.725,8.915C12.623,9.041 12.489,9.105 12.321,9.105C12.157,9.105 12.028,9.015 11.935,8.834C11.842,8.652 11.795,8.396 11.795,8.068C11.795,7.757 11.846,7.504 11.948,7.308C12.05,7.112 12.177,7.014 12.329,7.014C12.48,7.014 12.598,7.099 12.681,7.268C12.764,7.437 12.805,7.672 12.805,7.973L12.805,8.14ZM12.615,7.868C12.614,7.684 12.588,7.54 12.537,7.438C12.486,7.335 12.416,7.284 12.325,7.284C12.238,7.284 12.164,7.338 12.102,7.446C12.041,7.554 12.004,7.694 11.989,7.868L12.615,7.868Z" style="fill-rule:nonzero;"/>
        <path d="M14.731,9.059L14.546,9.059L14.546,7.911C14.546,7.691 14.526,7.531 14.486,7.432C14.447,7.333 14.38,7.284 14.286,7.284C14.207,7.284 14.14,7.346 14.085,7.47C14.029,7.596 14.001,7.745 14.001,7.919L14.001,9.059L13.816,9.059L13.816,7.873C13.816,7.48 13.728,7.284 13.552,7.284C13.471,7.284 13.404,7.343 13.351,7.46C13.298,7.578 13.271,7.731 13.271,7.919L13.271,9.059L13.086,9.059L13.086,7.061L13.271,7.061L13.271,7.378L13.276,7.378C13.358,7.135 13.478,7.014 13.636,7.014C13.715,7.014 13.784,7.053 13.843,7.128C13.902,7.205 13.943,7.304 13.964,7.427C14.05,7.152 14.178,7.014 14.349,7.014C14.604,7.014 14.731,7.286 14.731,7.828L14.731,9.059Z" style="fill-rule:nonzero;"/>
        <rect x="15.743" y="6.261" width="0.19" height="2.797"/>
        <path d="M17.164,9.059L16.978,9.059L16.978,8.747L16.974,8.747C16.893,8.986 16.774,9.105 16.617,9.105C16.502,9.105 16.412,9.053 16.346,8.947C16.281,8.842 16.248,8.703 16.248,8.529C16.248,8.155 16.376,7.938 16.631,7.876L16.978,7.793C16.978,7.453 16.899,7.284 16.74,7.284C16.6,7.284 16.473,7.366 16.361,7.53L16.361,7.201C16.475,7.077 16.607,7.014 16.755,7.014C17.028,7.014 17.164,7.263 17.164,7.759L17.164,9.059ZM16.978,8.048L16.699,8.114C16.613,8.135 16.548,8.172 16.504,8.225C16.46,8.278 16.438,8.371 16.438,8.505C16.438,8.603 16.459,8.682 16.499,8.743C16.539,8.806 16.593,8.836 16.66,8.836C16.752,8.836 16.828,8.78 16.889,8.67C16.948,8.559 16.978,8.417 16.978,8.248L16.978,8.048Z" style="fill-rule:nonzero;"/>
        <path d="M17.443,8.987L17.443,8.643C17.544,8.772 17.656,8.836 17.778,8.836C17.941,8.836 18.022,8.743 18.022,8.555C18.022,8.502 18.015,8.457 18.001,8.419C17.987,8.382 17.968,8.35 17.945,8.321C17.92,8.293 17.893,8.267 17.861,8.244C17.829,8.221 17.794,8.198 17.757,8.173C17.706,8.138 17.66,8.103 17.622,8.067C17.583,8.031 17.551,7.99 17.525,7.946C17.498,7.901 17.479,7.85 17.465,7.793C17.453,7.736 17.446,7.669 17.446,7.592C17.446,7.498 17.458,7.416 17.483,7.343C17.508,7.271 17.541,7.21 17.583,7.162C17.624,7.113 17.671,7.076 17.724,7.052C17.778,7.027 17.833,7.014 17.89,7.014C17.99,7.014 18.079,7.045 18.158,7.104L18.158,7.427C18.074,7.332 17.975,7.284 17.865,7.284C17.829,7.284 17.798,7.291 17.771,7.304C17.742,7.317 17.719,7.337 17.699,7.361C17.679,7.387 17.663,7.416 17.652,7.451C17.641,7.484 17.636,7.523 17.636,7.564C17.636,7.617 17.641,7.661 17.652,7.695C17.663,7.73 17.679,7.762 17.7,7.788C17.721,7.816 17.747,7.84 17.778,7.863C17.808,7.885 17.842,7.909 17.88,7.936C17.931,7.969 17.977,8.004 18.018,8.04C18.059,8.075 18.094,8.115 18.122,8.161C18.151,8.205 18.173,8.257 18.189,8.315C18.204,8.374 18.212,8.444 18.212,8.524C18.212,8.624 18.199,8.708 18.174,8.781C18.149,8.855 18.115,8.915 18.073,8.964C18.031,9.011 17.982,9.047 17.927,9.07C17.872,9.094 17.814,9.105 17.753,9.105C17.634,9.105 17.531,9.066 17.443,8.987Z" style="fill-rule:nonzero;"/>
        <path d="M19.434,9.059L19.249,9.059L19.249,8.743L19.244,8.743C19.167,8.984 19.048,9.105 18.886,9.105C18.61,9.105 18.473,8.822 18.473,8.255L18.473,7.061L18.657,7.061L18.657,8.205C18.657,8.626 18.751,8.836 18.938,8.836C19.028,8.836 19.102,8.779 19.161,8.664C19.22,8.548 19.249,8.399 19.249,8.212L19.249,7.061L19.434,7.061L19.434,9.059Z" style="fill-rule:nonzero;"/>
        <path d="M21.455,9.059L21.269,9.059L21.269,7.911C21.269,7.691 21.249,7.531 21.21,7.432C21.17,7.333 21.104,7.284 21.01,7.284C20.931,7.284 20.863,7.346 20.808,7.47C20.752,7.596 20.725,7.745 20.725,7.919L20.725,9.059L20.539,9.059L20.539,7.873C20.539,7.48 20.451,7.284 20.275,7.284C20.194,7.284 20.127,7.343 20.074,7.46C20.021,7.578 19.995,7.731 19.995,7.919L19.995,9.059L19.809,9.059L19.809,7.061L19.995,7.061L19.995,7.378L19.999,7.378C20.082,7.135 20.201,7.014 20.359,7.014C20.438,7.014 20.508,7.053 20.566,7.128C20.625,7.205 20.665,7.304 20.687,7.427C20.773,7.152 20.902,7.014 21.072,7.014C21.327,7.014 21.455,7.286 21.455,7.828L21.455,9.059Z" style="fill-rule:nonzero;"/>
        <path d="M22.717,7.061L22.254,9.059L22.073,9.059L21.633,7.061L21.837,7.061L22.132,8.512C22.153,8.619 22.167,8.712 22.172,8.792L22.177,8.792C22.184,8.691 22.197,8.6 22.213,8.52L22.521,7.061L22.717,7.061Z" style="fill-rule:nonzero;"/>
        <path d="M9.141,14.108L8.643,14.108L8.643,11.311L8.756,11.311L8.756,13.812L9.141,13.812L9.141,14.108Z" style="fill-rule:nonzero;"/>
        <path d="M9.561,14.156C9.46,14.156 9.378,14.062 9.318,13.875C9.257,13.688 9.227,13.441 9.227,13.134C9.227,12.797 9.258,12.536 9.322,12.347C9.384,12.159 9.47,12.064 9.576,12.064C9.679,12.064 9.759,12.155 9.816,12.339C9.873,12.522 9.902,12.776 9.902,13.102C9.902,13.42 9.871,13.675 9.809,13.868C9.747,14.059 9.665,14.156 9.561,14.156ZM9.568,12.333C9.498,12.333 9.442,12.404 9.401,12.543C9.36,12.682 9.34,12.876 9.34,13.122C9.34,13.357 9.36,13.544 9.402,13.681C9.443,13.818 9.499,13.887 9.568,13.887C9.64,13.887 9.694,13.819 9.732,13.685C9.771,13.551 9.789,13.361 9.789,13.114C9.789,12.864 9.771,12.672 9.732,12.536C9.694,12.401 9.64,12.333 9.568,12.333Z" style="fill-rule:nonzero;"/>
        <path d="M10.435,12.435C10.415,12.392 10.388,12.37 10.352,12.37C10.305,12.37 10.266,12.435 10.234,12.564C10.203,12.693 10.187,12.868 10.187,13.091L10.187,14.108L10.078,14.108L10.078,12.111L10.187,12.111L10.187,12.522L10.19,12.522C10.205,12.382 10.229,12.273 10.261,12.194C10.293,12.115 10.329,12.075 10.369,12.075C10.398,12.075 10.419,12.085 10.435,12.103L10.435,12.435Z" style="fill-rule:nonzero;"/>
        <path d="M11.105,13.189L10.62,13.189C10.623,13.412 10.643,13.584 10.682,13.704C10.721,13.825 10.776,13.887 10.844,13.887C10.921,13.887 10.993,13.812 11.057,13.664L11.057,13.964C10.997,14.092 10.917,14.156 10.818,14.156C10.721,14.156 10.645,14.064 10.59,13.883C10.534,13.702 10.507,13.447 10.507,13.117C10.507,12.806 10.537,12.553 10.598,12.357C10.658,12.162 10.733,12.064 10.823,12.064C10.913,12.064 10.982,12.148 11.031,12.318C11.08,12.487 11.105,12.722 11.105,13.022L11.105,13.189ZM10.993,12.919C10.992,12.733 10.976,12.591 10.946,12.487C10.917,12.385 10.874,12.333 10.821,12.333C10.769,12.333 10.725,12.388 10.689,12.495C10.653,12.603 10.631,12.744 10.622,12.919L10.993,12.919Z" style="fill-rule:nonzero;"/>
        <path d="M12.243,14.108L12.134,14.108L12.134,12.962C12.134,12.74 12.122,12.58 12.099,12.481C12.076,12.383 12.036,12.333 11.981,12.333C11.934,12.333 11.894,12.396 11.861,12.521C11.828,12.645 11.812,12.795 11.812,12.969L11.812,14.108L11.702,14.108L11.702,12.922C11.702,12.53 11.651,12.333 11.546,12.333C11.499,12.333 11.459,12.392 11.427,12.509C11.396,12.628 11.38,12.781 11.38,12.969L11.38,14.108L11.271,14.108L11.271,12.111L11.38,12.111L11.38,12.427L11.383,12.427C11.432,12.184 11.502,12.064 11.596,12.064C11.643,12.064 11.683,12.102 11.719,12.179C11.753,12.254 11.777,12.354 11.79,12.478C11.841,12.202 11.917,12.064 12.018,12.064C12.168,12.064 12.243,12.335 12.243,12.877L12.243,14.108Z" style="fill-rule:nonzero;"/>
        <rect x="12.841" y="11.311" width="0.113" height="2.797"/>
        <path d="M13.682,14.108L13.573,14.108L13.573,13.796L13.57,13.796C13.522,14.035 13.451,14.156 13.359,14.156C13.291,14.156 13.238,14.102 13.198,13.997C13.16,13.892 13.14,13.752 13.14,13.578C13.14,13.204 13.216,12.987 13.367,12.926L13.573,12.842C13.573,12.504 13.525,12.333 13.431,12.333C13.349,12.333 13.274,12.415 13.208,12.579L13.208,12.252C13.275,12.126 13.353,12.064 13.44,12.064C13.602,12.064 13.682,12.312 13.682,12.809L13.682,14.108ZM13.573,13.098L13.407,13.164C13.357,13.185 13.318,13.222 13.292,13.274C13.266,13.327 13.253,13.42 13.253,13.555C13.253,13.652 13.265,13.731 13.289,13.794C13.313,13.855 13.345,13.887 13.384,13.887C13.439,13.887 13.484,13.831 13.52,13.719C13.555,13.608 13.573,13.468 13.573,13.297L13.573,13.098Z" style="fill-rule:nonzero;"/>
        <path d="M13.848,14.036L13.848,13.693C13.907,13.822 13.973,13.887 14.045,13.887C14.142,13.887 14.189,13.793 14.189,13.605C14.189,13.552 14.185,13.507 14.178,13.47C14.169,13.433 14.158,13.399 14.144,13.371C14.13,13.342 14.113,13.317 14.095,13.294C14.075,13.272 14.055,13.247 14.033,13.223C14.003,13.188 13.976,13.152 13.953,13.116C13.93,13.08 13.91,13.041 13.896,12.995C13.88,12.95 13.868,12.899 13.86,12.842C13.852,12.785 13.849,12.718 13.849,12.642C13.849,12.548 13.856,12.465 13.871,12.393C13.885,12.32 13.905,12.26 13.93,12.211C13.954,12.162 13.982,12.125 14.014,12.101C14.045,12.077 14.078,12.064 14.111,12.064C14.17,12.064 14.224,12.094 14.271,12.154L14.271,12.478C14.22,12.382 14.162,12.333 14.097,12.333C14.076,12.333 14.058,12.34 14.041,12.354C14.025,12.368 14.01,12.386 13.998,12.412C13.986,12.436 13.978,12.465 13.971,12.5C13.964,12.535 13.961,12.573 13.961,12.614C13.961,12.666 13.964,12.71 13.971,12.745C13.978,12.78 13.987,12.811 14,12.839C14.012,12.866 14.027,12.891 14.045,12.913C14.063,12.935 14.083,12.958 14.106,12.985C14.136,13.019 14.163,13.053 14.188,13.089C14.212,13.125 14.232,13.165 14.249,13.21C14.266,13.255 14.279,13.306 14.288,13.366C14.297,13.424 14.302,13.493 14.302,13.574C14.302,13.673 14.294,13.759 14.279,13.831C14.264,13.904 14.245,13.964 14.22,14.013C14.195,14.061 14.166,14.097 14.134,14.12C14.101,14.143 14.066,14.156 14.031,14.156C13.961,14.156 13.899,14.115 13.848,14.036Z" style="fill-rule:nonzero;"/>
        <path d="M15.025,14.108L14.915,14.108L14.915,13.793L14.912,13.793C14.867,14.034 14.796,14.156 14.701,14.156C14.538,14.156 14.456,13.871 14.456,13.305L14.456,12.111L14.565,12.111L14.565,13.254C14.565,13.675 14.62,13.887 14.731,13.887C14.785,13.887 14.828,13.829 14.863,13.714C14.897,13.599 14.915,13.448 14.915,13.262L14.915,12.111L15.025,12.111L15.025,14.108Z" style="fill-rule:nonzero;"/>
        <path d="M16.22,14.108L16.11,14.108L16.11,12.962C16.11,12.74 16.098,12.58 16.075,12.481C16.051,12.383 16.012,12.333 15.956,12.333C15.909,12.333 15.87,12.396 15.837,12.521C15.805,12.645 15.788,12.795 15.788,12.969L15.788,14.108L15.678,14.108L15.678,12.922C15.678,12.53 15.626,12.333 15.523,12.333C15.474,12.333 15.434,12.392 15.403,12.509C15.372,12.628 15.356,12.781 15.356,12.969L15.356,14.108L15.247,14.108L15.247,12.111L15.356,12.111L15.356,12.427L15.359,12.427C15.407,12.184 15.479,12.064 15.572,12.064C15.619,12.064 15.66,12.102 15.694,12.179C15.729,12.254 15.753,12.354 15.766,12.478C15.817,12.202 15.892,12.064 15.993,12.064C16.144,12.064 16.22,12.335 16.22,12.877L16.22,14.108Z" style="fill-rule:nonzero;"/>
        <path d="M16.966,12.111L16.693,14.108L16.585,14.108L16.325,12.111L16.446,12.111L16.62,13.562C16.633,13.668 16.641,13.762 16.644,13.841L16.647,13.841C16.651,13.742 16.658,13.651 16.668,13.57L16.85,12.111L16.966,12.111Z" style="fill-rule:nonzero;"/>
        <path d="M9.322,18.921L8.643,18.921L8.643,16.124L8.797,16.124L8.797,18.624L9.322,18.624L9.322,18.921Z" style="fill-rule:nonzero;"/>
        <path d="M9.892,18.967C9.754,18.967 9.644,18.874 9.561,18.688C9.479,18.501 9.438,18.254 9.438,17.945C9.438,17.61 9.481,17.348 9.567,17.16C9.652,16.97 9.768,16.877 9.914,16.877C10.053,16.877 10.161,16.968 10.24,17.151C10.318,17.335 10.356,17.589 10.356,17.914C10.356,18.233 10.315,18.488 10.23,18.68C10.147,18.872 10.034,18.967 9.892,18.967ZM9.903,17.146C9.807,17.146 9.731,17.215 9.675,17.356C9.619,17.495 9.591,17.688 9.591,17.934C9.591,18.17 9.619,18.357 9.676,18.494C9.733,18.63 9.808,18.698 9.903,18.698C9.999,18.698 10.074,18.632 10.126,18.497C10.178,18.364 10.204,18.174 10.204,17.927C10.204,17.676 10.178,17.483 10.126,17.349C10.074,17.213 9.999,17.146 9.903,17.146Z" style="fill-rule:nonzero;"/>
        <path d="M11.083,17.247C11.056,17.204 11.018,17.183 10.969,17.183C10.906,17.183 10.852,17.247 10.809,17.375C10.766,17.504 10.745,17.681 10.745,17.902L10.745,18.921L10.595,18.921L10.595,16.923L10.745,16.923L10.745,17.335L10.749,17.335C10.77,17.194 10.802,17.085 10.846,17.006C10.89,16.928 10.938,16.888 10.993,16.888C11.032,16.888 11.061,16.897 11.083,16.916L11.083,17.247Z" style="fill-rule:nonzero;"/>
        <path d="M11.994,18.002L11.336,18.002C11.338,18.225 11.366,18.396 11.419,18.517C11.473,18.638 11.546,18.698 11.64,18.698C11.745,18.698 11.842,18.624 11.929,18.477L11.929,18.777C11.848,18.903 11.739,18.967 11.604,18.967C11.473,18.967 11.369,18.877 11.293,18.696C11.218,18.514 11.181,18.258 11.181,17.93C11.181,17.619 11.222,17.366 11.304,17.17C11.387,16.974 11.488,16.877 11.611,16.877C11.733,16.877 11.828,16.961 11.894,17.131C11.961,17.299 11.994,17.534 11.994,17.835L11.994,18.002ZM11.842,17.73C11.841,17.546 11.82,17.402 11.779,17.3C11.738,17.197 11.681,17.146 11.608,17.146C11.538,17.146 11.477,17.2 11.429,17.308C11.379,17.416 11.349,17.556 11.337,17.73L11.842,17.73Z" style="fill-rule:nonzero;"/>
        <path d="M13.545,18.921L13.396,18.921L13.396,17.773C13.396,17.553 13.38,17.393 13.348,17.294C13.317,17.196 13.263,17.146 13.187,17.146C13.124,17.146 13.069,17.208 13.024,17.332C12.98,17.458 12.958,17.607 12.958,17.782L12.958,18.921L12.808,18.921L12.808,17.735C12.808,17.342 12.738,17.146 12.596,17.146C12.53,17.146 12.476,17.205 12.434,17.322C12.392,17.44 12.37,17.594 12.37,17.782L12.37,18.921L12.221,18.921L12.221,16.923L12.37,16.923L12.37,17.24L12.374,17.24C12.44,16.997 12.536,16.877 12.663,16.877C12.727,16.877 12.782,16.915 12.83,16.99C12.877,17.067 12.91,17.167 12.927,17.29C12.997,17.015 13.1,16.877 13.238,16.877C13.443,16.877 13.545,17.148 13.545,17.69L13.545,18.921Z" style="fill-rule:nonzero;"/>
        <path d="M9.322,23.665L8.643,23.665L8.643,20.868L8.797,20.868L8.797,23.368L9.322,23.368L9.322,23.665Z" style="fill-rule:nonzero;"/>
        <path d="M9.892,23.712C9.754,23.712 9.644,23.619 9.561,23.432C9.479,23.245 9.438,22.998 9.438,22.689C9.438,22.354 9.481,22.092 9.567,21.904C9.652,21.715 9.768,21.621 9.914,21.621C10.053,21.621 10.161,21.712 10.24,21.896C10.318,22.079 10.356,22.333 10.356,22.659C10.356,22.977 10.315,23.232 10.23,23.424C10.147,23.616 10.034,23.712 9.892,23.712ZM9.903,21.89C9.807,21.89 9.731,21.96 9.675,22.1C9.619,22.239 9.591,22.432 9.591,22.678C9.591,22.914 9.619,23.101 9.676,23.238C9.733,23.375 9.808,23.442 9.903,23.442C9.999,23.442 10.074,23.376 10.126,23.242C10.178,23.108 10.204,22.918 10.204,22.671C10.204,22.42 10.178,22.228 10.126,22.093C10.074,21.957 9.999,21.89 9.903,21.89Z" style="fill-rule:nonzero;"/>
        <path d="M11.083,21.992C11.056,21.949 11.018,21.927 10.969,21.927C10.906,21.927 10.852,21.992 10.809,22.12C10.766,22.248 10.745,22.425 10.745,22.646L10.745,23.665L10.595,23.665L10.595,21.667L10.745,21.667L10.745,22.079L10.749,22.079C10.77,21.939 10.802,21.83 10.846,21.751C10.89,21.672 10.938,21.632 10.993,21.632C11.032,21.632 11.061,21.642 11.083,21.66L11.083,21.992Z" style="fill-rule:nonzero;"/>
        <path d="M11.994,22.746L11.336,22.746C11.338,22.969 11.366,23.141 11.419,23.261C11.473,23.382 11.546,23.442 11.64,23.442C11.745,23.442 11.842,23.368 11.929,23.221L11.929,23.521C11.848,23.648 11.739,23.712 11.604,23.712C11.473,23.712 11.369,23.621 11.293,23.44C11.218,23.258 11.181,23.004 11.181,22.674C11.181,22.363 11.222,22.11 11.304,21.914C11.387,21.718 11.488,21.621 11.611,21.621C11.733,21.621 11.828,21.705 11.894,21.875C11.961,22.043 11.994,22.279 11.994,22.579L11.994,22.746ZM11.842,22.475C11.841,22.29 11.82,22.146 11.779,22.044C11.738,21.941 11.681,21.89 11.608,21.89C11.538,21.89 11.477,21.944 11.429,22.052C11.379,22.16 11.349,22.301 11.337,22.475L11.842,22.475Z" style="fill-rule:nonzero;"/>
        <path d="M13.545,23.665L13.396,23.665L13.396,22.518C13.396,22.297 13.38,22.137 13.348,22.038C13.317,21.94 13.263,21.89 13.187,21.89C13.124,21.89 13.069,21.953 13.024,22.077C12.98,22.202 12.958,22.352 12.958,22.526L12.958,23.665L12.808,23.665L12.808,22.479C12.808,22.086 12.738,21.89 12.596,21.89C12.53,21.89 12.476,21.949 12.434,22.066C12.392,22.185 12.37,22.338 12.37,22.526L12.37,23.665L12.221,23.665L12.221,21.667L12.37,21.667L12.37,21.984L12.374,21.984C12.44,21.741 12.536,21.621 12.663,21.621C12.727,21.621 12.782,21.659 12.83,21.734C12.877,21.811 12.91,21.911 12.927,22.034C12.997,21.759 13.1,21.621 13.238,21.621C13.443,21.621 13.545,21.892 13.545,22.434L13.545,23.665Z" style="fill-rule:nonzero;"/>
        <rect x="14.359" y="20.868" width="0.153" height="2.797"/>
        <path d="M15.504,23.665L15.355,23.665L15.355,23.353L15.351,23.353C15.286,23.592 15.19,23.712 15.063,23.712C14.971,23.712 14.898,23.659 14.846,23.554C14.793,23.448 14.767,23.309 14.767,23.135C14.767,22.761 14.869,22.544 15.074,22.483L15.355,22.399C15.355,22.059 15.291,21.89 15.162,21.89C15.05,21.89 14.948,21.972 14.857,22.136L14.857,21.808C14.95,21.683 15.056,21.621 15.175,21.621C15.394,21.621 15.504,21.869 15.504,22.366L15.504,23.665ZM15.355,22.655L15.129,22.721C15.06,22.742 15.008,22.779 14.973,22.831C14.937,22.884 14.92,22.977 14.92,23.112C14.92,23.209 14.936,23.288 14.969,23.351C15.001,23.412 15.045,23.442 15.099,23.442C15.172,23.442 15.233,23.387 15.282,23.276C15.331,23.165 15.355,23.024 15.355,22.854L15.355,22.655Z" style="fill-rule:nonzero;"/>
        <path d="M15.729,23.593L15.729,23.25C15.811,23.379 15.9,23.442 15.998,23.442C16.129,23.442 16.195,23.35 16.195,23.162C16.195,23.108 16.189,23.063 16.178,23.026C16.166,22.989 16.152,22.956 16.133,22.928C16.113,22.899 16.09,22.874 16.065,22.851C16.039,22.827 16.011,22.804 15.982,22.78C15.94,22.744 15.904,22.709 15.873,22.673C15.841,22.637 15.815,22.598 15.794,22.552C15.773,22.507 15.758,22.456 15.747,22.399C15.736,22.342 15.731,22.275 15.731,22.199C15.731,22.105 15.741,22.022 15.761,21.949C15.781,21.877 15.808,21.817 15.841,21.768C15.874,21.719 15.913,21.682 15.956,21.658C15.998,21.634 16.043,21.621 16.088,21.621C16.169,21.621 16.242,21.651 16.305,21.71L16.305,22.034C16.236,21.939 16.158,21.89 16.068,21.89C16.04,21.89 16.015,21.897 15.993,21.911C15.97,21.924 15.951,21.943 15.935,21.968C15.918,21.993 15.906,22.022 15.897,22.057C15.888,22.092 15.884,22.129 15.884,22.171C15.884,22.223 15.888,22.267 15.897,22.302C15.906,22.337 15.919,22.368 15.936,22.396C15.953,22.423 15.974,22.447 15.998,22.469C16.022,22.491 16.05,22.515 16.081,22.542C16.123,22.576 16.159,22.61 16.192,22.646C16.225,22.681 16.253,22.722 16.276,22.767C16.299,22.811 16.317,22.863 16.329,22.921C16.342,22.981 16.348,23.05 16.348,23.13C16.348,23.23 16.338,23.316 16.318,23.388C16.297,23.461 16.27,23.521 16.236,23.57C16.202,23.618 16.163,23.654 16.118,23.677C16.074,23.7 16.028,23.712 15.978,23.712C15.883,23.712 15.8,23.672 15.729,23.593Z" style="fill-rule:nonzero;"/>
        <path d="M17.332,23.665L17.182,23.665L17.182,23.35L17.179,23.35C17.117,23.591 17.021,23.712 16.891,23.712C16.669,23.712 16.557,23.428 16.557,22.861L16.557,21.667L16.706,21.667L16.706,22.811C16.706,23.232 16.781,23.442 16.932,23.442C17.005,23.442 17.065,23.386 17.112,23.271C17.159,23.155 17.182,23.005 17.182,22.818L17.182,21.667L17.332,21.667L17.332,23.665Z" style="fill-rule:nonzero;"/>
        <path d="M18.959,23.665L18.809,23.665L18.809,22.518C18.809,22.297 18.794,22.137 18.762,22.038C18.729,21.94 18.676,21.89 18.601,21.89C18.537,21.89 18.483,21.953 18.438,22.077C18.393,22.202 18.371,22.352 18.371,22.526L18.371,23.665L18.222,23.665L18.222,22.479C18.222,22.086 18.151,21.89 18.01,21.89C17.944,21.89 17.89,21.949 17.847,22.066C17.804,22.185 17.783,22.338 17.783,22.526L17.783,23.665L17.634,23.665L17.634,21.667L17.783,21.667L17.783,21.984L17.787,21.984C17.853,21.741 17.95,21.621 18.077,21.621C18.14,21.621 18.196,21.659 18.244,21.734C18.291,21.811 18.324,21.911 18.341,22.034C18.41,21.759 18.513,21.621 18.651,21.621C18.856,21.621 18.959,21.892 18.959,22.434L18.959,23.665Z" style="fill-rule:nonzero;"/>
        <path d="M19.975,21.667L19.603,23.665L19.456,23.665L19.103,21.667L19.267,21.667L19.504,23.119C19.521,23.225 19.532,23.318 19.536,23.398L19.54,23.398C19.547,23.297 19.556,23.208 19.569,23.127L19.818,21.667L19.975,21.667Z" style="fill-rule:nonzero;"/>
        <path d="M21.27,20.868L21.27,22.715L21.437,22.715L21.437,23.007L21.27,23.007L21.27,23.665L21.123,23.665L21.123,23.007L20.508,23.007L20.508,22.731C20.565,22.593 20.623,22.446 20.682,22.289C20.74,22.132 20.795,21.973 20.848,21.812C20.902,21.651 20.951,21.49 20.996,21.33C21.041,21.168 21.079,21.015 21.111,20.868L21.27,20.868ZM20.677,22.715L21.123,22.715L21.123,21.346C21.077,21.516 21.033,21.668 20.993,21.802C20.953,21.936 20.913,22.058 20.877,22.167C20.84,22.276 20.805,22.375 20.772,22.463C20.738,22.552 20.707,22.636 20.677,22.715Z" style="fill-rule:nonzero;"/>
        <path d="M22.276,20.868L22.276,22.715L22.444,22.715L22.444,23.007L22.276,23.007L22.276,23.665L22.128,23.665L22.128,23.007L21.514,23.007L21.514,22.731C21.571,22.593 21.629,22.446 21.687,22.289C21.745,22.132 21.802,21.973 21.855,21.812C21.907,21.651 21.957,21.49 22.002,21.33C22.048,21.168 22.085,21.015 22.117,20.868L22.276,20.868ZM21.683,22.715L22.128,22.715L22.128,21.346C22.083,21.516 22.04,21.668 21.999,21.802C21.958,21.936 21.92,22.058 21.883,22.167C21.846,22.276 21.811,22.375 21.777,22.463C21.745,22.552 21.712,22.636 21.683,22.715Z" style="fill-rule:nonzero;"/>
        <path d="M9.322,28.737L8.643,28.737L8.643,25.939L8.797,25.939L8.797,28.44L9.322,28.44L9.322,28.737Z" style="fill-rule:nonzero;"/>
        <path d="M9.892,28.783C9.754,28.783 9.644,28.69 9.561,28.503C9.479,28.317 9.438,28.069 9.438,27.761C9.438,27.426 9.481,27.163 9.567,26.974C9.652,26.786 9.768,26.692 9.914,26.692C10.053,26.692 10.161,26.784 10.24,26.967C10.318,27.151 10.356,27.405 10.356,27.729C10.356,28.049 10.315,28.304 10.23,28.495C10.147,28.687 10.034,28.783 9.892,28.783ZM9.903,26.961C9.807,26.961 9.731,27.031 9.675,27.17C9.619,27.311 9.591,27.503 9.591,27.749C9.591,27.986 9.619,28.173 9.676,28.308C9.733,28.445 9.808,28.514 9.903,28.514C9.999,28.514 10.074,28.447 10.126,28.313C10.178,28.179 10.204,27.988 10.204,27.741C10.204,27.492 10.178,27.299 10.126,27.164C10.074,27.029 9.999,26.961 9.903,26.961Z" style="fill-rule:nonzero;"/>
        <path d="M11.083,27.062C11.056,27.019 11.018,26.999 10.969,26.999C10.906,26.999 10.852,27.062 10.809,27.191C10.766,27.32 10.745,27.495 10.745,27.718L10.745,28.737L10.595,28.737L10.595,26.739L10.745,26.739L10.745,27.151L10.749,27.151C10.77,27.01 10.802,26.9 10.846,26.821C10.89,26.743 10.938,26.704 10.993,26.704C11.032,26.704 11.061,26.713 11.083,26.731L11.083,27.062Z" style="fill-rule:nonzero;"/>
        <path d="M11.994,27.818L11.336,27.818C11.338,28.039 11.366,28.211 11.419,28.333C11.473,28.453 11.546,28.514 11.64,28.514C11.745,28.514 11.842,28.44 11.929,28.291L11.929,28.592C11.848,28.719 11.739,28.783 11.604,28.783C11.473,28.783 11.369,28.693 11.293,28.51C11.218,28.329 11.181,28.074 11.181,27.746C11.181,27.435 11.222,27.181 11.304,26.986C11.387,26.79 11.488,26.692 11.611,26.692C11.733,26.692 11.828,26.777 11.894,26.945C11.961,27.115 11.994,27.349 11.994,27.649L11.994,27.818ZM11.842,27.546C11.841,27.362 11.82,27.218 11.779,27.116C11.738,27.012 11.681,26.961 11.608,26.961C11.538,26.961 11.477,27.015 11.429,27.123C11.379,27.231 11.349,27.372 11.337,27.546L11.842,27.546Z" style="fill-rule:nonzero;"/>
        <path d="M13.545,28.737L13.396,28.737L13.396,27.589C13.396,27.369 13.38,27.209 13.348,27.109C13.317,27.01 13.263,26.961 13.187,26.961C13.124,26.961 13.069,27.023 13.024,27.148C12.98,27.274 12.958,27.423 12.958,27.597L12.958,28.737L12.808,28.737L12.808,27.55C12.808,27.157 12.738,26.961 12.596,26.961C12.53,26.961 12.476,27.019 12.434,27.138C12.392,27.255 12.37,27.408 12.37,27.597L12.37,28.737L12.221,28.737L12.221,26.739L12.37,26.739L12.37,27.054L12.374,27.054C12.44,26.813 12.536,26.692 12.663,26.692C12.727,26.692 12.782,26.729 12.83,26.806C12.877,26.883 12.91,26.982 12.927,27.105C12.997,26.829 13.1,26.692 13.238,26.692C13.443,26.692 13.545,26.963 13.545,27.506L13.545,28.737Z" style="fill-rule:nonzero;"/>
        <rect x="14.359" y="25.939" width="0.153" height="2.797"/>
        <path d="M15.504,28.737L15.355,28.737L15.355,28.424L15.351,28.424C15.286,28.663 15.19,28.783 15.063,28.783C14.971,28.783 14.898,28.731 14.846,28.625C14.793,28.52 14.767,28.38 14.767,28.205C14.767,27.833 14.869,27.615 15.074,27.554L15.355,27.47C15.355,27.131 15.291,26.961 15.162,26.961C15.05,26.961 14.948,27.043 14.857,27.207L14.857,26.879C14.95,26.754 15.056,26.692 15.175,26.692C15.394,26.692 15.504,26.941 15.504,27.437L15.504,28.737ZM15.355,27.726L15.129,27.792C15.06,27.813 15.008,27.85 14.973,27.902C14.937,27.955 14.92,28.049 14.92,28.182C14.92,28.279 14.936,28.36 14.969,28.421C15.001,28.482 15.045,28.514 15.099,28.514C15.172,28.514 15.233,28.458 15.282,28.347C15.331,28.235 15.355,28.095 15.355,27.924L15.355,27.726Z" style="fill-rule:nonzero;"/>
        <path d="M15.729,28.663L15.729,28.321C15.811,28.45 15.9,28.514 15.998,28.514C16.129,28.514 16.195,28.42 16.195,28.233C16.195,28.18 16.189,28.134 16.178,28.097C16.166,28.06 16.152,28.028 16.133,27.999C16.113,27.97 16.09,27.944 16.065,27.922C16.039,27.899 16.011,27.876 15.982,27.85C15.94,27.815 15.904,27.781 15.873,27.745C15.841,27.709 15.815,27.668 15.794,27.623C15.773,27.579 15.758,27.528 15.747,27.47C15.736,27.413 15.731,27.345 15.731,27.269C15.731,27.176 15.741,27.093 15.761,27.021C15.781,26.949 15.808,26.888 15.841,26.84C15.874,26.791 15.913,26.754 15.956,26.729C15.998,26.704 16.043,26.692 16.088,26.692C16.169,26.692 16.242,26.721 16.305,26.782L16.305,27.105C16.236,27.009 16.158,26.961 16.068,26.961C16.04,26.961 16.015,26.968 15.993,26.981C15.97,26.995 15.951,27.015 15.935,27.039C15.918,27.064 15.906,27.094 15.897,27.127C15.888,27.162 15.884,27.2 15.884,27.242C15.884,27.294 15.888,27.337 15.897,27.372C15.906,27.408 15.919,27.439 15.936,27.466C15.953,27.494 15.974,27.518 15.998,27.54C16.022,27.562 16.05,27.587 16.081,27.612C16.123,27.646 16.159,27.681 16.192,27.717C16.225,27.753 16.253,27.793 16.276,27.837C16.299,27.883 16.317,27.935 16.329,27.993C16.342,28.052 16.348,28.12 16.348,28.202C16.348,28.3 16.338,28.386 16.318,28.459C16.297,28.532 16.27,28.593 16.236,28.64C16.202,28.689 16.163,28.725 16.118,28.748C16.074,28.771 16.028,28.783 15.978,28.783C15.883,28.783 15.8,28.744 15.729,28.663Z" style="fill-rule:nonzero;"/>
    </g>
    <g id="scrollbar">
        <path d="M30,1.839L30,27.719C30,28.856 29.296,29.779 28.429,29.779L25.286,29.779C24.419,29.779 23.715,28.856 23.715,27.719L23.715,1.839C23.715,0.702 24.419,-0.221 25.286,-0.221L28.429,-0.221C29.296,-0.221 30,0.702 30,1.839Z" style="fill:rgb(128,128,128);"/>
        <path d="M30,1.529L30,5.029C30,5.995 29.402,6.779 28.665,6.779L25.05,6.779C24.313,6.779 23.715,5.995 23.715,5.029L23.715,1.529C23.715,0.563 24.313,-0.221 25.05,-0.221L28.665,-0.221C29.402,-0.221 30,0.563 30,1.529Z" style="fill:rgb(191,191,191);"/>
        <path d="M30,25.279L30,28.279C30,29.107 29.487,29.779 28.856,29.779L24.859,29.779C24.227,29.779 23.715,29.107 23.715,28.279L23.715,25.279C23.715,24.451 24.227,23.779 24.859,23.779L28.856,23.779C29.487,23.779 30,24.451 30,25.279Z" style="fill:rgb(191,191,191);"/>
        <path d="M29.908,11.817L29.908,15.639C29.908,16.694 29.256,17.55 28.451,17.55L25.172,17.55C24.368,17.55 23.715,16.694 23.715,15.639L23.715,11.817C23.715,10.763 24.368,9.906 25.172,9.906L28.451,9.906C29.256,9.906 29.908,10.763 29.908,11.817Z" style="fill:rgb(139,173,243);"/>
        <path d="M26.857,28.568L25.332,25.415L28.383,25.415L26.857,28.568Z" style="stroke:black;stroke-width:0.21px;"/>
        <path d="M26.857,1.398L28.383,4.551L25.332,4.551L26.857,1.398Z" style="stroke:black;stroke-width:0.21px;"/>
    </g>
</svg>
