<?xml version="1.0" encoding="UTF-8" standalone="no"?>
<!DOCTYPE svg PUBLIC "-//W3C//DTD SVG 1.1//EN" "http://www.w3.org/Graphics/SVG/1.1/DTD/svg11.dtd">
<svg width="30px" height="30px" version="1.1" xmlns="http://www.w3.org/2000/svg" xmlns:xlink="http://www.w3.org/1999/xlink" xml:space="preserve" xmlns:serif="http://www.serif.com/" style="fill-rule:evenodd;clip-rule:evenodd;stroke-linecap:square;stroke-linejoin:round;stroke-miterlimit:1.5;">
    <g id="File">
        <rect x="0.473" y="10.023" width="15.63" height="8.534" style="fill:rgb(13,202,242);"/>
        <rect x="15.942" y="10.023" width="13.624" height="8.534" style="fill:white;"/>
        <path d="M5.904,11.603L3.285,11.603L3.285,14.055L5.708,14.055L5.708,14.802L3.285,14.802L3.285,17.942L2.5,17.942L2.5,10.851L5.904,10.851L5.904,11.603Z" style="fill-rule:nonzero;"/>
        <path d="M7.466,11.593C7.329,11.593 7.212,11.544 7.116,11.445C7.019,11.346 6.97,11.221 6.97,11.069C6.97,10.917 7.019,10.791 7.116,10.691C7.212,10.59 7.329,10.54 7.466,10.54C7.607,10.54 7.726,10.59 7.824,10.691C7.923,10.791 7.971,10.917 7.971,11.069C7.971,11.214 7.923,11.338 7.824,11.44C7.726,11.542 7.607,11.593 7.466,11.593ZM7.84,17.942L7.074,17.942L7.074,12.879L7.84,12.879L7.84,17.942Z" style="fill-rule:nonzero;"/>
        <rect x="9.393" y="10.446" width="0.767" height="7.496"/>
        <path d="M15.561,15.613L12.181,15.613C12.193,16.177 12.336,16.612 12.611,16.918C12.885,17.225 13.262,17.378 13.742,17.378C14.282,17.378 14.778,17.19 15.229,16.815L15.229,17.576C14.809,17.899 14.252,18.061 13.56,18.061C12.883,18.061 12.352,17.831 11.965,17.371C11.578,16.911 11.386,16.264 11.386,15.43C11.386,14.642 11.596,14 12.019,13.504C12.441,13.008 12.966,12.76 13.593,12.76C14.219,12.76 14.704,12.974 15.047,13.403C15.39,13.831 15.561,14.426 15.561,15.188L15.561,15.613ZM14.776,14.926C14.773,14.458 14.666,14.093 14.456,13.833C14.245,13.573 13.953,13.442 13.578,13.442C13.217,13.442 12.91,13.579 12.658,13.853C12.404,14.126 12.249,14.484 12.19,14.926L14.776,14.926Z" style="fill-rule:nonzero;"/>
        <path d="M20.227,17.979L17.096,17.979L17.096,10.666L20.095,10.666L20.095,11.442L17.788,11.442L17.788,13.874L19.922,13.874L19.922,14.644L17.788,14.644L17.788,17.204L20.227,17.204L20.227,17.979Z" style="fill-rule:nonzero;"/>
        <path d="M24.873,17.979L24.197,17.979L24.197,17.092L24.181,17.092C23.868,17.765 23.385,18.101 22.731,18.101C22.201,18.101 21.778,17.868 21.46,17.4C21.143,16.933 20.985,16.296 20.985,15.49C20.985,14.627 21.16,13.935 21.512,13.415C21.863,12.895 22.332,12.635 22.916,12.635C23.496,12.635 23.917,12.917 24.181,13.481L24.197,13.481L24.197,10.248L24.873,10.248L24.873,17.979ZM24.197,15.618L24.197,14.848C24.197,14.426 24.085,14.069 23.86,13.777C23.635,13.485 23.349,13.339 23.003,13.339C22.591,13.339 22.267,13.525 22.031,13.899C21.795,14.273 21.677,14.79 21.677,15.45C21.677,16.051 21.79,16.527 22.016,16.875C22.243,17.223 22.547,17.398 22.929,17.398C23.305,17.398 23.61,17.229 23.845,16.893C24.08,16.556 24.197,16.131 24.197,15.618Z" style="fill-rule:nonzero;"/>
        <path d="M26.586,11.431C26.466,11.431 26.363,11.38 26.278,11.278C26.192,11.176 26.15,11.047 26.15,10.891C26.15,10.734 26.192,10.604 26.278,10.501C26.363,10.397 26.466,10.345 26.586,10.345C26.71,10.345 26.815,10.397 26.902,10.501C26.988,10.604 27.031,10.734 27.031,10.891C27.031,11.04 26.988,11.168 26.902,11.273C26.815,11.379 26.71,11.431 26.586,11.431ZM26.916,17.979L26.24,17.979L26.24,12.757L26.916,12.757L26.916,17.979Z" style="fill-rule:nonzero;"/>
        <path d="M30.24,17.928C30.081,18.037 29.871,18.091 29.61,18.091C28.871,18.091 28.502,17.581 28.502,16.561L28.502,13.471L27.777,13.471L27.777,12.757L28.502,12.757L28.502,11.482L29.177,11.212L29.177,12.757L30.24,12.757L30.24,13.471L29.177,13.471L29.177,16.413C29.177,16.764 29.225,17.014 29.321,17.163C29.418,17.313 29.577,17.387 29.799,17.387C29.97,17.387 30.116,17.33 30.24,17.214L30.24,17.928Z" style="fill-rule:nonzero;"/>
    </g>
    <rect x="0.24" y="9.79" width="29.568" height="9" style="fill:none;stroke:rgb(128,128,128);stroke-width:0.5px;"/>
    <rect id="outer" x="0" y="0" width="30" height="30" style="fill:none;"/>
</svg>
