<?xml version="1.0" encoding="UTF-8" standalone="no"?>
<!DOCTYPE svg PUBLIC "-//W3C//DTD SVG 1.1//EN" "http://www.w3.org/Graphics/SVG/1.1/DTD/svg11.dtd">
<svg width="30px" height="30px" version="1.1" xmlns="http://www.w3.org/2000/svg" xmlns:xlink="http://www.w3.org/1999/xlink" xml:space="preserve" xmlns:serif="http://www.serif.com/" style="fill-rule:evenodd;clip-rule:evenodd;stroke-linecap:round;stroke-linejoin:round;stroke-miterlimit:1.5;">
    <g id="second-tab" serif:id="second tab">
        <rect x="16.187" y="0.313" width="11.313" height="6.957" style="fill:rgb(204,204,204);stroke:rgb(217,217,217);stroke-width:0.46px;"/>
        <rect x="16.087" y="0.349" width="11.313" height="6.957" style="fill:rgb(204,204,204);stroke:rgb(217,217,217);stroke-width:0.46px;"/>
        <path d="M20.019,1.636L18.873,1.636L18.873,5.598L18.408,5.598L18.408,1.636L17.265,1.636L17.265,1.166L20.019,1.166L20.019,1.636Z" style="fill-rule:nonzero;"/>
        <path d="M22.154,2.433L21.201,4.034L22.137,5.598L21.608,5.598L21.052,4.572C21.017,4.508 20.975,4.427 20.927,4.331L20.916,4.331C20.907,4.349 20.864,4.429 20.786,4.572L20.219,5.598L19.695,5.598L20.662,4.046L19.737,2.433L20.266,2.433L20.814,3.515C20.854,3.595 20.894,3.677 20.933,3.762L20.944,3.762L21.653,2.433L22.154,2.433Z" style="fill-rule:nonzero;"/>
        <path d="M24,5.567C23.893,5.633 23.752,5.666 23.576,5.666C23.08,5.666 22.832,5.357 22.832,4.739L22.832,2.866L22.345,2.866L22.345,2.433L22.832,2.433L22.832,1.66L23.286,1.496L23.286,2.433L24,2.433L24,2.866L23.286,2.866L23.286,4.649C23.286,4.861 23.318,5.013 23.383,5.103C23.447,5.194 23.554,5.239 23.704,5.239C23.818,5.239 23.917,5.204 24,5.134L24,5.567Z" style="fill-rule:nonzero;"/>
    </g>
    <g id="tab">
        <rect x="0.403" y="0.276" width="15.395" height="6.957" style="fill:rgb(204,204,204);stroke:rgb(217,217,217);stroke-width:0.53px;"/>
        <rect x="0.267" y="0.313" width="15.395" height="6.957" style="fill:rgb(204,204,204);stroke:rgb(217,217,217);stroke-width:0.53px;"/>
        <g>
            <rect x="0.403" y="7.141" width="28.509" height="22.127" style="fill:rgb(204,204,204);"/>
            <path d="M0.267,29.711L0.267,6.906" style="fill:none;stroke:rgb(217,217,217);stroke-width:0.56px;stroke-linecap:square;stroke-linejoin:miter;stroke-miterlimit:1;"/>
            <path d="M29.618,6.699L0.511,6.699" style="fill:none;stroke:rgb(217,217,217);stroke-width:0.92px;stroke-linecap:square;stroke-linejoin:miter;stroke-miterlimit:1;"/>
            <path d="M14.917,6.699L1.05,6.699" style="fill:none;stroke:rgb(204,204,204);stroke-width:0.98px;stroke-linecap:square;stroke-linejoin:miter;stroke-miterlimit:1;"/>
            <path d="M29.482,7.657L29.482,29.269" style="fill:none;stroke:rgb(115,115,115);stroke-width:1.08px;stroke-linecap:square;stroke-linejoin:miter;stroke-miterlimit:1;"/>
            <path d="M15.709,0.887L15.709,5.889" style="fill:none;stroke:rgb(115,115,115);stroke-width:0.59px;stroke-linecap:square;stroke-linejoin:miter;stroke-miterlimit:1;"/>
            <path d="M29.559,29.566L0.992,29.566" style="fill:none;stroke:rgb(115,115,115);stroke-width:0.94px;stroke-linecap:square;stroke-linejoin:miter;stroke-miterlimit:1;"/>
            <path d="M5.199,1.737L3.79,1.737L3.79,5.036L3.217,5.036L3.217,1.737L1.811,1.737L1.811,1.347L5.199,1.347L5.199,1.737Z" style="fill-rule:nonzero;"/>
            <path d="M7.603,5.036L7.045,5.036L7.045,4.624L7.032,4.624C6.789,4.94 6.431,5.098 5.959,5.098C5.611,5.098 5.339,5.029 5.143,4.89C4.947,4.751 4.849,4.566 4.849,4.336C4.849,3.844 5.232,3.558 6,3.477L7.045,3.367C7.045,2.919 6.805,2.695 6.326,2.695C5.906,2.695 5.527,2.804 5.189,3.019L5.189,2.587C5.532,2.423 5.927,2.34 6.374,2.34C7.194,2.34 7.603,2.668 7.603,3.323L7.603,5.036ZM7.045,3.704L6.204,3.792C5.945,3.818 5.75,3.868 5.618,3.936C5.486,4.006 5.42,4.129 5.42,4.305C5.42,4.435 5.481,4.54 5.603,4.621C5.724,4.702 5.886,4.743 6.087,4.743C6.365,4.743 6.594,4.67 6.774,4.524C6.954,4.377 7.045,4.191 7.045,3.966L7.045,3.704Z" style="fill-rule:nonzero;"/>
            <path d="M9.228,4.655L9.214,4.655L9.214,5.036L8.655,5.036L8.655,1.136L9.214,1.136L9.214,2.865L9.228,2.865C9.502,2.515 9.904,2.34 10.433,2.34C10.88,2.34 11.23,2.458 11.484,2.693C11.737,2.93 11.863,3.246 11.863,3.642C11.863,4.083 11.721,4.436 11.437,4.7C11.154,4.966 10.765,5.098 10.273,5.098C9.812,5.098 9.464,4.951 9.228,4.655ZM9.214,3.593L9.214,3.961C9.214,4.179 9.308,4.364 9.495,4.515C9.682,4.667 9.92,4.743 10.209,4.743C10.546,4.743 10.812,4.646 11.003,4.45C11.195,4.254 11.291,3.982 11.291,3.634C11.291,3.341 11.201,3.111 11.022,2.945C10.843,2.778 10.6,2.695 10.293,2.695C9.969,2.695 9.708,2.78 9.51,2.951C9.312,3.121 9.214,3.336 9.214,3.593Z" style="fill-rule:nonzero;"/>
        </g>
    </g>
    <g id="grid">
        <rect x="1.195" y="7.782" width="27.079" height="3.351" style="fill:rgb(164,164,164);"/>
        <path d="M3.356,10.169L2.098,10.169L2.098,8.284L2.382,8.284L2.382,9.97L3.356,9.97L3.356,10.169Z" style="fill-rule:nonzero;"/>
        <path d="M4.414,10.201C4.158,10.201 3.954,10.138 3.801,10.012C3.648,9.886 3.572,9.72 3.572,9.512C3.572,9.286 3.652,9.109 3.81,8.982C3.969,8.855 4.184,8.792 4.455,8.792C4.713,8.792 4.914,8.853 5.059,8.977C5.204,9.101 5.276,9.272 5.276,9.491C5.276,9.706 5.198,9.878 5.042,10.007C4.886,10.136 4.677,10.201 4.414,10.201ZM4.434,8.973C4.256,8.973 4.115,9.02 4.012,9.114C3.908,9.209 3.856,9.338 3.856,9.504C3.856,9.664 3.909,9.789 4.013,9.881C4.118,9.973 4.259,10.019 4.434,10.019C4.614,10.019 4.751,9.974 4.848,9.884C4.944,9.794 4.992,9.665 4.992,9.499C4.992,9.331 4.944,9.201 4.848,9.11C4.751,9.019 4.614,8.973 4.434,8.973Z" style="fill-rule:nonzero;"/>
        <path d="M6.622,9.041C6.574,9.012 6.504,8.998 6.413,8.998C6.294,8.998 6.195,9.041 6.116,9.128C6.036,9.215 5.997,9.333 5.997,9.483L5.997,10.169L5.719,10.169L5.719,8.823L5.997,8.823L5.997,9.101L6.003,9.101C6.043,9.006 6.103,8.932 6.184,8.879C6.266,8.826 6.356,8.799 6.457,8.799C6.529,8.799 6.584,8.806 6.622,8.818L6.622,9.041Z" style="fill-rule:nonzero;"/>
        <path d="M8.315,9.55L7.092,9.55C7.097,9.7 7.149,9.816 7.248,9.897C7.347,9.979 7.483,10.019 7.657,10.019C7.852,10.019 8.031,9.97 8.195,9.87L8.195,10.072C8.043,10.158 7.841,10.201 7.591,10.201C7.346,10.201 7.154,10.14 7.015,10.018C6.875,9.895 6.805,9.723 6.805,9.502C6.805,9.292 6.881,9.121 7.034,8.989C7.187,8.858 7.376,8.792 7.603,8.792C7.829,8.792 8.005,8.849 8.129,8.962C8.253,9.076 8.315,9.235 8.315,9.437L8.315,9.55ZM8.031,9.367C8.03,9.243 7.991,9.146 7.915,9.077C7.839,9.008 7.733,8.973 7.598,8.973C7.467,8.973 7.356,9.009 7.265,9.082C7.173,9.155 7.117,9.25 7.096,9.367L8.031,9.367Z" style="fill-rule:nonzero;"/>
        <path d="M11.192,10.169L10.915,10.169L10.915,9.396C10.915,9.247 10.886,9.14 10.826,9.073C10.767,9.006 10.668,8.973 10.528,8.973C10.41,8.973 10.309,9.015 10.226,9.099C10.143,9.183 10.102,9.284 10.102,9.402L10.102,10.169L9.825,10.169L9.825,9.37C9.825,9.105 9.693,8.973 9.431,8.973C9.309,8.973 9.209,9.013 9.13,9.092C9.051,9.171 9.011,9.275 9.011,9.402L9.011,10.169L8.734,10.169L8.734,8.823L9.011,8.823L9.011,9.036L9.018,9.036C9.141,8.873 9.32,8.792 9.556,8.792C9.674,8.792 9.777,8.817 9.865,8.868C9.953,8.92 10.013,8.987 10.046,9.07C10.175,8.884 10.366,8.792 10.621,8.792C11.002,8.792 11.192,8.974 11.192,9.34L11.192,10.169Z" style="fill-rule:nonzero;"/>
        <rect x="12.702" y="8.284" width="0.284" height="1.885" style="fill-rule:nonzero;"/>
        <path d="M13.871,9.975L13.864,9.975L13.864,10.789L13.587,10.789L13.587,8.823L13.864,8.823L13.864,9.06L13.871,9.06C14.007,8.881 14.207,8.792 14.469,8.792C14.692,8.792 14.867,8.852 14.992,8.972C15.117,9.093 15.179,9.254 15.179,9.457C15.179,9.682 15.109,9.862 14.968,9.998C14.827,10.133 14.634,10.201 14.39,10.201C14.165,10.201 13.992,10.126 13.871,9.975ZM13.864,9.432L13.864,9.62C13.864,9.731 13.91,9.826 14.003,9.903C14.096,9.981 14.214,10.019 14.358,10.019C14.526,10.019 14.657,9.97 14.752,9.87C14.848,9.77 14.895,9.631 14.895,9.453C14.895,9.303 14.851,9.186 14.762,9.101C14.673,9.016 14.552,8.973 14.4,8.973C14.239,8.973 14.109,9.017 14.011,9.104C13.913,9.191 13.864,9.3 13.864,9.432Z" style="fill-rule:nonzero;"/>
        <path d="M15.517,10.121L15.517,9.889C15.669,9.976 15.835,10.019 16.016,10.019C16.26,10.019 16.381,9.956 16.381,9.83C16.381,9.794 16.371,9.764 16.35,9.739C16.329,9.714 16.301,9.692 16.266,9.672C16.23,9.653 16.188,9.636 16.141,9.62C16.093,9.605 16.041,9.589 15.986,9.572C15.909,9.549 15.842,9.525 15.784,9.501C15.726,9.477 15.677,9.45 15.638,9.419C15.599,9.389 15.57,9.355 15.55,9.316C15.531,9.278 15.521,9.232 15.521,9.181C15.521,9.118 15.539,9.062 15.577,9.013C15.614,8.964 15.663,8.924 15.725,8.891C15.787,8.858 15.858,8.833 15.938,8.817C16.017,8.8 16.099,8.792 16.184,8.792C16.334,8.792 16.468,8.812 16.586,8.852L16.586,9.07C16.459,9.005 16.312,8.973 16.146,8.973C16.095,8.973 16.048,8.978 16.006,8.987C15.964,8.996 15.929,9.009 15.899,9.026C15.869,9.042 15.846,9.062 15.829,9.085C15.813,9.109 15.805,9.134 15.805,9.162C15.805,9.197 15.813,9.227 15.829,9.25C15.846,9.274 15.87,9.295 15.901,9.314C15.933,9.332 15.971,9.349 16.016,9.363C16.061,9.378 16.113,9.395 16.17,9.412C16.247,9.435 16.316,9.458 16.376,9.482C16.437,9.507 16.489,9.534 16.532,9.564C16.575,9.594 16.608,9.629 16.631,9.668C16.654,9.708 16.666,9.755 16.666,9.809C16.666,9.876 16.647,9.934 16.609,9.983C16.571,10.032 16.521,10.073 16.458,10.105C16.394,10.137 16.322,10.161 16.239,10.177C16.157,10.193 16.071,10.201 15.981,10.201C15.803,10.201 15.648,10.174 15.517,10.121Z" style="fill-rule:nonzero;"/>
        <path d="M18.492,10.169L18.214,10.169L18.214,9.956L18.208,9.956C18.093,10.119 17.914,10.201 17.673,10.201C17.261,10.201 17.054,10.01 17.054,9.628L17.054,8.823L17.33,8.823L17.33,9.594C17.33,9.878 17.47,10.019 17.749,10.019C17.885,10.019 17.996,9.981 18.083,9.903C18.171,9.826 18.214,9.724 18.214,9.599L18.214,8.823L18.492,8.823L18.492,10.169Z" style="fill-rule:nonzero;"/>
        <path d="M21.51,10.169L21.232,10.169L21.232,9.396C21.232,9.247 21.203,9.14 21.144,9.073C21.084,9.006 20.985,8.973 20.845,8.973C20.727,8.973 20.626,9.015 20.543,9.099C20.46,9.183 20.419,9.284 20.419,9.402L20.419,10.169L20.142,10.169L20.142,9.37C20.142,9.105 20.01,8.973 19.748,8.973C19.626,8.973 19.526,9.013 19.447,9.092C19.368,9.171 19.328,9.275 19.328,9.402L19.328,10.169L19.051,10.169L19.051,8.823L19.328,8.823L19.328,9.036L19.335,9.036C19.458,8.873 19.637,8.792 19.873,8.792C19.991,8.792 20.094,8.817 20.182,8.868C20.27,8.92 20.331,8.987 20.363,9.07C20.492,8.884 20.683,8.792 20.938,8.792C21.319,8.792 21.51,8.974 21.51,9.34L21.51,10.169Z" style="fill-rule:nonzero;"/>
        <path d="M23.395,8.823L22.705,10.169L22.433,10.169L21.777,8.823L22.081,8.823L22.521,9.801C22.553,9.873 22.574,9.936 22.582,9.989L22.588,9.989C22.6,9.922 22.618,9.861 22.642,9.807L23.102,8.823L23.395,8.823Z" style="fill-rule:nonzero;"/>
        <rect x="1.195" y="11.133" width="27.079" height="2.98" style="fill:white;stroke:rgb(129,129,129);stroke-width:0.47px;"/>
        <rect x="1.195" y="14.113" width="27.079" height="2.98" style="fill:white;stroke:rgb(129,129,129);stroke-width:0.47px;"/>
        <rect x="1.195" y="16.919" width="27.079" height="2.98" style="fill:white;stroke:rgb(129,129,129);stroke-width:0.47px;"/>
        <rect x="1.195" y="19.9" width="27.079" height="2.98" style="fill:white;stroke:rgb(129,129,129);stroke-width:0.47px;"/>
        <rect x="1.195" y="22.729" width="27.079" height="2.98" style="fill:white;stroke:rgb(129,129,129);stroke-width:0.47px;"/>
        <rect x="1.195" y="25.52" width="27.079" height="2.98" style="fill:white;stroke:rgb(129,129,129);stroke-width:0.47px;"/>
        <path d="M10.221,11.193L10.221,28.249" style="fill:none;stroke:rgb(129,129,129);stroke-width:0.47px;"/>
    </g>
    <g id="text">
        <path d="M2.915,13.453L2.098,13.453L2.098,11.691L2.282,11.691L2.282,13.267L2.915,13.267L2.915,13.453Z" style="fill-rule:nonzero;"/>
        <path d="M3.603,13.483C3.437,13.483 3.304,13.424 3.205,13.307C3.106,13.189 3.056,13.033 3.056,12.839C3.056,12.628 3.108,12.463 3.211,12.344C3.314,12.225 3.454,12.166 3.63,12.166C3.797,12.166 3.928,12.223 4.022,12.339C4.116,12.454 4.164,12.615 4.164,12.819C4.164,13.02 4.113,13.181 4.011,13.302C3.91,13.423 3.774,13.483 3.603,13.483ZM3.616,12.335C3.501,12.335 3.409,12.379 3.342,12.467C3.274,12.555 3.241,12.677 3.241,12.832C3.241,12.981 3.275,13.098 3.343,13.184C3.411,13.27 3.502,13.313 3.616,13.313C3.733,13.313 3.822,13.271 3.885,13.187C3.948,13.102 3.979,12.982 3.979,12.827C3.979,12.669 3.948,12.548 3.885,12.463C3.822,12.378 3.733,12.335 3.616,12.335Z" style="fill-rule:nonzero;"/>
        <path d="M5.038,12.399C5.007,12.372 4.961,12.359 4.902,12.359C4.825,12.359 4.761,12.399 4.709,12.48C4.657,12.561 4.632,12.672 4.632,12.812L4.632,13.453L4.451,13.453L4.451,12.195L4.632,12.195L4.632,12.454L4.636,12.454C4.662,12.366 4.701,12.297 4.754,12.247C4.806,12.198 4.865,12.173 4.931,12.173C4.977,12.173 5.013,12.179 5.038,12.19L5.038,12.399Z" style="fill-rule:nonzero;"/>
        <path d="M6.138,12.875L5.344,12.875C5.347,13.015 5.38,13.123 5.445,13.199C5.509,13.275 5.598,13.313 5.711,13.313C5.837,13.313 5.954,13.267 6.06,13.173L6.06,13.363C5.961,13.443 5.83,13.483 5.668,13.483C5.509,13.483 5.384,13.426 5.293,13.312C5.202,13.197 5.157,13.036 5.157,12.829C5.157,12.633 5.207,12.474 5.306,12.351C5.405,12.227 5.528,12.166 5.676,12.166C5.823,12.166 5.937,12.219 6.017,12.325C6.098,12.432 6.138,12.58 6.138,12.769L6.138,12.875ZM5.954,12.704C5.953,12.588 5.928,12.497 5.878,12.432C5.829,12.368 5.76,12.335 5.672,12.335C5.587,12.335 5.515,12.369 5.456,12.437C5.396,12.505 5.36,12.594 5.346,12.704L5.954,12.704Z" style="fill-rule:nonzero;"/>
        <path d="M8.008,13.453L7.828,13.453L7.828,12.731C7.828,12.592 7.809,12.491 7.77,12.429C7.732,12.366 7.667,12.335 7.577,12.335C7.5,12.335 7.434,12.375 7.38,12.453C7.327,12.532 7.3,12.626 7.3,12.736L7.3,13.453L7.119,13.453L7.119,12.706C7.119,12.459 7.034,12.335 6.863,12.335C6.784,12.335 6.719,12.372 6.668,12.446C6.616,12.521 6.591,12.617 6.591,12.736L6.591,13.453L6.411,13.453L6.411,12.195L6.591,12.195L6.591,12.394L6.595,12.394C6.675,12.242 6.792,12.166 6.945,12.166C7.022,12.166 7.089,12.19 7.146,12.237C7.203,12.285 7.242,12.348 7.263,12.426C7.347,12.252 7.471,12.166 7.637,12.166C7.885,12.166 8.008,12.336 8.008,12.678L8.008,13.453Z" style="fill-rule:nonzero;"/>
        <path d="M2.915,16.366L2.098,16.366L2.098,14.604L2.282,14.604L2.282,16.179L2.915,16.179L2.915,16.366Z" style="fill-rule:nonzero;"/>
        <path d="M3.603,16.396C3.437,16.396 3.304,16.337 3.205,16.219C3.106,16.102 3.056,15.946 3.056,15.752C3.056,15.54 3.108,15.375 3.211,15.256C3.314,15.138 3.454,15.078 3.63,15.078C3.797,15.078 3.928,15.136 4.022,15.252C4.116,15.367 4.164,15.527 4.164,15.732C4.164,15.933 4.113,16.094 4.011,16.214C3.91,16.335 3.774,16.396 3.603,16.396ZM3.616,15.248C3.501,15.248 3.409,15.292 3.342,15.38C3.274,15.468 3.241,15.589 3.241,15.744C3.241,15.893 3.275,16.011 3.343,16.097C3.411,16.183 3.502,16.226 3.616,16.226C3.733,16.226 3.822,16.184 3.885,16.099C3.948,16.015 3.979,15.895 3.979,15.739C3.979,15.582 3.948,15.461 3.885,15.376C3.822,15.29 3.733,15.248 3.616,15.248Z" style="fill-rule:nonzero;"/>
        <path d="M5.038,15.312C5.007,15.285 4.961,15.271 4.902,15.271C4.825,15.271 4.761,15.312 4.709,15.393C4.657,15.474 4.632,15.585 4.632,15.725L4.632,16.366L4.451,16.366L4.451,15.108L4.632,15.108L4.632,15.367L4.636,15.367C4.662,15.279 4.701,15.21 4.754,15.16C4.806,15.11 4.865,15.086 4.931,15.086C4.977,15.086 5.013,15.091 5.038,15.103L5.038,15.312Z" style="fill-rule:nonzero;"/>
        <path d="M6.138,15.787L5.344,15.787C5.347,15.927 5.38,16.036 5.445,16.112C5.509,16.188 5.598,16.226 5.711,16.226C5.837,16.226 5.954,16.179 6.06,16.086L6.06,16.275C5.961,16.355 5.83,16.396 5.668,16.396C5.509,16.396 5.384,16.338 5.293,16.224C5.202,16.11 5.157,15.949 5.157,15.742C5.157,15.546 5.207,15.387 5.306,15.263C5.405,15.14 5.528,15.078 5.676,15.078C5.823,15.078 5.937,15.132 6.017,15.238C6.098,15.345 6.138,15.492 6.138,15.682L6.138,15.787ZM5.954,15.617C5.953,15.5 5.928,15.41 5.878,15.345C5.829,15.28 5.76,15.248 5.672,15.248C5.587,15.248 5.515,15.282 5.456,15.35C5.396,15.418 5.36,15.507 5.346,15.617L5.954,15.617Z" style="fill-rule:nonzero;"/>
        <path d="M7.216,16.366L7.036,16.366L7.036,16.17L7.031,16.17C6.953,16.32 6.838,16.396 6.685,16.396C6.573,16.396 6.486,16.362 6.422,16.296C6.359,16.23 6.327,16.142 6.327,16.032C6.327,15.797 6.451,15.66 6.699,15.621L7.036,15.569C7.036,15.355 6.959,15.248 6.804,15.248C6.669,15.248 6.546,15.299 6.437,15.403L6.437,15.196C6.548,15.118 6.675,15.078 6.819,15.078C7.084,15.078 7.216,15.235 7.216,15.548L7.216,16.366ZM7.036,15.73L6.764,15.771C6.681,15.784 6.618,15.808 6.575,15.841C6.533,15.874 6.512,15.933 6.512,16.017C6.512,16.079 6.531,16.129 6.571,16.168C6.61,16.207 6.662,16.226 6.727,16.226C6.816,16.226 6.89,16.191 6.949,16.121C7.007,16.051 7.036,15.962 7.036,15.855L7.036,15.73Z" style="fill-rule:nonzero;"/>
        <path d="M9.153,16.366L8.973,16.366L8.973,15.644C8.973,15.504 8.954,15.404 8.915,15.341C8.877,15.279 8.812,15.248 8.721,15.248C8.645,15.248 8.579,15.287 8.525,15.366C8.472,15.444 8.445,15.539 8.445,15.648L8.445,16.366L8.264,16.366L8.264,15.619C8.264,15.372 8.179,15.248 8.008,15.248C7.929,15.248 7.864,15.285 7.813,15.359C7.761,15.433 7.736,15.53 7.736,15.648L7.736,16.366L7.556,16.366L7.556,15.108L7.736,15.108L7.736,15.307L7.74,15.307C7.82,15.154 7.937,15.078 8.09,15.078C8.167,15.078 8.234,15.102 8.291,15.15C8.348,15.198 8.387,15.261 8.408,15.339C8.492,15.165 8.616,15.078 8.782,15.078C9.03,15.078 9.153,15.249 9.153,15.591L9.153,16.366Z" style="fill-rule:nonzero;"/>
        <path d="M2.915,19.279L2.098,19.279L2.098,17.517L2.282,17.517L2.282,19.092L2.915,19.092L2.915,19.279Z" style="fill-rule:nonzero;"/>
        <path d="M3.603,19.308C3.437,19.308 3.304,19.25 3.205,19.132C3.106,19.014 3.056,18.859 3.056,18.664C3.056,18.453 3.108,18.288 3.211,18.169C3.314,18.05 3.454,17.991 3.63,17.991C3.797,17.991 3.928,18.049 4.022,18.164C4.116,18.28 4.164,18.44 4.164,18.645C4.164,18.845 4.113,19.006 4.011,19.127C3.91,19.248 3.774,19.308 3.603,19.308ZM3.616,18.161C3.501,18.161 3.409,18.205 3.342,18.293C3.274,18.381 3.241,18.502 3.241,18.657C3.241,18.806 3.275,18.924 3.343,19.01C3.411,19.096 3.502,19.139 3.616,19.139C3.733,19.139 3.822,19.097 3.885,19.012C3.948,18.928 3.979,18.808 3.979,18.652C3.979,18.495 3.948,18.374 3.885,18.288C3.822,18.203 3.733,18.161 3.616,18.161Z" style="fill-rule:nonzero;"/>
        <path d="M5.038,18.224C5.007,18.197 4.961,18.184 4.902,18.184C4.825,18.184 4.761,18.224 4.709,18.306C4.657,18.387 4.632,18.497 4.632,18.637L4.632,19.279L4.451,19.279L4.451,18.02L4.632,18.02L4.632,18.28L4.636,18.28C4.662,18.191 4.701,18.122 4.754,18.073C4.806,18.023 4.865,17.998 4.931,17.998C4.977,17.998 5.013,18.004 5.038,18.016L5.038,18.224Z" style="fill-rule:nonzero;"/>
        <path d="M6.832,19.279L6.651,19.279L6.651,18.556C6.651,18.417 6.632,18.316 6.594,18.254C6.555,18.192 6.49,18.161 6.4,18.161C6.323,18.161 6.257,18.2 6.204,18.278C6.15,18.357 6.123,18.451 6.123,18.561L6.123,19.279L5.943,19.279L5.943,18.532C5.943,18.284 5.857,18.161 5.687,18.161C5.607,18.161 5.542,18.198 5.491,18.272C5.44,18.346 5.414,18.442 5.414,18.561L5.414,19.279L5.234,19.279L5.234,18.02L5.414,18.02L5.414,18.22L5.418,18.22C5.498,18.067 5.615,17.991 5.768,17.991C5.845,17.991 5.912,18.015 5.969,18.063C6.026,18.111 6.065,18.174 6.086,18.251C6.17,18.078 6.295,17.991 6.46,17.991C6.708,17.991 6.832,18.162 6.832,18.503L6.832,19.279Z" style="fill-rule:nonzero;"/>
        <path d="M2.915,22.29L2.098,22.29L2.098,20.528L2.282,20.528L2.282,22.103L2.915,22.103L2.915,22.29Z" style="fill-rule:nonzero;"/>
        <path d="M3.603,22.319C3.437,22.319 3.304,22.26 3.205,22.143C3.106,22.025 3.056,21.869 3.056,21.675C3.056,21.464 3.108,21.299 3.211,21.18C3.314,21.061 3.454,21.002 3.63,21.002C3.797,21.002 3.928,21.06 4.022,21.175C4.116,21.291 4.164,21.451 4.164,21.656C4.164,21.856 4.113,22.017 4.011,22.138C3.91,22.259 3.774,22.319 3.603,22.319ZM3.616,21.171C3.501,21.171 3.409,21.216 3.342,21.304C3.274,21.392 3.241,21.513 3.241,21.668C3.241,21.817 3.275,21.935 3.343,22.021C3.411,22.107 3.502,22.15 3.616,22.15C3.733,22.15 3.822,22.107 3.885,22.023C3.948,21.939 3.979,21.819 3.979,21.663C3.979,21.506 3.948,21.384 3.885,21.299C3.822,21.214 3.733,21.171 3.616,21.171Z" style="fill-rule:nonzero;"/>
        <rect x="4.427" y="21.509" width="0.6" height="0.159" style="fill-rule:nonzero;"/>
        <path d="M5.938,21.235C5.907,21.208 5.861,21.195 5.802,21.195C5.725,21.195 5.661,21.235 5.609,21.316C5.557,21.398 5.532,21.508 5.532,21.648L5.532,22.29L5.351,22.29L5.351,21.031L5.532,21.031L5.532,21.291L5.536,21.291C5.562,21.202 5.601,21.133 5.654,21.084C5.706,21.034 5.765,21.009 5.83,21.009C5.877,21.009 5.913,21.015 5.938,21.026L5.938,21.235Z" style="fill-rule:nonzero;"/>
        <path d="M7.038,21.711L6.244,21.711C6.247,21.851 6.28,21.959 6.345,22.035C6.409,22.112 6.498,22.15 6.611,22.15C6.737,22.15 6.854,22.103 6.96,22.01L6.96,22.199C6.861,22.279 6.73,22.319 6.568,22.319C6.409,22.319 6.284,22.262 6.193,22.148C6.102,22.034 6.057,21.873 6.057,21.665C6.057,21.47 6.106,21.31 6.206,21.187C6.305,21.064 6.428,21.002 6.575,21.002C6.723,21.002 6.837,21.055 6.917,21.162C6.998,21.268 7.038,21.416 7.038,21.605L7.038,21.711ZM6.853,21.54C6.853,21.424 6.828,21.333 6.778,21.269C6.729,21.204 6.66,21.171 6.572,21.171C6.487,21.171 6.415,21.205 6.356,21.273C6.296,21.341 6.26,21.43 6.246,21.54L6.853,21.54Z" style="fill-rule:nonzero;"/>
        <path d="M8.908,22.29L8.728,22.29L8.728,21.567C8.728,21.428 8.709,21.327 8.67,21.265C8.632,21.203 8.567,21.171 8.476,21.171C8.4,21.171 8.334,21.211 8.28,21.289C8.226,21.368 8.2,21.462 8.2,21.572L8.2,22.29L8.019,22.29L8.019,21.543C8.019,21.295 7.934,21.171 7.763,21.171C7.684,21.171 7.619,21.209 7.568,21.283C7.516,21.357 7.491,21.453 7.491,21.572L7.491,22.29L7.311,22.29L7.311,21.031L7.491,21.031L7.491,21.23L7.495,21.23C7.575,21.078 7.692,21.002 7.845,21.002C7.922,21.002 7.989,21.026 8.046,21.074C8.103,21.122 8.142,21.185 8.163,21.262C8.247,21.089 8.371,21.002 8.537,21.002C8.784,21.002 8.908,21.173 8.908,21.514L8.908,22.29Z" style="fill-rule:nonzero;"/>
        <path d="M2.915,25.084L2.098,25.084L2.098,23.322L2.282,23.322L2.282,24.898L2.915,24.898L2.915,25.084Z" style="fill-rule:nonzero;"/>
        <path d="M3.603,25.114C3.437,25.114 3.304,25.055 3.205,24.938C3.106,24.82 3.056,24.664 3.056,24.47C3.056,24.259 3.108,24.094 3.211,23.975C3.314,23.856 3.454,23.797 3.63,23.797C3.797,23.797 3.928,23.854 4.022,23.97C4.116,24.085 4.164,24.246 4.164,24.45C4.164,24.651 4.113,24.812 4.011,24.933C3.91,25.054 3.774,25.114 3.603,25.114ZM3.616,23.966C3.501,23.966 3.409,24.01 3.342,24.098C3.274,24.186 3.241,24.308 3.241,24.463C3.241,24.612 3.275,24.729 3.343,24.815C3.411,24.901 3.502,24.944 3.616,24.944C3.733,24.944 3.822,24.902 3.885,24.818C3.948,24.733 3.979,24.613 3.979,24.458C3.979,24.3 3.948,24.179 3.885,24.094C3.822,24.009 3.733,23.966 3.616,23.966Z" style="fill-rule:nonzero;"/>
        <path d="M4.973,25.072C4.931,25.098 4.875,25.111 4.805,25.111C4.608,25.111 4.51,24.989 4.51,24.743L4.51,23.998L4.316,23.998L4.316,23.826L4.51,23.826L4.51,23.519L4.69,23.454L4.69,23.826L4.973,23.826L4.973,23.998L4.69,23.998L4.69,24.707C4.69,24.792 4.703,24.852 4.728,24.888C4.754,24.924 4.796,24.942 4.856,24.942C4.901,24.942 4.94,24.928 4.973,24.9L4.973,25.072Z" style="fill-rule:nonzero;"/>
        <path d="M5.736,25.072C5.693,25.098 5.637,25.111 5.568,25.111C5.371,25.111 5.272,24.989 5.272,24.743L5.272,23.998L5.079,23.998L5.079,23.826L5.272,23.826L5.272,23.519L5.452,23.454L5.452,23.826L5.736,23.826L5.736,23.998L5.452,23.998L5.452,24.707C5.452,24.792 5.465,24.852 5.491,24.888C5.517,24.924 5.559,24.942 5.618,24.942C5.664,24.942 5.703,24.928 5.736,24.9L5.736,25.072Z" style="fill-rule:nonzero;"/>
        <path d="M6.881,24.506L6.086,24.506C6.089,24.646 6.123,24.754 6.188,24.83C6.252,24.906 6.341,24.944 6.454,24.944C6.58,24.944 6.697,24.898 6.803,24.804L6.803,24.993C6.704,25.074 6.573,25.114 6.411,25.114C6.252,25.114 6.127,25.057 6.036,24.942C5.945,24.828 5.9,24.667 5.9,24.46C5.9,24.264 5.949,24.105 6.049,23.982C6.148,23.858 6.271,23.797 6.418,23.797C6.566,23.797 6.679,23.85 6.76,23.956C6.841,24.063 6.881,24.211 6.881,24.4L6.881,24.506ZM6.696,24.335C6.696,24.218 6.671,24.128 6.621,24.063C6.572,23.999 6.503,23.966 6.415,23.966C6.33,23.966 6.258,24 6.199,24.068C6.139,24.136 6.103,24.225 6.089,24.335L6.696,24.335Z" style="fill-rule:nonzero;"/>
        <path d="M8.751,25.084L8.571,25.084L8.571,24.362C8.571,24.223 8.552,24.122 8.513,24.06C8.475,23.997 8.41,23.966 8.319,23.966C8.242,23.966 8.177,24.005 8.123,24.084C8.069,24.163 8.042,24.257 8.042,24.367L8.042,25.084L7.862,25.084L7.862,24.337C7.862,24.09 7.777,23.966 7.606,23.966C7.527,23.966 7.462,24.003 7.411,24.077C7.359,24.152 7.334,24.248 7.334,24.367L7.334,25.084L7.153,25.084L7.153,23.826L7.334,23.826L7.334,24.025L7.338,24.025C7.418,23.873 7.534,23.797 7.687,23.797C7.764,23.797 7.831,23.821 7.889,23.868C7.946,23.916 7.985,23.979 8.006,24.057C8.09,23.883 8.214,23.797 8.38,23.797C8.627,23.797 8.751,23.967 8.751,24.309L8.751,25.084Z" style="fill-rule:nonzero;"/>
        <path d="M2.872,27.964L2.054,27.964L2.054,26.202L2.239,26.202L2.239,27.777L2.872,27.777L2.872,27.964Z" style="fill-rule:nonzero;"/>
        <path d="M3.56,27.994C3.393,27.994 3.26,27.935 3.161,27.817C3.062,27.7 3.012,27.544 3.012,27.35C3.012,27.138 3.064,26.973 3.167,26.855C3.271,26.736 3.41,26.676 3.586,26.676C3.754,26.676 3.885,26.734 3.979,26.85C4.073,26.965 4.12,27.125 4.12,27.33C4.12,27.531 4.069,27.692 3.968,27.812C3.866,27.933 3.73,27.994 3.56,27.994ZM3.573,26.846C3.457,26.846 3.365,26.89 3.298,26.978C3.231,27.066 3.197,27.188 3.197,27.342C3.197,27.492 3.231,27.609 3.299,27.695C3.367,27.781 3.458,27.824 3.573,27.824C3.689,27.824 3.779,27.782 3.841,27.698C3.904,27.613 3.935,27.493 3.935,27.338C3.935,27.18 3.904,27.059 3.841,26.974C3.779,26.889 3.689,26.846 3.573,26.846Z" style="fill-rule:nonzero;"/>
        <path d="M4.995,26.91C4.963,26.883 4.918,26.869 4.858,26.869C4.781,26.869 4.717,26.91 4.666,26.991C4.614,27.072 4.588,27.183 4.588,27.323L4.588,27.964L4.408,27.964L4.408,26.706L4.588,26.706L4.588,26.965L4.592,26.965C4.618,26.877 4.657,26.808 4.71,26.758C4.763,26.709 4.822,26.684 4.887,26.684C4.934,26.684 4.97,26.689 4.995,26.701L4.995,26.91Z" style="fill-rule:nonzero;"/>
        <path d="M6.1,27.964L5.92,27.964L5.92,27.765L5.915,27.765C5.841,27.918 5.725,27.994 5.568,27.994C5.3,27.994 5.166,27.815 5.166,27.458L5.166,26.706L5.345,26.706L5.345,27.426C5.345,27.691 5.436,27.824 5.618,27.824C5.706,27.824 5.778,27.788 5.835,27.715C5.891,27.643 5.92,27.548 5.92,27.431L5.92,26.706L6.1,26.706L6.1,27.964Z" style="fill-rule:nonzero;"/>
        <path d="M6.556,26.386C6.524,26.386 6.496,26.374 6.474,26.349C6.451,26.325 6.44,26.294 6.44,26.256C6.44,26.218 6.451,26.187 6.474,26.162C6.496,26.137 6.524,26.125 6.556,26.125C6.589,26.125 6.617,26.137 6.64,26.162C6.663,26.187 6.675,26.218 6.675,26.256C6.675,26.292 6.663,26.323 6.64,26.348C6.617,26.374 6.589,26.386 6.556,26.386ZM6.644,27.964L6.464,27.964L6.464,26.706L6.644,26.706L6.644,27.964Z" style="fill-rule:nonzero;"/>
        <path d="M8.606,27.964L8.426,27.964L8.426,27.242C8.426,27.102 8.407,27.002 8.369,26.939C8.33,26.877 8.265,26.846 8.175,26.846C8.098,26.846 8.032,26.885 7.979,26.964C7.925,27.043 7.898,27.137 7.898,27.247L7.898,27.964L7.718,27.964L7.718,27.217C7.718,26.97 7.632,26.846 7.462,26.846C7.382,26.846 7.317,26.883 7.266,26.957C7.215,27.031 7.189,27.128 7.189,27.247L7.189,27.964L7.009,27.964L7.009,26.706L7.189,26.706L7.189,26.905L7.193,26.905C7.273,26.753 7.39,26.676 7.543,26.676C7.62,26.676 7.687,26.7 7.744,26.748C7.801,26.796 7.84,26.859 7.861,26.937C7.945,26.763 8.07,26.676 8.235,26.676C8.483,26.676 8.606,26.847 8.606,27.189L8.606,27.964Z" style="fill-rule:nonzero;"/>
        <path d="M11.936,13.52L11.155,13.52L11.155,11.875L11.331,11.875L11.331,13.345L11.936,13.345L11.936,13.52Z" style="fill-rule:nonzero;"/>
        <path d="M12.593,13.547C12.435,13.547 12.308,13.492 12.213,13.383C12.118,13.273 12.071,13.128 12.071,12.946C12.071,12.749 12.12,12.595 12.219,12.484C12.317,12.373 12.451,12.318 12.619,12.318C12.779,12.318 12.904,12.372 12.994,12.479C13.084,12.587 13.129,12.737 13.129,12.928C13.129,13.115 13.081,13.265 12.984,13.378C12.887,13.491 12.757,13.547 12.593,13.547ZM12.606,12.476C12.495,12.476 12.408,12.517 12.344,12.599C12.279,12.682 12.247,12.795 12.247,12.939C12.247,13.079 12.28,13.188 12.345,13.269C12.41,13.349 12.497,13.389 12.606,13.389C12.717,13.389 12.803,13.35 12.863,13.271C12.923,13.192 12.953,13.08 12.953,12.935C12.953,12.788 12.923,12.675 12.863,12.595C12.803,12.516 12.717,12.476 12.606,12.476Z" style="fill-rule:nonzero;"/>
        <path d="M13.965,12.536C13.935,12.51 13.891,12.498 13.835,12.498C13.761,12.498 13.7,12.536 13.65,12.611C13.601,12.687 13.576,12.79 13.576,12.921L13.576,13.52L13.404,13.52L13.404,12.345L13.576,12.345L13.576,12.587L13.581,12.587C13.605,12.505 13.643,12.44 13.693,12.394C13.743,12.348 13.8,12.325 13.862,12.325C13.907,12.325 13.941,12.33 13.965,12.341L13.965,12.536Z" style="fill-rule:nonzero;"/>
        <path d="M15.016,12.98L14.257,12.98C14.26,13.11 14.292,13.211 14.353,13.282C14.415,13.353 14.5,13.389 14.608,13.389C14.729,13.389 14.84,13.345 14.942,13.258L14.942,13.435C14.847,13.51 14.722,13.547 14.567,13.547C14.415,13.547 14.295,13.494 14.209,13.387C14.122,13.281 14.078,13.131 14.078,12.937C14.078,12.754 14.126,12.605 14.221,12.49C14.316,12.375 14.433,12.318 14.574,12.318C14.715,12.318 14.824,12.367 14.901,12.467C14.978,12.566 15.016,12.704 15.016,12.881L15.016,12.98ZM14.84,12.82C14.839,12.712 14.815,12.627 14.768,12.567C14.72,12.506 14.655,12.476 14.571,12.476C14.49,12.476 14.421,12.508 14.364,12.571C14.307,12.635 14.272,12.718 14.259,12.82L14.84,12.82Z" style="fill-rule:nonzero;"/>
        <path d="M16.803,13.52L16.631,13.52L16.631,12.845C16.631,12.715 16.613,12.621 16.576,12.563C16.539,12.505 16.478,12.476 16.391,12.476C16.317,12.476 16.255,12.513 16.203,12.586C16.152,12.66 16.126,12.747 16.126,12.85L16.126,13.52L15.954,13.52L15.954,12.822C15.954,12.591 15.872,12.476 15.709,12.476C15.634,12.476 15.571,12.511 15.522,12.58C15.473,12.649 15.449,12.739 15.449,12.85L15.449,13.52L15.277,13.52L15.277,12.345L15.449,12.345L15.449,12.531L15.453,12.531C15.529,12.389 15.641,12.318 15.787,12.318C15.86,12.318 15.924,12.34 15.979,12.385C16.034,12.43 16.071,12.488 16.091,12.561C16.171,12.399 16.29,12.318 16.448,12.318C16.685,12.318 16.803,12.477 16.803,12.796L16.803,13.52Z" style="fill-rule:nonzero;"/>
        <rect x="17.741" y="11.875" width="0.176" height="1.645" style="fill-rule:nonzero;"/>
        <path d="M19.06,13.52L18.888,13.52L18.888,13.336L18.884,13.336C18.809,13.477 18.698,13.547 18.553,13.547C18.446,13.547 18.362,13.516 18.301,13.454C18.241,13.392 18.211,13.31 18.211,13.208C18.211,12.988 18.329,12.861 18.565,12.825L18.888,12.775C18.888,12.576 18.814,12.476 18.666,12.476C18.537,12.476 18.42,12.524 18.316,12.621L18.316,12.428C18.421,12.354 18.543,12.318 18.681,12.318C18.934,12.318 19.06,12.464 19.06,12.756L19.06,13.52ZM18.888,12.926L18.628,12.965C18.549,12.977 18.488,12.998 18.448,13.029C18.407,13.06 18.387,13.115 18.387,13.194C18.387,13.251 18.406,13.298 18.443,13.335C18.481,13.371 18.53,13.389 18.593,13.389C18.678,13.389 18.749,13.356 18.804,13.291C18.86,13.226 18.888,13.143 18.888,13.043L18.888,12.926Z" style="fill-rule:nonzero;"/>
        <path d="M19.319,13.477L19.319,13.275C19.413,13.351 19.517,13.389 19.629,13.389C19.78,13.389 19.856,13.334 19.856,13.224C19.856,13.193 19.85,13.166 19.837,13.144C19.824,13.122 19.806,13.103 19.784,13.086C19.762,13.069 19.736,13.054 19.706,13.041C19.677,13.028 19.645,13.014 19.61,12.999C19.563,12.978 19.521,12.958 19.485,12.937C19.449,12.916 19.419,12.892 19.395,12.865C19.37,12.839 19.352,12.809 19.34,12.775C19.328,12.742 19.322,12.702 19.322,12.657C19.322,12.602 19.333,12.553 19.356,12.511C19.379,12.469 19.41,12.433 19.449,12.404C19.487,12.376 19.531,12.354 19.58,12.34C19.63,12.325 19.681,12.318 19.733,12.318C19.826,12.318 19.91,12.335 19.983,12.37L19.983,12.561C19.904,12.504 19.813,12.476 19.71,12.476C19.678,12.476 19.649,12.48 19.623,12.488C19.597,12.496 19.575,12.507 19.556,12.522C19.538,12.536 19.523,12.554 19.513,12.574C19.503,12.594 19.498,12.617 19.498,12.641C19.498,12.672 19.503,12.697 19.513,12.718C19.523,12.739 19.538,12.757 19.558,12.773C19.577,12.789 19.601,12.804 19.629,12.817C19.657,12.83 19.689,12.844 19.725,12.859C19.772,12.879 19.815,12.899 19.853,12.92C19.891,12.942 19.923,12.965 19.95,12.992C19.976,13.018 19.997,13.048 20.011,13.083C20.025,13.117 20.032,13.158 20.032,13.206C20.032,13.264 20.021,13.314 19.997,13.357C19.974,13.4 19.943,13.435 19.903,13.464C19.864,13.492 19.819,13.513 19.768,13.527C19.717,13.54 19.663,13.547 19.607,13.547C19.497,13.547 19.401,13.524 19.319,13.477Z" style="fill-rule:nonzero;"/>
        <path d="M21.167,13.52L20.994,13.52L20.994,13.334L20.99,13.334C20.919,13.476 20.808,13.547 20.658,13.547C20.402,13.547 20.274,13.381 20.274,13.047L20.274,12.345L20.445,12.345L20.445,13.017C20.445,13.265 20.532,13.389 20.706,13.389C20.79,13.389 20.859,13.355 20.913,13.288C20.967,13.22 20.994,13.131 20.994,13.022L20.994,12.345L21.167,12.345L21.167,13.52Z" style="fill-rule:nonzero;"/>
        <path d="M23.041,13.52L22.869,13.52L22.869,12.845C22.869,12.715 22.85,12.621 22.814,12.563C22.777,12.505 22.715,12.476 22.628,12.476C22.555,12.476 22.492,12.513 22.441,12.586C22.389,12.66 22.364,12.747 22.364,12.85L22.364,13.52L22.192,13.52L22.192,12.822C22.192,12.591 22.11,12.476 21.947,12.476C21.871,12.476 21.809,12.511 21.76,12.58C21.711,12.649 21.686,12.739 21.686,12.85L21.686,13.52L21.514,13.52L21.514,12.345L21.686,12.345L21.686,12.531L21.691,12.531C21.767,12.389 21.878,12.318 22.025,12.318C22.098,12.318 22.162,12.34 22.217,12.385C22.271,12.43 22.309,12.488 22.329,12.561C22.409,12.399 22.528,12.318 22.686,12.318C22.923,12.318 23.041,12.477 23.041,12.796L23.041,13.52Z" style="fill-rule:nonzero;"/>
        <path d="M24.212,12.345L23.783,13.52L23.614,13.52L23.207,12.345L23.396,12.345L23.669,13.199C23.689,13.261 23.702,13.316 23.707,13.363L23.711,13.363C23.718,13.304 23.729,13.251 23.745,13.203L24.03,12.345L24.212,12.345Z" style="fill-rule:nonzero;"/>
        <path d="M12.125,16.31L11.155,16.31L11.155,14.665L11.374,14.665L11.374,16.135L12.125,16.135L12.125,16.31Z" style="fill-rule:nonzero;"/>
        <path d="M12.942,16.337C12.744,16.337 12.587,16.282 12.469,16.172C12.351,16.063 12.292,15.917 12.292,15.736C12.292,15.539 12.353,15.385 12.476,15.274C12.599,15.163 12.764,15.107 12.973,15.107C13.172,15.107 13.327,15.161 13.439,15.269C13.551,15.377 13.607,15.526 13.607,15.718C13.607,15.905 13.547,16.055 13.426,16.168C13.306,16.281 13.144,16.337 12.942,16.337ZM12.957,15.266C12.82,15.266 12.711,15.307 12.631,15.389C12.551,15.471 12.511,15.585 12.511,15.729C12.511,15.868 12.552,15.978 12.632,16.058C12.713,16.139 12.822,16.179 12.957,16.179C13.095,16.179 13.202,16.139 13.276,16.061C13.35,15.982 13.388,15.87 13.388,15.725C13.388,15.578 13.35,15.465 13.276,15.385C13.202,15.305 13.095,15.266 12.957,15.266Z" style="fill-rule:nonzero;"/>
        <path d="M14.645,15.325C14.607,15.3 14.554,15.288 14.483,15.288C14.392,15.288 14.316,15.325 14.254,15.401C14.193,15.477 14.162,15.58 14.162,15.711L14.162,16.31L13.948,16.31L13.948,15.135L14.162,15.135L14.162,15.377L14.168,15.377C14.198,15.294 14.244,15.23 14.307,15.184C14.37,15.137 14.44,15.114 14.517,15.114C14.573,15.114 14.615,15.12 14.645,15.13L14.645,15.325Z" style="fill-rule:nonzero;"/>
        <path d="M15.95,15.769L15.007,15.769C15.011,15.9 15.051,16.001 15.127,16.072C15.204,16.143 15.309,16.179 15.443,16.179C15.593,16.179 15.732,16.135 15.858,16.048L15.858,16.225C15.74,16.3 15.585,16.337 15.392,16.337C15.203,16.337 15.055,16.284 14.947,16.177C14.84,16.07 14.786,15.92 14.786,15.727C14.786,15.544 14.845,15.395 14.962,15.28C15.08,15.165 15.227,15.107 15.401,15.107C15.576,15.107 15.711,15.157 15.807,15.257C15.903,15.356 15.95,15.494 15.95,15.671L15.95,15.769ZM15.731,15.61C15.73,15.501 15.701,15.417 15.642,15.356C15.583,15.296 15.502,15.266 15.397,15.266C15.297,15.266 15.211,15.297 15.14,15.361C15.07,15.424 15.027,15.507 15.01,15.61L15.731,15.61Z" style="fill-rule:nonzero;"/>
        <path d="M18.17,16.31L17.956,16.31L17.956,15.635C17.956,15.505 17.933,15.411 17.888,15.353C17.842,15.295 17.765,15.266 17.658,15.266C17.566,15.266 17.489,15.302 17.425,15.376C17.361,15.449 17.329,15.537 17.329,15.64L17.329,16.31L17.115,16.31L17.115,15.612C17.115,15.381 17.014,15.266 16.811,15.266C16.717,15.266 16.64,15.3 16.579,15.37C16.518,15.439 16.488,15.529 16.488,15.64L16.488,16.31L16.274,16.31L16.274,15.135L16.488,15.135L16.488,15.321L16.493,15.321C16.588,15.179 16.726,15.107 16.908,15.107C16.999,15.107 17.078,15.13 17.146,15.175C17.214,15.219 17.261,15.278 17.286,15.351C17.385,15.188 17.533,15.107 17.729,15.107C18.023,15.107 18.17,15.267 18.17,15.586L18.17,16.31Z" style="fill-rule:nonzero;"/>
        <rect x="19.335" y="14.665" width="0.219" height="1.645" style="fill-rule:nonzero;"/>
        <path d="M20.973,16.31L20.759,16.31L20.759,16.126L20.754,16.126C20.661,16.267 20.524,16.337 20.343,16.337C20.21,16.337 20.106,16.306 20.03,16.244C19.955,16.182 19.918,16.1 19.918,15.998C19.918,15.778 20.065,15.65 20.358,15.614L20.759,15.565C20.759,15.366 20.667,15.266 20.484,15.266C20.323,15.266 20.178,15.314 20.048,15.41L20.048,15.218C20.179,15.144 20.331,15.107 20.502,15.107C20.816,15.107 20.973,15.253 20.973,15.546L20.973,16.31ZM20.759,15.715L20.437,15.754C20.338,15.767 20.263,15.788 20.212,15.819C20.162,15.85 20.137,15.905 20.137,15.984C20.137,16.041 20.16,16.088 20.207,16.124C20.253,16.161 20.315,16.179 20.392,16.179C20.498,16.179 20.586,16.146 20.655,16.081C20.724,16.015 20.759,15.933 20.759,15.832L20.759,15.715Z" style="fill-rule:nonzero;"/>
        <path d="M21.295,16.267L21.295,16.065C21.411,16.141 21.54,16.179 21.68,16.179C21.867,16.179 21.961,16.124 21.961,16.014C21.961,15.982 21.953,15.956 21.937,15.934C21.921,15.912 21.899,15.893 21.872,15.876C21.845,15.859 21.812,15.844 21.775,15.831C21.739,15.817 21.699,15.803 21.656,15.789C21.597,15.768 21.545,15.747 21.5,15.726C21.456,15.705 21.418,15.682 21.388,15.655C21.358,15.629 21.336,15.599 21.32,15.565C21.305,15.531 21.298,15.492 21.298,15.447C21.298,15.392 21.312,15.343 21.341,15.301C21.369,15.258 21.407,15.223 21.455,15.194C21.503,15.165 21.558,15.144 21.619,15.129C21.68,15.115 21.744,15.107 21.809,15.107C21.924,15.107 22.028,15.125 22.119,15.16L22.119,15.351C22.021,15.294 21.908,15.266 21.78,15.266C21.74,15.266 21.704,15.27 21.672,15.278C21.64,15.286 21.612,15.297 21.589,15.312C21.566,15.326 21.548,15.344 21.536,15.364C21.523,15.384 21.517,15.406 21.517,15.431C21.517,15.461 21.523,15.487 21.536,15.508C21.548,15.528 21.567,15.547 21.591,15.563C21.615,15.579 21.645,15.593 21.68,15.606C21.714,15.619 21.754,15.634 21.798,15.649C21.857,15.669 21.91,15.689 21.957,15.71C22.004,15.731 22.044,15.755 22.077,15.781C22.11,15.808 22.136,15.838 22.154,15.873C22.172,15.907 22.18,15.948 22.18,15.995C22.18,16.053 22.166,16.104 22.137,16.147C22.108,16.189 22.069,16.225 22.02,16.253C21.971,16.282 21.915,16.303 21.852,16.316C21.788,16.33 21.722,16.337 21.652,16.337C21.515,16.337 21.396,16.314 21.295,16.267Z" style="fill-rule:nonzero;"/>
        <path d="M23.589,16.31L23.375,16.31L23.375,16.124L23.37,16.124C23.281,16.266 23.144,16.337 22.958,16.337C22.64,16.337 22.48,16.17 22.48,15.837L22.48,15.135L22.693,15.135L22.693,15.807C22.693,16.055 22.801,16.179 23.016,16.179C23.121,16.179 23.207,16.145 23.274,16.077C23.341,16.01 23.375,15.921 23.375,15.812L23.375,15.135L23.589,15.135L23.589,16.31Z" style="fill-rule:nonzero;"/>
        <path d="M25.917,16.31L25.703,16.31L25.703,15.635C25.703,15.505 25.68,15.411 25.635,15.353C25.589,15.295 25.512,15.266 25.404,15.266C25.313,15.266 25.235,15.302 25.172,15.376C25.108,15.449 25.076,15.537 25.076,15.64L25.076,16.31L24.862,16.31L24.862,15.612C24.862,15.381 24.761,15.266 24.558,15.266C24.464,15.266 24.387,15.3 24.326,15.37C24.265,15.439 24.235,15.529 24.235,15.64L24.235,16.31L24.021,16.31L24.021,15.135L24.235,15.135L24.235,15.321L24.24,15.321C24.335,15.179 24.473,15.107 24.654,15.107C24.746,15.107 24.825,15.13 24.893,15.175C24.961,15.219 25.007,15.278 25.033,15.351C25.132,15.188 25.28,15.107 25.476,15.107C25.77,15.107 25.917,15.267 25.917,15.586L25.917,16.31Z" style="fill-rule:nonzero;"/>
        <path d="M27.371,15.135L26.839,16.31L26.629,16.31L26.123,15.135L26.358,15.135L26.697,15.988C26.722,16.051 26.738,16.106 26.744,16.152L26.749,16.152C26.758,16.094 26.772,16.04 26.791,15.993L27.145,15.135L27.371,15.135Z" style="fill-rule:nonzero;"/>
        <path d="M11.729,19.279L11.155,19.279L11.155,17.634L11.284,17.634L11.284,19.104L11.729,19.104L11.729,19.279Z" style="fill-rule:nonzero;"/>
        <path d="M12.211,19.306C12.095,19.306 12.002,19.251 11.932,19.142C11.862,19.032 11.827,18.887 11.827,18.705C11.827,18.508 11.864,18.354 11.936,18.243C12.009,18.132 12.107,18.077 12.23,18.077C12.348,18.077 12.44,18.131 12.506,18.238C12.572,18.346 12.605,18.496 12.605,18.687C12.605,18.874 12.569,19.024 12.498,19.137C12.427,19.25 12.331,19.306 12.211,19.306ZM12.221,18.235C12.139,18.235 12.075,18.276 12.028,18.358C11.981,18.441 11.957,18.554 11.957,18.698C11.957,18.838 11.981,18.947 12.029,19.028C12.076,19.108 12.141,19.148 12.221,19.148C12.302,19.148 12.365,19.109 12.409,19.03C12.453,18.951 12.475,18.839 12.475,18.694C12.475,18.547 12.453,18.434 12.409,18.354C12.365,18.275 12.302,18.235 12.221,18.235Z" style="fill-rule:nonzero;"/>
        <path d="M13.219,18.295C13.197,18.269 13.165,18.257 13.123,18.257C13.069,18.257 13.024,18.295 12.988,18.37C12.951,18.446 12.933,18.549 12.933,18.68L12.933,19.279L12.807,19.279L12.807,18.104L12.933,18.104L12.933,18.346L12.936,18.346C12.954,18.264 12.982,18.199 13.019,18.153C13.056,18.107 13.097,18.084 13.143,18.084C13.176,18.084 13.201,18.089 13.219,18.1L13.219,18.295Z" style="fill-rule:nonzero;"/>
        <path d="M13.991,18.739L13.433,18.739C13.435,18.869 13.459,18.97 13.504,19.041C13.549,19.112 13.612,19.148 13.691,19.148C13.78,19.148 13.861,19.104 13.936,19.017L13.936,19.194C13.867,19.269 13.775,19.306 13.661,19.306C13.549,19.306 13.461,19.253 13.398,19.146C13.334,19.04 13.302,18.89 13.302,18.696C13.302,18.513 13.337,18.364 13.407,18.249C13.476,18.134 13.563,18.077 13.666,18.077C13.769,18.077 13.849,18.126 13.906,18.226C13.962,18.325 13.991,18.463 13.991,18.64L13.991,18.739ZM13.861,18.579C13.861,18.471 13.843,18.386 13.808,18.326C13.774,18.265 13.725,18.235 13.664,18.235C13.604,18.235 13.553,18.267 13.512,18.33C13.47,18.394 13.444,18.477 13.435,18.579L13.861,18.579Z" style="fill-rule:nonzero;"/>
        <path d="M15.303,19.279L15.177,19.279L15.177,18.604C15.177,18.474 15.163,18.38 15.136,18.322C15.109,18.264 15.064,18.235 15,18.235C14.946,18.235 14.9,18.272 14.863,18.345C14.825,18.419 14.806,18.506 14.806,18.609L14.806,19.279L14.679,19.279L14.679,18.581C14.679,18.35 14.62,18.235 14.5,18.235C14.444,18.235 14.398,18.27 14.362,18.339C14.327,18.408 14.309,18.498 14.309,18.609L14.309,19.279L14.182,19.279L14.182,18.104L14.309,18.104L14.309,18.29L14.312,18.29C14.368,18.148 14.449,18.077 14.557,18.077C14.611,18.077 14.658,18.099 14.698,18.144C14.738,18.189 14.766,18.247 14.781,18.32C14.839,18.158 14.927,18.077 15.043,18.077C15.217,18.077 15.303,18.236 15.303,18.555L15.303,19.279Z" style="fill-rule:nonzero;"/>
        <rect x="15.992" y="17.634" width="0.13" height="1.645" style="fill-rule:nonzero;"/>
        <path d="M16.961,19.279L16.834,19.279L16.834,19.095L16.831,19.095C16.776,19.236 16.695,19.306 16.588,19.306C16.51,19.306 16.448,19.275 16.404,19.213C16.359,19.151 16.337,19.069 16.337,18.967C16.337,18.747 16.424,18.62 16.598,18.584L16.834,18.534C16.834,18.335 16.78,18.235 16.672,18.235C16.577,18.235 16.491,18.283 16.414,18.38L16.414,18.187C16.492,18.113 16.581,18.077 16.682,18.077C16.868,18.077 16.961,18.223 16.961,18.515L16.961,19.279ZM16.834,18.685L16.644,18.724C16.585,18.736 16.541,18.757 16.511,18.788C16.481,18.819 16.466,18.874 16.466,18.953C16.466,19.01 16.48,19.057 16.508,19.094C16.535,19.13 16.572,19.148 16.618,19.148C16.68,19.148 16.732,19.115 16.773,19.05C16.814,18.985 16.834,18.902 16.834,18.802L16.834,18.685Z" style="fill-rule:nonzero;"/>
        <path d="M17.151,19.236L17.151,19.034C17.22,19.11 17.296,19.148 17.379,19.148C17.49,19.148 17.545,19.093 17.545,18.983C17.545,18.952 17.541,18.925 17.531,18.903C17.522,18.881 17.509,18.862 17.493,18.845C17.476,18.828 17.457,18.813 17.436,18.8C17.414,18.787 17.39,18.773 17.365,18.758C17.33,18.737 17.299,18.717 17.273,18.696C17.246,18.675 17.224,18.651 17.207,18.624C17.189,18.598 17.175,18.568 17.166,18.534C17.157,18.501 17.153,18.461 17.153,18.416C17.153,18.361 17.161,18.312 17.178,18.27C17.195,18.228 17.218,18.192 17.246,18.163C17.275,18.135 17.307,18.113 17.343,18.098C17.379,18.084 17.417,18.077 17.455,18.077C17.524,18.077 17.585,18.094 17.639,18.129L17.639,18.32C17.581,18.263 17.514,18.235 17.438,18.235C17.415,18.235 17.393,18.239 17.374,18.247C17.355,18.255 17.339,18.266 17.325,18.281C17.312,18.295 17.301,18.313 17.294,18.333C17.286,18.353 17.282,18.376 17.282,18.4C17.282,18.431 17.286,18.456 17.294,18.477C17.301,18.498 17.312,18.516 17.326,18.532C17.341,18.548 17.358,18.563 17.379,18.576C17.399,18.589 17.423,18.603 17.449,18.618C17.484,18.638 17.515,18.658 17.543,18.679C17.571,18.701 17.595,18.724 17.614,18.751C17.634,18.777 17.649,18.807 17.659,18.842C17.67,18.876 17.675,18.917 17.675,18.965C17.675,19.023 17.666,19.073 17.649,19.116C17.632,19.159 17.609,19.194 17.58,19.223C17.551,19.251 17.518,19.272 17.481,19.286C17.443,19.299 17.404,19.306 17.363,19.306C17.281,19.306 17.211,19.283 17.151,19.236Z" style="fill-rule:nonzero;"/>
        <path d="M18.508,19.279L18.382,19.279L18.382,19.093L18.378,19.093C18.326,19.235 18.245,19.306 18.135,19.306C17.947,19.306 17.852,19.14 17.852,18.806L17.852,18.104L17.978,18.104L17.978,18.776C17.978,19.024 18.042,19.148 18.169,19.148C18.231,19.148 18.282,19.114 18.322,19.047C18.362,18.979 18.382,18.89 18.382,18.781L18.382,18.104L18.508,18.104L18.508,19.279Z" style="fill-rule:nonzero;"/>
        <path d="M19.885,19.279L19.758,19.279L19.758,18.604C19.758,18.474 19.745,18.38 19.718,18.322C19.691,18.264 19.645,18.235 19.582,18.235C19.528,18.235 19.482,18.272 19.444,18.345C19.406,18.419 19.387,18.506 19.387,18.609L19.387,19.279L19.261,19.279L19.261,18.581C19.261,18.35 19.201,18.235 19.081,18.235C19.026,18.235 18.98,18.27 18.944,18.339C18.908,18.408 18.89,18.498 18.89,18.609L18.89,19.279L18.763,19.279L18.763,18.104L18.89,18.104L18.89,18.29L18.893,18.29C18.949,18.148 19.031,18.077 19.138,18.077C19.192,18.077 19.239,18.099 19.279,18.144C19.319,18.189 19.347,18.247 19.362,18.32C19.42,18.158 19.508,18.077 19.624,18.077C19.798,18.077 19.885,18.236 19.885,18.555L19.885,19.279Z" style="fill-rule:nonzero;"/>
        <path d="M20.745,18.104L20.43,19.279L20.306,19.279L20.007,18.104L20.145,18.104L20.346,18.958C20.361,19.02 20.37,19.075 20.374,19.122L20.377,19.122C20.382,19.063 20.39,19.01 20.401,18.962L20.611,18.104L20.745,18.104Z" style="fill-rule:nonzero;"/>
        <path d="M11.936,22.109L11.155,22.109L11.155,20.464L11.331,20.464L11.331,21.934L11.936,21.934L11.936,22.109Z" style="fill-rule:nonzero;"/>
        <path d="M12.593,22.136C12.435,22.136 12.308,22.081 12.213,21.972C12.118,21.862 12.071,21.716 12.071,21.535C12.071,21.338 12.12,21.184 12.219,21.073C12.317,20.962 12.451,20.906 12.619,20.906C12.779,20.906 12.904,20.96 12.994,21.068C13.084,21.176 13.129,21.326 13.129,21.517C13.129,21.704 13.081,21.854 12.984,21.967C12.887,22.08 12.757,22.136 12.593,22.136ZM12.606,21.065C12.495,21.065 12.408,21.106 12.344,21.188C12.279,21.27 12.247,21.384 12.247,21.528C12.247,21.667 12.28,21.777 12.345,21.857C12.41,21.938 12.497,21.978 12.606,21.978C12.717,21.978 12.803,21.938 12.863,21.86C12.923,21.781 12.953,21.669 12.953,21.524C12.953,21.377 12.923,21.264 12.863,21.184C12.803,21.105 12.717,21.065 12.606,21.065Z" style="fill-rule:nonzero;"/>
        <path d="M13.965,21.124C13.935,21.099 13.891,21.087 13.835,21.087C13.761,21.087 13.7,21.124 13.65,21.2C13.601,21.276 13.576,21.379 13.576,21.51L13.576,22.109L13.404,22.109L13.404,20.934L13.576,20.934L13.576,21.176L13.581,21.176C13.605,21.093 13.643,21.029 13.693,20.983C13.743,20.936 13.8,20.913 13.862,20.913C13.907,20.913 13.941,20.919 13.965,20.929L13.965,21.124Z" style="fill-rule:nonzero;"/>
        <path d="M15.016,21.568L14.257,21.568C14.26,21.699 14.292,21.8 14.353,21.871C14.415,21.942 14.5,21.978 14.608,21.978C14.729,21.978 14.84,21.934 14.942,21.847L14.942,22.024C14.847,22.099 14.722,22.136 14.567,22.136C14.415,22.136 14.295,22.083 14.209,21.976C14.122,21.869 14.078,21.719 14.078,21.526C14.078,21.343 14.126,21.194 14.221,21.079C14.316,20.964 14.433,20.906 14.574,20.906C14.715,20.906 14.824,20.956 14.901,21.056C14.978,21.155 15.016,21.293 15.016,21.47L15.016,21.568ZM14.84,21.409C14.839,21.3 14.815,21.216 14.768,21.155C14.72,21.095 14.655,21.065 14.571,21.065C14.49,21.065 14.421,21.097 14.364,21.16C14.307,21.223 14.272,21.306 14.259,21.409L14.84,21.409Z" style="fill-rule:nonzero;"/>
        <path d="M16.803,22.109L16.631,22.109L16.631,21.434C16.631,21.304 16.613,21.21 16.576,21.152C16.539,21.094 16.478,21.065 16.391,21.065C16.317,21.065 16.255,21.101 16.203,21.175C16.152,21.248 16.126,21.336 16.126,21.439L16.126,22.109L15.954,22.109L15.954,21.411C15.954,21.18 15.872,21.065 15.709,21.065C15.634,21.065 15.571,21.099 15.522,21.169C15.473,21.238 15.449,21.328 15.449,21.439L15.449,22.109L15.277,22.109L15.277,20.934L15.449,20.934L15.449,21.12L15.453,21.12C15.529,20.978 15.641,20.906 15.787,20.906C15.86,20.906 15.924,20.929 15.979,20.974C16.034,21.018 16.071,21.077 16.091,21.15C16.171,20.988 16.29,20.906 16.448,20.906C16.685,20.906 16.803,21.066 16.803,21.385L16.803,22.109Z" style="fill-rule:nonzero;"/>
        <path d="M11.936,24.898L11.155,24.898L11.155,23.253L11.331,23.253L11.331,24.724L11.936,24.724L11.936,24.898Z" style="fill-rule:nonzero;"/>
        <path d="M12.593,24.926C12.435,24.926 12.308,24.871 12.213,24.761C12.118,24.651 12.071,24.506 12.071,24.325C12.071,24.127 12.12,23.973 12.219,23.863C12.317,23.752 12.451,23.696 12.619,23.696C12.779,23.696 12.904,23.75 12.994,23.858C13.084,23.966 13.129,24.115 13.129,24.306C13.129,24.494 13.081,24.644 12.984,24.757C12.887,24.869 12.757,24.926 12.593,24.926ZM12.606,23.854C12.495,23.854 12.408,23.896 12.344,23.978C12.279,24.06 12.247,24.173 12.247,24.318C12.247,24.457 12.28,24.567 12.345,24.647C12.41,24.727 12.497,24.768 12.606,24.768C12.717,24.768 12.803,24.728 12.863,24.649C12.923,24.571 12.953,24.459 12.953,24.313C12.953,24.166 12.923,24.053 12.863,23.974C12.803,23.894 12.717,23.854 12.606,23.854Z" style="fill-rule:nonzero;"/>
        <path d="M13.965,23.914C13.935,23.889 13.891,23.876 13.835,23.876C13.761,23.876 13.7,23.914 13.65,23.99C13.601,24.066 13.576,24.169 13.576,24.3L13.576,24.898L13.404,24.898L13.404,23.724L13.576,23.724L13.576,23.966L13.581,23.966C13.605,23.883 13.643,23.819 13.693,23.772C13.743,23.726 13.8,23.703 13.862,23.703C13.907,23.703 13.941,23.708 13.965,23.719L13.965,23.914Z" style="fill-rule:nonzero;"/>
        <path d="M15.016,24.358L14.257,24.358C14.26,24.489 14.292,24.59 14.353,24.661C14.415,24.732 14.5,24.768 14.608,24.768C14.729,24.768 14.84,24.724 14.942,24.637L14.942,24.813C14.847,24.888 14.722,24.926 14.567,24.926C14.415,24.926 14.295,24.872 14.209,24.766C14.122,24.659 14.078,24.509 14.078,24.316C14.078,24.133 14.126,23.984 14.221,23.869C14.316,23.754 14.433,23.696 14.574,23.696C14.715,23.696 14.824,23.746 14.901,23.845C14.978,23.945 15.016,24.083 15.016,24.259L15.016,24.358ZM14.84,24.199C14.839,24.09 14.815,24.006 14.768,23.945C14.72,23.885 14.655,23.854 14.571,23.854C14.49,23.854 14.421,23.886 14.364,23.95C14.307,24.013 14.272,24.096 14.259,24.199L14.84,24.199Z" style="fill-rule:nonzero;"/>
        <path d="M16.803,24.898L16.631,24.898L16.631,24.224C16.631,24.094 16.613,24 16.576,23.942C16.539,23.884 16.478,23.854 16.391,23.854C16.317,23.854 16.255,23.891 16.203,23.965C16.152,24.038 16.126,24.126 16.126,24.228L16.126,24.898L15.954,24.898L15.954,24.201C15.954,23.97 15.872,23.854 15.709,23.854C15.634,23.854 15.571,23.889 15.522,23.958C15.473,24.027 15.449,24.118 15.449,24.228L15.449,24.898L15.277,24.898L15.277,23.724L15.449,23.724L15.449,23.91L15.453,23.91C15.529,23.767 15.641,23.696 15.787,23.696C15.86,23.696 15.924,23.719 15.979,23.763C16.034,23.808 16.071,23.867 16.091,23.939C16.171,23.777 16.29,23.696 16.448,23.696C16.685,23.696 16.803,23.856 16.803,24.175L16.803,24.898Z" style="fill-rule:nonzero;"/>
        <rect x="17.741" y="23.253" width="0.176" height="1.645" style="fill-rule:nonzero;"/>
        <path d="M19.06,24.898L18.888,24.898L18.888,24.715L18.884,24.715C18.809,24.855 18.698,24.926 18.553,24.926C18.446,24.926 18.362,24.895 18.301,24.833C18.241,24.771 18.211,24.689 18.211,24.586C18.211,24.367 18.329,24.239 18.565,24.203L18.888,24.154C18.888,23.954 18.814,23.854 18.666,23.854C18.537,23.854 18.42,23.903 18.316,23.999L18.316,23.806C18.421,23.733 18.543,23.696 18.681,23.696C18.934,23.696 19.06,23.842 19.06,24.134L19.06,24.898ZM18.888,24.304L18.628,24.343C18.549,24.355 18.488,24.377 18.448,24.408C18.407,24.439 18.387,24.494 18.387,24.573C18.387,24.63 18.406,24.677 18.443,24.713C18.481,24.749 18.53,24.768 18.593,24.768C18.678,24.768 18.749,24.735 18.804,24.669C18.86,24.604 18.888,24.521 18.888,24.421L18.888,24.304Z" style="fill-rule:nonzero;"/>
        <path d="M19.319,24.856L19.319,24.654C19.413,24.73 19.517,24.768 19.629,24.768C19.78,24.768 19.856,24.712 19.856,24.602C19.856,24.571 19.85,24.544 19.837,24.523C19.824,24.501 19.806,24.482 19.784,24.465C19.762,24.448 19.736,24.433 19.706,24.419C19.677,24.406 19.645,24.392 19.61,24.378C19.563,24.357 19.521,24.336 19.485,24.315C19.449,24.294 19.419,24.27 19.395,24.244C19.37,24.218 19.352,24.188 19.34,24.154C19.328,24.12 19.322,24.081 19.322,24.036C19.322,23.981 19.333,23.932 19.356,23.889C19.379,23.847 19.41,23.811 19.449,23.783C19.487,23.754 19.531,23.733 19.58,23.718C19.63,23.703 19.681,23.696 19.733,23.696C19.826,23.696 19.91,23.714 19.983,23.749L19.983,23.939C19.904,23.883 19.813,23.854 19.71,23.854C19.678,23.854 19.649,23.859 19.623,23.867C19.597,23.875 19.575,23.886 19.556,23.9C19.538,23.915 19.523,23.932 19.513,23.953C19.503,23.973 19.498,23.995 19.498,24.02C19.498,24.05 19.503,24.076 19.513,24.097C19.523,24.117 19.538,24.136 19.558,24.152C19.577,24.168 19.601,24.182 19.629,24.195C19.657,24.208 19.689,24.222 19.725,24.238C19.772,24.257 19.815,24.278 19.853,24.299C19.891,24.32 19.923,24.344 19.95,24.37C19.976,24.396 19.997,24.427 20.011,24.461C20.025,24.496 20.032,24.537 20.032,24.584C20.032,24.642 20.021,24.693 19.997,24.735C19.974,24.778 19.943,24.814 19.903,24.842C19.864,24.87 19.819,24.891 19.768,24.905C19.717,24.919 19.663,24.926 19.607,24.926C19.497,24.926 19.401,24.902 19.319,24.856Z" style="fill-rule:nonzero;"/>
        <path d="M21.167,24.898L20.994,24.898L20.994,24.712L20.99,24.712C20.919,24.855 20.808,24.926 20.658,24.926C20.402,24.926 20.274,24.759 20.274,24.426L20.274,23.724L20.445,23.724L20.445,24.396C20.445,24.644 20.532,24.768 20.706,24.768C20.79,24.768 20.859,24.734 20.913,24.666C20.967,24.598 20.994,24.51 20.994,24.4L20.994,23.724L21.167,23.724L21.167,24.898Z" style="fill-rule:nonzero;"/>
        <path d="M23.041,24.898L22.869,24.898L22.869,24.224C22.869,24.094 22.85,24 22.814,23.942C22.777,23.884 22.715,23.854 22.628,23.854C22.555,23.854 22.492,23.891 22.441,23.965C22.389,24.038 22.364,24.126 22.364,24.228L22.364,24.898L22.192,24.898L22.192,24.201C22.192,23.97 22.11,23.854 21.947,23.854C21.871,23.854 21.809,23.889 21.76,23.958C21.711,24.027 21.686,24.118 21.686,24.228L21.686,24.898L21.514,24.898L21.514,23.724L21.686,23.724L21.686,23.91L21.691,23.91C21.767,23.767 21.878,23.696 22.025,23.696C22.098,23.696 22.162,23.719 22.217,23.763C22.271,23.808 22.309,23.867 22.329,23.939C22.409,23.777 22.528,23.696 22.686,23.696C22.923,23.696 23.041,23.856 23.041,24.175L23.041,24.898Z" style="fill-rule:nonzero;"/>
        <path d="M24.212,23.724L23.783,24.898L23.614,24.898L23.207,23.724L23.396,23.724L23.669,24.577C23.689,24.64 23.702,24.695 23.707,24.741L23.711,24.741C23.718,24.682 23.729,24.629 23.745,24.582L24.03,23.724L24.212,23.724Z" style="fill-rule:nonzero;"/>
        <path d="M25.704,23.253L25.704,24.34L25.897,24.34L25.897,24.512L25.704,24.512L25.704,24.898L25.534,24.898L25.534,24.512L24.826,24.512L24.826,24.349C24.892,24.268 24.959,24.181 25.026,24.089C25.093,23.997 25.157,23.903 25.218,23.809C25.28,23.714 25.336,23.619 25.389,23.525C25.441,23.43 25.485,23.34 25.52,23.253L25.704,23.253ZM25.021,24.34L25.534,24.34L25.534,23.534C25.482,23.635 25.432,23.724 25.385,23.803C25.338,23.882 25.293,23.953 25.251,24.017C25.209,24.082 25.168,24.14 25.13,24.192C25.091,24.244 25.055,24.293 25.021,24.34Z" style="fill-rule:nonzero;"/>
        <path d="M26.863,23.253L26.863,24.34L27.057,24.34L27.057,24.512L26.863,24.512L26.863,24.898L26.693,24.898L26.693,24.512L25.986,24.512L25.986,24.349C26.051,24.268 26.118,24.181 26.185,24.089C26.252,23.997 26.317,23.903 26.378,23.809C26.439,23.714 26.496,23.619 26.548,23.525C26.6,23.43 26.644,23.34 26.68,23.253L26.863,23.253ZM26.18,24.34L26.693,24.34L26.693,23.534C26.641,23.635 26.591,23.724 26.544,23.803C26.497,23.882 26.453,23.953 26.41,24.017C26.368,24.082 26.328,24.14 26.289,24.192C26.251,24.244 26.214,24.293 26.18,24.34Z" style="fill-rule:nonzero;"/>
        <path d="M11.936,27.88L11.155,27.88L11.155,26.235L11.331,26.235L11.331,27.706L11.936,27.706L11.936,27.88Z" style="fill-rule:nonzero;"/>
        <path d="M12.593,27.908C12.435,27.908 12.308,27.853 12.213,27.743C12.118,27.633 12.071,27.488 12.071,27.307C12.071,27.109 12.12,26.955 12.219,26.844C12.317,26.733 12.451,26.678 12.619,26.678C12.779,26.678 12.904,26.732 12.994,26.84C13.084,26.948 13.129,27.097 13.129,27.288C13.129,27.476 13.081,27.626 12.984,27.738C12.887,27.851 12.757,27.908 12.593,27.908ZM12.606,26.836C12.495,26.836 12.408,26.877 12.344,26.96C12.279,27.042 12.247,27.155 12.247,27.3C12.247,27.439 12.28,27.549 12.345,27.629C12.41,27.709 12.497,27.749 12.606,27.749C12.717,27.749 12.803,27.71 12.863,27.631C12.923,27.552 12.953,27.44 12.953,27.295C12.953,27.148 12.923,27.035 12.863,26.956C12.803,26.876 12.717,26.836 12.606,26.836Z" style="fill-rule:nonzero;"/>
        <path d="M13.965,26.896C13.935,26.871 13.891,26.858 13.835,26.858C13.761,26.858 13.7,26.896 13.65,26.972C13.601,27.047 13.576,27.151 13.576,27.281L13.576,27.88L13.404,27.88L13.404,26.706L13.576,26.706L13.576,26.948L13.581,26.948C13.605,26.865 13.643,26.801 13.693,26.754C13.743,26.708 13.8,26.685 13.862,26.685C13.907,26.685 13.941,26.69 13.965,26.701L13.965,26.896Z" style="fill-rule:nonzero;"/>
        <path d="M15.016,27.34L14.257,27.34C14.26,27.471 14.292,27.572 14.353,27.643C14.415,27.714 14.5,27.749 14.608,27.749C14.729,27.749 14.84,27.706 14.942,27.619L14.942,27.795C14.847,27.87 14.722,27.908 14.567,27.908C14.415,27.908 14.295,27.854 14.209,27.748C14.122,27.641 14.078,27.491 14.078,27.297C14.078,27.115 14.126,26.966 14.221,26.851C14.316,26.736 14.433,26.678 14.574,26.678C14.715,26.678 14.824,26.728 14.901,26.827C14.978,26.927 15.016,27.065 15.016,27.241L15.016,27.34ZM14.84,27.18C14.839,27.072 14.815,26.987 14.768,26.927C14.72,26.866 14.655,26.836 14.571,26.836C14.49,26.836 14.421,26.868 14.364,26.931C14.307,26.995 14.272,27.078 14.259,27.18L14.84,27.18Z" style="fill-rule:nonzero;"/>
        <path d="M16.803,27.88L16.631,27.88L16.631,27.206C16.631,27.076 16.613,26.982 16.576,26.923C16.539,26.865 16.478,26.836 16.391,26.836C16.317,26.836 16.255,26.873 16.203,26.946C16.152,27.02 16.126,27.108 16.126,27.21L16.126,27.88L15.954,27.88L15.954,27.183C15.954,26.952 15.872,26.836 15.709,26.836C15.634,26.836 15.571,26.871 15.522,26.94C15.473,27.009 15.449,27.099 15.449,27.21L15.449,27.88L15.277,27.88L15.277,26.706L15.449,26.706L15.449,26.891L15.453,26.891C15.529,26.749 15.641,26.678 15.787,26.678C15.86,26.678 15.924,26.7 15.979,26.745C16.034,26.79 16.071,26.849 16.091,26.921C16.171,26.759 16.29,26.678 16.448,26.678C16.685,26.678 16.803,26.837 16.803,27.156L16.803,27.88Z" style="fill-rule:nonzero;"/>
        <rect x="17.741" y="26.235" width="0.176" height="1.645" style="fill-rule:nonzero;"/>
        <path d="M19.06,27.88L18.888,27.88L18.888,27.697L18.884,27.697C18.809,27.837 18.698,27.908 18.553,27.908C18.446,27.908 18.362,27.877 18.301,27.815C18.241,27.753 18.211,27.671 18.211,27.568C18.211,27.349 18.329,27.221 18.565,27.185L18.888,27.136C18.888,26.936 18.814,26.836 18.666,26.836C18.537,26.836 18.42,26.884 18.316,26.981L18.316,26.788C18.421,26.715 18.543,26.678 18.681,26.678C18.934,26.678 19.06,26.824 19.06,27.116L19.06,27.88ZM18.888,27.286L18.628,27.325C18.549,27.337 18.488,27.359 18.448,27.39C18.407,27.421 18.387,27.476 18.387,27.554C18.387,27.612 18.406,27.659 18.443,27.695C18.481,27.731 18.53,27.749 18.593,27.749C18.678,27.749 18.749,27.717 18.804,27.651C18.86,27.586 18.888,27.503 18.888,27.403L18.888,27.286Z" style="fill-rule:nonzero;"/>
        <path d="M19.319,27.838L19.319,27.636C19.413,27.711 19.517,27.749 19.629,27.749C19.78,27.749 19.856,27.694 19.856,27.584C19.856,27.553 19.85,27.526 19.837,27.504C19.824,27.483 19.806,27.463 19.784,27.447C19.762,27.43 19.736,27.415 19.706,27.401C19.677,27.388 19.645,27.374 19.61,27.359C19.563,27.339 19.521,27.318 19.485,27.297C19.449,27.276 19.419,27.252 19.395,27.226C19.37,27.199 19.352,27.169 19.34,27.136C19.328,27.102 19.322,27.063 19.322,27.018C19.322,26.962 19.333,26.914 19.356,26.871C19.379,26.829 19.41,26.793 19.449,26.765C19.487,26.736 19.531,26.714 19.58,26.7C19.63,26.685 19.681,26.678 19.733,26.678C19.826,26.678 19.91,26.696 19.983,26.731L19.983,26.921C19.904,26.865 19.813,26.836 19.71,26.836C19.678,26.836 19.649,26.84 19.623,26.848C19.597,26.856 19.575,26.868 19.556,26.882C19.538,26.897 19.523,26.914 19.513,26.934C19.503,26.955 19.498,26.977 19.498,27.001C19.498,27.032 19.503,27.058 19.513,27.078C19.523,27.099 19.538,27.117 19.558,27.133C19.577,27.149 19.601,27.164 19.629,27.177C19.657,27.19 19.689,27.204 19.725,27.219C19.772,27.239 19.815,27.26 19.853,27.281C19.891,27.302 19.923,27.326 19.95,27.352C19.976,27.378 19.997,27.409 20.011,27.443C20.025,27.477 20.032,27.518 20.032,27.566C20.032,27.624 20.021,27.674 19.997,27.717C19.974,27.76 19.943,27.796 19.903,27.824C19.864,27.852 19.819,27.873 19.768,27.887C19.717,27.901 19.663,27.908 19.607,27.908C19.497,27.908 19.401,27.884 19.319,27.838Z" style="fill-rule:nonzero;"/>
    </g>
</svg>
