<?xml version="1.0" encoding="UTF-8" standalone="no"?>
<!DOCTYPE svg PUBLIC "-//W3C//DTD SVG 1.1//EN" "http://www.w3.org/Graphics/SVG/1.1/DTD/svg11.dtd">
<svg width="30px" height="30px" version="1.1" xmlns="http://www.w3.org/2000/svg" xmlns:xlink="http://www.w3.org/1999/xlink" xml:space="preserve" xmlns:serif="http://www.serif.com/" style="fill-rule:evenodd;clip-rule:evenodd;stroke-linecap:round;stroke-linejoin:round;stroke-miterlimit:1.5;">
    <g id="grid">
        <rect x="0" y="0" width="30" height="4.912" style="fill:rgb(164,164,164);"/>
        <path d="M2.394,3.5L1,3.5L1,0.737L1.315,0.737L1.315,3.207L2.394,3.207L2.394,3.5Z" style="fill-rule:nonzero;"/>
        <path d="M3.566,3.546C3.283,3.546 3.056,3.454 2.887,3.27C2.718,3.085 2.633,2.841 2.633,2.537C2.633,2.205 2.721,1.946 2.898,1.76C3.074,1.574 3.312,1.481 3.611,1.481C3.897,1.481 4.12,1.571 4.281,1.752C4.441,1.933 4.522,2.185 4.522,2.506C4.522,2.82 4.435,3.073 4.262,3.262C4.089,3.452 3.857,3.546 3.566,3.546ZM3.589,1.746C3.391,1.746 3.235,1.815 3.12,1.954C3.006,2.092 2.948,2.282 2.948,2.525C2.948,2.759 3.006,2.943 3.122,3.078C3.238,3.213 3.394,3.28 3.589,3.28C3.787,3.28 3.94,3.214 4.047,3.082C4.154,2.95 4.207,2.761 4.207,2.517C4.207,2.271 4.154,2.08 4.047,1.947C3.94,1.813 3.787,1.746 3.589,1.746Z" style="fill-rule:nonzero;"/>
        <path d="M6.013,1.847C5.959,1.804 5.882,1.783 5.78,1.783C5.649,1.783 5.54,1.847 5.452,1.974C5.364,2.101 5.32,2.274 5.32,2.494L5.32,3.5L5.012,3.5L5.012,1.527L5.32,1.527L5.32,1.933L5.327,1.933C5.371,1.795 5.438,1.686 5.528,1.609C5.617,1.531 5.718,1.492 5.829,1.492C5.909,1.492 5.97,1.501 6.013,1.519L6.013,1.847Z" style="fill-rule:nonzero;"/>
        <path d="M7.888,2.592L6.533,2.592C6.538,2.812 6.596,2.982 6.706,3.101C6.816,3.221 6.967,3.28 7.159,3.28C7.375,3.28 7.574,3.207 7.755,3.061L7.755,3.357C7.586,3.483 7.363,3.546 7.086,3.546C6.815,3.546 6.602,3.457 6.447,3.277C6.292,3.098 6.215,2.846 6.215,2.521C6.215,2.214 6.3,1.964 6.469,1.771C6.638,1.577 6.848,1.481 7.099,1.481C7.35,1.481 7.544,1.564 7.682,1.731C7.819,1.898 7.888,2.13 7.888,2.427L7.888,2.592ZM7.573,2.325C7.572,2.142 7.529,2 7.445,1.899C7.36,1.797 7.243,1.746 7.093,1.746C6.949,1.746 6.826,1.8 6.724,1.906C6.623,2.013 6.561,2.152 6.537,2.325L7.573,2.325Z" style="fill-rule:nonzero;"/>
        <path d="M11.076,3.5L10.769,3.5L10.769,2.367C10.769,2.149 10.736,1.991 10.67,1.893C10.605,1.795 10.495,1.746 10.34,1.746C10.209,1.746 10.097,1.808 10.005,1.931C9.914,2.055 9.868,2.202 9.868,2.375L9.868,3.5L9.56,3.5L9.56,2.328C9.56,1.94 9.415,1.746 9.124,1.746C8.989,1.746 8.878,1.805 8.791,1.921C8.703,2.037 8.659,2.188 8.659,2.375L8.659,3.5L8.352,3.5L8.352,1.527L8.659,1.527L8.659,1.839L8.667,1.839C8.803,1.6 9.002,1.481 9.263,1.481C9.394,1.481 9.508,1.518 9.605,1.593C9.703,1.668 9.77,1.767 9.806,1.889C9.948,1.617 10.161,1.481 10.443,1.481C10.865,1.481 11.076,1.748 11.076,2.284L11.076,3.5Z" style="fill-rule:nonzero;"/>
        <rect x="12.749" y="0.737" width="0.315" height="2.763" style="fill-rule:nonzero;"/>
        <path d="M14.043,3.215L14.036,3.215L14.036,4.408L13.728,4.408L13.728,1.527L14.036,1.527L14.036,1.874L14.043,1.874C14.194,1.612 14.415,1.481 14.706,1.481C14.953,1.481 15.146,1.569 15.285,1.745C15.424,1.922 15.493,2.159 15.493,2.456C15.493,2.786 15.415,3.05 15.259,3.249C15.103,3.447 14.889,3.546 14.618,3.546C14.37,3.546 14.178,3.436 14.043,3.215ZM14.036,2.419L14.036,2.695C14.036,2.858 14.087,2.996 14.19,3.11C14.293,3.223 14.424,3.28 14.583,3.28C14.769,3.28 14.914,3.207 15.02,3.061C15.125,2.914 15.178,2.711 15.178,2.45C15.178,2.23 15.129,2.058 15.03,1.933C14.932,1.809 14.798,1.746 14.629,1.746C14.451,1.746 14.307,1.81 14.199,1.938C14.09,2.066 14.036,2.226 14.036,2.419Z" style="fill-rule:nonzero;"/>
        <path d="M15.868,3.429L15.868,3.09C16.035,3.217 16.219,3.28 16.42,3.28C16.69,3.28 16.825,3.188 16.825,3.003C16.825,2.95 16.813,2.906 16.79,2.869C16.767,2.832 16.736,2.8 16.696,2.772C16.657,2.743 16.611,2.718 16.558,2.695C16.505,2.673 16.448,2.65 16.386,2.625C16.301,2.59 16.227,2.555 16.163,2.52C16.098,2.485 16.045,2.445 16.001,2.401C15.958,2.356 15.926,2.306 15.904,2.249C15.882,2.193 15.871,2.127 15.871,2.051C15.871,1.958 15.892,1.877 15.933,1.805C15.974,1.734 16.029,1.674 16.098,1.626C16.167,1.578 16.245,1.542 16.333,1.517C16.421,1.493 16.512,1.481 16.606,1.481C16.772,1.481 16.92,1.51 17.051,1.569L17.051,1.889C16.91,1.794 16.748,1.746 16.564,1.746C16.507,1.746 16.455,1.753 16.409,1.767C16.363,1.78 16.323,1.799 16.29,1.824C16.257,1.848 16.231,1.877 16.213,1.911C16.195,1.945 16.186,1.983 16.186,2.024C16.186,2.075 16.195,2.118 16.213,2.153C16.231,2.188 16.258,2.219 16.293,2.246C16.328,2.273 16.37,2.297 16.42,2.319C16.47,2.341 16.527,2.364 16.591,2.39C16.676,2.423 16.752,2.458 16.819,2.493C16.887,2.528 16.944,2.568 16.991,2.613C17.039,2.657 17.075,2.708 17.101,2.766C17.127,2.824 17.139,2.892 17.139,2.972C17.139,3.07 17.119,3.154 17.077,3.226C17.035,3.298 16.979,3.358 16.909,3.406C16.839,3.453 16.759,3.488 16.667,3.512C16.576,3.535 16.481,3.546 16.381,3.546C16.183,3.546 16.012,3.507 15.868,3.429Z" style="fill-rule:nonzero;"/>
        <path d="M19.162,3.5L18.855,3.5L18.855,3.188L18.848,3.188C18.72,3.427 18.523,3.546 18.256,3.546C17.799,3.546 17.57,3.266 17.57,2.706L17.57,1.527L17.876,1.527L17.876,2.656C17.876,3.072 18.03,3.28 18.34,3.28C18.49,3.28 18.613,3.223 18.71,3.11C18.807,2.996 18.855,2.847 18.855,2.664L18.855,1.527L19.162,1.527L19.162,3.5Z" style="fill-rule:nonzero;"/>
        <path d="M22.506,3.5L22.199,3.5L22.199,2.367C22.199,2.149 22.166,1.991 22.101,1.893C22.035,1.795 21.925,1.746 21.77,1.746C21.639,1.746 21.527,1.808 21.436,1.931C21.344,2.055 21.298,2.202 21.298,2.375L21.298,3.5L20.991,3.5L20.991,2.328C20.991,1.94 20.845,1.746 20.554,1.746C20.419,1.746 20.308,1.805 20.221,1.921C20.133,2.037 20.09,2.188 20.09,2.375L20.09,3.5L19.783,3.5L19.783,1.527L20.09,1.527L20.09,1.839L20.097,1.839C20.233,1.6 20.432,1.481 20.693,1.481C20.824,1.481 20.938,1.518 21.036,1.593C21.133,1.668 21.2,1.767 21.236,1.889C21.378,1.617 21.591,1.481 21.873,1.481C22.295,1.481 22.506,1.748 22.506,2.284L22.506,3.5Z" style="fill-rule:nonzero;"/>
        <path d="M24.595,1.527L23.83,3.5L23.529,3.5L22.802,1.527L23.139,1.527L23.626,2.96C23.663,3.066 23.685,3.158 23.694,3.236L23.701,3.236C23.714,3.137 23.734,3.048 23.761,2.968L24.271,1.527L24.595,1.527Z" style="fill-rule:nonzero;"/>
        <rect x="0" y="4.912" width="30" height="4.368" style="fill:white;stroke:rgb(129,129,129);stroke-width:0.47px;"/>
        <rect x="0" y="9.28" width="30" height="4.368" style="fill:white;stroke:rgb(129,129,129);stroke-width:0.47px;"/>
        <rect x="0" y="13.394" width="30" height="4.368" style="fill:white;stroke:rgb(129,129,129);stroke-width:0.47px;"/>
        <rect x="0" y="17.762" width="30" height="4.368" style="fill:white;stroke:rgb(129,129,129);stroke-width:0.47px;"/>
        <rect x="0" y="21.909" width="30" height="4.368" style="fill:white;stroke:rgb(129,129,129);stroke-width:0.47px;"/>
        <rect x="0" y="26" width="30" height="4.368" style="fill:white;stroke:rgb(129,129,129);stroke-width:0.47px;"/>
        <path d="M10,5L10,30" style="fill:none;stroke:rgb(129,129,129);stroke-width:0.47px;"/>
    </g>
    <g id="text">
        <path d="M1.906,8.314L1,8.314L1,5.731L1.205,5.731L1.205,8.04L1.906,8.04L1.906,8.314Z" style="fill-rule:nonzero;"/>
        <path d="M2.668,8.357C2.484,8.357 2.336,8.271 2.227,8.098C2.117,7.926 2.062,7.698 2.062,7.413C2.062,7.103 2.119,6.861 2.233,6.687C2.348,6.513 2.502,6.426 2.697,6.426C2.883,6.426 3.028,6.511 3.132,6.68C3.237,6.849 3.289,7.084 3.289,7.384C3.289,7.678 3.232,7.914 3.12,8.091C3.008,8.268 2.857,8.357 2.668,8.357ZM2.682,6.675C2.554,6.675 2.453,6.739 2.378,6.868C2.303,6.997 2.266,7.175 2.266,7.402C2.266,7.621 2.304,7.793 2.379,7.919C2.455,8.045 2.556,8.108 2.682,8.108C2.811,8.108 2.911,8.047 2.98,7.923C3.049,7.799 3.084,7.623 3.084,7.395C3.084,7.165 3.049,6.987 2.98,6.862C2.911,6.737 2.811,6.675 2.682,6.675Z" style="fill-rule:nonzero;"/>
        <path d="M4.258,6.768C4.223,6.729 4.172,6.709 4.107,6.709C4.022,6.709 3.95,6.768 3.893,6.887C3.836,7.006 3.807,7.168 3.807,7.373L3.807,8.314L3.608,8.314L3.608,6.469L3.807,6.469L3.807,6.849L3.812,6.849C3.841,6.72 3.884,6.618 3.942,6.546C4.001,6.473 4.066,6.437 4.138,6.437C4.19,6.437 4.23,6.445 4.258,6.462L4.258,6.768Z" style="fill-rule:nonzero;"/>
        <path d="M5.476,7.465L4.596,7.465C4.599,7.671 4.637,7.829 4.708,7.941C4.78,8.053 4.878,8.108 5.003,8.108C5.143,8.108 5.272,8.04 5.39,7.903L5.39,8.18C5.28,8.298 5.135,8.357 4.955,8.357C4.779,8.357 4.641,8.273 4.54,8.106C4.44,7.938 4.389,7.702 4.389,7.399C4.389,7.112 4.444,6.878 4.554,6.697C4.664,6.516 4.801,6.426 4.964,6.426C5.127,6.426 5.253,6.504 5.342,6.66C5.432,6.816 5.476,7.033 5.476,7.31L5.476,7.465ZM5.272,7.215C5.271,7.044 5.243,6.912 5.188,6.817C5.134,6.722 5.058,6.675 4.96,6.675C4.866,6.675 4.786,6.724 4.72,6.824C4.655,6.924 4.614,7.054 4.599,7.215L5.272,7.215Z" style="fill-rule:nonzero;"/>
        <path d="M7.548,8.314L7.349,8.314L7.349,7.255C7.349,7.05 7.327,6.903 7.285,6.811C7.242,6.72 7.17,6.675 7.07,6.675C6.985,6.675 6.912,6.732 6.853,6.848C6.793,6.963 6.763,7.101 6.763,7.262L6.763,8.314L6.563,8.314L6.563,7.219C6.563,6.856 6.469,6.675 6.28,6.675C6.192,6.675 6.12,6.729 6.063,6.838C6.006,6.946 5.978,7.088 5.978,7.262L5.978,8.314L5.778,8.314L5.778,6.469L5.978,6.469L5.978,6.761L5.983,6.761C6.071,6.538 6.2,6.426 6.37,6.426C6.455,6.426 6.529,6.461 6.593,6.531C6.656,6.602 6.699,6.694 6.723,6.808C6.815,6.553 6.953,6.426 7.137,6.426C7.411,6.426 7.548,6.676 7.548,7.177L7.548,8.314Z" style="fill-rule:nonzero;"/>
        <path d="M1.906,12.583L1,12.583L1,10L1.205,10L1.205,12.309L1.906,12.309L1.906,12.583Z" style="fill-rule:nonzero;"/>
        <path d="M2.668,12.626C2.484,12.626 2.336,12.54 2.227,12.368C2.117,12.195 2.062,11.967 2.062,11.682C2.062,11.373 2.119,11.131 2.233,10.956C2.348,10.782 2.502,10.695 2.697,10.695C2.883,10.695 3.028,10.78 3.132,10.949C3.237,11.119 3.289,11.353 3.289,11.654C3.289,11.948 3.232,12.183 3.12,12.361C3.008,12.538 2.857,12.626 2.668,12.626ZM2.682,10.944C2.554,10.944 2.453,11.008 2.378,11.137C2.303,11.267 2.266,11.445 2.266,11.672C2.266,11.89 2.304,12.062 2.379,12.188C2.455,12.315 2.556,12.378 2.682,12.378C2.811,12.378 2.911,12.316 2.98,12.192C3.049,12.068 3.084,11.892 3.084,11.664C3.084,11.434 3.049,11.256 2.98,11.131C2.911,11.006 2.811,10.944 2.682,10.944Z" style="fill-rule:nonzero;"/>
        <path d="M4.258,11.038C4.223,10.998 4.172,10.978 4.107,10.978C4.022,10.978 3.95,11.038 3.893,11.156C3.836,11.275 3.807,11.437 3.807,11.643L3.807,12.583L3.608,12.583L3.608,10.739L3.807,10.739L3.807,11.119L3.812,11.119C3.841,10.989 3.884,10.888 3.942,10.815C4.001,10.742 4.066,10.706 4.138,10.706C4.19,10.706 4.23,10.714 4.258,10.731L4.258,11.038Z" style="fill-rule:nonzero;"/>
        <path d="M5.476,11.735L4.596,11.735C4.599,11.94 4.637,12.098 4.708,12.21C4.78,12.322 4.878,12.378 5.003,12.378C5.143,12.378 5.272,12.309 5.39,12.172L5.39,12.45C5.28,12.567 5.135,12.626 4.955,12.626C4.779,12.626 4.641,12.542 4.54,12.375C4.44,12.207 4.389,11.972 4.389,11.668C4.389,11.381 4.444,11.147 4.554,10.966C4.664,10.786 4.801,10.695 4.964,10.695C5.127,10.695 5.253,10.773 5.342,10.929C5.432,11.086 5.476,11.302 5.476,11.58L5.476,11.735ZM5.272,11.484C5.271,11.314 5.243,11.181 5.188,11.086C5.134,10.991 5.058,10.944 4.96,10.944C4.866,10.944 4.786,10.994 4.72,11.093C4.655,11.193 4.614,11.323 4.599,11.484L5.272,11.484Z" style="fill-rule:nonzero;"/>
        <path d="M6.671,12.583L6.471,12.583L6.471,12.295L6.466,12.295C6.379,12.516 6.251,12.626 6.083,12.626C5.958,12.626 5.861,12.578 5.791,12.48C5.721,12.383 5.686,12.254 5.686,12.093C5.686,11.748 5.823,11.548 6.097,11.491L6.471,11.414C6.471,11.101 6.385,10.944 6.214,10.944C6.064,10.944 5.928,11.019 5.807,11.171L5.807,10.868C5.93,10.753 6.071,10.695 6.231,10.695C6.524,10.695 6.671,10.925 6.671,11.383L6.671,12.583ZM6.471,11.65L6.17,11.711C6.078,11.73 6.008,11.764 5.961,11.813C5.914,11.862 5.89,11.948 5.89,12.071C5.89,12.161 5.912,12.235 5.955,12.292C5.999,12.349 6.057,12.378 6.129,12.378C6.228,12.378 6.31,12.326 6.374,12.224C6.439,12.121 6.471,11.991 6.471,11.834L6.471,11.65Z" style="fill-rule:nonzero;"/>
        <path d="M8.817,12.583L8.617,12.583L8.617,11.524C8.617,11.32 8.596,11.172 8.553,11.081C8.511,10.989 8.439,10.944 8.338,10.944C8.253,10.944 8.181,11.001 8.121,11.117C8.061,11.232 8.032,11.37 8.032,11.531L8.032,12.583L7.832,12.583L7.832,11.488C7.832,11.125 7.737,10.944 7.548,10.944C7.461,10.944 7.388,10.998 7.332,11.107C7.275,11.216 7.246,11.357 7.246,11.531L7.246,12.583L7.047,12.583L7.047,10.739L7.246,10.739L7.246,11.03L7.251,11.03C7.34,10.807 7.469,10.695 7.638,10.695C7.724,10.695 7.798,10.73 7.861,10.801C7.924,10.871 7.968,10.963 7.991,11.077C8.084,10.823 8.222,10.695 8.405,10.695C8.68,10.695 8.817,10.946 8.817,11.446L8.817,12.583Z" style="fill-rule:nonzero;"/>
        <path d="M1.906,16.852L1,16.852L1,14.269L1.205,14.269L1.205,16.578L1.906,16.578L1.906,16.852Z" style="fill-rule:nonzero;"/>
        <path d="M2.668,16.895C2.484,16.895 2.336,16.809 2.227,16.637C2.117,16.465 2.062,16.236 2.062,15.952C2.062,15.642 2.119,15.4 2.233,15.226C2.348,15.052 2.502,14.965 2.697,14.965C2.883,14.965 3.028,15.049 3.132,15.219C3.237,15.388 3.289,15.623 3.289,15.923C3.289,16.217 3.232,16.453 3.12,16.63C3.008,16.807 2.857,16.895 2.668,16.895ZM2.682,15.213C2.554,15.213 2.453,15.278 2.378,15.407C2.303,15.536 2.266,15.714 2.266,15.941C2.266,16.159 2.304,16.332 2.379,16.458C2.455,16.584 2.556,16.647 2.682,16.647C2.811,16.647 2.911,16.585 2.98,16.461C3.049,16.338 3.084,16.162 3.084,15.934C3.084,15.703 3.049,15.525 2.98,15.4C2.911,15.276 2.811,15.213 2.682,15.213Z" style="fill-rule:nonzero;"/>
        <path d="M4.258,15.307C4.223,15.267 4.172,15.247 4.107,15.247C4.022,15.247 3.95,15.307 3.893,15.426C3.836,15.545 3.807,15.707 3.807,15.912L3.807,16.852L3.608,16.852L3.608,15.008L3.807,15.008L3.807,15.388L3.812,15.388C3.841,15.258 3.884,15.157 3.942,15.084C4.001,15.012 4.066,14.975 4.138,14.975C4.19,14.975 4.23,14.984 4.258,15.001L4.258,15.307Z" style="fill-rule:nonzero;"/>
        <path d="M6.244,16.852L6.045,16.852L6.045,15.793C6.045,15.589 6.024,15.441 5.981,15.35C5.938,15.259 5.867,15.213 5.766,15.213C5.681,15.213 5.608,15.271 5.549,15.386C5.489,15.501 5.459,15.639 5.459,15.8L5.459,16.852L5.26,16.852L5.26,15.757C5.26,15.394 5.165,15.213 4.976,15.213C4.888,15.213 4.816,15.267 4.759,15.376C4.702,15.485 4.674,15.626 4.674,15.8L4.674,16.852L4.474,16.852L4.474,15.008L4.674,15.008L4.674,15.3L4.679,15.3C4.767,15.076 4.896,14.965 5.066,14.965C5.151,14.965 5.226,15 5.289,15.07C5.352,15.14 5.396,15.232 5.419,15.346C5.512,15.092 5.65,14.965 5.833,14.965C6.107,14.965 6.244,15.215 6.244,15.716L6.244,16.852Z" style="fill-rule:nonzero;"/>
        <path d="M1.906,21.266L1,21.266L1,18.683L1.205,18.683L1.205,20.992L1.906,20.992L1.906,21.266Z" style="fill-rule:nonzero;"/>
        <path d="M2.668,21.309C2.484,21.309 2.336,21.223 2.227,21.05C2.117,20.878 2.062,20.65 2.062,20.365C2.062,20.055 2.119,19.813 2.233,19.639C2.348,19.465 2.502,19.378 2.697,19.378C2.883,19.378 3.028,19.463 3.132,19.632C3.237,19.801 3.289,20.036 3.289,20.336C3.289,20.63 3.232,20.866 3.12,21.043C3.008,21.22 2.857,21.309 2.668,21.309ZM2.682,19.626C2.554,19.626 2.453,19.691 2.378,19.82C2.303,19.949 2.266,20.127 2.266,20.354C2.266,20.573 2.304,20.745 2.379,20.871C2.455,20.997 2.556,21.06 2.682,21.06C2.811,21.06 2.911,20.998 2.98,20.875C3.049,20.751 3.084,20.575 3.084,20.347C3.084,20.116 3.049,19.939 2.98,19.814C2.911,19.689 2.811,19.626 2.682,19.626Z" style="fill-rule:nonzero;"/>
        <rect x="3.581" y="20.122" width="0.665" height="0.232" style="fill-rule:nonzero;"/>
        <path d="M5.255,19.72C5.22,19.68 5.17,19.661 5.104,19.661C5.019,19.661 4.947,19.72 4.89,19.839C4.833,19.958 4.804,20.12 4.804,20.325L4.804,21.266L4.605,21.266L4.605,19.421L4.804,19.421L4.804,19.801L4.809,19.801C4.838,19.671 4.881,19.57 4.939,19.498C4.998,19.425 5.063,19.389 5.135,19.389C5.187,19.389 5.227,19.397 5.255,19.414L5.255,19.72Z" style="fill-rule:nonzero;"/>
        <path d="M6.473,20.417L5.593,20.417C5.596,20.623 5.634,20.781 5.705,20.893C5.777,21.004 5.875,21.06 6,21.06C6.14,21.06 6.269,20.992 6.387,20.855L6.387,21.132C6.277,21.25 6.132,21.309 5.952,21.309C5.776,21.309 5.638,21.225 5.537,21.058C5.437,20.89 5.386,20.654 5.386,20.351C5.386,20.064 5.441,19.83 5.551,19.649C5.661,19.468 5.798,19.378 5.961,19.378C6.124,19.378 6.25,19.456 6.339,19.612C6.429,19.768 6.473,19.985 6.473,20.262L6.473,20.417ZM6.269,20.167C6.268,19.996 6.24,19.864 6.185,19.769C6.131,19.674 6.055,19.626 5.957,19.626C5.863,19.626 5.783,19.676 5.717,19.776C5.652,19.876 5.611,20.006 5.596,20.167L6.269,20.167Z" style="fill-rule:nonzero;"/>
        <path d="M8.545,21.266L8.346,21.266L8.346,20.206C8.346,20.002 8.324,19.855 8.282,19.763C8.239,19.672 8.168,19.626 8.067,19.626C7.982,19.626 7.909,19.684 7.85,19.799C7.79,19.915 7.76,20.053 7.76,20.214L7.76,21.266L7.56,21.266L7.56,20.17C7.56,19.808 7.466,19.626 7.277,19.626C7.189,19.626 7.117,19.681 7.06,19.789C7.003,19.898 6.975,20.04 6.975,20.214L6.975,21.266L6.775,21.266L6.775,19.421L6.975,19.421L6.975,19.713L6.98,19.713C7.068,19.49 7.197,19.378 7.367,19.378C7.452,19.378 7.526,19.413 7.59,19.483C7.653,19.553 7.696,19.646 7.72,19.76C7.812,19.505 7.95,19.378 8.134,19.378C8.408,19.378 8.545,19.628 8.545,20.129L8.545,21.266Z" style="fill-rule:nonzero;"/>
        <path d="M1.906,25.362L1,25.362L1,22.779L1.205,22.779L1.205,25.088L1.906,25.088L1.906,25.362Z" style="fill-rule:nonzero;"/>
        <path d="M2.668,25.405C2.484,25.405 2.336,25.319 2.227,25.147C2.117,24.974 2.062,24.746 2.062,24.461C2.062,24.151 2.119,23.909 2.233,23.735C2.348,23.561 2.502,23.474 2.697,23.474C2.883,23.474 3.028,23.559 3.132,23.728C3.237,23.897 3.289,24.132 3.289,24.432C3.289,24.727 3.232,24.962 3.12,25.139C3.008,25.317 2.857,25.405 2.668,25.405ZM2.682,23.723C2.554,23.723 2.453,23.787 2.378,23.916C2.303,24.045 2.266,24.223 2.266,24.45C2.266,24.669 2.304,24.841 2.379,24.967C2.455,25.093 2.556,25.157 2.682,25.157C2.811,25.157 2.911,25.095 2.98,24.971C3.049,24.847 3.084,24.671 3.084,24.443C3.084,24.213 3.049,24.035 2.98,23.91C2.911,23.785 2.811,23.723 2.682,23.723Z" style="fill-rule:nonzero;"/>
        <path d="M4.186,25.344C4.139,25.382 4.077,25.401 4,25.401C3.781,25.401 3.672,25.221 3.672,24.861L3.672,23.77L3.458,23.77L3.458,23.517L3.672,23.517L3.672,23.067L3.872,22.972L3.872,23.517L4.186,23.517L4.186,23.77L3.872,23.77L3.872,24.809C3.872,24.933 3.886,25.021 3.914,25.074C3.943,25.127 3.99,25.153 4.056,25.153C4.106,25.153 4.149,25.133 4.186,25.092L4.186,25.344Z" style="fill-rule:nonzero;"/>
        <path d="M5.031,25.344C4.984,25.382 4.922,25.401 4.844,25.401C4.626,25.401 4.517,25.221 4.517,24.861L4.517,23.77L4.303,23.77L4.303,23.517L4.517,23.517L4.517,23.067L4.717,22.972L4.717,23.517L5.031,23.517L5.031,23.77L4.717,23.77L4.717,24.809C4.717,24.933 4.731,25.021 4.759,25.074C4.788,25.127 4.835,25.153 4.9,25.153C4.951,25.153 4.994,25.133 5.031,25.092L5.031,25.344Z" style="fill-rule:nonzero;"/>
        <path d="M6.299,24.513L5.419,24.513C5.422,24.719 5.46,24.877 5.531,24.989C5.603,25.101 5.701,25.157 5.826,25.157C5.966,25.157 6.095,25.088 6.213,24.951L6.213,25.229C6.103,25.346 5.958,25.405 5.778,25.405C5.602,25.405 5.464,25.321 5.363,25.154C5.262,24.986 5.212,24.751 5.212,24.447C5.212,24.16 5.267,23.926 5.377,23.745C5.487,23.565 5.624,23.474 5.787,23.474C5.95,23.474 6.076,23.552 6.165,23.708C6.255,23.864 6.299,24.081 6.299,24.359L6.299,24.513ZM6.095,24.263C6.094,24.093 6.066,23.96 6.011,23.865C5.957,23.77 5.88,23.723 5.783,23.723C5.689,23.723 5.609,23.773 5.543,23.872C5.478,23.972 5.437,24.102 5.422,24.263L6.095,24.263Z" style="fill-rule:nonzero;"/>
        <path d="M8.371,25.362L8.172,25.362L8.172,24.303C8.172,24.099 8.15,23.951 8.108,23.86C8.065,23.768 7.993,23.723 7.893,23.723C7.808,23.723 7.735,23.78 7.676,23.896C7.616,24.011 7.586,24.149 7.586,24.31L7.586,25.362L7.386,25.362L7.386,24.267C7.386,23.904 7.292,23.723 7.103,23.723C7.015,23.723 6.943,23.777 6.886,23.886C6.829,23.994 6.801,24.136 6.801,24.31L6.801,25.362L6.601,25.362L6.601,23.517L6.801,23.517L6.801,23.809L6.806,23.809C6.894,23.586 7.023,23.474 7.193,23.474C7.278,23.474 7.352,23.509 7.416,23.58C7.479,23.65 7.522,23.742 7.546,23.856C7.638,23.601 7.776,23.474 7.96,23.474C8.234,23.474 8.371,23.725 8.371,24.225L8.371,25.362Z" style="fill-rule:nonzero;"/>
        <path d="M1.857,29.583L0.952,29.583L0.952,27L1.156,27L1.156,29.309L1.857,29.309L1.857,29.583Z" style="fill-rule:nonzero;"/>
        <path d="M2.62,29.626C2.435,29.626 2.288,29.54 2.178,29.368C2.068,29.195 2.013,28.967 2.013,28.682C2.013,28.373 2.07,28.131 2.185,27.956C2.299,27.782 2.454,27.695 2.649,27.695C2.835,27.695 2.98,27.78 3.084,27.949C3.188,28.119 3.24,28.353 3.24,28.654C3.24,28.948 3.184,29.183 3.072,29.361C2.959,29.538 2.809,29.626 2.62,29.626ZM2.634,27.944C2.506,27.944 2.404,28.008 2.33,28.137C2.255,28.267 2.218,28.445 2.218,28.672C2.218,28.89 2.256,29.062 2.331,29.188C2.406,29.315 2.508,29.378 2.634,29.378C2.763,29.378 2.862,29.316 2.932,29.192C3.001,29.068 3.036,28.892 3.036,28.664C3.036,28.434 3.001,28.256 2.932,28.131C2.862,28.006 2.763,27.944 2.634,27.944Z" style="fill-rule:nonzero;"/>
        <path d="M4.209,28.038C4.175,27.998 4.124,27.978 4.058,27.978C3.973,27.978 3.902,28.038 3.845,28.156C3.788,28.275 3.759,28.437 3.759,28.643L3.759,29.583L3.559,29.583L3.559,27.739L3.759,27.739L3.759,28.119L3.764,28.119C3.792,27.989 3.836,27.888 3.894,27.815C3.953,27.742 4.018,27.706 4.09,27.706C4.142,27.706 4.182,27.714 4.209,27.731L4.209,28.038Z" style="fill-rule:nonzero;"/>
        <path d="M5.434,29.583L5.234,29.583L5.234,29.291L5.23,29.291C5.147,29.515 5.019,29.626 4.845,29.626C4.548,29.626 4.399,29.364 4.399,28.841L4.399,27.739L4.598,27.739L4.598,28.794C4.598,29.183 4.698,29.378 4.9,29.378C4.997,29.378 5.077,29.324 5.14,29.218C5.203,29.112 5.234,28.973 5.234,28.801L5.234,27.739L5.434,27.739L5.434,29.583Z" style="fill-rule:nonzero;"/>
        <path d="M5.939,27.27C5.904,27.27 5.873,27.252 5.848,27.216C5.823,27.18 5.81,27.134 5.81,27.079C5.81,27.024 5.823,26.978 5.848,26.941C5.873,26.905 5.904,26.887 5.939,26.887C5.976,26.887 6.007,26.905 6.032,26.941C6.058,26.978 6.071,27.024 6.071,27.079C6.071,27.132 6.058,27.177 6.032,27.214C6.007,27.252 5.976,27.27 5.939,27.27ZM6.037,29.583L5.837,29.583L5.837,27.739L6.037,27.739L6.037,29.583Z" style="fill-rule:nonzero;"/>
        <path d="M8.211,29.583L8.011,29.583L8.011,28.524C8.011,28.32 7.99,28.172 7.947,28.081C7.905,27.989 7.833,27.944 7.733,27.944C7.647,27.944 7.575,28.001 7.515,28.117C7.456,28.232 7.426,28.37 7.426,28.531L7.426,29.583L7.226,29.583L7.226,28.488C7.226,28.125 7.132,27.944 6.942,27.944C6.855,27.944 6.783,27.998 6.726,28.107C6.669,28.216 6.641,28.357 6.641,28.531L6.641,29.583L6.441,29.583L6.441,27.739L6.641,27.739L6.641,28.03L6.645,28.03C6.734,27.807 6.863,27.695 7.033,27.695C7.118,27.695 7.192,27.73 7.255,27.801C7.319,27.871 7.362,27.963 7.386,28.077C7.478,27.823 7.616,27.695 7.799,27.695C8.074,27.695 8.211,27.946 8.211,28.446L8.211,29.583Z" style="fill-rule:nonzero;"/>
        <path d="M11.9,8.411L11.034,8.411L11.034,6L11.23,6L11.23,8.155L11.9,8.155L11.9,8.411Z" style="fill-rule:nonzero;"/>
        <path d="M12.628,8.451C12.452,8.451 12.311,8.371 12.206,8.21C12.101,8.049 12.049,7.836 12.049,7.57C12.049,7.281 12.103,7.055 12.213,6.893C12.322,6.73 12.47,6.649 12.656,6.649C12.834,6.649 12.972,6.728 13.072,6.886C13.172,7.044 13.221,7.263 13.221,7.543C13.221,7.818 13.168,8.038 13.06,8.203C12.953,8.369 12.809,8.451 12.628,8.451ZM12.642,6.881C12.52,6.881 12.423,6.941 12.351,7.062C12.28,7.182 12.244,7.348 12.244,7.56C12.244,7.764 12.28,7.925 12.352,8.043C12.425,8.16 12.521,8.219 12.642,8.219C12.765,8.219 12.86,8.162 12.927,8.046C12.993,7.931 13.026,7.766 13.026,7.554C13.026,7.338 12.993,7.172 12.927,7.056C12.86,6.939 12.765,6.881 12.642,6.881Z" style="fill-rule:nonzero;"/>
        <path d="M14.148,6.968C14.114,6.931 14.066,6.913 14.003,6.913C13.922,6.913 13.854,6.968 13.799,7.079C13.744,7.19 13.717,7.342 13.717,7.533L13.717,8.411L13.526,8.411L13.526,6.689L13.717,6.689L13.717,7.044L13.722,7.044C13.749,6.923 13.79,6.829 13.846,6.761C13.902,6.693 13.964,6.659 14.033,6.659C14.083,6.659 14.121,6.667 14.148,6.683L14.148,6.968Z" style="fill-rule:nonzero;"/>
        <path d="M15.312,7.619L14.471,7.619C14.474,7.811 14.51,7.959 14.578,8.063C14.646,8.167 14.74,8.219 14.86,8.219C14.994,8.219 15.117,8.155 15.229,8.028L15.229,8.287C15.125,8.396 14.986,8.451 14.814,8.451C14.646,8.451 14.514,8.373 14.417,8.217C14.321,8.06 14.273,7.84 14.273,7.557C14.273,7.289 14.326,7.071 14.431,6.902C14.536,6.733 14.666,6.649 14.822,6.649C14.978,6.649 15.099,6.722 15.184,6.868C15.269,7.013 15.312,7.216 15.312,7.474L15.312,7.619ZM15.117,7.385C15.116,7.226 15.089,7.102 15.037,7.014C14.985,6.925 14.912,6.881 14.819,6.881C14.729,6.881 14.652,6.928 14.59,7.021C14.527,7.114 14.488,7.235 14.473,7.385L15.117,7.385Z" style="fill-rule:nonzero;"/>
        <path d="M17.292,8.411L17.101,8.411L17.101,7.422C17.101,7.232 17.081,7.094 17.04,7.009C17,6.924 16.931,6.881 16.835,6.881C16.754,6.881 16.684,6.935 16.627,7.042C16.57,7.15 16.542,7.279 16.542,7.429L16.542,8.411L16.351,8.411L16.351,7.389C16.351,7.05 16.261,6.881 16.08,6.881C15.996,6.881 15.927,6.932 15.873,7.033C15.819,7.135 15.791,7.267 15.791,7.429L15.791,8.411L15.601,8.411L15.601,6.689L15.791,6.689L15.791,6.962L15.796,6.962C15.881,6.753 16.004,6.649 16.166,6.649C16.247,6.649 16.318,6.682 16.379,6.747C16.439,6.813 16.481,6.899 16.503,7.005C16.592,6.768 16.724,6.649 16.899,6.649C17.161,6.649 17.292,6.883 17.292,7.35L17.292,8.411Z" style="fill-rule:nonzero;"/>
        <rect x="18.331" y="6" width="0.195" height="2.411" style="fill-rule:nonzero;"/>
        <path d="M19.792,8.411L19.602,8.411L19.602,8.142L19.597,8.142C19.514,8.348 19.392,8.451 19.23,8.451C19.112,8.451 19.019,8.406 18.952,8.315C18.885,8.224 18.851,8.104 18.851,7.954C18.851,7.632 18.982,7.445 19.244,7.392L19.602,7.32C19.602,7.027 19.52,6.881 19.356,6.881C19.213,6.881 19.083,6.952 18.967,7.093L18.967,6.81C19.085,6.703 19.22,6.649 19.372,6.649C19.652,6.649 19.792,6.863 19.792,7.291L19.792,8.411ZM19.602,7.54L19.314,7.597C19.226,7.615 19.159,7.647 19.114,7.692C19.069,7.738 19.047,7.818 19.047,7.933C19.047,8.018 19.067,8.086 19.109,8.139C19.15,8.193 19.206,8.219 19.275,8.219C19.369,8.219 19.447,8.171 19.509,8.076C19.571,7.98 19.602,7.858 19.602,7.712L19.602,7.54Z" style="fill-rule:nonzero;"/>
        <path d="M20.08,8.349L20.08,8.053C20.184,8.164 20.298,8.219 20.423,8.219C20.59,8.219 20.674,8.139 20.674,7.977C20.674,7.931 20.667,7.892 20.653,7.86C20.638,7.828 20.619,7.8 20.595,7.775C20.57,7.751 20.541,7.729 20.508,7.709C20.475,7.689 20.44,7.669 20.402,7.648C20.349,7.617 20.303,7.587 20.263,7.556C20.223,7.525 20.19,7.49 20.163,7.452C20.136,7.413 20.116,7.369 20.102,7.32C20.089,7.27 20.082,7.213 20.082,7.147C20.082,7.066 20.095,6.994 20.12,6.932C20.146,6.87 20.18,6.818 20.223,6.776C20.265,6.734 20.314,6.702 20.369,6.681C20.423,6.66 20.48,6.649 20.538,6.649C20.641,6.649 20.734,6.675 20.815,6.726L20.815,7.005C20.727,6.922 20.627,6.881 20.512,6.881C20.477,6.881 20.445,6.887 20.416,6.899C20.387,6.91 20.363,6.927 20.342,6.948C20.321,6.97 20.306,6.995 20.294,7.025C20.283,7.054 20.277,7.087 20.277,7.123C20.277,7.168 20.283,7.205 20.294,7.236C20.306,7.266 20.322,7.293 20.344,7.316C20.366,7.34 20.392,7.361 20.423,7.38C20.454,7.399 20.489,7.42 20.529,7.443C20.582,7.472 20.629,7.502 20.671,7.532C20.713,7.563 20.748,7.598 20.778,7.637C20.807,7.675 20.83,7.72 20.846,7.77C20.862,7.821 20.87,7.881 20.87,7.95C20.87,8.035 20.857,8.109 20.831,8.172C20.805,8.235 20.77,8.287 20.727,8.329C20.683,8.37 20.633,8.401 20.576,8.421C20.52,8.441 20.461,8.451 20.398,8.451C20.276,8.451 20.17,8.417 20.08,8.349Z" style="fill-rule:nonzero;"/>
        <path d="M22.126,8.411L21.935,8.411L21.935,8.139L21.931,8.139C21.852,8.347 21.729,8.451 21.563,8.451C21.279,8.451 21.137,8.207 21.137,7.718L21.137,6.689L21.327,6.689L21.327,7.675C21.327,8.038 21.423,8.219 21.615,8.219C21.708,8.219 21.785,8.17 21.845,8.07C21.905,7.971 21.935,7.842 21.935,7.681L21.935,6.689L22.126,6.689L22.126,8.411Z" style="fill-rule:nonzero;"/>
        <path d="M24.203,8.411L24.012,8.411L24.012,7.422C24.012,7.232 23.992,7.094 23.951,7.009C23.91,6.924 23.842,6.881 23.746,6.881C23.664,6.881 23.595,6.935 23.538,7.042C23.481,7.15 23.452,7.279 23.452,7.429L23.452,8.411L23.262,8.411L23.262,7.389C23.262,7.05 23.171,6.881 22.991,6.881C22.907,6.881 22.838,6.932 22.783,7.033C22.729,7.135 22.702,7.267 22.702,7.429L22.702,8.411L22.511,8.411L22.511,6.689L22.702,6.689L22.702,6.962L22.707,6.962C22.791,6.753 22.915,6.649 23.077,6.649C23.158,6.649 23.229,6.682 23.29,6.747C23.35,6.813 23.392,6.899 23.414,7.005C23.502,6.768 23.634,6.649 23.81,6.649C24.072,6.649 24.203,6.883 24.203,7.35L24.203,8.411Z" style="fill-rule:nonzero;"/>
        <path d="M25.5,6.689L25.025,8.411L24.838,8.411L24.387,6.689L24.596,6.689L24.899,7.94C24.921,8.032 24.935,8.112 24.94,8.181L24.945,8.181C24.953,8.094 24.965,8.016 24.982,7.947L25.299,6.689L25.5,6.689Z" style="fill-rule:nonzero;"/>
        <path d="M12.109,12.5L11.034,12.5L11.034,10.089L11.277,10.089L11.277,12.244L12.109,12.244L12.109,12.5Z" style="fill-rule:nonzero;"/>
        <path d="M13.014,12.54C12.795,12.54 12.62,12.46 12.49,12.299C12.359,12.138 12.294,11.925 12.294,11.659C12.294,11.37 12.362,11.144 12.498,10.982C12.634,10.819 12.817,10.738 13.048,10.738C13.269,10.738 13.441,10.817 13.565,10.975C13.689,11.133 13.751,11.352 13.751,11.632C13.751,11.907 13.684,12.127 13.551,12.292C13.417,12.458 13.238,12.54 13.014,12.54ZM13.031,10.97C12.879,10.97 12.758,11.03 12.67,11.151C12.581,11.271 12.537,11.437 12.537,11.649C12.537,11.853 12.582,12.014 12.671,12.132C12.761,12.249 12.881,12.308 13.031,12.308C13.184,12.308 13.302,12.251 13.384,12.135C13.467,12.02 13.508,11.856 13.508,11.643C13.508,11.427 13.467,11.261 13.384,11.145C13.302,11.028 13.184,10.97 13.031,10.97Z" style="fill-rule:nonzero;"/>
        <path d="M14.901,11.057C14.859,11.02 14.8,11.002 14.722,11.002C14.62,11.002 14.536,11.057 14.468,11.168C14.4,11.279 14.366,11.431 14.366,11.622L14.366,12.5L14.129,12.5L14.129,10.778L14.366,10.778L14.366,11.133L14.372,11.133C14.406,11.012 14.457,10.918 14.527,10.85C14.596,10.782 14.673,10.748 14.759,10.748C14.821,10.748 14.868,10.756 14.901,10.772L14.901,11.057Z" style="fill-rule:nonzero;"/>
        <path d="M16.347,11.708L15.302,11.708C15.306,11.9 15.351,12.048 15.435,12.152C15.52,12.256 15.637,12.308 15.785,12.308C15.952,12.308 16.105,12.244 16.245,12.117L16.245,12.376C16.114,12.485 15.943,12.54 15.729,12.54C15.52,12.54 15.355,12.462 15.236,12.306C15.117,12.149 15.057,11.929 15.057,11.646C15.057,11.378 15.122,11.16 15.253,10.991C15.383,10.822 15.545,10.738 15.739,10.738C15.932,10.738 16.082,10.811 16.188,10.957C16.294,11.102 16.347,11.305 16.347,11.564L16.347,11.708ZM16.104,11.474C16.103,11.315 16.07,11.191 16.005,11.103C15.94,11.014 15.85,10.97 15.734,10.97C15.623,10.97 15.528,11.017 15.45,11.11C15.372,11.203 15.324,11.324 15.305,11.474L16.104,11.474Z" style="fill-rule:nonzero;"/>
        <path d="M18.806,12.5L18.569,12.5L18.569,11.511C18.569,11.321 18.544,11.183 18.493,11.098C18.443,11.013 18.358,10.97 18.238,10.97C18.137,10.97 18.051,11.024 17.981,11.131C17.91,11.239 17.874,11.368 17.874,11.518L17.874,12.5L17.637,12.5L17.637,11.478C17.637,11.139 17.525,10.97 17.301,10.97C17.197,10.97 17.111,11.021 17.044,11.122C16.976,11.224 16.942,11.356 16.942,11.518L16.942,12.5L16.705,12.5L16.705,10.778L16.942,10.778L16.942,11.051L16.948,11.051C17.053,10.842 17.206,10.738 17.408,10.738C17.509,10.738 17.597,10.771 17.672,10.836C17.747,10.902 17.799,10.988 17.827,11.094C17.936,10.857 18.1,10.738 18.318,10.738C18.644,10.738 18.806,10.972 18.806,11.439L18.806,12.5Z" style="fill-rule:nonzero;"/>
        <rect x="20.097" y="10.089" width="0.243" height="2.411" style="fill-rule:nonzero;"/>
        <path d="M21.911,12.5L21.674,12.5L21.674,12.231L21.669,12.231C21.566,12.437 21.414,12.54 21.213,12.54C21.066,12.54 20.951,12.495 20.867,12.404C20.784,12.313 20.742,12.193 20.742,12.043C20.742,11.721 20.905,11.534 21.231,11.481L21.674,11.409C21.674,11.116 21.573,10.97 21.37,10.97C21.191,10.97 21.03,11.041 20.887,11.182L20.887,10.899C21.032,10.792 21.2,10.738 21.39,10.738C21.738,10.738 21.911,10.952 21.911,11.38L21.911,12.5ZM21.674,11.629L21.318,11.686C21.208,11.704 21.125,11.736 21.069,11.781C21.013,11.827 20.985,11.907 20.985,12.023C20.985,12.107 21.011,12.175 21.062,12.228C21.114,12.282 21.183,12.308 21.268,12.308C21.386,12.308 21.483,12.26 21.56,12.165C21.636,12.069 21.674,11.947 21.674,11.801L21.674,11.629Z" style="fill-rule:nonzero;"/>
        <path d="M22.268,12.438L22.268,12.142C22.397,12.253 22.539,12.308 22.695,12.308C22.903,12.308 23.007,12.228 23.007,12.066C23.007,12.02 22.998,11.981 22.98,11.949C22.962,11.917 22.938,11.889 22.908,11.864C22.877,11.84 22.842,11.818 22.801,11.798C22.76,11.778 22.716,11.758 22.668,11.737C22.603,11.706 22.545,11.676 22.496,11.645C22.446,11.614 22.405,11.579 22.372,11.541C22.338,11.502 22.313,11.458 22.296,11.409C22.28,11.36 22.271,11.302 22.271,11.236C22.271,11.155 22.287,11.084 22.319,11.021C22.351,10.959 22.393,10.907 22.446,10.865C22.499,10.823 22.559,10.791 22.627,10.77C22.695,10.749 22.765,10.738 22.838,10.738C22.966,10.738 23.08,10.764 23.181,10.815L23.181,11.094C23.073,11.012 22.947,10.97 22.806,10.97C22.761,10.97 22.721,10.976 22.686,10.988C22.65,10.999 22.62,11.016 22.594,11.037C22.569,11.059 22.549,11.084 22.535,11.114C22.521,11.143 22.514,11.176 22.514,11.212C22.514,11.257 22.521,11.295 22.535,11.325C22.549,11.355 22.569,11.382 22.596,11.405C22.623,11.429 22.656,11.45 22.695,11.469C22.733,11.488 22.777,11.509 22.826,11.532C22.891,11.561 22.95,11.591 23.002,11.622C23.054,11.652 23.099,11.687 23.135,11.726C23.172,11.764 23.2,11.809 23.22,11.859C23.239,11.91 23.249,11.97 23.249,12.039C23.249,12.125 23.233,12.198 23.201,12.261C23.169,12.324 23.126,12.376 23.072,12.418C23.018,12.459 22.956,12.49 22.885,12.51C22.815,12.53 22.741,12.54 22.664,12.54C22.512,12.54 22.38,12.506 22.268,12.438Z" style="fill-rule:nonzero;"/>
        <path d="M24.81,12.5L24.573,12.5L24.573,12.228L24.567,12.228C24.469,12.436 24.317,12.54 24.11,12.54C23.758,12.54 23.582,12.296 23.582,11.807L23.582,10.778L23.817,10.778L23.817,11.764C23.817,12.127 23.937,12.308 24.176,12.308C24.291,12.308 24.386,12.259 24.461,12.16C24.536,12.06 24.573,11.931 24.573,11.77L24.573,10.778L24.81,10.778L24.81,12.5Z" style="fill-rule:nonzero;"/>
        <path d="M27.389,12.5L27.152,12.5L27.152,11.511C27.152,11.321 27.127,11.183 27.076,11.098C27.026,11.013 26.941,10.97 26.821,10.97C26.72,10.97 26.634,11.024 26.563,11.131C26.492,11.239 26.457,11.368 26.457,11.518L26.457,12.5L26.22,12.5L26.22,11.478C26.22,11.139 26.108,10.97 25.883,10.97C25.779,10.97 25.694,11.021 25.626,11.122C25.559,11.224 25.525,11.356 25.525,11.518L25.525,12.5L25.288,12.5L25.288,10.778L25.525,10.778L25.525,11.051L25.531,11.051C25.636,10.842 25.789,10.738 25.99,10.738C26.091,10.738 26.18,10.771 26.255,10.836C26.33,10.902 26.381,10.988 26.409,11.094C26.519,10.857 26.683,10.738 26.901,10.738C27.226,10.738 27.389,10.972 27.389,11.439L27.389,12.5Z" style="fill-rule:nonzero;"/>
        <path d="M29,10.778L28.41,12.5L28.178,12.5L27.617,10.778L27.877,10.778L28.253,12.029C28.281,12.121 28.298,12.201 28.305,12.27L28.311,12.27C28.32,12.183 28.336,12.105 28.357,12.036L28.75,10.778L29,10.778Z" style="fill-rule:nonzero;"/>
        <path d="M11.67,16.852L11.034,16.852L11.034,14.441L11.178,14.441L11.178,16.597L11.67,16.597L11.67,16.852Z" style="fill-rule:nonzero;"/>
        <path d="M12.205,16.893C12.076,16.893 11.972,16.812 11.895,16.651C11.818,16.49 11.779,16.277 11.779,16.012C11.779,15.722 11.819,15.497 11.9,15.334C11.98,15.172 12.089,15.09 12.225,15.09C12.356,15.09 12.458,15.169 12.531,15.327C12.604,15.485 12.641,15.704 12.641,15.985C12.641,16.259 12.601,16.479 12.522,16.645C12.443,16.81 12.338,16.893 12.205,16.893ZM12.215,15.322C12.125,15.322 12.054,15.383 12.001,15.503C11.949,15.623 11.923,15.79 11.923,16.002C11.923,16.205 11.949,16.366 12.002,16.484C12.055,16.602 12.126,16.661 12.215,16.661C12.306,16.661 12.375,16.603 12.424,16.487C12.473,16.372 12.497,16.208 12.497,15.995C12.497,15.78 12.473,15.614 12.424,15.497C12.375,15.381 12.306,15.322 12.215,15.322Z" style="fill-rule:nonzero;"/>
        <path d="M13.321,15.41C13.296,15.373 13.261,15.354 13.215,15.354C13.155,15.354 13.105,15.41 13.065,15.521C13.025,15.632 13.005,15.783 13.005,15.975L13.005,16.852L12.865,16.852L12.865,15.131L13.005,15.131L13.005,15.485L13.008,15.485C13.028,15.364 13.058,15.27 13.099,15.202C13.14,15.134 13.186,15.1 13.237,15.1C13.274,15.1 13.301,15.108 13.321,15.124L13.321,15.41Z" style="fill-rule:nonzero;"/>
        <path d="M14.176,16.06L13.558,16.06C13.561,16.252 13.587,16.4 13.637,16.504C13.687,16.608 13.756,16.661 13.844,16.661C13.942,16.661 14.033,16.597 14.115,16.469L14.115,16.728C14.039,16.838 13.937,16.893 13.81,16.893C13.687,16.893 13.59,16.814 13.519,16.658C13.448,16.502 13.413,16.282 13.413,15.998C13.413,15.73 13.452,15.512 13.529,15.343C13.606,15.175 13.702,15.09 13.816,15.09C13.931,15.09 14.019,15.163 14.082,15.309C14.145,15.455 14.176,15.657 14.176,15.916L14.176,16.06ZM14.033,15.827C14.032,15.667 14.012,15.544 13.974,15.455C13.936,15.367 13.882,15.322 13.814,15.322C13.748,15.322 13.692,15.369 13.645,15.462C13.599,15.555 13.571,15.676 13.56,15.827L14.033,15.827Z" style="fill-rule:nonzero;"/>
        <path d="M15.63,16.852L15.49,16.852L15.49,15.864C15.49,15.673 15.475,15.535 15.445,15.45C15.416,15.365 15.365,15.322 15.295,15.322C15.235,15.322 15.184,15.376 15.142,15.484C15.1,15.591 15.079,15.72 15.079,15.87L15.079,16.852L14.939,16.852L14.939,15.83C14.939,15.492 14.873,15.322 14.74,15.322C14.679,15.322 14.628,15.373 14.588,15.474C14.548,15.576 14.528,15.708 14.528,15.87L14.528,16.852L14.388,16.852L14.388,15.131L14.528,15.131L14.528,15.403L14.532,15.403C14.594,15.194 14.684,15.09 14.803,15.09C14.863,15.09 14.915,15.123 14.96,15.189C15.004,15.254 15.035,15.34 15.051,15.447C15.116,15.209 15.213,15.09 15.342,15.09C15.534,15.09 15.63,15.324 15.63,15.791L15.63,16.852Z" style="fill-rule:nonzero;"/>
        <rect x="16.393" y="14.441" width="0.144" height="2.411" style="fill-rule:nonzero;"/>
        <path d="M17.467,16.852L17.327,16.852L17.327,16.583L17.323,16.583C17.262,16.789 17.172,16.893 17.054,16.893C16.967,16.893 16.899,16.847 16.849,16.756C16.8,16.666 16.775,16.545 16.775,16.395C16.775,16.073 16.872,15.886 17.064,15.833L17.327,15.761C17.327,15.469 17.266,15.322 17.146,15.322C17.041,15.322 16.946,15.393 16.861,15.534L16.861,15.252C16.947,15.144 17.046,15.09 17.158,15.09C17.364,15.09 17.467,15.304 17.467,15.732L17.467,16.852ZM17.327,15.981L17.115,16.038C17.051,16.056 17.002,16.088 16.968,16.133C16.935,16.179 16.919,16.259 16.919,16.375C16.919,16.459 16.934,16.527 16.965,16.581C16.995,16.634 17.036,16.661 17.086,16.661C17.156,16.661 17.213,16.613 17.259,16.517C17.304,16.421 17.327,16.3 17.327,16.153L17.327,15.981Z" style="fill-rule:nonzero;"/>
        <path d="M17.678,16.79L17.678,16.494C17.754,16.605 17.838,16.661 17.93,16.661C18.053,16.661 18.114,16.58 18.114,16.418C18.114,16.373 18.109,16.334 18.099,16.302C18.088,16.27 18.074,16.241 18.056,16.217C18.038,16.192 18.017,16.17 17.993,16.15C17.968,16.131 17.942,16.11 17.914,16.089C17.876,16.059 17.842,16.028 17.812,15.997C17.783,15.966 17.758,15.932 17.739,15.893C17.719,15.854 17.704,15.81 17.694,15.761C17.684,15.712 17.679,15.654 17.679,15.588C17.679,15.507 17.689,15.436 17.708,15.374C17.726,15.311 17.751,15.259 17.783,15.217C17.814,15.175 17.85,15.143 17.89,15.122C17.93,15.101 17.972,15.09 18.014,15.09C18.09,15.09 18.158,15.116 18.218,15.168L18.218,15.447C18.153,15.364 18.079,15.322 17.996,15.322C17.969,15.322 17.946,15.328 17.925,15.34C17.904,15.352 17.885,15.368 17.87,15.39C17.855,15.411 17.844,15.436 17.835,15.466C17.827,15.496 17.823,15.529 17.823,15.564C17.823,15.609 17.827,15.647 17.835,15.677C17.844,15.707 17.856,15.734 17.872,15.758C17.888,15.781 17.907,15.803 17.93,15.822C17.953,15.841 17.978,15.861 18.008,15.884C18.046,15.913 18.081,15.943 18.112,15.974C18.143,16.005 18.169,16.039 18.19,16.078C18.212,16.117 18.229,16.161 18.24,16.212C18.252,16.262 18.258,16.322 18.258,16.392C18.258,16.477 18.248,16.551 18.229,16.613C18.21,16.676 18.185,16.728 18.153,16.77C18.121,16.811 18.084,16.842 18.043,16.862C18.001,16.882 17.957,16.893 17.912,16.893C17.822,16.893 17.744,16.858 17.678,16.79Z" style="fill-rule:nonzero;"/>
        <path d="M19.181,16.852L19.041,16.852L19.041,16.58L19.037,16.58C18.979,16.788 18.889,16.893 18.767,16.893C18.559,16.893 18.454,16.648 18.454,16.16L18.454,15.131L18.594,15.131L18.594,16.116C18.594,16.479 18.664,16.661 18.806,16.661C18.874,16.661 18.93,16.611 18.974,16.512C19.018,16.413 19.041,16.283 19.041,16.123L19.041,15.131L19.181,15.131L19.181,16.852Z" style="fill-rule:nonzero;"/>
        <path d="M20.706,16.852L20.566,16.852L20.566,15.864C20.566,15.673 20.551,15.535 20.521,15.45C20.491,15.365 20.441,15.322 20.37,15.322C20.31,15.322 20.259,15.376 20.218,15.484C20.176,15.591 20.155,15.72 20.155,15.87L20.155,16.852L20.015,16.852L20.015,15.83C20.015,15.492 19.948,15.322 19.816,15.322C19.754,15.322 19.703,15.373 19.663,15.474C19.624,15.576 19.604,15.708 19.604,15.87L19.604,16.852L19.464,16.852L19.464,15.131L19.604,15.131L19.604,15.403L19.607,15.403C19.669,15.194 19.76,15.09 19.879,15.09C19.939,15.09 19.991,15.123 20.035,15.189C20.08,15.254 20.11,15.34 20.127,15.447C20.192,15.209 20.288,15.09 20.417,15.09C20.61,15.09 20.706,15.324 20.706,15.791L20.706,16.852Z" style="fill-rule:nonzero;"/>
        <path d="M21.659,15.131L21.31,16.852L21.172,16.852L20.841,15.131L20.995,15.131L21.217,16.381C21.233,16.473 21.244,16.554 21.248,16.622L21.251,16.622C21.257,16.536 21.266,16.458 21.278,16.388L21.511,15.131L21.659,15.131Z" style="fill-rule:nonzero;"/>
        <path d="M11.9,21L11.034,21L11.034,18.589L11.23,18.589L11.23,20.744L11.9,20.744L11.9,21Z" style="fill-rule:nonzero;"/>
        <path d="M12.628,21.04C12.452,21.04 12.311,20.96 12.206,20.799C12.101,20.638 12.049,20.425 12.049,20.159C12.049,19.87 12.103,19.644 12.213,19.482C12.322,19.319 12.47,19.238 12.656,19.238C12.834,19.238 12.972,19.317 13.072,19.475C13.172,19.633 13.221,19.852 13.221,20.132C13.221,20.407 13.168,20.627 13.06,20.792C12.953,20.958 12.809,21.04 12.628,21.04ZM12.642,19.47C12.52,19.47 12.423,19.53 12.351,19.651C12.28,19.771 12.244,19.937 12.244,20.149C12.244,20.353 12.28,20.514 12.352,20.632C12.425,20.749 12.521,20.808 12.642,20.808C12.765,20.808 12.86,20.751 12.927,20.635C12.993,20.52 13.026,20.356 13.026,20.143C13.026,19.927 12.993,19.761 12.927,19.645C12.86,19.528 12.765,19.47 12.642,19.47Z" style="fill-rule:nonzero;"/>
        <path d="M14.148,19.557C14.114,19.52 14.066,19.502 14.003,19.502C13.922,19.502 13.854,19.557 13.799,19.668C13.744,19.779 13.717,19.931 13.717,20.122L13.717,21L13.526,21L13.526,19.278L13.717,19.278L13.717,19.633L13.722,19.633C13.749,19.512 13.79,19.418 13.846,19.35C13.902,19.282 13.964,19.248 14.033,19.248C14.083,19.248 14.121,19.256 14.148,19.272L14.148,19.557Z" style="fill-rule:nonzero;"/>
        <path d="M15.312,20.208L14.471,20.208C14.474,20.4 14.51,20.548 14.578,20.652C14.646,20.756 14.74,20.808 14.86,20.808C14.994,20.808 15.117,20.744 15.229,20.617L15.229,20.876C15.125,20.985 14.986,21.04 14.814,21.04C14.646,21.04 14.514,20.962 14.417,20.806C14.321,20.649 14.273,20.429 14.273,20.146C14.273,19.878 14.326,19.66 14.431,19.491C14.536,19.322 14.666,19.238 14.822,19.238C14.978,19.238 15.099,19.311 15.184,19.457C15.269,19.602 15.312,19.805 15.312,20.064L15.312,20.208ZM15.117,19.974C15.116,19.815 15.089,19.691 15.037,19.603C14.985,19.514 14.912,19.47 14.819,19.47C14.729,19.47 14.652,19.517 14.59,19.61C14.527,19.703 14.488,19.824 14.473,19.974L15.117,19.974Z" style="fill-rule:nonzero;"/>
        <path d="M17.292,21L17.101,21L17.101,20.011C17.101,19.821 17.081,19.683 17.04,19.598C17,19.513 16.931,19.47 16.835,19.47C16.754,19.47 16.684,19.524 16.627,19.631C16.57,19.739 16.542,19.868 16.542,20.018L16.542,21L16.351,21L16.351,19.978C16.351,19.639 16.261,19.47 16.08,19.47C15.996,19.47 15.927,19.521 15.873,19.622C15.819,19.724 15.791,19.856 15.791,20.018L15.791,21L15.601,21L15.601,19.278L15.791,19.278L15.791,19.551L15.796,19.551C15.881,19.342 16.004,19.238 16.166,19.238C16.247,19.238 16.318,19.271 16.379,19.336C16.439,19.402 16.481,19.488 16.503,19.594C16.592,19.357 16.724,19.238 16.899,19.238C17.161,19.238 17.292,19.472 17.292,19.939L17.292,21Z" style="fill-rule:nonzero;"/>
        <path d="M11.9,25.089L11.034,25.089L11.034,22.678L11.23,22.678L11.23,24.833L11.9,24.833L11.9,25.089Z" style="fill-rule:nonzero;"/>
        <path d="M12.628,25.129C12.452,25.129 12.311,25.049 12.206,24.888C12.101,24.727 12.049,24.514 12.049,24.248C12.049,23.959 12.103,23.733 12.213,23.571C12.322,23.408 12.47,23.327 12.656,23.327C12.834,23.327 12.972,23.406 13.072,23.564C13.172,23.722 13.221,23.941 13.221,24.222C13.221,24.496 13.168,24.716 13.06,24.881C12.953,25.047 12.809,25.129 12.628,25.129ZM12.642,23.559C12.52,23.559 12.423,23.619 12.351,23.74C12.28,23.86 12.244,24.026 12.244,24.238C12.244,24.442 12.28,24.603 12.352,24.721C12.425,24.839 12.521,24.897 12.642,24.897C12.765,24.897 12.86,24.84 12.927,24.724C12.993,24.609 13.026,24.445 13.026,24.232C13.026,24.016 12.993,23.85 12.927,23.734C12.86,23.617 12.765,23.559 12.642,23.559Z" style="fill-rule:nonzero;"/>
        <path d="M14.148,23.647C14.114,23.61 14.066,23.591 14.003,23.591C13.922,23.591 13.854,23.647 13.799,23.757C13.744,23.868 13.717,24.02 13.717,24.211L13.717,25.089L13.526,25.089L13.526,23.367L13.717,23.367L13.717,23.722L13.722,23.722C13.749,23.601 13.79,23.507 13.846,23.439C13.902,23.371 13.964,23.337 14.033,23.337C14.083,23.337 14.121,23.345 14.148,23.361L14.148,23.647Z" style="fill-rule:nonzero;"/>
        <path d="M15.312,24.297L14.471,24.297C14.474,24.489 14.51,24.637 14.578,24.741C14.646,24.845 14.74,24.897 14.86,24.897C14.994,24.897 15.117,24.833 15.229,24.706L15.229,24.965C15.125,25.074 14.986,25.129 14.814,25.129C14.646,25.129 14.514,25.051 14.417,24.895C14.321,24.738 14.273,24.519 14.273,24.235C14.273,23.967 14.326,23.749 14.431,23.58C14.536,23.411 14.666,23.327 14.822,23.327C14.978,23.327 15.099,23.4 15.184,23.546C15.269,23.691 15.312,23.894 15.312,24.153L15.312,24.297ZM15.117,24.063C15.116,23.904 15.089,23.78 15.037,23.692C14.985,23.603 14.912,23.559 14.819,23.559C14.729,23.559 14.652,23.606 14.59,23.699C14.527,23.792 14.488,23.913 14.473,24.063L15.117,24.063Z" style="fill-rule:nonzero;"/>
        <path d="M17.292,25.089L17.101,25.089L17.101,24.1C17.101,23.91 17.081,23.772 17.04,23.687C17,23.602 16.931,23.559 16.835,23.559C16.754,23.559 16.684,23.613 16.627,23.72C16.57,23.828 16.542,23.957 16.542,24.107L16.542,25.089L16.351,25.089L16.351,24.067C16.351,23.728 16.261,23.559 16.08,23.559C15.996,23.559 15.927,23.61 15.873,23.711C15.819,23.813 15.791,23.945 15.791,24.107L15.791,25.089L15.601,25.089L15.601,23.367L15.791,23.367L15.791,23.64L15.796,23.64C15.881,23.431 16.004,23.327 16.166,23.327C16.247,23.327 16.318,23.36 16.379,23.425C16.439,23.491 16.481,23.577 16.503,23.683C16.592,23.446 16.724,23.327 16.899,23.327C17.161,23.327 17.292,23.561 17.292,24.028L17.292,25.089Z" style="fill-rule:nonzero;"/>
        <rect x="18.331" y="22.678" width="0.195" height="2.411" style="fill-rule:nonzero;"/>
        <path d="M19.792,25.089L19.602,25.089L19.602,24.82L19.597,24.82C19.514,25.026 19.392,25.129 19.23,25.129C19.112,25.129 19.019,25.084 18.952,24.993C18.885,24.902 18.851,24.782 18.851,24.632C18.851,24.31 18.982,24.123 19.244,24.07L19.602,23.998C19.602,23.705 19.52,23.559 19.356,23.559C19.213,23.559 19.083,23.63 18.967,23.771L18.967,23.488C19.085,23.381 19.22,23.327 19.372,23.327C19.652,23.327 19.792,23.541 19.792,23.969L19.792,25.089ZM19.602,24.218L19.314,24.275C19.226,24.293 19.159,24.325 19.114,24.37C19.069,24.416 19.047,24.496 19.047,24.612C19.047,24.696 19.067,24.764 19.109,24.818C19.15,24.871 19.206,24.897 19.275,24.897C19.369,24.897 19.447,24.849 19.509,24.754C19.571,24.658 19.602,24.536 19.602,24.39L19.602,24.218Z" style="fill-rule:nonzero;"/>
        <path d="M20.08,25.027L20.08,24.731C20.184,24.842 20.298,24.897 20.423,24.897C20.59,24.897 20.674,24.817 20.674,24.655C20.674,24.609 20.667,24.57 20.653,24.538C20.638,24.506 20.619,24.478 20.595,24.454C20.57,24.429 20.541,24.407 20.508,24.387C20.475,24.367 20.44,24.347 20.402,24.326C20.349,24.295 20.303,24.265 20.263,24.234C20.223,24.203 20.19,24.169 20.163,24.13C20.136,24.091 20.116,24.047 20.102,23.998C20.089,23.949 20.082,23.891 20.082,23.825C20.082,23.744 20.095,23.673 20.12,23.61C20.146,23.548 20.18,23.496 20.223,23.454C20.265,23.412 20.314,23.38 20.369,23.359C20.423,23.338 20.48,23.327 20.538,23.327C20.641,23.327 20.734,23.353 20.815,23.404L20.815,23.683C20.727,23.601 20.627,23.559 20.512,23.559C20.477,23.559 20.445,23.565 20.416,23.577C20.387,23.588 20.363,23.605 20.342,23.626C20.321,23.648 20.306,23.673 20.294,23.703C20.283,23.733 20.277,23.765 20.277,23.801C20.277,23.846 20.283,23.884 20.294,23.914C20.306,23.944 20.322,23.971 20.344,23.995C20.366,24.018 20.392,24.039 20.423,24.058C20.454,24.077 20.489,24.098 20.529,24.121C20.582,24.15 20.629,24.18 20.671,24.211C20.713,24.241 20.748,24.276 20.778,24.315C20.807,24.353 20.83,24.398 20.846,24.448C20.862,24.499 20.87,24.559 20.87,24.628C20.87,24.714 20.857,24.788 20.831,24.85C20.805,24.913 20.77,24.965 20.727,25.007C20.683,25.048 20.633,25.079 20.576,25.099C20.52,25.119 20.461,25.129 20.398,25.129C20.276,25.129 20.17,25.095 20.08,25.027Z" style="fill-rule:nonzero;"/>
        <path d="M22.126,25.089L21.935,25.089L21.935,24.817L21.931,24.817C21.852,25.025 21.729,25.129 21.563,25.129C21.279,25.129 21.137,24.885 21.137,24.396L21.137,23.367L21.327,23.367L21.327,24.353C21.327,24.716 21.423,24.897 21.615,24.897C21.708,24.897 21.785,24.848 21.845,24.749C21.905,24.649 21.935,24.52 21.935,24.359L21.935,23.367L22.126,23.367L22.126,25.089Z" style="fill-rule:nonzero;"/>
        <path d="M24.203,25.089L24.012,25.089L24.012,24.1C24.012,23.91 23.992,23.772 23.951,23.687C23.91,23.602 23.842,23.559 23.746,23.559C23.664,23.559 23.595,23.613 23.538,23.72C23.481,23.828 23.452,23.957 23.452,24.107L23.452,25.089L23.262,25.089L23.262,24.067C23.262,23.728 23.171,23.559 22.991,23.559C22.907,23.559 22.838,23.61 22.783,23.711C22.729,23.813 22.702,23.945 22.702,24.107L22.702,25.089L22.511,25.089L22.511,23.367L22.702,23.367L22.702,23.64L22.707,23.64C22.791,23.431 22.915,23.327 23.077,23.327C23.158,23.327 23.229,23.36 23.29,23.425C23.35,23.491 23.392,23.577 23.414,23.683C23.502,23.446 23.634,23.327 23.81,23.327C24.072,23.327 24.203,23.561 24.203,24.028L24.203,25.089Z" style="fill-rule:nonzero;"/>
        <path d="M25.5,23.367L25.025,25.089L24.838,25.089L24.387,23.367L24.596,23.367L24.899,24.618C24.921,24.71 24.935,24.79 24.94,24.859L24.945,24.859C24.953,24.772 24.965,24.695 24.982,24.625L25.299,23.367L25.5,23.367Z" style="fill-rule:nonzero;"/>
        <path d="M27.153,22.678L27.153,24.27L27.367,24.27L27.367,24.522L27.153,24.522L27.153,25.089L26.965,25.089L26.965,24.522L26.181,24.522L26.181,24.284C26.253,24.165 26.327,24.038 26.402,23.903C26.476,23.768 26.547,23.631 26.615,23.492C26.683,23.353 26.746,23.214 26.804,23.076C26.861,22.937 26.91,22.805 26.95,22.678L27.153,22.678ZM26.396,24.27L26.965,24.27L26.965,23.09C26.907,23.237 26.851,23.368 26.8,23.483C26.748,23.599 26.698,23.704 26.651,23.798C26.604,23.892 26.559,23.977 26.517,24.053C26.474,24.13 26.434,24.202 26.396,24.27Z" style="fill-rule:nonzero;"/>
        <path d="M28.438,22.678L28.438,24.27L28.652,24.27L28.652,24.522L28.438,24.522L28.438,25.089L28.249,25.089L28.249,24.522L27.465,24.522L27.465,24.284C27.538,24.165 27.612,24.038 27.686,23.903C27.76,23.768 27.832,23.631 27.9,23.492C27.967,23.353 28.03,23.214 28.088,23.076C28.146,22.937 28.194,22.805 28.234,22.678L28.438,22.678ZM27.68,24.27L28.249,24.27L28.249,23.09C28.191,23.237 28.136,23.368 28.084,23.483C28.032,23.599 27.983,23.704 27.936,23.798C27.889,23.892 27.844,23.977 27.801,24.053C27.759,24.13 27.718,24.202 27.68,24.27Z" style="fill-rule:nonzero;"/>
        <path d="M11.9,29.46L11.034,29.46L11.034,27.049L11.23,27.049L11.23,29.204L11.9,29.204L11.9,29.46Z" style="fill-rule:nonzero;"/>
        <path d="M12.628,29.5C12.452,29.5 12.311,29.42 12.206,29.259C12.101,29.098 12.049,28.885 12.049,28.619C12.049,28.33 12.103,28.104 12.213,27.941C12.322,27.779 12.47,27.698 12.656,27.698C12.834,27.698 12.972,27.777 13.072,27.935C13.172,28.093 13.221,28.312 13.221,28.592C13.221,28.867 13.168,29.087 13.06,29.252C12.953,29.417 12.809,29.5 12.628,29.5ZM12.642,27.93C12.52,27.93 12.423,27.99 12.351,28.11C12.28,28.231 12.244,28.397 12.244,28.609C12.244,28.813 12.28,28.974 12.352,29.091C12.425,29.209 12.521,29.268 12.642,29.268C12.765,29.268 12.86,29.21 12.927,29.095C12.993,28.979 13.026,28.815 13.026,28.602C13.026,28.387 12.993,28.221 12.927,28.105C12.86,27.988 12.765,27.93 12.642,27.93Z" style="fill-rule:nonzero;"/>
        <path d="M14.148,28.017C14.114,27.98 14.066,27.962 14.003,27.962C13.922,27.962 13.854,28.017 13.799,28.128C13.744,28.239 13.717,28.39 13.717,28.582L13.717,29.46L13.526,29.46L13.526,27.738L13.717,27.738L13.717,28.093L13.722,28.093C13.749,27.972 13.79,27.877 13.846,27.809C13.902,27.742 13.964,27.708 14.033,27.708C14.083,27.708 14.121,27.716 14.148,27.731L14.148,28.017Z" style="fill-rule:nonzero;"/>
        <path d="M15.312,28.668L14.471,28.668C14.474,28.859 14.51,29.007 14.578,29.112C14.646,29.216 14.74,29.268 14.86,29.268C14.994,29.268 15.117,29.204 15.229,29.076L15.229,29.335C15.125,29.445 14.986,29.5 14.814,29.5C14.646,29.5 14.514,29.422 14.417,29.265C14.321,29.109 14.273,28.889 14.273,28.606C14.273,28.338 14.326,28.119 14.431,27.951C14.536,27.782 14.666,27.698 14.822,27.698C14.978,27.698 15.099,27.771 15.184,27.916C15.269,28.062 15.312,28.264 15.312,28.523L15.312,28.668ZM15.117,28.434C15.116,28.275 15.089,28.151 15.037,28.063C14.985,27.974 14.912,27.93 14.819,27.93C14.729,27.93 14.652,27.976 14.59,28.069C14.527,28.162 14.488,28.284 14.473,28.434L15.117,28.434Z" style="fill-rule:nonzero;"/>
        <path d="M17.292,29.46L17.101,29.46L17.101,28.471C17.101,28.281 17.081,28.143 17.04,28.057C17,27.972 16.931,27.93 16.835,27.93C16.754,27.93 16.684,27.983 16.627,28.091C16.57,28.199 16.542,28.328 16.542,28.478L16.542,29.46L16.351,29.46L16.351,28.437C16.351,28.099 16.261,27.93 16.08,27.93C15.996,27.93 15.927,27.98 15.873,28.082C15.819,28.183 15.791,28.315 15.791,28.478L15.791,29.46L15.601,29.46L15.601,27.738L15.791,27.738L15.791,28.01L15.796,28.01C15.881,27.802 16.004,27.698 16.166,27.698C16.247,27.698 16.318,27.73 16.379,27.796C16.439,27.862 16.481,27.948 16.503,28.054C16.592,27.816 16.724,27.698 16.899,27.698C17.161,27.698 17.292,27.931 17.292,28.399L17.292,29.46Z" style="fill-rule:nonzero;"/>
        <rect x="18.331" y="27.049" width="0.195" height="2.411" style="fill-rule:nonzero;"/>
        <path d="M19.792,29.46L19.602,29.46L19.602,29.191L19.597,29.191C19.514,29.397 19.392,29.5 19.23,29.5C19.112,29.5 19.019,29.455 18.952,29.364C18.885,29.273 18.851,29.153 18.851,29.002C18.851,28.681 18.982,28.493 19.244,28.441L19.602,28.368C19.602,28.076 19.52,27.93 19.356,27.93C19.213,27.93 19.083,28 18.967,28.142L18.967,27.859C19.085,27.751 19.22,27.698 19.372,27.698C19.652,27.698 19.792,27.912 19.792,28.34L19.792,29.46ZM19.602,28.589L19.314,28.646C19.226,28.664 19.159,28.696 19.114,28.741C19.069,28.786 19.047,28.867 19.047,28.982C19.047,29.066 19.067,29.135 19.109,29.188C19.15,29.241 19.206,29.268 19.275,29.268C19.369,29.268 19.447,29.22 19.509,29.124C19.571,29.028 19.602,28.907 19.602,28.76L19.602,28.589Z" style="fill-rule:nonzero;"/>
        <path d="M20.08,29.397L20.08,29.102C20.184,29.213 20.298,29.268 20.423,29.268C20.59,29.268 20.674,29.187 20.674,29.026C20.674,28.98 20.667,28.941 20.653,28.909C20.638,28.877 20.619,28.849 20.595,28.824C20.57,28.799 20.541,28.777 20.508,28.758C20.475,28.738 20.44,28.718 20.402,28.696C20.349,28.666 20.303,28.636 20.263,28.605C20.223,28.574 20.19,28.539 20.163,28.5C20.136,28.462 20.116,28.418 20.102,28.368C20.089,28.319 20.082,28.261 20.082,28.195C20.082,28.115 20.095,28.043 20.12,27.981C20.146,27.919 20.18,27.867 20.223,27.825C20.265,27.783 20.314,27.751 20.369,27.73C20.423,27.708 20.48,27.698 20.538,27.698C20.641,27.698 20.734,27.723 20.815,27.775L20.815,28.054C20.727,27.971 20.627,27.93 20.512,27.93C20.477,27.93 20.445,27.936 20.416,27.947C20.387,27.959 20.363,27.976 20.342,27.997C20.321,28.018 20.306,28.044 20.294,28.073C20.283,28.103 20.277,28.136 20.277,28.172C20.277,28.217 20.283,28.254 20.294,28.284C20.306,28.315 20.322,28.342 20.344,28.365C20.366,28.389 20.392,28.41 20.423,28.429C20.454,28.448 20.489,28.469 20.529,28.491C20.582,28.52 20.629,28.55 20.671,28.581C20.713,28.612 20.748,28.647 20.778,28.685C20.807,28.724 20.83,28.769 20.846,28.819C20.862,28.87 20.87,28.929 20.87,28.999C20.87,29.084 20.857,29.158 20.831,29.221C20.805,29.284 20.77,29.336 20.727,29.377C20.683,29.419 20.633,29.45 20.576,29.47C20.52,29.49 20.461,29.5 20.398,29.5C20.276,29.5 20.17,29.466 20.08,29.397Z" style="fill-rule:nonzero;"/>
    </g>
</svg>
