<?xml version="1.0" encoding="UTF-8" standalone="no"?>
<!DOCTYPE svg PUBLIC "-//W3C//DTD SVG 1.1//EN" "http://www.w3.org/Graphics/SVG/1.1/DTD/svg11.dtd">
<svg width="30px" height="30px" version="1.1" xmlns="http://www.w3.org/2000/svg" xmlns:xlink="http://www.w3.org/1999/xlink" xml:space="preserve" xmlns:serif="http://www.serif.com/" style="fill-rule:evenodd;clip-rule:evenodd;stroke-linejoin:round;stroke-miterlimit:20;">
    <g id="snake-outline" serif:id="snake outline">
        <g>
            <g>
                <path d="M0.903,7.945L3.513,7.945C4.089,7.945 4.553,8.528 4.553,9.252L4.553,12.533C4.553,13.256 4.089,13.839 3.513,13.839L0.903,13.839C0.328,13.839 -0.136,13.256 -0.136,12.533L-0.136,9.252C-0.136,8.528 0.328,7.945 0.903,7.945Z" style="fill:url(#_Linear1);fill-rule:nonzero;"/>
                <path d="M3.546,10.156C2.408,10.171 2.097,11.826 1.087,11.843C0.65,11.85 0.277,11.473 -0.136,11.027L-0.136,12.549C-0.136,13.263 0.328,13.839 0.904,13.839L3.514,13.839C4.09,13.839 4.553,13.263 4.553,12.549L4.553,10.478C4.271,10.284 3.944,10.15 3.546,10.156Z" style="fill:rgb(255,0,0);fill-opacity:0.25;"/>
                <rect x="0.45" y="8.682" width="0.774" height="4.42" style="fill:url(#_Linear2);"/>
                <path d="M0.907,8.133L3.513,8.133C4.009,8.133 4.404,8.63 4.404,9.252L4.404,12.533C4.404,13.156 4.009,13.652 3.513,13.652L0.903,13.652C0.408,13.652 0.013,13.156 0.013,12.533L0.013,9.251C0.013,8.629 0.411,8.133 0.907,8.133Z" style="fill:none;fill-rule:nonzero;stroke:rgb(128,0,0);stroke-opacity:0.5;stroke-width:0.34px;"/>
            </g>
            <g>
                <path d="M3.951,4.115L6.561,4.115C7.137,4.115 7.601,4.698 7.601,5.421L7.601,8.702C7.601,9.426 7.137,10.009 6.561,10.009L3.951,10.009C3.375,10.009 2.912,9.426 2.912,8.702L2.912,5.421C2.912,4.698 3.375,4.115 3.951,4.115Z" style="fill:url(#_Linear3);fill-rule:nonzero;"/>
                <path d="M6.594,6.325C5.456,6.341 5.145,7.996 4.135,8.012C3.698,8.019 3.325,7.642 2.912,7.196L2.912,8.718C2.912,9.432 3.376,10.009 3.952,10.009L6.562,10.009C7.137,10.009 7.601,9.432 7.601,8.718L7.601,6.648C7.318,6.453 6.992,6.32 6.594,6.325Z" style="fill:rgb(0,0,255);fill-opacity:0.25;"/>
                <rect x="3.498" y="4.852" width="0.774" height="4.42" style="fill:url(#_Linear4);"/>
                <path d="M3.954,4.302L6.561,4.302C7.056,4.302 7.452,4.799 7.452,5.422L7.452,8.702C7.452,9.325 7.056,9.822 6.561,9.822L3.951,9.822C3.456,9.822 3.06,9.325 3.06,8.702L3.06,5.421C3.06,4.798 3.459,4.302 3.954,4.302Z" style="fill:none;fill-rule:nonzero;stroke:rgb(0,0,128);stroke-opacity:0.5;stroke-width:0.34px;"/>
            </g>
            <g>
                <path d="M7.351,6.914L9.961,6.914C10.536,6.914 11,7.497 11,8.221L11,11.501C11,12.225 10.536,12.808 9.961,12.808L7.351,12.808C6.775,12.808 6.311,12.225 6.311,11.501L6.311,8.221C6.311,7.497 6.775,6.914 7.351,6.914Z" style="fill:url(#_Linear5);fill-rule:nonzero;"/>
                <path d="M9.993,9.125C8.856,9.14 8.545,10.795 7.534,10.812C7.097,10.819 6.725,10.442 6.311,9.995L6.311,11.518C6.311,12.232 6.775,12.808 7.351,12.808L9.961,12.808C10.537,12.808 11,12.232 11,11.518L11,9.447C10.718,9.252 10.391,9.119 9.993,9.125Z" style="fill:rgb(192,192,0);fill-opacity:0.25;"/>
                <rect x="6.897" y="7.651" width="0.774" height="4.42" style="fill:url(#_Linear6);"/>
                <path d="M7.354,7.101L9.961,7.101C10.456,7.101 10.851,7.599 10.851,8.221L10.851,11.502C10.851,12.125 10.456,12.621 9.961,12.621L7.351,12.621C6.855,12.621 6.46,12.124 6.46,11.502L6.46,8.22C6.46,7.597 6.858,7.101 7.354,7.101Z" style="fill:none;fill-rule:nonzero;stroke:rgb(128,128,0);stroke-opacity:0.5;stroke-width:0.34px;"/>
            </g>
        </g>
        <g id="layer2">
            <g id="g3545">
                <path id="path2732" d="M27.064,13.802C27.064,14.581 26.387,14.976 25.701,15.173C24.667,15.47 23.838,15.425 22.974,15.173C22.254,14.963 21.611,14.534 21.611,13.802L21.611,11.229C21.611,10.489 22.228,9.857 22.974,9.857L25.657,9.683C26.565,9.683 27.158,9.116 27.158,8.186L27.405,6.942L28.428,6.942C29.221,6.942 29.595,7.532 29.791,8.313C30.064,9.399 30.076,10.211 29.791,11.058C29.515,11.88 29.22,12.429 28.428,12.429L24.338,12.429L24.338,12.424L27.064,12.424L27.064,13.802Z" style="fill:url(#_Linear7);fill-rule:nonzero;"/>
                <path id="path2736" d="M25.36,13.973C25.36,13.689 25.589,13.458 25.871,13.458C26.154,13.458 26.382,13.689 26.382,13.973C26.382,14.257 26.154,14.487 25.871,14.487C25.589,14.487 25.36,14.257 25.36,13.973Z" style="fill:white;fill-rule:nonzero;"/>
                <path id="path2742" d="M27.402,6.942L27.402,8.148C27.402,8.911 25.83,9.863 25.702,9.863L23.028,9.863L22.452,9.922C21.866,10.072 21.936,10.455 21.763,11.171C21.699,11.436 21.651,11.684 21.618,11.912C21.616,11.928 21.621,11.939 21.618,11.956L21.618,12.711C23.402,10.721 25.305,10.571 26.254,10.575C28.149,10.583 29.041,10.118 29.946,9.093C29.943,9.072 29.949,9.055 29.946,9.035C29.911,8.806 29.85,8.562 29.786,8.308C29.694,7.941 29.574,7.619 29.379,7.378C29.375,7.373 29.368,7.368 29.364,7.363C29.362,7.361 29.352,7.365 29.35,7.363C29.343,7.355 29.342,7.342 29.335,7.334C29.321,7.325 29.32,7.314 29.306,7.305C29.303,7.301 29.295,7.309 29.292,7.305C29.085,7.171 28.834,7.071 28.58,7.029C28.349,6.991 28.117,6.962 27.882,6.942L27.402,6.942Z" style="fill:url(#_Linear8);fill-rule:nonzero;"/>
                <path id="path2744" d="M27.201,13.802C27.201,14.581 26.387,14.976 25.701,15.173C24.667,15.47 23.838,15.425 22.974,15.173C22.254,14.963 21.611,14.534 21.611,13.802L21.611,11.093C21.611,10.215 22.248,9.74 22.974,9.74L25.399,9.725C26.307,9.725 27.226,8.796 27.226,7.866L27.226,6.942L28.428,6.942C29.221,6.942 29.595,7.532 29.791,8.313C30.064,9.399 30.076,10.211 29.791,11.058C29.515,11.88 29.22,12.527 28.428,12.527L24.338,12.527L24.338,12.521L27.201,12.531L27.201,13.802Z" style="fill:none;fill-rule:nonzero;stroke:rgb(187,148,0);stroke-width:0.47px;stroke-linejoin:miter;stroke-miterlimit:4;"/>
                <path id="path2746" d="M27.459,7.175L27.459,7.857C27.459,8.92 26.366,9.978 25.324,9.978L22.97,9.978C22.355,9.978 21.851,10.618 21.851,11.229L21.851,13.802C21.851,14.1 21.957,14.322 22.17,14.514C22.384,14.705 22.705,14.851 23.042,14.949C23.875,15.192 24.634,15.236 25.629,14.949C25.953,14.857 26.383,14.681 26.599,14.494C26.815,14.307 26.972,14.124 26.972,13.802L26.972,12.765L24.104,12.765L24.104,12.286L27.301,12.286L27.301,12.3L28.434,12.3C28.777,12.3 28.944,12.165 29.115,11.968C29.285,11.771 29.433,11.384 29.568,10.982C29.838,10.18 29.834,9.427 29.568,8.366C29.475,7.996 29.34,7.696 29.161,7.494C28.982,7.292 28.774,7.175 28.434,7.175L27.459,7.175ZM27.924,7.64L28.434,7.64C28.582,7.64 28.776,7.759 28.812,7.799C28.915,7.916 29.035,8.153 29.117,8.482C29.371,9.493 29.372,10.124 29.132,10.837C29.003,11.221 28.869,11.583 28.769,11.69C28.678,11.787 28.486,11.835 28.434,11.835L27.766,11.835L27.766,11.821L23.639,11.821L23.639,13.23L26.507,13.23L26.507,13.802C26.507,14.009 26.229,14.138 26.181,14.179C26.042,14.3 25.796,14.418 25.513,14.499C24.593,14.763 23.944,14.723 23.173,14.499C22.882,14.414 22.629,14.289 22.49,14.165C22.487,14.162 22.479,14.153 22.476,14.15C22.456,14.131 22.432,14.108 22.418,14.092C22.404,14.076 22.384,14.048 22.374,14.034C22.368,14.025 22.352,14.002 22.345,13.99C22.338,13.974 22.335,13.95 22.33,13.932C22.328,13.917 22.317,13.89 22.316,13.874C22.315,13.853 22.316,13.825 22.316,13.802L22.316,11.229C22.316,10.876 22.617,10.443 22.97,10.443L25.324,10.443C26.634,10.443 27.924,9.186 27.924,7.857L27.924,7.64Z" style="fill:white;fill-opacity:0.38;fill-rule:nonzero;"/>
                <g id="g3534">
                    <path id="path2730" d="M21.328,5.166C21.328,4.386 21.538,3.962 22.692,3.76C23.476,3.623 24.481,3.605 25.418,3.76C26.158,3.882 26.782,4.434 26.782,5.166L26.782,7.738C26.782,8.492 26.177,9.111 25.418,9.111L22.946,9.247C22.021,9.247 21.065,10.056 21.065,10.947L20.987,12.025L20.05,12.025C19.257,12.025 18.796,11.454 18.602,10.654C18.34,9.579 18.351,8.939 18.602,7.91C18.819,7.012 19.512,6.538 20.305,6.538L24.055,6.538L24.055,6.529L21.328,6.529L21.328,5.166Z" style="fill:url(#_Linear9);fill-rule:nonzero;"/>
                    <path id="path2734" d="M22.01,4.995C22.01,4.71 22.239,4.48 22.521,4.48C22.803,4.48 23.032,4.71 23.032,4.995C23.032,5.279 22.803,5.509 22.521,5.509C22.239,5.509 22.01,5.279 22.01,4.995Z" style="fill:white;fill-rule:nonzero;"/>
                    <path id="path2738" d="M23.821,3.646C23.417,3.656 23.03,3.702 22.687,3.762C21.533,3.964 21.336,4.392 21.336,5.172L21.336,6.524L24.054,6.524L24.054,6.538L20.304,6.538C19.511,6.538 18.821,7.006 18.604,7.904C18.456,8.51 18.389,8.984 18.415,9.488C20.21,7.453 22.138,7.304 23.094,7.308C24.988,7.317 25.881,6.851 26.786,5.826L26.786,5.172C26.786,4.44 26.16,3.885 25.419,3.762C24.892,3.676 24.34,3.634 23.821,3.646Z" style="fill:url(#_Linear10);fill-rule:nonzero;"/>
                    <path id="path3530" d="M21.173,5.198C21.173,4.418 21.986,4.023 22.673,3.826C23.706,3.529 24.535,3.575 25.399,3.826C26.12,4.036 26.763,4.466 26.763,5.198L26.763,7.77C26.763,8.511 26.145,9.26 25.399,9.26L22.859,9.26C22.146,9.26 21.148,10.045 21.148,10.975L21.148,12.058L19.946,12.058C19.152,12.058 18.779,11.468 18.583,10.686C18.31,9.6 18.298,8.788 18.583,7.942C18.859,7.12 19.153,6.473 19.946,6.473L24.035,6.473L24.035,6.478L21.173,6.469L21.173,5.198Z" style="fill:none;fill-rule:nonzero;stroke:rgb(39,78,112);stroke-width:0.47px;stroke-linejoin:miter;stroke-miterlimit:4;"/>
                    <path id="path3532" d="M20.915,11.826L20.915,11.027C20.915,9.964 21.883,9.021 22.925,9.021L25.404,9.021C26.019,9.021 26.523,8.382 26.523,7.771L26.523,5.198C26.523,4.9 26.417,4.678 26.203,4.486C25.99,4.295 25.669,4.149 25.331,4.05C24.499,3.808 23.74,3.764 22.745,4.05C22.421,4.143 21.991,4.319 21.774,4.506C21.558,4.693 21.401,4.876 21.401,5.198L21.401,6.234L24.27,6.234L24.27,6.714L21.073,6.714L21.073,6.699L19.939,6.699C19.597,6.699 19.429,6.834 19.259,7.031C19.089,7.229 18.941,7.615 18.806,8.018C18.536,8.819 18.539,9.573 18.806,10.634C18.899,11.004 19.033,11.303 19.213,11.506C19.392,11.708 19.6,11.826 19.939,11.826L20.915,11.826ZM20.449,11.36L19.939,11.36C19.791,11.36 19.597,11.24 19.562,11.2C19.458,11.084 19.339,10.847 19.257,10.517C19.003,9.507 19.002,8.876 19.242,8.163C19.371,7.779 19.504,7.417 19.605,7.31C19.696,7.213 19.888,7.164 19.939,7.164L20.608,7.164L20.608,7.179L24.735,7.179L24.735,5.769L21.866,5.769L21.866,5.198C21.866,4.991 22.144,4.862 22.192,4.82C22.331,4.7 22.578,4.582 22.861,4.501C23.78,4.236 24.43,4.276 25.2,4.501C25.492,4.586 25.745,4.71 25.884,4.835C25.887,4.838 25.895,4.847 25.898,4.85C25.918,4.868 25.942,4.892 25.956,4.908C25.97,4.924 25.99,4.951 26,4.966C26.005,4.975 26.022,4.998 26.029,5.009C26.036,5.026 26.039,5.049 26.043,5.068C26.046,5.082 26.056,5.109 26.058,5.126C26.059,5.147 26.058,5.175 26.058,5.198L26.058,7.771C26.058,8.123 25.756,8.556 25.404,8.556L22.925,8.556C21.615,8.556 20.449,9.699 20.449,11.027L20.449,11.36Z" style="fill:white;fill-opacity:0.16;fill-rule:nonzero;"/>
                </g>
            </g>
        </g>
        <g id="snake-color" serif:id="snake color">
            <path id="path4831" d="M4.988,19.361L5.038,18.221L5.985,17.628L7.382,17.669L10.224,19.102L8.578,21.596L6.235,20.585L4.988,19.361Z" style="fill:url(#_Linear11);fill-rule:nonzero;stroke:black;stroke-width:0.06px;stroke-linejoin:miter;stroke-miterlimit:4;"/>
            <path id="path4795" d="M9.974,8.289L11.121,6.133L12.268,5.456L12.517,6.385L13.864,7.439L14.562,7.27L15.31,6.973L16.806,7.69L17.903,7.097L18.601,6.463L19.648,7.813L19.598,11.53L17.005,14.194L15.16,14.914L12.916,15.002L10.573,13.653L9.576,10.866L9.974,8.289Z" style="fill:url(#_Linear12);fill-rule:nonzero;stroke:black;stroke-width:0.06px;stroke-linejoin:miter;stroke-miterlimit:4;"/>
            <path id="path4807" d="M8.279,22.23L12.069,16.734L12.966,15.846L14.562,15.929L15.16,17.407L13.964,24.082L14.612,26.869L16.507,29.317L14.263,30.249L10.972,30.21L8.628,27.51L7.88,24.934L8.279,22.23Z" style="fill:url(#_Linear13);fill-rule:nonzero;stroke:black;stroke-width:0.06px;stroke-linejoin:miter;stroke-miterlimit:4;"/>
            <path id="path4841" d="M7.83,23.793L4.539,22.995L2.146,21.223L1.797,20.125L3.592,19.11L4.988,19.319L6.135,20.627L8.628,21.638L7.83,23.793Z" style="fill:url(#_Linear14);fill-rule:nonzero;stroke:black;stroke-width:0.06px;stroke-linejoin:miter;stroke-miterlimit:4;"/>
            <path id="path4851" d="M15.958,20.996L16.457,19.517L21.692,17.103L23.138,16.975L23.637,18.326L21.194,20.23L18.95,20.908L15.958,20.996Z" style="fill:url(#_Linear15);fill-rule:nonzero;stroke:black;stroke-width:0.06px;stroke-linejoin:miter;stroke-miterlimit:4;"/>
            <path id="path4863" d="M15.709,23.869L15.858,21.081L19.648,20.823L23.288,18.791L23.787,18.157L26.579,18.534L27.626,20.349L24.385,22.507L19.897,23.737L15.709,23.869Z" style="fill:url(#_Linear16);fill-rule:nonzero;stroke:black;stroke-width:0.06px;stroke-linejoin:miter;stroke-miterlimit:4;"/>
            <path id="path4883" d="M12.268,15.932L13.016,15.001L16.207,14.618L18.352,12.968L19.598,11.572L18.002,16.221L16.008,20.194L15.858,25.051L17.554,29.485L15.509,28.346L14.013,25.18L14.213,21.378L15.16,17.787L14.512,15.845L12.268,15.932Z" style="fill:url(#_Linear17);fill-rule:nonzero;stroke:black;stroke-width:0.06px;stroke-linejoin:miter;stroke-miterlimit:4;"/>
            <path id="path4893" d="M15.709,23.911L20.147,23.652L21.792,23.313L21.194,24.876L15.759,24.967L15.709,23.911Z" style="fill:url(#_Radial18);fill-rule:nonzero;stroke:black;stroke-width:0.06px;stroke-linejoin:miter;stroke-miterlimit:4;"/>
            <path id="path4913" d="M21.34,23.49L25.038,22.138L27.265,20.451L27.066,22.372L24.6,24.025L21.3,25.006L21.34,23.49Z" style="fill:url(#_Linear19);fill-rule:nonzero;stroke:black;stroke-width:0.06px;stroke-linejoin:miter;stroke-miterlimit:4;"/>
            <path id="path4923" d="M1.536,20.582L4.001,22.6L6.387,23.541L8.018,23.876L7.978,24.886L3.286,23.814L1.456,22.469L1.536,20.582Z" style="fill:url(#_Linear20);fill-rule:nonzero;stroke:black;stroke-width:0.06px;stroke-linejoin:miter;stroke-miterlimit:4;"/>
            <path id="path4933" d="M9.052,28.153L10.523,29.768L6.268,29.908L0.462,26.68L0.701,25.67L3.087,27.284L5.711,28.19L9.052,28.153Z" style="fill:url(#_Linear21);fill-rule:nonzero;stroke:black;stroke-width:0.06px;stroke-linejoin:miter;stroke-miterlimit:4;"/>
            <path id="path4943" d="M16.846,27.672L23.288,28.103L27.464,27.121L29.611,25.266L29.69,27.523L25.595,29.683L18.397,30.029L16.846,27.672Z" style="fill:url(#_Linear22);fill-rule:nonzero;stroke:black;stroke-width:0.06px;stroke-linejoin:miter;stroke-miterlimit:4;"/>
            <path id="path4953" d="M7.938,24.718L9.012,28.119L4.797,27.956L2.291,26.914L0.502,25.367L0.065,24.02L1.456,22.435L3.325,23.881L6.308,24.585L7.938,24.718Z" style="fill:url(#_Linear23);fill-rule:nonzero;stroke:black;stroke-width:0.06px;stroke-linejoin:miter;stroke-miterlimit:4;"/>
            <path id="path4969" d="M15.852,24.911L21.737,25.039L27.901,22.405L29.571,24.053L29.571,25.401L26.668,27.526L20.862,28.072L16.766,27.605L15.852,24.911Z" style="fill:url(#_Linear24);fill-rule:nonzero;stroke:black;stroke-width:0.06px;stroke-linejoin:miter;stroke-miterlimit:4;"/>
            <path id="path4989" d="M-1.407,29.58L0.422,27.523L1.894,27.555L3.803,28.799L-1.407,29.58Z" style="fill:url(#_Linear25);fill-rule:nonzero;stroke:black;stroke-width:0.06px;stroke-linejoin:miter;stroke-miterlimit:4;"/>
            <path id="path5019" d="M14.858,32.862L15.892,31.244L17.363,30.636L17.482,32.051L19.868,31.576L24.242,32.043L23.209,32.516L14.858,32.862Z" style="fill:url(#_Linear26);fill-rule:nonzero;stroke:black;stroke-width:0.06px;stroke-linejoin:miter;stroke-miterlimit:4;"/>
            <path id="path5029" d="M17.204,31.916L21.26,31.575L27.106,31.804L28.577,30.792L21.538,30.025L17.999,30.366L17.204,31.916Z" style="fill:url(#_Linear27);fill-rule:nonzero;stroke:black;stroke-width:0.06px;stroke-linejoin:miter;stroke-miterlimit:4;"/>
            <path id="path5039" d="M3.445,32.202L5.035,30.347L16.766,30.435L14.579,32.762L9.131,32.263L9.569,31.487L6.944,31.692L3.445,32.202Z" style="fill:url(#_Linear28);fill-rule:nonzero;stroke:black;stroke-width:0.06px;stroke-linejoin:miter;stroke-miterlimit:4;"/>
            <path id="path3253" d="M12.371,4.716L13.307,2.645L14.762,1.851L15.802,2.334L16.009,2.95L17.725,2.596L18.608,3.696L18.66,5.677L17.829,7.263L16.529,7.749L15.282,7.09L14.034,7.532L12.519,6.315L12.371,4.716Z" style="fill:white;fill-rule:nonzero;"/>
        </g>
        <path id="path3072-7" d="M19.054,1.625C18.942,1.411 18.567,1.213 18.413,1.214C18.259,1.216 17.998,1.154 18.093,0.93C18.189,0.705 18.561,0.702 18.722,0.754C18.884,0.807 19.244,0.924 19.37,1.658C19.495,2.392 19.166,1.839 19.054,1.625Z" style="fill-rule:nonzero;"/>
        <path id="path3070-4" d="M14.335,0.923C14.058,1.037 13.99,0.692 14.103,0.523C14.215,0.355 14.565,0.146 14.781,0.073C14.997,0 15.21,0.007 15.257,0.107C15.214,0.479 14.611,0.809 14.335,0.923Z" style="fill-rule:nonzero;"/>
        <path id="path3066-0" d="M15.917,6.87C16.21,6.886 16.676,6.459 16.613,6.072C16.55,5.685 16.283,5.38 15.945,5.379C15.607,5.378 15.152,5.758 15.24,6.106C15.271,6.239 15.358,6.554 15.526,6.4C15.725,6.366 15.562,6.274 15.675,6.061C15.727,5.984 15.907,5.961 15.987,6.044C16.068,6.127 16.095,6.332 15.894,6.417C15.769,6.455 15.711,6.341 15.551,6.454C15.391,6.567 15.752,6.869 15.917,6.87Z" style="fill-rule:nonzero;"/>
        <path id="path3068-9" d="M14.313,5.997C14.208,6.033 14.17,6.206 14.264,6.301C14.351,6.389 14.563,6.317 14.601,6.453C14.776,6.602 14.366,6.747 14.218,6.695C13.759,6.593 13.542,5.951 13.819,5.481C14.211,5.049 14.696,5.158 14.947,5.482C15.074,5.649 15.135,5.872 15.078,6.067C15.021,6.193 14.995,6.421 14.756,6.45C14.729,6.365 14.558,6.372 14.646,6.282C14.745,6.179 14.686,6.097 14.639,6.03C14.579,5.945 14.419,5.962 14.313,5.997Z" style="fill-rule:nonzero;"/>
        <path id="path4649" d="M3.242,31.921C3.242,31.921 3.615,31.774 3.854,31.496C3.467,31.65 3.166,31.778 2.448,31.76C2.959,31.883 3.242,31.921 3.242,31.921ZM27.842,31.089L25.971,30.916L26.47,31.524L27.842,31.089ZM22.464,31.342C22.367,30.887 22.26,30.727 22.118,30.516C21.613,30.496 20.217,30.469 19.555,30.548C19.828,30.774 19.892,31.09 20.207,31.409C20.821,31.348 21.964,31.313 22.464,31.342ZM9.56,31.329C9.716,31.163 9.724,31.04 10.128,30.759C9.224,30.458 7.767,30.592 6.981,30.651C6.681,30.963 6.387,31.396 6.16,31.675C7.018,31.456 9.041,31.263 9.56,31.329ZM25.544,31.555C25.392,31.301 25.002,30.9 24.588,30.725C24.174,30.55 23.535,30.531 22.861,30.515C23.121,30.761 23.261,31 23.313,31.409C23.863,31.438 24.921,31.409 25.544,31.555ZM19.234,31.356C19.308,31.026 19.036,30.612 18.613,30.518C18.152,30.782 17.876,31.266 17.552,31.628C17.952,31.535 18.636,31.433 19.234,31.356ZM5.538,31.644C5.6,31.4 5.96,31.074 6.224,30.712C5.389,30.909 4.514,31.396 4.046,31.8C4.557,31.712 5.538,31.726 5.538,31.644ZM9.108,31.613C8.921,31.574 8.157,31.665 7.968,31.728C8.541,31.726 8.798,31.751 9.002,31.938C9.095,31.851 9.12,31.747 9.108,31.613ZM21.72,32.185L23.624,32.147L21.471,31.904C20.702,31.817 19.81,31.829 19.173,31.924L17.194,32.379L19.259,32.206C19.905,32.151 21.109,32.198 21.72,32.185ZM16.264,32.417C16.429,32.124 16.652,31.752 16.883,31.392C17.038,31.233 17.054,31.131 16.941,31.035C16.661,30.979 16.51,31.065 15.993,31.578C15.608,31.961 15.506,32.222 15.35,32.502C15.619,32.411 15.913,32.425 16.264,32.417ZM15.3,31.553L16.195,30.709L14.723,30.721C13.879,30.728 14.353,30.902 14.622,31.175C14.355,31.143 14.318,31.221 13.948,31.054C13.57,30.883 11.769,30.924 10.935,31.01C10.449,31.275 9.913,31.623 9.673,31.965C10.044,32.011 10.32,31.997 11.111,31.967C12.273,31.924 12.705,31.96 13.36,32.156C13.806,32.289 14.584,32.384 14.706,32.392C15.004,31.904 15.02,31.919 15.3,31.553ZM-7.636,28.866L0.405,25.689L0.037,24.761C-0.138,24.319 -0.07,23.547 0.473,23.079C1.015,22.611 1.172,22.53 1.172,22.53C1.172,22.53 1.206,21.993 1.206,21.633C1.206,20.753 1.408,20.215 1.93,19.711C2.263,19.389 3.235,19.044 3.641,18.998C3.935,18.965 4.163,18.98 4.583,19.083C4.575,18.869 4.619,18.625 4.764,18.383C5.161,17.724 5.566,17.463 6.301,17.392C6.837,17.34 7.136,17.41 8.054,17.799C8.662,18.057 9.349,18.373 9.57,18.513C9.813,18.667 9.946,18.783 10.193,18.875C10.339,18.69 10.614,18.335 10.858,17.972C10.999,17.761 11.487,17.091 11.678,16.848C11.774,16.727 12.068,16.417 12.068,16.417C12.068,16.417 11.988,16 12.014,15.782C12.05,15.484 12.073,15.393 12.307,15.147C12.078,15.037 12.12,15.074 11.877,14.944C10.649,14.29 9.805,13.516 9.442,12.054C9.132,10.808 9.175,9.927 9.591,8.601C10.058,7.11 10.512,6.269 11.383,5.565C12.288,4.996 12.137,5.46 12.208,4.57C12.263,3.872 12.928,2.496 13.994,1.814C14.576,1.441 15.327,1.617 15.789,2.145C16.428,2.877 15.8,2.885 16.858,2.491C18.124,2.02 18.832,3.697 18.885,4.397C18.949,5.243 18.814,5.733 18.712,6.139C18.959,6.325 18.868,6.229 19.365,6.73C19.874,7.244 20.102,8.464 20.053,9.955C19.996,11.71 19.449,14.028 18.911,14.936C18.469,15.681 17.423,17.596 16.871,19.118C17.298,18.764 18.086,18.239 18.793,17.903C19.98,17.339 20.968,16.993 22.003,16.714C22.889,16.493 23.454,16.76 23.751,17.476L23.92,17.904L24.792,17.867C25.541,17.835 25.774,17.885 26.457,18.221C27.113,18.543 27.316,18.733 27.629,19.311C27.967,19.936 27.999,20.121 27.925,21.027L27.843,22.042L28.505,22.535C29.521,23.292 30.043,24.328 30.047,25.596C30.017,25.808 30.034,25.823 29.99,26.069C32.348,26.979 37,28.837 37,28.837L14.67,35.735L-7.636,28.866ZM14.839,29.753C15.388,29.626 15.663,29.363 15.951,29.197C15.286,28.566 14.82,27.866 14.329,26.855C14.036,27.076 13.915,27.159 13.466,27.381C12.652,27.783 12.054,28.039 9.983,27.637C9.607,27.563 9.353,27.368 8.941,27.114C9.134,27.569 9.782,28.286 10.186,28.653C10.768,28.777 11.201,28.92 12.468,28.906C13.735,28.892 14.166,28.538 14.176,28.59C14.265,29.038 13.56,29.366 13.099,29.408C11.359,29.566 10.975,29.296 12.212,29.825C12.567,29.977 14.29,29.881 14.839,29.753ZM9.94,29.616C9.885,29.436 9.366,28.933 8.939,28.466C8.167,28.511 7.018,28.46 5.884,28.398C5.962,28.657 6.046,28.878 6.37,29.232C7.663,29.611 8.152,29.676 9.94,29.616ZM21.861,29.548C22.315,29.15 22.625,28.825 22.739,28.313C22.141,28.331 20.841,28.304 20.09,28.234C19.927,28.738 19.633,29.085 19.325,29.634C20.247,29.638 21.425,29.614 21.861,29.548ZM19.462,28.227C18.6,28.174 17.968,28.141 17.345,27.969C17.435,28.249 18.041,29.194 18.65,29.48C19.152,29.133 19.327,28.552 19.462,28.227ZM24.911,29.133C25.582,28.497 25.574,28.231 25.678,27.956C24.993,28.117 24.482,28.159 23.703,28.286C23.587,28.641 23.162,29.113 22.896,29.473C23.556,29.409 24.097,29.361 24.911,29.133ZM5.645,29.055C5.423,28.795 5.29,28.484 5.218,28.282C4.639,28.178 3.701,27.695 3.025,27.481C2.974,27.666 3.054,27.811 3.14,27.985C3.327,28.106 3.47,28.234 3.897,28.396C4.596,28.662 5.001,28.864 5.645,29.055ZM16.965,28.687C16.965,28.621 16.733,28.119 16.448,27.571C15.681,26.093 15.483,25.214 15.482,23.267C15.48,21.025 15.91,19.449 17.204,16.956C17.949,15.519 18.668,14.47 19.129,12.41C18.731,13.118 18.376,13.433 17.938,13.802C16.617,14.915 15.789,15.156 14.772,15.284C14.155,15.362 13.88,15.395 13.274,15.387C13.14,15.571 12.979,15.521 12.882,15.826C13.319,15.633 13.997,15.434 14.721,15.806C15.52,16.482 15.525,18.019 14.734,20.689C14.138,22.703 14.116,24.371 14.663,25.971C15.086,27.204 15.435,27.839 16.005,28.413C16.373,28.784 16.965,28.952 16.965,28.687L16.965,28.687ZM27.396,28.424C28.223,28.023 29.282,27.096 29.306,26.517L29.341,25.651C29.341,25.651 29.139,26.088 28.646,26.524C28.154,26.96 27.046,27.515 26.773,27.643C26.737,28.129 26.527,28.384 26.088,28.92C26.682,28.746 26.68,28.773 27.396,28.424ZM3.191,28.572C2.614,28.36 2.349,27.977 1.898,27.736C0.414,27.738 -0.211,28.514 -0.621,29.133C0.437,28.76 0.988,28.437 3.191,28.572ZM8.626,27.947C8.446,27.59 8.105,27.115 7.98,26.693C7.778,25.997 7.719,25.52 7.673,24.976L6.543,24.891C4.628,24.746 2.96,24.142 1.96,23.233C1.762,23.052 1.599,22.965 1.399,22.905C0.864,23.001 0.296,23.881 0.367,24.294C0.472,24.903 0.96,25.815 1.857,26.417C3.633,27.607 4.992,27.854 6.856,27.955C6.994,27.964 8.129,27.973 8.626,27.947ZM24.697,27.538C26.709,27.122 27.507,26.801 28.44,26.031C29.151,25.444 29.145,25.413 29.252,25.006C29.145,23.753 28.585,23.332 27.958,22.789C27.527,23.092 27.155,23.314 26.33,23.696C24.4,24.591 24.02,24.725 22.318,25.11C20.811,25.451 18.66,25.56 17.151,25.37C16.692,25.313 16.584,25.276 16.305,25.176C16.347,25.62 16.731,26.763 16.962,27.322C17.317,27.428 18.096,27.618 19.049,27.703C20.807,27.86 23.213,27.845 24.697,27.538ZM2.501,27.205C2.197,27.01 1.588,26.582 0.9,26.121C1.317,26.626 1.679,27.194 2.476,27.658C2.457,27.568 2.398,27.342 2.501,27.205ZM13.077,27.121C13.606,26.893 13.98,26.617 14.165,26.493C14.155,26.22 14.046,25.978 13.983,25.64C13.625,23.705 13.608,22.089 14.439,19.677C14.594,19.225 14.788,17.349 14.55,16.789C14.298,16.195 14.023,16.024 13.499,16.136C13.148,16.211 13.164,16.145 12.787,16.401C12.851,16.775 12.854,17.208 13.156,17.688C13.921,18.904 13.765,18.97 13.525,19.614C13.476,19.745 13.44,19.927 13.232,19.992C13.041,20.051 13.117,19.69 13.236,19.327C13.272,19.216 13.376,18.923 13.303,18.812C12.977,19.149 12.913,19.294 12.389,19.514C12.066,19.65 11.662,19.603 12.371,19.211C12.833,18.956 13.025,18.684 13.006,18.473C12.994,18.341 12.797,18.151 12.692,17.952C12.513,17.613 12.388,17.351 12.288,16.994C12.094,17.188 11.936,17.39 11.734,17.713C12.149,18.088 12.998,18.274 12.436,18.363C12.226,18.397 11.886,18.306 11.449,18.092C11.303,18.284 11.192,18.442 11.053,18.648C10.914,18.854 10.803,19.005 10.709,19.209C11.132,19.507 11.647,19.911 12.297,20.06C12.947,20.209 13.02,20.152 13.69,20.208C14.18,20.469 13.61,20.52 12.98,20.499C12.511,20.499 11.968,20.374 11.322,20.116L10.363,19.733C10.363,19.733 10.177,19.938 10.058,20.13C9.938,20.321 9.836,20.392 9.541,20.882C9.869,21.305 10.839,21.775 11.605,21.982C12.552,22.237 13.411,21.948 12.82,22.404C12.531,22.564 11.421,22.423 10.623,22.16C10.112,21.991 9.459,21.725 9.129,21.515C8.794,22.164 8.421,22.903 8.385,23.433C8.76,23.705 9.057,23.885 9.54,24.123C10.024,24.361 10.828,24.555 11.853,24.598C12.342,24.618 13.482,24.452 13.026,24.907C12.856,25.139 10.566,25.049 9.68,24.775C8.914,24.538 8.565,24.376 8.313,24.298C8.366,25.048 8.363,25.51 8.61,26.174C9.002,26.586 9.331,26.816 9.883,27.114C10.451,27.42 12.096,27.543 13.077,27.121L13.077,27.121ZM17.386,24.708C17.508,24.46 17.602,24.296 17.559,24.037C17.034,24.036 16.695,24.026 16.201,24.006C16.205,24.152 16.127,24.301 16.244,24.655C16.646,24.662 16.908,24.7 17.386,24.708ZM21.068,23.809C20.053,23.977 19.135,24.021 18.191,24.079C18.191,24.423 18.245,24.519 18.045,24.806C18.985,24.759 19.691,24.784 20.679,24.601C20.943,24.47 20.971,24.135 21.068,23.809ZM7.601,24.477C7.542,24.281 7.586,24.139 7.532,23.979C7.032,23.921 6.228,23.803 5.498,23.537C5.444,23.844 5.428,24.108 5.452,24.211C6.038,24.354 6.891,24.539 7.601,24.477ZM24.512,23.551C24.512,23.186 24.476,23.032 24.439,22.679C23.422,23.082 22.549,23.478 21.925,23.619C21.925,23.88 22.018,24.123 21.842,24.451C22.813,24.205 23.677,23.956 24.512,23.551ZM5.101,23.381C4.388,23.04 3.936,22.933 3.318,22.463C3.263,22.708 3.145,23.023 3.171,23.312C3.553,23.587 4.205,23.925 4.996,24.066C4.953,23.716 5.101,23.676 5.101,23.381ZM19.121,23.521C21.105,23.431 24.133,22.481 25.923,21.111C26.722,20.499 26.783,20.263 27.087,19.949C26.679,18.821 25.686,18.364 23.904,18.561C23.353,19.118 23.212,19.237 22.879,19.476C21.662,20.351 19.918,21.053 18.707,21.181C17.327,21.327 16.727,21.453 16.154,21.388C16.083,21.617 16.064,22.839 16.077,23.653C16.714,23.681 16.827,23.627 19.121,23.521ZM8.262,21.747C7.904,21.66 7.633,21.583 7.284,21.453C6.329,21.098 5.585,20.667 5.272,20.299C5.079,20.073 4.763,19.742 4.596,19.448C4.357,19.47 3.986,19.358 3.551,19.449C3.168,19.529 2.579,19.719 2.298,20.082C1.98,20.494 2.116,20.836 2.902,21.593C3.64,22.304 5.291,23 6.484,23.356C6.88,23.474 7.081,23.489 7.583,23.602C7.79,22.776 8.043,22.208 8.262,21.747L8.262,21.747ZM25.433,23.124C25.776,22.891 26.588,22.217 26.856,21.738C26.945,21.501 26.996,21.356 27.005,21.043C26.515,21.424 25.749,22.045 25.292,22.25C25.369,22.499 25.428,22.737 25.433,23.124ZM2.639,21.896C2.31,21.755 1.959,21.282 1.808,20.996C1.706,21.524 1.636,21.75 1.723,22.292C2.184,22.577 2.266,22.707 2.532,22.802L2.639,21.896ZM9.378,20.161C9.601,19.857 9.781,19.532 9.955,19.233C9.607,18.985 8.819,18.605 8.205,18.32C7.21,17.859 6.977,17.72 6.369,17.789C5.579,17.879 5.22,18.336 5.22,18.891C5.22,19.718 6.019,20.424 7.551,20.95C8.101,21.139 8.197,21.175 8.543,21.255C8.92,20.801 9.096,20.545 9.378,20.161ZM19.184,20.413C20.557,19.974 22.169,19.248 22.651,18.879C23.437,18.277 23.279,17.137 22.574,17.138C22.157,17.138 20.427,17.809 19.365,18.301C17.736,19.057 16.644,19.783 16.288,20.863C16.769,20.856 16.619,20.891 17.374,20.81C17.845,20.76 18.659,20.581 19.184,20.413ZM15.955,14.385C16.903,14.018 17.93,13.167 18.36,12.462C19.128,11.202 19.396,10.357 19.388,9.213C19.382,8.305 19.253,7.91 19.027,7.477C18.46,6.396 18.485,6.824 18.082,7.312C17.197,8.385 16.555,8.03 15.858,7.609C15.106,7.154 15.48,7.283 14.702,7.613C14.093,7.871 13.868,7.804 13.407,7.559C12.945,7.314 12.578,7.046 12.363,6.425C12.129,5.75 12.256,5.77 11.569,6.177C10.175,7.602 9.235,11.492 10.854,13.446C11.918,14.731 13.944,15.165 15.955,14.385L15.955,14.385ZM14.567,13.889C14.554,13.835 14.665,13.418 14.579,13.092C14.402,12.419 15.107,12.395 15.151,12.947C15.227,13.5 14.886,14.122 14.602,14.032L14.567,13.889ZM10.954,13.427C10.801,13.298 10.902,12.664 11.077,12.387C11.356,12.034 11.616,12.116 11.418,12.709C11.532,13.206 11.417,13.599 10.954,13.427ZM17.676,6.984C17.85,6.827 18.096,6.489 18.222,6.232C18.515,5.639 18.523,4.129 18.237,3.549C17.825,2.715 16.794,2.65 16.216,3.269C15.883,3.625 15.645,4.12 15.483,3.802C15.419,3.676 15.498,3.559 15.573,3.399C15.992,2.496 15.462,2.218 14.853,2.184C14.457,2.161 14.11,2.337 13.625,2.752C13.037,3.256 12.546,4.187 12.546,5.288C12.546,6.012 12.756,6.372 13.109,6.65C13.462,6.928 13.806,7.144 14.276,7.143C14.746,7.142 14.827,6.884 15.321,6.815C15.743,6.98 15.921,7.352 16.686,7.384C17.215,7.406 17.46,7.179 17.676,6.984L17.676,6.984Z" style="fill-rule:nonzero;"/>
    </g>
    <defs>
        <linearGradient id="_Linear1" x1="0" y1="0" x2="1" y2="-0.208808" gradientUnits="userSpaceOnUse" gradientTransform="matrix(-2.37011,-5.89348,4.68884,-2.97903,3.40442,13.8392)"><stop offset="0" style="stop-color:rgb(255,0,0);stop-opacity:1"/><stop offset="1" style="stop-color:rgb(255,224,224);stop-opacity:1"/></linearGradient>
        <linearGradient id="_Linear2" x1="0" y1="0" x2="1" y2="0" gradientUnits="userSpaceOnUse" gradientTransform="matrix(1.06553,4.51269e-18,0,1.33928,0.371349,11.0456)"><stop offset="0" style="stop-color:white;stop-opacity:1"/><stop offset="1" style="stop-color:white;stop-opacity:0"/></linearGradient>
        <linearGradient id="_Linear3" x1="0" y1="0" x2="1" y2="-0.208317" gradientUnits="userSpaceOnUse" gradientTransform="matrix(-2.35707,-5.89343,4.6888,-2.96264,6.26933,9.92957)"><stop offset="0" style="stop-color:rgb(0,0,255);stop-opacity:1"/><stop offset="1" style="stop-color:rgb(224,224,255);stop-opacity:1"/></linearGradient>
        <linearGradient id="_Linear4" x1="0" y1="0" x2="1" y2="0" gradientUnits="userSpaceOnUse" gradientTransform="matrix(1.06297,4.50185e-18,0,1.33606,3.42164,7.21476)"><stop offset="0" style="stop-color:white;stop-opacity:1"/><stop offset="1" style="stop-color:white;stop-opacity:0"/></linearGradient>
        <linearGradient id="_Linear5" x1="0" y1="0" x2="1" y2="-0.208726" gradientUnits="userSpaceOnUse" gradientTransform="matrix(2.36789,5.89343,-4.6888,2.97624,7.31722,6.83554)"><stop offset="0" style="stop-color:rgb(255,255,224);stop-opacity:1"/><stop offset="1" style="stop-color:rgb(255,255,0);stop-opacity:1"/></linearGradient>
        <linearGradient id="_Linear6" x1="0" y1="0" x2="1" y2="0" gradientUnits="userSpaceOnUse" gradientTransform="matrix(1.06551,4.51263e-18,0,1.33926,6.81848,10.0142)"><stop offset="0" style="stop-color:white;stop-opacity:1"/><stop offset="1" style="stop-color:white;stop-opacity:0"/></linearGradient>
        <linearGradient id="_Linear7" x1="0" y1="0" x2="1" y2="0" gradientUnits="userSpaceOnUse" gradientTransform="matrix(-0.22422,8.09517,-8.09517,-0.22422,24.6978,6.9422)"><stop offset="0" style="stop-color:rgb(255,226,83);stop-opacity:1"/><stop offset="1" style="stop-color:rgb(255,202,28);stop-opacity:1"/></linearGradient>
        <linearGradient id="_Linear8" x1="0" y1="0" x2="1" y2="0" gradientUnits="userSpaceOnUse" gradientTransform="matrix(2.99681e-16,-4.89417,4.89417,3.01963e-16,25.1041,12.1724)"><stop offset="0" style="stop-color:white;stop-opacity:0.84"/><stop offset="1" style="stop-color:white;stop-opacity:0.14"/></linearGradient>
        <linearGradient id="_Linear9" x1="0" y1="0" x2="1" y2="0" gradientUnits="userSpaceOnUse" gradientTransform="matrix(8.37201,3.90362e-18,0,8.37201,18.4097,7.83831)"><stop offset="0" style="stop-color:rgb(55,120,174);stop-opacity:1"/><stop offset="1" style="stop-color:rgb(54,108,153);stop-opacity:1"/></linearGradient>
        <linearGradient id="_Linear10" x1="0" y1="0" x2="1" y2="0" gradientUnits="userSpaceOnUse" gradientTransform="matrix(2.99681e-16,-4.89417,4.89417,3.01963e-16,21.9411,8.89982)"><stop offset="0" style="stop-color:white;stop-opacity:0.38"/><stop offset="1" style="stop-color:white;stop-opacity:0.06"/></linearGradient>
        <linearGradient id="_Linear11" x1="0" y1="0" x2="1" y2="-0.12099" gradientUnits="userSpaceOnUse" gradientTransform="matrix(-2.13335,3.59286,-4.23841,-1.80233,8.44818,17.879)"><stop offset="0" style="stop-color:rgb(12,255,128);stop-opacity:1"/><stop offset="0.39" style="stop-color:rgb(33,249,0);stop-opacity:1"/><stop offset="0.77" style="stop-color:rgb(255,139,0);stop-opacity:1"/><stop offset="1" style="stop-color:rgb(255,255,0);stop-opacity:1"/></linearGradient>
        <linearGradient id="_Linear12" x1="0" y1="0" x2="1" y2="-0.0365061" gradientUnits="userSpaceOnUse" gradientTransform="matrix(-1.43526,9.54791,-11.2692,-1.20291,14.9803,5.28394)"><stop offset="0" style="stop-color:rgb(0,238,137);stop-opacity:1"/><stop offset="0.39" style="stop-color:rgb(25,255,17);stop-opacity:1"/><stop offset="0.77" style="stop-color:rgb(255,139,0);stop-opacity:1"/><stop offset="1" style="stop-color:rgb(255,255,0);stop-opacity:1"/></linearGradient>
        <linearGradient id="_Linear13" x1="0" y1="0" x2="1" y2="0.122096" gradientUnits="userSpaceOnUse" gradientTransform="matrix(8.73693,2.69336,-3.19127,7.40482,7.84982,22.2938)"><stop offset="0" style="stop-color:rgb(250,132,0);stop-opacity:1"/><stop offset="0.25" style="stop-color:rgb(252,193,0);stop-opacity:1"/><stop offset="1" style="stop-color:rgb(255,255,0);stop-opacity:1"/></linearGradient>
        <linearGradient id="_Linear14" x1="0" y1="0" x2="1" y2="-0.107058" gradientUnits="userSpaceOnUse" gradientTransform="matrix(-1.33553,2.66266,-3.14141,-1.12775,6.85254,20.6475)"><stop offset="0" style="stop-color:rgb(0,209,112);stop-opacity:1"/><stop offset="0.39" style="stop-color:rgb(103,255,35);stop-opacity:1"/><stop offset="0.77" style="stop-color:rgb(255,139,0);stop-opacity:1"/><stop offset="1" style="stop-color:rgb(255,255,0);stop-opacity:1"/></linearGradient>
        <linearGradient id="_Linear15" x1="0" y1="0" x2="1" y2="0.141527" gradientUnits="userSpaceOnUse" gradientTransform="matrix(2.50397,3.20738,-3.78964,2.12549,18.9195,17.5502)"><stop offset="0" style="stop-color:rgb(0,168,114);stop-opacity:1"/><stop offset="0.39" style="stop-color:rgb(54,255,0);stop-opacity:1"/><stop offset="0.77" style="stop-color:rgb(255,139,0);stop-opacity:1"/><stop offset="1" style="stop-color:rgb(255,255,0);stop-opacity:1"/></linearGradient>
        <linearGradient id="_Linear16" x1="0" y1="0" x2="1" y2="0.142528" gradientUnits="userSpaceOnUse" gradientTransform="matrix(2.40424,3.03853,-3.59018,2.04078,20.2659,20.2098)"><stop offset="0" style="stop-color:rgb(0,180,104);stop-opacity:1"/><stop offset="0.4" style="stop-color:rgb(0,243,2);stop-opacity:1"/><stop offset="0.77" style="stop-color:rgb(255,139,0);stop-opacity:1"/><stop offset="1" style="stop-color:rgb(255,255,0);stop-opacity:1"/></linearGradient>
        <linearGradient id="_Linear17" x1="0" y1="0" x2="1" y2="-0.074953" gradientUnits="userSpaceOnUse" gradientTransform="matrix(-4.62653,0.807863,-0.947409,-3.91811,16.8253,17.9539)"><stop offset="0" style="stop-color:rgb(6,255,27);stop-opacity:1"/><stop offset="0.38" style="stop-color:rgb(0,249,159);stop-opacity:1"/><stop offset="0.77" style="stop-color:rgb(255,139,0);stop-opacity:1"/><stop offset="1" style="stop-color:rgb(255,255,0);stop-opacity:1"/></linearGradient>
        <radialGradient id="_Radial18" cx="0" cy="0" r="1" gradientUnits="userSpaceOnUse" gradientTransform="matrix(3.72453,-0.116999,0.0162198,0.384535,17.803,24.3944)"><stop offset="0" style="stop-color:rgb(32,243,0);stop-opacity:1"/><stop offset="0.04" style="stop-color:rgb(35,255,145);stop-opacity:1"/><stop offset="0.36" style="stop-color:rgb(255,139,0);stop-opacity:1"/><stop offset="1" style="stop-color:rgb(255,255,0);stop-opacity:1"/></radialGradient>
        <linearGradient id="_Linear19" x1="0" y1="0" x2="1" y2="-0.166636" gradientUnits="userSpaceOnUse" gradientTransform="matrix(-5.22828,3.87995,-4.57313,-4.4237,27.1946,20.7042)"><stop offset="0" style="stop-color:rgb(250,132,0);stop-opacity:1"/><stop offset="0.25" style="stop-color:rgb(252,193,0);stop-opacity:1"/><stop offset="1" style="stop-color:rgb(255,255,0);stop-opacity:1"/></linearGradient>
        <linearGradient id="_Linear20" x1="0" y1="0" x2="1" y2="0.142978" gradientUnits="userSpaceOnUse" gradientTransform="matrix(3.24196,4.07236,-4.81173,2.75182,1.5851,20.683)"><stop offset="0" style="stop-color:rgb(52,255,181);stop-opacity:1"/><stop offset="0.04" style="stop-color:rgb(46,255,35);stop-opacity:1"/><stop offset="0.36" style="stop-color:rgb(255,139,0);stop-opacity:1"/><stop offset="1" style="stop-color:rgb(255,255,0);stop-opacity:1"/></linearGradient>
        <linearGradient id="_Linear21" x1="0" y1="0" x2="1" y2="-0.0611923" gradientUnits="userSpaceOnUse" gradientTransform="matrix(-0.582033,2.23255,-2.63469,-0.490028,4.91741,27.0944)"><stop offset="0" style="stop-color:rgb(250,132,0);stop-opacity:1"/><stop offset="0.25" style="stop-color:rgb(252,193,0);stop-opacity:1"/><stop offset="1" style="stop-color:rgb(255,255,0);stop-opacity:1"/></linearGradient>
        <linearGradient id="_Linear22" x1="0" y1="0" x2="1" y2="0.0595816" gradientUnits="userSpaceOnUse" gradientTransform="matrix(0.61738,2.35735,-2.78364,0.52618,23.3373,27.6143)"><stop offset="0" style="stop-color:rgb(250,132,0);stop-opacity:1"/><stop offset="0.25" style="stop-color:rgb(252,193,0);stop-opacity:1"/><stop offset="1" style="stop-color:rgb(255,255,0);stop-opacity:1"/></linearGradient>
        <linearGradient id="_Linear23" x1="0" y1="0" x2="1" y2="-0.0555964" gradientUnits="userSpaceOnUse" gradientTransform="matrix(-1.09257,4.65,-5.48776,-0.919243,4.01085,23.9646)"><stop offset="0" style="stop-color:rgb(0,174,114);stop-opacity:1"/><stop offset="0.38" style="stop-color:rgb(41,238,0);stop-opacity:1"/><stop offset="0.77" style="stop-color:rgb(255,139,0);stop-opacity:1"/><stop offset="1" style="stop-color:rgb(255,255,0);stop-opacity:1"/></linearGradient>
        <linearGradient id="_Linear24" x1="0" y1="0" x2="1" y2="0.0755624" gradientUnits="userSpaceOnUse" gradientTransform="matrix(1.17411,3.46837,-4.09594,0.999296,22.7408,24.9706)"><stop offset="0" style="stop-color:rgb(0,110,68);stop-opacity:1"/><stop offset="0.38" style="stop-color:rgb(0,243,54);stop-opacity:1"/><stop offset="0.77" style="stop-color:rgb(255,139,0);stop-opacity:1"/><stop offset="1" style="stop-color:rgb(255,255,0);stop-opacity:1"/></linearGradient>
        <linearGradient id="_Linear25" x1="0" y1="0" x2="1" y2="0.0454556" gradientUnits="userSpaceOnUse" gradientTransform="matrix(0.179949,0.909329,-1.07369,0.153667,1.30673,27.8754)"><stop offset="0" style="stop-color:rgb(0,203,89);stop-opacity:1"/><stop offset="0.38" style="stop-color:rgb(0,203,29);stop-opacity:1"/><stop offset="0.77" style="stop-color:rgb(255,139,0);stop-opacity:1"/><stop offset="1" style="stop-color:rgb(255,255,0);stop-opacity:1"/></linearGradient>
        <linearGradient id="_Linear26" x1="0" y1="0" x2="1" y2="-0.00328806" gradientUnits="userSpaceOnUse" gradientTransform="matrix(0.0208858,-2.15597,2.54505,0.0147762,19.9572,32.5196)"><stop offset="0" style="stop-color:rgb(55,0,0);stop-opacity:1"/><stop offset="1" style="stop-color:rgb(97,98,0);stop-opacity:1"/></linearGradient>
        <linearGradient id="_Linear27" x1="0" y1="0" x2="1" y2="0.00810022" gradientUnits="userSpaceOnUse" gradientTransform="matrix(-0.0984137,-2.59376,3.06201,-0.0868763,22.8601,32.9205)"><stop offset="0" style="stop-color:rgb(55,0,0);stop-opacity:1"/><stop offset="1" style="stop-color:rgb(97,98,0);stop-opacity:1"/></linearGradient>
        <linearGradient id="_Linear28" x1="0" y1="0" x2="1" y2="-0.0137291" gradientUnits="userSpaceOnUse" gradientTransform="matrix(0.179953,-3.36886,3.97664,0.147883,7.90795,33.7461)"><stop offset="0" style="stop-color:rgb(55,0,0);stop-opacity:1"/><stop offset="1" style="stop-color:rgb(97,98,0);stop-opacity:1"/></linearGradient>
    </defs>
</svg>
