<?xml version="1.0" encoding="UTF-8" standalone="no"?>
<!DOCTYPE svg PUBLIC "-//W3C//DTD SVG 1.1//EN" "http://www.w3.org/Graphics/SVG/1.1/DTD/svg11.dtd">
<svg width="30px" height="30px" version="1.1" xmlns="http://www.w3.org/2000/svg" xmlns:xlink="http://www.w3.org/1999/xlink" xml:space="preserve" xmlns:serif="http://www.serif.com/" style="fill-rule:evenodd;clip-rule:evenodd;stroke-linejoin:round;">
    <rect id="outer" x="0" y="0" width="30" height="30" style="fill:none;"/>
    <g id="down">
        <g id="button">
            <rect x="20.303" y="12.623" width="9.5" height="4.125" style="fill:none;stroke:rgb(136,136,136);stroke-width:0.63px;"/>
            <rect x="20.303" y="12.623" width="9.5" height="4.125" style="fill:rgb(221,221,221);"/>
            <rect x="20.642" y="12.917" width="8.822" height="3.536" style="fill:white;"/>
        </g>
        <path id="text" d="M22.225,15.458L22.225,13.434L22.809,13.434C23.395,13.434 23.688,13.763 23.688,14.421C23.688,14.736 23.608,14.988 23.448,15.176C23.288,15.364 23.075,15.458 22.809,15.458L22.225,15.458ZM22.596,13.806L22.596,15.089L22.78,15.089C22.941,15.089 23.068,15.029 23.159,14.911C23.251,14.792 23.297,14.631 23.297,14.427C23.297,14.234 23.251,14.082 23.16,13.971C23.07,13.861 22.942,13.806 22.778,13.806L22.596,13.806Z" style="fill-rule:nonzero;"/>
        <path d="M24.487,15.494C24.291,15.494 24.136,15.426 24.024,15.291C23.912,15.156 23.856,14.973 23.856,14.741C23.856,14.502 23.914,14.315 24.03,14.18C24.147,14.045 24.304,13.978 24.503,13.978C24.699,13.978 24.852,14.045 24.963,14.18C25.074,14.315 25.13,14.494 25.13,14.716C25.13,14.956 25.072,15.146 24.958,15.285C24.843,15.424 24.686,15.494 24.487,15.494ZM24.496,14.319C24.41,14.319 24.344,14.356 24.296,14.428C24.249,14.5 24.225,14.603 24.225,14.736C24.225,15.013 24.316,15.152 24.498,15.152C24.672,15.152 24.759,15.01 24.759,14.724C24.759,14.454 24.672,14.319 24.496,14.319Z" style="fill-rule:nonzero;"/>
        <path d="M27.071,14.013L26.732,15.458L26.35,15.458L26.176,14.612C26.165,14.555 26.158,14.493 26.157,14.427L26.15,14.427C26.144,14.5 26.137,14.56 26.127,14.606L25.941,15.458L25.563,15.458L25.231,14.013L25.601,14.013L25.763,14.956C25.771,15 25.777,15.054 25.781,15.117L25.788,15.117C25.791,15.051 25.798,14.995 25.808,14.95L26.011,14.013L26.357,14.013L26.539,14.956C26.543,14.979 26.548,15.034 26.555,15.12L26.563,15.12C26.567,15.065 26.573,15.011 26.581,14.956L26.734,14.013L27.071,14.013Z" style="fill-rule:nonzero;"/>
        <path d="M28.381,15.458L28.019,15.458L28.019,14.655C28.019,14.431 27.953,14.319 27.823,14.319C27.76,14.319 27.708,14.349 27.668,14.408C27.627,14.468 27.607,14.543 27.607,14.634L27.607,15.458L27.243,15.458L27.243,14.013L27.607,14.013L27.607,14.242L27.611,14.242C27.698,14.066 27.824,13.978 27.99,13.978C28.25,13.978 28.381,14.176 28.381,14.573L28.381,15.458Z" style="fill-rule:nonzero;"/>
    </g>
    <g id="up">
        <g id="button1" serif:id="button">
            <rect x="20.303" y="4.215" width="9.5" height="4.125" style="fill:none;stroke:rgb(136,136,136);stroke-width:0.63px;"/>
            <rect x="20.303" y="4.215" width="9.5" height="4.125" style="fill:rgb(221,221,221);"/>
            <rect x="20.642" y="4.509" width="8.822" height="3.536" style="fill:white;"/>
        </g>
        <path id="text1" serif:id="text" d="M24.864,6.123C24.864,6.731 24.633,7.035 24.172,7.035C23.724,7.035 23.5,6.738 23.5,6.145L23.5,4.976L23.873,4.976L23.873,6.15C23.873,6.478 23.977,6.641 24.185,6.641C24.39,6.641 24.492,6.483 24.492,6.167L24.492,4.976L24.864,4.976L24.864,6.123Z" style="fill-rule:nonzero;"/>
        <path d="M25.555,6.832L25.55,6.832L25.55,7.665L25.187,7.665L25.187,5.555L25.55,5.555L25.55,5.772L25.555,5.772C25.645,5.604 25.771,5.519 25.933,5.519C26.086,5.519 26.204,5.584 26.287,5.712C26.37,5.84 26.412,6.015 26.412,6.236C26.412,6.477 26.363,6.671 26.266,6.817C26.169,6.962 26.04,7.035 25.879,7.035C25.737,7.035 25.629,6.968 25.555,6.832ZM25.545,6.239L25.545,6.355C25.545,6.455 25.566,6.536 25.609,6.599C25.652,6.662 25.708,6.694 25.778,6.694C25.861,6.694 25.925,6.654 25.971,6.576C26.016,6.497 26.039,6.386 26.039,6.242C26.039,5.988 25.959,5.861 25.798,5.861C25.723,5.861 25.663,5.896 25.615,5.965C25.568,6.034 25.545,6.125 25.545,6.239Z" style="fill-rule:nonzero;"/>
    </g>
    <rect x="0.269" y="0.303" width="19.231" height="21.527" style="fill:white;stroke:rgb(191,191,191);stroke-width:0.5px;stroke-linecap:round;stroke-miterlimit:1.5;"/>
    <g id="line">
        <g id="checkbox">
            <rect x="1.313" y="1.48" width="3.392" height="3.385" style="fill:rgb(30,140,188);stroke:black;stroke-width:0.3px;stroke-linecap:round;stroke-miterlimit:1.5;"/>
            <path id="path1542" d="M3.637,1.975C3.602,1.97 3.568,1.988 3.55,2.023L2.81,3.508L2.311,3.08C2.267,3.054 2.212,3.069 2.189,3.116L1.973,3.415C1.95,3.461 1.967,3.52 2.012,3.547C2.012,3.547 2.924,4.358 2.925,4.359C2.936,4.365 2.946,4.368 2.958,4.37C2.993,4.375 3.03,4.358 3.047,4.322L4.045,2.319C4.068,2.273 4.051,2.214 4.007,2.187L3.672,1.986C3.661,1.98 3.649,1.976 3.637,1.975Z" style="fill:white;fill-rule:nonzero;"/>
        </g>
        <path id="text2" serif:id="text" d="M6.695,4.222L5.929,4.222L5.929,1.616L6.102,1.616L6.102,3.946L6.695,3.946L6.695,4.222Z" style="fill-rule:nonzero;"/>
        <path d="M7.339,4.266C7.183,4.266 7.059,4.179 6.966,4.005C6.873,3.831 6.827,3.601 6.827,3.313C6.827,3.001 6.875,2.757 6.972,2.581C7.068,2.406 7.199,2.318 7.364,2.318C7.521,2.318 7.643,2.403 7.731,2.574C7.82,2.745 7.864,2.982 7.864,3.284C7.864,3.581 7.816,3.819 7.721,3.998C7.626,4.176 7.499,4.266 7.339,4.266ZM7.351,2.568C7.243,2.568 7.157,2.634 7.094,2.764C7.031,2.894 6.999,3.074 6.999,3.303C6.999,3.523 7.031,3.697 7.095,3.824C7.159,3.951 7.244,4.015 7.351,4.015C7.46,4.015 7.544,3.952 7.603,3.828C7.661,3.703 7.691,3.525 7.691,3.295C7.691,3.063 7.661,2.883 7.603,2.757C7.544,2.631 7.46,2.568 7.351,2.568Z" style="fill-rule:nonzero;"/>
        <path d="M8.683,2.663C8.653,2.623 8.611,2.603 8.555,2.603C8.483,2.603 8.423,2.663 8.374,2.783C8.326,2.903 8.302,3.066 8.302,3.273L8.302,4.222L8.133,4.222L8.133,2.361L8.302,2.361L8.302,2.745L8.306,2.745C8.33,2.614 8.367,2.512 8.416,2.439C8.465,2.365 8.521,2.329 8.582,2.329C8.626,2.329 8.659,2.337 8.683,2.354L8.683,2.663Z" style="fill-rule:nonzero;"/>
        <path d="M9.712,3.366L8.969,3.366C8.971,3.573 9.003,3.733 9.063,3.846C9.124,3.958 9.207,4.015 9.312,4.015C9.431,4.015 9.54,3.946 9.639,3.808L9.639,4.088C9.547,4.206 9.424,4.266 9.272,4.266C9.123,4.266 9.006,4.181 8.921,4.012C8.836,3.843 8.794,3.605 8.794,3.299C8.794,3.009 8.84,2.773 8.933,2.591C9.026,2.409 9.141,2.318 9.279,2.318C9.417,2.318 9.524,2.396 9.599,2.554C9.675,2.711 9.712,2.93 9.712,3.21L9.712,3.366ZM9.54,3.114C9.539,2.942 9.515,2.808 9.469,2.712C9.423,2.616 9.358,2.568 9.276,2.568C9.197,2.568 9.129,2.619 9.073,2.719C9.018,2.82 8.984,2.951 8.971,3.114L9.54,3.114Z" style="fill-rule:nonzero;"/>
        <path d="M11.463,4.222L11.295,4.222L11.295,3.154C11.295,2.948 11.277,2.799 11.241,2.707C11.205,2.614 11.144,2.568 11.059,2.568C10.987,2.568 10.926,2.627 10.875,2.743C10.825,2.859 10.8,2.998 10.8,3.161L10.8,4.222L10.631,4.222L10.631,3.117C10.631,2.751 10.551,2.568 10.391,2.568C10.317,2.568 10.256,2.623 10.208,2.733C10.16,2.843 10.136,2.985 10.136,3.161L10.136,4.222L9.968,4.222L9.968,2.361L10.136,2.361L10.136,2.656L10.14,2.656C10.215,2.43 10.324,2.318 10.468,2.318C10.54,2.318 10.602,2.353 10.656,2.424C10.709,2.495 10.746,2.588 10.766,2.703C10.844,2.446 10.961,2.318 11.116,2.318C11.347,2.318 11.463,2.57 11.463,3.075L11.463,4.222Z" style="fill-rule:nonzero;"/>
        <rect x="12.382" y="1.616" width="0.173" height="2.606" style="fill-rule:nonzero;"/>
        <path d="M13.093,3.953L13.089,3.953L13.089,5.078L12.92,5.078L12.92,2.361L13.089,2.361L13.089,2.688L13.093,2.688C13.176,2.441 13.297,2.318 13.457,2.318C13.593,2.318 13.699,2.401 13.775,2.568C13.851,2.734 13.889,2.957 13.889,3.237C13.889,3.548 13.846,3.798 13.761,3.985C13.675,4.172 13.558,4.266 13.409,4.266C13.272,4.266 13.167,4.161 13.093,3.953ZM13.089,3.203L13.089,3.462C13.089,3.616 13.117,3.747 13.174,3.854C13.23,3.961 13.302,4.015 13.389,4.015C13.492,4.015 13.572,3.946 13.63,3.808C13.688,3.67 13.716,3.478 13.716,3.232C13.716,3.025 13.689,2.862 13.635,2.745C13.581,2.627 13.508,2.568 13.415,2.568C13.317,2.568 13.238,2.629 13.178,2.749C13.119,2.87 13.089,3.021 13.089,3.203Z" style="fill-rule:nonzero;"/>
        <path d="M14.095,4.155L14.095,3.835C14.187,3.955 14.288,4.015 14.399,4.015C14.547,4.015 14.621,3.928 14.621,3.753C14.621,3.704 14.614,3.661 14.602,3.627C14.589,3.592 14.572,3.562 14.55,3.535C14.529,3.508 14.503,3.485 14.474,3.463C14.445,3.442 14.414,3.42 14.38,3.397C14.333,3.364 14.292,3.331 14.257,3.298C14.222,3.265 14.192,3.227 14.169,3.185C14.145,3.144 14.127,3.096 14.115,3.043C14.103,2.989 14.097,2.927 14.097,2.856C14.097,2.768 14.108,2.691 14.131,2.624C14.154,2.557 14.184,2.5 14.222,2.455C14.259,2.409 14.302,2.375 14.351,2.352C14.399,2.329 14.449,2.318 14.5,2.318C14.592,2.318 14.673,2.346 14.745,2.401L14.745,2.703C14.668,2.613 14.579,2.568 14.478,2.568C14.446,2.568 14.418,2.575 14.392,2.588C14.367,2.6 14.345,2.618 14.327,2.641C14.309,2.664 14.295,2.692 14.285,2.724C14.275,2.756 14.27,2.791 14.27,2.83C14.27,2.879 14.275,2.919 14.285,2.952C14.295,2.985 14.309,3.014 14.329,3.039C14.348,3.065 14.371,3.088 14.399,3.108C14.426,3.129 14.457,3.151 14.492,3.175C14.539,3.207 14.581,3.239 14.618,3.273C14.655,3.306 14.686,3.343 14.712,3.385C14.738,3.427 14.758,3.475 14.773,3.53C14.787,3.584 14.794,3.649 14.794,3.724C14.794,3.816 14.782,3.896 14.759,3.964C14.736,4.032 14.706,4.088 14.667,4.133C14.629,4.178 14.584,4.211 14.534,4.233C14.484,4.255 14.432,4.266 14.377,4.266C14.269,4.266 14.175,4.229 14.095,4.155Z" style="fill-rule:nonzero;"/>
        <path d="M15.905,4.222L15.736,4.222L15.736,3.928L15.732,3.928C15.662,4.153 15.554,4.266 15.407,4.266C15.156,4.266 15.03,4.002 15.03,3.473L15.03,2.361L15.198,2.361L15.198,3.426C15.198,3.819 15.283,4.015 15.453,4.015C15.535,4.015 15.603,3.961 15.656,3.854C15.709,3.747 15.736,3.607 15.736,3.433L15.736,2.361L15.905,2.361L15.905,4.222Z" style="fill-rule:nonzero;"/>
        <path d="M17.741,4.222L17.572,4.222L17.572,3.154C17.572,2.948 17.554,2.799 17.518,2.707C17.482,2.614 17.422,2.568 17.337,2.568C17.265,2.568 17.204,2.627 17.153,2.743C17.103,2.859 17.078,2.998 17.078,3.161L17.078,4.222L16.909,4.222L16.909,3.117C16.909,2.751 16.829,2.568 16.669,2.568C16.595,2.568 16.534,2.623 16.486,2.733C16.438,2.843 16.414,2.985 16.414,3.161L16.414,4.222L16.245,4.222L16.245,2.361L16.414,2.361L16.414,2.656L16.418,2.656C16.493,2.43 16.602,2.318 16.745,2.318C16.817,2.318 16.88,2.353 16.934,2.424C16.987,2.495 17.024,2.588 17.044,2.703C17.122,2.446 17.238,2.318 17.393,2.318C17.625,2.318 17.741,2.57 17.741,3.075L17.741,4.222Z" style="fill-rule:nonzero;"/>
        <path d="M18.888,2.361L18.469,4.222L18.303,4.222L17.904,2.361L18.089,2.361L18.356,3.713C18.376,3.813 18.389,3.899 18.393,3.973L18.398,3.973C18.404,3.88 18.415,3.796 18.43,3.72L18.71,2.361L18.888,2.361Z" style="fill-rule:nonzero;"/>
    </g>
    <g id="line1" serif:id="line">
        <g id="checkbox1" serif:id="checkbox">
            <rect x="1.313" y="7.046" width="3.24" height="3.233" style="fill:rgb(30,140,188);stroke:black;stroke-width:0.29px;stroke-linecap:round;stroke-miterlimit:1.5;"/>
            <path id="path15421" serif:id="path1542" d="M3.533,7.518C3.499,7.514 3.466,7.531 3.45,7.564L2.743,8.983L2.266,8.574C2.224,8.549 2.172,8.563 2.15,8.608L1.944,8.894C1.921,8.938 1.938,8.994 1.98,9.02C1.98,9.02 2.852,9.795 2.853,9.795C2.863,9.801 2.873,9.804 2.884,9.806C2.918,9.811 2.952,9.795 2.969,9.76L3.922,7.847C3.944,7.803 3.928,7.746 3.886,7.721L3.566,7.529C3.556,7.523 3.544,7.519 3.533,7.518Z" style="fill:white;fill-rule:nonzero;"/>
        </g>
        <path id="text3" serif:id="text" d="M6.5,9.664L5.722,9.664L5.722,7.176L5.898,7.176L5.898,9.401L6.5,9.401L6.5,9.664Z" style="fill-rule:nonzero;"/>
        <path d="M7.154,9.706C6.996,9.706 6.869,9.623 6.775,9.457C6.681,9.291 6.633,9.071 6.633,8.797C6.633,8.498 6.683,8.265 6.781,8.097C6.879,7.93 7.012,7.846 7.179,7.846C7.339,7.846 7.463,7.927 7.553,8.091C7.642,8.254 7.687,8.48 7.687,8.769C7.687,9.052 7.639,9.28 7.542,9.45C7.446,9.621 7.316,9.706 7.154,9.706ZM7.166,8.085C7.056,8.085 6.969,8.147 6.905,8.272C6.841,8.396 6.809,8.568 6.809,8.786C6.809,8.997 6.841,9.163 6.906,9.284C6.971,9.406 7.058,9.467 7.166,9.467C7.277,9.467 7.362,9.407 7.422,9.288C7.482,9.169 7.511,8.999 7.511,8.779C7.511,8.557 7.482,8.386 7.422,8.266C7.362,8.145 7.277,8.085 7.166,8.085Z" style="fill-rule:nonzero;"/>
        <path d="M8.519,8.176C8.489,8.137 8.446,8.118 8.389,8.118C8.316,8.118 8.255,8.176 8.206,8.29C8.157,8.405 8.132,8.561 8.132,8.759L8.132,9.664L7.961,9.664L7.961,7.887L8.132,7.887L8.132,8.254L8.137,8.254C8.161,8.129 8.198,8.031 8.248,7.961C8.299,7.891 8.355,7.856 8.417,7.856C8.461,7.856 8.495,7.864 8.519,7.881L8.519,8.176Z" style="fill-rule:nonzero;"/>
        <path d="M9.565,8.847L8.81,8.847C8.812,9.045 8.845,9.198 8.906,9.305C8.967,9.413 9.051,9.467 9.159,9.467C9.279,9.467 9.39,9.401 9.491,9.269L9.491,9.536C9.397,9.649 9.273,9.706 9.118,9.706C8.967,9.706 8.848,9.625 8.762,9.464C8.675,9.303 8.632,9.076 8.632,8.783C8.632,8.506 8.679,8.281 8.774,8.107C8.868,7.933 8.985,7.846 9.125,7.846C9.265,7.846 9.374,7.921 9.45,8.071C9.527,8.222 9.565,8.431 9.565,8.698L9.565,8.847ZM9.39,8.606C9.389,8.442 9.365,8.314 9.318,8.222C9.271,8.131 9.206,8.085 9.122,8.085C9.041,8.085 8.973,8.133 8.916,8.229C8.86,8.325 8.825,8.451 8.812,8.606L9.39,8.606Z" style="fill-rule:nonzero;"/>
        <path d="M11.344,9.664L11.173,9.664L11.173,8.644C11.173,8.447 11.155,8.305 11.118,8.217C11.082,8.129 11.02,8.085 10.934,8.085C10.861,8.085 10.798,8.141 10.747,8.252C10.696,8.363 10.67,8.496 10.67,8.651L10.67,9.664L10.499,9.664L10.499,8.609C10.499,8.26 10.418,8.085 10.255,8.085C10.18,8.085 10.118,8.138 10.069,8.242C10.02,8.347 9.996,8.483 9.996,8.651L9.996,9.664L9.825,9.664L9.825,7.887L9.996,7.887L9.996,8.169L10,8.169C10.076,7.953 10.187,7.846 10.333,7.846C10.406,7.846 10.47,7.88 10.524,7.947C10.578,8.015 10.616,8.104 10.636,8.214C10.715,7.968 10.834,7.846 10.991,7.846C11.227,7.846 11.344,8.087 11.344,8.569L11.344,9.664Z" style="fill-rule:nonzero;"/>
        <rect x="12.278" y="7.176" width="0.176" height="2.488" style="fill-rule:nonzero;"/>
        <path d="M13,9.408L12.996,9.408L12.996,10.482L12.825,10.482L12.825,7.887L12.996,7.887L12.996,8.2L13,8.2C13.085,7.964 13.208,7.846 13.37,7.846C13.508,7.846 13.616,7.925 13.693,8.084C13.771,8.244 13.809,8.457 13.809,8.724C13.809,9.021 13.766,9.259 13.679,9.438C13.591,9.617 13.472,9.706 13.321,9.706C13.182,9.706 13.075,9.607 13,9.408ZM12.996,8.691L12.996,8.939C12.996,9.086 13.025,9.211 13.082,9.313C13.14,9.415 13.213,9.467 13.301,9.467C13.405,9.467 13.486,9.401 13.545,9.269C13.604,9.137 13.634,8.954 13.634,8.719C13.634,8.521 13.606,8.366 13.551,8.254C13.496,8.141 13.421,8.085 13.327,8.085C13.228,8.085 13.148,8.143 13.087,8.258C13.026,8.373 12.996,8.517 12.996,8.691Z" style="fill-rule:nonzero;"/>
        <path d="M14.018,9.6L14.018,9.295C14.112,9.409 14.214,9.467 14.327,9.467C14.477,9.467 14.552,9.383 14.552,9.217C14.552,9.169 14.546,9.129 14.533,9.096C14.52,9.063 14.503,9.034 14.481,9.009C14.459,8.983 14.433,8.96 14.404,8.94C14.374,8.92 14.342,8.899 14.308,8.877C14.26,8.845 14.219,8.814 14.183,8.782C14.147,8.75 14.117,8.714 14.093,8.674C14.069,8.635 14.051,8.589 14.039,8.538C14.027,8.487 14.02,8.428 14.02,8.359C14.02,8.276 14.032,8.202 14.055,8.138C14.078,8.074 14.109,8.02 14.147,7.977C14.185,7.933 14.229,7.901 14.278,7.879C14.327,7.857 14.378,7.846 14.43,7.846C14.523,7.846 14.606,7.872 14.679,7.926L14.679,8.214C14.6,8.128 14.51,8.085 14.407,8.085C14.375,8.085 14.346,8.091 14.32,8.104C14.295,8.116 14.272,8.133 14.254,8.155C14.236,8.177 14.221,8.203 14.211,8.234C14.201,8.264 14.196,8.298 14.196,8.335C14.196,8.381 14.201,8.42 14.211,8.451C14.221,8.483 14.236,8.51 14.256,8.535C14.275,8.559 14.299,8.581 14.327,8.601C14.355,8.62 14.386,8.642 14.422,8.665C14.469,8.695 14.512,8.726 14.549,8.758C14.587,8.79 14.619,8.825 14.645,8.865C14.672,8.905 14.692,8.951 14.707,9.003C14.721,9.055 14.728,9.117 14.728,9.189C14.728,9.277 14.716,9.353 14.693,9.418C14.67,9.483 14.639,9.537 14.599,9.579C14.56,9.622 14.516,9.654 14.465,9.675C14.414,9.696 14.36,9.706 14.305,9.706C14.195,9.706 14.099,9.671 14.018,9.6Z" style="fill-rule:nonzero;"/>
        <path d="M15.857,9.664L15.686,9.664L15.686,9.383L15.681,9.383C15.61,9.599 15.5,9.706 15.351,9.706C15.096,9.706 14.968,9.454 14.968,8.95L14.968,7.887L15.139,7.887L15.139,8.904C15.139,9.279 15.225,9.467 15.398,9.467C15.482,9.467 15.551,9.415 15.605,9.313C15.659,9.211 15.686,9.077 15.686,8.911L15.686,7.887L15.857,7.887L15.857,9.664Z" style="fill-rule:nonzero;"/>
        <path d="M17.723,9.664L17.551,9.664L17.551,8.644C17.551,8.447 17.533,8.305 17.496,8.217C17.46,8.129 17.398,8.085 17.312,8.085C17.239,8.085 17.177,8.141 17.125,8.252C17.074,8.363 17.049,8.496 17.049,8.651L17.049,9.664L16.877,9.664L16.877,8.609C16.877,8.26 16.796,8.085 16.634,8.085C16.558,8.085 16.496,8.138 16.448,8.242C16.399,8.347 16.374,8.483 16.374,8.651L16.374,9.664L16.203,9.664L16.203,7.887L16.374,7.887L16.374,8.169L16.379,8.169C16.455,7.953 16.565,7.846 16.711,7.846C16.784,7.846 16.848,7.88 16.902,7.947C16.957,8.015 16.994,8.104 17.014,8.214C17.094,7.968 17.212,7.846 17.369,7.846C17.605,7.846 17.723,8.087 17.723,8.569L17.723,9.664Z" style="fill-rule:nonzero;"/>
        <path d="M18.888,7.887L18.462,9.664L18.294,9.664L17.888,7.887L18.076,7.887L18.348,9.179C18.368,9.273 18.381,9.356 18.386,9.427L18.39,9.427C18.397,9.338 18.408,9.257 18.423,9.186L18.707,7.887L18.888,7.887Z" style="fill-rule:nonzero;"/>
    </g>
    <g id="line2" serif:id="line">
        <g id="checkbox2" serif:id="checkbox">
            <rect x="1.313" y="12.45" width="3.271" height="3.265" style="fill:none;stroke:black;stroke-width:0.29px;stroke-linecap:round;stroke-miterlimit:1.5;"/>
            <path id="path15422" serif:id="path1542" d="M3.554,12.927C3.521,12.923 3.487,12.94 3.471,12.973L2.757,14.406L2.275,13.993C2.233,13.968 2.18,13.982 2.158,14.027L1.95,14.316C1.927,14.361 1.944,14.417 1.987,14.443C1.987,14.443 2.867,15.225 2.868,15.226C2.878,15.232 2.888,15.235 2.899,15.237C2.933,15.242 2.968,15.225 2.985,15.191L3.948,13.259C3.97,13.214 3.954,13.157 3.911,13.132L3.588,12.938C3.577,12.932 3.566,12.928 3.554,12.927Z" style="fill:white;fill-rule:nonzero;"/>
        </g>
        <path id="text4" serif:id="text" d="M6.55,15.094L5.765,15.094L5.765,12.581L5.942,12.581L5.942,14.828L6.55,14.828L6.55,15.094Z" style="fill-rule:nonzero;"/>
        <path d="M7.211,15.136C7.051,15.136 6.924,15.052 6.828,14.885C6.733,14.717 6.685,14.495 6.685,14.218C6.685,13.917 6.735,13.681 6.834,13.512C6.933,13.342 7.067,13.258 7.236,13.258C7.398,13.258 7.523,13.34 7.614,13.505C7.704,13.669 7.749,13.898 7.749,14.19C7.749,14.476 7.701,14.705 7.603,14.878C7.506,15.05 7.375,15.136 7.211,15.136ZM7.224,13.5C7.113,13.5 7.025,13.562 6.96,13.688C6.895,13.813 6.863,13.987 6.863,14.207C6.863,14.42 6.895,14.588 6.961,14.71C7.026,14.833 7.114,14.894 7.224,14.894C7.336,14.894 7.422,14.834 7.482,14.714C7.542,14.594 7.572,14.422 7.572,14.2C7.572,13.976 7.542,13.803 7.482,13.682C7.422,13.56 7.336,13.5 7.224,13.5Z" style="fill-rule:nonzero;"/>
        <path d="M8.59,13.591C8.559,13.552 8.516,13.533 8.459,13.533C8.385,13.533 8.323,13.591 8.273,13.706C8.224,13.822 8.199,13.98 8.199,14.179L8.199,15.094L8.026,15.094L8.026,13.3L8.199,13.3L8.199,13.669L8.203,13.669C8.228,13.543 8.265,13.445 8.316,13.374C8.367,13.304 8.423,13.268 8.486,13.268C8.531,13.268 8.566,13.276 8.59,13.293L8.59,13.591Z" style="fill-rule:nonzero;"/>
        <path d="M9.646,14.269L8.883,14.269C8.886,14.469 8.918,14.623 8.98,14.731C9.042,14.84 9.127,14.894 9.235,14.894C9.357,14.894 9.469,14.828 9.571,14.695L9.571,14.964C9.476,15.079 9.351,15.136 9.194,15.136C9.042,15.136 8.922,15.055 8.834,14.892C8.747,14.729 8.704,14.499 8.704,14.204C8.704,13.925 8.751,13.697 8.847,13.521C8.942,13.346 9.06,13.258 9.202,13.258C9.343,13.258 9.453,13.334 9.53,13.485C9.607,13.637 9.646,13.848 9.646,14.118L9.646,14.269ZM9.469,14.025C9.468,13.859 9.444,13.73 9.396,13.638C9.349,13.546 9.283,13.5 9.199,13.5C9.117,13.5 9.048,13.548 8.991,13.645C8.934,13.742 8.898,13.869 8.885,14.025L9.469,14.025Z" style="fill-rule:nonzero;"/>
        <path d="M11.443,15.094L11.269,15.094L11.269,14.064C11.269,13.865 11.251,13.721 11.214,13.633C11.177,13.544 11.115,13.5 11.028,13.5C10.954,13.5 10.891,13.556 10.839,13.668C10.788,13.78 10.762,13.914 10.762,14.071L10.762,15.094L10.589,15.094L10.589,14.029C10.589,13.676 10.507,13.5 10.343,13.5C10.267,13.5 10.204,13.552 10.155,13.658C10.106,13.764 10.081,13.901 10.081,14.071L10.081,15.094L9.908,15.094L9.908,13.3L10.081,13.3L10.081,13.584L10.085,13.584C10.162,13.366 10.274,13.258 10.421,13.258C10.495,13.258 10.559,13.292 10.614,13.36C10.669,13.429 10.707,13.518 10.727,13.629C10.807,13.382 10.927,13.258 11.086,13.258C11.324,13.258 11.443,13.501 11.443,13.988L11.443,15.094Z" style="fill-rule:nonzero;"/>
        <rect x="12.385" y="12.581" width="0.177" height="2.513" style="fill-rule:nonzero;"/>
        <path d="M13.114,14.835L13.11,14.835L13.11,15.919L12.937,15.919L12.937,13.3L13.11,13.3L13.11,13.615L13.114,13.615C13.2,13.377 13.324,13.258 13.488,13.258C13.627,13.258 13.736,13.338 13.814,13.499C13.892,13.659 13.931,13.875 13.931,14.144C13.931,14.445 13.887,14.685 13.799,14.865C13.712,15.046 13.591,15.136 13.438,15.136C13.298,15.136 13.19,15.036 13.114,14.835ZM13.11,14.111L13.11,14.362C13.11,14.51 13.139,14.636 13.197,14.739C13.255,14.843 13.329,14.894 13.418,14.894C13.523,14.894 13.605,14.828 13.665,14.695C13.724,14.561 13.754,14.376 13.754,14.139C13.754,13.939 13.726,13.783 13.671,13.669C13.615,13.556 13.54,13.5 13.445,13.5C13.344,13.5 13.263,13.558 13.202,13.674C13.141,13.79 13.11,13.936 13.11,14.111Z" style="fill-rule:nonzero;"/>
        <path d="M14.143,15.029L14.143,14.721C14.237,14.837 14.341,14.894 14.454,14.894C14.606,14.894 14.682,14.81 14.682,14.642C14.682,14.594 14.675,14.554 14.662,14.52C14.649,14.487 14.632,14.457 14.61,14.432C14.587,14.406 14.561,14.383 14.531,14.363C14.502,14.342 14.469,14.321 14.435,14.299C14.387,14.267 14.345,14.235 14.309,14.203C14.273,14.171 14.242,14.135 14.218,14.094C14.194,14.054 14.175,14.008 14.163,13.957C14.151,13.905 14.145,13.845 14.145,13.776C14.145,13.692 14.156,13.618 14.179,13.553C14.203,13.488 14.234,13.434 14.272,13.39C14.311,13.346 14.355,13.313 14.405,13.291C14.454,13.269 14.506,13.258 14.558,13.258C14.652,13.258 14.736,13.285 14.81,13.338L14.81,13.629C14.73,13.543 14.639,13.5 14.535,13.5C14.503,13.5 14.474,13.506 14.448,13.518C14.422,13.53 14.399,13.547 14.381,13.57C14.362,13.592 14.347,13.618 14.337,13.649C14.327,13.68 14.322,13.714 14.322,13.752C14.322,13.799 14.327,13.838 14.337,13.869C14.347,13.901 14.362,13.929 14.382,13.953C14.402,13.978 14.426,14 14.454,14.02C14.482,14.04 14.514,14.061 14.55,14.085C14.598,14.115 14.641,14.146 14.679,14.179C14.717,14.211 14.749,14.247 14.776,14.287C14.803,14.327 14.823,14.374 14.838,14.426C14.852,14.479 14.859,14.542 14.859,14.614C14.859,14.703 14.847,14.78 14.824,14.845C14.8,14.911 14.769,14.965 14.729,15.008C14.69,15.051 14.645,15.084 14.593,15.105C14.542,15.126 14.488,15.136 14.432,15.136C14.321,15.136 14.224,15.101 14.143,15.029Z" style="fill-rule:nonzero;"/>
        <path d="M15.999,15.094L15.826,15.094L15.826,14.81L15.822,14.81C15.75,15.028 15.639,15.136 15.488,15.136C15.231,15.136 15.102,14.881 15.102,14.372L15.102,13.3L15.274,13.3L15.274,14.327C15.274,14.705 15.361,14.894 15.536,14.894C15.62,14.894 15.69,14.843 15.744,14.739C15.799,14.636 15.826,14.501 15.826,14.334L15.826,13.3L15.999,13.3L15.999,15.094Z" style="fill-rule:nonzero;"/>
        <path d="M17.883,15.094L17.71,15.094L17.71,14.064C17.71,13.865 17.692,13.721 17.655,13.633C17.618,13.544 17.556,13.5 17.468,13.5C17.395,13.5 17.332,13.556 17.28,13.668C17.228,13.78 17.202,13.914 17.202,14.071L17.202,15.094L17.029,15.094L17.029,14.029C17.029,13.676 16.947,13.5 16.783,13.5C16.707,13.5 16.645,13.552 16.596,13.658C16.546,13.764 16.522,13.901 16.522,14.071L16.522,15.094L16.349,15.094L16.349,13.3L16.522,13.3L16.522,13.584L16.526,13.584C16.603,13.366 16.714,13.258 16.861,13.258C16.935,13.258 17,13.292 17.055,13.36C17.11,13.429 17.147,13.518 17.168,13.629C17.248,13.382 17.367,13.258 17.526,13.258C17.764,13.258 17.883,13.501 17.883,13.988L17.883,15.094Z" style="fill-rule:nonzero;"/>
        <path d="M19.06,13.3L18.629,15.094L18.46,15.094L18.05,13.3L18.24,13.3L18.514,14.603C18.535,14.699 18.547,14.783 18.552,14.854L18.557,14.854C18.564,14.764 18.575,14.683 18.59,14.61L18.877,13.3L19.06,13.3Z" style="fill-rule:nonzero;"/>
    </g>
</svg>
