<?xml version="1.0" encoding="UTF-8" standalone="no"?>
<!DOCTYPE svg PUBLIC "-//W3C//DTD SVG 1.1//EN" "http://www.w3.org/Graphics/SVG/1.1/DTD/svg11.dtd">
<svg width="30px" height="30px" version="1.1" xmlns="http://www.w3.org/2000/svg" xmlns:xlink="http://www.w3.org/1999/xlink" xml:space="preserve" xmlns:serif="http://www.serif.com/" style="fill-rule:evenodd;clip-rule:evenodd;stroke-linejoin:round;stroke-miterlimit:2;">
    <rect id="outer" x="0" y="0" width="30" height="30" style="fill:white;stroke:rgb(128,128,128);stroke-width:1px;"/>
    <g id="scrollbar">
        <path d="M29.5,2.491L29.5,27.509C29.5,28.608 28.926,29.5 28.22,29.5L25.66,29.5C24.954,29.5 24.38,28.608 24.38,27.509L24.38,2.491C24.38,1.392 24.954,0.5 25.66,0.5L28.22,0.5C28.926,0.5 29.5,1.392 29.5,2.491Z" style="fill:rgb(128,128,128);"/>
        <path d="M29.5,2.192L29.5,5.575C29.5,6.509 29.013,7.267 28.413,7.267L25.467,7.267C24.867,7.267 24.38,6.509 24.38,5.575L24.38,2.192C24.38,1.258 24.867,0.5 25.467,0.5L28.413,0.5C29.013,0.5 29.5,1.258 29.5,2.192Z" style="fill:rgb(191,191,191);"/>
        <path d="M29.5,25.15L29.5,28.05C29.5,28.85 29.082,29.5 28.568,29.5L25.312,29.5C24.798,29.5 24.38,28.85 24.38,28.05L24.38,25.15C24.38,24.35 24.798,23.7 25.312,23.7L28.568,23.7C29.082,23.7 29.5,24.35 29.5,25.15Z" style="fill:rgb(191,191,191);"/>
        <path d="M29.425,12.137L29.425,15.831C29.425,16.851 28.894,17.679 28.238,17.679L25.567,17.679C24.912,17.679 24.38,16.851 24.38,15.831L24.38,12.137C24.38,11.118 24.912,10.289 25.567,10.289L28.238,10.289C28.894,10.289 29.425,11.118 29.425,12.137Z" style="fill:rgb(139,173,243);"/>
        <path d="M26.94,28.329L25.697,25.281L28.183,25.281L26.94,28.329Z" style="stroke:black;stroke-width:0.2px;stroke-linecap:round;stroke-miterlimit:1.5;"/>
        <path d="M26.94,2.065L28.183,5.113L25.697,5.113L26.94,2.065Z" style="stroke:black;stroke-width:0.2px;stroke-linecap:round;stroke-miterlimit:1.5;"/>
    </g>
    <g id="text">
        <path id="link-underline" d="M1.408,7.205L22.634,7.205" style="fill:none;fill-rule:nonzero;stroke:rgb(6,69,173);stroke-width:0.3px;stroke-linecap:square;stroke-linejoin:miter;stroke-miterlimit:4;"/>
        <path d="M2.388,5.221L1,5.221L1,1L1.525,1L1.525,4.45L2.388,4.45L2.388,5.221Z" style="fill:rgb(6,69,173);fill-rule:nonzero;"/>
        <path d="M3.445,5.295C3.167,5.295 2.949,5.154 2.79,4.873C2.632,4.591 2.552,4.209 2.552,3.726C2.552,3.228 2.634,2.837 2.799,2.556C2.964,2.274 3.187,2.134 3.467,2.134C3.744,2.134 3.961,2.274 4.117,2.556C4.275,2.837 4.353,3.21 4.353,3.673C4.353,4.173 4.273,4.569 4.11,4.859C3.948,5.15 3.726,5.295 3.445,5.295ZM3.458,2.846C3.336,2.846 3.242,2.921 3.175,3.072C3.108,3.224 3.074,3.437 3.074,3.715C3.074,4.293 3.203,4.583 3.461,4.583C3.707,4.583 3.83,4.285 3.83,3.691C3.83,3.128 3.706,2.846 3.458,2.846Z" style="fill:rgb(6,69,173);fill-rule:nonzero;"/>
        <path d="M5.772,3.046C5.711,2.985 5.638,2.955 5.556,2.955C5.444,2.955 5.357,3.029 5.294,3.177C5.231,3.325 5.201,3.527 5.201,3.782L5.201,5.221L4.687,5.221L4.687,2.207L5.201,2.207L5.201,2.766L5.206,2.766C5.288,2.358 5.434,2.154 5.646,2.154C5.7,2.154 5.742,2.166 5.772,2.19L5.772,3.046Z" style="fill:rgb(6,69,173);fill-rule:nonzero;"/>
        <path d="M7.494,3.979L6.408,3.979C6.425,4.417 6.577,4.635 6.865,4.635C7.048,4.635 7.209,4.557 7.347,4.4L7.347,5.072C7.194,5.221 6.994,5.295 6.748,5.295C6.479,5.295 6.271,5.16 6.122,4.891C5.974,4.621 5.9,4.244 5.9,3.761C5.9,3.261 5.979,2.864 6.14,2.572C6.3,2.28 6.498,2.134 6.732,2.134C6.974,2.134 7.162,2.264 7.295,2.525C7.428,2.786 7.494,3.14 7.494,3.588L7.494,3.979ZM7.017,3.408C7.017,2.977 6.921,2.761 6.728,2.761C6.646,2.761 6.574,2.823 6.514,2.946C6.454,3.07 6.418,3.224 6.405,3.408L7.017,3.408Z" style="fill:rgb(6,69,173);fill-rule:nonzero;"/>
        <path d="M10.443,5.221L9.93,5.221L9.93,3.502C9.93,3.065 9.842,2.846 9.664,2.846C9.58,2.846 9.511,2.912 9.458,3.043C9.404,3.175 9.378,3.339 9.378,3.535L9.378,5.221L8.864,5.221L8.864,3.485C8.864,3.059 8.777,2.846 8.603,2.846C8.515,2.846 8.445,2.909 8.392,3.034C8.339,3.16 8.314,3.331 8.314,3.547L8.314,5.221L7.8,5.221L7.8,2.207L8.314,2.207L8.314,2.678L8.319,2.678C8.373,2.517 8.448,2.386 8.543,2.285C8.639,2.184 8.744,2.134 8.857,2.134C9.093,2.134 9.254,2.321 9.34,2.696C9.467,2.321 9.654,2.134 9.9,2.134C10.262,2.134 10.443,2.538 10.443,3.347L10.443,5.221Z" style="fill:rgb(6,69,173);fill-rule:nonzero;"/>
        <rect x="11.818" y="1" width="0.525" height="4.221" style="fill:rgb(6,69,173);"/>
        <path d="M13.343,4.871L13.336,4.871L13.336,6.608L12.822,6.608L12.822,2.207L13.336,2.207L13.336,2.661L13.343,2.661C13.469,2.309 13.648,2.134 13.878,2.134C14.093,2.134 14.26,2.267 14.377,2.536C14.495,2.803 14.553,3.168 14.553,3.629C14.553,4.131 14.485,4.535 14.348,4.839C14.211,5.143 14.029,5.295 13.801,5.295C13.6,5.295 13.447,5.154 13.343,4.871ZM13.328,3.635L13.328,3.876C13.328,4.085 13.358,4.254 13.419,4.386C13.48,4.517 13.559,4.583 13.658,4.583C13.775,4.583 13.866,4.501 13.93,4.337C13.995,4.173 14.027,3.941 14.027,3.641C14.027,3.111 13.913,2.846 13.685,2.846C13.581,2.846 13.495,2.918 13.428,3.062C13.361,3.207 13.328,3.397 13.328,3.635Z" style="fill:rgb(6,69,173);fill-rule:nonzero;"/>
        <path d="M14.778,5.142L14.778,4.388C14.862,4.481 14.946,4.55 15.031,4.594C15.115,4.64 15.194,4.662 15.269,4.662C15.36,4.662 15.432,4.64 15.484,4.594C15.537,4.55 15.563,4.481 15.563,4.388C15.563,4.329 15.551,4.28 15.528,4.241C15.503,4.202 15.473,4.168 15.435,4.139C15.398,4.109 15.357,4.082 15.313,4.059C15.268,4.035 15.225,4.008 15.184,3.979C15.118,3.934 15.06,3.886 15.009,3.834C14.96,3.781 14.917,3.721 14.883,3.653C14.848,3.584 14.823,3.504 14.805,3.414C14.787,3.324 14.778,3.217 14.778,3.093C14.778,2.924 14.799,2.779 14.839,2.658C14.88,2.536 14.934,2.436 15.001,2.359C15.069,2.282 15.147,2.224 15.234,2.188C15.321,2.151 15.412,2.134 15.506,2.134C15.58,2.134 15.655,2.144 15.73,2.164C15.806,2.185 15.881,2.215 15.955,2.255L15.955,2.972C15.89,2.904 15.82,2.852 15.746,2.818C15.672,2.783 15.599,2.766 15.528,2.766C15.494,2.766 15.462,2.772 15.432,2.783C15.402,2.793 15.376,2.809 15.353,2.83C15.331,2.85 15.313,2.877 15.3,2.909C15.287,2.942 15.28,2.978 15.28,3.02C15.28,3.075 15.29,3.121 15.309,3.161C15.329,3.2 15.355,3.234 15.386,3.262C15.417,3.291 15.452,3.316 15.491,3.339C15.529,3.362 15.567,3.385 15.605,3.408C15.674,3.451 15.735,3.499 15.79,3.55C15.846,3.601 15.894,3.661 15.933,3.729C15.973,3.798 16.003,3.878 16.024,3.97C16.045,4.062 16.055,4.173 16.055,4.3C16.055,4.479 16.034,4.631 15.992,4.758C15.948,4.885 15.892,4.988 15.821,5.067C15.75,5.146 15.668,5.204 15.575,5.241C15.483,5.277 15.386,5.295 15.287,5.295C15.104,5.295 14.934,5.244 14.778,5.142Z" style="fill:rgb(6,69,173);fill-rule:nonzero;"/>
        <path d="M17.933,5.221L17.421,5.221L17.421,4.762L17.413,4.762C17.286,5.118 17.117,5.295 16.904,5.295C16.519,5.295 16.325,4.872 16.325,4.026L16.325,2.207L16.838,2.207L16.838,3.944C16.838,4.37 16.931,4.583 17.117,4.583C17.21,4.583 17.283,4.524 17.338,4.408C17.393,4.291 17.421,4.132 17.421,3.932L17.421,2.207L17.933,2.207L17.933,5.221Z" style="fill:rgb(6,69,173);fill-rule:nonzero;"/>
        <path d="M21.008,5.221L20.497,5.221L20.497,3.502C20.497,3.065 20.407,2.846 20.23,2.846C20.145,2.846 20.077,2.912 20.024,3.043C19.97,3.175 19.944,3.339 19.944,3.535L19.944,5.221L19.43,5.221L19.43,3.485C19.43,3.059 19.343,2.846 19.168,2.846C19.08,2.846 19.011,2.909 18.958,3.034C18.906,3.16 18.879,3.331 18.879,3.547L18.879,5.221L18.365,5.221L18.365,2.207L18.879,2.207L18.879,2.678L18.886,2.678C18.939,2.517 19.013,2.386 19.109,2.285C19.205,2.184 19.31,2.134 19.424,2.134C19.659,2.134 19.82,2.321 19.907,2.696C20.033,2.321 20.22,2.134 20.466,2.134C20.828,2.134 21.008,2.538 21.008,3.347L21.008,5.221Z" style="fill:rgb(6,69,173);fill-rule:nonzero;"/>
        <path d="M23,2.207L22.381,5.221L21.795,5.221L21.205,2.207L21.755,2.207L22.044,4.065C22.077,4.275 22.095,4.453 22.101,4.6L22.108,4.6C22.115,4.461 22.136,4.288 22.168,4.082L22.463,2.207L23,2.207Z" style="fill:rgb(6,69,173);fill-rule:nonzero;"/>
        <path id="red" d="M2.714,13.387L2.38,13.387L1.98,12.438C1.944,12.35 1.908,12.274 1.874,12.212C1.839,12.15 1.804,12.099 1.768,12.06C1.732,12.02 1.693,11.992 1.651,11.974C1.609,11.956 1.562,11.946 1.51,11.946L1.28,11.946L1.28,13.387L1,13.387L1,10L1.714,10C1.818,10 1.914,10.019 2.003,10.056C2.091,10.093 2.168,10.149 2.233,10.224C2.298,10.3 2.349,10.394 2.385,10.507C2.422,10.619 2.44,10.751 2.44,10.902C2.44,11.02 2.428,11.129 2.403,11.227C2.378,11.326 2.342,11.413 2.296,11.491C2.25,11.568 2.195,11.633 2.13,11.688C2.065,11.742 1.991,11.784 1.91,11.814L1.91,11.824C1.95,11.849 1.985,11.878 2.014,11.91C2.044,11.942 2.072,11.98 2.099,12.024C2.125,12.069 2.152,12.119 2.178,12.174C2.204,12.23 2.233,12.295 2.265,12.369L2.714,13.387ZM1.28,10.359L1.28,11.587L1.66,11.587C1.73,11.587 1.795,11.572 1.854,11.543C1.914,11.513 1.965,11.47 2.009,11.414C2.052,11.358 2.086,11.289 2.11,11.208C2.135,11.127 2.147,11.036 2.147,10.935C2.147,10.754 2.106,10.613 2.023,10.511C1.94,10.41 1.82,10.359 1.664,10.359L1.28,10.359Z" style="fill:rgb(215,30,50);fill-rule:nonzero;"/>
        <path d="M4.278,12.275L3.072,12.275C3.077,12.544 3.128,12.752 3.226,12.898C3.324,13.045 3.458,13.118 3.629,13.118C3.821,13.118 3.998,13.028 4.159,12.849L4.159,13.213C4.009,13.367 3.811,13.444 3.564,13.444C3.323,13.444 3.133,13.334 2.996,13.115C2.858,12.895 2.789,12.586 2.789,12.187C2.789,11.811 2.864,11.504 3.015,11.267C3.165,11.03 3.352,10.912 3.576,10.912C3.799,10.912 3.972,11.014 4.094,11.219C4.217,11.424 4.278,11.708 4.278,12.072L4.278,12.275ZM3.998,11.946C3.997,11.723 3.958,11.549 3.883,11.424C3.808,11.3 3.704,11.238 3.571,11.238C3.442,11.238 3.332,11.303 3.242,11.434C3.152,11.565 3.097,11.735 3.076,11.946L3.998,11.946Z" style="fill:rgb(215,30,50);fill-rule:nonzero;"/>
        <path d="M6.148,13.387L5.875,13.387L5.875,12.976L5.868,12.976C5.742,13.288 5.546,13.444 5.281,13.444C5.067,13.444 4.895,13.336 4.767,13.119C4.639,12.903 4.574,12.608 4.574,12.235C4.574,11.835 4.646,11.514 4.788,11.273C4.93,11.032 5.12,10.912 5.356,10.912C5.591,10.912 5.762,11.043 5.868,11.304L5.875,11.304L5.875,9.806L6.148,9.806L6.148,13.387ZM5.875,12.294L5.875,11.937C5.875,11.742 5.829,11.576 5.738,11.441C5.647,11.306 5.531,11.238 5.391,11.238C5.225,11.238 5.094,11.324 4.998,11.498C4.902,11.671 4.855,11.91 4.855,12.216C4.855,12.494 4.9,12.715 4.992,12.876C5.084,13.037 5.207,13.118 5.361,13.118C5.514,13.118 5.637,13.04 5.732,12.884C5.827,12.728 5.875,12.531 5.875,12.294Z" style="fill:rgb(215,30,50);fill-rule:nonzero;"/>
        <path id="blue" d="M7,13.387L7,10L7.68,10C7.887,10 8.051,10.072 8.172,10.215C8.293,10.358 8.354,10.545 8.354,10.775C8.354,10.967 8.317,11.134 8.244,11.276C8.17,11.417 8.069,11.518 7.94,11.578L7.94,11.587C8.101,11.614 8.23,11.7 8.327,11.846C8.424,11.992 8.472,12.181 8.472,12.414C8.472,12.704 8.399,12.939 8.252,13.118C8.105,13.298 7.92,13.387 7.697,13.387L7,13.387ZM7.28,10.359L7.28,11.453L7.567,11.453C7.72,11.453 7.841,11.4 7.929,11.296C8.016,11.191 8.06,11.043 8.06,10.853C8.06,10.524 7.908,10.359 7.602,10.359L7.28,10.359ZM7.28,11.809L7.28,13.028L7.66,13.028C7.825,13.028 7.952,12.973 8.043,12.863C8.133,12.753 8.179,12.602 8.179,12.409C8.179,12.009 7.986,11.809 7.602,11.809L7.28,11.809Z" style="fill:rgb(52,30,215);fill-rule:nonzero;"/>
        <rect x="8.921" y="9.806" width="0.273" height="3.581" style="fill:rgb(52,30,215);fill-rule:nonzero;"/>
        <path d="M11.128,13.387L10.855,13.387L10.855,13.005L10.848,13.005C10.735,13.298 10.559,13.444 10.321,13.444C9.914,13.444 9.711,13.101 9.711,12.414L9.711,10.969L9.983,10.969L9.983,12.353C9.983,12.863 10.12,13.118 10.396,13.118C10.529,13.118 10.639,13.048 10.725,12.909C10.811,12.77 10.855,12.587 10.855,12.362L10.855,10.969L11.128,10.969L11.128,13.387Z" style="fill:rgb(52,30,215);fill-rule:nonzero;"/>
        <path d="M13.052,12.275L11.847,12.275C11.851,12.544 11.902,12.752 12,12.898C12.098,13.045 12.232,13.118 12.403,13.118C12.596,13.118 12.772,13.028 12.934,12.849L12.934,13.213C12.784,13.367 12.585,13.444 12.338,13.444C12.097,13.444 11.908,13.334 11.77,13.115C11.632,12.895 11.563,12.586 11.563,12.187C11.563,11.811 11.638,11.504 11.789,11.267C11.94,11.03 12.127,10.912 12.35,10.912C12.573,10.912 12.746,11.014 12.869,11.219C12.991,11.424 13.052,11.708 13.052,12.072L13.052,12.275ZM12.772,11.946C12.771,11.723 12.733,11.549 12.658,11.424C12.583,11.3 12.478,11.238 12.345,11.238C12.216,11.238 12.107,11.303 12.017,11.434C11.927,11.565 11.871,11.735 11.85,11.946L12.772,11.946Z" style="fill:rgb(52,30,215);fill-rule:nonzero;"/>
        <path id="blue1" serif:id="blue" d="M15.691,13.156C15.451,13.348 15.184,13.444 14.891,13.444C14.549,13.444 14.273,13.288 14.063,12.976C13.852,12.665 13.747,12.252 13.747,11.739C13.747,11.214 13.864,10.784 14.098,10.448C14.332,10.111 14.628,9.943 14.987,9.943C15.247,9.943 15.466,10.003 15.643,10.123L15.643,10.562C15.449,10.389 15.22,10.302 14.956,10.302C14.688,10.302 14.468,10.433 14.297,10.694C14.126,10.956 14.04,11.294 14.04,11.71C14.04,12.139 14.12,12.475 14.279,12.72C14.438,12.965 14.653,13.087 14.926,13.087C15.112,13.087 15.274,13.035 15.411,12.929L15.411,11.98L14.887,11.98L14.887,11.62L15.691,11.62L15.691,13.156Z" style="fill:rgb(30,215,98);fill-rule:nonzero;"/>
        <path d="M17.1,11.361C17.052,11.309 16.983,11.283 16.893,11.283C16.776,11.283 16.679,11.361 16.6,11.517C16.522,11.672 16.483,11.885 16.483,12.154L16.483,13.387L16.209,13.387L16.209,10.969L16.483,10.969L16.483,11.467L16.489,11.467C16.528,11.297 16.588,11.164 16.668,11.069C16.748,10.974 16.837,10.926 16.936,10.926C17.007,10.926 17.062,10.937 17.1,10.959L17.1,11.361Z" style="fill:rgb(30,215,98);fill-rule:nonzero;"/>
        <path d="M18.768,12.275L17.563,12.275C17.568,12.544 17.619,12.752 17.716,12.898C17.814,13.045 17.949,13.118 18.12,13.118C18.312,13.118 18.489,13.028 18.65,12.849L18.65,13.213C18.5,13.367 18.302,13.444 18.055,13.444C17.814,13.444 17.624,13.334 17.486,13.115C17.349,12.895 17.28,12.586 17.28,12.187C17.28,11.811 17.355,11.504 17.506,11.267C17.656,11.03 17.843,10.912 18.067,10.912C18.29,10.912 18.463,11.014 18.585,11.219C18.707,11.424 18.768,11.708 18.768,12.072L18.768,12.275ZM18.488,11.946C18.487,11.723 18.449,11.549 18.374,11.424C18.299,11.3 18.195,11.238 18.062,11.238C17.933,11.238 17.823,11.303 17.733,11.434C17.643,11.565 17.588,11.735 17.566,11.946L18.488,11.946Z" style="fill:rgb(30,215,98);fill-rule:nonzero;"/>
        <path d="M20.554,12.275L19.349,12.275C19.353,12.544 19.404,12.752 19.502,12.898C19.6,13.045 19.734,13.118 19.906,13.118C20.098,13.118 20.275,13.028 20.436,12.849L20.436,13.213C20.286,13.367 20.087,13.444 19.841,13.444C19.599,13.444 19.41,13.334 19.272,13.115C19.134,12.895 19.065,12.586 19.065,12.187C19.065,11.811 19.141,11.504 19.291,11.267C19.442,11.03 19.629,10.912 19.852,10.912C20.076,10.912 20.248,11.014 20.371,11.219C20.493,11.424 20.554,11.708 20.554,12.072L20.554,12.275ZM20.274,11.946C20.273,11.723 20.235,11.549 20.16,11.424C20.085,11.3 19.981,11.238 19.847,11.238C19.718,11.238 19.609,11.303 19.519,11.434C19.429,11.565 19.373,11.735 19.352,11.946L20.274,11.946Z" style="fill:rgb(30,215,98);fill-rule:nonzero;"/>
        <path d="M22.385,13.387L22.111,13.387L22.111,12.008C22.111,11.494 21.979,11.238 21.714,11.238C21.578,11.238 21.465,11.311 21.375,11.456C21.286,11.602 21.241,11.786 21.241,12.008L21.241,13.387L20.968,13.387L20.968,10.969L21.241,10.969L21.241,11.37L21.248,11.37C21.377,11.065 21.563,10.912 21.808,10.912C21.995,10.912 22.137,10.997 22.236,11.168C22.335,11.339 22.385,11.586 22.385,11.909L22.385,13.387Z" style="fill:rgb(30,215,98);fill-rule:nonzero;"/>
        <g transform="matrix(0.629043,0,0,0.828052,0.0425987,15.7453)">
            <g transform="matrix(5.68643,0,0,5.68643,1,5.20929)">
                <path d="M0.399,-0L0.036,-0L0.184,-0.7L0.269,-0.7L0.136,-0.076L0.415,-0.076L0.399,-0Z" style="fill-rule:nonzero;"/>
            </g>
            <g transform="matrix(5.68643,0,0,5.68643,3.51835,5.20929)">
                <path d="M0.497,-0.315C0.497,-0.271 0.491,-0.229 0.478,-0.189C0.466,-0.149 0.448,-0.115 0.424,-0.085C0.4,-0.055 0.372,-0.031 0.338,-0.014C0.304,0.003 0.266,0.012 0.224,0.012C0.195,0.012 0.17,0.008 0.147,-0.001C0.124,-0.011 0.104,-0.024 0.088,-0.041C0.072,-0.058 0.06,-0.079 0.051,-0.103C0.042,-0.127 0.038,-0.154 0.038,-0.185C0.038,-0.231 0.045,-0.274 0.058,-0.314C0.071,-0.354 0.09,-0.388 0.114,-0.418C0.137,-0.447 0.166,-0.47 0.199,-0.487C0.233,-0.504 0.27,-0.512 0.31,-0.512C0.338,-0.512 0.364,-0.508 0.387,-0.499C0.41,-0.489 0.43,-0.476 0.446,-0.459C0.462,-0.442 0.475,-0.421 0.484,-0.397C0.493,-0.373 0.497,-0.346 0.497,-0.315ZM0.415,-0.311C0.415,-0.332 0.412,-0.351 0.407,-0.367C0.402,-0.384 0.395,-0.398 0.385,-0.409C0.376,-0.42 0.364,-0.429 0.351,-0.435C0.338,-0.441 0.323,-0.444 0.306,-0.444C0.278,-0.444 0.252,-0.437 0.229,-0.422C0.205,-0.407 0.186,-0.388 0.17,-0.364C0.154,-0.34 0.142,-0.313 0.133,-0.282C0.124,-0.252 0.12,-0.221 0.12,-0.189C0.12,-0.169 0.123,-0.15 0.128,-0.134C0.133,-0.118 0.14,-0.104 0.149,-0.092C0.158,-0.08 0.17,-0.072 0.183,-0.065C0.197,-0.059 0.212,-0.056 0.229,-0.056C0.258,-0.056 0.284,-0.063 0.307,-0.078C0.33,-0.092 0.35,-0.112 0.366,-0.135C0.382,-0.159 0.394,-0.187 0.402,-0.217C0.411,-0.248 0.415,-0.279 0.415,-0.311Z" style="fill-rule:nonzero;"/>
            </g>
            <g transform="matrix(5.68643,0,0,5.68643,6.56148,5.20929)">
                <path d="M0.374,-0.415L0.372,-0.415C0.366,-0.419 0.357,-0.423 0.346,-0.427C0.336,-0.43 0.325,-0.432 0.315,-0.432C0.296,-0.432 0.278,-0.426 0.261,-0.414C0.243,-0.402 0.228,-0.385 0.214,-0.365C0.199,-0.345 0.187,-0.323 0.177,-0.297C0.166,-0.271 0.158,-0.245 0.152,-0.218L0.105,-0L0.025,-0L0.095,-0.332C0.098,-0.346 0.101,-0.36 0.104,-0.375C0.107,-0.39 0.11,-0.405 0.112,-0.42C0.115,-0.435 0.117,-0.449 0.119,-0.463C0.121,-0.477 0.122,-0.489 0.123,-0.5L0.202,-0.5C0.201,-0.49 0.2,-0.48 0.199,-0.469C0.197,-0.458 0.196,-0.448 0.195,-0.437C0.194,-0.427 0.192,-0.418 0.191,-0.409C0.19,-0.401 0.189,-0.395 0.188,-0.39L0.19,-0.39C0.2,-0.409 0.211,-0.425 0.222,-0.44C0.232,-0.455 0.244,-0.468 0.256,-0.479C0.267,-0.489 0.28,-0.498 0.293,-0.503C0.307,-0.509 0.321,-0.512 0.337,-0.512C0.346,-0.512 0.355,-0.511 0.364,-0.51C0.373,-0.508 0.381,-0.506 0.388,-0.504L0.374,-0.415Z" style="fill-rule:nonzero;"/>
            </g>
            <g transform="matrix(5.68643,0,0,5.68643,8.58561,5.20929)">
                <path d="M0.468,-0.383C0.468,-0.356 0.462,-0.332 0.45,-0.311C0.438,-0.289 0.419,-0.271 0.392,-0.255C0.365,-0.24 0.329,-0.228 0.285,-0.219C0.241,-0.211 0.186,-0.206 0.121,-0.206C0.12,-0.202 0.12,-0.199 0.12,-0.195L0.12,-0.185C0.12,-0.167 0.123,-0.151 0.127,-0.135C0.132,-0.12 0.14,-0.106 0.15,-0.094C0.16,-0.083 0.174,-0.073 0.19,-0.066C0.206,-0.06 0.225,-0.056 0.247,-0.056C0.27,-0.056 0.294,-0.06 0.321,-0.069C0.348,-0.078 0.374,-0.09 0.398,-0.106L0.383,-0.027C0.365,-0.016 0.344,-0.007 0.319,0C0.294,0.008 0.266,0.012 0.236,0.012C0.199,0.012 0.168,0.007 0.143,-0.005C0.118,-0.016 0.097,-0.031 0.082,-0.051C0.066,-0.07 0.055,-0.092 0.048,-0.116C0.042,-0.141 0.038,-0.167 0.038,-0.195C0.038,-0.224 0.041,-0.252 0.048,-0.28C0.054,-0.307 0.064,-0.332 0.075,-0.355C0.087,-0.379 0.102,-0.4 0.118,-0.42C0.135,-0.439 0.153,-0.456 0.173,-0.469C0.194,-0.483 0.215,-0.493 0.238,-0.501C0.261,-0.508 0.285,-0.512 0.31,-0.512C0.336,-0.512 0.358,-0.509 0.378,-0.502C0.398,-0.495 0.414,-0.486 0.427,-0.474C0.441,-0.462 0.451,-0.448 0.458,-0.433C0.464,-0.417 0.468,-0.4 0.468,-0.383ZM0.386,-0.379C0.386,-0.399 0.379,-0.415 0.364,-0.427C0.348,-0.438 0.328,-0.444 0.303,-0.444C0.283,-0.444 0.264,-0.44 0.246,-0.431C0.227,-0.422 0.21,-0.41 0.194,-0.395C0.179,-0.38 0.165,-0.362 0.154,-0.341C0.142,-0.32 0.134,-0.297 0.129,-0.273C0.175,-0.273 0.215,-0.275 0.248,-0.28C0.28,-0.285 0.307,-0.292 0.327,-0.301C0.348,-0.31 0.363,-0.321 0.372,-0.334C0.382,-0.347 0.386,-0.362 0.386,-0.379Z" style="fill-rule:nonzero;"/>
            </g>
            <g transform="matrix(5.68643,0,0,5.68643,11.3539,5.20929)">
                <path d="M0.807,-0.374C0.807,-0.37 0.807,-0.363 0.805,-0.355C0.804,-0.346 0.803,-0.337 0.801,-0.327C0.799,-0.317 0.797,-0.308 0.796,-0.298C0.794,-0.288 0.792,-0.28 0.791,-0.274L0.732,-0L0.652,-0L0.713,-0.293C0.714,-0.299 0.715,-0.305 0.717,-0.312C0.718,-0.318 0.719,-0.325 0.72,-0.332C0.722,-0.338 0.722,-0.345 0.723,-0.35C0.724,-0.356 0.724,-0.361 0.724,-0.364C0.724,-0.389 0.719,-0.409 0.708,-0.423C0.696,-0.437 0.679,-0.444 0.656,-0.444C0.643,-0.444 0.631,-0.441 0.617,-0.435C0.604,-0.43 0.591,-0.422 0.579,-0.412C0.566,-0.402 0.554,-0.391 0.543,-0.378C0.531,-0.365 0.521,-0.351 0.511,-0.336C0.501,-0.321 0.493,-0.306 0.486,-0.291C0.479,-0.275 0.474,-0.26 0.471,-0.245L0.419,-0L0.338,-0L0.4,-0.293C0.401,-0.299 0.403,-0.305 0.404,-0.312C0.405,-0.318 0.406,-0.325 0.407,-0.332C0.409,-0.338 0.41,-0.345 0.41,-0.35C0.411,-0.356 0.411,-0.361 0.411,-0.364C0.411,-0.389 0.405,-0.409 0.394,-0.423C0.383,-0.437 0.366,-0.444 0.343,-0.444C0.33,-0.444 0.317,-0.441 0.304,-0.435C0.29,-0.43 0.277,-0.422 0.265,-0.412C0.252,-0.402 0.24,-0.39 0.228,-0.377C0.217,-0.364 0.206,-0.35 0.197,-0.335C0.187,-0.32 0.179,-0.305 0.172,-0.29C0.165,-0.274 0.16,-0.259 0.157,-0.244L0.105,-0L0.024,-0L0.101,-0.357C0.104,-0.37 0.106,-0.383 0.109,-0.397C0.111,-0.411 0.114,-0.424 0.116,-0.437C0.118,-0.45 0.12,-0.462 0.122,-0.473C0.124,-0.484 0.125,-0.493 0.126,-0.5L0.204,-0.5C0.202,-0.487 0.201,-0.474 0.198,-0.46C0.196,-0.446 0.194,-0.434 0.192,-0.422C0.19,-0.408 0.188,-0.395 0.186,-0.382L0.188,-0.382C0.2,-0.401 0.212,-0.418 0.226,-0.434C0.24,-0.45 0.254,-0.464 0.27,-0.475C0.285,-0.487 0.301,-0.496 0.317,-0.502C0.334,-0.509 0.351,-0.512 0.369,-0.512C0.39,-0.512 0.408,-0.509 0.423,-0.503C0.438,-0.497 0.45,-0.488 0.46,-0.477C0.47,-0.466 0.478,-0.452 0.483,-0.436C0.488,-0.42 0.491,-0.402 0.492,-0.383C0.504,-0.401 0.517,-0.418 0.531,-0.434C0.545,-0.45 0.56,-0.463 0.575,-0.475C0.591,-0.486 0.608,-0.496 0.626,-0.502C0.643,-0.509 0.662,-0.512 0.682,-0.512C0.724,-0.512 0.755,-0.5 0.776,-0.476C0.797,-0.452 0.807,-0.418 0.807,-0.374Z" style="fill-rule:nonzero;"/>
            </g>
            <g transform="matrix(5.68643,0,0,5.68643,17.7955,5.20929)">
                <path d="M0.12,-0L0.036,-0L0.184,-0.7L0.269,-0.7L0.12,-0Z" style="fill-rule:nonzero;"/>
            </g>
            <g transform="matrix(5.68643,0,0,5.68643,19.3087,5.20929)">
                <path d="M0.504,-0.325C0.504,-0.301 0.501,-0.276 0.496,-0.25C0.491,-0.224 0.483,-0.199 0.472,-0.174C0.461,-0.149 0.448,-0.125 0.432,-0.103C0.416,-0.08 0.397,-0.06 0.375,-0.043C0.353,-0.026 0.328,-0.013 0.301,-0.003C0.273,0.007 0.243,0.012 0.209,0.012C0.19,0.012 0.171,0.01 0.152,0.007C0.133,0.003 0.117,-0.001 0.103,-0.006L0.053,0.232L-0.028,0.232L0.094,-0.346C0.097,-0.357 0.099,-0.369 0.101,-0.384C0.103,-0.398 0.104,-0.413 0.106,-0.428C0.107,-0.443 0.108,-0.457 0.109,-0.47C0.11,-0.483 0.111,-0.493 0.111,-0.5L0.193,-0.5C0.193,-0.494 0.192,-0.487 0.192,-0.478C0.191,-0.468 0.19,-0.458 0.188,-0.448C0.187,-0.438 0.186,-0.428 0.185,-0.418C0.183,-0.409 0.182,-0.401 0.181,-0.395L0.183,-0.395C0.206,-0.434 0.232,-0.464 0.261,-0.483C0.29,-0.503 0.322,-0.512 0.356,-0.512C0.379,-0.512 0.399,-0.508 0.417,-0.5C0.436,-0.493 0.451,-0.481 0.464,-0.465C0.477,-0.45 0.487,-0.43 0.494,-0.407C0.5,-0.383 0.504,-0.356 0.504,-0.325ZM0.422,-0.322C0.422,-0.339 0.42,-0.356 0.417,-0.371C0.414,-0.386 0.409,-0.398 0.402,-0.409C0.395,-0.42 0.385,-0.428 0.374,-0.435C0.363,-0.441 0.349,-0.444 0.333,-0.444C0.316,-0.444 0.3,-0.44 0.285,-0.433C0.271,-0.426 0.257,-0.417 0.244,-0.405C0.231,-0.394 0.22,-0.38 0.209,-0.365C0.199,-0.349 0.19,-0.333 0.182,-0.316C0.174,-0.3 0.167,-0.283 0.161,-0.266C0.155,-0.25 0.151,-0.234 0.148,-0.219L0.117,-0.074C0.123,-0.072 0.13,-0.069 0.138,-0.067C0.146,-0.065 0.155,-0.063 0.164,-0.062C0.172,-0.06 0.181,-0.059 0.19,-0.058C0.2,-0.057 0.208,-0.056 0.216,-0.056C0.238,-0.056 0.259,-0.06 0.278,-0.067C0.297,-0.075 0.314,-0.085 0.329,-0.098C0.344,-0.111 0.358,-0.126 0.369,-0.143C0.381,-0.161 0.391,-0.179 0.398,-0.199C0.406,-0.219 0.412,-0.239 0.416,-0.26C0.42,-0.281 0.422,-0.302 0.422,-0.322Z" style="fill-rule:nonzero;"/>
            </g>
            <g transform="matrix(5.68643,0,0,5.68643,22.3907,5.20929)">
                <path d="M0.354,-0.412C0.339,-0.422 0.323,-0.429 0.305,-0.435C0.286,-0.441 0.268,-0.444 0.25,-0.444C0.219,-0.444 0.196,-0.437 0.179,-0.423C0.162,-0.409 0.154,-0.39 0.154,-0.367C0.154,-0.358 0.155,-0.349 0.158,-0.341C0.162,-0.333 0.166,-0.326 0.172,-0.319C0.178,-0.312 0.186,-0.305 0.195,-0.299C0.204,-0.292 0.215,-0.285 0.227,-0.278C0.264,-0.257 0.29,-0.235 0.306,-0.213C0.322,-0.19 0.33,-0.165 0.33,-0.137C0.33,-0.118 0.327,-0.1 0.32,-0.082C0.313,-0.064 0.301,-0.048 0.286,-0.034C0.271,-0.02 0.251,-0.009 0.227,-0C0.203,0.008 0.173,0.012 0.138,0.012C0.128,0.012 0.118,0.012 0.106,0.01C0.094,0.009 0.082,0.007 0.071,0.004C0.059,0.002 0.047,-0.001 0.036,-0.005C0.025,-0.009 0.016,-0.013 0.008,-0.018L0.024,-0.094C0.03,-0.09 0.038,-0.085 0.048,-0.081C0.058,-0.076 0.068,-0.072 0.079,-0.068C0.091,-0.065 0.102,-0.062 0.115,-0.06C0.127,-0.057 0.139,-0.056 0.151,-0.056C0.183,-0.056 0.208,-0.063 0.224,-0.076C0.24,-0.089 0.248,-0.107 0.248,-0.13C0.248,-0.138 0.247,-0.146 0.244,-0.153C0.242,-0.16 0.238,-0.168 0.231,-0.175C0.225,-0.182 0.217,-0.189 0.207,-0.197C0.197,-0.204 0.184,-0.212 0.169,-0.221C0.136,-0.241 0.111,-0.262 0.095,-0.284C0.08,-0.306 0.072,-0.331 0.072,-0.359C0.072,-0.379 0.076,-0.398 0.083,-0.417C0.09,-0.435 0.102,-0.451 0.116,-0.466C0.131,-0.48 0.15,-0.491 0.172,-0.5C0.195,-0.508 0.221,-0.512 0.251,-0.512C0.274,-0.512 0.297,-0.51 0.318,-0.505C0.339,-0.501 0.356,-0.495 0.371,-0.488L0.354,-0.412Z" style="fill-rule:nonzero;"/>
            </g>
            <g transform="matrix(5.68643,0,0,5.68643,24.637,5.20929)">
                <path d="M0.454,-0.142C0.451,-0.129 0.448,-0.116 0.446,-0.103C0.444,-0.089 0.441,-0.076 0.439,-0.063C0.437,-0.05 0.435,-0.038 0.433,-0.027C0.431,-0.016 0.43,-0.007 0.429,-0L0.351,-0C0.353,-0.013 0.355,-0.026 0.357,-0.04C0.359,-0.054 0.367,-0.105 0.369,-0.118L0.367,-0.118C0.356,-0.1 0.343,-0.083 0.329,-0.068C0.316,-0.052 0.301,-0.038 0.284,-0.026C0.268,-0.014 0.251,-0.005 0.233,0.002C0.215,0.009 0.196,0.012 0.177,0.012C0.155,0.012 0.136,0.009 0.12,0.002C0.104,-0.004 0.091,-0.014 0.08,-0.026C0.069,-0.038 0.061,-0.052 0.056,-0.069C0.051,-0.086 0.048,-0.105 0.048,-0.126C0.048,-0.13 0.049,-0.137 0.05,-0.145C0.051,-0.153 0.053,-0.163 0.054,-0.172C0.056,-0.182 0.058,-0.192 0.06,-0.201C0.062,-0.211 0.064,-0.219 0.065,-0.226L0.123,-0.5L0.204,-0.5L0.142,-0.207C0.141,-0.202 0.139,-0.196 0.138,-0.189C0.137,-0.182 0.136,-0.175 0.135,-0.168C0.133,-0.162 0.132,-0.155 0.132,-0.15C0.131,-0.144 0.131,-0.139 0.131,-0.136C0.131,-0.112 0.137,-0.092 0.149,-0.078C0.161,-0.063 0.178,-0.056 0.202,-0.056C0.216,-0.056 0.231,-0.059 0.245,-0.065C0.259,-0.071 0.273,-0.079 0.287,-0.089C0.3,-0.099 0.313,-0.11 0.325,-0.123C0.337,-0.136 0.348,-0.15 0.358,-0.165C0.368,-0.18 0.376,-0.195 0.383,-0.211C0.39,-0.227 0.395,-0.242 0.398,-0.256L0.45,-0.5L0.531,-0.5L0.454,-0.142Z" style="fill-rule:nonzero;"/>
            </g>
            <g transform="matrix(5.68643,0,0,5.68643,27.8106,5.20929)">
                <path d="M0.807,-0.374C0.807,-0.37 0.807,-0.363 0.805,-0.355C0.804,-0.346 0.803,-0.337 0.801,-0.327C0.799,-0.317 0.797,-0.308 0.796,-0.298C0.794,-0.288 0.792,-0.28 0.791,-0.274L0.732,-0L0.652,-0L0.713,-0.293C0.714,-0.299 0.715,-0.305 0.717,-0.312C0.718,-0.318 0.719,-0.325 0.72,-0.332C0.722,-0.338 0.722,-0.345 0.723,-0.35C0.724,-0.356 0.724,-0.361 0.724,-0.364C0.724,-0.389 0.719,-0.409 0.708,-0.423C0.696,-0.437 0.679,-0.444 0.656,-0.444C0.643,-0.444 0.631,-0.441 0.617,-0.435C0.604,-0.43 0.591,-0.422 0.579,-0.412C0.566,-0.402 0.554,-0.391 0.543,-0.378C0.531,-0.365 0.521,-0.351 0.511,-0.336C0.501,-0.321 0.493,-0.306 0.486,-0.291C0.479,-0.275 0.474,-0.26 0.471,-0.245L0.419,-0L0.338,-0L0.4,-0.293C0.401,-0.299 0.403,-0.305 0.404,-0.312C0.405,-0.318 0.406,-0.325 0.407,-0.332C0.409,-0.338 0.41,-0.345 0.41,-0.35C0.411,-0.356 0.411,-0.361 0.411,-0.364C0.411,-0.389 0.405,-0.409 0.394,-0.423C0.383,-0.437 0.366,-0.444 0.343,-0.444C0.33,-0.444 0.317,-0.441 0.304,-0.435C0.29,-0.43 0.277,-0.422 0.265,-0.412C0.252,-0.402 0.24,-0.39 0.228,-0.377C0.217,-0.364 0.206,-0.35 0.197,-0.335C0.187,-0.32 0.179,-0.305 0.172,-0.29C0.165,-0.274 0.16,-0.259 0.157,-0.244L0.105,-0L0.024,-0L0.101,-0.357C0.104,-0.37 0.106,-0.383 0.109,-0.397C0.111,-0.411 0.114,-0.424 0.116,-0.437C0.118,-0.45 0.12,-0.462 0.122,-0.473C0.124,-0.484 0.125,-0.493 0.126,-0.5L0.204,-0.5C0.202,-0.487 0.201,-0.474 0.198,-0.46C0.196,-0.446 0.194,-0.434 0.192,-0.422C0.19,-0.408 0.188,-0.395 0.186,-0.382L0.188,-0.382C0.2,-0.401 0.212,-0.418 0.226,-0.434C0.24,-0.45 0.254,-0.464 0.27,-0.475C0.285,-0.487 0.301,-0.496 0.317,-0.502C0.334,-0.509 0.351,-0.512 0.369,-0.512C0.39,-0.512 0.408,-0.509 0.423,-0.503C0.438,-0.497 0.45,-0.488 0.46,-0.477C0.47,-0.466 0.478,-0.452 0.483,-0.436C0.488,-0.42 0.491,-0.402 0.492,-0.383C0.504,-0.401 0.517,-0.418 0.531,-0.434C0.545,-0.45 0.56,-0.463 0.575,-0.475C0.591,-0.486 0.608,-0.496 0.626,-0.502C0.643,-0.509 0.662,-0.512 0.682,-0.512C0.724,-0.512 0.755,-0.5 0.776,-0.476C0.797,-0.452 0.807,-0.418 0.807,-0.374Z" style="fill-rule:nonzero;"/>
            </g>
            <g transform="matrix(5.68643,0,0,5.68643,32.6335,5.20929)">
                <path d="M0.214,-0L0.146,-0L0.067,-0.5L0.148,-0.5L0.192,-0.185C0.193,-0.179 0.194,-0.172 0.195,-0.164C0.195,-0.156 0.196,-0.148 0.197,-0.14C0.198,-0.132 0.198,-0.124 0.199,-0.116C0.199,-0.108 0.199,-0.101 0.199,-0.095L0.201,-0.095C0.204,-0.101 0.207,-0.108 0.21,-0.115C0.214,-0.123 0.217,-0.13 0.222,-0.138C0.226,-0.146 0.23,-0.154 0.235,-0.163C0.239,-0.171 0.243,-0.178 0.247,-0.185L0.426,-0.5L0.517,-0.5L0.214,-0Z" style="fill-rule:nonzero;"/>
            </g>
            <rect x="1" y="5.704" width="34.324" height="0.33"/>
        </g>
    </g>
</svg>
