<?xml version="1.0" encoding="UTF-8" standalone="no"?>
<!DOCTYPE svg PUBLIC "-//W3C//DTD SVG 1.1//EN" "http://www.w3.org/Graphics/SVG/1.1/DTD/svg11.dtd">
<svg width="30px" height="30px" version="1.1" xmlns="http://www.w3.org/2000/svg" xmlns:xlink="http://www.w3.org/1999/xlink" xml:space="preserve" xmlns:serif="http://www.serif.com/" style="fill-rule:evenodd;clip-rule:evenodd;stroke-linecap:square;stroke-miterlimit:1;">
    <g>
        <rect x="2.5" y="2.5" width="25" height="25" style="fill:rgb(204,204,204);"/>
        <path d="M2,28L2,2" style="fill:none;stroke:rgb(217,217,217);stroke-width:0.92px;"/>
        <path d="M2.085,27.983L2.085,1.983" style="fill:none;stroke:rgb(217,217,217);stroke-width:0.92px;"/>
        <path d="M28,2L2,2" style="fill:none;stroke:rgb(217,217,217);stroke-width:0.92px;"/>
        <path d="M28.034,2.068L2.034,2.068" style="fill:none;stroke:rgb(217,217,217);stroke-width:0.92px;"/>
        <path d="M28,3L28,27.5" style="fill:none;stroke:rgb(115,115,115);stroke-width:0.92px;"/>
        <path d="M27.949,2.966L27.949,27.721" style="fill:none;stroke:rgb(115,115,115);stroke-width:0.92px;"/>
        <path d="M28,28L3,28" style="fill:none;stroke:rgb(115,115,115);stroke-width:0.92px;"/>
        <path d="M28,27.847L3,27.847" style="fill:none;stroke:rgb(115,115,115);stroke-width:0.92px;"/>
        <path d="M15.043,2.752L14.957,2.752L14.957,27.252L15.043,27.252L15.043,2.752Z" style="fill:none;stroke:black;stroke-width:0.48px;stroke-linecap:round;stroke-linejoin:round;stroke-miterlimit:1.5;"/>
        <path d="M7.492,14.196C7.36,14.188 7.243,14.117 7.159,14.008C7.076,13.9 7.027,13.754 7.032,13.597C7.031,13.592 7.031,13.588 7.031,13.583C7.031,13.578 7.031,13.574 7.031,13.569C7.031,13.416 7.082,13.276 7.165,13.173C7.249,13.07 7.364,13.003 7.492,12.997L10.223,12.997C10.354,13.006 10.472,13.078 10.555,13.186C10.638,13.295 10.688,13.44 10.684,13.597C10.684,13.602 10.685,13.62 10.685,13.625C10.685,13.777 10.633,13.917 10.55,14.02C10.466,14.124 10.351,14.19 10.223,14.196L7.492,14.196"/>
        <path d="M4.874,12.358C5.149,12.358 5.401,12.493 5.583,12.71C5.766,12.927 5.879,13.226 5.879,13.555C5.879,13.883 5.766,14.182 5.583,14.399C5.401,14.616 5.149,14.751 4.874,14.751C4.598,14.751 4.347,14.616 4.164,14.399C3.982,14.182 3.868,13.883 3.868,13.555C3.868,13.226 3.982,12.927 4.164,12.71C4.347,12.493 4.598,12.358 4.874,12.358"/>
        <path d="M5.229,8.436C5.262,8.395 5.301,8.363 5.344,8.342C5.387,8.321 5.434,8.31 5.481,8.31C5.529,8.31 5.575,8.321 5.618,8.342C5.661,8.364 5.7,8.395 5.733,8.436C5.803,8.52 5.837,8.63 5.837,8.741C5.837,8.851 5.803,8.961 5.733,9.045L5.379,9.467L5.733,9.89C5.768,9.93 5.795,9.977 5.813,10.028C5.832,10.08 5.842,10.136 5.842,10.193C5.842,10.25 5.832,10.306 5.813,10.357C5.795,10.409 5.768,10.456 5.733,10.495C5.7,10.536 5.661,10.567 5.618,10.588C5.576,10.61 5.529,10.621 5.482,10.621C5.435,10.621 5.388,10.609 5.346,10.588C5.303,10.567 5.263,10.536 5.23,10.495L4.876,10.073L4.521,10.495C4.488,10.536 4.448,10.568 4.405,10.589C4.362,10.611 4.315,10.622 4.267,10.622C4.22,10.622 4.173,10.611 4.13,10.589C4.087,10.568 4.047,10.536 4.014,10.495C3.945,10.411 3.91,10.301 3.91,10.191C3.91,10.08 3.945,9.97 4.014,9.886L4.369,9.464L4.014,9.031C3.98,8.99 3.954,8.943 3.936,8.892C3.919,8.841 3.909,8.785 3.909,8.729C3.909,8.612 3.95,8.505 4.015,8.427C4.08,8.349 4.17,8.301 4.269,8.301C4.316,8.301 4.363,8.312 4.406,8.334C4.449,8.355 4.489,8.387 4.523,8.427L4.877,8.849L5.232,8.427L5.229,8.436"/>
        <path d="M3.883,4.821C3.975,4.749 4.084,4.727 4.186,4.752C4.287,4.776 4.381,4.845 4.443,4.955L4.643,5.242L5.353,4.176C5.391,4.12 5.439,4.076 5.492,4.046C5.545,4.016 5.603,4 5.664,4C5.774,4 5.875,4.054 5.948,4.141C6.021,4.228 6.066,4.348 6.066,4.479C6.066,4.535 6.058,4.589 6.043,4.641C6.027,4.692 6.004,4.741 5.974,4.783L4.936,6.333C4.922,6.354 4.907,6.374 4.891,6.392C4.875,6.411 4.857,6.428 4.839,6.443C4.746,6.516 4.637,6.537 4.535,6.513C4.434,6.489 4.34,6.419 4.278,6.31L3.775,5.488C3.713,5.379 3.695,5.249 3.715,5.128C3.735,5.007 3.794,4.895 3.886,4.821L3.883,4.821"/>
        <path d="M7.487,5.86C7.355,5.851 7.238,5.78 7.155,5.672C7.071,5.563 7.022,5.418 7.026,5.261C7.026,5.256 7.025,5.237 7.025,5.232C7.025,5.079 7.077,4.94 7.16,4.836C7.244,4.733 7.359,4.667 7.487,4.661L12.218,4.661C12.35,4.669 12.467,4.74 12.551,4.849C12.634,4.958 12.683,5.103 12.678,5.261C12.678,5.265 12.679,5.27 12.679,5.275C12.679,5.279 12.679,5.284 12.679,5.288C12.679,5.441 12.628,5.581 12.544,5.684C12.461,5.787 12.346,5.854 12.218,5.86L7.487,5.86"/>
        <path d="M7.487,10.027C7.356,10.019 7.238,9.948 7.155,9.84C7.071,9.731 7.022,9.586 7.026,9.429C7.026,9.425 7.025,9.406 7.025,9.402C7.025,9.249 7.077,9.109 7.16,9.006C7.244,8.903 7.359,8.836 7.487,8.83L12.218,8.83C12.349,8.838 12.467,8.909 12.551,9.018C12.634,9.126 12.683,9.272 12.678,9.429C12.678,9.434 12.679,9.439 12.679,9.444C12.679,9.448 12.679,9.453 12.679,9.458C12.679,9.61 12.627,9.75 12.544,9.852C12.461,9.955 12.346,10.022 12.218,10.027L7.487,10.027"/>
        <path d="M21.605,6.646C21.444,6.638 21.301,6.567 21.199,6.458C21.097,6.35 21.037,6.204 21.043,6.047C21.043,6.042 21.043,6.038 21.043,6.033C21.042,6.028 21.042,6.024 21.042,6.019C21.042,5.866 21.105,5.726 21.206,5.623C21.308,5.519 21.449,5.453 21.605,5.447L24.936,5.447C25.097,5.456 25.24,5.527 25.342,5.636C25.444,5.744 25.504,5.89 25.499,6.047C25.499,6.052 25.5,6.07 25.5,6.074C25.5,6.227 25.437,6.367 25.335,6.47C25.234,6.573 25.093,6.64 24.936,6.646L21.605,6.646"/>
        <path d="M18.41,4.808C18.747,4.808 19.053,4.943 19.276,5.16C19.499,5.377 19.637,5.676 19.637,6.004C19.637,6.333 19.499,6.632 19.276,6.849C19.053,7.066 18.747,7.201 18.41,7.201C18.074,7.201 17.767,7.066 17.545,6.849C17.322,6.632 17.184,6.333 17.184,6.004C17.184,5.676 17.322,5.377 17.545,5.16C17.767,4.943 18.074,4.808 18.41,4.808"/>
        <path d="M18.656,13.684C18.689,13.644 18.729,13.612 18.772,13.591C18.815,13.569 18.862,13.558 18.909,13.558C18.956,13.558 19.003,13.569 19.046,13.591C19.089,13.612 19.128,13.644 19.161,13.684C19.23,13.769 19.265,13.879 19.265,13.989C19.265,14.1 19.23,14.21 19.161,14.294L18.807,14.716L19.161,15.139C19.196,15.179 19.223,15.226 19.241,15.277C19.26,15.329 19.269,15.384 19.269,15.441C19.269,15.499 19.26,15.554 19.241,15.606C19.223,15.657 19.196,15.704 19.161,15.744C19.128,15.784 19.089,15.816 19.046,15.837C19.003,15.858 18.957,15.869 18.91,15.869C18.863,15.869 18.816,15.858 18.773,15.837C18.731,15.816 18.691,15.784 18.658,15.744L18.303,15.322L17.949,15.744C17.916,15.785 17.876,15.817 17.833,15.838C17.79,15.86 17.743,15.871 17.695,15.871C17.647,15.871 17.601,15.86 17.557,15.838C17.514,15.816 17.475,15.785 17.441,15.744C17.372,15.66 17.338,15.55 17.338,15.439C17.338,15.329 17.372,15.219 17.441,15.135L17.797,14.713L17.441,14.279C17.408,14.239 17.382,14.192 17.364,14.141C17.346,14.09 17.337,14.034 17.337,13.978C17.337,13.86 17.377,13.753 17.443,13.676C17.508,13.598 17.598,13.55 17.696,13.55C17.744,13.55 17.791,13.561 17.834,13.583C17.877,13.604 17.917,13.636 17.951,13.676L18.305,14.098L18.66,13.676L18.656,13.684"/>
        <path d="M17.289,10.07C17.37,9.998 17.466,9.976 17.555,10C17.644,10.024 17.726,10.094 17.78,10.203L17.956,10.49L18.578,9.424C18.611,9.369 18.653,9.325 18.699,9.295C18.746,9.265 18.797,9.249 18.85,9.249C18.947,9.249 19.035,9.303 19.099,9.39C19.163,9.477 19.203,9.596 19.203,9.728C19.203,9.783 19.196,9.838 19.182,9.889C19.169,9.941 19.149,9.989 19.123,10.032L18.212,11.582C18.2,11.603 18.187,11.623 18.173,11.641C18.158,11.659 18.143,11.676 18.127,11.691C18.046,11.764 17.95,11.786 17.861,11.762C17.772,11.738 17.69,11.668 17.635,11.558L17.194,10.737C17.14,10.627 17.124,10.497 17.142,10.376C17.16,10.255 17.211,10.143 17.292,10.07L17.289,10.07"/>
        <path d="M20.449,11.109C20.333,11.1 20.23,11.029 20.157,10.92C20.084,10.812 20.041,10.666 20.044,10.509C20.044,10.505 20.044,10.486 20.044,10.481C20.044,10.328 20.089,10.188 20.162,10.085C20.235,9.982 20.336,9.915 20.449,9.909L24.596,9.909C24.711,9.918 24.814,9.989 24.888,10.098C24.961,10.206 25.004,10.352 24.999,10.509C25,10.514 25,10.518 25,10.523C25,10.528 25,10.532 25,10.537C25,10.69 24.955,10.83 24.882,10.933C24.809,11.036 24.708,11.103 24.596,11.109L20.449,11.109"/>
        <path d="M20.915,15.275C20.783,15.268 20.666,15.197 20.582,15.088C20.499,14.98 20.449,14.835 20.454,14.678C20.454,14.674 20.453,14.655 20.453,14.65C20.453,14.498 20.504,14.358 20.588,14.255C20.671,14.151 20.787,14.085 20.915,14.079L25.645,14.079C25.777,14.087 25.895,14.158 25.978,14.266C26.062,14.375 26.111,14.521 26.106,14.678C26.106,14.683 26.106,14.687 26.106,14.692C26.107,14.697 26.107,14.702 26.107,14.707C26.107,14.859 26.055,14.998 25.972,15.101C25.889,15.204 25.773,15.27 25.645,15.275L20.915,15.275"/>
    </g>
    <rect id="outer" x="0" y="0" width="30" height="30" style="fill:none;"/>
</svg>
