<?xml version="1.0" encoding="UTF-8" standalone="no"?>
<!DOCTYPE svg PUBLIC "-//W3C//DTD SVG 1.1//EN" "http://www.w3.org/Graphics/SVG/1.1/DTD/svg11.dtd">
<svg width="30px" height="30px" version="1.1" xmlns="http://www.w3.org/2000/svg" xmlns:xlink="http://www.w3.org/1999/xlink" xml:space="preserve" xmlns:serif="http://www.serif.com/" style="fill-rule:evenodd;clip-rule:evenodd;stroke-linejoin:round;stroke-miterlimit:2;">
    <g>
        <g>
            <path d="M2.491,14.856L0.253,14.44C0.505,13.538 0.939,12.87 1.552,12.437C2.166,12.004 3.087,11.787 4.296,11.787C5.415,11.787 6.227,11.913 6.769,12.166C7.31,12.437 7.69,12.762 7.906,13.177C8.141,13.574 8.249,14.314 8.249,15.379L8.213,18.285C8.213,19.097 8.249,19.711 8.339,20.09C8.412,20.487 8.556,20.903 8.773,21.354L6.336,21.354C6.264,21.191 6.191,20.939 6.101,20.614C6.047,20.469 6.029,20.379 6.011,20.325C5.578,20.74 5.126,21.047 4.639,21.264C4.17,21.462 3.646,21.57 3.105,21.57C2.148,21.57 1.39,21.3 0.83,20.776C0.271,20.253 -0,19.603 -0,18.791C-0,18.267 0.126,17.798 0.379,17.383C0.632,16.968 0.975,16.661 1.426,16.426C1.895,16.209 2.545,16.011 3.412,15.848C4.567,15.632 5.361,15.433 5.812,15.253L5.812,15C5.812,14.531 5.686,14.188 5.451,13.989C5.217,13.773 4.783,13.682 4.134,13.682C3.682,13.682 3.339,13.773 3.105,13.935C2.852,14.116 2.653,14.422 2.491,14.856ZM5.812,16.859C5.487,16.968 5,17.094 4.296,17.238C3.61,17.383 3.159,17.527 2.96,17.671C2.635,17.906 2.473,18.195 2.473,18.538C2.473,18.881 2.599,19.188 2.852,19.44C3.123,19.693 3.448,19.82 3.845,19.82C4.296,19.82 4.711,19.675 5.126,19.386C5.415,19.152 5.614,18.881 5.722,18.556C5.776,18.339 5.812,17.942 5.812,17.347L5.812,16.859Z" style="fill-rule:nonzero;"/>
        </g>
        <g>
            <path d="M10.58,21.354L10.58,8.43L13.053,8.43L13.053,13.087C13.811,12.22 14.732,11.787 15.779,11.787C16.916,11.787 17.855,12.202 18.595,13.014C19.353,13.845 19.714,15.036 19.714,16.57C19.714,18.177 19.335,19.404 18.577,20.271C17.819,21.137 16.898,21.57 15.797,21.57C15.274,21.57 14.75,21.426 14.227,21.173C13.703,20.903 13.252,20.505 12.873,19.982L12.873,21.354L10.58,21.354ZM13.035,16.462C13.035,17.437 13.198,18.159 13.505,18.628C13.92,19.278 14.497,19.603 15.201,19.603C15.761,19.603 16.212,19.368 16.609,18.917C16.988,18.448 17.187,17.708 17.187,16.697C17.187,15.632 16.988,14.856 16.591,14.386C16.212,13.917 15.707,13.682 15.111,13.682C14.515,13.682 14.028,13.899 13.631,14.368C13.234,14.838 13.035,15.523 13.035,16.462Z" style="fill-rule:nonzero;"/>
        </g>
        <g>
            <path d="M29.874,14.765L27.437,15.199C27.347,14.711 27.166,14.35 26.877,14.097C26.588,13.845 26.209,13.736 25.74,13.736C25.126,13.736 24.621,13.935 24.26,14.368C23.899,14.801 23.718,15.505 23.718,16.498C23.718,17.617 23.899,18.394 24.278,18.863C24.639,19.314 25.144,19.549 25.776,19.549C26.245,19.549 26.625,19.404 26.931,19.152C27.22,18.881 27.437,18.412 27.563,17.762L30,18.177C29.747,19.296 29.26,20.144 28.538,20.704C27.816,21.282 26.859,21.57 25.668,21.57C24.296,21.57 23.195,21.137 22.383,20.271C21.57,19.404 21.173,18.213 21.173,16.679C21.173,15.144 21.57,13.935 22.383,13.069C23.213,12.22 24.314,11.787 25.704,11.787C26.841,11.787 27.744,12.022 28.43,12.509C29.097,13.014 29.585,13.755 29.874,14.765Z" style="fill-rule:nonzero;"/>
        </g>
        <rect id="outer" x="0" y="-0" width="30" height="30" style="fill:none;"/>
    </g>
</svg>
