<?xml version="1.0" encoding="UTF-8" standalone="no"?>
<!DOCTYPE svg PUBLIC "-//W3C//DTD SVG 1.1//EN" "http://www.w3.org/Graphics/SVG/1.1/DTD/svg11.dtd">
<svg width="30px" height="30px" version="1.1" xmlns="http://www.w3.org/2000/svg" xmlns:xlink="http://www.w3.org/1999/xlink" xml:space="preserve" xmlns:serif="http://www.serif.com/" style="fill-rule:evenodd;clip-rule:evenodd;stroke-miterlimit:1.5;">
    <rect x="0.5" y="0.398" width="29" height="29.102" style="fill:none;stroke:rgb(191,191,191);stroke-width:5px;"/>
    <g id="List">
        <path d="M4.684,24.5L18.475,24.5" style="fill:none;stroke:black;stroke-width:0.97px;stroke-linecap:round;stroke-linejoin:round;"/>
        <path d="M4.684,20.847L24.153,20.847" style="fill:none;stroke:black;stroke-width:0.97px;stroke-linecap:round;stroke-linejoin:round;"/>
        <path d="M4.684,17.193L20.288,17.015" style="fill:none;stroke:black;stroke-width:0.97px;stroke-linecap:round;stroke-linejoin:round;"/>
        <path d="M4.684,13.362L23.351,13.181" style="fill:none;stroke:black;stroke-width:0.97px;stroke-linecap:round;stroke-linejoin:round;"/>
        <path d="M4.684,9.528L25.316,9.5" style="fill:none;stroke:black;stroke-width:0.97px;stroke-linecap:round;stroke-linejoin:round;"/>
        <rect x="2.826" y="2.822" width="24.323" height="4.178" style="fill:rgb(191,191,191);"/>
    </g>
    <g id="text">
        <path d="M4.248,5.287L3,5.287L3,0.069L3.472,0.069L3.472,4.334L4.248,4.334L4.248,5.287Z" style="fill-rule:nonzero;"/>
        <path d="M5.199,5.378C4.949,5.378 4.752,5.203 4.611,4.856C4.467,4.508 4.396,4.034 4.396,3.44C4.396,2.823 4.47,2.342 4.618,1.99C4.767,1.643 4.966,1.468 5.22,1.468C5.468,1.468 5.662,1.643 5.805,1.99C5.945,2.342 6.017,2.801 6.017,3.373C6.017,3.992 5.943,4.48 5.799,4.839C5.652,5.198 5.453,5.378 5.199,5.378ZM5.21,2.349C5.101,2.349 5.017,2.444 4.957,2.63C4.896,2.817 4.865,3.083 4.865,3.425C4.865,4.14 4.982,4.497 5.213,4.497C5.435,4.497 5.545,4.129 5.545,3.393C5.545,2.698 5.433,2.349 5.21,2.349Z" style="fill-rule:nonzero;"/>
        <path d="M7.292,2.598C7.238,2.524 7.172,2.485 7.098,2.485C6.998,2.485 6.919,2.578 6.864,2.76C6.807,2.944 6.779,3.191 6.779,3.507L6.779,5.287L6.316,5.287L6.316,1.559L6.779,1.559L6.779,2.252L6.784,2.252C6.858,1.749 6.989,1.494 7.18,1.494C7.227,1.494 7.265,1.509 7.292,1.541L7.292,2.598Z" style="fill-rule:nonzero;"/>
        <path d="M8.842,3.752L7.864,3.752C7.881,4.291 8.018,4.562 8.276,4.562C8.44,4.562 8.586,4.465 8.71,4.272L8.71,5.101C8.571,5.287 8.391,5.378 8.171,5.378C7.929,5.378 7.741,5.212 7.608,4.878C7.474,4.545 7.407,4.077 7.407,3.482C7.407,2.864 7.479,2.373 7.624,2.011C7.768,1.652 7.945,1.468 8.157,1.468C8.374,1.468 8.542,1.632 8.663,1.953C8.782,2.277 8.842,2.715 8.842,3.269L8.842,3.752ZM8.413,3.046C8.413,2.513 8.327,2.245 8.153,2.245C8.079,2.245 8.015,2.321 7.96,2.475C7.906,2.626 7.875,2.817 7.861,3.046L8.413,3.046Z" style="fill-rule:nonzero;"/>
        <path d="M11.494,5.287L11.035,5.287L11.035,3.163C11.035,2.62 10.953,2.349 10.794,2.349C10.717,2.349 10.657,2.433 10.609,2.594C10.561,2.758 10.537,2.96 10.537,3.202L10.537,5.287L10.075,5.287L10.075,3.141C10.075,2.613 9.997,2.349 9.839,2.349C9.761,2.349 9.697,2.427 9.649,2.583C9.603,2.737 9.579,2.949 9.579,3.217L9.579,5.287L9.117,5.287L9.117,1.559L9.579,1.559L9.579,2.141L9.585,2.141C9.633,1.946 9.7,1.782 9.786,1.658C9.872,1.531 9.967,1.468 10.069,1.468C10.281,1.468 10.426,1.702 10.504,2.165C10.617,1.702 10.785,1.468 11.006,1.468C11.331,1.468 11.494,1.97 11.494,2.968L11.494,5.287Z" style="fill-rule:nonzero;"/>
        <rect x="12.731" y="0.069" width="0.472" height="5.218"/>
        <path d="M14.104,4.854L14.098,4.854L14.098,7L13.635,7L13.635,1.559L14.098,1.559L14.098,2.122L14.104,2.122C14.217,1.686 14.378,1.468 14.584,1.468C14.778,1.468 14.929,1.634 15.034,1.968C15.141,2.299 15.193,2.748 15.193,3.319C15.193,3.938 15.131,4.438 15.008,4.813C14.885,5.19 14.721,5.378 14.515,5.378C14.336,5.378 14.198,5.203 14.104,4.854ZM14.089,3.325L14.089,3.624C14.089,3.88 14.118,4.092 14.172,4.254C14.226,4.417 14.298,4.497 14.388,4.497C14.494,4.497 14.575,4.397 14.632,4.194C14.691,3.992 14.72,3.704 14.72,3.334C14.72,2.678 14.617,2.349 14.411,2.349C14.318,2.349 14.24,2.438 14.181,2.618C14.12,2.797 14.089,3.031 14.089,3.325Z" style="fill-rule:nonzero;"/>
        <path d="M15.396,5.19L15.396,4.257C15.47,4.371 15.547,4.456 15.622,4.512C15.699,4.568 15.769,4.597 15.836,4.597C15.918,4.597 15.983,4.568 16.031,4.512C16.078,4.456 16.1,4.371 16.1,4.257C16.1,4.183 16.091,4.124 16.069,4.075C16.048,4.027 16.021,3.984 15.986,3.947C15.953,3.912 15.915,3.878 15.876,3.85C15.836,3.821 15.798,3.787 15.76,3.752C15.7,3.696 15.649,3.635 15.603,3.57C15.559,3.507 15.52,3.434 15.49,3.349C15.458,3.261 15.435,3.165 15.419,3.051C15.404,2.94 15.396,2.81 15.396,2.656C15.396,2.447 15.413,2.267 15.45,2.119C15.487,1.968 15.535,1.845 15.596,1.749C15.657,1.652 15.727,1.583 15.805,1.537C15.884,1.492 15.965,1.468 16.049,1.468C16.117,1.468 16.183,1.483 16.252,1.509C16.32,1.535 16.387,1.572 16.455,1.621L16.455,2.507C16.395,2.421 16.333,2.358 16.266,2.316C16.199,2.273 16.134,2.252 16.069,2.252C16.038,2.252 16.01,2.258 15.984,2.273C15.957,2.284 15.933,2.304 15.912,2.33C15.891,2.356 15.876,2.39 15.864,2.429C15.853,2.47 15.847,2.514 15.847,2.565C15.847,2.631 15.855,2.693 15.873,2.741C15.89,2.789 15.914,2.828 15.942,2.866C15.969,2.901 16.001,2.931 16.037,2.96C16.07,2.988 16.105,3.018 16.139,3.046C16.201,3.1 16.257,3.157 16.306,3.219C16.356,3.282 16.398,3.356 16.434,3.442C16.469,3.527 16.497,3.627 16.517,3.741C16.535,3.856 16.544,3.99 16.544,4.15C16.544,4.369 16.524,4.556 16.487,4.713C16.448,4.871 16.397,4.999 16.333,5.095C16.27,5.196 16.196,5.266 16.112,5.309C16.028,5.356 15.942,5.378 15.853,5.378C15.688,5.378 15.536,5.315 15.396,5.19Z" style="fill-rule:nonzero;"/>
        <path d="M18.234,5.287L17.773,5.287L17.773,4.72L17.765,4.72C17.652,5.159 17.499,5.378 17.308,5.378C16.96,5.378 16.788,4.856 16.788,3.81L16.788,1.559L17.248,1.559L17.248,3.707C17.248,4.235 17.332,4.497 17.499,4.497C17.582,4.497 17.649,4.426 17.698,4.28C17.747,4.138 17.773,3.941 17.773,3.692L17.773,1.559L18.234,1.559L18.234,5.287Z" style="fill-rule:nonzero;"/>
        <path d="M21,5.287L20.54,5.287L20.54,3.163C20.54,2.62 20.46,2.349 20.301,2.349C20.224,2.349 20.161,2.433 20.114,2.594C20.066,2.758 20.042,2.96 20.042,3.202L20.042,5.287L19.579,5.287L19.579,3.141C19.579,2.613 19.501,2.349 19.346,2.349C19.266,2.349 19.203,2.427 19.155,2.583C19.108,2.737 19.086,2.949 19.086,3.217L19.086,5.287L18.623,5.287L18.623,1.559L19.086,1.559L19.086,2.141L19.09,2.141C19.138,1.946 19.205,1.782 19.292,1.658C19.377,1.531 19.472,1.468 19.575,1.468C19.785,1.468 19.931,1.702 20.009,2.165C20.123,1.702 20.291,1.468 20.513,1.468C20.838,1.468 21,1.97 21,2.968L21,5.287Z" style="fill-rule:nonzero;"/>
    </g>
    <rect id="outer" x="0" y="0" width="30" height="30" style="fill:none;"/>
</svg>
