<?xml version="1.0" encoding="UTF-8" standalone="no"?>
<!DOCTYPE svg PUBLIC "-//W3C//DTD SVG 1.1//EN" "http://www.w3.org/Graphics/SVG/1.1/DTD/svg11.dtd">
<svg width="30px" height="30px" version="1.1" xmlns="http://www.w3.org/2000/svg" xmlns:xlink="http://www.w3.org/1999/xlink" xml:space="preserve" xmlns:serif="http://www.serif.com/" style="fill-rule:evenodd;clip-rule:evenodd;stroke-miterlimit:1.5;">
    <rect x="0.5" y="0.398" width="29" height="29.102" style="fill:none;stroke:rgb(191,191,191);stroke-width:5px;"/>
    <g id="List">
        <path d="M4.684,24.5L18.475,24.5" style="fill:none;stroke:black;stroke-width:0.97px;stroke-linecap:round;stroke-linejoin:round;"/>
        <path d="M4.684,20.847L24.153,20.847" style="fill:none;stroke:black;stroke-width:0.97px;stroke-linecap:round;stroke-linejoin:round;"/>
        <path d="M4.684,17.193L20.288,17.015" style="fill:none;stroke:black;stroke-width:0.97px;stroke-linecap:round;stroke-linejoin:round;"/>
        <path d="M4.684,13.362L23.351,13.181" style="fill:none;stroke:black;stroke-width:0.97px;stroke-linecap:round;stroke-linejoin:round;"/>
        <path d="M4.684,9.528L25.316,9.5" style="fill:none;stroke:black;stroke-width:0.97px;stroke-linecap:round;stroke-linejoin:round;"/>
        <rect x="2.826" y="2.822" width="24.323" height="4.178" style="fill:rgb(191,191,191);"/>
    </g>
    <g id="text">
        <path d="M11.846,5.069L10.717,5.069L10.717,1L11.144,1L11.144,4.326L11.846,4.326L11.846,5.069Z" style="fill-rule:nonzero;"/>
        <path d="M12.706,5.14C12.48,5.14 12.302,5.004 12.174,4.733C12.044,4.462 11.98,4.092 11.98,3.629C11.98,3.148 12.047,2.773 12.18,2.498C12.315,2.227 12.495,2.091 12.725,2.091C12.949,2.091 13.125,2.227 13.254,2.498C13.381,2.773 13.446,3.131 13.446,3.577C13.446,4.059 13.379,4.44 13.249,4.72C13.116,5 12.936,5.14 12.706,5.14ZM12.716,2.778C12.617,2.778 12.541,2.852 12.487,2.997C12.432,3.143 12.404,3.35 12.404,3.617C12.404,4.175 12.51,4.453 12.719,4.453C12.919,4.453 13.019,4.166 13.019,3.592C13.019,3.05 12.918,2.778 12.716,2.778Z" style="fill-rule:nonzero;"/>
        <path d="M14.599,2.972C14.551,2.915 14.491,2.884 14.424,2.884C14.333,2.884 14.262,2.957 14.212,3.099C14.161,3.242 14.135,3.435 14.135,3.681L14.135,5.069L13.716,5.069L13.716,2.162L14.135,2.162L14.135,2.702L14.14,2.702C14.207,2.31 14.325,2.111 14.498,2.111C14.541,2.111 14.575,2.123 14.599,2.148L14.599,2.972Z" style="fill-rule:nonzero;"/>
        <path d="M16.002,3.872L15.117,3.872C15.132,4.293 15.256,4.504 15.49,4.504C15.638,4.504 15.77,4.428 15.882,4.278L15.882,4.924C15.756,5.069 15.594,5.14 15.395,5.14C15.176,5.14 15.006,5.011 14.885,4.75C14.764,4.491 14.703,4.126 14.703,3.662C14.703,3.18 14.769,2.797 14.9,2.514C15.03,2.234 15.19,2.091 15.382,2.091C15.578,2.091 15.73,2.219 15.84,2.469C15.947,2.722 16.002,3.063 16.002,3.496L16.002,3.872ZM15.613,3.322C15.613,2.906 15.536,2.697 15.378,2.697C15.311,2.697 15.253,2.756 15.204,2.876C15.155,2.994 15.127,3.143 15.114,3.322L15.613,3.322Z" style="fill-rule:nonzero;"/>
        <path d="M18.401,5.069L17.985,5.069L17.985,3.413C17.985,2.989 17.911,2.778 17.767,2.778C17.698,2.778 17.643,2.844 17.6,2.969C17.557,3.097 17.535,3.255 17.535,3.443L17.535,5.069L17.117,5.069L17.117,3.396C17.117,2.984 17.046,2.778 16.903,2.778C16.833,2.778 16.775,2.839 16.732,2.961C16.69,3.081 16.668,3.246 16.668,3.455L16.668,5.069L16.25,5.069L16.25,2.162L16.668,2.162L16.668,2.616L16.674,2.616C16.717,2.464 16.778,2.336 16.856,2.239C16.933,2.14 17.019,2.091 17.112,2.091C17.303,2.091 17.434,2.273 17.505,2.635C17.607,2.273 17.759,2.091 17.959,2.091C18.253,2.091 18.401,2.482 18.401,3.261L18.401,5.069Z" style="fill-rule:nonzero;"/>
        <rect x="19.52" y="1" width="0.427" height="4.069"/>
        <path d="M20.762,4.732L20.756,4.732L20.756,6.405L20.337,6.405L20.337,2.162L20.756,2.162L20.756,2.601L20.762,2.601C20.864,2.261 21.01,2.091 21.196,2.091C21.371,2.091 21.508,2.22 21.603,2.481C21.7,2.739 21.747,3.089 21.747,3.534C21.747,4.017 21.691,4.407 21.579,4.7C21.468,4.994 21.32,5.14 21.133,5.14C20.972,5.14 20.847,5.004 20.762,4.732ZM20.748,3.539L20.748,3.772C20.748,3.972 20.774,4.137 20.823,4.264C20.872,4.391 20.937,4.453 21.019,4.453C21.114,4.453 21.188,4.375 21.239,4.217C21.293,4.059 21.319,3.835 21.319,3.546C21.319,3.035 21.226,2.778 21.039,2.778C20.955,2.778 20.885,2.847 20.831,2.988C20.776,3.127 20.748,3.31 20.748,3.539Z" style="fill-rule:nonzero;"/>
        <path d="M21.93,4.994L21.93,4.266C21.997,4.355 22.067,4.421 22.135,4.465C22.205,4.509 22.268,4.531 22.329,4.531C22.403,4.531 22.461,4.509 22.505,4.465C22.547,4.421 22.567,4.355 22.567,4.266C22.567,4.208 22.559,4.162 22.539,4.124C22.52,4.087 22.496,4.053 22.464,4.024C22.434,3.997 22.4,3.97 22.365,3.949C22.329,3.926 22.294,3.899 22.26,3.872C22.205,3.828 22.159,3.781 22.118,3.73C22.078,3.681 22.043,3.624 22.016,3.558C21.987,3.489 21.966,3.414 21.951,3.325C21.938,3.239 21.93,3.138 21.93,3.017C21.93,2.854 21.946,2.714 21.979,2.599C22.013,2.481 22.056,2.385 22.111,2.31C22.167,2.234 22.23,2.181 22.3,2.145C22.372,2.11 22.445,2.091 22.521,2.091C22.583,2.091 22.642,2.103 22.705,2.123C22.766,2.143 22.827,2.172 22.888,2.21L22.888,2.901C22.834,2.834 22.778,2.785 22.717,2.752C22.657,2.719 22.598,2.702 22.539,2.702C22.511,2.702 22.486,2.707 22.462,2.719C22.438,2.727 22.416,2.743 22.397,2.763C22.378,2.784 22.365,2.81 22.354,2.84C22.344,2.872 22.338,2.907 22.338,2.946C22.338,2.998 22.346,3.046 22.362,3.084C22.377,3.121 22.399,3.152 22.424,3.181C22.449,3.209 22.478,3.232 22.51,3.255C22.54,3.276 22.572,3.3 22.603,3.322C22.659,3.364 22.709,3.408 22.754,3.457C22.799,3.506 22.837,3.563 22.869,3.63C22.901,3.697 22.926,3.775 22.945,3.864C22.961,3.953 22.969,4.058 22.969,4.183C22.969,4.353 22.951,4.499 22.917,4.622C22.882,4.745 22.836,4.845 22.778,4.919C22.721,4.998 22.654,5.053 22.578,5.086C22.502,5.123 22.424,5.14 22.344,5.14C22.195,5.14 22.057,5.091 21.93,4.994Z" style="fill-rule:nonzero;"/>
        <path d="M24.498,5.069L24.081,5.069L24.081,4.627L24.074,4.627C23.971,4.969 23.833,5.14 23.66,5.14C23.345,5.14 23.19,4.733 23.19,3.917L23.19,2.162L23.606,2.162L23.606,3.837C23.606,4.249 23.682,4.453 23.833,4.453C23.908,4.453 23.969,4.398 24.013,4.284C24.057,4.173 24.081,4.02 24.081,3.825L24.081,2.162L24.498,2.162L24.498,5.069Z" style="fill-rule:nonzero;"/>
        <path d="M27,5.069L26.584,5.069L26.584,3.413C26.584,2.989 26.512,2.778 26.368,2.778C26.298,2.778 26.241,2.844 26.199,2.969C26.155,3.097 26.133,3.255 26.133,3.443L26.133,5.069L25.715,5.069L25.715,3.396C25.715,2.984 25.644,2.778 25.504,2.778C25.431,2.778 25.374,2.839 25.331,2.961C25.288,3.081 25.269,3.246 25.269,3.455L25.269,5.069L24.85,5.069L24.85,2.162L25.269,2.162L25.269,2.616L25.272,2.616C25.316,2.464 25.376,2.336 25.455,2.239C25.532,2.14 25.618,2.091 25.711,2.091C25.901,2.091 26.033,2.273 26.104,2.635C26.207,2.273 26.359,2.091 26.559,2.091C26.853,2.091 27,2.482 27,3.261L27,5.069Z" style="fill-rule:nonzero;"/>
    </g>
    <g id="Layer1">
        <ellipse cx="4.812" cy="3.559" rx="2.812" ry="2.729" style="fill:none;stroke:rgb(15,94,255);stroke-width:1.58px;stroke-linecap:round;stroke-linejoin:round;"/>
    </g>
</svg>
