<?xml version="1.0" encoding="UTF-8" standalone="no"?>
<!DOCTYPE svg PUBLIC "-//W3C//DTD SVG 1.1//EN" "http://www.w3.org/Graphics/SVG/1.1/DTD/svg11.dtd">
<svg width="30px" height="30px" version="1.1" xmlns="http://www.w3.org/2000/svg" xmlns:xlink="http://www.w3.org/1999/xlink" xml:space="preserve" xmlns:serif="http://www.serif.com/" style="fill-rule:evenodd;clip-rule:evenodd;stroke-miterlimit:1.5;">
    <rect x="0.5" y="0.398" width="29" height="29.102" style="fill:none;stroke:rgb(191,191,191);stroke-width:5px;"/>
    <g id="List">
        <path d="M4.684,24.5L18.475,24.5" style="fill:none;stroke:black;stroke-width:0.97px;stroke-linecap:round;stroke-linejoin:round;"/>
        <path d="M4.684,20.847L24.153,20.847" style="fill:none;stroke:black;stroke-width:0.97px;stroke-linecap:round;stroke-linejoin:round;"/>
        <path d="M4.684,17.193L20.288,17.015" style="fill:none;stroke:black;stroke-width:0.97px;stroke-linecap:round;stroke-linejoin:round;"/>
        <path d="M4.684,13.362L23.351,13.181" style="fill:none;stroke:black;stroke-width:0.97px;stroke-linecap:round;stroke-linejoin:round;"/>
        <path d="M4.684,9.528L25.316,9.5" style="fill:none;stroke:black;stroke-width:0.97px;stroke-linecap:round;stroke-linejoin:round;"/>
        <rect x="2.826" y="2.822" width="24.323" height="4.178" style="fill:rgb(191,191,191);"/>
    </g>
    <g id="text">
        <path d="M11.782,5.078L10.649,5.078L10.649,1.286L11.077,1.286L11.077,4.385L11.782,4.385L11.782,5.078Z" style="fill-rule:nonzero;"/>
        <path d="M12.646,5.144C12.419,5.144 12.24,5.017 12.112,4.765C11.981,4.512 11.917,4.167 11.917,3.736C11.917,3.287 11.984,2.938 12.119,2.682C12.254,2.43 12.435,2.302 12.665,2.302C12.891,2.302 13.067,2.43 13.197,2.682C13.324,2.938 13.389,3.271 13.389,3.687C13.389,4.137 13.322,4.491 13.191,4.752C13.058,5.013 12.877,5.144 12.646,5.144ZM12.656,2.943C12.557,2.943 12.481,3.012 12.426,3.147C12.371,3.283 12.343,3.476 12.343,3.725C12.343,4.244 12.449,4.504 12.659,4.504C12.861,4.504 12.961,4.236 12.961,3.701C12.961,3.196 12.859,2.943 12.656,2.943Z" style="fill-rule:nonzero;"/>
        <path d="M14.548,3.124C14.499,3.07 14.439,3.042 14.371,3.042C14.281,3.042 14.209,3.109 14.159,3.241C14.107,3.375 14.082,3.555 14.082,3.784L14.082,5.078L13.661,5.078L13.661,2.369L14.082,2.369L14.082,2.872L14.086,2.872C14.153,2.507 14.272,2.321 14.446,2.321C14.489,2.321 14.523,2.332 14.548,2.356L14.548,3.124Z" style="fill-rule:nonzero;"/>
        <path d="M15.956,3.962L15.067,3.962C15.083,4.354 15.207,4.551 15.441,4.551C15.59,4.551 15.723,4.481 15.836,4.34L15.836,4.943C15.709,5.078 15.546,5.144 15.346,5.144C15.126,5.144 14.955,5.023 14.835,4.781C14.713,4.539 14.652,4.199 14.652,3.766C14.652,3.317 14.717,2.96 14.849,2.697C14.98,2.436 15.141,2.302 15.333,2.302C15.53,2.302 15.683,2.422 15.793,2.655C15.901,2.89 15.956,3.209 15.956,3.611L15.956,3.962ZM15.566,3.449C15.566,3.062 15.488,2.867 15.33,2.867C15.263,2.867 15.204,2.922 15.154,3.034C15.105,3.144 15.077,3.283 15.064,3.449L15.566,3.449Z" style="fill-rule:nonzero;"/>
        <path d="M18.365,5.078L17.948,5.078L17.948,3.534C17.948,3.14 17.873,2.943 17.729,2.943C17.659,2.943 17.604,3.004 17.561,3.121C17.517,3.24 17.495,3.387 17.495,3.563L17.495,5.078L17.076,5.078L17.076,3.518C17.076,3.135 17.005,2.943 16.861,2.943C16.79,2.943 16.732,2.999 16.689,3.113C16.647,3.225 16.625,3.379 16.625,3.574L16.625,5.078L16.205,5.078L16.205,2.369L16.625,2.369L16.625,2.792L16.631,2.792C16.674,2.65 16.735,2.531 16.813,2.441C16.891,2.348 16.978,2.302 17.07,2.302C17.263,2.302 17.395,2.473 17.465,2.809C17.568,2.473 17.721,2.302 17.921,2.302C18.217,2.302 18.365,2.667 18.365,3.393L18.365,5.078Z" style="fill-rule:nonzero;"/>
        <rect x="19.488" y="1.286" width="0.429" height="3.792"/>
        <path d="M20.736,4.763L20.73,4.763L20.73,6.323L20.31,6.323L20.31,2.369L20.73,2.369L20.73,2.778L20.736,2.778C20.838,2.461 20.985,2.302 21.172,2.302C21.348,2.302 21.485,2.423 21.58,2.666C21.678,2.906 21.725,3.233 21.725,3.648C21.725,4.098 21.669,4.461 21.557,4.734C21.445,5.007 21.296,5.144 21.109,5.144C20.946,5.144 20.821,5.017 20.736,4.763ZM20.722,3.652L20.722,3.869C20.722,4.055 20.748,4.21 20.797,4.327C20.846,4.446 20.912,4.504 20.994,4.504C21.09,4.504 21.164,4.431 21.215,4.284C21.269,4.137 21.295,3.928 21.295,3.659C21.295,3.182 21.202,2.943 21.015,2.943C20.93,2.943 20.859,3.007 20.806,3.138C20.75,3.268 20.722,3.438 20.722,3.652Z" style="fill-rule:nonzero;"/>
        <path d="M21.909,5.007L21.909,4.329C21.977,4.412 22.046,4.474 22.115,4.515C22.185,4.555 22.248,4.577 22.309,4.577C22.383,4.577 22.443,4.555 22.486,4.515C22.529,4.474 22.549,4.412 22.549,4.329C22.549,4.276 22.541,4.233 22.521,4.197C22.502,4.162 22.477,4.131 22.445,4.104C22.415,4.079 22.381,4.054 22.345,4.034C22.309,4.013 22.274,3.988 22.24,3.962C22.185,3.922 22.139,3.877 22.097,3.83C22.057,3.784 22.022,3.731 21.995,3.67C21.966,3.606 21.945,3.536 21.93,3.453C21.917,3.372 21.909,3.278 21.909,3.166C21.909,3.014 21.925,2.883 21.958,2.776C21.992,2.666 22.036,2.576 22.091,2.507C22.146,2.436 22.21,2.386 22.281,2.353C22.353,2.32 22.426,2.302 22.502,2.302C22.564,2.302 22.624,2.313 22.687,2.332C22.749,2.351 22.81,2.378 22.871,2.414L22.871,3.058C22.817,2.995 22.76,2.949 22.7,2.919C22.639,2.888 22.58,2.872 22.521,2.872C22.492,2.872 22.467,2.877 22.443,2.888C22.419,2.896 22.397,2.91 22.378,2.929C22.359,2.948 22.345,2.973 22.334,3.001C22.324,3.031 22.319,3.063 22.319,3.1C22.319,3.148 22.326,3.193 22.343,3.228C22.358,3.263 22.38,3.291 22.405,3.318C22.43,3.344 22.459,3.366 22.492,3.387C22.522,3.407 22.553,3.429 22.584,3.449C22.641,3.489 22.691,3.53 22.736,3.575C22.781,3.621 22.82,3.675 22.852,3.737C22.884,3.799 22.909,3.872 22.928,3.954C22.944,4.038 22.952,4.135 22.952,4.252C22.952,4.411 22.934,4.547 22.9,4.661C22.865,4.776 22.819,4.869 22.76,4.938C22.703,5.012 22.636,5.063 22.56,5.094C22.483,5.128 22.405,5.144 22.324,5.144C22.175,5.144 22.036,5.098 21.909,5.007Z" style="fill-rule:nonzero;"/>
        <path d="M24.487,5.078L24.069,5.078L24.069,4.666L24.061,4.666C23.959,4.985 23.82,5.144 23.646,5.144C23.33,5.144 23.174,4.765 23.174,4.005L23.174,2.369L23.592,2.369L23.592,3.93C23.592,4.313 23.668,4.504 23.82,4.504C23.895,4.504 23.956,4.452 24,4.346C24.045,4.243 24.069,4.1 24.069,3.919L24.069,2.369L24.487,2.369L24.487,5.078Z" style="fill-rule:nonzero;"/>
        <path d="M27,5.078L26.582,5.078L26.582,3.534C26.582,3.14 26.509,2.943 26.365,2.943C26.295,2.943 26.238,3.004 26.195,3.121C26.152,3.24 26.13,3.387 26.13,3.563L26.13,5.078L25.709,5.078L25.709,3.518C25.709,3.135 25.638,2.943 25.497,2.943C25.425,2.943 25.368,2.999 25.324,3.113C25.281,3.225 25.261,3.379 25.261,3.574L25.261,5.078L24.841,5.078L24.841,2.369L25.261,2.369L25.261,2.792L25.265,2.792C25.309,2.65 25.369,2.531 25.448,2.441C25.526,2.348 25.612,2.302 25.706,2.302C25.896,2.302 26.029,2.473 26.1,2.809C26.203,2.473 26.356,2.302 26.558,2.302C26.853,2.302 27,2.667 27,3.393L27,5.078Z" style="fill-rule:nonzero;"/>
    </g>
    <g id="Layer1">
        <rect x="1.155" y="0.263" width="7.048" height="6.928" style="fill:rgb(30,140,188);stroke:black;stroke-width:0.63px;stroke-linecap:round;stroke-linejoin:round;"/>
        <path id="path1542" d="M6.17,1.218C6.09,1.21 6.003,1.245 5.964,1.32L4.212,4.387L3.033,3.501C2.929,3.449 2.799,3.479 2.745,3.577L2.235,4.192C2.178,4.289 2.217,4.41 2.324,4.464C2.324,4.464 4.481,6.142 4.486,6.142C4.51,6.152 4.536,6.16 4.561,6.164C4.648,6.177 4.731,6.142 4.772,6.067L7.134,1.927C7.189,1.834 7.149,1.714 7.045,1.658L6.253,1.243C6.229,1.23 6.196,1.223 6.17,1.218Z" style="fill:white;fill-rule:nonzero;"/>
    </g>
    <rect id="outer" x="0" y="0" width="30" height="30" style="fill:none;"/>
</svg>
