<?xml version="1.0" encoding="UTF-8" standalone="no"?>
<!DOCTYPE svg PUBLIC "-//W3C//DTD SVG 1.1//EN" "http://www.w3.org/Graphics/SVG/1.1/DTD/svg11.dtd">
<svg width="30px" height="30px" version="1.1" xmlns="http://www.w3.org/2000/svg" xmlns:xlink="http://www.w3.org/1999/xlink" xml:space="preserve" xmlns:serif="http://www.serif.com/" style="fill-rule:evenodd;clip-rule:evenodd;stroke-miterlimit:1.5;">
    <rect x="0.5" y="0.398" width="29" height="29.102" style="fill:none;stroke:rgb(191,191,191);stroke-width:5px;"/>
    <g id="List">
        <path d="M4.684,24.5L18.475,24.5" style="fill:none;stroke:black;stroke-width:0.97px;stroke-linecap:round;stroke-linejoin:round;"/>
        <path d="M4.684,20.847L24.153,20.847" style="fill:none;stroke:black;stroke-width:0.97px;stroke-linecap:round;stroke-linejoin:round;"/>
        <path d="M4.684,17.193L20.288,17.015" style="fill:none;stroke:black;stroke-width:0.97px;stroke-linecap:round;stroke-linejoin:round;"/>
        <path d="M4.684,13.362L23.351,13.181" style="fill:none;stroke:black;stroke-width:0.97px;stroke-linecap:round;stroke-linejoin:round;"/>
        <path d="M4.684,9.528L25.316,9.5" style="fill:none;stroke:black;stroke-width:0.97px;stroke-linecap:round;stroke-linejoin:round;"/>
        <rect x="2.826" y="2.822" width="24.323" height="4.178" style="fill:rgb(191,191,191);"/>
    </g>
    <g id="text">
        <path d="M10.248,5.287L9,5.287L9,0.069L9.472,0.069L9.472,4.334L10.248,4.334L10.248,5.287Z" style="fill-rule:nonzero;"/>
        <path d="M11.199,5.378C10.949,5.378 10.752,5.203 10.611,4.856C10.467,4.508 10.396,4.034 10.396,3.44C10.396,2.823 10.47,2.342 10.618,1.99C10.767,1.643 10.966,1.468 11.22,1.468C11.468,1.468 11.662,1.643 11.805,1.99C11.945,2.342 12.017,2.801 12.017,3.373C12.017,3.992 11.943,4.48 11.799,4.839C11.652,5.198 11.453,5.378 11.199,5.378ZM11.21,2.349C11.101,2.349 11.017,2.444 10.957,2.63C10.896,2.817 10.865,3.083 10.865,3.425C10.865,4.14 10.982,4.497 11.213,4.497C11.435,4.497 11.545,4.129 11.545,3.393C11.545,2.698 11.433,2.349 11.21,2.349Z" style="fill-rule:nonzero;"/>
        <path d="M13.292,2.598C13.238,2.524 13.172,2.485 13.098,2.485C12.998,2.485 12.919,2.578 12.864,2.76C12.807,2.944 12.779,3.191 12.779,3.507L12.779,5.287L12.316,5.287L12.316,1.559L12.779,1.559L12.779,2.252L12.784,2.252C12.858,1.749 12.989,1.494 13.18,1.494C13.227,1.494 13.265,1.509 13.292,1.541L13.292,2.598Z" style="fill-rule:nonzero;"/>
        <path d="M14.842,3.752L13.864,3.752C13.881,4.291 14.018,4.562 14.276,4.562C14.44,4.562 14.586,4.465 14.71,4.272L14.71,5.101C14.571,5.287 14.391,5.378 14.171,5.378C13.929,5.378 13.741,5.212 13.608,4.878C13.474,4.545 13.407,4.077 13.407,3.482C13.407,2.864 13.479,2.373 13.624,2.011C13.768,1.652 13.945,1.468 14.157,1.468C14.374,1.468 14.542,1.632 14.663,1.953C14.782,2.277 14.842,2.715 14.842,3.269L14.842,3.752ZM14.413,3.046C14.413,2.513 14.327,2.245 14.153,2.245C14.079,2.245 14.015,2.321 13.96,2.475C13.906,2.626 13.875,2.817 13.861,3.046L14.413,3.046Z" style="fill-rule:nonzero;"/>
        <path d="M17.494,5.287L17.035,5.287L17.035,3.163C17.035,2.62 16.953,2.349 16.794,2.349C16.717,2.349 16.657,2.433 16.609,2.594C16.561,2.758 16.537,2.96 16.537,3.202L16.537,5.287L16.075,5.287L16.075,3.141C16.075,2.613 15.997,2.349 15.839,2.349C15.761,2.349 15.697,2.427 15.649,2.583C15.603,2.737 15.579,2.949 15.579,3.217L15.579,5.287L15.117,5.287L15.117,1.559L15.579,1.559L15.579,2.141L15.585,2.141C15.633,1.946 15.7,1.782 15.786,1.658C15.872,1.531 15.967,1.468 16.069,1.468C16.281,1.468 16.426,1.702 16.504,2.165C16.617,1.702 16.785,1.468 17.006,1.468C17.331,1.468 17.494,1.97 17.494,2.968L17.494,5.287Z" style="fill-rule:nonzero;"/>
        <rect x="18.731" y="0.069" width="0.472" height="5.218"/>
        <path d="M20.104,4.854L20.098,4.854L20.098,7L19.635,7L19.635,1.559L20.098,1.559L20.098,2.122L20.104,2.122C20.217,1.686 20.378,1.468 20.584,1.468C20.778,1.468 20.929,1.634 21.034,1.968C21.141,2.299 21.193,2.748 21.193,3.319C21.193,3.938 21.131,4.438 21.008,4.813C20.885,5.19 20.721,5.378 20.515,5.378C20.336,5.378 20.198,5.203 20.104,4.854ZM20.089,3.325L20.089,3.624C20.089,3.88 20.118,4.092 20.172,4.254C20.226,4.417 20.298,4.497 20.388,4.497C20.494,4.497 20.575,4.397 20.632,4.194C20.691,3.992 20.72,3.704 20.72,3.334C20.72,2.678 20.617,2.349 20.411,2.349C20.318,2.349 20.24,2.438 20.181,2.618C20.12,2.797 20.089,3.031 20.089,3.325Z" style="fill-rule:nonzero;"/>
        <path d="M21.396,5.19L21.396,4.257C21.47,4.371 21.547,4.456 21.622,4.512C21.699,4.568 21.769,4.597 21.836,4.597C21.918,4.597 21.983,4.568 22.031,4.512C22.078,4.456 22.1,4.371 22.1,4.257C22.1,4.183 22.091,4.124 22.069,4.075C22.048,4.027 22.021,3.984 21.986,3.947C21.953,3.912 21.915,3.878 21.876,3.85C21.836,3.821 21.798,3.787 21.76,3.752C21.7,3.696 21.649,3.635 21.603,3.57C21.559,3.507 21.52,3.434 21.49,3.349C21.458,3.261 21.435,3.165 21.419,3.051C21.404,2.94 21.396,2.81 21.396,2.656C21.396,2.447 21.413,2.267 21.45,2.119C21.487,1.968 21.535,1.845 21.596,1.749C21.657,1.652 21.727,1.583 21.805,1.537C21.884,1.492 21.965,1.468 22.049,1.468C22.117,1.468 22.183,1.483 22.252,1.509C22.32,1.535 22.387,1.572 22.455,1.621L22.455,2.507C22.395,2.421 22.333,2.358 22.266,2.316C22.199,2.273 22.134,2.252 22.069,2.252C22.038,2.252 22.01,2.258 21.984,2.273C21.957,2.284 21.933,2.304 21.912,2.33C21.891,2.356 21.876,2.39 21.864,2.429C21.853,2.47 21.847,2.514 21.847,2.565C21.847,2.631 21.855,2.693 21.873,2.741C21.89,2.789 21.914,2.828 21.942,2.866C21.969,2.901 22.001,2.931 22.037,2.96C22.07,2.988 22.105,3.018 22.139,3.046C22.201,3.1 22.257,3.157 22.306,3.219C22.356,3.282 22.398,3.356 22.434,3.442C22.469,3.527 22.497,3.627 22.517,3.741C22.535,3.856 22.544,3.99 22.544,4.15C22.544,4.369 22.524,4.556 22.487,4.713C22.448,4.871 22.397,4.999 22.333,5.095C22.27,5.196 22.196,5.266 22.112,5.309C22.028,5.356 21.942,5.378 21.853,5.378C21.688,5.378 21.536,5.315 21.396,5.19Z" style="fill-rule:nonzero;"/>
        <path d="M24.234,5.287L23.773,5.287L23.773,4.72L23.765,4.72C23.652,5.159 23.499,5.378 23.308,5.378C22.96,5.378 22.788,4.856 22.788,3.81L22.788,1.559L23.248,1.559L23.248,3.707C23.248,4.235 23.332,4.497 23.499,4.497C23.582,4.497 23.649,4.426 23.698,4.28C23.747,4.138 23.773,3.941 23.773,3.692L23.773,1.559L24.234,1.559L24.234,5.287Z" style="fill-rule:nonzero;"/>
        <path d="M27,5.287L26.54,5.287L26.54,3.163C26.54,2.62 26.46,2.349 26.301,2.349C26.224,2.349 26.161,2.433 26.114,2.594C26.066,2.758 26.042,2.96 26.042,3.202L26.042,5.287L25.579,5.287L25.579,3.141C25.579,2.613 25.501,2.349 25.346,2.349C25.266,2.349 25.203,2.427 25.155,2.583C25.108,2.737 25.086,2.949 25.086,3.217L25.086,5.287L24.623,5.287L24.623,1.559L25.086,1.559L25.086,2.141L25.09,2.141C25.138,1.946 25.205,1.782 25.292,1.658C25.377,1.531 25.472,1.468 25.575,1.468C25.785,1.468 25.931,1.702 26.009,2.165C26.123,1.702 26.291,1.468 26.513,1.468C26.838,1.468 27,1.97 27,2.968L27,5.287Z" style="fill-rule:nonzero;"/>
    </g>
    <g id="Layer1">
        <rect x="1.104" y="0" width="5.695" height="5.88" style="fill:rgb(30,140,188);stroke:black;stroke-width:0.52px;stroke-linecap:round;stroke-linejoin:round;"/>
        <path id="path1542" d="M5.201,1.001C5.136,0.995 5.066,1.023 5.034,1.084L3.619,3.562L2.666,2.846C2.582,2.804 2.477,2.828 2.433,2.907L2.021,3.404C1.975,3.483 2.007,3.58 2.093,3.624C2.093,3.624 3.836,4.98 3.84,4.98C3.859,4.988 3.88,4.994 3.901,4.998C3.971,5.008 4.038,4.98 4.071,4.919L5.98,1.574C6.024,1.499 5.992,1.402 5.908,1.357L5.268,1.021C5.248,1.011 5.222,1.005 5.201,1.001Z" style="fill:white;fill-rule:nonzero;"/>
    </g>
    <rect id="outer" x="0" y="0" width="30" height="30" style="fill:none;"/>
</svg>
