<?xml version="1.0" encoding="UTF-8" standalone="no"?><!DOCTYPE svg PUBLIC "-//W3C//DTD SVG 1.1//EN" "http://www.w3.org/Graphics/SVG/1.1/DTD/svg11.dtd"><svg width="100%" height="100%" viewBox="0 0 30 30" version="1.1" xmlns="http://www.w3.org/2000/svg" xmlns:xlink="http://www.w3.org/1999/xlink" xml:space="preserve" xmlns:serif="http://www.serif.com/" style="fill-rule:evenodd;clip-rule:evenodd;stroke-linejoin:round;stroke-miterlimit:2;"><g id="Empty-Rect" serif:id="Empty Rect" transform="matrix(1,0,0,0.9,0,3.09472)"><rect x="0" y="19.6" width="30" height="11.347" style="fill:none;"/></g><g transform="matrix(1.31382,0,0,1.31382,-16.7649,-4.33526)"><g transform="matrix(12.1782,0,0,12.1782,13.7776,18.9161)"><path d="M0.174,-0.36l-0.124,-0.023c0.014,-0.05 0.038,-0.087 0.072,-0.111c0.034,-0.024 0.085,-0.036 0.152,-0.036c0.062,-0 0.107,0.007 0.137,0.021c0.03,0.015 0.051,0.033 0.063,0.056c0.013,0.022 0.019,0.063 0.019,0.122l-0.002,0.161c0,0.045 0.002,0.079 0.007,0.1c0.004,0.022 0.012,0.045 0.024,0.07l-0.135,-0c-0.004,-0.009 -0.008,-0.023 -0.013,-0.041c-0.003,-0.008 -0.004,-0.013 -0.005,-0.016c-0.024,0.023 -0.049,0.04 -0.076,0.052c-0.026,0.011 -0.055,0.017 -0.085,0.017c-0.053,-0 -0.095,-0.015 -0.126,-0.044c-0.031,-0.029 -0.046,-0.065 -0.046,-0.11c-0,-0.029 0.007,-0.055 0.021,-0.078c0.014,-0.023 0.033,-0.04 0.058,-0.053c0.026,-0.012 0.062,-0.023 0.11,-0.032c0.064,-0.012 0.108,-0.023 0.133,-0.033l-0,-0.014c-0,-0.026 -0.007,-0.045 -0.02,-0.056c-0.013,-0.012 -0.037,-0.017 -0.073,-0.017c-0.025,-0 -0.044,0.005 -0.057,0.014c-0.014,0.01 -0.025,0.027 -0.034,0.051Zm0.184,0.111c-0.018,0.006 -0.045,0.013 -0.084,0.021c-0.038,0.008 -0.063,0.016 -0.074,0.024c-0.018,0.013 -0.027,0.029 -0.027,0.048c-0,0.019 0.007,0.036 0.021,0.05c0.015,0.014 0.033,0.021 0.055,0.021c0.025,0 0.048,-0.008 0.071,-0.024c0.016,-0.013 0.027,-0.028 0.033,-0.046c0.003,-0.012 0.005,-0.034 0.005,-0.067l-0,-0.027Z" style="fill-rule:nonzero;"/></g><g transform="matrix(12.1782,0,0,12.1782,20.5505,18.9161)"><path d="M0.066,-0l-0,-0.716l0.137,0l0,0.258c0.042,-0.048 0.093,-0.072 0.151,-0.072c0.063,-0 0.115,0.023 0.156,0.068c0.042,0.046 0.062,0.112 0.062,0.197c0,0.089 -0.021,0.157 -0.063,0.205c-0.042,0.048 -0.093,0.072 -0.154,0.072c-0.029,-0 -0.058,-0.008 -0.087,-0.022c-0.029,-0.015 -0.054,-0.037 -0.075,-0.066l0,0.076l-0.127,-0Zm0.136,-0.271c0,0.054 0.009,0.094 0.026,0.12c0.023,0.036 0.055,0.054 0.094,0.054c0.031,0 0.056,-0.013 0.078,-0.038c0.021,-0.026 0.032,-0.067 0.032,-0.123c-0,-0.059 -0.011,-0.102 -0.033,-0.128c-0.021,-0.026 -0.049,-0.039 -0.082,-0.039c-0.033,-0 -0.06,0.012 -0.082,0.038c-0.022,0.026 -0.033,0.064 -0.033,0.116Z" style="fill-rule:nonzero;"/></g><g transform="matrix(12.1782,0,0,12.1782,27.9895,18.9161)"><path d="M0.524,-0.365l-0.135,0.024c-0.005,-0.027 -0.015,-0.047 -0.031,-0.061c-0.016,-0.014 -0.037,-0.02 -0.063,-0.02c-0.034,-0 -0.062,0.011 -0.082,0.035c-0.02,0.024 -0.03,0.063 -0.03,0.118c-0,0.062 0.01,0.105 0.031,0.131c0.02,0.025 0.048,0.038 0.083,0.038c0.026,-0 0.047,-0.008 0.064,-0.022c0.016,-0.015 0.028,-0.041 0.035,-0.077l0.135,0.023c-0.014,0.062 -0.041,0.109 -0.081,0.14c-0.04,0.032 -0.093,0.048 -0.159,0.048c-0.076,-0 -0.137,-0.024 -0.182,-0.072c-0.045,-0.048 -0.067,-0.114 -0.067,-0.199c-0,-0.085 0.022,-0.152 0.067,-0.2c0.046,-0.047 0.107,-0.071 0.184,-0.071c0.063,-0 0.113,0.013 0.151,0.04c0.037,0.028 0.064,0.069 0.08,0.125Z" style="fill-rule:nonzero;"/></g></g></svg>