<?xml version="1.0" encoding="UTF-8" standalone="no"?>
<!DOCTYPE svg PUBLIC "-//W3C//DTD SVG 1.1//EN" "http://www.w3.org/Graphics/SVG/1.1/DTD/svg11.dtd">
<svg width="30px" height="30px" version="1.1" xmlns="http://www.w3.org/2000/svg" xmlns:xlink="http://www.w3.org/1999/xlink" xml:space="preserve" xmlns:serif="http://www.serif.com/" style="fill-rule:evenodd;clip-rule:evenodd;stroke-linecap:round;stroke-linejoin:round;stroke-miterlimit:1.5;">
    <g>
        <rect x="0" y="7.37" width="30" height="15.159" style="fill:white;stroke:rgb(82,82,82);stroke-width:1px;"/>
    </g>
    <g>
        <g>
            <path d="M2.808,14.401L0.948,14.056C1.158,13.306 1.518,12.751 2.028,12.391C2.538,12.031 3.303,11.851 4.308,11.851C5.238,11.851 5.913,11.956 6.363,12.166C6.813,12.391 7.128,12.661 7.308,13.006C7.503,13.336 7.593,13.951 7.593,14.836L7.563,17.251C7.563,17.926 7.593,18.436 7.668,18.751C7.728,19.081 7.848,19.426 8.028,19.801L6.003,19.801C5.943,19.666 5.883,19.456 5.808,19.186C5.763,19.066 5.748,18.991 5.733,18.946C5.373,19.291 4.998,19.546 4.593,19.726C4.203,19.891 3.768,19.981 3.318,19.981C2.523,19.981 1.893,19.756 1.428,19.321C0.963,18.886 0.738,18.346 0.738,17.671C0.738,17.236 0.843,16.846 1.053,16.501C1.263,16.156 1.548,15.901 1.923,15.706C2.313,15.526 2.853,15.361 3.573,15.226C4.533,15.046 5.193,14.881 5.568,14.731L5.568,14.521C5.568,14.131 5.463,13.846 5.268,13.681C5.073,13.501 4.713,13.426 4.173,13.426C3.798,13.426 3.513,13.501 3.318,13.636C3.108,13.786 2.943,14.041 2.808,14.401ZM5.568,16.066C5.298,16.156 4.893,16.261 4.308,16.381C3.738,16.501 3.363,16.621 3.198,16.741C2.928,16.936 2.793,17.176 2.793,17.461C2.793,17.746 2.898,18.001 3.108,18.211C3.333,18.421 3.603,18.526 3.933,18.526C4.308,18.526 4.653,18.406 4.998,18.166C5.238,17.971 5.403,17.746 5.493,17.476C5.538,17.296 5.568,16.966 5.568,16.471L5.568,16.066Z" style="fill:rgb(62,62,62);fill-rule:nonzero;"/>
        </g>
        <g>
            <path d="M9.53,19.801L9.53,9.061L11.585,9.061L11.585,12.931C12.215,12.211 12.98,11.851 13.85,11.851C14.795,11.851 15.575,12.196 16.19,12.871C16.82,13.561 17.12,14.551 17.12,15.826C17.12,17.161 16.805,18.181 16.175,18.901C15.545,19.621 14.78,19.981 13.865,19.981C13.43,19.981 12.995,19.861 12.56,19.651C12.125,19.426 11.75,19.096 11.435,18.661L11.435,19.801L9.53,19.801ZM11.57,15.736C11.57,16.546 11.705,17.146 11.96,17.536C12.305,18.076 12.785,18.346 13.37,18.346C13.835,18.346 14.21,18.151 14.54,17.776C14.855,17.386 15.02,16.771 15.02,15.931C15.02,15.046 14.855,14.401 14.525,14.011C14.21,13.621 13.79,13.426 13.295,13.426C12.8,13.426 12.395,13.606 12.065,13.996C11.735,14.386 11.57,14.956 11.57,15.736Z" style="fill:rgb(62,62,62);fill-rule:nonzero;"/>
        </g>
        <g>
            <path d="M25.563,14.326L23.538,14.686C23.463,14.281 23.313,13.981 23.073,13.771C22.833,13.561 22.518,13.471 22.128,13.471C21.618,13.471 21.198,13.636 20.898,13.996C20.598,14.356 20.448,14.941 20.448,15.766C20.448,16.696 20.598,17.341 20.913,17.731C21.213,18.106 21.633,18.301 22.158,18.301C22.548,18.301 22.863,18.181 23.118,17.971C23.358,17.746 23.538,17.356 23.643,16.816L25.668,17.161C25.458,18.091 25.053,18.796 24.453,19.261C23.853,19.741 23.058,19.981 22.068,19.981C20.928,19.981 20.013,19.621 19.338,18.901C18.663,18.181 18.333,17.191 18.333,15.916C18.333,14.641 18.663,13.636 19.338,12.916C20.028,12.211 20.943,11.851 22.098,11.851C23.043,11.851 23.793,12.046 24.363,12.451C24.918,12.871 25.323,13.486 25.563,14.326Z" style="fill:rgb(62,62,62);fill-rule:nonzero;"/>
        </g>
    </g>
    <g>
        <path d="M26.596,8.701C26.596,8.425 26.82,8.201 27.096,8.201C27.372,8.201 27.596,8.425 27.596,8.701L27.596,21.3C27.596,21.576 27.372,21.8 27.096,21.8C26.82,21.8 26.596,21.576 26.596,21.3L26.596,8.701Z"/>
    </g>
    <rect id="outer" x="0" y="0" width="30" height="30" style="fill:none;"/>
</svg>
