<?xml version="1.0" encoding="UTF-8" standalone="no"?>
<!DOCTYPE svg PUBLIC "-//W3C//DTD SVG 1.1//EN" "http://www.w3.org/Graphics/SVG/1.1/DTD/svg11.dtd">
<svg width="30px" height="30px" version="1.1" xmlns="http://www.w3.org/2000/svg" xmlns:xlink="http://www.w3.org/1999/xlink" xml:space="preserve" xmlns:serif="http://www.serif.com/" style="fill-rule:evenodd;clip-rule:evenodd;">
    <g id="g47">
        <circle id="circle37" cx="15.045" cy="14.982" r="14.455" style="fill:url(#_Linear1);stroke:url(#_Linear2);stroke-width:1.09px;"/>
        <circle id="circle38" cx="15.071" cy="14.968" r="13.046" style="fill:url(#_Radial3);"/>
        <circle id="circle39" cx="15.019" cy="14.896" r="12.646" style="fill:rgb(128,179,255);"/>
        <g>
            <clipPath id="_clip4">
                <circle cx="15.019" cy="14.896" r="12.646"/>
            </clipPath>
            <g clip-path="url(#_clip4)">
                <circle cx="15.019" cy="15.388" r="12.646" style="fill:url(#_Linear5);"/>
            </g>
        </g>
        <g>
            <clipPath id="_clip6">
                <circle cx="15.019" cy="14.896" r="12.646"/>
            </clipPath>
            <g clip-path="url(#_clip6)">
                <path d="M26.394,9.983L15.481,15.05L15.019,28.035C8.035,28.035 2.373,22.373 2.373,15.388C2.373,8.404 8.035,2.742 15.019,2.742C20.171,2.742 24.422,5.564 26.394,9.983Z" style="fill:url(#_Linear7);fill-rule:nonzero;"/>
            </g>
        </g>
        <path id="path41" d="M17.297,4.384C17.144,4.384 17.02,4.259 17.02,4.106C17.02,3.954 17.144,3.829 17.297,3.829C17.449,3.829 17.574,3.954 17.574,4.106C17.574,4.259 17.449,4.384 17.297,4.384ZM16.107,4.239C15.954,4.239 15.83,4.115 15.83,3.963C15.83,3.81 15.954,3.686 16.107,3.686C16.259,3.686 16.384,3.81 16.384,3.963C16.384,4.115 16.259,4.239 16.107,4.239ZM18.425,4.702C18.272,4.702 18.147,4.577 18.147,4.424C18.147,4.272 18.272,4.147 18.425,4.147C18.577,4.147 18.702,4.272 18.702,4.424C18.702,4.577 18.577,4.702 18.425,4.702ZM19.451,5.101C19.298,5.101 19.173,4.977 19.173,4.824C19.173,4.672 19.298,4.547 19.451,4.547C19.603,4.547 19.728,4.672 19.728,4.824C19.728,4.977 19.603,5.101 19.451,5.101ZM21.492,6.23C21.339,6.23 21.215,6.105 21.215,5.952C21.215,5.8 21.339,5.676 21.492,5.676C21.645,5.676 21.769,5.8 21.769,5.952C21.769,6.105 21.645,6.23 21.492,6.23ZM23.235,7.819C23.083,7.819 22.958,7.695 22.958,7.543C22.958,7.39 23.083,7.266 23.235,7.266C23.388,7.266 23.512,7.39 23.512,7.543C23.512,7.695 23.388,7.819 23.235,7.819ZM23.963,8.722C23.811,8.722 23.686,8.597 23.686,8.445C23.686,8.292 23.811,8.168 23.963,8.168C24.116,8.168 24.24,8.293 24.24,8.445C24.24,8.597 24.116,8.722 23.963,8.722ZM25.164,10.783C25.011,10.783 24.887,10.659 24.887,10.507C24.887,10.354 25.011,10.229 25.164,10.229C25.316,10.229 25.441,10.354 25.441,10.507C25.441,10.659 25.316,10.783 25.164,10.783ZM25.584,11.83C25.431,11.83 25.307,11.705 25.307,11.553C25.307,11.4 25.431,11.276 25.584,11.276C25.737,11.276 25.861,11.4 25.861,11.553C25.861,11.705 25.737,11.83 25.584,11.83ZM25.83,12.886C25.677,12.886 25.553,12.762 25.553,12.609C25.553,12.456 25.677,12.332 25.83,12.332C25.983,12.332 26.107,12.456 26.107,12.609C26.107,12.762 25.983,12.886 25.83,12.886ZM26.066,14.086C25.913,14.086 25.789,13.962 25.789,13.809C25.789,13.656 25.913,13.532 26.066,13.532C26.219,13.532 26.343,13.656 26.343,13.809C26.343,13.962 26.219,14.086 26.066,14.086ZM26.046,16.424C25.893,16.424 25.769,16.3 25.769,16.148C25.769,15.995 25.893,15.871 26.046,15.871C26.198,15.871 26.322,15.995 26.322,16.148C26.322,16.3 26.198,16.424 26.046,16.424ZM25.84,17.563C25.688,17.563 25.564,17.439 25.564,17.286C25.564,17.133 25.688,17.009 25.84,17.009C25.993,17.009 26.117,17.133 26.117,17.286C26.117,17.439 25.993,17.563 25.84,17.563ZM25.553,18.732C25.4,18.732 25.276,18.608 25.276,18.455C25.276,18.303 25.4,18.178 25.553,18.178C25.706,18.178 25.83,18.303 25.83,18.455C25.83,18.608 25.706,18.732 25.553,18.732ZM25.061,19.778C24.908,19.778 24.784,19.654 24.784,19.502C24.784,19.349 24.908,19.224 25.061,19.224C25.214,19.224 25.338,19.349 25.338,19.502C25.338,19.654 25.214,19.778 25.061,19.778ZM23.963,21.829C23.811,21.829 23.686,21.705 23.686,21.553C23.686,21.4 23.811,21.275 23.963,21.275C24.116,21.275 24.24,21.4 24.24,21.553C24.24,21.705 24.116,21.829 23.963,21.829ZM23.215,22.732C23.062,22.732 22.938,22.607 22.938,22.455C22.938,22.302 23.062,22.178 23.215,22.178C23.367,22.178 23.492,22.302 23.492,22.455C23.492,22.607 23.367,22.732 23.215,22.732ZM22.405,23.542C22.252,23.542 22.128,23.418 22.128,23.265C22.128,23.113 22.252,22.988 22.405,22.988C22.557,22.988 22.682,23.113 22.682,23.265C22.682,23.418 22.557,23.542 22.405,23.542ZM21.512,24.291C21.36,24.291 21.236,24.166 21.236,24.014C21.236,23.861 21.36,23.737 21.512,23.737C21.665,23.737 21.789,23.861 21.789,24.014C21.789,24.166 21.665,24.291 21.512,24.291ZM19.43,25.44C19.277,25.44 19.153,25.315 19.153,25.162C19.153,25.01 19.277,24.886 19.43,24.886C19.583,24.886 19.707,25.01 19.707,25.162C19.707,25.315 19.583,25.44 19.43,25.44ZM18.404,25.901C18.252,25.901 18.127,25.777 18.127,25.624C18.127,25.471 18.252,25.347 18.404,25.347C18.557,25.347 18.681,25.471 18.681,25.624C18.681,25.777 18.557,25.901 18.404,25.901ZM17.225,26.158C17.072,26.158 16.948,26.034 16.948,25.881C16.948,25.728 17.072,25.604 17.225,25.604C17.377,25.604 17.502,25.728 17.502,25.881C17.502,26.034 17.377,26.158 17.225,26.158ZM16.117,26.383C15.965,26.383 15.84,26.259 15.84,26.106C15.84,25.954 15.965,25.83 16.117,25.83C16.27,25.83 16.394,25.954 16.394,26.106C16.394,26.259 16.27,26.383 16.117,26.383ZM12.537,4.383C12.385,4.383 12.26,4.259 12.26,4.106C12.26,3.954 12.385,3.83 12.537,3.83C12.69,3.83 12.814,3.954 12.814,4.106C12.814,4.259 12.69,4.383 12.537,4.383ZM13.727,4.239C13.574,4.239 13.45,4.116 13.45,3.963C13.45,3.81 13.574,3.686 13.727,3.686C13.88,3.686 14.004,3.81 14.004,3.963C14.004,4.116 13.88,4.239 13.727,4.239ZM11.409,4.701C11.257,4.701 11.132,4.577 11.132,4.424C11.132,4.272 11.256,4.147 11.409,4.147C11.562,4.147 11.686,4.272 11.686,4.424C11.686,4.577 11.562,4.701 11.409,4.701ZM10.384,5.101C10.231,5.101 10.107,4.977 10.107,4.824C10.107,4.672 10.231,4.548 10.384,4.548C10.537,4.548 10.661,4.672 10.661,4.824C10.661,4.977 10.536,5.101 10.384,5.101ZM8.342,6.23C8.19,6.23 8.066,6.105 8.066,5.953C8.066,5.8 8.19,5.676 8.342,5.676C8.495,5.676 8.619,5.8 8.619,5.953C8.619,6.105 8.495,6.23 8.342,6.23ZM6.599,7.819C6.446,7.819 6.322,7.695 6.322,7.542C6.322,7.389 6.446,7.265 6.599,7.265C6.752,7.265 6.876,7.389 6.876,7.542C6.876,7.695 6.752,7.819 6.599,7.819ZM7.476,6.973C7.323,6.973 7.199,6.849 7.199,6.696C7.199,6.544 7.323,6.419 7.476,6.419C7.629,6.419 7.752,6.543 7.752,6.696C7.752,6.849 7.629,6.973 7.476,6.973ZM5.87,8.722C5.718,8.722 5.594,8.598 5.594,8.445C5.594,8.292 5.718,8.168 5.87,8.168C6.023,8.168 6.147,8.292 6.147,8.445C6.147,8.598 6.023,8.722 5.87,8.722ZM4.671,10.783C4.518,10.783 4.394,10.659 4.394,10.506C4.394,10.354 4.518,10.229 4.671,10.229C4.824,10.229 4.948,10.354 4.948,10.506C4.948,10.659 4.823,10.783 4.671,10.783ZM4.25,11.83C4.098,11.83 3.973,11.705 3.973,11.553C3.973,11.4 4.098,11.276 4.25,11.276C4.403,11.276 4.527,11.4 4.527,11.553C4.527,11.705 4.403,11.83 4.25,11.83ZM4.004,12.886C3.851,12.886 3.727,12.761 3.727,12.609C3.727,12.456 3.851,12.332 4.004,12.332C4.157,12.332 4.281,12.456 4.281,12.609C4.281,12.761 4.157,12.886 4.004,12.886ZM3.768,14.086C3.615,14.086 3.491,13.961 3.491,13.809C3.491,13.656 3.615,13.532 3.768,13.532C3.921,13.532 4.045,13.656 4.045,13.809C4.045,13.961 3.921,14.086 3.768,14.086ZM3.789,16.424C3.636,16.424 3.512,16.3 3.512,16.148C3.512,15.995 3.636,15.871 3.789,15.871C3.941,15.871 4.066,15.995 4.066,16.148C4.066,16.3 3.941,16.424 3.789,16.424ZM3.994,17.563C3.841,17.563 3.716,17.439 3.716,17.286C3.716,17.134 3.841,17.009 3.994,17.009C4.146,17.009 4.271,17.134 4.271,17.286C4.271,17.439 4.146,17.563 3.994,17.563ZM4.281,18.732C4.128,18.732 4.004,18.608 4.004,18.455C4.004,18.303 4.128,18.178 4.281,18.178C4.434,18.178 4.558,18.303 4.558,18.455C4.558,18.608 4.434,18.732 4.281,18.732ZM4.773,19.778C4.62,19.778 4.496,19.654 4.496,19.501C4.496,19.349 4.62,19.224 4.773,19.224C4.926,19.224 5.05,19.349 5.05,19.501C5.05,19.654 4.926,19.778 4.773,19.778ZM5.871,21.83C5.718,21.83 5.594,21.705 5.594,21.553C5.594,21.4 5.718,21.275 5.871,21.275C6.023,21.275 6.148,21.4 6.148,21.553C6.148,21.705 6.023,21.83 5.871,21.83ZM6.619,22.732C6.467,22.732 6.342,22.607 6.342,22.455C6.342,22.302 6.467,22.178 6.619,22.178C6.772,22.178 6.896,22.302 6.896,22.455C6.896,22.607 6.772,22.732 6.619,22.732ZM7.429,23.542C7.277,23.542 7.152,23.418 7.152,23.265C7.152,23.113 7.277,22.988 7.429,22.988C7.582,22.988 7.706,23.113 7.706,23.265C7.706,23.418 7.582,23.542 7.429,23.542ZM8.322,24.291C8.169,24.291 8.045,24.166 8.045,24.014C8.045,23.861 8.17,23.737 8.322,23.737C8.474,23.737 8.599,23.861 8.599,24.014C8.599,24.166 8.475,24.291 8.322,24.291ZM10.404,25.44C10.251,25.44 10.127,25.315 10.127,25.162C10.127,25.01 10.251,24.886 10.404,24.886C10.557,24.886 10.681,25.01 10.681,25.162C10.681,25.315 10.557,25.44 10.404,25.44ZM11.43,25.901C11.277,25.901 11.153,25.777 11.153,25.624C11.153,25.471 11.277,25.347 11.43,25.347C11.582,25.347 11.707,25.471 11.707,25.624C11.707,25.777 11.583,25.901 11.43,25.901ZM12.609,26.158C12.457,26.158 12.332,26.034 12.332,25.881C12.332,25.728 12.456,25.604 12.609,25.604C12.762,25.604 12.886,25.728 12.886,25.881C12.886,26.034 12.762,26.158 12.609,26.158ZM13.717,26.383C13.564,26.383 13.44,26.259 13.44,26.106C13.44,25.954 13.564,25.83 13.717,25.83C13.87,25.83 13.994,25.954 13.994,26.106C13.994,26.259 13.87,26.383 13.717,26.383ZM14.834,27.05L14.834,24.927L15.327,24.927L15.327,27.05L14.834,27.05ZM14.834,4.947L14.834,2.742L15.327,2.742L15.327,4.947L14.834,4.947ZM25.055,15.199L25.055,14.706L27.178,14.706L27.178,15.199L25.055,15.199ZM2.983,15.199L2.983,14.706L5.107,14.706L5.107,15.199L2.983,15.199Z" style="fill:rgb(42,127,255);fill-rule:nonzero;"/>
        <path id="path42" d="M6.338,10.1L6.552,9.727L4.643,8.635L4.43,9.008L4.51,9.055L6.338,10.1ZM8.816,4.473L8.862,4.552L9.916,6.376L10.289,6.161L9.188,4.257L8.816,4.473ZM8.816,25.357L8.895,25.403L9.189,25.571L10.281,23.661L9.907,23.448L8.816,25.357ZM4.437,20.811L4.484,20.891L4.653,21.184L6.557,20.083L6.341,19.709L4.437,20.811ZM23.78,10.1L25.69,9.009L25.475,8.635L23.567,9.727L23.613,9.807L23.78,10.1ZM20.203,6.377L21.303,4.472L20.93,4.257L19.83,6.161L19.91,6.207L20.203,6.377ZM19.838,23.661L19.884,23.741L20.929,25.57L21.303,25.357L20.212,23.447L19.838,23.661ZM23.562,20.084L23.642,20.13L25.465,21.184L25.682,20.81L23.777,19.709L23.562,20.084Z" style="fill:rgb(85,153,255);fill-rule:nonzero;"/>
        <g id="g44">
            <path id="path43" d="M15.341,13.111C15.462,13.354 15.363,13.65 15.12,13.771L14.606,14.028C14.363,14.149 14.067,14.05 13.946,13.807L12.626,11.164C12.505,10.921 12.604,10.625 12.847,10.504L13.361,10.247C13.604,10.126 13.9,10.225 14.021,10.468L15.341,13.111Z" style="fill:rgb(95,246,255);fill-rule:nonzero;stroke:rgb(95,246,255);stroke-width:0.24px;"/>
            <path id="path44" d="M14.712,13.547L20.589,25.45" style="fill:none;fill-rule:nonzero;stroke:rgb(95,246,255);stroke-width:0.48px;stroke-linecap:round;stroke-linejoin:round;"/>
        </g>
        <g id="g46">
            <path id="path45" d="M16.843,14.433C16.887,14.649 16.748,14.861 16.531,14.905L9.501,16.353C9.284,16.397 9.073,16.257 9.028,16.041C8.984,15.824 9.123,15.613 9.34,15.569L16.369,14.121C16.587,14.077 16.799,14.216 16.843,14.433Z" style="fill:url(#_Linear8);fill-rule:nonzero;stroke:rgb(46,29,228);stroke-width:0.31px;"/>
            <path id="path46" d="M22.834,6.218C22.937,6.307 22.948,6.462 22.859,6.565L14.624,16.195C14.534,16.298 14.379,16.309 14.276,16.22L14.09,16.059C13.988,15.97 13.976,15.814 14.066,15.712L22.301,6.081C22.39,5.978 22.546,5.967 22.648,6.056L22.834,6.218Z" style="fill:url(#_Linear9);fill-rule:nonzero;stroke:rgb(46,29,228);stroke-width:0.31px;"/>
        </g>
        <circle id="circle46" cx="15.212" cy="14.75" r="1.1" style="fill:url(#_Linear10);"/>
        <circle id="circle47" cx="15.201" cy="14.753" r="0.923" style="fill:none;"/>
    </g>
    <defs>
        <linearGradient id="_Linear1" x1="0" y1="0" x2="1" y2="0" gradientUnits="userSpaceOnUse" gradientTransform="matrix(-17.2365,36.5452,-36.5452,-17.2365,27.2466,-9.8045)"><stop offset="0" style="stop-color:rgb(216,235,255);stop-opacity:1"/><stop offset="1" style="stop-color:rgb(79,169,255);stop-opacity:1"/></linearGradient>
        <linearGradient id="_Linear2" x1="0" y1="0" x2="1" y2="0" gradientUnits="userSpaceOnUse" gradientTransform="matrix(-25.1921,-13.9684,13.9684,-25.1921,28.2169,20.6852)"><stop offset="0" style="stop-color:rgb(43,121,224);stop-opacity:1"/><stop offset="1" style="stop-color:rgb(0,141,247);stop-opacity:1"/></linearGradient>
        <radialGradient id="_Radial3" cx="0" cy="0" r="1" gradientUnits="userSpaceOnUse" gradientTransform="matrix(13.0464,0,0,-13.0464,15.0705,14.9677)"><stop offset="0" style="stop-color:rgb(60,107,243);stop-opacity:1"/><stop offset="0.95" style="stop-color:rgb(60,107,243);stop-opacity:1"/><stop offset="1" style="stop-color:rgb(60,138,242);stop-opacity:1"/></radialGradient>
        <linearGradient id="_Linear5" x1="0" y1="0" x2="1" y2="0" gradientUnits="userSpaceOnUse" gradientTransform="matrix(1.52232e-15,24.8613,-24.8613,1.52232e-15,15.0195,2.92688)"><stop offset="0" style="stop-color:white;stop-opacity:1"/><stop offset="0.15" style="stop-color:rgb(225,241,255);stop-opacity:1"/><stop offset="0.24" style="stop-color:rgb(212,235,255);stop-opacity:1"/><stop offset="0.35" style="stop-color:rgb(227,242,255);stop-opacity:1"/><stop offset="0.53" style="stop-color:rgb(243,249,255);stop-opacity:1"/><stop offset="0.73" style="stop-color:rgb(252,254,255);stop-opacity:1"/><stop offset="1" style="stop-color:white;stop-opacity:1"/></linearGradient>
        <linearGradient id="_Linear7" x1="0" y1="0" x2="1" y2="0" gradientUnits="userSpaceOnUse" gradientTransform="matrix(24.0203,0,0,24.0203,2.37322,15.3884)"><stop offset="0" style="stop-color:white;stop-opacity:0.15"/><stop offset="0.14" style="stop-color:rgb(237,247,255);stop-opacity:0.15"/><stop offset="0.28" style="stop-color:rgb(224,242,255);stop-opacity:0.15"/><stop offset="0.31" style="stop-color:rgb(227,243,255);stop-opacity:0.15"/><stop offset="0.49" style="stop-color:rgb(243,250,255);stop-opacity:0.15"/><stop offset="0.71" style="stop-color:rgb(252,254,255);stop-opacity:0.15"/><stop offset="1" style="stop-color:white;stop-opacity:0.15"/></linearGradient>
        <linearGradient id="_Linear8" x1="0" y1="0" x2="1" y2="0" gradientUnits="userSpaceOnUse" gradientTransform="matrix(-0.0500511,0.171069,-0.171069,-0.0500511,9.09068,9.99215)"><stop offset="0" style="stop-color:rgb(82,74,201);stop-opacity:1"/><stop offset="0.1" style="stop-color:rgb(88,85,188);stop-opacity:1"/><stop offset="0.24" style="stop-color:rgb(93,96,175);stop-opacity:1"/><stop offset="0.37" style="stop-color:rgb(95,100,171);stop-opacity:1"/><stop offset="0.73" style="stop-color:rgb(25,12,127);stop-opacity:1"/><stop offset="1" style="stop-color:rgb(25,12,127);stop-opacity:1"/></linearGradient>
        <linearGradient id="_Linear9" x1="0" y1="0" x2="1" y2="0" gradientUnits="userSpaceOnUse" gradientTransform="matrix(0.20542,0.114392,-0.114392,0.20542,10.9676,9.14713)"><stop offset="0" style="stop-color:rgb(82,74,201);stop-opacity:1"/><stop offset="0.1" style="stop-color:rgb(88,85,188);stop-opacity:1"/><stop offset="0.24" style="stop-color:rgb(93,96,175);stop-opacity:1"/><stop offset="0.37" style="stop-color:rgb(95,100,171);stop-opacity:1"/><stop offset="0.73" style="stop-color:rgb(25,12,127);stop-opacity:1"/><stop offset="1" style="stop-color:rgb(25,12,127);stop-opacity:1"/></linearGradient>
        <linearGradient id="_Linear10" x1="0" y1="0" x2="1" y2="0" gradientUnits="userSpaceOnUse" gradientTransform="matrix(1.234e-16,2.01527,-2.01527,1.234e-16,15.2117,13.6961)"><stop offset="0" style="stop-color:rgb(139,164,214);stop-opacity:1"/><stop offset="1" style="stop-color:rgb(27,62,166);stop-opacity:1"/></linearGradient>
    </defs>
</svg>
