<?xml version="1.0" encoding="UTF-8" standalone="no"?>
<svg
   width="620"
   height="620"
   version="1.0"
   viewBox="0 0 62 62"
   id="svg47"
   sodipodi:docname="wxTimer.svg"
   inkscape:export-filename="wxTimer.png"
   inkscape:export-xdpi="3.4064517"
   inkscape:export-ydpi="3.4064517"
   inkscape:version="1.3 (0e150ed6c4, 2023-07-21)"
   xmlns:inkscape="http://www.inkscape.org/namespaces/inkscape"
   xmlns:sodipodi="http://sodipodi.sourceforge.net/DTD/sodipodi-0.dtd"
   xmlns:xlink="http://www.w3.org/1999/xlink"
   xmlns="http://www.w3.org/2000/svg"
   xmlns:svg="http://www.w3.org/2000/svg">
  <sodipodi:namedview
     id="namedview47"
     pagecolor="#ffffff"
     bordercolor="#666666"
     borderopacity="1.0"
     inkscape:showpageshadow="2"
     inkscape:pageopacity="0.0"
     inkscape:pagecheckerboard="0"
     inkscape:deskcolor="#d1d1d1"
     showgrid="false"
     inkscape:zoom="3.0112903"
     inkscape:cx="309.83396"
     inkscape:cy="283.43332"
     inkscape:window-width="3840"
     inkscape:window-height="2081"
     inkscape:window-x="-9"
     inkscape:window-y="41"
     inkscape:window-maximized="1"
     inkscape:current-layer="svg47" />
  <defs
     id="defs36">
    <linearGradient
       id="a"
       x1="52.778114"
       x2="22.0144"
       y1="-13.238551"
       y2="51.987099"
       gradientUnits="userSpaceOnUse">
      <stop
         offset="0"
         stop-color="#d8ebff"
         id="stop1" />
      <stop
         offset="1"
         stop-color="#4fa9ff"
         id="stop2" />
    </linearGradient>
    <linearGradient
       xlink:href="#a"
       id="b"
       x1="54.509937"
       x2="9.5471001"
       y1="41.179295"
       y2="16.248501"
       gradientUnits="userSpaceOnUse"
       spreadMethod="pad">
      <stop
         offset="0"
         stop-color="#2b79e0"
         id="stop3" />
      <stop
         offset="1"
         stop-color="#008df7"
         id="stop4" />
    </linearGradient>
    <linearGradient
       id="f"
       x1="61.6255"
       x2="61.6255"
       y1="-551.25"
       y2="-652.24951"
       gradientTransform="matrix(1 0 0 -1 0 -538)"
       gradientUnits="userSpaceOnUse">
      <stop
         offset="0"
         stop-color="#fff"
         id="stop5" />
      <stop
         offset=".1478"
         stop-color="#e1f1ff"
         id="stop6" />
      <stop
         offset=".2363"
         stop-color="#d4ebff"
         id="stop7" />
      <stop
         offset=".3505"
         stop-color="#e3f2ff"
         id="stop8" />
      <stop
         offset=".5264"
         stop-color="#f3f9ff"
         id="stop9" />
      <stop
         offset=".7262"
         stop-color="#fcfeff"
         id="stop10" />
      <stop
         offset="1"
         stop-color="#fff"
         id="stop11" />
    </linearGradient>
    <linearGradient
       id="g"
       x1="10.25"
       x2="107.833"
       y1="728.875"
       y2="728.875"
       gradientTransform="translate(0 -665)"
       gradientUnits="userSpaceOnUse">
      <stop
         offset="0"
         stop-color="#fff"
         id="stop12" />
      <stop
         offset=".1435"
         stop-color="#edf7ff"
         id="stop13" />
      <stop
         offset=".2802"
         stop-color="#e0f2ff"
         id="stop14" />
      <stop
         offset=".3063"
         stop-color="#e3f3ff"
         id="stop15" />
      <stop
         offset=".4942"
         stop-color="#f3faff"
         id="stop16" />
      <stop
         offset=".7076"
         stop-color="#fcfeff"
         id="stop17" />
      <stop
         offset="1"
         stop-color="#fff"
         id="stop18" />
    </linearGradient>
    <linearGradient
       id="e"
       x1="62.4063"
       x2="62.4063"
       y1="-595"
       y2="-603.18707"
       gradientTransform="matrix(1 0 0 -1 0 -538)"
       gradientUnits="userSpaceOnUse">
      <stop
         offset="0"
         stop-color="#8ba4d6"
         id="stop19" />
      <stop
         offset="1"
         stop-color="#1b3ea6"
         id="stop20" />
    </linearGradient>
    <linearGradient
       id="c"
       x1="-160.0361"
       x2="-160.0361"
       y1="-726.61621"
       y2="-729.13458"
       gradientTransform="matrix(.46993 .04741 .08074 -.27596 171.41242 -150.97698)"
       gradientUnits="userSpaceOnUse">
      <stop
         offset="0"
         stop-color="#524ac9"
         id="stop21" />
      <stop
         offset=".0957"
         stop-color="#5855bc"
         id="stop22" />
      <stop
         offset=".2352"
         stop-color="#5d60af"
         id="stop23" />
      <stop
         offset=".3681"
         stop-color="#5f64ab"
         id="stop24" />
      <stop
         offset=".7253"
         stop-color="#190c7f"
         id="stop25" />
    </linearGradient>
    <linearGradient
       id="d"
       x1="-915.77289"
       x2="-915.77289"
       y1="-785.93951"
       y2="-789.15601"
       gradientTransform="matrix(.14448 -.25945 -.25945 -.14448 -26.436133 -312.62999)"
       gradientUnits="userSpaceOnUse">
      <stop
         offset="0"
         stop-color="#524ac9"
         id="stop26" />
      <stop
         offset=".0957"
         stop-color="#5855bc"
         id="stop27" />
      <stop
         offset=".2352"
         stop-color="#5d60af"
         id="stop28" />
      <stop
         offset=".3681"
         stop-color="#5f64ab"
         id="stop29" />
      <stop
         offset=".7253"
         stop-color="#190c7f"
         id="stop30" />
    </linearGradient>
    <linearGradient
       xlink:href="#a"
       id="m"
       x1="52.778114"
       x2="22.0144"
       y1="-13.238551"
       y2="51.987099"
       gradientUnits="userSpaceOnUse" />
    <linearGradient
       xlink:href="#b"
       id="n"
       x1="54.509937"
       x2="9.5471001"
       y1="41.179295"
       y2="16.248501"
       gradientUnits="userSpaceOnUse"
       spreadMethod="pad" />
    <linearGradient
       xlink:href="#c"
       id="t"
       x1="-160.0361"
       x2="-160.0361"
       y1="-726.61621"
       y2="-729.13458"
       gradientTransform="matrix(.46993 .04741 .08074 -.27596 171.41242 -150.97698)"
       gradientUnits="userSpaceOnUse" />
    <linearGradient
       xlink:href="#d"
       id="u"
       x1="-915.77289"
       x2="-915.77289"
       y1="-785.93951"
       y2="-789.15601"
       gradientTransform="matrix(.14448 -.25945 -.25945 -.14448 -26.436133 -312.62999)"
       gradientUnits="userSpaceOnUse" />
    <linearGradient
       xlink:href="#e"
       id="v"
       x1="62.4063"
       x2="62.4063"
       y1="-595"
       y2="-603.18707"
       gradientTransform="matrix(1 0 0 -1 0 -538)"
       gradientUnits="userSpaceOnUse" />
    <linearGradient
       xlink:href="#f"
       id="p"
       x1="61.6255"
       x2="61.6255"
       y1="-551.25"
       y2="-652.24951"
       gradientTransform="matrix(1 0 0 -1 0 -538)"
       gradientUnits="userSpaceOnUse" />
    <linearGradient
       xlink:href="#g"
       id="r"
       x1="10.25"
       x2="107.833"
       y1="728.875"
       y2="728.875"
       gradientTransform="translate(0 -665)"
       gradientUnits="userSpaceOnUse" />
    <radialGradient
       id="h">
      <stop
         offset="0"
         stop-color="silver"
         id="stop31" />
      <stop
         offset=".88"
         stop-color="silver"
         id="stop32" />
      <stop
         offset="1"
         stop-color="silver"
         stop-opacity="0"
         id="stop33" />
    </radialGradient>
    <radialGradient
       id="i"
       cx="61.833"
       cy="-600.16602"
       r="53.000999"
       gradientTransform="matrix(1 0 0 -1 0 -538)"
       gradientUnits="userSpaceOnUse">
      <stop
         offset=".95050001"
         stop-color="#3c6bf3"
         id="stop34" />
      <stop
         offset="1"
         stop-color="#3c8af2"
         id="stop35" />
    </radialGradient>
    <radialGradient
       xlink:href="#h"
       id="l"
       cx="32.5"
       cy="29.5"
       r="26.5"
       fx="32.5"
       fy="29.5"
       gradientUnits="userSpaceOnUse" />
    <radialGradient
       xlink:href="#SVGID_14_"
       id="w"
       cx="61.3652"
       cy="-595.29199"
       r="7.5655999"
       gradientTransform="matrix(1 0 0 -1 0 -538)"
       gradientUnits="userSpaceOnUse" />
    <radialGradient
       xlink:href="#i"
       id="o"
       cx="61.833"
       cy="-600.16602"
       r="53.000999"
       gradientTransform="matrix(1 0 0 -1 0 -538)"
       gradientUnits="userSpaceOnUse" />
    <clipPath
       id="q">
      <use
         xlink:href="#j"
         width="62"
         height="62"
         overflow="visible"
         id="use35" />
    </clipPath>
    <clipPath
       id="s">
      <use
         xlink:href="#k"
         width="62"
         height="62"
         overflow="visible"
         id="use36" />
    </clipPath>
    <circle
       id="j"
       cx="61.625"
       cy="61.875"
       r="51.375" />
    <circle
       id="k"
       cx="61.625"
       cy="61.875"
       r="51.375" />
  </defs>
  <path
     fill="url(#path3099_1_)"
     d="M188.38301 80.903553c0 5.532-12.759 10.02-28.496 10.02-15.736 0-28.495-4.487-28.495-10.02 0-5.534 12.759-10.019 28.495-10.019 15.737 0 28.496 4.485 28.496 10.019z"
     opacity=".1"
     id="path36" />
  <g
     transform="translate(-38.439205 -36.862078) scale(1.58295)"
     id="g47">
    <circle
       cx="32.5"
       cy="29.5"
       r="26.5"
       fill="url(#l)"
       transform="matrix(.73953 0 0 .73955 19.982376 21.281751)"
       id="circle36" />
    <circle
       cx="31"
       cy="31"
       r="25.799999"
       fill="url(#m)"
       stroke="url(#n)"
       stroke-width="1.94443798"
       transform="translate(21.440881 20.527218) scale(.69453)"
       id="circle37" />
    <circle
       cx="61.833"
       cy="62.166"
       r="53.000999"
       fill="url(#o)"
       transform="translate(24.136393 23.071402) scale(.30513)"
       id="circle38" />
    <circle
       cx="61.625"
       cy="61.875"
       r="51.375"
       fill="#80b3ff"
       transform="translate(24.136393 23.071402) scale(.30513)"
       id="circle39" />
    <circle
       cx="61.625"
       cy="63.875"
       r="51.375"
       fill="url(#p)"
       clip-path="url(#q)"
       transform="translate(24.136393 23.071402) scale(.30513)"
       id="circle40" />
    <path
       fill="url(#r)"
       d="M107.833 41.917 63.5 62.5l-1.875 52.75c-28.373 0-51.375-23.001-51.375-51.375S33.252 12.5 61.625 12.5c20.927 0 38.198 11.465 46.208 29.417z"
       clip-path="url(#s)"
       opacity=".15"
       transform="translate(24.136393 23.071402) scale(.30513)"
       id="path40" />
    <path
       fill="#2a7fff"
       d="M45.76309201 28.92013384c-.1891806 0-.34357638-.15439578-.34357638-.34357638s.15439578-.34357638.34357638-.34357638c.18887547 0 .34357638.15439578.34357638.34357638s-.15470091.34357638-.34357638.34357638zm-1.47469329-.17880618c-.18948573 0-.34327125-.15378552-.34327125-.34266099 0-.18948573.15378552-.34327125.34327125-.34327125.18887547 0 .34266099.15378552.34266099.34327125 0 .18887547-.15378552.34266099-.34266099.34266099zm2.87310408.57303414c-.1891806 0-.34388151-.15439578-.34388151-.34357638s.15470091-.34357638.34388151-.34357638c.18887547 0 .34357638.15470091.34357638.34357638 0 .1891806-.15470091.34357638-.34357638.34357638zm1.27178184.49553112c-.1891806 0-.34388151-.15409065-.34388151-.34327125s.15470091-.34388151.34388151-.34388151.34327125.15470091.34327125.34388151-.15409065.34327125-.34327125.34327125zm2.52983283 1.39841079c-.1891806 0-.34357638-.15409065-.34357638-.34357638 0-.18887547.15439578-.34296612.34357638-.34296612.18948573 0 .34357638.15409065.34357638.34296612 0 .18948573-.15409065.34357638-.34357638.34357638zm2.16123579 1.97083467c-.18887547 0-.34327125-.15439578-.34327125-.34327125 0-.1891806.15439578-.34327125.34327125-.34327125s.34327125.15409065.34327125.34327125c0 .18887547-.15439578.34327125-.34327125.34327125zm.90257454 1.11860658c-.18887547 0-.34327125-.15439578-.34327125-.34327125 0-.1891806.15439578-.34327125.34327125-.34327125.1891806 0 .34357638.15439578.34357638.34327125 0 .1891806-.15439578.34327125-.34357638.34327125zm1.48781388 2.55546375c-.1891806 0-.34296612-.15378552-.34296612-.34296612 0-.18979086.15378552-.34357638.34296612-.34357638.18948573 0 .34357638.15378552.34357638.34357638 0 .1891806-.15409065.34296612-.34357638.34296612zm.52146717 1.2968025c-.18979086 0-.34357638-.15378552-.34357638-.34327125 0-.1891806.15378552-.34296612.34357638-.34296612.1891806 0 .34296612.15378552.34296612.34296612 0 .1891806-.15378552.34327125-.34296612.34327125zm.30513 1.30931283c-.18979086 0-.34357638-.15378552-.34357638-.34327125 0-.18979086.15378552-.34357638.34357638-.34357638.1891806 0 .34296612.15378552.34296612.34357638 0 .18948573-.15378552.34327125-.34296612.34327125zm.29231454 1.48750875c-.18979086 0-.34388151-.15378552-.34388151-.34327125s.15409065-.34327125.34388151-.34327125c.1891806 0 .34296612.15378552.34296612.34327125s-.15378552.34327125-.34296612.34327125zm-.02532579 2.89904013c-.1891806 0-.34327125-.15409065-.34327125-.34327125s.15409065-.34296612.34327125-.34296612.34296612.15378552.34296612.34296612c0 .1891806-.15378552.34327125-.34296612.34327125zm-.25478355 1.41153138c-.1891806 0-.34296612-.15409065-.34296612-.34388151 0-.1891806.15378552-.34296612.34296612-.34296612.18979086 0 .34357638.15378552.34357638.34296612 0 .18979086-.15378552.34388151-.34357638.34388151zm-.35608671 1.4493675c-.1891806 0-.34296612-.15378552-.34296612-.34357638 0-.1891806.15378552-.34327125.34296612-.34327125.18979086 0 .34388151.15409065.34388151.34327125 0 .18979086-.15409065.34357638-.34388151.34357638zm-.60995487 1.29649737c-.1891806 0-.34296612-.15378552-.34296612-.34296612 0-.18979086.15378552-.34357638.34296612-.34357638.18979086 0 .34357638.15378552.34357638.34357638 0 .1891806-.15378552.34296612-.34357638.34296612zm-1.3608798 2.54264829c-.18887547 0-.34327125-.15439578-.34327125-.34327125s.15439578-.34357638.34327125-.34357638c.1891806 0 .34357638.15470091.34357638.34357638 0 .18887547-.15439578.34327125-.34357638.34327125zm-.9275952 1.11860658c-.18887547 0-.34327125-.15439578-.34327125-.34327125 0-.1891806.15439578-.34327125.34327125-.34327125s.34327125.15409065.34327125.34327125c0 .18887547-.15439578.34327125-.34327125.34327125zm-1.0038777 1.00448796c-.1891806 0-.34357638-.15439578-.34357638-.34327125s.15439578-.34327125.34357638-.34327125c.18887547 0 .34327125.15439578.34327125.34327125s-.15439578.34327125-.34327125.34327125zm-1.10670651.9275952c-.18887547 0-.34266099-.15378552-.34266099-.34266099 0-.1891806.15378552-.34357638.34266099-.34357638.1891806 0 .34357638.15439578.34357638.34357638 0 .18887547-.15439578.34266099-.34357638.34266099zm-2.58048441 1.42465197c-.18979086 0-.34388151-.15409065-.34388151-.34388151 0-.18887547.15409065-.34296612.34388151-.34296612.18887547 0 .34296612.15409065.34296612.34296612 0 .18979086-.15409065.34388151-.34296612.34388151zm-1.27178184.57211875c-.1891806 0-.34327125-.15409065-.34327125-.34388151 0-.1891806.15409065-.34296612.34327125-.34296612s.34296612.15378552.34296612.34296612c0 .18979086-.15378552.34388151-.34296612.34388151zm-1.46218296.31764033c-.1891806 0-.34296612-.15378552-.34296612-.34296612 0-.1891806.15378552-.34327125.34296612-.34327125.1891806 0 .34296612.15409065.34296612.34327125s-.15378552.34296612-.34296612.34296612zm-1.37277987.27980421c-.1891806 0-.34327125-.15378552-.34327125-.34327125 0-.1891806.15409065-.34296612.34327125-.34296612s.34296612.15378552.34296612.34296612c0 .18948573-.15378552.34327125-.34296612.34327125zm-4.43781072-27.27099375c-.1891806 0-.34327125-.15409065-.34327125-.34327125s.15409065-.34327125.34327125-.34327125.34327125.15409065.34327125.34327125-.15378552.34327125-.34327125.34327125zm1.47499842-.17850105c-.18948573 0-.34357638-.15348039-.34357638-.34296612s.15409065-.34296612.34357638-.34296612c.18948573 0 .34296612.15348039.34296612.34296612s-.15348039.34296612-.34296612.34296612zm-2.87340921.57242388c-.1891806 0-.34327125-.15409065-.34327125-.34327125s.15378552-.34327125.34327125-.34327125c.1891806 0 .34327125.15409065.34327125.34327125s-.15409065.34327125-.34327125.34327125zm-1.27147671.49614138c-.18887547 0-.34296612-.15409065-.34296612-.34357638 0-.1891806.15378552-.34296612.34296612-.34296612.18979086 0 .34357638.15378552.34357638.34296612 0 .18948573-.15409065.34357638-.34357638.34357638zM34.663378 31.20830371c-.18948573 0-.34327125-.15378552-.34327125-.34327125s.15378552-.34327125.34327125-.34327125.34327125.15378552.34327125.34327125-.15378552.34327125-.34327125.34327125zm-2.16123579 1.97083467c-.18948573 0-.34357638-.15439578-.34357638-.34357638 0-.18948573.15439578-.34327125.34357638-.34327125s.34327125.15378552.34327125.34327125-.15378552.34357638-.34327125.34357638zm1.08687306-1.04873181c-.18948573 0-.34327125-.15439578-.34327125-.34357638s.15378552-.34327125.34327125-.34327125.34296612.15378552.34296612.34327125-.15348039.34357638-.34296612.34357638zm-1.99005786 2.16733839c-.18887547 0-.34266099-.15378552-.34266099-.34327125s.15378552-.34327125.34266099-.34327125c.18948573 0 .34327125.15378552.34327125.34327125s-.15378552.34327125-.34327125.34327125zm-1.48720362 2.55546375c-.1891806 0-.34327125-.15378552-.34327125-.34357638 0-.1891806.15409065-.34327125.34327125-.34327125.18979086 0 .34357638.15409065.34357638.34327125-.00030513.18979086-.15409065.34357638-.34357638.34357638zm-.52116204 1.2968025c-.1891806 0-.34327125-.15409065-.34327125-.34327125s.15409065-.34327125.34327125-.34327125.34327125.15409065.34327125.34327125c-.00030513.1891806-.15439578.34327125-.34327125.34327125zm-.30513 1.30931283c-.1891806 0-.34327125-.15409065-.34327125-.34327125s.15409065-.34266099.34327125-.34266099.34296612.15348039.34296612.34266099-.15348039.34327125-.34296612.34327125zm-.29231454 1.48781388c-.18948573 0-.34296612-.15439578-.34296612-.34357638 0-.18948573.15348039-.34296612.34296612-.34296612s.34296612.15348039.34296612.34296612c0 .1891806-.15378552.34357638-.34296612.34357638zm.02532579 2.89842987c-.18887547 0-.34296612-.15409065-.34296612-.34296612 0-.18948573.15378552-.34327125.34296612-.34327125.18948573 0 .34327125.15378552.34327125.34327125 0 .18887547-.15378552.34296612-.34327125.34296612zm.25417329 1.41214164c-.1891806 0-.34357638-.15470091-.34357638-.34357638 0-.1891806.15439578-.34357638.34357638-.34357638s.34357638.15439578.34357638.34357638c0 .18887547-.15439578.34357638-.34357638.34357638zm.35608671 1.44906237c-.1891806 0-.34388151-.15470091-.34388151-.34388151 0-.18887547.15470091-.34296612.34388151-.34296612s.34357638.15409065.34357638.34296612c0 .1891806-.15439578.34388151-.34357638.34388151zm.60995487 1.29649737c-.1891806 0-.34327125-.15378552-.34327125-.34327125 0-.1891806.15409065-.34327125.34327125-.34327125.18948573 0 .34388151.15409065.34388151.34327125 0 .18948573-.15439578.34327125-.34388151.34327125zm1.36057467 2.54295342c-.18887547 0-.34296612-.15409065-.34296612-.34357638 0-.18948573.15409065-.34357638.34296612-.34357638.18948573 0 .34357638.15409065.34357638.34357638 0 .18948573-.15409065.34357638-.34357638.34357638zm.92820546 1.11830145c-.18887547 0-.34327125-.15439578-.34327125-.34327125 0-.18948573.15439578-.34357638.34327125-.34357638s.34327125.15409065.34327125.34357638c0 .18887547-.15439578.34327125-.34327125.34327125zm1.0038777 1.00448796c-.18887547 0-.34327125-.15439578-.34327125-.34327125s.15439578-.34327125.34327125-.34327125c.1891806 0 .34327125.15439578.34327125.34327125s-.15409065.34327125-.34327125.34327125zm1.10670651.9275952c-.1891806 0-.34327125-.15378552-.34327125-.34266099 0-.1891806.15439578-.34357638.34327125-.34357638s.34296612.15439578.34296612.34357638c0 .18887547-.15378552.34266099-.34296612.34266099zm2.58078954 1.42465197c-.1891806 0-.34296612-.15409065-.34296612-.34388151 0-.18887547.15378552-.34296612.34296612-.34296612.1891806 0 .34296612.15409065.34296612.34296612 0 .18979086-.15378552.34388151-.34296612.34388151zm1.27147671.57211875c-.18979086 0-.34357638-.15409065-.34357638-.34388151 0-.1891806.15378552-.34296612.34357638-.34296612.1891806 0 .34327125.15378552.34327125.34296612 0 .18979086-.15378552.34388151-.34327125.34388151zm1.46218296.31764033c-.1891806 0-.34327125-.15378552-.34327125-.34296612 0-.1891806.15378552-.34327125.34327125-.34327125s.34327125.15409065.34327125.34327125-.15378552.34296612-.34327125.34296612zm1.373085.27980421c-.1891806 0-.34327125-.15378552-.34327125-.34327125 0-.1891806.15378552-.34296612.34327125-.34296612s.34327125.15378552.34327125.34296612c-.00030513.18948573-.15409065.34327125-.34327125.34327125zM42.71087662 57.0171145v-2.63205138h.61056513v2.63205138h-.61056513zm0-27.39823296V26.885527h.61026v2.73335454h-.61026zm12.66930273 12.70744398v-.61056513h2.63205138v.61056513h-2.63205138zm-27.36009171 0v-.61026h2.63205138v.61026h-2.63205138z"
       id="path41" />
    <path
       fill="#59f"
       d="m32.1792435 36.00666363.26454537-.46348837-2.36595708-1.35323958-.2648505.46287812.0994715.05736393 2.26679071 1.2964859zm3.07080115-6.97612546.05766906.09886124 1.30624997 2.26038304.46257299-.26698638-1.36452929-2.35924429-.46196273.26698639zm0 25.88761039.09886124.0570588.364322.2090122 1.35293445-2.36748272-.46348837-.26424024-1.35262932 2.36565196zm-5.42729929-5.63448073.05736394.0994715.20962245.36249124 2.36015967-1.36513954-.26790177-.462573-2.35924429 1.3657498zM53.79995372 36.0063585l2.3671776-1.35293445-.26576588-.46348837-2.36595708 1.3535447.05736393.09916638.20718143.36371174zm-4.4338048-4.61566067 1.36361391-2.36076992-.46318324-.26668126-1.36330878 2.35954942.09886125.05797418.36401687.20992758zm-.4528089 21.42573388.0570588.0994715 1.29526539 2.26709584.46409862-.2648505-1.35293445-2.36687246-.46348837.26515562zm4.61657604-4.43472018.098251.05736394 2.26038303 1.3065551.26881715-.46287812-2.36076992-1.36483441-.26668126.4637935z"
       id="path42" />
    <g
       stroke="#5ff6ff"
       transform="translate(24.136393 23.071402) scale(.30513)"
       id="g44">
      <path
         fill="#5ff6ff"
         stroke-width=".97221899"
         d="M62.93 54.622c.493.988.092 2.189-.896 2.683l-2.088 1.042c-.988.493-2.189.092-2.683-.896l-5.359-10.737c-.493-.988-.092-2.189.896-2.683l2.088-1.042c.988-.493 2.189-.092 2.683.896l5.359 10.737z"
         id="path43" />
      <path
         fill="none"
         stroke-linecap="round"
         stroke-linejoin="round"
         stroke-width="1.94443798"
         d="M60.375 56.396 84.25 104.75"
         id="path44" />
    </g>
    <g
       stroke="#2e1de4"
       stroke-width="1.27266729"
       transform="translate(24.136393 23.071402) scale(.30513)"
       id="g46">
      <path
         fill="url(#t)"
         d="M69.033 59.994c.18.879-.387 1.737-1.266 1.918l-28.562 5.88c-.879.181-1.738-.387-1.918-1.267-.18-.879.386-1.738 1.265-1.918l28.558-5.879c.884-.18 1.744.386 1.923 1.266z"
         id="path45" />
      <path
         fill="url(#u)"
         d="M93.373 26.619c.417.362.463.993.102 1.41L60.017 67.152c-.362.418-.994.463-1.411.102l-.755-.656c-.417-.361-.463-.992-.101-1.41l33.458-39.124c.36-.418.993-.462 1.409-.101l.756.656z"
         id="path46" />
    </g>
    <circle
       cx="62.405998"
       cy="61.280998"
       r="4.4689999"
       fill="url(#v)"
       transform="translate(24.136393 23.071402) scale(.30513)"
       id="circle46" />
    <circle
       cx="62.365002"
       cy="61.292"
       r="3.75"
       fill="url(#w)"
       transform="translate(24.136393 23.071402) scale(.30513)"
       id="circle47" />
  </g>
</svg>
