<?xml version="1.0" encoding="UTF-8" standalone="no"?><!DOCTYPE svg PUBLIC "-//W3C//DTD SVG 1.1//EN" "http://www.w3.org/Graphics/SVG/1.1/DTD/svg11.dtd"><svg width="100%" height="100%" viewBox="0 0 620 620" version="1.1" xmlns="http://www.w3.org/2000/svg" xmlns:xlink="http://www.w3.org/1999/xlink" xml:space="preserve" xmlns:serif="http://www.serif.com/" style="fill-rule:evenodd;clip-rule:evenodd;"><g id="g47"><ellipse id="circle36" cx="312.377" cy="313.607" rx="310.219" ry="310.228" style="fill:url(#_Radial1);"/><circle id="circle37" cx="295.822" cy="297.131" r="283.647" style="fill:url(#_Linear2);stroke:url(#_Linear3);stroke-width:21.38px;"/><circle id="circle38" cx="296.332" cy="296.853" r="255.998" style="fill:url(#_Radial4);"/><circle id="circle39" cx="295.327" cy="295.448" r="248.144" style="fill:#80b3ff;"/><clipPath id="_clip5"><circle id="circle40" cx="295.327" cy="295.448" r="248.144"/></clipPath><g clip-path="url(#_clip5)"><circle cx="295.327" cy="305.108" r="248.144" style="fill:url(#_Linear6);"/></g><clipPath id="_clip7"><circle id="path40" cx="295.327" cy="295.448" r="248.144"/></clipPath><g clip-path="url(#_clip7)"><path d="M518.514,199.049l-214.131,99.417l-9.056,254.786c-137.043,-0 -248.144,-111.096 -248.144,-248.144c0,-137.048 111.101,-248.144 248.144,-248.144c101.079,-0 184.499,55.376 223.187,142.085Z" style="fill:url(#_Linear8);fill-rule:nonzero;"/></g><path id="path41" d="M340.015,89.17c-2.995,0 -5.439,-2.444 -5.439,-5.438c0,-2.995 2.444,-5.439 5.439,-5.439c2.99,0 5.438,2.444 5.438,5.439c0,2.994 -2.448,5.438 -5.438,5.438Zm-23.344,-2.83c-2.999,0 -5.434,-2.434 -5.434,-5.424c0,-3 2.435,-5.434 5.434,-5.434c2.99,0 5.424,2.434 5.424,5.434c0,2.99 -2.434,5.424 -5.424,5.424Zm45.48,9.071c-2.995,-0 -5.444,-2.444 -5.444,-5.439c0,-2.994 2.449,-5.438 5.444,-5.438c2.99,-0 5.439,2.448 5.439,5.438c-0,2.995 -2.449,5.439 -5.439,5.439Zm20.132,7.844c-2.995,-0 -5.444,-2.439 -5.444,-5.434c0,-2.995 2.449,-5.443 5.444,-5.443c2.994,-0 5.433,2.448 5.433,5.443c0,2.995 -2.439,5.434 -5.433,5.434Zm40.046,22.136c-2.995,0 -5.439,-2.439 -5.439,-5.439c-0,-2.989 2.444,-5.429 5.439,-5.429c2.999,0 5.438,2.44 5.438,5.429c0,3 -2.439,5.439 -5.438,5.439Zm34.211,31.197c-2.99,0 -5.434,-2.444 -5.434,-5.433c0,-2.995 2.444,-5.434 5.434,-5.434c2.99,-0 5.434,2.439 5.434,5.434c-0,2.989 -2.444,5.433 -5.434,5.433Zm14.287,17.707c-2.99,0 -5.434,-2.444 -5.434,-5.433c0,-2.995 2.444,-5.434 5.434,-5.434c2.995,-0 5.439,2.444 5.439,5.434c-0,2.994 -2.444,5.433 -5.439,5.433Zm23.552,40.452c-2.995,0 -5.429,-2.434 -5.429,-5.429c-0,-3.004 2.434,-5.439 5.429,-5.439c2.999,0 5.438,2.435 5.438,5.439c0,2.995 -2.439,5.429 -5.438,5.429Zm8.254,20.528c-3.004,-0 -5.439,-2.435 -5.439,-5.434c0,-2.995 2.435,-5.429 5.439,-5.429c2.995,0 5.429,2.434 5.429,5.429c0,2.995 -2.434,5.434 -5.429,5.434Zm4.83,20.726c-3.004,-0 -5.438,-2.435 -5.438,-5.434c-0,-3.005 2.434,-5.439 5.438,-5.439c2.995,0 5.429,2.434 5.429,5.439c0,2.999 -2.434,5.434 -5.429,5.434Zm4.627,23.546c-3.004,0 -5.443,-2.434 -5.443,-5.434c-0,-2.999 2.439,-5.434 5.443,-5.434c2.995,0 5.429,2.435 5.429,5.434c0,3 -2.434,5.434 -5.429,5.434Zm-0.401,45.89c-2.994,0 -5.433,-2.439 -5.433,-5.433c-0,-2.995 2.439,-5.429 5.433,-5.429c2.995,-0 5.429,2.434 5.429,5.429c0,2.994 -2.434,5.433 -5.429,5.433Zm-4.033,22.344c-2.994,0 -5.429,-2.439 -5.429,-5.443c0,-2.995 2.435,-5.429 5.429,-5.429c3.005,-0 5.439,2.434 5.439,5.429c0,3.004 -2.434,5.443 -5.439,5.443Zm-5.636,22.943c-2.995,0 -5.429,-2.434 -5.429,-5.439c-0,-2.994 2.434,-5.433 5.429,-5.433c3.004,-0 5.443,2.439 5.443,5.433c0,3.005 -2.439,5.439 -5.443,5.439Zm-9.656,20.523c-2.994,-0 -5.429,-2.434 -5.429,-5.429c0,-3.004 2.435,-5.439 5.429,-5.439c3.005,0 5.439,2.435 5.439,5.439c0,2.995 -2.434,5.429 -5.439,5.429Zm-21.542,40.249c-2.989,-0 -5.433,-2.444 -5.433,-5.434c-0,-2.99 2.444,-5.439 5.433,-5.439c2.995,0 5.439,2.449 5.439,5.439c0,2.99 -2.444,5.434 -5.439,5.434Zm-14.683,17.707c-2.99,-0 -5.434,-2.444 -5.434,-5.434c0,-2.995 2.444,-5.434 5.434,-5.434c2.99,0 5.434,2.439 5.434,5.434c-0,2.99 -2.444,5.434 -5.434,5.434Zm-15.891,15.9c-2.995,0 -5.439,-2.444 -5.439,-5.433c0,-2.99 2.444,-5.434 5.439,-5.434c2.99,-0 5.434,2.444 5.434,5.434c-0,2.989 -2.444,5.433 -5.434,5.433Zm-17.518,14.684c-2.99,-0 -5.425,-2.435 -5.425,-5.424c0,-2.995 2.435,-5.439 5.425,-5.439c2.994,-0 5.438,2.444 5.438,5.439c0,2.989 -2.444,5.424 -5.438,5.424Zm-40.848,22.551c-3.005,0 -5.444,-2.439 -5.444,-5.443c0,-2.99 2.439,-5.429 5.444,-5.429c2.99,-0 5.429,2.439 5.429,5.429c-0,3.004 -2.439,5.443 -5.429,5.443Zm-20.132,9.057c-2.995,-0 -5.434,-2.44 -5.434,-5.444c0,-2.995 2.439,-5.429 5.434,-5.429c2.995,0 5.429,2.434 5.429,5.429c0,3.004 -2.434,5.444 -5.429,5.444Zm-23.146,5.028c-2.994,-0 -5.429,-2.435 -5.429,-5.429c0,-2.995 2.435,-5.434 5.429,-5.434c2.995,-0 5.429,2.439 5.429,5.434c0,2.994 -2.434,5.429 -5.429,5.429Zm-21.73,4.429c-2.995,-0 -5.434,-2.435 -5.434,-5.434c0,-2.995 2.439,-5.429 5.434,-5.429c2.995,0 5.429,2.434 5.429,5.429c0,2.999 -2.434,5.434 -5.429,5.434Zm-70.248,-431.686c-2.995,-0 -5.434,-2.44 -5.434,-5.434c-0,-2.995 2.439,-5.434 5.434,-5.434c2.994,0 5.434,2.439 5.434,5.434c-0,2.994 -2.435,5.434 -5.434,5.434Zm23.348,-2.826c-2.999,0 -5.438,-2.429 -5.438,-5.429c-0,-2.999 2.439,-5.429 5.438,-5.429c3,0 5.429,2.43 5.429,5.429c0,3 -2.429,5.429 -5.429,5.429Zm-45.484,9.061c-2.995,0 -5.434,-2.439 -5.434,-5.434c-0,-2.994 2.434,-5.433 5.434,-5.433c2.994,-0 5.433,2.439 5.433,5.433c0,2.995 -2.439,5.434 -5.433,5.434Zm-20.127,7.854c-2.99,-0 -5.429,-2.439 -5.429,-5.439c-0,-2.994 2.434,-5.429 5.429,-5.429c3.004,0 5.438,2.435 5.438,5.429c0,3 -2.439,5.439 -5.438,5.439Zm-40.051,22.136c-3,0 -5.434,-2.434 -5.434,-5.434c0,-2.999 2.434,-5.434 5.434,-5.434c2.999,0 5.434,2.435 5.434,5.434c-0,3 -2.435,5.434 -5.434,5.434Zm-34.211,31.197c-3,0 -5.439,-2.444 -5.439,-5.438c-0,-3 2.444,-5.434 5.439,-5.434c2.994,-0 5.433,2.434 5.433,5.434c0,2.999 -2.434,5.438 -5.433,5.438Zm17.204,-16.601c-2.999,0 -5.434,-2.444 -5.434,-5.438c0,-2.995 2.435,-5.434 5.434,-5.434c3,0 5.429,2.434 5.429,5.434c0,2.999 -2.429,5.438 -5.429,5.438Zm-31.501,34.308c-2.99,0 -5.425,-2.434 -5.425,-5.433c0,-3 2.435,-5.434 5.425,-5.434c2.999,-0 5.433,2.434 5.433,5.434c0,2.999 -2.434,5.433 -5.433,5.433Zm-23.542,40.452c-2.995,0 -5.434,-2.434 -5.434,-5.439c0,-2.994 2.439,-5.433 5.434,-5.433c3.004,-0 5.439,2.439 5.439,5.433c-0.005,3.005 -2.44,5.439 -5.439,5.439Zm-8.25,20.528c-2.994,-0 -5.434,-2.439 -5.434,-5.434c0,-2.995 2.44,-5.434 5.434,-5.434c2.995,0 5.434,2.439 5.434,5.434c-0.005,2.995 -2.444,5.434 -5.434,5.434Zm-4.83,20.726c-2.994,-0 -5.434,-2.44 -5.434,-5.434c0,-2.995 2.44,-5.424 5.434,-5.424c2.995,-0 5.429,2.429 5.429,5.424c0,2.994 -2.429,5.434 -5.429,5.434Zm-4.627,23.551c-2.999,-0 -5.429,-2.444 -5.429,-5.439c-0,-2.999 2.43,-5.429 5.429,-5.429c2.999,0 5.429,2.43 5.429,5.429c-0,2.995 -2.434,5.439 -5.429,5.439Zm0.401,45.881c-2.99,-0 -5.429,-2.44 -5.429,-5.429c-0,-3 2.434,-5.434 5.429,-5.434c2.999,-0 5.434,2.434 5.434,5.434c-0,2.989 -2.435,5.429 -5.434,5.429Zm4.023,22.353c-2.994,0 -5.438,-2.449 -5.438,-5.439c-0,-2.994 2.444,-5.438 5.438,-5.438c2.995,-0 5.439,2.444 5.439,5.438c-0,2.99 -2.444,5.439 -5.439,5.439Zm5.637,22.938c-2.995,0 -5.443,-2.449 -5.443,-5.443c-0,-2.99 2.448,-5.429 5.443,-5.429c2.995,-0 5.439,2.439 5.439,5.429c-0,2.994 -2.444,5.443 -5.439,5.443Zm9.655,20.523c-2.994,-0 -5.434,-2.434 -5.434,-5.434c0,-2.994 2.44,-5.434 5.434,-5.434c3,0 5.444,2.44 5.444,5.434c-0,3 -2.444,5.434 -5.444,5.434Zm21.537,40.254c-2.989,-0 -5.429,-2.44 -5.429,-5.439c0,-2.999 2.44,-5.439 5.429,-5.439c3,0 5.439,2.44 5.439,5.439c0,2.999 -2.439,5.439 -5.439,5.439Zm14.694,17.702c-2.99,-0 -5.434,-2.444 -5.434,-5.434c-0,-2.999 2.444,-5.439 5.434,-5.439c2.989,0 5.433,2.44 5.433,5.439c0,2.99 -2.444,5.434 -5.433,5.434Zm15.89,15.9c-2.989,0 -5.433,-2.444 -5.433,-5.433c-0,-2.99 2.444,-5.434 5.433,-5.434c2.995,-0 5.434,2.444 5.434,5.434c0,2.989 -2.439,5.433 -5.434,5.433Zm17.519,14.684c-2.995,-0 -5.434,-2.435 -5.434,-5.424c0,-2.995 2.444,-5.439 5.434,-5.439c2.99,-0 5.429,2.444 5.429,5.439c-0,2.989 -2.434,5.424 -5.429,5.424Zm40.853,22.551c-2.995,0 -5.429,-2.439 -5.429,-5.443c-0,-2.99 2.434,-5.429 5.429,-5.429c2.994,-0 5.429,2.439 5.429,5.429c-0,3.004 -2.435,5.443 -5.429,5.443Zm20.126,9.057c-3.004,-0 -5.438,-2.44 -5.438,-5.444c-0,-2.995 2.434,-5.429 5.438,-5.429c2.995,0 5.434,2.434 5.434,5.429c0,3.004 -2.434,5.444 -5.434,5.444Zm23.146,5.028c-2.995,-0 -5.434,-2.435 -5.434,-5.429c0,-2.995 2.435,-5.434 5.434,-5.434c3,-0 5.434,2.439 5.434,5.434c-0,2.994 -2.434,5.429 -5.434,5.429Zm21.735,4.429c-2.994,-0 -5.433,-2.435 -5.433,-5.434c-0,-2.995 2.434,-5.429 5.433,-5.429c3,0 5.434,2.434 5.434,5.429c-0.005,2.999 -2.439,5.434 -5.434,5.434Zm21.929,13.08l-0,-41.664l9.665,-0l-0,41.664l-9.665,-0Zm-0,-433.701l-0,-43.267l9.66,-0l-0,43.267l-9.66,0Zm200.548,201.153l0,-9.665l41.665,-0l-0,9.665l-41.665,-0Zm-433.096,-0l-0,-9.66l41.664,-0l-0,9.66l-41.664,-0Z" style="fill:#2a7fff;fill-rule:nonzero;"/><path id="path42" d="M124.989,201.347l4.188,-7.337l-37.452,-21.421l-4.192,7.327l1.574,0.908l35.882,20.523Zm48.61,-110.429l0.912,1.565l20.678,35.781l7.322,-4.226l-21.6,-37.346l-7.312,4.226Zm-0,409.788l1.564,0.903l5.767,3.309l21.417,-37.476l-7.337,-4.183l-21.411,37.447Zm-85.912,-89.191l0.908,1.575l3.318,5.738l37.361,-21.61l-4.241,-7.322l-37.346,21.619Zm379.547,-210.173l37.472,-21.416l-4.207,-7.337l-37.452,21.426l0.908,1.569l3.279,5.758Zm-70.185,-73.064l21.586,-37.37l-7.332,-4.221l-21.581,37.351l1.565,0.917l5.762,3.323Zm-7.167,339.159l0.903,1.575l20.503,35.887l7.347,-4.193l-21.417,-37.466l-7.336,4.197Zm73.078,-70.199l1.555,0.908l35.781,20.682l4.255,-7.327l-37.37,-21.605l-4.221,7.342Z" style="fill:#59f;fill-rule:nonzero;"/><g id="g44"><path id="path43" d="M301.63,260.415c2.382,4.772 0.445,10.573 -4.327,12.959l-10.086,5.033c-4.772,2.381 -10.573,0.445 -12.959,-4.328l-25.884,-51.86c-2.381,-4.772 -0.444,-10.573 4.328,-12.959l10.085,-5.033c4.772,-2.381 10.573,-0.444 12.959,4.328l25.884,51.86Z" style="fill:#5ff6ff;fill-rule:nonzero;stroke:#5ff6ff;stroke-width:4.7px;"/><path id="path44" d="M289.29,268.984l115.317,233.552" style="fill:none;fill-rule:nonzero;stroke:#5ff6ff;stroke-width:9.39px;stroke-linecap:round;stroke-linejoin:round;"/></g><g id="g46"><path id="path45" d="M331.108,286.362c0.87,4.246 -1.869,8.39 -6.115,9.264l-137.956,28.401c-4.245,0.874 -8.394,-1.869 -9.264,-6.12c-0.869,-4.245 1.865,-8.394 6.11,-9.264l137.937,-28.396c4.27,-0.869 8.424,1.865 9.288,6.115Z" style="fill:url(#_Linear9);fill-rule:nonzero;stroke:#2e1de4;stroke-width:6.15px;"/><path id="path46" d="M448.672,125.159c2.014,1.749 2.236,4.796 0.492,6.811l-161.604,188.966c-1.748,2.019 -4.801,2.236 -6.815,0.493l-3.646,-3.169c-2.015,-1.744 -2.237,-4.791 -0.488,-6.81l161.604,-188.971c1.738,-2.019 4.796,-2.232 6.805,-0.488l3.652,3.168Z" style="fill:url(#_Linear10);fill-rule:nonzero;stroke:#2e1de4;stroke-width:6.15px;"/></g><circle id="circle46" cx="299.099" cy="292.579" r="21.586" style="fill:url(#_Linear11);"/><circle id="circle47" cx="298.901" cy="292.632" r="18.113" style="fill:none;"/></g><defs><radialGradient id="_Radial1" cx="0" cy="0" r="1" gradientUnits="userSpaceOnUse" gradientTransform="matrix(310.219,0,0,310.228,312.377,313.607)"><stop offset="0" style="stop-color:#c0c0c0;stop-opacity:1"/><stop offset="0.88" style="stop-color:#c0c0c0;stop-opacity:1"/><stop offset="1" style="stop-color:#c0c0c0;stop-opacity:0"/></radialGradient><linearGradient id="_Linear2" x1="0" y1="0" x2="1" y2="0" gradientUnits="userSpaceOnUse" gradientTransform="matrix(-338.218,717.095,-717.095,-338.218,535.252,-189.231)"><stop offset="0" style="stop-color:#d8ebff;stop-opacity:1"/><stop offset="1" style="stop-color:#4fa9ff;stop-opacity:1"/></linearGradient><linearGradient id="_Linear3" x1="0" y1="0" x2="1" y2="0" gradientUnits="userSpaceOnUse" gradientTransform="matrix(-494.324,-274.091,274.091,-494.324,554.292,409.043)"><stop offset="0" style="stop-color:#2b79e0;stop-opacity:1"/><stop offset="1" style="stop-color:#008df7;stop-opacity:1"/></linearGradient><radialGradient id="_Radial4" cx="0" cy="0" r="1" gradientUnits="userSpaceOnUse" gradientTransform="matrix(255.998,0,0,-255.998,296.332,296.853)"><stop offset="0" style="stop-color:#3c6bf3;stop-opacity:1"/><stop offset="0.95" style="stop-color:#3c6bf3;stop-opacity:1"/><stop offset="1" style="stop-color:#3c8af2;stop-opacity:1"/></radialGradient><linearGradient id="_Linear6" x1="0" y1="0" x2="1" y2="0" gradientUnits="userSpaceOnUse" gradientTransform="matrix(2.98712e-14,487.833,-487.833,2.98712e-14,295.33,60.5862)"><stop offset="0" style="stop-color:#fff;stop-opacity:1"/><stop offset="0.15" style="stop-color:#e1f1ff;stop-opacity:1"/><stop offset="0.24" style="stop-color:#d4ebff;stop-opacity:1"/><stop offset="0.35" style="stop-color:#e3f2ff;stop-opacity:1"/><stop offset="0.53" style="stop-color:#f3f9ff;stop-opacity:1"/><stop offset="0.73" style="stop-color:#fcfeff;stop-opacity:1"/><stop offset="1" style="stop-color:#fff;stop-opacity:1"/></linearGradient><linearGradient id="_Linear8" x1="0" y1="0" x2="1" y2="0" gradientUnits="userSpaceOnUse" gradientTransform="matrix(471.331,0,0,471.331,47.1831,305.108)"><stop offset="0" style="stop-color:#fff;stop-opacity:0.15"/><stop offset="0.14" style="stop-color:#edf7ff;stop-opacity:0.15"/><stop offset="0.28" style="stop-color:#e0f2ff;stop-opacity:0.15"/><stop offset="0.31" style="stop-color:#e3f3ff;stop-opacity:0.15"/><stop offset="0.49" style="stop-color:#f3faff;stop-opacity:0.15"/><stop offset="0.71" style="stop-color:#fcfeff;stop-opacity:0.15"/><stop offset="1" style="stop-color:#fff;stop-opacity:0.15"/></linearGradient><linearGradient id="_Linear9" x1="0" y1="0" x2="1" y2="0" gradientUnits="userSpaceOnUse" gradientTransform="matrix(-0.982111,3.35674,-3.35674,-0.982111,178.994,199.222)"><stop offset="0" style="stop-color:#524ac9;stop-opacity:1"/><stop offset="0.1" style="stop-color:#5855bc;stop-opacity:1"/><stop offset="0.24" style="stop-color:#5d60af;stop-opacity:1"/><stop offset="0.37" style="stop-color:#5f64ab;stop-opacity:1"/><stop offset="0.73" style="stop-color:#190c7f;stop-opacity:1"/><stop offset="1" style="stop-color:#190c7f;stop-opacity:1"/></linearGradient><linearGradient id="_Linear10" x1="0" y1="0" x2="1" y2="0" gradientUnits="userSpaceOnUse" gradientTransform="matrix(4.03078,2.24462,-2.24462,4.03078,215.824,182.641)"><stop offset="0" style="stop-color:#524ac9;stop-opacity:1"/><stop offset="0.1" style="stop-color:#5855bc;stop-opacity:1"/><stop offset="0.24" style="stop-color:#5d60af;stop-opacity:1"/><stop offset="0.37" style="stop-color:#5f64ab;stop-opacity:1"/><stop offset="0.73" style="stop-color:#190c7f;stop-opacity:1"/><stop offset="1" style="stop-color:#190c7f;stop-opacity:1"/></linearGradient><linearGradient id="_Linear11" x1="0" y1="0" x2="1" y2="0" gradientUnits="userSpaceOnUse" gradientTransform="matrix(2.42137e-15,39.544,-39.544,2.42137e-15,299.101,271.901)"><stop offset="0" style="stop-color:#8ba4d6;stop-opacity:1"/><stop offset="1" style="stop-color:#1b3ea6;stop-opacity:1"/></linearGradient></defs></svg>