<?xml version="1.0" encoding="UTF-8" standalone="no"?>
<!DOCTYPE svg PUBLIC "-//W3C//DTD SVG 1.1//EN" "http://www.w3.org/Graphics/SVG/1.1/DTD/svg11.dtd">
<svg width="30px" height="30px" version="1.1" xmlns="http://www.w3.org/2000/svg" xmlns:xlink="http://www.w3.org/1999/xlink" xml:space="preserve" xmlns:serif="http://www.serif.com/" style="fill-rule:evenodd;clip-rule:evenodd;stroke-linecap:round;stroke-linejoin:round;">
    <g id="Layer-1" serif:id="Layer 1">
        <g id="path21642">
            <path d="M28.67,25.276C28.67,28.965 22.802,32 15.671,32C8.54,32 2.671,28.965 2.671,25.276C2.671,21.588 8.54,18.553 15.671,18.553C22.802,18.553 28.67,21.588 28.67,25.276Z" style="fill:url(#_Radial1);"/>
        </g>
        <path id="rect1408" d="M3.022,2.429C3.087,1.056 3.745,0.303 4.969,0.299L26.003,0.235C26.179,0.234 26.41,0.378 26.428,0.557L28.764,24.195L27.821,24.236L28.273,28.859C28.316,29.306 28.143,29.69 27.504,29.693L5.479,29.797C3.663,29.805 1.796,28.306 1.883,26.459L3.022,2.429Z" style="fill:rgb(91,107,148);fill-rule:nonzero;stroke:rgb(54,72,120);stroke-width:0.72px;"/>
        <path id="path2489" d="M27.235,23.483L6.302,23.573C5.186,23.701 4.285,24.574 4.285,25.725C4.285,26.875 5.186,27.748 6.303,27.876L27.235,27.966L27.235,27.921C26.048,27.865 25.084,26.926 25.084,25.725C25.084,24.523 26.048,23.584 27.235,23.528L27.235,23.483Z" style="fill:url(#_Linear2);fill-rule:nonzero;"/>
        <path id="path2784" d="M5.406,0.489C4.182,0.488 3.514,1.212 3.456,2.54L2.268,25.6C2.202,27.807 3.578,29.062 5.002,29.422C1.954,28.253 2.357,22.973 6.168,22.996L28.328,22.996L25.952,0.797C25.934,0.625 25.703,0.489 25.526,0.489L5.405,0.489L5.406,0.489Z" style="fill:url(#_Linear3);fill-rule:nonzero;"/>
        <g id="rect2793">
            <path d="M6.811,1.316L6.05,22.535L4.616,22.535L5.377,1.316L6.811,1.316Z" style="fill:url(#_Linear4);"/>
        </g>
        <path id="path2104" d="M5.54,0.862C4.333,0.862 3.864,1.387 3.807,2.694L2.875,24.13C3.545,22.978 4.625,22.565 6.356,22.565L27.836,22.565L25.81,1.166C25.794,0.996 25.564,0.862 25.389,0.862L5.54,0.862Z" style="fill:none;fill-rule:nonzero;stroke:url(#_Linear5);stroke-width:0.72px;stroke-linejoin:miter;stroke-miterlimit:20;"/>
    </g>
    <g id="tool">
        <path d="M21.736,2.802C21.678,2.802 21.622,2.803 21.563,2.806C21.556,2.807 21.55,2.806 21.544,2.806C21.509,2.808 21.381,2.815 21.37,2.816C21.36,2.816 21.347,2.815 21.337,2.816C21.326,2.816 21.315,2.819 21.304,2.82C21.208,2.832 21.111,2.848 21.018,2.867C19.851,3.082 18.964,3.865 18.787,4.806C18.78,4.846 18.774,4.888 18.768,4.928C18.766,4.955 18.761,4.981 18.76,5.009C18.759,5.013 18.755,5.022 18.755,5.027C18.755,5.027 18.246,8.139 17.647,8.976C17.632,8.996 17.611,9.026 17.581,9.06C17.365,9.287 16.873,9.762 16.261,10.352C13.875,12.618 9.173,16.928 8.012,18.164C7.999,18.177 7.853,18.315 7.853,18.315L7.913,18.273C7.834,18.361 7.773,18.429 7.749,18.469C7.637,18.653 7.565,18.846 7.528,19.042C7.528,19.046 7.529,19.048 7.528,19.052C7.52,19.097 7.514,19.141 7.509,19.188C7.509,19.192 7.51,19.197 7.509,19.202C7.505,19.247 7.501,19.297 7.5,19.342L7.5,19.348C7.5,19.393 7.502,19.438 7.505,19.484L7.505,19.493C7.509,19.538 7.512,19.584 7.519,19.629C7.52,19.632 7.519,19.636 7.519,19.638C7.526,19.683 7.537,19.725 7.547,19.77C7.555,19.804 7.566,19.835 7.575,19.869C7.579,19.882 7.58,19.897 7.585,19.911C7.586,19.914 7.589,19.917 7.59,19.92C7.592,19.928 7.597,19.936 7.599,19.944C7.625,20.022 7.652,20.103 7.688,20.178C7.69,20.182 7.692,20.184 7.692,20.188C7.995,20.807 8.627,21.257 9.364,21.193C9.404,21.19 9.446,21.184 9.486,21.178C9.488,21.178 9.49,21.179 9.491,21.178C9.502,21.177 9.513,21.176 9.524,21.174C9.693,21.146 9.868,21.087 10.045,21C10.155,20.949 10.263,20.888 10.374,20.813C11.542,20.013 18.6,11.198 19.553,10.581C19.573,10.568 19.603,10.553 19.628,10.539C20.732,10.057 21.791,9.991 22.901,9.61C23.26,9.528 23.501,9.473 23.501,9.473L23.511,9.473C23.512,9.473 23.515,9.469 23.515,9.469C23.516,9.468 23.52,9.465 23.52,9.464L23.52,9.454C23.521,9.454 23.539,9.45 23.539,9.45C23.564,9.455 23.56,9.419 23.534,9.342C24.179,9.007 25.01,8.099 25.324,6.783C25.338,6.719 25.294,6.279 25.276,6.253C25.279,6.243 25.284,6.234 25.286,6.224L23.286,7.168L22.051,6.347C21.917,6.085 21.793,5.847 21.717,5.684C21.717,5.064 21.717,5.011 21.773,4.45C22.536,4.149 23.882,3.633 23.882,3.633C23.88,3.631 23.878,3.629 23.878,3.628C23.879,3.627 23.919,3.614 23.919,3.614C23.399,3.112 22.609,2.798 21.736,2.802ZM9.289,18.254C9.659,18.245 10.016,18.487 10.214,18.84C10.231,18.87 10.247,18.898 10.261,18.929C10.263,18.933 10.264,18.936 10.266,18.939C10.28,18.971 10.292,19.004 10.303,19.038C10.305,19.04 10.307,19.044 10.308,19.046C10.326,19.102 10.34,19.159 10.351,19.216C10.355,19.241 10.357,19.266 10.36,19.291C10.363,19.321 10.368,19.35 10.369,19.38C10.388,19.855 9.958,20.348 9.468,20.455C9.443,20.459 9.417,20.459 9.393,20.461C8.843,20.489 8.286,19.939 8.251,19.367C8.228,18.971 8.441,18.575 8.82,18.371C8.911,18.326 9.016,18.288 9.125,18.267C9.134,18.267 9.144,18.268 9.153,18.267C9.197,18.261 9.243,18.256 9.289,18.254Z" style="stroke:url(#_Radial6);stroke-width:0.23px;"/>
        <g>
            <path d="M25.29,5.924L23.288,6.867L22.034,6.036C21.892,6.248 21.984,9.135 22.709,9.064C24.037,8.932 24.916,7.59 25.29,5.924Z" style="fill:rgb(136,138,133);stroke:url(#_Radial7);stroke-width:0.24px;"/>
            <path d="M25.222,6.023L23.323,6.917L23.298,8.266L23.564,8.842C24.383,8.329 24.943,7.266 25.222,6.023Z" style="fill:url(#_Radial8);"/>
            <path d="M22.025,6.065C22.024,6.066 22.021,6.068 22.021,6.069C22.019,6.071 22.018,6.076 22.017,6.078C21.887,6.386 21.988,9.163 22.699,9.093C22.856,9.077 23.01,9.045 23.155,8.996L23.093,6.776L22.025,6.065Z" style="fill:url(#_Radial9);"/>
        </g>
        <path d="M21.228,2.533C19.875,2.7 18.846,3.62 18.762,4.707C18.761,4.712 18.759,4.722 18.758,4.727C18.758,4.727 18.252,7.84 17.652,8.677C17.181,9.334 8.177,17.472 7.754,18.169C6.857,19.64 8.528,21.737 10.3,20.525C11.47,19.725 18.524,10.912 19.478,10.296C20.121,9.88 23.467,9.167 23.467,9.167C23.662,9.21 22.073,6.313 21.646,5.398C21.646,4.775 21.644,4.725 21.702,4.157C22.457,3.859 23.847,3.328 23.847,3.328C23.292,2.793 22.431,2.47 21.488,2.52C21.482,2.52 21.474,2.52 21.468,2.521C21.433,2.523 21.309,2.529 21.298,2.53C21.288,2.531 21.273,2.531 21.263,2.532C21.252,2.533 21.239,2.533 21.228,2.533ZM9.267,17.942C9.816,17.914 10.346,18.447 10.371,19.078C10.393,19.601 9.87,20.146 9.321,20.176C8.773,20.204 8.213,19.653 8.179,19.079C8.145,18.528 8.573,17.978 9.267,17.942Z" style="fill:rgb(136,138,133);"/>
        <path d="M21.306,2.519C19.952,2.685 18.924,3.605 18.839,4.692C18.838,4.696 18.837,4.707 18.836,4.712C18.836,4.712 18.328,7.825 17.729,8.662C17.258,9.319 8.255,17.457 7.83,18.154C6.935,19.625 8.605,21.723 10.378,20.51C11.546,19.71 18.601,10.898 19.554,10.282C20.199,9.865 23.544,9.152 23.544,9.152C23.74,9.196 22.15,6.298 21.722,5.382C21.722,4.76 21.721,4.709 21.779,4.142C22.533,3.844 23.924,3.313 23.924,3.313C23.369,2.778 22.508,2.456 21.565,2.505C21.559,2.506 21.552,2.506 21.546,2.506C21.511,2.508 21.386,2.514 21.376,2.515C21.366,2.516 21.351,2.516 21.34,2.517C21.33,2.518 21.316,2.517 21.306,2.519ZM9.344,17.927C9.892,17.898 10.423,18.431 10.449,19.064C10.47,19.587 9.947,20.132 9.398,20.16C8.849,20.189 8.29,19.637 8.256,19.065C8.223,18.513 8.65,17.964 9.344,17.927Z" style="fill:url(#_Radial10);"/>
        <path d="M19.067,4.797L20.19,7.238L20.669,7.034L21.463,8.812L21.069,8.998L21.609,9.705C22.503,9.48 23.466,9.098 23.466,9.098L23.476,9.098C23.476,9.097 23.48,9.093 23.481,9.093C23.481,9.092 23.48,9.089 23.48,9.089C23.481,9.087 23.484,9.081 23.484,9.079C23.481,8.812 22.051,6.192 21.651,5.33C21.65,4.708 21.651,4.658 21.708,4.09C22.459,3.793 23.846,3.323 23.846,3.323C23.293,2.787 22.156,2.553 21.31,2.71C19.98,2.958 19.19,3.752 19.067,4.797Z" style="fill:url(#_Radial11);"/>
        <path d="M21.074,2.566C19.799,2.782 18.844,3.675 18.763,4.72C18.762,4.725 18.761,4.733 18.761,4.739C18.761,4.739 18.254,7.851 17.655,8.688C17.184,9.346 8.177,17.482 7.754,18.179C6.857,19.65 8.53,21.749 10.303,20.536C11.471,19.736 18.529,10.924 19.482,10.308C20.126,9.891 23.468,9.176 23.468,9.176C23.469,9.176 23.472,9.179 23.473,9.18C23.474,9.18 23.477,9.179 23.478,9.179C23.478,9.179 23.482,9.174 23.482,9.174C23.482,9.173 23.486,9.17 23.487,9.169C23.487,9.168 23.486,9.165 23.486,9.165C23.486,9.162 23.484,9.154 23.484,9.151C23.457,8.847 22.048,6.264 21.649,5.409C21.649,4.787 21.648,4.736 21.706,4.168C22.461,3.871 23.848,3.337 23.848,3.337C23.293,2.803 22.434,2.483 21.491,2.533C21.485,2.533 21.477,2.53 21.471,2.531C21.437,2.533 21.313,2.541 21.301,2.543C21.292,2.544 21.277,2.541 21.267,2.542C21.257,2.543 21.243,2.545 21.233,2.546C21.181,2.553 21.125,2.558 21.074,2.566ZM21.278,2.723C22.12,2.579 23.223,2.756 23.767,3.284C23.767,3.284 22.39,3.815 21.64,4.113C21.583,4.68 21.582,4.731 21.582,5.353C21.98,6.209 23.387,8.794 23.413,9.095L23.413,9.101C23.413,9.102 23.41,9.108 23.409,9.11C23.409,9.11 23.41,9.114 23.41,9.114C23.409,9.115 23.406,9.12 23.406,9.12L23.401,9.12C23.401,9.121 23.397,9.121 23.396,9.121C23.396,9.121 22.328,9.303 21.435,9.528L21.168,9.139L21.693,8.794L20.732,6.933L20.069,7.162L18.998,4.819C19.12,3.774 19.91,2.979 21.239,2.733C21.253,2.73 21.264,2.726 21.278,2.723ZM9.094,17.972C9.15,17.962 9.209,17.959 9.269,17.955C9.817,17.927 10.35,18.456 10.376,19.088C10.396,19.611 9.87,20.158 9.321,20.187C8.773,20.216 8.215,19.663 8.181,19.09C8.151,18.587 8.503,18.083 9.094,17.972Z" style="fill:url(#_Radial12);"/>
        <path d="M21.112,2.561C19.836,2.777 18.881,3.671 18.8,4.715C18.799,4.72 18.799,4.729 18.799,4.733C18.799,4.733 18.291,7.847 17.692,8.684C17.221,9.341 8.215,17.478 7.791,18.174C6.895,19.645 8.568,21.744 10.34,20.531C11.508,19.731 18.567,10.919 19.519,10.303C20.163,9.887 23.505,9.171 23.505,9.171C23.506,9.171 23.51,9.175 23.51,9.175L23.515,9.175C23.516,9.174 23.519,9.17 23.52,9.17C23.52,9.169 23.523,9.165 23.524,9.165C23.524,9.164 23.523,9.161 23.523,9.16C23.523,9.157 23.521,9.15 23.521,9.146C23.495,8.843 22.086,6.26 21.686,5.405C21.686,4.782 21.685,4.732 21.743,4.164C22.499,3.866 23.885,3.333 23.885,3.333C23.33,2.797 22.472,2.479 21.529,2.528C21.522,2.528 21.515,2.526 21.508,2.526C21.475,2.528 21.35,2.537 21.339,2.538C21.329,2.539 21.314,2.537 21.304,2.538C21.295,2.539 21.281,2.541 21.27,2.542C21.218,2.548 21.163,2.552 21.112,2.561ZM21.315,2.719C22.157,2.575 23.26,2.752 23.804,3.279C23.804,3.279 22.427,3.811 21.677,4.108C21.62,4.676 21.619,4.727 21.62,5.349C22.018,6.204 23.424,8.79 23.45,9.091C23.45,9.092 23.451,9.095 23.451,9.095C23.45,9.097 23.447,9.103 23.447,9.105L23.447,9.11C23.446,9.111 23.444,9.114 23.443,9.114C23.442,9.114 23.438,9.115 23.438,9.115C23.438,9.115 23.434,9.116 23.433,9.116C23.433,9.116 22.365,9.299 21.472,9.523L21.19,9.031L21.758,8.716L20.876,6.879L20.129,7.049L19.035,4.814C19.158,3.769 19.947,2.975 21.277,2.728C21.29,2.726 21.301,2.721 21.315,2.719ZM9.131,17.967C9.188,17.957 9.246,17.953 9.306,17.951C9.854,17.922 10.387,18.451 10.413,19.084C10.433,19.606 9.907,20.153 9.358,20.182C8.81,20.211 8.252,19.659 8.218,19.085C8.188,18.581 8.54,18.078 9.131,17.967Z" style="fill:url(#_Radial13);"/>
        <g>
            <path d="M18.764,7.884L20.664,7.077L21.541,8.788L19.641,9.596L18.764,7.884Z" style="fill:rgb(46,52,54);stroke:url(#_Radial14);stroke-width:0.24px;"/>
            <path d="M19.191,7.813L20.307,7.39L21.042,8.835L19.926,9.258L19.191,7.813Z" style="fill:url(#_Radial15);"/>
            <g>
                <path d="M20.777,7.47L20.818,7.644L19.142,8.126L19.101,7.951L20.777,7.47Z" style="fill:url(#_Radial16);stroke:url(#_Linear17);stroke-width:0.06px;"/>
                <path d="M21.317,8.571L21.354,8.719L19.711,9.157L19.674,9.007L21.317,8.571Z" style="fill:url(#_Radial18);stroke:url(#_Linear19);stroke-width:0.05px;"/>
                <path d="M21.073,8.052L21.111,8.2L19.358,8.65L19.319,8.502L21.073,8.052Z" style="fill:url(#_Radial20);stroke:url(#_Linear21);stroke-width:0.05px;"/>
            </g>
        </g>
        <path d="M21.658,4.17L23.799,3.344L23.896,3.597L21.653,4.487L21.658,4.17Z" style="fill:url(#_Linear22);"/>
        <path d="M23.364,8.843C23.99,8.725 24.966,7.419 25.279,5.954C25.293,5.89 25.343,6.414 25.326,6.484C25.004,7.837 24.135,8.76 23.483,9.07C23.445,9.089 23.488,9.329 23.364,8.843Z" style="fill:url(#_Linear23);"/>
        <path d="M19.159,4.645L20.144,7.173L20.748,7.059L21.574,8.798L21.084,9.102L21.441,9.584C22.334,9.36 23.298,8.978 23.298,8.978L23.303,8.978C23.303,8.977 23.307,8.977 23.307,8.977C23.308,8.977 23.312,8.973 23.312,8.973C23.313,8.972 23.312,8.969 23.312,8.968C23.312,8.966 23.316,8.961 23.316,8.958C23.313,8.691 21.883,6.072 21.482,5.21C21.482,4.588 21.483,4.538 21.54,3.97C22.29,3.673 23.52,3.16 23.52,3.16C22.967,2.624 22.018,2.641 21.17,2.798C19.84,3.045 19.283,3.6 19.159,4.645Z" style="fill:url(#_Radial24);"/>
        <path d="M7.855,18.015C7.855,18.015 17.11,9.331 17.71,8.624C18.285,7.944 18.788,4.854 18.788,4.854C18.788,4.854 19.104,4.641 19.044,4.827C18.961,5.08 18.158,8.197 17.961,8.5C17.512,9.19 14.965,11.465 14.965,11.465L8.739,17.379L7.855,18.015Z" style="fill-opacity:0.39;"/>
        <path d="M9.434,20.348C9.434,20.348 8.72,20.36 8.343,19.886C7.966,19.413 7.935,18.69 7.935,18.69L8.018,18.566C8.018,18.566 8.092,19.291 8.431,19.75C8.777,20.216 9.519,20.243 9.507,20.262L9.434,20.348Z" style="fill:url(#_Radial25);"/>
        <path d="M23.13,6.771C23.118,6.812 23.17,8.024 23.178,8.066C23.196,8.732 23.354,8.772 23.371,8.892C23.5,8.843 23.413,8.904 23.528,8.832C23.517,8.774 23.353,8.368 23.286,8.222C23.292,7.892 23.293,6.964 23.294,6.875C23.231,6.833 23.207,6.817 23.13,6.771Z"/>
        <path d="M25.202,6.005L23.304,6.899L23.279,8.247L23.545,8.823C24.364,8.31 24.923,7.248 25.202,6.005Z" style="fill:url(#_Radial26);"/>
        <path d="M21.112,2.561C19.836,2.777 18.881,3.671 18.8,4.715C18.799,4.72 18.799,4.729 18.799,4.733C18.799,4.733 18.291,7.847 17.692,8.684C17.221,9.341 8.215,17.478 7.791,18.174C6.895,19.645 8.568,21.744 10.34,20.531C11.508,19.731 18.567,10.919 19.519,10.303C20.163,9.887 23.505,9.171 23.505,9.171C23.506,9.171 23.51,9.175 23.51,9.175L23.515,9.175C23.516,9.174 23.519,9.17 23.52,9.17C23.52,9.169 23.523,9.165 23.524,9.165C23.524,9.164 23.523,9.161 23.523,9.16C23.523,9.157 23.521,9.15 23.521,9.146C23.495,8.843 22.086,6.26 21.686,5.405C21.686,4.782 21.685,4.732 21.743,4.164C22.499,3.866 23.885,3.333 23.885,3.333C23.33,2.797 22.472,2.479 21.529,2.528C21.522,2.528 21.515,2.526 21.508,2.526C21.475,2.528 21.35,2.537 21.339,2.538C21.329,2.539 21.314,2.537 21.304,2.538C21.295,2.539 21.281,2.541 21.27,2.542C21.218,2.548 21.163,2.552 21.112,2.561ZM21.315,2.719C22.157,2.575 23.26,2.752 23.804,3.279C23.804,3.279 22.427,3.811 21.677,4.108C21.62,4.676 21.619,4.727 21.62,5.349C22.018,6.204 23.424,8.79 23.45,9.091C23.45,9.092 23.451,9.095 23.451,9.095C23.45,9.097 23.447,9.103 23.447,9.105L23.447,9.11C23.446,9.111 23.444,9.114 23.443,9.114C23.442,9.114 23.438,9.115 23.438,9.115C23.438,9.115 23.434,9.116 23.433,9.116C23.433,9.116 22.365,9.299 21.472,9.523L21.19,9.031L21.758,8.716L20.876,6.879L20.129,7.049L19.035,4.814C19.158,3.769 19.947,2.975 21.277,2.728C21.29,2.726 21.301,2.721 21.315,2.719ZM9.131,17.967C9.188,17.957 9.246,17.953 9.306,17.951C9.854,17.922 10.387,18.451 10.413,19.084C10.433,19.606 9.907,20.153 9.358,20.182C8.81,20.211 8.252,19.659 8.218,19.085C8.188,18.581 8.54,18.078 9.131,17.967Z" style="fill:url(#_Radial27);"/>
        <path d="M9.182,17.546C10.015,17.35 10.963,18.284 10.78,19.165C11.403,18.648 18.576,10.648 18.725,10.264C18.953,9.674 18.338,9.141 17.753,9.392C17.345,9.567 9.128,17.559 9.182,17.546Z" style="fill:rgb(136,138,133);"/>
        <path d="M9.182,17.546C10.015,17.35 10.963,18.284 10.78,19.165C11.403,18.648 18.576,10.648 18.725,10.264C18.953,9.674 18.338,9.141 17.753,9.392C17.345,9.567 9.128,17.559 9.182,17.546Z" style="fill-opacity:0.8;"/>
        <path d="M9.182,17.546C10.015,17.35 10.963,18.284 10.78,19.165C11.403,18.648 18.576,10.648 18.725,10.264C18.953,9.674 18.338,9.141 17.753,9.392C17.345,9.567 9.128,17.559 9.182,17.546Z" style="fill:url(#_Radial28);"/>
        <path d="M9.182,17.546C10.015,17.35 10.963,18.284 10.78,19.165C11.403,18.648 18.576,10.648 18.725,10.264C18.953,9.674 18.338,9.141 17.753,9.392C17.345,9.567 9.128,17.559 9.182,17.546Z" style="fill:url(#_Radial29);"/>
        <path d="M17.74,9.41C17.786,9.382 18.171,9.19 18.529,9.504C18.833,9.771 18.792,10.049 18.707,10.298C18.667,10.419 15.373,14.153 14.782,14.833C14.492,15.167 13.497,16.254 12.584,17.258C11.663,18.272 10.798,19.15 10.798,19.15C10.798,19.15 18.601,10.453 18.648,10.215C18.717,9.868 18.574,9.757 18.457,9.646C18.337,9.533 18.127,9.406 17.84,9.464C17.445,9.544 9.351,17.477 9.198,17.535C9.198,17.535 11.142,15.611 13.192,13.632C15.244,11.652 17.403,9.618 17.74,9.41Z" style="fill:rgb(46,52,54);fill-opacity:0.4;"/>
        <path id="O" d="M9.26,17.465C9.26,17.465 9.905,17.311 10.457,17.827C11.06,18.393 10.877,19.065 10.877,19.065L10.779,19.181C10.779,19.181 10.833,18.924 10.77,18.671C10.707,18.418 10.574,18.159 10.347,17.95C10.123,17.744 9.911,17.611 9.681,17.562C9.45,17.512 9.188,17.548 9.194,17.538L9.26,17.465Z" style="fill:url(#_Radial30);"/>
        <path id="O1" serif:id="O" d="M9.26,17.465C9.26,17.465 9.905,17.311 10.457,17.827C11.06,18.393 10.877,19.065 10.877,19.065L10.779,19.181C10.779,19.181 10.833,18.924 10.77,18.671C10.707,18.418 10.574,18.159 10.347,17.95C10.123,17.744 9.911,17.611 9.681,17.562C9.45,17.512 9.188,17.548 9.194,17.538L9.26,17.465Z" style="fill:url(#_Radial31);"/>
        <g>
            <g style="filter:url(#_Effect32);">
                <g>
                    <g>
                        <path d="M22.46,2.699C20.659,2.551 19.344,3.175 19.132,4.543C19.378,3.497 20.476,2.648 22.46,2.699Z" style="fill:white;"/>
                    </g>
                </g>
            </g>
            <g style="filter:url(#_Effect33);">
                <g>
                    <g>
                        <path d="M22.46,2.699C20.636,2.442 19.195,3.098 19.132,4.543C19.478,3.515 20.476,2.69 22.46,2.699Z" style="fill:white;fill-opacity:0.78;"/>
                    </g>
                </g>
            </g>
            <g style="filter:url(#_Effect34);">
                <g>
                    <g>
                        <path d="M21.74,2.694C21.022,2.689 20.397,2.84 19.946,3.144C19.563,3.404 19.302,3.772 19.209,4.243C19.584,3.464 20.377,2.847 21.74,2.694Z" style="fill:white;fill-opacity:0.78;"/>
                    </g>
                </g>
            </g>
        </g>
        <path d="M18.077,9.328C17.971,9.325 17.863,9.347 17.753,9.393C17.345,9.568 9.131,17.557 9.185,17.544C9.241,17.531 9.296,17.525 9.353,17.521C10.23,16.637 17.372,9.708 17.753,9.544C18.221,9.343 18.708,9.644 18.768,10.075C18.806,9.674 18.475,9.34 18.077,9.328ZM10.8,19C10.797,19.055 10.792,19.109 10.781,19.165C10.784,19.161 10.796,19.153 10.8,19.15L10.8,19.146C10.802,19.097 10.803,19.048 10.8,19Z" style="fill-opacity:0.5;"/>
    </g>
    <rect id="outer" x="0" y="0" width="30" height="30" style="fill:none;"/>
    <defs>
        <radialGradient id="_Radial1" cx="0" cy="0" r="1" gradientUnits="userSpaceOnUse" gradientTransform="matrix(12.9991,0,0,6.72371,15.6706,25.2763)"><stop offset="0" style="stop-color:black;stop-opacity:1"/><stop offset="1" style="stop-color:black;stop-opacity:0"/></radialGradient>
        <linearGradient id="_Linear2" x1="0" y1="0" x2="1" y2="0" gradientUnits="userSpaceOnUse" gradientTransform="matrix(-0.448248,-2.86878,2.86878,-0.448248,16.2086,27.4279)"><stop offset="0" style="stop-color:white;stop-opacity:1"/><stop offset="1" style="stop-color:rgb(203,203,203);stop-opacity:1"/></linearGradient>
        <linearGradient id="_Linear3" x1="0" y1="0" x2="1" y2="0" gradientUnits="userSpaceOnUse" gradientTransform="matrix(5.4431,0,0,5.4431,3.69986,14.3789)"><stop offset="0" style="stop-color:rgb(214,227,240);stop-opacity:1"/><stop offset="1" style="stop-color:rgb(149,177,207);stop-opacity:1"/></linearGradient>
        <linearGradient id="_Linear4" x1="0" y1="0" x2="1" y2="0" gradientUnits="userSpaceOnUse" gradientTransform="matrix(1.05,0.0752847,-0.0752847,1.05,4.99601,11.9249)"><stop offset="0" style="stop-color:black;stop-opacity:0.03"/><stop offset="1" style="stop-color:white;stop-opacity:0.48"/></linearGradient>
        <linearGradient id="_Linear5" x1="0" y1="0" x2="1" y2="0" gradientUnits="userSpaceOnUse" gradientTransform="matrix(-55.9813,-3.69501,3.69501,-55.9813,52.4107,16.1912)"><stop offset="0" style="stop-color:white;stop-opacity:1"/><stop offset="1" style="stop-color:white;stop-opacity:0"/></linearGradient>
        <radialGradient id="_Radial6" cx="0" cy="0" r="1" gradientUnits="userSpaceOnUse" gradientTransform="matrix(1.68338,-0.109147,0.111558,1.52817,21.9218,8.12274)"><stop offset="0" style="stop-color:black;stop-opacity:1"/><stop offset="1" style="stop-color:black;stop-opacity:0"/></radialGradient>
        <radialGradient id="_Radial7" cx="0" cy="0" r="1" gradientUnits="userSpaceOnUse" gradientTransform="matrix(1.68338,-0.109147,0.111557,1.52817,21.9253,7.82225)"><stop offset="0" style="stop-color:black;stop-opacity:1"/><stop offset="1" style="stop-color:black;stop-opacity:0"/></radialGradient>
        <radialGradient id="_Radial8" cx="0" cy="0" r="1" gradientUnits="userSpaceOnUse" gradientTransform="matrix(5.29294,-0.305464,0.304182,4.64476,23.7715,7.98332)"><stop offset="0" style="stop-color:white;stop-opacity:0.51"/><stop offset="1" style="stop-color:rgb(62,62,62);stop-opacity:0"/></radialGradient>
        <radialGradient id="_Radial9" cx="0" cy="0" r="1" gradientUnits="userSpaceOnUse" gradientTransform="matrix(5.40152,-0.439572,0.367384,4.06262,22.4498,8.47336)"><stop offset="0" style="stop-color:white;stop-opacity:0.51"/><stop offset="1" style="stop-color:rgb(62,62,62);stop-opacity:0"/></radialGradient>
        <radialGradient id="_Radial10" cx="0" cy="0" r="1" gradientUnits="userSpaceOnUse" gradientTransform="matrix(9.12386,-1.12775,1.16192,8.29738,18.2122,9.8617)"><stop offset="0" style="stop-color:white;stop-opacity:1"/><stop offset="1" style="stop-color:rgb(136,138,133);stop-opacity:0"/></radialGradient>
        <radialGradient id="_Radial11" cx="0" cy="0" r="1" gradientUnits="userSpaceOnUse" gradientTransform="matrix(5.8564,-0.757261,2.56176,16.9129,20.7816,9.59529)"><stop offset="0" style="stop-color:white;stop-opacity:1"/><stop offset="1" style="stop-color:rgb(136,138,133);stop-opacity:0"/></radialGradient>
        <radialGradient id="_Radial12" cx="0" cy="0" r="1" gradientUnits="userSpaceOnUse" gradientTransform="matrix(2.53575,-0.860398,3.02089,7.75592,22.1836,7.9426)"><stop offset="0" style="stop-color:black;stop-opacity:1"/><stop offset="1" style="stop-color:black;stop-opacity:0"/></radialGradient>
        <radialGradient id="_Radial13" cx="0" cy="0" r="1" gradientUnits="userSpaceOnUse" gradientTransform="matrix(2.53575,-0.860398,3.02089,7.75592,22.2209,7.93803)"><stop offset="0" style="stop-color:black;stop-opacity:1"/><stop offset="1" style="stop-color:black;stop-opacity:0"/></radialGradient>
        <radialGradient id="_Radial14" cx="0" cy="0" r="1" gradientUnits="userSpaceOnUse" gradientTransform="matrix(-1.84941,-4.57274,4.9398,-4.05159,17.7529,10.5273)"><stop offset="0" style="stop-color:white;stop-opacity:1"/><stop offset="1" style="stop-color:black;stop-opacity:0"/></radialGradient>
        <radialGradient id="_Radial15" cx="0" cy="0" r="1" gradientUnits="userSpaceOnUse" gradientTransform="matrix(0.444289,-0.13473,2.87444,5.47087,20.1164,8.32359)"><stop offset="0" style="stop-color:white;stop-opacity:1"/><stop offset="1" style="stop-color:rgb(85,87,83);stop-opacity:0"/></radialGradient>
        <radialGradient id="_Radial16" cx="0" cy="0" r="1" gradientUnits="userSpaceOnUse" gradientTransform="matrix(0.596435,-0.165088,2.08014,9.14568,20.1096,8.62961)"><stop offset="0" style="stop-color:white;stop-opacity:1"/><stop offset="1" style="stop-color:white;stop-opacity:0"/></radialGradient>
        <linearGradient id="_Linear17" x1="0" y1="0" x2="1" y2="0" gradientUnits="userSpaceOnUse" gradientTransform="matrix(1.69541,-0.400724,0.400724,1.69541,19.1213,8.03837)"><stop offset="0" style="stop-color:black;stop-opacity:0.67"/><stop offset="1" style="stop-color:black;stop-opacity:0"/></linearGradient>
        <radialGradient id="_Radial18" cx="0" cy="0" r="1" gradientUnits="userSpaceOnUse" gradientTransform="matrix(0.584273,-0.150271,1.87351,7.80134,20.6462,9.57355)"><stop offset="0" style="stop-color:white;stop-opacity:1"/><stop offset="1" style="stop-color:white;stop-opacity:0"/></radialGradient>
        <linearGradient id="_Linear19" x1="0" y1="0" x2="1" y2="0" gradientUnits="userSpaceOnUse" gradientTransform="matrix(1.6486,-0.412771,0.412771,1.6486,19.6927,9.08195)"><stop offset="0" style="stop-color:black;stop-opacity:0.67"/><stop offset="1" style="stop-color:black;stop-opacity:0"/></linearGradient>
        <radialGradient id="_Radial20" cx="0" cy="0" r="1" gradientUnits="userSpaceOnUse" gradientTransform="matrix(0.623801,-0.154847,1.92001,7.76315,20.349,9.05788)"><stop offset="0" style="stop-color:white;stop-opacity:1"/><stop offset="1" style="stop-color:white;stop-opacity:0"/></radialGradient>
        <linearGradient id="_Linear21" x1="0" y1="0" x2="1" y2="0" gradientUnits="userSpaceOnUse" gradientTransform="matrix(1.75302,-0.452791,0.452791,1.75302,19.3382,8.57595)"><stop offset="0" style="stop-color:black;stop-opacity:0.67"/><stop offset="1" style="stop-color:black;stop-opacity:0"/></linearGradient>
        <linearGradient id="_Linear22" x1="0" y1="0" x2="1" y2="0" gradientUnits="userSpaceOnUse" gradientTransform="matrix(2.32755,-0.287714,0.287714,2.32755,21.5918,4.05509)"><stop offset="0" style="stop-color:black;stop-opacity:1"/><stop offset="1" style="stop-color:black;stop-opacity:0"/></linearGradient>
        <linearGradient id="_Linear23" x1="0" y1="0" x2="1" y2="0" gradientUnits="userSpaceOnUse" gradientTransform="matrix(3.39593,-5.96577,5.96577,3.39593,23.8989,9.5958)"><stop offset="0" style="stop-color:black;stop-opacity:1"/><stop offset="1" style="stop-color:black;stop-opacity:0"/></linearGradient>
        <radialGradient id="_Radial24" cx="0" cy="0" r="1" gradientUnits="userSpaceOnUse" gradientTransform="matrix(5.8564,-0.757261,2.56176,16.9129,20.6047,3.73085)"><stop offset="0" style="stop-color:white;stop-opacity:1"/><stop offset="1" style="stop-color:rgb(136,138,133);stop-opacity:0"/></radialGradient>
        <radialGradient id="_Radial25" cx="0" cy="0" r="1" gradientUnits="userSpaceOnUse" gradientTransform="matrix(-0.714747,0.0546166,-0.0802754,-0.938984,8.71911,19.4577)"><stop offset="0" style="stop-color:white;stop-opacity:0.89"/><stop offset="1" style="stop-color:white;stop-opacity:0"/></radialGradient>
        <radialGradient id="_Radial26" cx="0" cy="0" r="1" gradientUnits="userSpaceOnUse" gradientTransform="matrix(5.29296,-0.305469,0.304206,4.64474,24.2338,7.07734)"><stop offset="0" style="stop-color:white;stop-opacity:0.51"/><stop offset="1" style="stop-color:rgb(62,62,62);stop-opacity:0"/></radialGradient>
        <radialGradient id="_Radial27" cx="0" cy="0" r="1" gradientUnits="userSpaceOnUse" gradientTransform="matrix(1.7929,-0.559452,6.29035,20.1596,14.3481,24.9897)"><stop offset="0" style="stop-color:white;stop-opacity:1"/><stop offset="1" style="stop-color:white;stop-opacity:0"/></radialGradient>
        <radialGradient id="_Radial28" cx="0" cy="0" r="1" gradientUnits="userSpaceOnUse" gradientTransform="matrix(2.36809,5.1117,-1.45342,0.997436,18.2602,11.8523)"><stop offset="0" style="stop-color:white;stop-opacity:0.28"/><stop offset="1" style="stop-color:white;stop-opacity:0"/></radialGradient>
        <radialGradient id="_Radial29" cx="0" cy="0" r="1" gradientUnits="userSpaceOnUse" gradientTransform="matrix(5.23587,-0.647181,0.615401,4.39474,12.1727,16.0194)"><stop offset="0" style="stop-color:white;stop-opacity:0.5"/><stop offset="1" style="stop-color:white;stop-opacity:0"/></radialGradient>
        <radialGradient id="_Radial30" cx="0" cy="0" r="1" gradientUnits="userSpaceOnUse" gradientTransform="matrix(0.758238,-0.0937224,0.13125,0.937276,10.0736,18.3151)"><stop offset="0" style="stop-color:white;stop-opacity:1"/><stop offset="1" style="stop-color:white;stop-opacity:0"/></radialGradient>
        <radialGradient id="_Radial31" cx="0" cy="0" r="1" gradientUnits="userSpaceOnUse" gradientTransform="matrix(0.758238,-0.0937224,0.13125,0.937276,10.0736,18.3151)"><stop offset="0" style="stop-color:white;stop-opacity:1"/><stop offset="1" style="stop-color:white;stop-opacity:0"/></radialGradient>
        <filter id="_Effect32" filterUnits="userSpaceOnUse" x="18.6131" y="2.15911" width="4.3656" height="2.90219">
            <feGaussianBlur in="SourceGraphic" stdDeviation="0.0864251"/>
        </filter>
        <filter id="_Effect33" filterUnits="userSpaceOnUse" x="18.0879" y="1.60065" width="5.41598" height="3.98585">
            <feGaussianBlur in="SourceGraphic" stdDeviation="0.173957"/>
        </filter>
        <filter id="_Effect34" filterUnits="userSpaceOnUse" x="18.1655" y="1.65001" width="4.61793" height="3.63625">
            <feGaussianBlur in="SourceGraphic" stdDeviation="0.173957"/>
        </filter>
    </defs>
</svg>
