<?xml version="1.0" encoding="UTF-8" standalone="no"?>
<!DOCTYPE svg PUBLIC "-//W3C//DTD SVG 1.1//EN" "http://www.w3.org/Graphics/SVG/1.1/DTD/svg11.dtd">
<svg width="30px" height="30px" version="1.1" xmlns="http://www.w3.org/2000/svg" xmlns:xlink="http://www.w3.org/1999/xlink" xml:space="preserve" xmlns:serif="http://www.serif.com/" style="fill-rule:evenodd;clip-rule:evenodd;stroke-linejoin:round;">
    <g>
        <rect x="1" y="8.437" width="28" height="13.125" style="fill:none;stroke:rgb(136,136,136);stroke-width:1.94px;"/>
        <rect x="1" y="8.437" width="28" height="13.125" style="fill:rgb(221,221,221);"/>
        <rect x="2" y="9.374" width="26.001" height="11.25" style="fill:white;"/>
    </g>
    <g id="save">
        <path id="path9" d="M24.769,10.786L24.103,10.786L24.103,13.158C24.103,13.296 23.995,13.408 23.858,13.408L18.546,13.408C18.412,13.408 18.301,13.297 18.301,13.158L18.301,10.786L17.898,10.786L17.186,11.515L17.186,18.544C17.186,18.682 17.295,18.795 17.431,18.795L18.303,18.795L18.303,15.191C18.303,15.053 18.412,14.94 18.548,14.94L23.861,14.94C23.996,14.94 24.106,15.051 24.106,15.191L24.106,18.797L24.769,18.797C24.904,18.797 25.014,18.685 25.014,18.546L25.014,11.037C25.014,10.899 24.904,10.786 24.769,10.786Z" style="fill:rgb(86,172,224);fill-rule:nonzero;"/>
        <path id="path13" d="M18.789,15.43L18.789,18.798L23.606,18.798L23.606,15.43L18.789,15.43ZM22.521,17.973L19.87,17.973C19.736,17.973 19.627,17.862 19.627,17.722C19.627,17.583 19.736,17.47 19.87,17.47L22.521,17.47C22.656,17.47 22.766,17.582 22.766,17.722C22.766,17.86 22.656,17.973 22.521,17.973ZM22.521,16.756L19.87,16.756C19.736,16.756 19.627,16.642 19.627,16.505C19.627,16.367 19.736,16.254 19.87,16.254L22.521,16.254C22.656,16.254 22.766,16.365 22.766,16.505C22.766,16.644 22.656,16.756 22.521,16.756Z" style="fill:rgb(255,193,13);fill-rule:nonzero;"/>
        <g id="g23">
            <path id="path15" d="M24.767,10.287L17.798,10.287C17.735,10.287 17.672,10.314 17.625,10.36L16.769,11.234C16.724,11.282 16.698,11.346 16.698,11.412L16.698,18.537C16.698,18.951 17.027,19.287 17.432,19.287L24.767,19.287C25.171,19.287 25.5,18.951 25.5,18.537L25.5,11.037C25.5,10.624 25.171,10.287 24.767,10.287ZM18.791,10.787L23.614,10.787L23.614,12.906L18.791,12.906L18.791,10.787ZM18.791,18.788L18.791,15.435L23.614,15.435L23.614,18.788L18.791,18.788ZM25.012,18.537C25.012,18.675 24.903,18.788 24.767,18.788L24.101,18.788L24.101,15.186C24.101,15.048 23.993,14.935 23.856,14.935L18.546,14.935C18.412,14.935 18.301,15.047 18.301,15.186L18.301,18.788L17.432,18.788C17.297,18.788 17.187,18.676 17.187,18.537L17.187,11.515L17.899,10.787L18.303,10.787L18.303,13.155C18.303,13.293 18.412,13.406 18.548,13.406L23.859,13.406C23.994,13.406 24.104,13.295 24.104,13.155L24.104,10.787L24.767,10.787C24.901,10.787 25.012,10.898 25.012,11.037L25.012,18.537Z" style="fill:rgb(25,79,130);fill-rule:nonzero;"/>
            <path id="path17" d="M22.749,11.007C22.614,11.007 22.504,11.118 22.504,11.257L22.504,12.073C22.504,12.21 22.613,12.323 22.749,12.323C22.884,12.323 22.994,12.212 22.994,12.073L22.994,11.257C22.992,11.119 22.884,11.007 22.749,11.007Z" style="fill:rgb(25,79,130);fill-rule:nonzero;"/>
            <path id="path19" d="M22.521,16.249L19.87,16.249C19.736,16.249 19.626,16.36 19.626,16.499C19.626,16.636 19.734,16.75 19.87,16.75L22.521,16.75C22.656,16.75 22.766,16.638 22.766,16.499C22.766,16.36 22.656,16.249 22.521,16.249Z" style="fill:rgb(25,79,130);fill-rule:nonzero;"/>
            <path id="path21" d="M22.521,17.46L19.87,17.46C19.736,17.46 19.626,17.571 19.626,17.71C19.626,17.848 19.734,17.96 19.87,17.96L22.521,17.96C22.656,17.96 22.766,17.849 22.766,17.71C22.766,17.571 22.656,17.46 22.521,17.46Z" style="fill:rgb(25,79,130);fill-rule:nonzero;"/>
        </g>
    </g>
    <g id="open">
        <path d="M9.742,13.557C9.742,13.743 9.595,13.896 9.414,13.896L4.492,19.33C4.312,19.33 4.164,19.177 4.164,18.991L4.164,11.009C4.164,10.823 4.312,10.67 4.492,10.67L7.445,10.67C7.626,10.67 7.773,10.823 7.773,11.009L9.742,13.557Z" style="fill:rgb(211,172,81);fill-rule:nonzero;"/>
        <path d="M4.558,19.5L4.492,19.5C4.213,19.5 4,19.279 4,18.991L4,11.009C4,10.721 4.213,10.5 4.492,10.5L7.445,10.5C7.691,10.5 7.905,10.687 7.938,10.942L9.906,13.489L9.906,13.557C9.906,13.811 9.726,14.015 9.496,14.066L4.558,19.5ZM4.492,10.84C4.394,10.84 4.328,10.908 4.328,11.009L4.328,18.991C4.328,19.058 4.377,19.126 4.427,19.143L9.332,13.726L9.398,13.726C9.463,13.726 9.529,13.675 9.562,13.608L7.593,11.077L7.593,11.009C7.593,10.908 7.527,10.84 7.429,10.84L4.492,10.84Z" style="fill:rgb(35,28,28);fill-rule:nonzero;"/>
        <path d="M13.352,18.991C13.352,19.177 13.204,19.33 13.023,19.33L4.492,19.33C4.312,19.33 4.164,19.177 4.164,18.991L4.984,12.198C4.984,12.011 5.132,11.858 5.313,11.858L14.008,11.858C14.188,11.858 14.336,12.011 14.336,12.198L13.352,18.991Z" style="fill:rgb(250,197,70);fill-rule:nonzero;"/>
        <path d="M13.023,19.5L4.492,19.5C4.213,19.5 4,19.279 4,18.991L4,18.974L4.82,12.198C4.82,11.926 5.05,11.706 5.313,11.706L14.008,11.706C14.287,11.706 14.5,11.926 14.5,12.215L14.5,12.232L13.516,19.008C13.499,19.279 13.286,19.5 13.023,19.5ZM4.328,19.008C4.328,19.092 4.41,19.16 4.492,19.16L13.023,19.16C13.122,19.16 13.188,19.092 13.188,18.991L13.188,18.974L14.172,12.198C14.172,12.113 14.09,12.045 14.008,12.045L5.313,12.045C5.214,12.045 5.148,12.113 5.148,12.215L5.148,12.232L4.328,19.008Z" style="fill:rgb(35,28,28);fill-rule:nonzero;"/>
    </g>
    <rect id="outer" x="0" y="0" width="30" height="30" style="fill:none;"/>
</svg>
