<?xml version="1.0" encoding="UTF-8" standalone="no"?><!DOCTYPE svg PUBLIC "-//W3C//DTD SVG 1.1//EN" "http://www.w3.org/Graphics/SVG/1.1/DTD/svg11.dtd"><svg width="100%" height="100%" viewBox="0 0 485 485" version="1.1" xmlns="http://www.w3.org/2000/svg" xmlns:xlink="http://www.w3.org/1999/xlink" xml:space="preserve" xmlns:serif="http://www.serif.com/" style="fill-rule:evenodd;clip-rule:evenodd;stroke-linejoin:round;stroke-miterlimit:20;"><g id="XMLID_29_"><g id="g699"><path id="polygon691" d="M137.5,472.5l0,-30l210,0l0,30l-210,0Z" style="fill:#92999d;fill-rule:nonzero;"/><path id="polygon693" d="M202.5,442.5l-35,0l20,-90l110,0l20,90l-35,0l-15,-60l-50,0l-15,60Z" style="fill:#e7eced;fill-rule:nonzero;"/><path id="path695" d="M477.5,12.5l0,340l-470,0l0,-340l470,0Zm-35,305l0,-270l-400,0l0,270l400,0Z" style="fill:#e6e6e6;fill-rule:nonzero;"/><rect id="rect697" x="42.5" y="47.5" width="400" height="270" style="fill:#31c0d8;"/></g><g id="g705"><path id="path701" d="M485,360l0,-355l-485,0l0,355l178.151,0l-16.667,75l-31.484,0l0,45l225,0l0,-45l-31.484,0l-16.667,-75l178.151,0Zm-470,-15l-0,-325l455,0l-0,325l-455,0Zm325,120l-195,0l-0,-15l195,0l-0,15Zm-127.894,-30l11.25,-45l38.288,0l11.25,45l-60.788,0Zm76.25,0l-15,-60l-61.712,0l-15,60l-19.795,0l16.667,-75l97.968,0l16.667,75l-19.795,0Z" style="fill:#231f20;fill-rule:nonzero;"/><path id="path703" d="M450,40l-415,0l0,285l415,0l0,-285Zm-15,270l-385,0l0,-255l385,0l0,255Z" style="fill:#231f20;fill-rule:nonzero;"/></g></g><g id="g1042" transform="matrix(2.81163,0,0,3.07907,66.5042,28.7667)"><g id="g1001" transform="matrix(0.1697,0,0,0.1697,17.758,17.758)"><path id="path993" d="M69.34,155l111.32,0c24.565,0 44.34,19.775 44.34,44.34l-0,111.32c-0,24.565 -19.775,44.34 -44.34,44.34l-111.32,0c-24.565,0 -44.34,-19.775 -44.34,-44.34l-0,-111.32c-0,-24.565 19.775,-44.34 44.34,-44.34Z" style="fill:url(#_Linear1);fill-rule:nonzero;"/><path id="path995" d="M182.057,230.006c-48.531,0.525 -61.796,56.69 -104.9,57.25c-18.635,0.235 -34.53,-12.555 -52.157,-27.7l-0,51.653c-0,24.248 19.797,43.791 44.361,43.791l111.32,0c24.564,0 44.32,-19.543 44.32,-43.791l-0,-70.256c-12.033,-6.606 -25.967,-11.135 -42.944,-10.947Z" style="fill:#f00;fill-opacity:0.25;"/><path id="rect997" d="M83,195.067l0,119.866c0,8.316 -7.393,15.067 -16.5,15.067c-9.107,0 -16.5,-6.751 -16.5,-15.067l0,-119.866c0,-8.316 7.393,-15.067 16.5,-15.067c9.107,0 16.5,6.751 16.5,15.067Z" style="fill:url(#_Linear2);"/><path id="path999" d="M69.468,161.343l111.192,0c21.128,0 37.997,16.879 37.997,38.006l-0,111.32c-0,21.135 -16.865,37.988 -37.997,37.988l-111.32,0c-21.132,0 -37.997,-16.86 -37.997,-37.988l-0,-111.358c-0,-21.132 16.99,-37.968 38.125,-37.968Z" style="fill:none;fill-rule:nonzero;stroke:#800000;stroke-opacity:0.5;stroke-width:12.69px;"/></g><g id="g1011" transform="matrix(0.1697,0,0,0.1697,17.758,17.758)"><path id="path1003" d="M199.34,25l111.32,0c24.565,0 44.34,19.775 44.34,44.34l0,111.32c0,24.565 -19.775,44.34 -44.34,44.34l-111.32,-0c-24.565,-0 -44.34,-19.775 -44.34,-44.34l0,-111.32c0,-24.565 19.775,-44.34 44.34,-44.34Z" style="fill:url(#_Linear3);fill-rule:nonzero;"/><path id="path1005" d="M312.056,100.006c-48.53,0.525 -61.795,56.69 -104.898,57.25c-18.636,0.235 -34.53,-12.555 -52.158,-27.7l0,51.653c0,24.248 19.797,43.791 44.361,43.791l111.32,0c24.564,0 44.319,-19.543 44.319,-43.791l0,-70.256c-12.032,-6.606 -25.966,-11.135 -42.944,-10.947Z" style="fill:#00f;fill-opacity:0.25;"/><path id="rect1007" d="M213,65.067l0,119.866c0,8.316 -7.393,15.067 -16.5,15.067c-9.107,0 -16.5,-6.751 -16.5,-15.067l0,-119.866c0,-8.316 7.393,-15.067 16.5,-15.067c9.107,0 16.5,6.751 16.5,15.067Z" style="fill:url(#_Linear4);"/><path id="path1009" d="M199.468,31.343l111.192,0c21.128,0 37.997,16.879 37.997,38.006l0,111.32c0,21.135 -16.865,37.988 -37.997,37.988l-111.32,-0c-21.132,-0 -37.997,-16.86 -37.997,-37.988l0,-111.358c0,-21.132 16.99,-37.968 38.125,-37.968Z" style="fill:none;fill-rule:nonzero;stroke:#000080;stroke-opacity:0.5;stroke-width:12.69px;"/></g><g id="g1021" transform="matrix(0.1697,0,0,0.1697,17.758,17.758)"><path id="path1013" d="M344.34,120l111.32,0c24.565,0 44.34,19.775 44.34,44.34l0,111.32c0,24.565 -19.775,44.34 -44.34,44.34l-111.32,0c-24.565,0 -44.34,-19.775 -44.34,-44.34l0,-111.32c0,-24.565 19.775,-44.34 44.34,-44.34Z" style="fill:url(#_Linear5);fill-rule:nonzero;"/><path id="path1015" d="M457.056,195.006c-48.53,0.525 -61.795,56.69 -104.898,57.25c-18.636,0.235 -34.53,-12.555 -52.158,-27.7l0,51.653c0,24.248 19.797,43.791 44.361,43.791l111.32,0c24.564,0 44.319,-19.543 44.319,-43.791l0,-70.256c-12.032,-6.606 -25.966,-11.135 -42.944,-10.947Z" style="fill:#c0c000;fill-opacity:0.25;"/><path id="rect1017" d="M358,160.067l0,119.866c0,8.316 -7.393,15.067 -16.5,15.067c-9.107,0 -16.5,-6.751 -16.5,-15.067l0,-119.866c0,-8.316 7.393,-15.067 16.5,-15.067c9.107,0 16.5,6.751 16.5,15.067Z" style="fill:url(#_Linear6);"/><path id="path1019" d="M344.468,126.343l111.192,0c21.128,0 37.997,16.879 37.997,38.006l0,111.32c0,21.135 -16.865,37.988 -37.997,37.988l-111.32,0c-21.132,0 -37.997,-16.86 -37.997,-37.988l-0,-111.358c-0,-21.132 16.99,-37.968 38.125,-37.968Z" style="fill:none;fill-rule:nonzero;stroke:#808000;stroke-opacity:0.5;stroke-width:12.69px;"/></g></g><defs><linearGradient id="_Linear1" x1="0" y1="0" x2="1" y2="-0.0771076" gradientUnits="userSpaceOnUse" gradientTransform="matrix(-101.096,-200,200,-101.096,176.015,354.999)"><stop offset="0" style="stop-color:#f00;stop-opacity:1"/><stop offset="1" style="stop-color:#ffe0e0;stop-opacity:1"/></linearGradient><linearGradient id="_Linear2" x1="0" y1="0" x2="1" y2="0" gradientUnits="userSpaceOnUse" gradientTransform="matrix(45.4495,0,0,45.4495,37.551,254.997)"><stop offset="0" style="stop-color:#fff;stop-opacity:1"/><stop offset="1" style="stop-color:#fff;stop-opacity:0"/></linearGradient><linearGradient id="_Linear3" x1="0" y1="0" x2="1" y2="-0.0768815" gradientUnits="userSpaceOnUse" gradientTransform="matrix(-100.54,-199.999,199.999,-100.54,304.899,224.997)"><stop offset="0" style="stop-color:#00f;stop-opacity:1"/><stop offset="1" style="stop-color:#e0e0ff;stop-opacity:1"/></linearGradient><linearGradient id="_Linear4" x1="0" y1="0" x2="1" y2="0" gradientUnits="userSpaceOnUse" gradientTransform="matrix(45.3404,0,0,45.3404,167.66,124.997)"><stop offset="0" style="stop-color:#fff;stop-opacity:1"/><stop offset="1" style="stop-color:#fff;stop-opacity:0"/></linearGradient><linearGradient id="_Linear5" x1="0" y1="0" x2="1" y2="-0.0770695" gradientUnits="userSpaceOnUse" gradientTransform="matrix(101.001,199.999,-199.999,101.001,349.596,119.999)"><stop offset="0" style="stop-color:#ffffe0;stop-opacity:1"/><stop offset="1" style="stop-color:#ff0;stop-opacity:1"/></linearGradient><linearGradient id="_Linear6" x1="0" y1="0" x2="1" y2="0" gradientUnits="userSpaceOnUse" gradientTransform="matrix(45.449,0,0,45.449,312.551,219.997)"><stop offset="0" style="stop-color:#fff;stop-opacity:1"/><stop offset="1" style="stop-color:#fff;stop-opacity:0"/></linearGradient></defs></svg>