<?xml version="1.0" encoding="UTF-8" standalone="no"?>
<!DOCTYPE svg PUBLIC "-//W3C//DTD SVG 1.1//EN" "http://www.w3.org/Graphics/SVG/1.1/DTD/svg11.dtd">
<svg width="256px" height="256px" version="1.1" xmlns="http://www.w3.org/2000/svg" xmlns:xlink="http://www.w3.org/1999/xlink" xml:space="preserve" xmlns:serif="http://www.serif.com/" style="fill-rule:evenodd;clip-rule:evenodd;">
    <g>
        <g id="wxLogo">
            <g>
                <path d="M127.999,148.699L106.899,156.702C108.763,161.569 109.465,197.672 105.361,202.565C102.514,205.959 95.253,207.44 89.468,208.039C72.19,209.829 55.375,219.207 55.375,228.188C55.375,244.254 96.25,252.613 127.999,252.613C159.567,252.613 200.624,244.254 200.624,228.188C200.624,218.839 183.764,209.829 166.484,208.039C160.701,207.44 153.224,206.134 150.593,202.565C146.432,196.921 147.294,160.934 149.099,156.702L127.999,148.699Z" style="fill:url(#_Linear1);"/>
                <path d="M128.021,148.68L106.921,156.685C107.041,156.995 107.13,157.468 107.238,158.018L128.021,150.152L148.713,158.018C148.827,157.447 148.997,156.976 149.12,156.685L128.021,148.68ZM108.37,179.915C108.254,190.067 107.417,200.123 105.382,202.547C102.535,205.941 95.275,207.422 89.49,208.021C72.21,209.81 55.396,219.19 55.396,228.169C55.396,228.382 55.427,228.603 55.441,228.814C56.444,220.098 72.751,211.226 89.49,209.493C95.275,208.894 102.535,207.413 105.382,204.019C107.515,201.477 108.322,190.551 108.37,179.915ZM147.671,182.951C147.853,192.372 148.695,201.415 150.615,204.019C153.246,207.589 160.721,208.894 166.506,209.493C183.358,211.238 199.752,219.855 200.555,228.952C200.576,228.696 200.646,228.428 200.646,228.169C200.646,218.822 183.785,209.81 166.506,208.021C160.721,207.422 153.246,206.117 150.615,202.547C148.794,200.077 147.91,191.835 147.671,182.951Z" style="fill:url(#_Radial2);"/>
                <g>
                    <g style="filter:url(#_Effect3);">
                        <g>
                            <path d="M100.982,207.498C103.422,208.297 105.567,209.354 106.794,210.817C110.078,214.731 110.071,239.909 108.916,250.043C115.362,250.702 121.878,251.033 128.008,251.033C134.13,251.033 140.593,250.708 147.057,250.043C145.929,240.132 145.876,215.298 149.179,210.817C150.28,209.323 152.286,208.276 154.652,207.498C140.517,206.95 124.816,206.004 100.982,207.498Z" style="fill:url(#_Linear4);"/>
                        </g>
                    </g>
                </g>
                <path d="M127.999,148.699L106.899,156.702C108.763,161.569 109.465,197.672 105.361,202.565C102.514,205.959 95.253,207.44 89.468,208.039L166.486,208.039C160.701,207.44 153.224,206.134 150.593,202.565C146.432,196.921 147.294,160.934 149.099,156.702L127.999,148.699Z" style="fill:url(#_Linear5);"/>
            </g>
            <path d="M127.999,148.699L106.899,156.702C108.763,161.569 109.465,197.672 105.361,202.565C102.514,205.959 95.253,207.44 89.468,208.039C72.19,209.829 55.375,219.207 55.375,228.188C55.375,244.254 96.25,252.613 127.999,252.613C159.567,252.613 200.624,244.254 200.624,228.188C200.624,218.839 183.764,209.829 166.484,208.039C160.701,207.44 153.224,206.134 150.593,202.565C146.432,196.921 147.294,160.934 149.099,156.702L127.999,148.699Z" style="fill:none;fill-rule:nonzero;stroke:url(#_Linear6);stroke-width:0.44px;"/>
            <g>
                <g style="filter:url(#_Effect7);">
                    <g>
                        <path d="M100.982,207.498C103.422,208.297 105.567,209.354 106.794,210.817C110.078,214.731 110.071,239.909 108.916,250.043C115.362,250.702 121.878,251.033 128.008,251.033C134.13,251.033 140.593,250.708 147.057,250.043C145.929,240.132 145.876,215.298 149.179,210.817C150.28,209.323 152.286,208.276 154.652,207.498C140.861,206.799 126.11,206.565 100.982,207.498Z" style="fill:url(#_Linear8);"/>
                    </g>
                </g>
            </g>
            <g>
                <g>
                    <g style="filter:url(#_Effect9);">
                        <g>
                            <path d="M91.436,208.756C78.158,210.096 65.036,215.978 60.728,222.665C56.67,228.964 69.819,227.938 75.358,225.733C87.915,220.982 106.389,221.041 126.969,221.041C151.541,221.041 173.206,222.259 185.185,228.668C192.646,232.659 197.84,228.096 196.202,224.455C192.88,217.075 178.959,210.221 164.434,208.756C122.262,205.096 115.316,206.226 91.436,208.756Z" style="fill:url(#_Radial10);"/>
                        </g>
                    </g>
                </g>
                <g>
                    <g style="filter:url(#_Effect11);">
                        <g>
                            <path d="M91.699,208.908C78.218,210.269 65.039,215.928 60.926,223.165C57.922,228.451 69.309,228.281 75.567,225.829C88.078,221.183 106.454,220.927 126.978,220.927C151.255,220.927 172.577,222.263 184.601,228.585C191.605,232.653 197.751,228.185 195.537,224.086C192.19,216.785 178.331,210.338 164.173,208.908C124.072,204.919 115.946,206.366 91.699,208.908Z" style="fill:url(#_Radial12);"/>
                        </g>
                    </g>
                </g>
                <g style="filter:url(#_Effect13);">
                    <g>
                        <path d="M125.373,206.881C118.372,206.939 110.393,207.129 100.969,207.48C103.409,208.278 105.582,209.374 106.81,210.837C108.645,213.026 109.419,221.847 109.571,230.985L125.871,230.985C127.197,230.985 128.27,229.76 128.27,228.272L128.27,206.881C127.301,206.884 126.382,206.872 125.373,206.881Z" style="fill:url(#_Linear14);"/>
                    </g>
                </g>
            </g>
        </g>
        <rect x="-0" y="0.13" width="256" height="190.916" style="fill:url(#_Radial15);"/>
        <rect x="2.133" y="2.297" width="251.733" height="186.397" style="fill:url(#_Linear16);"/>
        <rect x="6.4" y="6.632" width="243.2" height="177.728" style="fill:url(#_Linear17);"/>
        <path d="M11.878,6.632C8.834,6.632 6.389,9.116 6.389,12.209L6.389,16.359C6.389,13.266 8.834,9.4 11.878,9.4L244.111,9.376C247.155,9.376 249.6,13.243 249.6,16.335L249.6,12.185C249.6,9.092 247.155,6.608 244.111,6.608L11.878,6.632Z" style="fill:url(#_Linear18);fill-rule:nonzero;"/>
        <rect x="21.333" y="13.134" width="213.333" height="164.723" style="fill:url(#_Radial19);"/>
        <rect x="21.333" y="13.134" width="213.333" height="164.723" style="fill:url(#_Radial20);"/>
        <rect x="23.467" y="15.302" width="209.066" height="160.388"/>
        <path d="M11.889,6.658C8.845,6.658 6.4,9.142 6.4,12.235L6.4,104.165C38.577,108.522 72.988,110.936 110.127,110.936C161.6,110.936 208.738,106.29 249.6,98.268L249.6,12.215C249.6,9.125 247.155,6.639 244.111,6.639L11.889,6.658Z" style="fill:url(#_Linear21);fill-rule:nonzero;"/>
        <rect x="25.6" y="17.469" width="204.8" height="156.054" style="fill:url(#_Linear22);"/>
        <rect x="25.6" y="17.469" width="204.8" height="156.054" style="fill:url(#_Radial23);"/>
        <path d="M25.6,17.469L230.4,17.469L25.6,173.523L25.6,17.469Z" style="fill:url(#_Linear24);fill-rule:nonzero;"/>
    </g>
    <g id="inner-object" serif:id="inner object">
        <g>
            <path d="M69.561,84.738L103.24,84.738C110.672,84.738 116.655,90.816 116.655,98.367L116.655,132.583C116.655,140.134 110.672,146.212 103.24,146.212L69.561,146.212C62.13,146.212 56.147,140.134 56.147,132.583L56.147,98.367C56.147,90.816 62.13,84.738 69.561,84.738Z" style="fill:url(#_Linear25);fill-rule:nonzero;"/>
            <path d="M103.663,107.792C88.98,107.954 84.967,125.217 71.926,125.39C66.289,125.462 61.48,121.53 56.147,116.875L56.147,132.752C56.147,140.205 62.136,146.212 69.568,146.212L103.246,146.212C110.678,146.212 116.655,140.205 116.655,132.752L116.655,111.157C113.014,109.127 108.799,107.735 103.663,107.792Z" style="fill:rgb(255,0,0);fill-opacity:0.25;"/>
            <rect x="63.71" y="92.422" width="9.984" height="46.106" style="fill:url(#_Linear26);"/>
            <path d="M69.6,86.687L103.24,86.687C109.632,86.687 114.736,91.876 114.736,98.37L114.736,132.586C114.736,139.082 109.633,144.262 103.24,144.262L69.561,144.262C63.168,144.262 58.066,139.08 58.066,132.586L58.066,98.358C58.066,91.862 63.206,86.687 69.6,86.687Z" style="fill:none;fill-rule:nonzero;stroke:rgb(128,0,0);stroke-opacity:0.5;stroke-width:3.87px;stroke-linejoin:round;stroke-miterlimit:20;"/>
        </g>
        <g>
            <path d="M108.891,44.78L142.57,44.78C150.002,44.78 155.984,50.858 155.984,58.408L155.984,92.625C155.984,100.176 150.002,106.254 142.57,106.254L108.891,106.254C101.459,106.254 95.477,100.176 95.477,92.625L95.477,58.408C95.477,50.858 101.459,44.78 108.891,44.78Z" style="fill:url(#_Linear27);fill-rule:nonzero;"/>
            <path d="M142.992,67.834C128.31,67.996 124.297,85.259 111.257,85.431C105.618,85.504 100.81,81.572 95.477,76.917L95.477,92.794C95.477,100.247 101.466,106.254 108.898,106.254L142.576,106.254C150.008,106.254 155.984,100.247 155.984,92.794L155.984,71.199C152.344,69.169 148.129,67.776 142.992,67.834Z" style="fill:rgb(0,0,255);fill-opacity:0.25;"/>
            <rect x="103.04" y="52.464" width="9.984" height="46.106" style="fill:url(#_Linear28);"/>
            <path d="M108.93,46.729L142.57,46.729C148.962,46.729 154.065,51.917 154.065,58.411L154.065,92.628C154.065,99.124 148.963,104.304 142.57,104.304L108.891,104.304C102.498,104.304 97.396,99.122 97.396,92.628L97.396,58.399C97.396,51.904 102.536,46.729 108.93,46.729Z" style="fill:none;fill-rule:nonzero;stroke:rgb(0,0,128);stroke-opacity:0.5;stroke-width:3.87px;stroke-linejoin:round;stroke-miterlimit:20;"/>
        </g>
        <g>
            <path d="M152.76,73.98L186.438,73.98C193.87,73.98 199.852,80.058 199.852,87.609L199.852,121.825C199.852,129.376 193.87,135.454 186.438,135.454L152.76,135.454C145.328,135.454 139.345,129.376 139.345,121.825L139.345,87.609C139.345,80.058 145.328,73.98 152.76,73.98Z" style="fill:url(#_Linear29);fill-rule:nonzero;"/>
            <path d="M186.86,97.035C172.178,97.196 168.165,114.459 155.125,114.632C149.487,114.704 144.678,110.773 139.345,106.117L139.345,121.994C139.345,129.447 145.334,135.454 152.766,135.454L186.444,135.454C193.876,135.454 199.852,129.447 199.852,121.994L199.852,100.399C196.212,98.369 191.997,96.977 186.86,97.035Z" style="fill:rgb(192,192,0);fill-opacity:0.25;"/>
            <rect x="146.908" y="81.664" width="9.984" height="46.106" style="fill:url(#_Linear30);"/>
            <path d="M152.798,75.93L186.438,75.93C192.83,75.93 197.933,81.118 197.933,87.611L197.933,121.828C197.933,128.324 192.831,133.505 186.438,133.505L152.76,133.505C146.366,133.505 141.264,128.322 141.264,121.828L141.264,87.6C141.264,81.104 146.404,75.93 152.798,75.93Z" style="fill:none;fill-rule:nonzero;stroke:rgb(128,128,0);stroke-opacity:0.5;stroke-width:3.87px;stroke-linejoin:round;stroke-miterlimit:20;"/>
        </g>
    </g>
    <defs>
        <linearGradient id="_Linear1" x1="0" y1="0" x2="1" y2="0" gradientUnits="userSpaceOnUse" gradientTransform="matrix(3.84534e-15,63.8024,-62.7991,3.90677e-15,134.005,182.962)"><stop offset="0" style="stop-color:rgb(202,202,202);stop-opacity:1"/><stop offset="0.61" style="stop-color:rgb(235,235,235);stop-opacity:1"/><stop offset="1" style="stop-color:rgb(203,203,203);stop-opacity:1"/></linearGradient>
        <radialGradient id="_Radial2" cx="0" cy="0" r="1" gradientUnits="userSpaceOnUse" gradientTransform="matrix(92.0905,-1.56131,0.659139,40.1299,128.021,188.816)"><stop offset="0" style="stop-color:white;stop-opacity:1"/><stop offset="1" style="stop-color:white;stop-opacity:0"/></radialGradient>
        <filter id="_Effect3" filterUnits="userSpaceOnUse" x="96.8444" y="202.557" width="61.9452" height="52.6135">
            <feGaussianBlur in="SourceGraphic" stdDeviation="0.68957"/>
        </filter>
        <linearGradient id="_Linear4" x1="0" y1="0" x2="1" y2="0" gradientUnits="userSpaceOnUse" gradientTransform="matrix(2.63657e-15,43.7463,-43.0585,2.67869e-15,134.69,192.662)"><stop offset="0" style="stop-color:black;stop-opacity:0.12"/><stop offset="1" style="stop-color:black;stop-opacity:0"/></linearGradient>
        <linearGradient id="_Linear5" x1="0" y1="0" x2="1" y2="0" gradientUnits="userSpaceOnUse" gradientTransform="matrix(1.748e-15,29.0031,-28.547,1.77593e-15,135.425,173.423)"><stop offset="0" style="stop-color:black;stop-opacity:1"/><stop offset="1" style="stop-color:black;stop-opacity:0"/></linearGradient>
        <linearGradient id="_Linear6" x1="0" y1="0" x2="1" y2="0" gradientUnits="userSpaceOnUse" gradientTransform="matrix(2.4579e-15,-40.7817,40.1405,2.49716e-15,143.778,261.547)"><stop offset="0" style="stop-color:rgb(5,5,5);stop-opacity:0.55"/><stop offset="1" style="stop-color:rgb(5,5,5);stop-opacity:0"/></linearGradient>
        <filter id="_Effect7" filterUnits="userSpaceOnUse" x="96.8444" y="202.745" width="61.9452" height="52.4254">
            <feGaussianBlur in="SourceGraphic" stdDeviation="0.68957"/>
        </filter>
        <linearGradient id="_Linear8" x1="0" y1="0" x2="1" y2="0" gradientUnits="userSpaceOnUse" gradientTransform="matrix(2.63657e-15,43.7463,-43.0585,2.67869e-15,134.69,192.662)"><stop offset="0" style="stop-color:black;stop-opacity:0.12"/><stop offset="1" style="stop-color:black;stop-opacity:0"/></linearGradient>
        <filter id="_Effect9" filterUnits="userSpaceOnUse" x="56.2718" y="202.724" width="143.925" height="31.1845">
            <feGaussianBlur in="SourceGraphic" stdDeviation="0.615257"/>
        </filter>
        <radialGradient id="_Radial10" cx="0" cy="0" r="1" gradientUnits="userSpaceOnUse" gradientTransform="matrix(194.9,6.81397e-06,-6.88355e-07,22.4133,128.234,226.987)"><stop offset="0" style="stop-color:black;stop-opacity:0"/><stop offset="0.53" style="stop-color:black;stop-opacity:0.06"/><stop offset="1" style="stop-color:black;stop-opacity:0.27"/></radialGradient>
        <filter id="_Effect11" filterUnits="userSpaceOnUse" x="56.7123" y="202.711" width="143.002" height="31.1967">
            <feGaussianBlur in="SourceGraphic" stdDeviation="0.619707"/>
        </filter>
        <radialGradient id="_Radial12" cx="0" cy="0" r="1" gradientUnits="userSpaceOnUse" gradientTransform="matrix(126.466,-8.11804e-06,2.05023e-06,33.7339,128.213,223.209)"><stop offset="0" style="stop-color:black;stop-opacity:0"/><stop offset="0.5" style="stop-color:black;stop-opacity:0.06"/><stop offset="1" style="stop-color:black;stop-opacity:0.27"/></radialGradient>
        <filter id="_Effect13" filterUnits="userSpaceOnUse" x="97.0922" y="203" width="35.0551" height="31.8617">
            <feGaussianBlur in="SourceGraphic" stdDeviation="0.646167"/>
        </filter>
        <linearGradient id="_Linear14" x1="0" y1="0" x2="1" y2="0" gradientUnits="userSpaceOnUse" gradientTransform="matrix(2.05743e-15,34.1372,-33.6004,2.0903e-15,134.69,188.499)"><stop offset="0" style="stop-color:white;stop-opacity:0.15"/><stop offset="1" style="stop-color:white;stop-opacity:0"/></linearGradient>
        <radialGradient id="_Radial15" cx="0" cy="0" r="1" gradientUnits="userSpaceOnUse" gradientTransform="matrix(200.188,-6.1121e-06,4.01066e-06,149.416,124.936,19.4982)"><stop offset="0" style="stop-color:rgb(239,239,239);stop-opacity:1"/><stop offset="1" style="stop-color:rgb(184,184,184);stop-opacity:1"/></radialGradient>
        <linearGradient id="_Linear16" x1="0" y1="0" x2="1" y2="0" gradientUnits="userSpaceOnUse" gradientTransform="matrix(1.01943e-14,-169.146,166.486,1.03572e-14,155.234,111.33)"><stop offset="0" style="stop-color:rgb(214,214,214);stop-opacity:1"/><stop offset="1" style="stop-color:white;stop-opacity:1"/></linearGradient>
        <linearGradient id="_Linear17" x1="0" y1="0" x2="1" y2="0" gradientUnits="userSpaceOnUse" gradientTransform="matrix(1.16791e-14,-193.781,190.734,1.18657e-14,182.468,164.781)"><stop offset="0" style="stop-color:rgb(31,31,31);stop-opacity:1"/><stop offset="1" style="stop-color:rgb(66,66,66);stop-opacity:1"/></linearGradient>
        <linearGradient id="_Linear18" x1="0" y1="0" x2="1" y2="0" gradientUnits="userSpaceOnUse" gradientTransform="matrix(2.92966e-15,48.6094,-47.845,2.97647e-15,117.628,-25.5984)"><stop offset="0" style="stop-color:white;stop-opacity:1"/><stop offset="1" style="stop-color:white;stop-opacity:0"/></linearGradient>
        <radialGradient id="_Radial19" cx="0" cy="0" r="1" gradientUnits="userSpaceOnUse" gradientTransform="matrix(228.77,0,3.32799e-06,267.034,128,38.8497)"><stop offset="0" style="stop-color:white;stop-opacity:0.71"/><stop offset="1" style="stop-color:white;stop-opacity:0"/></radialGradient>
        <radialGradient id="_Radial20" cx="0" cy="0" r="1" gradientUnits="userSpaceOnUse" gradientTransform="matrix(136.174,-8.4529e-06,2.1632e-05,379.093,128,178.595)"><stop offset="0" style="stop-color:white;stop-opacity:0.71"/><stop offset="1" style="stop-color:white;stop-opacity:0"/></radialGradient>
        <linearGradient id="_Linear21" x1="0" y1="0" x2="1" y2="0" gradientUnits="userSpaceOnUse" gradientTransform="matrix(1.03658e-14,-171.991,169.287,1.05314e-14,275.345,258.598)"><stop offset="0" style="stop-color:white;stop-opacity:1"/><stop offset="1" style="stop-color:white;stop-opacity:0"/></linearGradient>
        <linearGradient id="_Linear22" x1="0" y1="0" x2="1" y2="0.0117634" gradientUnits="userSpaceOnUse" gradientTransform="matrix(58.6092,-136.137,133.996,59.5454,111.13,175.828)"><stop offset="0" style="stop-color:rgb(51,131,230);stop-opacity:1"/><stop offset="1" style="stop-color:rgb(110,202,247);stop-opacity:1"/></linearGradient>
        <radialGradient id="_Radial23" cx="0" cy="0" r="1" gradientUnits="userSpaceOnUse" gradientTransform="matrix(405.866,0,0,144.85,46.3999,173.523)"><stop offset="0" style="stop-color:rgb(51,131,230);stop-opacity:1"/><stop offset="1" style="stop-color:rgb(110,202,247);stop-opacity:1"/></radialGradient>
        <linearGradient id="_Linear24" x1="0" y1="0" x2="1" y2="-0.00674669" gradientUnits="userSpaceOnUse" gradientTransform="matrix(62.1742,287.188,-282.672,63.1674,99.4006,-139.012)"><stop offset="0" style="stop-color:white;stop-opacity:1"/><stop offset="1" style="stop-color:white;stop-opacity:0"/></linearGradient>
        <linearGradient id="_Linear25" x1="0" y1="0" x2="1" y2="-0.0131174" gradientUnits="userSpaceOnUse" gradientTransform="matrix(-31.3648,-61.0741,60.1138,-31.8659,101.834,146.212)"><stop offset="0" style="stop-color:rgb(255,0,0);stop-opacity:1"/><stop offset="1" style="stop-color:rgb(255,224,224);stop-opacity:1"/></linearGradient>
        <linearGradient id="_Linear26" x1="0" y1="0" x2="1" y2="0" gradientUnits="userSpaceOnUse" gradientTransform="matrix(13.7502,0,0,13.9699,62.6937,117.072)"><stop offset="0" style="stop-color:white;stop-opacity:1"/><stop offset="1" style="stop-color:white;stop-opacity:0"/></linearGradient>
        <linearGradient id="_Linear27" x1="0" y1="0" x2="1" y2="-0.0130767" gradientUnits="userSpaceOnUse" gradientTransform="matrix(-31.1938,-61.0772,60.1168,-31.6921,138.805,105.431)"><stop offset="0" style="stop-color:rgb(0,0,255);stop-opacity:1"/><stop offset="1" style="stop-color:rgb(224,224,255);stop-opacity:1"/></linearGradient>
        <linearGradient id="_Linear28" x1="0" y1="0" x2="1" y2="0" gradientUnits="userSpaceOnUse" gradientTransform="matrix(13.7172,0,0,13.9363,102.057,77.1134)"><stop offset="0" style="stop-color:white;stop-opacity:1"/><stop offset="1" style="stop-color:white;stop-opacity:0"/></linearGradient>
        <linearGradient id="_Linear29" x1="0" y1="0" x2="1" y2="-0.0131105" gradientUnits="userSpaceOnUse" gradientTransform="matrix(31.3356,61.0743,-60.114,31.8362,152.328,73.1576)"><stop offset="0" style="stop-color:rgb(255,255,224);stop-opacity:1"/><stop offset="1" style="stop-color:rgb(255,255,0);stop-opacity:1"/></linearGradient>
        <linearGradient id="_Linear30" x1="0" y1="0" x2="1" y2="0" gradientUnits="userSpaceOnUse" gradientTransform="matrix(13.75,0,0,13.9697,145.892,106.314)"><stop offset="0" style="stop-color:white;stop-opacity:1"/><stop offset="1" style="stop-color:white;stop-opacity:0"/></linearGradient>
    </defs>
</svg>
