<?xml version="1.0" encoding="UTF-8" standalone="no"?>
<!DOCTYPE svg PUBLIC "-//W3C//DTD SVG 1.1//EN" "http://www.w3.org/Graphics/SVG/1.1/DTD/svg11.dtd">
<svg width="30px" height="30px" version="1.1" xmlns="http://www.w3.org/2000/svg" xmlns:xlink="http://www.w3.org/1999/xlink" xml:space="preserve" xmlns:serif="http://www.serif.com/" style="fill-rule:evenodd;clip-rule:evenodd;">
    <g id="window">
        <path d="M29.952,29.532C29.952,29.79 29.822,30 29.662,30L0.29,30C0.13,30 0,29.79 0,29.532L0,0.468C0,0.21 0.13,0 0.29,0L29.662,0C29.822,0 29.952,0.21 29.952,0.468L29.952,29.532Z" style="fill:url(#_Linear1);fill-rule:nonzero;stroke:rgb(7,0,1);stroke-width:0.06px;"/>
        <rect x="0.387" y="6.272" width="29.179" height="23.26" style="fill:rgb(244,242,241);stroke:rgb(35,24,21);stroke-width:0.12px;"/>
        <path d="M28.976,4.974L28.408,4.974L27.493,3.449C27.466,3.402 27.435,3.337 27.402,3.251L27.391,3.251C27.372,3.294 27.341,3.36 27.297,3.449L26.354,4.974L25.784,4.974L27.114,2.971L25.889,0.99L26.46,0.99L27.272,2.39C27.325,2.483 27.372,2.575 27.413,2.668L27.424,2.668C27.483,2.546 27.535,2.449 27.579,2.379L28.425,0.99L28.959,0.99L27.71,2.965L28.976,4.974Z" style="fill:white;fill-rule:nonzero;"/>
        <g id="title-text" serif:id="title text">
            <path d="M2.393,4.305L1,4.305L1,1L1.314,1L1.314,3.955L2.393,3.955L2.393,4.305Z" style="fill:white;fill-rule:nonzero;"/>
            <path d="M3.566,4.36C3.282,4.36 3.056,4.25 2.887,4.03C2.718,3.809 2.633,3.517 2.633,3.153C2.633,2.756 2.721,2.446 2.897,2.224C3.073,2.001 3.311,1.889 3.611,1.889C3.897,1.889 4.12,1.998 4.28,2.214C4.441,2.431 4.521,2.731 4.521,3.116C4.521,3.492 4.435,3.794 4.262,4.02C4.089,4.247 3.857,4.36 3.566,4.36ZM3.588,2.207C3.391,2.207 3.235,2.29 3.12,2.455C3.005,2.62 2.948,2.848 2.948,3.139C2.948,3.418 3.006,3.639 3.122,3.8C3.238,3.962 3.394,4.042 3.588,4.042C3.787,4.042 3.94,3.963 4.046,3.805C4.153,3.647 4.206,3.421 4.206,3.129C4.206,2.834 4.153,2.607 4.046,2.447C3.94,2.287 3.787,2.207 3.588,2.207Z" style="fill:white;fill-rule:nonzero;"/>
            <path d="M6.012,2.327C5.959,2.277 5.881,2.251 5.78,2.251C5.649,2.251 5.539,2.327 5.451,2.479C5.363,2.632 5.319,2.839 5.319,3.102L5.319,4.305L5.012,4.305L5.012,1.945L5.319,1.945L5.319,2.431L5.327,2.431C5.37,2.265 5.437,2.136 5.527,2.043C5.617,1.95 5.718,1.903 5.829,1.903C5.909,1.903 5.97,1.914 6.012,1.935L6.012,2.327Z" style="fill:white;fill-rule:nonzero;"/>
            <path d="M7.887,3.219L6.533,3.219C6.538,3.482 6.595,3.685 6.705,3.828C6.815,3.971 6.966,4.042 7.159,4.042C7.375,4.042 7.573,3.955 7.754,3.78L7.754,4.134C7.586,4.285 7.363,4.36 7.086,4.36C6.815,4.36 6.602,4.253 6.447,4.039C6.292,3.824 6.215,3.523 6.215,3.134C6.215,2.767 6.299,2.467 6.468,2.236C6.638,2.005 6.848,1.889 7.099,1.889C7.35,1.889 7.544,1.989 7.681,2.189C7.819,2.389 7.887,2.666 7.887,3.021L7.887,3.219ZM7.573,2.899C7.571,2.681 7.529,2.511 7.444,2.39C7.36,2.268 7.243,2.207 7.093,2.207C6.948,2.207 6.825,2.271 6.724,2.399C6.623,2.526 6.56,2.693 6.537,2.899L7.573,2.899Z" style="fill:white;fill-rule:nonzero;"/>
            <path d="M11.075,4.305L10.768,4.305L10.768,2.95C10.768,2.688 10.736,2.499 10.67,2.383C10.604,2.266 10.494,2.207 10.339,2.207C10.208,2.207 10.097,2.281 10.005,2.429C9.913,2.576 9.867,2.753 9.867,2.959L9.867,4.305L9.56,4.305L9.56,2.904C9.56,2.439 9.415,2.207 9.124,2.207C8.989,2.207 8.878,2.277 8.79,2.416C8.703,2.555 8.659,2.736 8.659,2.959L8.659,4.305L8.352,4.305L8.352,1.945L8.659,1.945L8.659,2.318L8.667,2.318C8.803,2.032 9.001,1.889 9.262,1.889C9.393,1.889 9.508,1.934 9.605,2.024C9.702,2.114 9.769,2.232 9.805,2.378C9.948,2.052 10.16,1.889 10.442,1.889C10.864,1.889 11.075,2.21 11.075,2.851L11.075,4.305Z" style="fill:white;fill-rule:nonzero;"/>
            <rect x="12.748" y="1" width="0.315" height="3.306" style="fill:white;"/>
            <path d="M14.043,3.964L14.035,3.964L14.035,5.391L13.728,5.391L13.728,1.945L14.035,1.945L14.035,2.36L14.043,2.36C14.194,2.046 14.415,1.889 14.706,1.889C14.953,1.889 15.146,1.995 15.285,2.206C15.423,2.418 15.492,2.701 15.492,3.056C15.492,3.451 15.414,3.767 15.258,4.004C15.102,4.242 14.889,4.36 14.618,4.36C14.369,4.36 14.177,4.228 14.043,3.964ZM14.035,3.012L14.035,3.342C14.035,3.537 14.087,3.702 14.19,3.838C14.293,3.974 14.424,4.042 14.582,4.042C14.768,4.042 14.914,3.955 15.019,3.78C15.125,3.604 15.178,3.361 15.178,3.049C15.178,2.786 15.128,2.58 15.03,2.431C14.931,2.282 14.798,2.207 14.629,2.207C14.45,2.207 14.307,2.284 14.198,2.437C14.089,2.59 14.035,2.781 14.035,3.012Z" style="fill:white;fill-rule:nonzero;"/>
            <path d="M15.867,4.22L15.867,3.814C16.034,3.966 16.219,4.042 16.42,4.042C16.689,4.042 16.824,3.932 16.824,3.71C16.824,3.647 16.813,3.594 16.79,3.55C16.767,3.506 16.735,3.468 16.696,3.434C16.657,3.4 16.61,3.37 16.557,3.343C16.504,3.316 16.447,3.288 16.386,3.259C16.301,3.217 16.226,3.175 16.162,3.133C16.098,3.091 16.044,3.043 16.001,2.99C15.958,2.937 15.925,2.877 15.904,2.809C15.882,2.741 15.871,2.662 15.871,2.572C15.871,2.461 15.891,2.363 15.933,2.278C15.974,2.192 16.029,2.121 16.098,2.063C16.166,2.006 16.245,1.962 16.333,1.933C16.421,1.904 16.511,1.889 16.605,1.889C16.771,1.889 16.92,1.925 17.051,1.995L17.051,2.378C16.91,2.264 16.748,2.207 16.564,2.207C16.506,2.207 16.455,2.215 16.408,2.232C16.362,2.248 16.323,2.27 16.29,2.3C16.256,2.329 16.231,2.364 16.213,2.404C16.195,2.445 16.186,2.49 16.186,2.539C16.186,2.601 16.195,2.652 16.213,2.694C16.231,2.735 16.257,2.772 16.292,2.804C16.327,2.837 16.37,2.866 16.42,2.892C16.47,2.918 16.526,2.947 16.59,2.977C16.675,3.017 16.751,3.058 16.819,3.101C16.886,3.143 16.944,3.191 16.991,3.244C17.038,3.297 17.075,3.358 17.101,3.427C17.126,3.496 17.139,3.578 17.139,3.673C17.139,3.79 17.118,3.892 17.076,3.978C17.034,4.064 16.979,4.135 16.909,4.192C16.839,4.249 16.758,4.291 16.667,4.319C16.576,4.347 16.48,4.36 16.38,4.36C16.183,4.36 16.012,4.314 15.867,4.22Z" style="fill:white;fill-rule:nonzero;"/>
            <path d="M19.162,4.305L18.855,4.305L18.855,3.932L18.847,3.932C18.72,4.217 18.523,4.36 18.255,4.36C17.798,4.36 17.57,4.025 17.57,3.355L17.57,1.945L17.875,1.945L17.875,3.295C17.875,3.793 18.03,4.042 18.34,4.042C18.49,4.042 18.613,3.974 18.71,3.838C18.806,3.702 18.855,3.524 18.855,3.305L18.855,1.945L19.162,1.945L19.162,4.305Z" style="fill:white;fill-rule:nonzero;"/>
            <path d="M22.506,4.305L22.199,4.305L22.199,2.95C22.199,2.688 22.166,2.499 22.1,2.383C22.035,2.266 21.924,2.207 21.77,2.207C21.638,2.207 21.527,2.281 21.435,2.429C21.343,2.576 21.298,2.753 21.298,2.959L21.298,4.305L20.99,4.305L20.99,2.904C20.99,2.439 20.845,2.207 20.554,2.207C20.419,2.207 20.308,2.277 20.22,2.416C20.133,2.555 20.089,2.736 20.089,2.959L20.089,4.305L19.782,4.305L19.782,1.945L20.089,1.945L20.089,2.318L20.097,2.318C20.233,2.032 20.431,1.889 20.692,1.889C20.824,1.889 20.938,1.934 21.035,2.024C21.133,2.114 21.199,2.232 21.236,2.378C21.378,2.052 21.59,1.889 21.873,1.889C22.295,1.889 22.506,2.21 22.506,2.851L22.506,4.305Z" style="fill:white;fill-rule:nonzero;"/>
            <path d="M24.594,1.945L23.83,4.305L23.528,4.305L22.802,1.945L23.139,1.945L23.626,3.66C23.662,3.786 23.685,3.896 23.693,3.989L23.701,3.989C23.713,3.871 23.733,3.764 23.761,3.669L24.27,1.945L24.594,1.945Z" style="fill:white;fill-rule:nonzero;"/>
        </g>
    </g>
    <g id="back">
        <g id="Back">
            <rect x="19" y="24" width="9.5" height="4.125" style="fill:none;stroke:rgb(136,136,136);stroke-width:0.63px;stroke-linejoin:round;"/>
            <rect x="19" y="24" width="9.5" height="4.125" style="fill:rgb(221,221,221);"/>
            <rect x="19.339" y="24.294" width="8.822" height="3.536" style="fill:white;"/>
        </g>
        <path d="M21.5,27.258L21.5,25L21.908,25C22.033,25 22.131,25.048 22.204,25.143C22.276,25.239 22.313,25.363 22.313,25.517C22.313,25.645 22.291,25.756 22.247,25.85C22.203,25.945 22.142,26.012 22.065,26.052L22.065,26.058C22.161,26.076 22.239,26.134 22.297,26.231C22.355,26.328 22.384,26.454 22.384,26.609C22.384,26.803 22.34,26.959 22.252,27.079C22.164,27.198 22.053,27.258 21.918,27.258L21.5,27.258ZM21.668,25.239L21.668,25.969L21.84,25.969C21.932,25.969 22.005,25.934 22.058,25.864C22.11,25.794 22.137,25.696 22.137,25.569C22.137,25.349 22.045,25.239 21.861,25.239L21.668,25.239ZM21.668,26.206L21.668,27.019L21.896,27.019C21.995,27.019 22.072,26.982 22.126,26.909C22.181,26.835 22.208,26.734 22.208,26.606C22.208,26.34 22.092,26.206 21.861,26.206L21.668,26.206Z" style="fill-rule:nonzero;"/>
        <path d="M23.387,27.258L23.223,27.258L23.223,27.006L23.219,27.006C23.147,27.199 23.042,27.296 22.903,27.296C22.801,27.296 22.721,27.254 22.664,27.169C22.606,27.083 22.577,26.971 22.577,26.83C22.577,26.529 22.69,26.353 22.915,26.304L23.223,26.236C23.223,25.962 23.152,25.825 23.012,25.825C22.888,25.825 22.777,25.891 22.677,26.024L22.677,25.759C22.778,25.658 22.894,25.608 23.026,25.608C23.266,25.608 23.387,25.808 23.387,26.209L23.387,27.258ZM23.223,26.443L22.975,26.496C22.899,26.513 22.842,26.543 22.803,26.585C22.765,26.628 22.745,26.703 22.745,26.811C22.745,26.89 22.763,26.954 22.799,27.004C22.835,27.054 22.882,27.079 22.941,27.079C23.023,27.079 23.09,27.034 23.143,26.944C23.196,26.854 23.223,26.741 23.223,26.603L23.223,26.443Z" style="fill-rule:nonzero;"/>
        <path d="M24.395,27.184C24.316,27.259 24.223,27.296 24.115,27.296C23.968,27.296 23.851,27.221 23.761,27.072C23.671,26.922 23.626,26.728 23.626,26.49C23.626,26.224 23.675,26.011 23.771,25.85C23.868,25.688 23.997,25.608 24.159,25.608C24.249,25.608 24.328,25.634 24.397,25.687L24.397,25.951C24.321,25.867 24.239,25.825 24.153,25.825C24.048,25.825 23.962,25.884 23.895,26.002C23.828,26.12 23.794,26.276 23.794,26.468C23.794,26.657 23.826,26.806 23.889,26.915C23.952,27.024 24.037,27.079 24.143,27.079C24.232,27.079 24.316,27.032 24.395,26.939L24.395,27.184Z" style="fill-rule:nonzero;"/>
        <path d="M25.494,27.258L25.264,27.258L24.811,26.483L24.807,26.483L24.807,27.258L24.643,27.258L24.643,24.871L24.807,24.871L24.807,26.384L24.811,26.384L25.242,25.646L25.457,25.646L24.981,26.424L25.494,27.258Z" style="fill-rule:nonzero;"/>
    </g>
    <g id="next">
        <g id="Next">
            <rect x="8" y="24" width="9.5" height="4.125" style="fill:none;stroke:rgb(136,136,136);stroke-width:0.63px;stroke-linejoin:round;"/>
            <rect x="8" y="24" width="9.5" height="4.125" style="fill:rgb(221,221,221);"/>
            <rect x="8.339" y="24.294" width="8.822" height="3.536" style="fill:white;"/>
        </g>
        <path d="M11.657,27.258L11.451,27.258L10.712,25.458C10.694,25.413 10.678,25.366 10.666,25.317L10.66,25.317C10.665,25.365 10.668,25.468 10.668,25.627L10.668,27.258L10.5,27.258L10.5,25L10.718,25L11.437,26.772C11.467,26.845 11.486,26.896 11.495,26.923L11.499,26.923C11.492,26.858 11.489,26.747 11.489,26.591L11.489,25L11.657,25L11.657,27.258Z" style="fill-rule:nonzero;"/>
        <path d="M12.835,26.517L12.112,26.517C12.114,26.696 12.145,26.835 12.204,26.932C12.262,27.03 12.343,27.079 12.446,27.079C12.561,27.079 12.668,27.019 12.764,26.899L12.764,27.142C12.674,27.245 12.555,27.296 12.407,27.296C12.262,27.296 12.148,27.223 12.066,27.076C11.983,26.93 11.941,26.724 11.941,26.458C11.941,26.207 11.987,26.003 12.077,25.845C12.168,25.687 12.28,25.608 12.414,25.608C12.548,25.608 12.652,25.676 12.725,25.813C12.799,25.949 12.835,26.139 12.835,26.381L12.835,26.517ZM12.667,26.298C12.666,26.149 12.644,26.033 12.599,25.95C12.554,25.867 12.491,25.825 12.411,25.825C12.334,25.825 12.268,25.869 12.214,25.956C12.16,26.043 12.126,26.157 12.114,26.298L12.667,26.298Z" style="fill-rule:nonzero;"/>
        <path d="M13.832,25.646L13.488,26.461L13.826,27.258L13.635,27.258L13.434,26.735C13.421,26.703 13.406,26.662 13.389,26.613L13.385,26.613C13.382,26.622 13.366,26.663 13.338,26.735L13.133,27.258L12.943,27.258L13.293,26.468L12.958,25.646L13.15,25.646L13.348,26.197C13.363,26.238 13.377,26.28 13.391,26.323L13.395,26.323L13.651,25.646L13.832,25.646Z" style="fill-rule:nonzero;"/>
        <path d="M14.5,27.243C14.461,27.276 14.41,27.293 14.347,27.293C14.167,27.293 14.078,27.135 14.078,26.82L14.078,25.866L13.901,25.866L13.901,25.646L14.078,25.646L14.078,25.252L14.242,25.169L14.242,25.646L14.5,25.646L14.5,25.866L14.242,25.866L14.242,26.775C14.242,26.883 14.253,26.96 14.277,27.006C14.3,27.052 14.339,27.076 14.393,27.076C14.434,27.076 14.47,27.058 14.5,27.022L14.5,27.243Z" style="fill-rule:nonzero;"/>
    </g>
    <g>
        <path d="M8.902,9.738C8.82,9.758 8.761,9.8 8.726,9.832C8.655,9.894 8.548,10.036 8.652,10.268L9.752,12.729C9.816,12.873 9.756,13.118 9.619,13.249L7.274,15.495C7.052,15.706 7.081,15.848 7.117,15.917C7.153,15.987 7.263,16.098 7.569,16.047L10.803,15.503C10.992,15.473 11.227,15.562 11.309,15.697L12.702,18.014C12.834,18.232 13.014,18.235 13.107,18.216C13.201,18.196 13.371,18.123 13.456,17.858L14.356,15.059C14.361,15.041 14.384,15.024 14.394,15.006L22.541,21.841C22.718,21.997 22.84,22.145 23.085,21.926L23.603,21.458C23.849,21.239 23.727,21.039 23.55,20.883L16.001,14.303L18.013,13.845C18.316,13.769 18.398,13.624 18.42,13.542C18.441,13.461 18.439,13.306 18.186,13.195L15.502,12.007C15.349,11.939 15.238,11.729 15.272,11.568L15.86,8.748C15.915,8.483 15.792,8.39 15.712,8.359C15.632,8.328 15.462,8.309 15.22,8.503L12.661,10.572C12.515,10.69 12.238,10.747 12.074,10.694L9.225,9.766C9.09,9.723 8.984,9.719 8.902,9.738Z" style="fill-opacity:0.1;fill-rule:nonzero;"/>
        <path d="M12.623,14.154L13.054,13.77C13.258,13.589 13.564,13.569 13.741,13.724L22.479,21.41C22.656,21.565 22.635,21.837 22.432,22.018L22.001,22.402C21.798,22.583 21.492,22.604 21.315,22.448L12.576,14.762C12.399,14.607 12.42,14.336 12.623,14.154Z" style="fill-rule:nonzero;"/>
        <path d="M13.575,14.729L13.968,14.388C14.154,14.227 14.237,14.361 14.394,14.504L22.22,21.388C22.377,21.53 22.453,21.782 22.268,21.943L21.896,22.247C21.71,22.407 21.608,22.363 21.452,22.221L13.523,15.276C13.366,15.133 13.389,14.889 13.575,14.729Z" style="fill:url(#_Radial2);fill-rule:nonzero;"/>
        <path d="M12.991,14.086C15.443,16.252 17.022,17.072 19.062,19.519C20.047,20.701 20.064,20.898 19.897,21.048C17.041,18.574 15.666,17.308 12.811,14.835C12.923,14.595 12.879,14.325 12.991,14.086Z" style="fill:url(#_Linear3);"/>
        <path d="M10.376,13.855C10.334,13.754 10.291,13.654 10.249,13.553C10.207,13.452 10.164,13.351 10.122,13.251C10.073,13.143 10.083,13.057 10.188,12.998C10.542,12.823 10.897,12.648 11.251,12.473C11.606,12.298 11.961,12.123 12.315,11.948C12.437,12.279 10.89,12.957 10.686,13.08C10.312,13.305 10.756,13.526 10.376,13.855Z" style="fill:url(#_Linear4);"/>
        <path d="M14.398,8.218C14.321,8.187 14.158,8.163 13.93,8.35L11.515,10.333C11.377,10.446 11.108,10.5 10.951,10.446L8.22,9.499C7.963,9.41 7.812,9.498 7.745,9.558C7.678,9.618 7.581,9.752 7.683,9.981L8.765,12.404C8.828,12.545 8.77,12.78 8.641,12.906L6.429,15.069C6.22,15.271 6.248,15.416 6.283,15.484C6.318,15.553 6.421,15.66 6.712,15.614L9.795,15.129C9.974,15.102 10.203,15.194 10.283,15.327L11.644,17.609C11.773,17.824 11.941,17.826 12.029,17.809C12.118,17.791 12.279,17.722 12.357,17.465L13.182,14.743C13.23,14.584 13.429,14.405 13.607,14.361L16.662,13.611C16.95,13.54 17.026,13.396 17.045,13.317C17.065,13.238 17.061,13.088 16.818,12.975L14.244,11.778C14.096,11.709 13.99,11.504 14.02,11.347L14.547,8.599C14.596,8.34 14.475,8.249 14.398,8.218Z" style="fill:rgb(4,255,20);fill-rule:nonzero;stroke:url(#_Linear5);stroke-width:0.07px;stroke-linejoin:round;"/>
        <path d="M13.656,11.183L13.921,9.399C13.953,9.184 13.849,9.104 13.783,9.076C13.718,9.048 13.58,9.023 13.396,9.172L11.448,10.758C11.337,10.849 11.114,10.886 10.98,10.836L8.66,9.966C8.441,9.884 8.318,9.953 8.264,10.001C8.211,10.049 8.135,10.159 8.228,10.352L9.223,12.408C9.281,12.528 9.241,12.722 9.138,12.824L7.367,14.566C7.199,14.728 7.228,14.85 7.26,14.908C7.292,14.966 7.382,15.059 7.624,15.03L10.186,14.714C10.336,14.696 10.53,14.78 10.602,14.894L10.641,14.956C10.854,14.788 11.063,14.612 11.268,14.425C12.384,13.408 13.193,12.275 13.656,11.183Z" style="fill:url(#_Linear6);fill-rule:nonzero;"/>
        <path d="M13.228,14.032C13.041,14.071 12.84,14.251 12.798,14.418L12.316,17.473C12.248,17.742 12.081,17.807 11.988,17.822C11.921,17.833 11.81,17.829 11.698,17.742C11.808,17.845 11.927,17.844 11.997,17.83C12.086,17.812 12.248,17.742 12.328,17.483L13.172,14.742C13.221,14.581 13.422,14.401 13.602,14.355L16.678,13.588C16.823,13.552 16.914,13.498 16.972,13.442C16.915,13.498 16.821,13.55 16.67,13.581L13.228,14.032Z" style="fill:rgb(232,149,0);fill-opacity:0.3;fill-rule:nonzero;"/>
    </g>
    <defs>
        <linearGradient id="_Linear1" x1="0" y1="0" x2="1" y2="0" gradientUnits="userSpaceOnUse" gradientTransform="matrix(1.83698e-15,-30.0001,30.0001,1.83698e-15,14.976,30)"><stop offset="0" style="stop-color:rgb(62,77,151);stop-opacity:1"/><stop offset="0.11" style="stop-color:rgb(39,68,146);stop-opacity:1"/><stop offset="0.2" style="stop-color:rgb(21,64,143);stop-opacity:1"/><stop offset="0.25" style="stop-color:rgb(26,67,145);stop-opacity:1"/><stop offset="0.4" style="stop-color:rgb(35,74,149);stop-opacity:1"/><stop offset="0.71" style="stop-color:rgb(33,81,154);stop-opacity:1"/><stop offset="0.77" style="stop-color:rgb(33,82,155);stop-opacity:1"/><stop offset="0.81" style="stop-color:rgb(35,83,156);stop-opacity:1"/><stop offset="0.85" style="stop-color:rgb(59,96,165);stop-opacity:1"/><stop offset="0.89" style="stop-color:rgb(44,88,159);stop-opacity:1"/><stop offset="0.94" style="stop-color:rgb(77,108,172);stop-opacity:1"/><stop offset="0.98" style="stop-color:rgb(97,125,183);stop-opacity:1"/><stop offset="0.99" style="stop-color:rgb(123,150,199);stop-opacity:1"/><stop offset="1" style="stop-color:rgb(154,178,217);stop-opacity:1"/><stop offset="1" style="stop-color:rgb(155,179,217);stop-opacity:1"/></linearGradient>
        <radialGradient id="_Radial2" cx="0" cy="0" r="1" gradientUnits="userSpaceOnUse" gradientTransform="matrix(2.26286,-2.31102,12.6898,9.64523,21.9795,20.61)"><stop offset="0" style="stop-color:white;stop-opacity:1"/><stop offset="0.5" style="stop-color:white;stop-opacity:0.29"/><stop offset="1" style="stop-color:white;stop-opacity:0"/></radialGradient>
        <linearGradient id="_Linear3" x1="0" y1="0" x2="1" y2="0" gradientUnits="userSpaceOnUse" gradientTransform="matrix(-0.343201,-2.27113,2.27113,-0.343201,14.8587,16.5289)"><stop offset="0" style="stop-color:white;stop-opacity:1"/><stop offset="0.5" style="stop-color:white;stop-opacity:0.29"/><stop offset="1" style="stop-color:white;stop-opacity:0"/></linearGradient>
        <linearGradient id="_Linear4" x1="0" y1="0" x2="1" y2="0" gradientUnits="userSpaceOnUse" gradientTransform="matrix(3.35294,1.64386,-1.64386,3.35294,10.3905,12.9242)"><stop offset="0" style="stop-color:white;stop-opacity:0.73"/><stop offset="1" style="stop-color:white;stop-opacity:0"/></linearGradient>
        <linearGradient id="_Linear5" x1="0" y1="0" x2="1" y2="0" gradientUnits="userSpaceOnUse" gradientTransform="matrix(20.7329,0.077006,-0.077006,20.7329,1.26639,15.8811)"><stop offset="0" style="stop-color:rgb(255,0,0);stop-opacity:0.42"/><stop offset="1" style="stop-color:rgb(146,0,0);stop-opacity:0.42"/></linearGradient>
        <linearGradient id="_Linear6" x1="0" y1="0" x2="1" y2="0" gradientUnits="userSpaceOnUse" gradientTransform="matrix(10.0108,5.75764,-5.75764,10.0108,7.73284,11.2122)"><stop offset="0" style="stop-color:white;stop-opacity:1"/><stop offset="1" style="stop-color:white;stop-opacity:0"/></linearGradient>
    </defs>
</svg>
