<?xml version="1.0" encoding="UTF-8" standalone="no"?><!DOCTYPE svg PUBLIC "-//W3C//DTD SVG 1.1//EN" "http://www.w3.org/Graphics/SVG/1.1/DTD/svg11.dtd"><svg width="100%" height="100%" viewBox="0 0 398 513" version="1.1" xmlns="http://www.w3.org/2000/svg" xmlns:xlink="http://www.w3.org/1999/xlink" xml:space="preserve" xmlns:serif="http://www.serif.com/" style="fill-rule:evenodd;clip-rule:evenodd;stroke-linejoin:round;stroke-miterlimit:2;"><path d="M379.711,357.58l-0,94.704c-0,11.354 -4.723,21.754 -12.292,29.323c-7.568,7.569 -17.97,12.292 -29.325,12.292l-278.19,0c-11.38,0 -21.798,-4.702 -29.364,-12.268c-7.546,-7.545 -12.251,-17.934 -12.251,-29.347l-0,-94.704l361.422,0Zm-259.248,78.321l153.267,0c5.207,0 9.431,-4.224 9.431,-9.431c-0,-5.207 -4.224,-9.431 -9.431,-9.431l-153.267,0c-5.207,0 -9.43,4.224 -9.43,9.431c-0,5.207 4.223,9.431 9.43,9.431Z" style="fill:#fff;"/><path d="M280.25,25.577l96.063,103.928c-23.644,-0 -62.161,4.111 -81.231,-12.174c-8.815,-7.531 -13.791,-18.713 -14.832,-32.907l0,-58.847Z" style="fill:#fff;"/><path d="M18.289,339.085l-0,-279.179c-0,-11.437 4.686,-21.842 12.231,-29.386c7.545,-7.545 17.949,-12.231 29.384,-12.231l202.058,0l0,66.175c0,0.419 0.029,0.838 0.086,1.254c1.408,19.205 8.511,34.65 21.174,45.471c24.778,21.164 65.976,16.605 96.489,16.605l0,191.291l-361.422,0Zm312.926,-58.31l0,-22.291l-27.864,0l0,-64.785l-27.864,0l0,87.076l55.728,0Zm-232.802,-87.076l-31.626,0l18.949,42.912l-18.949,44.164l29.537,0l10.309,-25.077l1.254,0l10.45,25.077l30.928,0l-19.365,-45.001l19.365,-42.075l-30.232,0l-9.614,23.267l-1.392,0l-9.614,-23.267Zm86.586,87.076l1.673,-42.213l0.835,0l10.728,42.213l21.316,0l10.588,-42.213l0.975,0l1.673,42.213l29.117,0l-5.294,-87.076l-36.362,0l-10.868,44.305l-0.974,0l-10.868,-44.305l-36.363,0l-5.293,87.076l29.117,0Z" style="fill:#fff;"/><path d="M59.904,0l217.546,0c2.869,-0.002 5.578,1.348 7.303,3.641l110.781,119.851c1.557,1.68 2.422,3.888 2.419,6.179l0.047,0l0,322.613c0,16.401 -6.783,31.384 -17.651,42.253c-10.87,10.87 -25.855,17.651 -42.255,17.651l-278.19,0c-16.421,0 -31.422,-6.756 -42.294,-17.628c-10.847,-10.846 -17.61,-25.81 -17.61,-42.276l0,-392.378c0,-16.484 6.739,-31.466 17.59,-42.316c10.85,-10.851 25.83,-17.59 42.314,-17.59Zm-41.615,339.085l361.422,0l0,-191.291c-30.513,0 -71.711,4.559 -96.489,-16.605c-12.663,-10.821 -19.766,-26.266 -21.174,-45.471c-0.057,-0.416 -0.086,-0.835 -0.086,-1.254l0,-66.175l-202.058,0c-11.435,0 -21.839,4.686 -29.384,12.231c-7.545,7.544 -12.231,17.949 -12.231,29.386l0,279.179Zm361.422,18.495l-361.422,-0l0,94.704c0,11.413 4.705,21.802 12.251,29.347c7.566,7.566 17.984,12.268 29.364,12.268l278.19,0c11.355,0 21.757,-4.723 29.325,-12.292c7.569,-7.569 12.292,-17.969 12.292,-29.323l0,-94.704Zm-48.496,-76.805l-55.728,-0l0,-87.076l27.864,-0l0,64.785l27.864,-0l0,22.291Zm-146.216,-0l-29.117,-0l5.293,-87.076l36.363,-0l10.868,44.305l0.974,-0l10.868,-44.305l36.362,-0l5.294,87.076l-29.117,-0l-1.673,-42.213l-0.975,-0l-10.588,42.213l-21.316,-0l-10.728,-42.213l-0.835,-0l-1.673,42.213Zm-86.586,-87.076l9.614,23.267l1.392,-0l9.614,-23.267l30.232,-0l-19.365,42.075l19.365,45.001l-30.928,0l-10.45,-25.077l-1.254,0l-10.309,25.077l-29.537,0l18.949,-44.164l-18.949,-42.912l31.626,0Zm22.05,242.202c-5.207,0 -9.43,-4.224 -9.43,-9.431c0,-5.207 4.223,-9.431 9.43,-9.431l153.267,0c5.207,0 9.431,4.224 9.431,9.431c0,5.207 -4.224,9.431 -9.431,9.431l-153.267,0Zm159.787,-410.324l0,58.847c1.041,14.194 6.017,25.376 14.832,32.907c19.07,16.285 57.587,12.174 81.231,12.174l-96.063,-103.928Z" style="fill-rule:nonzero;"/></svg>