<?xml version="1.0" encoding="UTF-8" standalone="no"?>
<!DOCTYPE svg PUBLIC "-//W3C//DTD SVG 1.1//EN" "http://www.w3.org/Graphics/SVG/1.1/DTD/svg11.dtd">
<svg width="30px" height="30px" version="1.1" xmlns="http://www.w3.org/2000/svg" xmlns:xlink="http://www.w3.org/1999/xlink" xml:space="preserve" xmlns:serif="http://www.serif.com/" style="fill-rule:evenodd;clip-rule:evenodd;stroke-linejoin:round;stroke-miterlimit:2;">
    <g>
        <path d="M25.818,20.944L25.818,26.491C25.818,27.156 25.535,27.765 25.082,28.209C24.629,28.652 24.006,28.929 23.327,28.929L6.673,28.929C5.992,28.929 5.368,28.653 4.916,28.21C4.464,27.768 4.182,27.16 4.182,26.491L4.182,20.944L25.818,20.944ZM10.299,25.532L19.474,25.532C19.785,25.532 20.038,25.284 20.038,24.979C20.038,24.674 19.785,24.427 19.474,24.427L10.299,24.427C9.987,24.427 9.734,24.674 9.734,24.979C9.734,25.284 9.987,25.532 10.299,25.532Z" style="fill:white;"/>
        <path d="M19.864,1.498L25.614,7.585C24.199,7.585 21.893,7.826 20.752,6.872C20.224,6.431 19.926,5.776 19.864,4.945L19.864,1.498Z" style="fill:white;"/>
        <path d="M4.182,19.861L4.182,3.509C4.182,2.839 4.463,2.229 4.914,1.788C5.366,1.346 5.989,1.071 6.673,1.071L18.769,1.071L18.769,4.947C18.769,4.972 18.771,4.996 18.774,5.021C18.858,6.146 19.284,7.05 20.042,7.684C21.525,8.924 23.991,8.657 25.818,8.657L25.818,19.861L4.182,19.861ZM22.915,16.446L22.915,15.14L21.247,15.14L21.247,11.345L19.579,11.345L19.579,16.446L22.915,16.446ZM8.979,11.345L7.085,11.345L8.22,13.859L7.085,16.446L8.854,16.446L9.471,14.977L9.546,14.977L10.171,16.446L12.023,16.446L10.864,13.81L12.023,11.345L10.213,11.345L9.637,12.708L9.554,12.708L8.979,11.345ZM14.162,16.446L14.262,13.973L14.312,13.973L14.954,16.446L16.23,16.446L16.864,13.973L16.922,13.973L17.023,16.446L18.766,16.446L18.449,11.345L16.272,11.345L15.621,13.94L15.563,13.94L14.912,11.345L12.736,11.345L12.419,16.446L14.162,16.446Z" style="fill:white;"/>
        <path d="M6.673,0L19.696,0C19.868,-0 20.03,0.079 20.133,0.213L26.765,7.233C26.858,7.332 26.91,7.461 26.91,7.595L26.913,7.595L26.913,26.491C26.913,27.452 26.507,28.33 25.856,28.966C25.205,29.603 24.308,30 23.327,30L6.673,30C5.69,30 4.792,29.604 4.142,28.967C3.492,28.332 3.087,27.456 3.087,26.491L3.087,3.509C3.087,2.543 3.491,1.666 4.14,1.03C4.79,0.395 5.687,0 6.673,0ZM4.182,19.861L25.818,19.861L25.818,8.657C23.991,8.657 21.525,8.924 20.042,7.684C19.284,7.05 18.858,6.146 18.774,5.021C18.771,4.996 18.769,4.972 18.769,4.947L18.769,1.071L6.673,1.071C5.989,1.071 5.366,1.346 4.914,1.788C4.463,2.229 4.182,2.839 4.182,3.509L4.182,19.861ZM25.818,20.944L4.182,20.944L4.182,26.491C4.182,27.16 4.464,27.768 4.916,28.21C5.368,28.653 5.992,28.929 6.673,28.929L23.327,28.929C24.006,28.929 24.629,28.652 25.082,28.209C25.535,27.765 25.818,27.156 25.818,26.491L25.818,20.944ZM22.915,16.446L19.579,16.446L19.579,11.345L21.247,11.345L21.247,15.14L22.915,15.14L22.915,16.446ZM14.162,16.446L12.419,16.446L12.736,11.345L14.912,11.345L15.563,13.94L15.621,13.94L16.272,11.345L18.449,11.345L18.766,16.446L17.023,16.446L16.922,13.973L16.864,13.973L16.23,16.446L14.954,16.446L14.312,13.973L14.262,13.973L14.162,16.446ZM8.979,11.345L9.554,12.708L9.637,12.708L10.213,11.345L12.023,11.345L10.864,13.81L12.023,16.446L10.171,16.446L9.546,14.977L9.471,14.977L8.854,16.446L7.085,16.446L8.22,13.859L7.085,11.345L8.979,11.345ZM10.299,25.532C9.987,25.532 9.734,25.284 9.734,24.979C9.734,24.674 9.987,24.427 10.299,24.427L19.474,24.427C19.785,24.427 20.038,24.674 20.038,24.979C20.038,25.284 19.785,25.532 19.474,25.532L10.299,25.532ZM19.864,1.498L19.864,4.945C19.926,5.776 20.224,6.431 20.752,6.872C21.893,7.826 24.199,7.585 25.614,7.585L19.864,1.498Z" style="fill-rule:nonzero;"/>
    </g>
    <rect id="outer" x="0" y="0" width="30" height="30" style="fill:none;"/>
</svg>
