<?xml version="1.0" encoding="UTF-8" standalone="no"?><!DOCTYPE svg PUBLIC "-//W3C//DTD SVG 1.1//EN" "http://www.w3.org/Graphics/SVG/1.1/DTD/svg11.dtd"><svg width="100%" height="100%" viewBox="0 0 100 100" version="1.1" xmlns="http://www.w3.org/2000/svg" xmlns:xlink="http://www.w3.org/1999/xlink" xml:space="preserve" xmlns:serif="http://www.serif.com/" style="fill-rule:evenodd;clip-rule:evenodd;"><path id="path2992" d="M83,22l0,15l15,0l-15,-15Z" style="fill:#888;fill-rule:nonzero;"/><path id="path2994" d="M83,22l0,15l15,0l0,60l-53,0l0,-75l38,0l15,15" style="fill:#444;fill-rule:nonzero;stroke:#222;stroke-width:1.5px;"/><path id="path2996" d="M52,67l17,-17l0,9l22,0l0,16l-22,0l0,9l-17,-17Z" style="fill:#008000;fill-rule:nonzero;stroke:#eee;stroke-width:4px;"/><path id="path2998" d="M40,1l0,15l15,0l-15,-15Z" style="fill:#fff;fill-rule:nonzero;"/><path id="path3000" d="M40,1l0,15l15,0l0,60l-53,0l0,-75l38,0l15,15" style="fill:#ebebda;fill-rule:nonzero;stroke:#666;stroke-width:1.5px;"/><path id="path3002" d="M48,45l-17,-17l0,9l-22,0l0,16l22,0l0,9l17,-17Z" style="fill:#f00;fill-rule:nonzero;stroke:#444;stroke-width:4px;"/></svg>