<?xml version="1.0" encoding="UTF-8" standalone="no"?>
<!DOCTYPE svg PUBLIC "-//W3C//DTD SVG 1.1//EN" "http://www.w3.org/Graphics/SVG/1.1/DTD/svg11.dtd">
<svg width="30px" height="30px" version="1.1" xmlns="http://www.w3.org/2000/svg" xmlns:xlink="http://www.w3.org/1999/xlink" xml:space="preserve" xmlns:serif="http://www.serif.com/" style="fill-rule:evenodd;clip-rule:evenodd;stroke-linejoin:round;stroke-miterlimit:2;">
    <g>
        <path d="M3.786,6.375C3.786,5.754 4.29,5.25 4.911,5.25L25.095,5.25C25.716,5.25 26.22,5.754 26.22,6.375L26.22,11.625C26.22,12.246 25.716,12.75 25.095,12.75L4.911,12.75C4.29,12.75 3.786,12.246 3.786,11.625L3.786,6.375ZM6.036,7.5L6.036,10.5L23.97,10.5L23.97,7.5L6.036,7.5Z" style="fill:rgb(33,33,33);fill-rule:nonzero;"/>
        <path d="M18.345,14.969C17.723,14.969 17.22,15.473 17.22,16.093L17.22,22.844C17.22,23.465 17.723,23.969 18.345,23.969L25.095,23.969C25.716,23.969 26.22,23.465 26.22,22.844L26.22,16.093C26.22,15.473 25.716,14.969 25.095,14.969L18.345,14.969ZM19.47,21.719L19.47,17.219L23.97,17.219L23.97,21.719L19.47,21.719Z" style="fill:rgb(33,33,33);fill-rule:nonzero;"/>
        <path d="M3.786,16.875C3.786,16.254 4.29,15.75 4.911,15.75L13.875,15.75C14.496,15.75 15,16.254 15,16.875C15,17.496 14.496,18 13.875,18L4.911,18C4.29,18 3.786,17.496 3.786,16.875Z" style="fill:rgb(33,33,33);fill-rule:nonzero;"/>
        <path d="M4.911,21C4.29,21 3.786,21.504 3.786,22.125C3.786,22.746 4.29,23.25 4.911,23.25L13.875,23.25C14.496,23.25 15,22.746 15,22.125C15,21.504 14.496,21 13.875,21L4.911,21Z" style="fill:rgb(33,33,33);fill-rule:nonzero;"/>
        <path d="M-0,5.625C-0,3.346 1.846,1.5 4.125,1.5L25.875,1.5C28.153,1.5 30,3.346 30,5.625L30,24.375C30,26.653 28.153,28.5 25.875,28.5L4.125,28.5C1.846,28.5 -0,26.653 -0,24.375L-0,5.625ZM4.125,3.75C3.09,3.75 2.25,4.59 2.25,5.625L2.25,24.375C2.25,25.41 3.09,26.25 4.125,26.25L25.875,26.25C26.91,26.25 27.75,25.41 27.75,24.375L27.75,5.625C27.75,4.59 26.91,3.75 25.875,3.75L4.125,3.75Z" style="fill:rgb(33,33,33);fill-rule:nonzero;"/>
    </g>
    <rect id="outer" x="0" y="0" width="30" height="30" style="fill:none;"/>
</svg>
