<?xml version="1.0" encoding="UTF-8" standalone="no"?><!DOCTYPE svg PUBLIC "-//W3C//DTD SVG 1.1//EN" "http://www.w3.org/Graphics/SVG/1.1/DTD/svg11.dtd"><svg width="100%" height="100%" viewBox="0 0 24 24" version="1.1" xmlns="http://www.w3.org/2000/svg" xmlns:xlink="http://www.w3.org/1999/xlink" xml:space="preserve" xmlns:serif="http://www.serif.com/" style="fill-rule:evenodd;clip-rule:evenodd;stroke-linejoin:round;stroke-miterlimit:2;"><path d="M4.524,6.25c-0,-0.414 0.336,-0.75 0.75,-0.75l13.456,0c0.414,0 0.75,0.336 0.75,0.75l-0,3.5c-0,0.414 -0.336,0.75 -0.75,0.75l-13.456,0c-0.414,0 -0.75,-0.336 -0.75,-0.75l-0,-3.5Zm1.5,0.75l-0,2l11.956,0l-0,-2l-11.956,0Z" style="fill:#212121;fill-rule:nonzero;"/><path d="M14.23,11.979c-0.415,-0 -0.75,0.336 -0.75,0.75l-0,4.5c-0,0.414 0.335,0.75 0.75,0.75l4.5,0c0.414,0 0.75,-0.336 0.75,-0.75l-0,-4.5c-0,-0.414 -0.336,-0.75 -0.75,-0.75l-4.5,0Zm0.75,4.5l-0,-3l3,0l-0,3l-3,0Z" style="fill:#212121;fill-rule:nonzero;"/><path d="M4.524,13.25c-0,-0.414 0.336,-0.75 0.75,-0.75l5.976,0c0.414,0 0.75,0.336 0.75,0.75c0,0.414 -0.336,0.75 -0.75,0.75l-5.976,0c-0.414,0 -0.75,-0.336 -0.75,-0.75Z" style="fill:#212121;fill-rule:nonzero;"/><path d="M5.274,16c-0.414,0 -0.75,0.336 -0.75,0.75c-0,0.414 0.336,0.75 0.75,0.75l5.976,0c0.414,0 0.75,-0.336 0.75,-0.75c0,-0.414 -0.336,-0.75 -0.75,-0.75l-5.976,0Z" style="fill:#212121;fill-rule:nonzero;"/><path d="M2,5.75c0,-1.519 1.231,-2.75 2.75,-2.75l14.5,0c1.519,0 2.75,1.231 2.75,2.75l0,12.5c0,1.519 -1.231,2.75 -2.75,2.75l-14.5,0c-1.519,0 -2.75,-1.231 -2.75,-2.75l0,-12.5Zm2.75,-1.25c-0.69,0 -1.25,0.56 -1.25,1.25l0,12.5c0,0.69 0.56,1.25 1.25,1.25l14.5,0c0.69,0 1.25,-0.56 1.25,-1.25l0,-12.5c0,-0.69 -0.56,-1.25 -1.25,-1.25l-14.5,0Z" style="fill:#212121;fill-rule:nonzero;"/></svg>