<?xml version="1.0" encoding="UTF-8" standalone="no"?>
<svg
   width="100px"
   height="100px"
   viewBox="0 0 100 100"
   version="1.1"
   id="svg3004"
>
  <defs
     id="defs3008" />
  <path
     style="fill:#888888;stroke:none;"
     d="m 83,22 0,15 15,0 z"
     id="path2992" />
  <path
     style="fill:#444444;stroke:#222222;stroke-width:1.5;"
     d="m 83,22 0,15 15,0 0,60 -53,0 0,-75 38,-0 15,15"
     id="path2994" />
  <path
     style="fill:#008000;stroke:#eeeeee;stroke-width:4;fill-opacity:1"
     d="m 52,67 17,-17 0,9 22,0 0,16 -22,0 0,9 z"
     id="path2996" />
  <path
     style="fill:#ffffff;stroke:none;"
     d="m 40,1 0,15 15,0 z"
     id="path2998" />
  <path
     style="fill:#EBEBDA;stroke:#666666;stroke-width:1.5;"
     d="m 40,1 0,15 15,0 0,60 -53,0 0,-75 38,-0 15,15"
     id="path3000" />
  <path
     style="fill:#ff0000;stroke:#444444;stroke-width:4;fill-opacity:1"
     d="m 48,45 -17,-17 0,9 -22,0 0,16 22,0 0,9 z"
     id="path3002" />
</svg>
