<?xml version="1.0" encoding="UTF-8" standalone="no"?>
<!DOCTYPE svg PUBLIC "-//W3C//DTD SVG 1.1//EN" "http://www.w3.org/Graphics/SVG/1.1/DTD/svg11.dtd">
<svg width="30px" height="30px" version="1.1" xmlns="http://www.w3.org/2000/svg" xmlns:xlink="http://www.w3.org/1999/xlink" xml:space="preserve" xmlns:serif="http://www.serif.com/" style="fill-rule:evenodd;clip-rule:evenodd;stroke-linecap:round;">
    <g>
        <rect x="19.47" y="17.219" width="4.5" height="4.5" style="fill:white;"/>
        <rect x="6.036" y="7.5" width="17.934" height="3" style="fill:white;"/>
        <path d="M4.125,3.75L25.875,3.75C26.91,3.75 27.75,4.59 27.75,5.625L27.75,24.375C27.75,25.41 26.91,26.25 25.875,26.25L4.125,26.25C3.09,26.25 2.25,25.41 2.25,24.375L2.25,5.625C2.25,4.59 3.09,3.75 4.125,3.75ZM3.786,6.375L3.786,11.625C3.786,12.246 4.29,12.75 4.911,12.75L25.095,12.75C25.716,12.75 26.22,12.246 26.22,11.625L26.22,6.375C26.22,5.754 25.716,5.25 25.095,5.25L4.911,5.25C4.29,5.25 3.786,5.754 3.786,6.375ZM18.345,14.969C17.723,14.969 17.22,15.473 17.22,16.093L17.22,22.844C17.22,23.465 17.723,23.969 18.345,23.969L25.095,23.969C25.716,23.969 26.22,23.465 26.22,22.844L26.22,16.093C26.22,15.473 25.716,14.969 25.095,14.969L18.345,14.969ZM3.786,16.875C3.786,17.496 4.29,18 4.911,18L13.875,18C14.496,18 15,17.496 15,16.875C15,16.254 14.496,15.75 13.875,15.75L4.911,15.75C4.29,15.75 3.786,16.254 3.786,16.875ZM4.911,21C4.29,21 3.786,21.504 3.786,22.125C3.786,22.746 4.29,23.25 4.911,23.25L13.875,23.25C14.496,23.25 15,22.746 15,22.125C15,21.504 14.496,21 13.875,21L4.911,21Z" style="fill:white;"/>
        <path d="M3.786,6.375C3.786,5.754 4.29,5.25 4.911,5.25L25.095,5.25C25.716,5.25 26.22,5.754 26.22,6.375L26.22,11.625C26.22,12.246 25.716,12.75 25.095,12.75L4.911,12.75C4.29,12.75 3.786,12.246 3.786,11.625L3.786,6.375ZM6.036,7.5L6.036,10.5L23.97,10.5L23.97,7.5L6.036,7.5Z" style="fill:rgb(33,33,33);fill-rule:nonzero;"/>
        <path d="M18.345,14.969C17.723,14.969 17.22,15.473 17.22,16.093L17.22,22.844C17.22,23.465 17.723,23.969 18.345,23.969L25.095,23.969C25.716,23.969 26.22,23.465 26.22,22.844L26.22,16.093C26.22,15.473 25.716,14.969 25.095,14.969L18.345,14.969ZM19.47,21.719L19.47,17.219L23.97,17.219L23.97,21.719L19.47,21.719Z" style="fill:rgb(33,33,33);fill-rule:nonzero;"/>
        <path d="M3.786,16.875C3.786,16.254 4.29,15.75 4.911,15.75L13.875,15.75C14.496,15.75 15,16.254 15,16.875C15,17.496 14.496,18 13.875,18L4.911,18C4.29,18 3.786,17.496 3.786,16.875Z" style="fill:rgb(33,33,33);fill-rule:nonzero;"/>
        <path d="M4.911,21C4.29,21 3.786,21.504 3.786,22.125C3.786,22.746 4.29,23.25 4.911,23.25L13.875,23.25C14.496,23.25 15,22.746 15,22.125C15,21.504 14.496,21 13.875,21L4.911,21Z" style="fill:rgb(33,33,33);fill-rule:nonzero;"/>
        <path d="M0,5.625C0,3.346 1.846,1.5 4.125,1.5L25.875,1.5C28.153,1.5 30,3.346 30,5.625L30,24.375C30,26.653 28.153,28.5 25.875,28.5L4.125,28.5C1.846,28.5 0,26.653 0,24.375L0,5.625ZM4.125,3.75C3.09,3.75 2.25,4.59 2.25,5.625L2.25,24.375C2.25,25.41 3.09,26.25 4.125,26.25L25.875,26.25C26.91,26.25 27.75,25.41 27.75,24.375L27.75,5.625C27.75,4.59 26.91,3.75 25.875,3.75L4.125,3.75Z" style="fill:rgb(86,86,86);fill-rule:nonzero;"/>
    </g>
    <g>
        <g>
            <path d="M11.551,5.031C7.297,5.031 3.842,8.486 3.842,12.741C3.842,16.996 7.297,20.446 11.551,20.446C13.371,20.446 14.975,19.724 16.308,18.668C16.203,19.191 16.266,19.734 16.705,20.111L22.434,25.092C23.077,25.651 24.049,25.578 24.608,24.936C25.168,24.287 25.094,23.32 24.451,22.761L18.718,17.78C18.367,17.476 17.938,17.383 17.515,17.445C18.55,16.128 19.271,14.544 19.271,12.741C19.271,8.486 15.822,5.031 11.567,5.031L11.551,5.031ZM11.509,5.674C15.503,5.674 18.456,8.178 18.456,12.621C18.456,17.158 15.42,19.568 11.509,19.568C7.694,19.568 4.563,16.708 4.563,12.621C4.563,8.45 7.605,5.674 11.509,5.674Z" style="fill:rgb(220,220,220);fill-rule:nonzero;stroke:url(#_Linear1);stroke-width:1.05px;"/>
            <path d="M11.536,5C7.27,5 3.805,8.466 3.805,12.731C3.805,17.001 7.27,20.467 11.536,20.467C13.36,20.467 14.975,19.739 16.298,18.678C16.188,19.201 16.256,19.745 16.689,20.127L22.439,25.123C23.087,25.683 24.06,25.61 24.624,24.967C25.183,24.318 25.11,23.346 24.462,22.782L18.713,17.785C18.362,17.481 17.933,17.393 17.505,17.45C18.545,16.133 19.271,14.539 19.271,12.746C19.271,8.481 15.806,5.016 11.536,5.016M11.499,6.683C14.781,6.683 17.447,9.344 17.447,12.631C17.447,15.914 14.781,18.574 11.499,18.574C8.216,18.574 5.551,15.914 5.551,12.631C5.551,9.344 8.216,6.683 11.499,6.683" style="fill:rgb(220,220,220);fill-rule:nonzero;"/>
        </g>
        <path d="M22.465,25.123C22.214,23.931 23.191,22.61 24.336,22.62L18.713,17.78C17.175,17.748 16.481,18.966 16.736,20.184L22.465,25.123" style="fill:url(#_Linear2);fill-rule:nonzero;"/>
        <circle cx="11.42" cy="12.485" r="7.197" style="fill:none;stroke:url(#_Linear3);stroke-width:0.52px;stroke-linecap:butt;"/>
        <circle cx="11.42" cy="12.563" r="6.073" style="fill:url(#_Radial4);stroke:rgb(48,99,163);stroke-width:0.52px;stroke-linecap:butt;"/>
        <path d="M11.326,7.258C8.603,7.258 6.398,9.459 6.398,12.181C6.398,12.971 6.617,13.692 6.946,14.351C7.6,14.591 8.295,14.759 9.032,14.759C12.263,14.759 14.834,12.218 15.032,9.04C14.128,7.969 12.832,7.258 11.326,7.258" style="fill:url(#_Radial5);fill-rule:nonzero;"/>
        <path d="M24.428,24.797C23.96,25.345 23.139,25.406 22.597,24.931L17.086,20.116C16.543,19.642 16.482,18.811 16.95,18.262C17.418,17.713 18.239,17.653 18.782,18.127L24.292,22.942C24.835,23.417 24.896,24.247 24.428,24.797Z" style="fill:none;stroke:white;stroke-opacity:0.43;stroke-width:0.52px;stroke-linecap:butt;"/>
    </g>
    <rect id="outer" x="0" y="0" width="30" height="30" style="fill:none;"/>
    <defs>
        <linearGradient id="_Linear1" x1="0" y1="0" x2="1" y2="0" gradientUnits="userSpaceOnUse" gradientTransform="matrix(2.24232,3.78947,-3.78947,2.24232,15.9315,15.5949)"><stop offset="0" style="stop-color:rgb(138,138,138);stop-opacity:1"/><stop offset="1" style="stop-color:rgb(72,72,72);stop-opacity:1"/></linearGradient>
        <linearGradient id="_Linear2" x1="0" y1="0" x2="1" y2="0" gradientUnits="userSpaceOnUse" gradientTransform="matrix(1.81424,-1.98388,1.98388,1.81424,19.3177,22.2337)"><stop offset="0" style="stop-color:rgb(125,125,125);stop-opacity:1"/><stop offset="0.5" style="stop-color:rgb(177,177,177);stop-opacity:1"/><stop offset="1" style="stop-color:rgb(104,104,104);stop-opacity:1"/></linearGradient>
        <linearGradient id="_Linear3" x1="0" y1="0" x2="1" y2="0" gradientUnits="userSpaceOnUse" gradientTransform="matrix(-0.512233,7.90826,-7.90826,-0.512233,11.6455,8.99855)"><stop offset="0" style="stop-color:white;stop-opacity:1"/><stop offset="0.5" style="stop-color:white;stop-opacity:0.22"/><stop offset="1" style="stop-color:white;stop-opacity:1"/></linearGradient>
        <radialGradient id="_Radial4" cx="0" cy="0" r="1" gradientUnits="userSpaceOnUse" gradientTransform="matrix(6.07658,0,0,-6.07658,11.8973,14.9841)"><stop offset="0" style="stop-color:rgb(114,159,207);stop-opacity:0.21"/><stop offset="1" style="stop-color:rgb(114,159,207);stop-opacity:0.68"/></radialGradient>
        <radialGradient id="_Radial5" cx="0" cy="0" r="1" gradientUnits="userSpaceOnUse" gradientTransform="matrix(9.02646,0,0,-7.83944,9.65279,8.91346)"><stop offset="0" style="stop-color:white;stop-opacity:0.83"/><stop offset="1" style="stop-color:white;stop-opacity:0.21"/></radialGradient>
    </defs>
</svg>
